<svg width="204" height="94" viewBox="0 0 204 94" fill="none" xmlns="http://www.w3.org/2000/svg">
<g filter="url(#filter0_d_2219_3068)">
<path d="M8.81678 20.3643L5.66312 4.11451L20.143 12.1353L13.0104 14.2272L8.81678 20.3643Z" fill="#039855"/>
<path d="M8.81678 20.3643L5.66312 4.11451L20.143 12.1353L13.0104 14.2272L8.81678 20.3643Z" stroke="white"/>
</g>
<g filter="url(#filter1_d_2219_3068)">
<path d="M18 22C18 20.8954 18.8954 20 20 20H166C179.255 20 190 30.7452 190 44V56C190 69.2548 179.255 80 166 80H42C28.7452 80 18 69.2548 18 56V22Z" fill="#039855" shape-rendering="crispEdges"/>
<path d="M20 21H166C178.703 21 189 31.2975 189 44V56C189 68.7025 178.703 79 166 79H42C29.2975 79 19 68.7025 19 56V22C19 21.4477 19.4477 21 20 21Z" stroke="#039855" stroke-width="2" shape-rendering="crispEdges"/>
<path opacity="0.8" d="M35.0387 43V33.5455H40.9016V34.7734H36.4652V37.6541H40.4815V38.8775H36.4652V43H35.0387ZM42.5451 43V35.9091H43.9254V43H42.5451ZM43.2422 34.815C43.0021 34.815 42.7959 34.735 42.6236 34.5749C42.4543 34.4118 42.3697 34.2179 42.3697 33.9933C42.3697 33.7655 42.4543 33.5716 42.6236 33.4116C42.7959 33.2485 43.0021 33.1669 43.2422 33.1669C43.4822 33.1669 43.6869 33.2485 43.8562 33.4116C44.0285 33.5716 44.1147 33.7655 44.1147 33.9933C44.1147 34.2179 44.0285 34.4118 43.8562 34.5749C43.6869 34.735 43.4822 34.815 43.2422 34.815ZM48.7554 45.8068C48.1922 45.8068 47.7075 45.733 47.3012 45.5852C46.8981 45.4375 46.5687 45.2421 46.3133 44.9989C46.0579 44.7558 45.867 44.4896 45.7409 44.2003L46.9273 43.7109C47.0104 43.8464 47.1212 43.9895 47.2597 44.1403C47.4012 44.2942 47.5921 44.425 47.8321 44.5327C48.0753 44.6404 48.3876 44.6942 48.7693 44.6942C49.2925 44.6942 49.7249 44.5665 50.0665 44.3111C50.4081 44.0587 50.5789 43.6555 50.5789 43.1016V41.7074H50.4912C50.4081 41.8582 50.2881 42.0259 50.1311 42.2106C49.9772 42.3952 49.7649 42.5553 49.4941 42.6907C49.2232 42.8261 48.8708 42.8938 48.4369 42.8938C47.8767 42.8938 47.372 42.763 46.9227 42.5014C46.4764 42.2367 46.1225 41.8474 45.8609 41.3335C45.6024 40.8164 45.4731 40.1809 45.4731 39.4268C45.4731 38.6728 45.6008 38.0265 45.8563 37.4879C46.1148 36.9493 46.4687 36.5369 46.9181 36.2507C47.3674 35.9614 47.8767 35.8168 48.4461 35.8168C48.8862 35.8168 49.2417 35.8906 49.5125 36.0384C49.7834 36.183 49.9942 36.3523 50.145 36.5462C50.2989 36.7401 50.4173 36.9109 50.5004 37.0586H50.602V35.9091H51.9546V43.157C51.9546 43.7663 51.8131 44.2665 51.5299 44.6573C51.2468 45.0482 50.8636 45.3375 50.3804 45.5252C49.9003 45.7129 49.3586 45.8068 48.7554 45.8068ZM48.7416 41.7489C49.1386 41.7489 49.474 41.6566 49.748 41.4719C50.0249 41.2842 50.2342 41.0165 50.3758 40.6687C50.5204 40.3178 50.5928 39.8977 50.5928 39.4084C50.5928 38.9313 50.522 38.5112 50.3804 38.1481C50.2388 37.7849 50.0311 37.5018 49.7572 37.2987C49.4833 37.0924 49.1447 36.9893 48.7416 36.9893C48.3261 36.9893 47.9798 37.0971 47.7029 37.3125C47.4259 37.5249 47.2166 37.8142 47.075 38.1804C46.9365 38.5466 46.8673 38.956 46.8673 39.4084C46.8673 39.8731 46.9381 40.2809 47.0796 40.6317C47.2212 40.9826 47.4305 41.2565 47.7075 41.4535C47.9875 41.6504 48.3322 41.7489 48.7416 41.7489ZM53.8058 43V35.9091H55.1308V37.0632H55.2185C55.3662 36.6723 55.6078 36.3677 55.9433 36.1491C56.2787 35.9276 56.6804 35.8168 57.1482 35.8168C57.6221 35.8168 58.0191 35.9276 58.3392 36.1491C58.6624 36.3707 58.9009 36.6754 59.0548 37.0632H59.1286C59.2979 36.6847 59.5672 36.383 59.9365 36.1584C60.3058 35.9306 60.7459 35.8168 61.2568 35.8168C61.9001 35.8168 62.4248 36.0183 62.8311 36.4215C63.2404 36.8247 63.445 37.4325 63.445 38.245V43H62.0647V38.3743C62.0647 37.8942 61.9339 37.5464 61.6723 37.331C61.4107 37.1155 61.0983 37.0078 60.7352 37.0078C60.2858 37.0078 59.9365 37.1463 59.6872 37.4233C59.4379 37.6972 59.3133 38.0496 59.3133 38.4805V43H57.9376V38.2866C57.9376 37.9019 57.8176 37.5926 57.5775 37.3587C57.3374 37.1248 57.0251 37.0078 56.6404 37.0078C56.3788 37.0078 56.1372 37.0771 55.9156 37.2156C55.6971 37.351 55.5201 37.5402 55.3847 37.7834C55.2523 38.0265 55.1862 38.3081 55.1862 38.6282V43H53.8058ZM67.3587 43.157C66.9093 43.157 66.5031 43.0739 66.1399 42.9077C65.7768 42.7384 65.489 42.4937 65.2766 42.1737C65.0674 41.8536 64.9627 41.4612 64.9627 40.9964C64.9627 40.5964 65.0397 40.267 65.1935 40.0085C65.3474 39.75 65.5552 39.5453 65.8168 39.3945C66.0784 39.2437 66.3707 39.1299 66.6939 39.0529C67.017 38.976 67.3464 38.9175 67.6818 38.8775C68.1065 38.8282 68.4512 38.7882 68.7159 38.7575C68.9806 38.7236 69.1729 38.6697 69.293 38.5959C69.413 38.522 69.473 38.402 69.473 38.2358V38.2035C69.473 37.8003 69.3591 37.4879 69.1314 37.2663C68.9067 37.0447 68.5713 36.9339 68.125 36.9339C67.6603 36.9339 67.294 37.037 67.0263 37.2433C66.7616 37.4464 66.5785 37.6726 66.4769 37.9219L65.1797 37.6264C65.3336 37.1955 65.5582 36.8478 65.8537 36.5831C66.1522 36.3153 66.4954 36.1214 66.8832 36.0014C67.271 35.8783 67.6787 35.8168 68.1065 35.8168C68.3897 35.8168 68.6897 35.8506 69.0067 35.9183C69.3268 35.983 69.6254 36.103 69.9023 36.2784C70.1824 36.4538 70.4117 36.7047 70.5902 37.0309C70.7687 37.354 70.858 37.7741 70.858 38.2912V43H69.5099V42.0305H69.4545C69.3653 42.209 69.2314 42.3845 69.0529 42.5568C68.8744 42.7292 68.6451 42.8723 68.3651 42.9862C68.085 43.1 67.7495 43.157 67.3587 43.157ZM67.6587 42.049C68.0404 42.049 68.3666 41.9736 68.6374 41.8228C68.9113 41.672 69.1191 41.475 69.2607 41.2319C69.4053 40.9857 69.4776 40.7225 69.4776 40.4425V39.5284C69.4284 39.5777 69.333 39.6238 69.1914 39.6669C69.0529 39.7069 68.8944 39.7423 68.7159 39.7731C68.5374 39.8008 68.3635 39.8269 68.1942 39.8516C68.025 39.8731 67.8834 39.8916 67.7695 39.907C67.5018 39.9408 67.2571 39.9978 67.0355 40.0778C66.817 40.1578 66.6416 40.2732 66.5092 40.424C66.38 40.5717 66.3153 40.7687 66.3153 41.0149C66.3153 41.3565 66.4415 41.6151 66.6939 41.7905C66.9463 41.9628 67.2679 42.049 67.6587 42.049ZM81.4043 36.0291C81.3551 35.5921 81.1519 35.2536 80.7949 35.0135C80.4379 34.7704 79.9886 34.6488 79.4469 34.6488C79.0591 34.6488 78.7237 34.7103 78.4405 34.8335C78.1574 34.9535 77.9373 35.1197 77.7804 35.332C77.6265 35.5413 77.5495 35.7798 77.5495 36.0476C77.5495 36.2723 77.6019 36.4661 77.7065 36.6293C77.8142 36.7924 77.9542 36.9293 78.1266 37.0401C78.302 37.1478 78.4898 37.2386 78.6898 37.3125C78.8899 37.3833 79.0822 37.4418 79.2669 37.4879L80.1902 37.728C80.4918 37.8018 80.8011 37.9019 81.1181 38.0281C81.4351 38.1542 81.729 38.3204 81.9998 38.5266C82.2707 38.7328 82.4892 38.9883 82.6554 39.293C82.8246 39.5977 82.9093 39.9624 82.9093 40.3871C82.9093 40.9226 82.7708 41.3981 82.4938 41.8136C82.2199 42.229 81.8213 42.5568 81.2981 42.7969C80.778 43.0369 80.1486 43.157 79.41 43.157C78.7021 43.157 78.0897 43.0446 77.5726 42.82C77.0556 42.5953 76.6509 42.2768 76.3585 41.8643C76.0661 41.4489 75.9045 40.9564 75.8738 40.3871H77.3049C77.3326 40.7287 77.4434 41.0134 77.6373 41.2411C77.8342 41.4658 78.085 41.6335 78.3897 41.7443C78.6975 41.852 79.0345 41.9059 79.4007 41.9059C79.8039 41.9059 80.1625 41.8428 80.4764 41.7166C80.7934 41.5874 81.0427 41.4089 81.2243 41.1811C81.4058 40.9503 81.4966 40.681 81.4966 40.3732C81.4966 40.0932 81.4166 39.8639 81.2566 39.6854C81.0996 39.5069 80.8857 39.3591 80.6149 39.2422C80.3471 39.1252 80.044 39.0221 79.7054 38.9329L78.5882 38.6282C77.8311 38.422 77.231 38.1188 76.7878 37.7188C76.3477 37.3187 76.1277 36.7893 76.1277 36.1307C76.1277 35.5859 76.2754 35.1104 76.5708 34.7042C76.8663 34.2979 77.2664 33.9825 77.7711 33.7578C78.2759 33.5301 78.8452 33.4162 79.4792 33.4162C80.1194 33.4162 80.6841 33.5285 81.1735 33.7532C81.6659 33.9779 82.0537 34.2872 82.3368 34.6811C82.62 35.072 82.7677 35.5213 82.78 36.0291H81.4043ZM87.8131 35.9091V37.017H83.9399V35.9091H87.8131ZM84.9786 34.2102H86.3589V40.918C86.3589 41.1857 86.3989 41.3873 86.479 41.5227C86.559 41.6551 86.6621 41.7459 86.7883 41.7951C86.9175 41.8413 87.0576 41.8643 87.2084 41.8643C87.3192 41.8643 87.4161 41.8567 87.4992 41.8413C87.5823 41.8259 87.6469 41.8136 87.6931 41.8043L87.9424 42.9446C87.8624 42.9754 87.7485 43.0062 87.6008 43.0369C87.453 43.0708 87.2684 43.0893 87.0468 43.0923C86.6836 43.0985 86.3451 43.0339 86.0312 42.8984C85.7172 42.763 85.4633 42.5537 85.2694 42.2706C85.0756 41.9875 84.9786 41.632 84.9786 41.2042V34.2102ZM91.4036 43.157C90.9542 43.157 90.548 43.0739 90.1848 42.9077C89.8217 42.7384 89.5339 42.4937 89.3216 42.1737C89.1123 41.8536 89.0076 41.4612 89.0076 40.9964C89.0076 40.5964 89.0846 40.267 89.2385 40.0085C89.3923 39.75 89.6001 39.5453 89.8617 39.3945C90.1233 39.2437 90.4157 39.1299 90.7388 39.0529C91.062 38.976 91.3913 38.9175 91.7267 38.8775C92.1515 38.8282 92.4962 38.7882 92.7608 38.7575C93.0255 38.7236 93.2179 38.6697 93.3379 38.5959C93.4579 38.522 93.5179 38.402 93.5179 38.2358V38.2035C93.5179 37.8003 93.4041 37.4879 93.1763 37.2663C92.9516 37.0447 92.6162 36.9339 92.1699 36.9339C91.7052 36.9339 91.339 37.037 91.0712 37.2433C90.8065 37.4464 90.6234 37.6726 90.5218 37.9219L89.2246 37.6264C89.3785 37.1955 89.6032 36.8478 89.8986 36.5831C90.1971 36.3153 90.5403 36.1214 90.9281 36.0014C91.3159 35.8783 91.7237 35.8168 92.1515 35.8168C92.4346 35.8168 92.7347 35.8506 93.0517 35.9183C93.3717 35.983 93.6703 36.103 93.9473 36.2784C94.2273 36.4538 94.4566 36.7047 94.6351 37.0309C94.8136 37.354 94.9029 37.7741 94.9029 38.2912V43H93.5549V42.0305H93.4995C93.4102 42.209 93.2763 42.3845 93.0978 42.5568C92.9193 42.7292 92.69 42.8723 92.41 42.9862C92.1299 43.1 91.7944 43.157 91.4036 43.157ZM91.7037 42.049C92.0853 42.049 92.4115 41.9736 92.6824 41.8228C92.9563 41.672 93.164 41.475 93.3056 41.2319C93.4502 40.9857 93.5225 40.7225 93.5225 40.4425V39.5284C93.4733 39.5777 93.3779 39.6238 93.2363 39.6669C93.0978 39.7069 92.9393 39.7423 92.7608 39.7731C92.5823 39.8008 92.4084 39.8269 92.2392 39.8516C92.0699 39.8731 91.9283 39.8916 91.8145 39.907C91.5467 39.9408 91.302 39.9978 91.0804 40.0778C90.8619 40.1578 90.6865 40.2732 90.5542 40.424C90.4249 40.5717 90.3603 40.7687 90.3603 41.0149C90.3603 41.3565 90.4864 41.6151 90.7388 41.7905C90.9912 41.9628 91.3128 42.049 91.7037 42.049ZM98.1217 33.5455V43H96.7414V33.5455H98.1217ZM101.248 40.5948L101.239 38.9098H101.479L104.304 35.9091H105.957L102.735 39.3253H102.518L101.248 40.5948ZM99.9787 43V33.5455H101.359V43H99.9787ZM104.457 43L101.918 39.63L102.869 38.6651L106.151 43H104.457ZM109.979 43.1431C109.281 43.1431 108.679 42.9938 108.174 42.6953C107.672 42.3937 107.285 41.9705 107.011 41.4258C106.74 40.878 106.604 40.2363 106.604 39.5007C106.604 38.7744 106.74 38.1342 107.011 37.5803C107.285 37.0263 107.666 36.5939 108.156 36.283C108.648 35.9722 109.224 35.8168 109.882 35.8168C110.282 35.8168 110.67 35.8829 111.046 36.0153C111.421 36.1476 111.758 36.3554 112.057 36.6385C112.355 36.9216 112.591 37.2894 112.763 37.7418C112.935 38.1912 113.021 38.7375 113.021 39.3807V39.87H107.385V38.8359H111.669C111.669 38.4728 111.595 38.1512 111.447 37.8711C111.299 37.5879 111.092 37.3648 110.824 37.2017C110.559 37.0386 110.248 36.957 109.891 36.957C109.504 36.957 109.165 37.0524 108.876 37.2433C108.59 37.431 108.368 37.6772 108.211 37.9819C108.057 38.2835 107.98 38.6113 107.98 38.9652V39.7731C107.98 40.247 108.063 40.6502 108.229 40.9826C108.399 41.315 108.634 41.5689 108.936 41.7443C109.237 41.9167 109.59 42.0028 109.993 42.0028C110.255 42.0028 110.493 41.9659 110.709 41.892C110.924 41.8151 111.11 41.7012 111.267 41.5504C111.424 41.3996 111.544 41.2134 111.627 40.9918L112.934 41.2273C112.829 41.612 112.641 41.949 112.37 42.2383C112.103 42.5245 111.766 42.7476 111.359 42.9077C110.956 43.0646 110.496 43.1431 109.979 43.1431ZM114.553 43V35.9091H115.887V37.0355H115.961C116.09 36.6539 116.318 36.3538 116.644 36.1353C116.973 35.9137 117.346 35.8029 117.761 35.8029C117.848 35.8029 117.949 35.806 118.066 35.8121C118.186 35.8183 118.28 35.826 118.348 35.8352V37.1555C118.292 37.1402 118.194 37.1232 118.052 37.1048C117.911 37.0832 117.769 37.0724 117.627 37.0724C117.301 37.0724 117.01 37.1417 116.755 37.2802C116.503 37.4156 116.303 37.6049 116.155 37.848C116.007 38.0881 115.933 38.362 115.933 38.6697V43H114.553Z" fill="white" fill-opacity="0.7"/>
<path d="M36.8409 60.8182V66H35.142V54.3636H36.8182V58.6932H36.9261C37.1307 58.2235 37.4432 57.8504 37.8636 57.5739C38.2841 57.2973 38.8333 57.1591 39.5114 57.1591C40.1098 57.1591 40.6326 57.2822 41.0795 57.5284C41.5303 57.7746 41.8788 58.142 42.125 58.6307C42.375 59.1155 42.5 59.7216 42.5 60.4489V66H40.8011V60.6534C40.8011 60.0133 40.6364 59.517 40.3068 59.1648C39.9773 58.8087 39.5189 58.6307 38.9318 58.6307C38.5303 58.6307 38.1705 58.7159 37.8523 58.8864C37.5379 59.0568 37.2898 59.3068 37.108 59.6364C36.9299 59.9621 36.8409 60.3561 36.8409 60.8182ZM44.767 66V57.2727H46.4659V66H44.767ZM45.625 55.9261C45.3295 55.9261 45.0758 55.8277 44.8636 55.6307C44.6553 55.4299 44.5511 55.1913 44.5511 54.9148C44.5511 54.6345 44.6553 54.3958 44.8636 54.1989C45.0758 53.9981 45.3295 53.8977 45.625 53.8977C45.9205 53.8977 46.1723 53.9981 46.3807 54.1989C46.5928 54.3958 46.6989 54.6345 46.6989 54.9148C46.6989 55.1913 46.5928 55.4299 46.3807 55.6307C46.1723 55.8277 45.9205 55.9261 45.625 55.9261ZM53.1222 66V54.3636H54.821V58.6875H54.9233C55.0218 58.5057 55.1638 58.2955 55.3494 58.0568C55.535 57.8182 55.7926 57.6098 56.1222 57.4318C56.4517 57.25 56.8873 57.1591 57.429 57.1591C58.1335 57.1591 58.7623 57.3371 59.3153 57.6932C59.8684 58.0492 60.3021 58.5625 60.6165 59.233C60.9347 59.9034 61.0938 60.7102 61.0938 61.6534C61.0938 62.5966 60.9366 63.4053 60.6222 64.0795C60.3078 64.75 59.8759 65.267 59.3267 65.6307C58.7775 65.9905 58.1506 66.1705 57.446 66.1705C56.9157 66.1705 56.482 66.0814 56.1449 65.9034C55.8116 65.7254 55.5502 65.517 55.3608 65.2784C55.1714 65.0398 55.0256 64.8277 54.9233 64.642H54.7812V66H53.1222ZM54.7869 61.6364C54.7869 62.25 54.8759 62.7879 55.054 63.25C55.232 63.7121 55.4896 64.0739 55.8267 64.3352C56.1638 64.5928 56.5767 64.7216 57.0653 64.7216C57.5729 64.7216 57.9972 64.5871 58.3381 64.3182C58.679 64.0455 58.9366 63.6761 59.1108 63.2102C59.2888 62.7443 59.3778 62.2197 59.3778 61.6364C59.3778 61.0606 59.2907 60.5436 59.1165 60.0852C58.946 59.6269 58.6884 59.2652 58.3438 59C58.0028 58.7348 57.5767 58.6023 57.0653 58.6023C56.5729 58.6023 56.1562 58.7292 55.8153 58.983C55.4782 59.2367 55.2225 59.5909 55.0483 60.0455C54.8741 60.5 54.7869 61.0303 54.7869 61.6364ZM66.7628 66.1761C65.9029 66.1761 65.1624 65.9924 64.5412 65.625C63.9238 65.2538 63.4465 64.733 63.1094 64.0625C62.776 63.3883 62.6094 62.5985 62.6094 61.6932C62.6094 60.7992 62.776 60.0114 63.1094 59.3295C63.4465 58.6477 63.9162 58.1155 64.5185 57.733C65.1245 57.3504 65.8329 57.1591 66.6435 57.1591C67.1359 57.1591 67.6132 57.2405 68.0753 57.4034C68.5374 57.5663 68.9522 57.822 69.3196 58.1705C69.687 58.5189 69.9768 58.9716 70.1889 59.5284C70.401 60.0814 70.5071 60.7538 70.5071 61.5455V62.1477H63.5696V60.875H68.8423C68.8423 60.428 68.7514 60.0322 68.5696 59.6875C68.3878 59.339 68.1321 59.0644 67.8026 58.8636C67.4768 58.6629 67.0942 58.5625 66.6548 58.5625C66.1776 58.5625 65.7609 58.6799 65.4048 58.9148C65.0526 59.1458 64.7798 59.4489 64.5866 59.8239C64.3973 60.1951 64.3026 60.5985 64.3026 61.0341V62.0284C64.3026 62.6117 64.4048 63.108 64.6094 63.517C64.8177 63.9261 65.1075 64.2386 65.4787 64.4545C65.8499 64.6667 66.2836 64.7727 66.7798 64.7727C67.1018 64.7727 67.3954 64.7273 67.6605 64.6364C67.9257 64.5417 68.1548 64.4015 68.348 64.2159C68.5412 64.0303 68.6889 63.8011 68.7912 63.5284L70.3991 63.8182C70.2704 64.2917 70.0393 64.7064 69.706 65.0625C69.3764 65.4148 68.9616 65.6894 68.4616 65.8864C67.9654 66.0795 67.3991 66.1761 66.7628 66.1761ZM78.9318 59.4034L77.392 59.6761C77.3277 59.4792 77.2254 59.2917 77.0852 59.1136C76.9489 58.9356 76.7633 58.7898 76.5284 58.6761C76.2936 58.5625 76 58.5057 75.6477 58.5057C75.1667 58.5057 74.7652 58.6136 74.4432 58.8295C74.1212 59.0417 73.9602 59.3163 73.9602 59.6534C73.9602 59.9451 74.0682 60.1799 74.2841 60.358C74.5 60.536 74.8485 60.6818 75.3295 60.7955L76.7159 61.1136C77.5189 61.2992 78.1174 61.5852 78.5114 61.9716C78.9053 62.358 79.1023 62.8598 79.1023 63.4773C79.1023 64 78.9508 64.4659 78.6477 64.875C78.3485 65.2803 77.9299 65.5985 77.392 65.8295C76.858 66.0606 76.2386 66.1761 75.5341 66.1761C74.5568 66.1761 73.7595 65.9678 73.142 65.5511C72.5246 65.1307 72.1458 64.5341 72.0057 63.7614L73.6477 63.5114C73.75 63.9394 73.9602 64.2633 74.2784 64.483C74.5966 64.6989 75.0114 64.8068 75.5227 64.8068C76.0795 64.8068 76.5246 64.6913 76.858 64.4602C77.1913 64.2254 77.358 63.9394 77.358 63.6023C77.358 63.3295 77.2557 63.1004 77.0511 62.9148C76.8504 62.7292 76.5417 62.589 76.125 62.4943L74.6477 62.1705C73.8333 61.9848 73.2311 61.6894 72.8409 61.2841C72.4545 60.8788 72.2614 60.3655 72.2614 59.7443C72.2614 59.2292 72.4053 58.7784 72.6932 58.392C72.9811 58.0057 73.3788 57.7045 73.8864 57.4886C74.3939 57.2689 74.9754 57.1591 75.6307 57.1591C76.5739 57.1591 77.3163 57.3636 77.858 57.7727C78.3996 58.178 78.7576 58.7216 78.9318 59.4034ZM85.044 57.2727V58.6364H80.277V57.2727H85.044ZM81.5554 55.1818H83.2543V63.4375C83.2543 63.767 83.3035 64.0152 83.402 64.1818C83.5005 64.3447 83.6274 64.4564 83.7827 64.517C83.9418 64.5739 84.1141 64.6023 84.2997 64.6023C84.4361 64.6023 84.5554 64.5928 84.6577 64.5739C84.7599 64.5549 84.8395 64.5398 84.8963 64.5284L85.2031 65.9318C85.1046 65.9697 84.9645 66.0076 84.7827 66.0455C84.6009 66.0871 84.3736 66.1098 84.1009 66.1136C83.6539 66.1212 83.2372 66.0417 82.8509 65.875C82.4645 65.7083 82.152 65.4508 81.9134 65.1023C81.6747 64.7538 81.5554 64.3163 81.5554 63.7898V55.1818ZM86.9233 66V57.2727H88.6222V66H86.9233ZM87.7812 55.9261C87.4858 55.9261 87.232 55.8277 87.0199 55.6307C86.8116 55.4299 86.7074 55.1913 86.7074 54.9148C86.7074 54.6345 86.8116 54.3958 87.0199 54.1989C87.232 53.9981 87.4858 53.8977 87.7812 53.8977C88.0767 53.8977 88.3286 53.9981 88.5369 54.1989C88.7491 54.3958 88.8551 54.6345 88.8551 54.9148C88.8551 55.1913 88.7491 55.4299 88.5369 55.6307C88.3286 55.8277 88.0767 55.9261 87.7812 55.9261ZM94.669 66.1761C93.8092 66.1761 93.0687 65.9924 92.4474 65.625C91.83 65.2538 91.3527 64.733 91.0156 64.0625C90.6823 63.3883 90.5156 62.5985 90.5156 61.6932C90.5156 60.7992 90.6823 60.0114 91.0156 59.3295C91.3527 58.6477 91.8224 58.1155 92.4247 57.733C93.0308 57.3504 93.7391 57.1591 94.5497 57.1591C95.0421 57.1591 95.5194 57.2405 95.9815 57.4034C96.4437 57.5663 96.8584 57.822 97.2259 58.1705C97.5933 58.5189 97.883 58.9716 98.0952 59.5284C98.3073 60.0814 98.4134 60.7538 98.4134 61.5455V62.1477H91.4759V60.875H96.7486C96.7486 60.428 96.6577 60.0322 96.4759 59.6875C96.294 59.339 96.0384 59.0644 95.7088 58.8636C95.383 58.6629 95.0005 58.5625 94.5611 58.5625C94.0838 58.5625 93.6671 58.6799 93.3111 58.9148C92.9588 59.1458 92.6861 59.4489 92.4929 59.8239C92.3035 60.1951 92.2088 60.5985 92.2088 61.0341V62.0284C92.2088 62.6117 92.3111 63.108 92.5156 63.517C92.724 63.9261 93.0137 64.2386 93.3849 64.4545C93.7562 64.6667 94.1899 64.7727 94.6861 64.7727C95.008 64.7727 95.3016 64.7273 95.5668 64.6364C95.8319 64.5417 96.0611 64.4015 96.2543 64.2159C96.4474 64.0303 96.5952 63.8011 96.6974 63.5284L98.3054 63.8182C98.1766 64.2917 97.9455 64.7064 97.6122 65.0625C97.2827 65.4148 96.8679 65.6894 96.3679 65.8864C95.8717 66.0795 95.3054 66.1761 94.669 66.1761ZM104.533 66V57.2727H106.232V66H104.533ZM105.391 55.9261C105.095 55.9261 104.841 55.8277 104.629 55.6307C104.421 55.4299 104.317 55.1913 104.317 54.9148C104.317 54.6345 104.421 54.3958 104.629 54.1989C104.841 53.9981 105.095 53.8977 105.391 53.8977C105.686 53.8977 105.938 53.9981 106.146 54.1989C106.358 54.3958 106.464 54.6345 106.464 54.9148C106.464 55.1913 106.358 55.4299 106.146 55.6307C105.938 55.8277 105.686 55.9261 105.391 55.9261ZM114.45 54.3636V66H112.751V54.3636H114.45ZM116.736 66V57.2727H118.435V66H116.736ZM117.594 55.9261C117.298 55.9261 117.045 55.8277 116.832 55.6307C116.624 55.4299 116.52 55.1913 116.52 54.9148C116.52 54.6345 116.624 54.3958 116.832 54.1989C117.045 53.9981 117.298 53.8977 117.594 53.8977C117.889 53.8977 118.141 53.9981 118.349 54.1989C118.562 54.3958 118.668 54.6345 118.668 54.9148C118.668 55.1913 118.562 55.4299 118.349 55.6307C118.141 55.8277 117.889 55.9261 117.594 55.9261ZM122.283 63.0398L122.271 60.9659H122.567L126.044 57.2727H128.078L124.112 61.4773H123.845L122.283 63.0398ZM120.72 66V54.3636H122.419V66H120.72ZM126.232 66L123.107 61.8523L124.277 60.6648L128.317 66H126.232ZM133.028 66.1761C132.169 66.1761 131.428 65.9924 130.807 65.625C130.189 65.2538 129.712 64.733 129.375 64.0625C129.042 63.3883 128.875 62.5985 128.875 61.6932C128.875 60.7992 129.042 60.0114 129.375 59.3295C129.712 58.6477 130.182 58.1155 130.784 57.733C131.39 57.3504 132.098 57.1591 132.909 57.1591C133.402 57.1591 133.879 57.2405 134.341 57.4034C134.803 57.5663 135.218 57.822 135.585 58.1705C135.953 58.5189 136.242 58.9716 136.455 59.5284C136.667 60.0814 136.773 60.7538 136.773 61.5455V62.1477H129.835V60.875H135.108C135.108 60.428 135.017 60.0322 134.835 59.6875C134.653 59.339 134.398 59.0644 134.068 58.8636C133.742 58.6629 133.36 58.5625 132.92 58.5625C132.443 58.5625 132.027 58.6799 131.67 58.9148C131.318 59.1458 131.045 59.4489 130.852 59.8239C130.663 60.1951 130.568 60.5985 130.568 61.0341V62.0284C130.568 62.6117 130.67 63.108 130.875 63.517C131.083 63.9261 131.373 64.2386 131.744 64.4545C132.116 64.6667 132.549 64.7727 133.045 64.7727C133.367 64.7727 133.661 64.7273 133.926 64.6364C134.191 64.5417 134.42 64.4015 134.614 64.2159C134.807 64.0303 134.955 63.8011 135.057 63.5284L136.665 63.8182C136.536 64.2917 136.305 64.7064 135.972 65.0625C135.642 65.4148 135.227 65.6894 134.727 65.8864C134.231 66.0795 133.665 66.1761 133.028 66.1761ZM143.966 69.2727C143.712 69.2727 143.481 69.2519 143.273 69.2102C143.064 69.1723 142.909 69.1307 142.807 69.0852L143.216 67.6932C143.527 67.7765 143.803 67.8125 144.045 67.8011C144.288 67.7898 144.502 67.6989 144.688 67.5284C144.877 67.358 145.044 67.0795 145.188 66.6932L145.398 66.1136L142.205 57.2727H144.023L146.233 64.0455H146.324L148.534 57.2727H150.358L146.761 67.1648C146.595 67.6193 146.383 68.0038 146.125 68.3182C145.867 68.6364 145.561 68.875 145.205 69.0341C144.848 69.1932 144.436 69.2727 143.966 69.2727ZM155.334 66.1761C154.516 66.1761 153.802 65.9886 153.192 65.6136C152.582 65.2386 152.108 64.714 151.771 64.0398C151.434 63.3655 151.266 62.5777 151.266 61.6761C151.266 60.7708 151.434 59.9792 151.771 59.3011C152.108 58.6231 152.582 58.0966 153.192 57.7216C153.802 57.3466 154.516 57.1591 155.334 57.1591C156.152 57.1591 156.866 57.3466 157.476 57.7216C158.086 58.0966 158.559 58.6231 158.896 59.3011C159.233 59.9792 159.402 60.7708 159.402 61.6761C159.402 62.5777 159.233 63.3655 158.896 64.0398C158.559 64.714 158.086 65.2386 157.476 65.6136C156.866 65.9886 156.152 66.1761 155.334 66.1761ZM155.339 64.75C155.87 64.75 156.309 64.6098 156.658 64.3295C157.006 64.0492 157.264 63.6761 157.43 63.2102C157.601 62.7443 157.686 62.2311 157.686 61.6705C157.686 61.1136 157.601 60.6023 157.43 60.1364C157.264 59.6667 157.006 59.2898 156.658 59.0057C156.309 58.7216 155.87 58.5795 155.339 58.5795C154.805 58.5795 154.362 58.7216 154.01 59.0057C153.661 59.2898 153.402 59.6667 153.232 60.1364C153.065 60.6023 152.982 61.1136 152.982 61.6705C152.982 62.2311 153.065 62.7443 153.232 63.2102C153.402 63.6761 153.661 64.0492 154.01 64.3295C154.362 64.6098 154.805 64.75 155.339 64.75ZM166.827 62.3807V57.2727H168.531V66H166.861V64.4886H166.77C166.569 64.9545 166.247 65.3428 165.804 65.6534C165.365 65.9602 164.817 66.1136 164.162 66.1136C163.601 66.1136 163.105 65.9905 162.673 65.7443C162.245 65.4943 161.908 65.125 161.662 64.6364C161.42 64.1477 161.298 63.5436 161.298 62.8239V57.2727H162.997V62.6193C162.997 63.214 163.162 63.6875 163.491 64.0398C163.821 64.392 164.249 64.5682 164.776 64.5682C165.094 64.5682 165.41 64.4886 165.724 64.3295C166.043 64.1705 166.306 63.9299 166.514 63.608C166.726 63.286 166.83 62.8769 166.827 62.3807Z" fill="white"/>
</g>
<defs>
<filter id="filter0_d_2219_3068" x="2.96826" y="2.1582" width="20.4644" height="22.4766" filterUnits="userSpaceOnUse" color-interpolation-filters="sRGB">
<feFlood flood-opacity="0" result="BackgroundImageFix"/>
<feColorMatrix in="SourceAlpha" type="matrix" values="0 0 0 0 0 0 0 0 0 0 0 0 0 0 0 0 0 0 127 0" result="hardAlpha"/>
<feOffset dy="1"/>
<feGaussianBlur stdDeviation="1"/>
<feComposite in2="hardAlpha" operator="out"/>
<feColorMatrix type="matrix" values="0 0 0 0 0 0 0 0 0 0 0 0 0 0 0 0 0 0 0.25 0"/>
<feBlend mode="normal" in2="BackgroundImageFix" result="effect1_dropShadow_2219_3068"/>
<feBlend mode="normal" in="SourceGraphic" in2="effect1_dropShadow_2219_3068" result="shape"/>
</filter>
<filter id="filter1_d_2219_3068" x="12" y="14" width="192" height="80" filterUnits="userSpaceOnUse" color-interpolation-filters="sRGB">
<feFlood flood-opacity="0" result="BackgroundImageFix"/>
<feColorMatrix in="SourceAlpha" type="matrix" values="0 0 0 0 0 0 0 0 0 0 0 0 0 0 0 0 0 0 127 0" result="hardAlpha"/>
<feOffset dx="4" dy="4"/>
<feGaussianBlur stdDeviation="5"/>
<feComposite in2="hardAlpha" operator="out"/>
<feColorMatrix type="matrix" values="0 0 0 0 0.968627 0 0 0 0 0.819608 0 0 0 0 0.345098 0 0 0 0.16 0"/>
<feBlend mode="normal" in2="BackgroundImageFix" result="effect1_dropShadow_2219_3068"/>
<feBlend mode="normal" in="SourceGraphic" in2="effect1_dropShadow_2219_3068" result="shape"/>
</filter>
</defs>
</svg>
