<svg width="210" height="94" viewBox="0 0 210 94" fill="none" xmlns="http://www.w3.org/2000/svg">
<g filter="url(#filter0_d_2194_1435)">
<path d="M8.81678 20.3643L5.66312 4.11451L20.143 12.1353L13.0104 14.2272L8.81678 20.3643Z" fill="#EB47D3"/>
<path d="M8.81678 20.3643L5.66312 4.11451L20.143 12.1353L13.0104 14.2272L8.81678 20.3643Z" stroke="white"/>
</g>
<g filter="url(#filter1_d_2194_1435)">
<path d="M18 22C18 20.8954 18.8954 20 20 20H172C185.255 20 196 30.7452 196 44V56C196 69.2548 185.255 80 172 80H42C28.7452 80 18 69.2548 18 56V22Z" fill="#EB47D3" shape-rendering="crispEdges"/>
<path d="M20 21H172C184.703 21 195 31.2975 195 44V56C195 68.7025 184.703 79 172 79H42C29.2975 79 19 68.7025 19 56V22C19 21.4477 19.4477 21 20 21Z" stroke="#EB47D3" stroke-width="2" shape-rendering="crispEdges"/>
<path opacity="0.8" d="M35.0387 43V33.5455H40.9016V34.7734H36.4652V37.6541H40.4815V38.8775H36.4652V43H35.0387ZM42.5451 43V35.9091H43.9254V43H42.5451ZM43.2422 34.815C43.0021 34.815 42.7959 34.735 42.6236 34.5749C42.4543 34.4118 42.3697 34.2179 42.3697 33.9933C42.3697 33.7655 42.4543 33.5716 42.6236 33.4116C42.7959 33.2485 43.0021 33.1669 43.2422 33.1669C43.4822 33.1669 43.6869 33.2485 43.8562 33.4116C44.0285 33.5716 44.1147 33.7655 44.1147 33.9933C44.1147 34.2179 44.0285 34.4118 43.8562 34.5749C43.6869 34.735 43.4822 34.815 43.2422 34.815ZM48.7554 45.8068C48.1922 45.8068 47.7075 45.733 47.3012 45.5852C46.8981 45.4375 46.5687 45.2421 46.3133 44.9989C46.0579 44.7558 45.867 44.4896 45.7409 44.2003L46.9273 43.7109C47.0104 43.8464 47.1212 43.9895 47.2597 44.1403C47.4012 44.2942 47.5921 44.425 47.8321 44.5327C48.0753 44.6404 48.3876 44.6942 48.7693 44.6942C49.2925 44.6942 49.7249 44.5665 50.0665 44.3111C50.4081 44.0587 50.5789 43.6555 50.5789 43.1016V41.7074H50.4912C50.4081 41.8582 50.2881 42.0259 50.1311 42.2106C49.9772 42.3952 49.7649 42.5553 49.4941 42.6907C49.2232 42.8261 48.8708 42.8938 48.4369 42.8938C47.8767 42.8938 47.372 42.763 46.9227 42.5014C46.4764 42.2367 46.1225 41.8474 45.8609 41.3335C45.6024 40.8164 45.4731 40.1809 45.4731 39.4268C45.4731 38.6728 45.6008 38.0265 45.8563 37.4879C46.1148 36.9493 46.4687 36.5369 46.9181 36.2507C47.3674 35.9614 47.8767 35.8168 48.4461 35.8168C48.8862 35.8168 49.2417 35.8906 49.5125 36.0384C49.7834 36.183 49.9942 36.3523 50.145 36.5462C50.2989 36.7401 50.4173 36.9109 50.5004 37.0586H50.602V35.9091H51.9546V43.157C51.9546 43.7663 51.8131 44.2665 51.5299 44.6573C51.2468 45.0482 50.8636 45.3375 50.3804 45.5252C49.9003 45.7129 49.3586 45.8068 48.7554 45.8068ZM48.7416 41.7489C49.1386 41.7489 49.474 41.6566 49.748 41.4719C50.0249 41.2842 50.2342 41.0165 50.3758 40.6687C50.5204 40.3178 50.5928 39.8977 50.5928 39.4084C50.5928 38.9313 50.522 38.5112 50.3804 38.1481C50.2388 37.7849 50.0311 37.5018 49.7572 37.2987C49.4833 37.0924 49.1447 36.9893 48.7416 36.9893C48.3261 36.9893 47.9798 37.0971 47.7029 37.3125C47.4259 37.5249 47.2166 37.8142 47.075 38.1804C46.9365 38.5466 46.8673 38.956 46.8673 39.4084C46.8673 39.8731 46.9381 40.2809 47.0796 40.6317C47.2212 40.9826 47.4305 41.2565 47.7075 41.4535C47.9875 41.6504 48.3322 41.7489 48.7416 41.7489ZM53.8058 43V35.9091H55.1308V37.0632H55.2185C55.3662 36.6723 55.6078 36.3677 55.9433 36.1491C56.2787 35.9276 56.6804 35.8168 57.1482 35.8168C57.6221 35.8168 58.0191 35.9276 58.3392 36.1491C58.6624 36.3707 58.9009 36.6754 59.0548 37.0632H59.1286C59.2979 36.6847 59.5672 36.383 59.9365 36.1584C60.3058 35.9306 60.7459 35.8168 61.2568 35.8168C61.9001 35.8168 62.4248 36.0183 62.8311 36.4215C63.2404 36.8247 63.445 37.4325 63.445 38.245V43H62.0647V38.3743C62.0647 37.8942 61.9339 37.5464 61.6723 37.331C61.4107 37.1155 61.0983 37.0078 60.7352 37.0078C60.2858 37.0078 59.9365 37.1463 59.6872 37.4233C59.4379 37.6972 59.3133 38.0496 59.3133 38.4805V43H57.9376V38.2866C57.9376 37.9019 57.8176 37.5926 57.5775 37.3587C57.3374 37.1248 57.0251 37.0078 56.6404 37.0078C56.3788 37.0078 56.1372 37.0771 55.9156 37.2156C55.6971 37.351 55.5201 37.5402 55.3847 37.7834C55.2523 38.0265 55.1862 38.3081 55.1862 38.6282V43H53.8058ZM67.3587 43.157C66.9093 43.157 66.5031 43.0739 66.1399 42.9077C65.7768 42.7384 65.489 42.4937 65.2766 42.1737C65.0674 41.8536 64.9627 41.4612 64.9627 40.9964C64.9627 40.5964 65.0397 40.267 65.1935 40.0085C65.3474 39.75 65.5552 39.5453 65.8168 39.3945C66.0784 39.2437 66.3707 39.1299 66.6939 39.0529C67.017 38.976 67.3464 38.9175 67.6818 38.8775C68.1065 38.8282 68.4512 38.7882 68.7159 38.7575C68.9806 38.7236 69.1729 38.6697 69.293 38.5959C69.413 38.522 69.473 38.402 69.473 38.2358V38.2035C69.473 37.8003 69.3591 37.4879 69.1314 37.2663C68.9067 37.0447 68.5713 36.9339 68.125 36.9339C67.6603 36.9339 67.294 37.037 67.0263 37.2433C66.7616 37.4464 66.5785 37.6726 66.4769 37.9219L65.1797 37.6264C65.3336 37.1955 65.5582 36.8478 65.8537 36.5831C66.1522 36.3153 66.4954 36.1214 66.8832 36.0014C67.271 35.8783 67.6787 35.8168 68.1065 35.8168C68.3897 35.8168 68.6897 35.8506 69.0067 35.9183C69.3268 35.983 69.6254 36.103 69.9023 36.2784C70.1824 36.4538 70.4117 36.7047 70.5902 37.0309C70.7687 37.354 70.858 37.7741 70.858 38.2912V43H69.5099V42.0305H69.4545C69.3653 42.209 69.2314 42.3845 69.0529 42.5568C68.8744 42.7292 68.6451 42.8723 68.3651 42.9862C68.085 43.1 67.7495 43.157 67.3587 43.157ZM67.6587 42.049C68.0404 42.049 68.3666 41.9736 68.6374 41.8228C68.9113 41.672 69.1191 41.475 69.2607 41.2319C69.4053 40.9857 69.4776 40.7225 69.4776 40.4425V39.5284C69.4284 39.5777 69.333 39.6238 69.1914 39.6669C69.0529 39.7069 68.8944 39.7423 68.7159 39.7731C68.5374 39.8008 68.3635 39.8269 68.1942 39.8516C68.025 39.8731 67.8834 39.8916 67.7695 39.907C67.5018 39.9408 67.2571 39.9978 67.0355 40.0778C66.817 40.1578 66.6416 40.2732 66.5092 40.424C66.38 40.5717 66.3153 40.7687 66.3153 41.0149C66.3153 41.3565 66.4415 41.6151 66.6939 41.7905C66.9463 41.9628 67.2679 42.049 67.6587 42.049ZM81.4043 36.0291C81.3551 35.5921 81.1519 35.2536 80.7949 35.0135C80.4379 34.7704 79.9886 34.6488 79.4469 34.6488C79.0591 34.6488 78.7237 34.7103 78.4405 34.8335C78.1574 34.9535 77.9373 35.1197 77.7804 35.332C77.6265 35.5413 77.5495 35.7798 77.5495 36.0476C77.5495 36.2723 77.6019 36.4661 77.7065 36.6293C77.8142 36.7924 77.9542 36.9293 78.1266 37.0401C78.302 37.1478 78.4898 37.2386 78.6898 37.3125C78.8899 37.3833 79.0822 37.4418 79.2669 37.4879L80.1902 37.728C80.4918 37.8018 80.8011 37.9019 81.1181 38.0281C81.4351 38.1542 81.729 38.3204 81.9998 38.5266C82.2707 38.7328 82.4892 38.9883 82.6554 39.293C82.8246 39.5977 82.9093 39.9624 82.9093 40.3871C82.9093 40.9226 82.7708 41.3981 82.4938 41.8136C82.2199 42.229 81.8213 42.5568 81.2981 42.7969C80.778 43.0369 80.1486 43.157 79.41 43.157C78.7021 43.157 78.0897 43.0446 77.5726 42.82C77.0556 42.5953 76.6509 42.2768 76.3585 41.8643C76.0661 41.4489 75.9045 40.9564 75.8738 40.3871H77.3049C77.3326 40.7287 77.4434 41.0134 77.6373 41.2411C77.8342 41.4658 78.085 41.6335 78.3897 41.7443C78.6975 41.852 79.0345 41.9059 79.4007 41.9059C79.8039 41.9059 80.1625 41.8428 80.4764 41.7166C80.7934 41.5874 81.0427 41.4089 81.2243 41.1811C81.4058 40.9503 81.4966 40.681 81.4966 40.3732C81.4966 40.0932 81.4166 39.8639 81.2566 39.6854C81.0996 39.5069 80.8857 39.3591 80.6149 39.2422C80.3471 39.1252 80.044 39.0221 79.7054 38.9329L78.5882 38.6282C77.8311 38.422 77.231 38.1188 76.7878 37.7188C76.3477 37.3187 76.1277 36.7893 76.1277 36.1307C76.1277 35.5859 76.2754 35.1104 76.5708 34.7042C76.8663 34.2979 77.2664 33.9825 77.7711 33.7578C78.2759 33.5301 78.8452 33.4162 79.4792 33.4162C80.1194 33.4162 80.6841 33.5285 81.1735 33.7532C81.6659 33.9779 82.0537 34.2872 82.3368 34.6811C82.62 35.072 82.7677 35.5213 82.78 36.0291H81.4043ZM87.8131 35.9091V37.017H83.9399V35.9091H87.8131ZM84.9786 34.2102H86.3589V40.918C86.3589 41.1857 86.3989 41.3873 86.479 41.5227C86.559 41.6551 86.6621 41.7459 86.7883 41.7951C86.9175 41.8413 87.0576 41.8643 87.2084 41.8643C87.3192 41.8643 87.4161 41.8567 87.4992 41.8413C87.5823 41.8259 87.6469 41.8136 87.6931 41.8043L87.9424 42.9446C87.8624 42.9754 87.7485 43.0062 87.6008 43.0369C87.453 43.0708 87.2684 43.0893 87.0468 43.0923C86.6836 43.0985 86.3451 43.0339 86.0312 42.8984C85.7172 42.763 85.4633 42.5537 85.2694 42.2706C85.0756 41.9875 84.9786 41.632 84.9786 41.2042V34.2102ZM91.4036 43.157C90.9542 43.157 90.548 43.0739 90.1848 42.9077C89.8217 42.7384 89.5339 42.4937 89.3216 42.1737C89.1123 41.8536 89.0076 41.4612 89.0076 40.9964C89.0076 40.5964 89.0846 40.267 89.2385 40.0085C89.3923 39.75 89.6001 39.5453 89.8617 39.3945C90.1233 39.2437 90.4157 39.1299 90.7388 39.0529C91.062 38.976 91.3913 38.9175 91.7267 38.8775C92.1515 38.8282 92.4962 38.7882 92.7608 38.7575C93.0255 38.7236 93.2179 38.6697 93.3379 38.5959C93.4579 38.522 93.5179 38.402 93.5179 38.2358V38.2035C93.5179 37.8003 93.4041 37.4879 93.1763 37.2663C92.9516 37.0447 92.6162 36.9339 92.1699 36.9339C91.7052 36.9339 91.339 37.037 91.0712 37.2433C90.8065 37.4464 90.6234 37.6726 90.5218 37.9219L89.2246 37.6264C89.3785 37.1955 89.6032 36.8478 89.8986 36.5831C90.1971 36.3153 90.5403 36.1214 90.9281 36.0014C91.3159 35.8783 91.7237 35.8168 92.1515 35.8168C92.4346 35.8168 92.7347 35.8506 93.0517 35.9183C93.3717 35.983 93.6703 36.103 93.9473 36.2784C94.2273 36.4538 94.4566 36.7047 94.6351 37.0309C94.8136 37.354 94.9029 37.7741 94.9029 38.2912V43H93.5549V42.0305H93.4995C93.4102 42.209 93.2763 42.3845 93.0978 42.5568C92.9193 42.7292 92.69 42.8723 92.41 42.9862C92.1299 43.1 91.7944 43.157 91.4036 43.157ZM91.7037 42.049C92.0853 42.049 92.4115 41.9736 92.6824 41.8228C92.9563 41.672 93.164 41.475 93.3056 41.2319C93.4502 40.9857 93.5225 40.7225 93.5225 40.4425V39.5284C93.4733 39.5777 93.3779 39.6238 93.2363 39.6669C93.0978 39.7069 92.9393 39.7423 92.7608 39.7731C92.5823 39.8008 92.4084 39.8269 92.2392 39.8516C92.0699 39.8731 91.9283 39.8916 91.8145 39.907C91.5467 39.9408 91.302 39.9978 91.0804 40.0778C90.8619 40.1578 90.6865 40.2732 90.5542 40.424C90.4249 40.5717 90.3603 40.7687 90.3603 41.0149C90.3603 41.3565 90.4864 41.6151 90.7388 41.7905C90.9912 41.9628 91.3128 42.049 91.7037 42.049ZM98.1217 33.5455V43H96.7414V33.5455H98.1217ZM101.248 40.5948L101.239 38.9098H101.479L104.304 35.9091H105.957L102.735 39.3253H102.518L101.248 40.5948ZM99.9787 43V33.5455H101.359V43H99.9787ZM104.457 43L101.918 39.63L102.869 38.6651L106.151 43H104.457ZM109.979 43.1431C109.281 43.1431 108.679 42.9938 108.174 42.6953C107.672 42.3937 107.285 41.9705 107.011 41.4258C106.74 40.878 106.604 40.2363 106.604 39.5007C106.604 38.7744 106.74 38.1342 107.011 37.5803C107.285 37.0263 107.666 36.5939 108.156 36.283C108.648 35.9722 109.224 35.8168 109.882 35.8168C110.282 35.8168 110.67 35.8829 111.046 36.0153C111.421 36.1476 111.758 36.3554 112.057 36.6385C112.355 36.9216 112.591 37.2894 112.763 37.7418C112.935 38.1912 113.021 38.7375 113.021 39.3807V39.87H107.385V38.8359H111.669C111.669 38.4728 111.595 38.1512 111.447 37.8711C111.299 37.5879 111.092 37.3648 110.824 37.2017C110.559 37.0386 110.248 36.957 109.891 36.957C109.504 36.957 109.165 37.0524 108.876 37.2433C108.59 37.431 108.368 37.6772 108.211 37.9819C108.057 38.2835 107.98 38.6113 107.98 38.9652V39.7731C107.98 40.247 108.063 40.6502 108.229 40.9826C108.399 41.315 108.634 41.5689 108.936 41.7443C109.237 41.9167 109.59 42.0028 109.993 42.0028C110.255 42.0028 110.493 41.9659 110.709 41.892C110.924 41.8151 111.11 41.7012 111.267 41.5504C111.424 41.3996 111.544 41.2134 111.627 40.9918L112.934 41.2273C112.829 41.612 112.641 41.949 112.37 42.2383C112.103 42.5245 111.766 42.7476 111.359 42.9077C110.956 43.0646 110.496 43.1431 109.979 43.1431ZM114.553 43V35.9091H115.887V37.0355H115.961C116.09 36.6539 116.318 36.3538 116.644 36.1353C116.973 35.9137 117.346 35.8029 117.761 35.8029C117.848 35.8029 117.949 35.806 118.066 35.8121C118.186 35.8183 118.28 35.826 118.348 35.8352V37.1555C118.292 37.1402 118.194 37.1232 118.052 37.1048C117.911 37.0832 117.769 37.0724 117.627 37.0724C117.301 37.0724 117.01 37.1417 116.755 37.2802C116.503 37.4156 116.303 37.6049 116.155 37.848C116.007 38.0881 115.933 38.362 115.933 38.6697V43H114.553Z" fill="white" fill-opacity="0.7"/>
<path d="M38.4091 66.1705C37.7045 66.1705 37.0758 65.9905 36.5227 65.6307C35.9735 65.267 35.5417 64.75 35.2273 64.0795C34.9167 63.4053 34.7614 62.5966 34.7614 61.6534C34.7614 60.7102 34.9186 59.9034 35.233 59.233C35.5511 58.5625 35.9867 58.0492 36.5398 57.6932C37.0928 57.3371 37.7197 57.1591 38.4205 57.1591C38.9621 57.1591 39.3977 57.25 39.7273 57.4318C40.0606 57.6098 40.3182 57.8182 40.5 58.0568C40.6856 58.2955 40.8295 58.5057 40.9318 58.6875H41.0341V54.3636H42.733V66H41.0739V64.642H40.9318C40.8295 64.8277 40.6818 65.0398 40.4886 65.2784C40.2992 65.517 40.0379 65.7254 39.7045 65.9034C39.3712 66.0814 38.9394 66.1705 38.4091 66.1705ZM38.7841 64.7216C39.2727 64.7216 39.6856 64.5928 40.0227 64.3352C40.3636 64.0739 40.6212 63.7121 40.7955 63.25C40.9735 62.7879 41.0625 62.25 41.0625 61.6364C41.0625 61.0303 40.9754 60.5 40.8011 60.0455C40.6269 59.5909 40.3712 59.2367 40.0341 58.983C39.697 58.7292 39.2803 58.6023 38.7841 58.6023C38.2727 58.6023 37.8466 58.7348 37.5057 59C37.1648 59.2652 36.9072 59.6269 36.733 60.0852C36.5625 60.5436 36.4773 61.0606 36.4773 61.6364C36.4773 62.2197 36.5644 62.7443 36.7386 63.2102C36.9129 63.6761 37.1705 64.0455 37.5114 64.3182C37.8561 64.5871 38.2803 64.7216 38.7841 64.7216ZM48.8338 66.1761C48.0156 66.1761 47.3016 65.9886 46.6918 65.6136C46.0819 65.2386 45.6084 64.714 45.2713 64.0398C44.9342 63.3655 44.7656 62.5777 44.7656 61.6761C44.7656 60.7708 44.9342 59.9792 45.2713 59.3011C45.6084 58.6231 46.0819 58.0966 46.6918 57.7216C47.3016 57.3466 48.0156 57.1591 48.8338 57.1591C49.652 57.1591 50.366 57.3466 50.9759 57.7216C51.5857 58.0966 52.0592 58.6231 52.3963 59.3011C52.7334 59.9792 52.902 60.7708 52.902 61.6761C52.902 62.5777 52.7334 63.3655 52.3963 64.0398C52.0592 64.714 51.5857 65.2386 50.9759 65.6136C50.366 65.9886 49.652 66.1761 48.8338 66.1761ZM48.8395 64.75C49.3698 64.75 49.8092 64.6098 50.1577 64.3295C50.5062 64.0492 50.7637 63.6761 50.9304 63.2102C51.1009 62.7443 51.1861 62.2311 51.1861 61.6705C51.1861 61.1136 51.1009 60.6023 50.9304 60.1364C50.7637 59.6667 50.5062 59.2898 50.1577 59.0057C49.8092 58.7216 49.3698 58.5795 48.8395 58.5795C48.3054 58.5795 47.8622 58.7216 47.5099 59.0057C47.1615 59.2898 46.902 59.6667 46.7315 60.1364C46.5649 60.6023 46.4815 61.1136 46.4815 61.6705C46.4815 62.2311 46.5649 62.7443 46.7315 63.2102C46.902 63.6761 47.1615 64.0492 47.5099 64.3295C47.8622 64.6098 48.3054 64.75 48.8395 64.75ZM56.4972 60.8182V66H54.7983V57.2727H56.429V58.6932H56.5369C56.7377 58.2311 57.0521 57.8598 57.4801 57.5795C57.9119 57.2992 58.4555 57.1591 59.1108 57.1591C59.7055 57.1591 60.2263 57.2841 60.6733 57.5341C61.1203 57.7803 61.4669 58.1477 61.7131 58.6364C61.9593 59.125 62.0824 59.7292 62.0824 60.4489V66H60.3835V60.6534C60.3835 60.0208 60.2188 59.5265 59.8892 59.1705C59.5597 58.8106 59.107 58.6307 58.5312 58.6307C58.1373 58.6307 57.7869 58.7159 57.4801 58.8864C57.1771 59.0568 56.9366 59.3068 56.7585 59.6364C56.5843 59.9621 56.4972 60.3561 56.4972 60.8182ZM68.4347 57.2727V58.6364H63.6676V57.2727H68.4347ZM64.946 55.1818H66.6449V63.4375C66.6449 63.767 66.6941 64.0152 66.7926 64.1818C66.8911 64.3447 67.018 64.4564 67.1733 64.517C67.3324 64.5739 67.5047 64.6023 67.6903 64.6023C67.8267 64.6023 67.946 64.5928 68.0483 64.5739C68.1506 64.5549 68.2301 64.5398 68.2869 64.5284L68.5938 65.9318C68.4953 65.9697 68.3551 66.0076 68.1733 66.0455C67.9915 66.0871 67.7642 66.1098 67.4915 66.1136C67.0445 66.1212 66.6278 66.0417 66.2415 65.875C65.8551 65.7083 65.5426 65.4508 65.304 65.1023C65.0653 64.7538 64.946 64.3163 64.946 63.7898V55.1818ZM74.5483 66V57.2727H76.1903V58.6591H76.2812C76.4403 58.1894 76.7206 57.8201 77.1222 57.5511C77.5275 57.2784 77.9858 57.142 78.4972 57.142C78.6032 57.142 78.7282 57.1458 78.8722 57.1534C79.0199 57.161 79.1354 57.1705 79.2188 57.1818V58.8068C79.1506 58.7879 79.0294 58.767 78.8551 58.7443C78.6809 58.7178 78.5066 58.7045 78.3324 58.7045C77.9309 58.7045 77.5729 58.7898 77.2585 58.9602C76.9479 59.1269 76.7017 59.3598 76.5199 59.6591C76.3381 59.9545 76.2472 60.2917 76.2472 60.6705V66H74.5483ZM86.2173 62.3807V57.2727H87.9219V66H86.2514V64.4886H86.1605C85.9598 64.9545 85.6378 65.3428 85.1946 65.6534C84.7552 65.9602 84.2079 66.1136 83.5526 66.1136C82.992 66.1136 82.4957 65.9905 82.0639 65.7443C81.6359 65.4943 81.2988 65.125 81.0526 64.6364C80.8101 64.1477 80.6889 63.5436 80.6889 62.8239V57.2727H82.3878V62.6193C82.3878 63.214 82.5526 63.6875 82.8821 64.0398C83.2116 64.392 83.6397 64.5682 84.1662 64.5682C84.4844 64.5682 84.8007 64.4886 85.1151 64.3295C85.4332 64.1705 85.6965 63.9299 85.9048 63.608C86.117 63.286 86.2211 62.8769 86.2173 62.3807ZM91.9034 60.8182V66H90.2045V57.2727H91.8352V58.6932H91.9432C92.1439 58.2311 92.4583 57.8598 92.8864 57.5795C93.3182 57.2992 93.8617 57.1591 94.517 57.1591C95.1117 57.1591 95.6326 57.2841 96.0795 57.5341C96.5265 57.7803 96.8731 58.1477 97.1193 58.6364C97.3655 59.125 97.4886 59.7292 97.4886 60.4489V66H95.7898V60.6534C95.7898 60.0208 95.625 59.5265 95.2955 59.1705C94.9659 58.8106 94.5133 58.6307 93.9375 58.6307C93.5436 58.6307 93.1932 58.7159 92.8864 58.8864C92.5833 59.0568 92.3428 59.3068 92.1648 59.6364C91.9905 59.9621 91.9034 60.3561 91.9034 60.8182ZM108.155 57.2727V58.6364H103.223V57.2727H108.155ZM104.575 66V56.2614C104.575 55.7159 104.695 55.2633 104.933 54.9034C105.172 54.5398 105.488 54.2689 105.882 54.0909C106.276 53.9091 106.704 53.8182 107.166 53.8182C107.507 53.8182 107.799 53.8466 108.041 53.9034C108.284 53.9564 108.464 54.0057 108.581 54.0511L108.183 55.4261C108.104 55.4034 108.001 55.3769 107.876 55.3466C107.751 55.3125 107.6 55.2955 107.422 55.2955C107.009 55.2955 106.714 55.3977 106.536 55.6023C106.361 55.8068 106.274 56.1023 106.274 56.4886V66H104.575ZM109.908 66V57.2727H111.55V58.6591H111.641C111.8 58.1894 112.08 57.8201 112.482 57.5511C112.887 57.2784 113.345 57.142 113.857 57.142C113.963 57.142 114.088 57.1458 114.232 57.1534C114.379 57.161 114.495 57.1705 114.578 57.1818V58.8068C114.51 58.7879 114.389 58.767 114.214 58.7443C114.04 58.7178 113.866 58.7045 113.692 58.7045C113.29 58.7045 112.932 58.7898 112.618 58.9602C112.307 59.1269 112.061 59.3598 111.879 59.6591C111.697 59.9545 111.607 60.2917 111.607 60.6705V66H109.908ZM119.412 66.1761C118.594 66.1761 117.88 65.9886 117.27 65.6136C116.66 65.2386 116.187 64.714 115.849 64.0398C115.512 63.3655 115.344 62.5777 115.344 61.6761C115.344 60.7708 115.512 59.9792 115.849 59.3011C116.187 58.6231 116.66 58.0966 117.27 57.7216C117.88 57.3466 118.594 57.1591 119.412 57.1591C120.23 57.1591 120.944 57.3466 121.554 57.7216C122.164 58.0966 122.637 58.6231 122.974 59.3011C123.312 59.9792 123.48 60.7708 123.48 61.6761C123.48 62.5777 123.312 63.3655 122.974 64.0398C122.637 64.714 122.164 65.2386 121.554 65.6136C120.944 65.9886 120.23 66.1761 119.412 66.1761ZM119.418 64.75C119.948 64.75 120.387 64.6098 120.736 64.3295C121.084 64.0492 121.342 63.6761 121.509 63.2102C121.679 62.7443 121.764 62.2311 121.764 61.6705C121.764 61.1136 121.679 60.6023 121.509 60.1364C121.342 59.6667 121.084 59.2898 120.736 59.0057C120.387 58.7216 119.948 58.5795 119.418 58.5795C118.884 58.5795 118.44 58.7216 118.088 59.0057C117.74 59.2898 117.48 59.6667 117.31 60.1364C117.143 60.6023 117.06 61.1136 117.06 61.6705C117.06 62.2311 117.143 62.7443 117.31 63.2102C117.48 63.6761 117.74 64.0492 118.088 64.3295C118.44 64.6098 118.884 64.75 119.418 64.75ZM125.376 66V57.2727H127.007V58.6932H127.115C127.297 58.2121 127.594 57.8371 128.007 57.5682C128.42 57.2955 128.914 57.1591 129.49 57.1591C130.073 57.1591 130.562 57.2955 130.956 57.5682C131.354 57.8409 131.647 58.2159 131.837 58.6932H131.928C132.136 58.2273 132.467 57.8561 132.922 57.5795C133.376 57.2992 133.918 57.1591 134.547 57.1591C135.339 57.1591 135.984 57.4072 136.484 57.9034C136.988 58.3996 137.24 59.1477 137.24 60.1477V66H135.541V60.3068C135.541 59.7159 135.38 59.2879 135.058 59.0227C134.736 58.7576 134.352 58.625 133.905 58.625C133.352 58.625 132.922 58.7955 132.615 59.1364C132.308 59.4735 132.155 59.9072 132.155 60.4375V66H130.462V60.1989C130.462 59.7254 130.314 59.3447 130.018 59.0568C129.723 58.7689 129.339 58.625 128.865 58.625C128.543 58.625 128.246 58.7102 127.973 58.8807C127.704 59.0473 127.486 59.2803 127.32 59.5795C127.157 59.8788 127.075 60.2254 127.075 60.6193V66H125.376ZM143.751 66V57.2727H145.382V58.6932H145.49C145.672 58.2121 145.969 57.8371 146.382 57.5682C146.795 57.2955 147.289 57.1591 147.865 57.1591C148.448 57.1591 148.937 57.2955 149.331 57.5682C149.729 57.8409 150.022 58.2159 150.212 58.6932H150.303C150.511 58.2273 150.842 57.8561 151.297 57.5795C151.751 57.2992 152.293 57.1591 152.922 57.1591C153.714 57.1591 154.359 57.4072 154.859 57.9034C155.363 58.3996 155.615 59.1477 155.615 60.1477V66H153.916V60.3068C153.916 59.7159 153.755 59.2879 153.433 59.0227C153.111 58.7576 152.727 58.625 152.28 58.625C151.727 58.625 151.297 58.7955 150.99 59.1364C150.683 59.4735 150.53 59.9072 150.53 60.4375V66H148.837V60.1989C148.837 59.7254 148.689 59.3447 148.393 59.0568C148.098 58.7689 147.714 58.625 147.24 58.625C146.918 58.625 146.621 58.7102 146.348 58.8807C146.079 59.0473 145.861 59.2803 145.695 59.5795C145.532 59.8788 145.45 60.2254 145.45 60.6193V66H143.751ZM161.653 66.1761C160.794 66.1761 160.053 65.9924 159.432 65.625C158.814 65.2538 158.337 64.733 158 64.0625C157.667 63.3883 157.5 62.5985 157.5 61.6932C157.5 60.7992 157.667 60.0114 158 59.3295C158.337 58.6477 158.807 58.1155 159.409 57.733C160.015 57.3504 160.723 57.1591 161.534 57.1591C162.027 57.1591 162.504 57.2405 162.966 57.4034C163.428 57.5663 163.843 57.822 164.21 58.1705C164.578 58.5189 164.867 58.9716 165.08 59.5284C165.292 60.0814 165.398 60.7538 165.398 61.5455V62.1477H158.46V60.875H163.733C163.733 60.428 163.642 60.0322 163.46 59.6875C163.278 59.339 163.023 59.0644 162.693 58.8636C162.367 58.6629 161.985 58.5625 161.545 58.5625C161.068 58.5625 160.652 58.6799 160.295 58.9148C159.943 59.1458 159.67 59.4489 159.477 59.8239C159.288 60.1951 159.193 60.5985 159.193 61.0341V62.0284C159.193 62.6117 159.295 63.108 159.5 63.517C159.708 63.9261 159.998 64.2386 160.369 64.4545C160.741 64.6667 161.174 64.7727 161.67 64.7727C161.992 64.7727 162.286 64.7273 162.551 64.6364C162.816 64.5417 163.045 64.4015 163.239 64.2159C163.432 64.0303 163.58 63.8011 163.682 63.5284L165.29 63.8182C165.161 64.2917 164.93 64.7064 164.597 65.0625C164.267 65.4148 163.852 65.6894 163.352 65.8864C162.856 66.0795 162.29 66.1761 161.653 66.1761ZM169.425 54.3636L169.277 62.6534H167.703L167.555 54.3636H169.425ZM168.493 66.108C168.179 66.108 167.91 65.9981 167.686 65.7784C167.463 65.5549 167.353 65.286 167.357 64.9716C167.353 64.661 167.463 64.3958 167.686 64.1761C167.91 63.9527 168.179 63.8409 168.493 63.8409C168.8 63.8409 169.065 63.9527 169.288 64.1761C169.512 64.3958 169.625 64.661 169.629 64.9716C169.625 65.1799 169.571 65.3712 169.464 65.5455C169.362 65.7159 169.226 65.8523 169.055 65.9545C168.885 66.0568 168.697 66.108 168.493 66.108ZM174.128 54.3636L173.98 62.6534H172.406L172.259 54.3636H174.128ZM173.196 66.108C172.882 66.108 172.613 65.9981 172.389 65.7784C172.166 65.5549 172.056 65.286 172.06 64.9716C172.056 64.661 172.166 64.3958 172.389 64.1761C172.613 63.9527 172.882 63.8409 173.196 63.8409C173.503 63.8409 173.768 63.9527 173.991 64.1761C174.215 64.3958 174.329 64.661 174.332 64.9716C174.329 65.1799 174.274 65.3712 174.168 65.5455C174.065 65.7159 173.929 65.8523 173.759 65.9545C173.588 66.0568 173.401 66.108 173.196 66.108Z" fill="white"/>
</g>
<defs>
<filter id="filter0_d_2194_1435" x="2.96826" y="2.1582" width="20.4644" height="22.4766" filterUnits="userSpaceOnUse" color-interpolation-filters="sRGB">
<feFlood flood-opacity="0" result="BackgroundImageFix"/>
<feColorMatrix in="SourceAlpha" type="matrix" values="0 0 0 0 0 0 0 0 0 0 0 0 0 0 0 0 0 0 127 0" result="hardAlpha"/>
<feOffset dy="1"/>
<feGaussianBlur stdDeviation="1"/>
<feComposite in2="hardAlpha" operator="out"/>
<feColorMatrix type="matrix" values="0 0 0 0 0 0 0 0 0 0 0 0 0 0 0 0 0 0 0.25 0"/>
<feBlend mode="normal" in2="BackgroundImageFix" result="effect1_dropShadow_2194_1435"/>
<feBlend mode="normal" in="SourceGraphic" in2="effect1_dropShadow_2194_1435" result="shape"/>
</filter>
<filter id="filter1_d_2194_1435" x="12" y="14" width="198" height="80" filterUnits="userSpaceOnUse" color-interpolation-filters="sRGB">
<feFlood flood-opacity="0" result="BackgroundImageFix"/>
<feColorMatrix in="SourceAlpha" type="matrix" values="0 0 0 0 0 0 0 0 0 0 0 0 0 0 0 0 0 0 127 0" result="hardAlpha"/>
<feOffset dx="4" dy="4"/>
<feGaussianBlur stdDeviation="5"/>
<feComposite in2="hardAlpha" operator="out"/>
<feColorMatrix type="matrix" values="0 0 0 0 0.968627 0 0 0 0 0.819608 0 0 0 0 0.345098 0 0 0 0.16 0"/>
<feBlend mode="normal" in2="BackgroundImageFix" result="effect1_dropShadow_2194_1435"/>
<feBlend mode="normal" in="SourceGraphic" in2="effect1_dropShadow_2194_1435" result="shape"/>
</filter>
</defs>
</svg>
