<svg width="198" height="94" viewBox="0 0 198 94" fill="none" xmlns="http://www.w3.org/2000/svg">
<g filter="url(#filter0_d_2194_1429)">
<path d="M8.81678 20.3643L5.66312 4.11451L20.143 12.1353L13.0104 14.2272L8.81678 20.3643Z" fill="#EF5533"/>
<path d="M8.81678 20.3643L5.66312 4.11451L20.143 12.1353L13.0104 14.2272L8.81678 20.3643Z" stroke="white"/>
</g>
<g filter="url(#filter1_d_2194_1429)">
<path d="M18 22C18 20.8954 18.8954 20 20 20H160C173.255 20 184 30.7452 184 44V56C184 69.2548 173.255 80 160 80H42C28.7452 80 18 69.2548 18 56V22Z" fill="#EF5533" shape-rendering="crispEdges"/>
<path d="M20 21H160C172.703 21 183 31.2975 183 44V56C183 68.7025 172.703 79 160 79H42C29.2975 79 19 68.7025 19 56V22C19 21.4477 19.4477 21 20 21Z" stroke="#EF5533" stroke-width="2" shape-rendering="crispEdges"/>
<path opacity="0.8" d="M35.0387 43V33.5455H40.9016V34.7734H36.4652V37.6541H40.4815V38.8775H36.4652V43H35.0387ZM42.5451 43V35.9091H43.9254V43H42.5451ZM43.2422 34.815C43.0021 34.815 42.7959 34.735 42.6236 34.5749C42.4543 34.4118 42.3697 34.2179 42.3697 33.9933C42.3697 33.7655 42.4543 33.5716 42.6236 33.4116C42.7959 33.2485 43.0021 33.1669 43.2422 33.1669C43.4822 33.1669 43.6869 33.2485 43.8562 33.4116C44.0285 33.5716 44.1147 33.7655 44.1147 33.9933C44.1147 34.2179 44.0285 34.4118 43.8562 34.5749C43.6869 34.735 43.4822 34.815 43.2422 34.815ZM48.7554 45.8068C48.1922 45.8068 47.7075 45.733 47.3012 45.5852C46.8981 45.4375 46.5687 45.2421 46.3133 44.9989C46.0579 44.7558 45.867 44.4896 45.7409 44.2003L46.9273 43.7109C47.0104 43.8464 47.1212 43.9895 47.2597 44.1403C47.4012 44.2942 47.5921 44.425 47.8321 44.5327C48.0753 44.6404 48.3876 44.6942 48.7693 44.6942C49.2925 44.6942 49.7249 44.5665 50.0665 44.3111C50.4081 44.0587 50.5789 43.6555 50.5789 43.1016V41.7074H50.4912C50.4081 41.8582 50.2881 42.0259 50.1311 42.2106C49.9772 42.3952 49.7649 42.5553 49.4941 42.6907C49.2232 42.8261 48.8708 42.8938 48.4369 42.8938C47.8767 42.8938 47.372 42.763 46.9227 42.5014C46.4764 42.2367 46.1225 41.8474 45.8609 41.3335C45.6024 40.8164 45.4731 40.1809 45.4731 39.4268C45.4731 38.6728 45.6008 38.0265 45.8563 37.4879C46.1148 36.9493 46.4687 36.5369 46.9181 36.2507C47.3674 35.9614 47.8767 35.8168 48.4461 35.8168C48.8862 35.8168 49.2417 35.8906 49.5125 36.0384C49.7834 36.183 49.9942 36.3523 50.145 36.5462C50.2989 36.7401 50.4173 36.9109 50.5004 37.0586H50.602V35.9091H51.9546V43.157C51.9546 43.7663 51.8131 44.2665 51.5299 44.6573C51.2468 45.0482 50.8636 45.3375 50.3804 45.5252C49.9003 45.7129 49.3586 45.8068 48.7554 45.8068ZM48.7416 41.7489C49.1386 41.7489 49.474 41.6566 49.748 41.4719C50.0249 41.2842 50.2342 41.0165 50.3758 40.6687C50.5204 40.3178 50.5928 39.8977 50.5928 39.4084C50.5928 38.9313 50.522 38.5112 50.3804 38.1481C50.2388 37.7849 50.0311 37.5018 49.7572 37.2987C49.4833 37.0924 49.1447 36.9893 48.7416 36.9893C48.3261 36.9893 47.9798 37.0971 47.7029 37.3125C47.4259 37.5249 47.2166 37.8142 47.075 38.1804C46.9365 38.5466 46.8673 38.956 46.8673 39.4084C46.8673 39.8731 46.9381 40.2809 47.0796 40.6317C47.2212 40.9826 47.4305 41.2565 47.7075 41.4535C47.9875 41.6504 48.3322 41.7489 48.7416 41.7489ZM53.8058 43V35.9091H55.1308V37.0632H55.2185C55.3662 36.6723 55.6078 36.3677 55.9433 36.1491C56.2787 35.9276 56.6804 35.8168 57.1482 35.8168C57.6221 35.8168 58.0191 35.9276 58.3392 36.1491C58.6624 36.3707 58.9009 36.6754 59.0548 37.0632H59.1286C59.2979 36.6847 59.5672 36.383 59.9365 36.1584C60.3058 35.9306 60.7459 35.8168 61.2568 35.8168C61.9001 35.8168 62.4248 36.0183 62.8311 36.4215C63.2404 36.8247 63.445 37.4325 63.445 38.245V43H62.0647V38.3743C62.0647 37.8942 61.9339 37.5464 61.6723 37.331C61.4107 37.1155 61.0983 37.0078 60.7352 37.0078C60.2858 37.0078 59.9365 37.1463 59.6872 37.4233C59.4379 37.6972 59.3133 38.0496 59.3133 38.4805V43H57.9376V38.2866C57.9376 37.9019 57.8176 37.5926 57.5775 37.3587C57.3374 37.1248 57.0251 37.0078 56.6404 37.0078C56.3788 37.0078 56.1372 37.0771 55.9156 37.2156C55.6971 37.351 55.5201 37.5402 55.3847 37.7834C55.2523 38.0265 55.1862 38.3081 55.1862 38.6282V43H53.8058ZM67.3587 43.157C66.9093 43.157 66.5031 43.0739 66.1399 42.9077C65.7768 42.7384 65.489 42.4937 65.2766 42.1737C65.0674 41.8536 64.9627 41.4612 64.9627 40.9964C64.9627 40.5964 65.0397 40.267 65.1935 40.0085C65.3474 39.75 65.5552 39.5453 65.8168 39.3945C66.0784 39.2437 66.3707 39.1299 66.6939 39.0529C67.017 38.976 67.3464 38.9175 67.6818 38.8775C68.1065 38.8282 68.4512 38.7882 68.7159 38.7575C68.9806 38.7236 69.1729 38.6697 69.293 38.5959C69.413 38.522 69.473 38.402 69.473 38.2358V38.2035C69.473 37.8003 69.3591 37.4879 69.1314 37.2663C68.9067 37.0447 68.5713 36.9339 68.125 36.9339C67.6603 36.9339 67.294 37.037 67.0263 37.2433C66.7616 37.4464 66.5785 37.6726 66.4769 37.9219L65.1797 37.6264C65.3336 37.1955 65.5582 36.8478 65.8537 36.5831C66.1522 36.3153 66.4954 36.1214 66.8832 36.0014C67.271 35.8783 67.6787 35.8168 68.1065 35.8168C68.3897 35.8168 68.6897 35.8506 69.0067 35.9183C69.3268 35.983 69.6254 36.103 69.9023 36.2784C70.1824 36.4538 70.4117 36.7047 70.5902 37.0309C70.7687 37.354 70.858 37.7741 70.858 38.2912V43H69.5099V42.0305H69.4545C69.3653 42.209 69.2314 42.3845 69.0529 42.5568C68.8744 42.7292 68.6451 42.8723 68.3651 42.9862C68.085 43.1 67.7495 43.157 67.3587 43.157ZM67.6587 42.049C68.0404 42.049 68.3666 41.9736 68.6374 41.8228C68.9113 41.672 69.1191 41.475 69.2607 41.2319C69.4053 40.9857 69.4776 40.7225 69.4776 40.4425V39.5284C69.4284 39.5777 69.333 39.6238 69.1914 39.6669C69.0529 39.7069 68.8944 39.7423 68.7159 39.7731C68.5374 39.8008 68.3635 39.8269 68.1942 39.8516C68.025 39.8731 67.8834 39.8916 67.7695 39.907C67.5018 39.9408 67.2571 39.9978 67.0355 40.0778C66.817 40.1578 66.6416 40.2732 66.5092 40.424C66.38 40.5717 66.3153 40.7687 66.3153 41.0149C66.3153 41.3565 66.4415 41.6151 66.6939 41.7905C66.9463 41.9628 67.2679 42.049 67.6587 42.049ZM81.4043 36.0291C81.3551 35.5921 81.1519 35.2536 80.7949 35.0135C80.4379 34.7704 79.9886 34.6488 79.4469 34.6488C79.0591 34.6488 78.7237 34.7103 78.4405 34.8335C78.1574 34.9535 77.9373 35.1197 77.7804 35.332C77.6265 35.5413 77.5495 35.7798 77.5495 36.0476C77.5495 36.2723 77.6019 36.4661 77.7065 36.6293C77.8142 36.7924 77.9542 36.9293 78.1266 37.0401C78.302 37.1478 78.4898 37.2386 78.6898 37.3125C78.8899 37.3833 79.0822 37.4418 79.2669 37.4879L80.1902 37.728C80.4918 37.8018 80.8011 37.9019 81.1181 38.0281C81.4351 38.1542 81.729 38.3204 81.9998 38.5266C82.2707 38.7328 82.4892 38.9883 82.6554 39.293C82.8246 39.5977 82.9093 39.9624 82.9093 40.3871C82.9093 40.9226 82.7708 41.3981 82.4938 41.8136C82.2199 42.229 81.8213 42.5568 81.2981 42.7969C80.778 43.0369 80.1486 43.157 79.41 43.157C78.7021 43.157 78.0897 43.0446 77.5726 42.82C77.0556 42.5953 76.6509 42.2768 76.3585 41.8643C76.0661 41.4489 75.9045 40.9564 75.8738 40.3871H77.3049C77.3326 40.7287 77.4434 41.0134 77.6373 41.2411C77.8342 41.4658 78.085 41.6335 78.3897 41.7443C78.6975 41.852 79.0345 41.9059 79.4007 41.9059C79.8039 41.9059 80.1625 41.8428 80.4764 41.7166C80.7934 41.5874 81.0427 41.4089 81.2243 41.1811C81.4058 40.9503 81.4966 40.681 81.4966 40.3732C81.4966 40.0932 81.4166 39.8639 81.2566 39.6854C81.0996 39.5069 80.8857 39.3591 80.6149 39.2422C80.3471 39.1252 80.044 39.0221 79.7054 38.9329L78.5882 38.6282C77.8311 38.422 77.231 38.1188 76.7878 37.7188C76.3477 37.3187 76.1277 36.7893 76.1277 36.1307C76.1277 35.5859 76.2754 35.1104 76.5708 34.7042C76.8663 34.2979 77.2664 33.9825 77.7711 33.7578C78.2759 33.5301 78.8452 33.4162 79.4792 33.4162C80.1194 33.4162 80.6841 33.5285 81.1735 33.7532C81.6659 33.9779 82.0537 34.2872 82.3368 34.6811C82.62 35.072 82.7677 35.5213 82.78 36.0291H81.4043ZM87.8131 35.9091V37.017H83.9399V35.9091H87.8131ZM84.9786 34.2102H86.3589V40.918C86.3589 41.1857 86.3989 41.3873 86.479 41.5227C86.559 41.6551 86.6621 41.7459 86.7883 41.7951C86.9175 41.8413 87.0576 41.8643 87.2084 41.8643C87.3192 41.8643 87.4161 41.8567 87.4992 41.8413C87.5823 41.8259 87.6469 41.8136 87.6931 41.8043L87.9424 42.9446C87.8624 42.9754 87.7485 43.0062 87.6008 43.0369C87.453 43.0708 87.2684 43.0893 87.0468 43.0923C86.6836 43.0985 86.3451 43.0339 86.0312 42.8984C85.7172 42.763 85.4633 42.5537 85.2694 42.2706C85.0756 41.9875 84.9786 41.632 84.9786 41.2042V34.2102ZM91.4036 43.157C90.9542 43.157 90.548 43.0739 90.1848 42.9077C89.8217 42.7384 89.5339 42.4937 89.3216 42.1737C89.1123 41.8536 89.0076 41.4612 89.0076 40.9964C89.0076 40.5964 89.0846 40.267 89.2385 40.0085C89.3923 39.75 89.6001 39.5453 89.8617 39.3945C90.1233 39.2437 90.4157 39.1299 90.7388 39.0529C91.062 38.976 91.3913 38.9175 91.7267 38.8775C92.1515 38.8282 92.4962 38.7882 92.7608 38.7575C93.0255 38.7236 93.2179 38.6697 93.3379 38.5959C93.4579 38.522 93.5179 38.402 93.5179 38.2358V38.2035C93.5179 37.8003 93.4041 37.4879 93.1763 37.2663C92.9516 37.0447 92.6162 36.9339 92.1699 36.9339C91.7052 36.9339 91.339 37.037 91.0712 37.2433C90.8065 37.4464 90.6234 37.6726 90.5218 37.9219L89.2246 37.6264C89.3785 37.1955 89.6032 36.8478 89.8986 36.5831C90.1971 36.3153 90.5403 36.1214 90.9281 36.0014C91.3159 35.8783 91.7237 35.8168 92.1515 35.8168C92.4346 35.8168 92.7347 35.8506 93.0517 35.9183C93.3717 35.983 93.6703 36.103 93.9473 36.2784C94.2273 36.4538 94.4566 36.7047 94.6351 37.0309C94.8136 37.354 94.9029 37.7741 94.9029 38.2912V43H93.5549V42.0305H93.4995C93.4102 42.209 93.2763 42.3845 93.0978 42.5568C92.9193 42.7292 92.69 42.8723 92.41 42.9862C92.1299 43.1 91.7944 43.157 91.4036 43.157ZM91.7037 42.049C92.0853 42.049 92.4115 41.9736 92.6824 41.8228C92.9563 41.672 93.164 41.475 93.3056 41.2319C93.4502 40.9857 93.5225 40.7225 93.5225 40.4425V39.5284C93.4733 39.5777 93.3779 39.6238 93.2363 39.6669C93.0978 39.7069 92.9393 39.7423 92.7608 39.7731C92.5823 39.8008 92.4084 39.8269 92.2392 39.8516C92.0699 39.8731 91.9283 39.8916 91.8145 39.907C91.5467 39.9408 91.302 39.9978 91.0804 40.0778C90.8619 40.1578 90.6865 40.2732 90.5542 40.424C90.4249 40.5717 90.3603 40.7687 90.3603 41.0149C90.3603 41.3565 90.4864 41.6151 90.7388 41.7905C90.9912 41.9628 91.3128 42.049 91.7037 42.049ZM98.1217 33.5455V43H96.7414V33.5455H98.1217ZM101.248 40.5948L101.239 38.9098H101.479L104.304 35.9091H105.957L102.735 39.3253H102.518L101.248 40.5948ZM99.9787 43V33.5455H101.359V43H99.9787ZM104.457 43L101.918 39.63L102.869 38.6651L106.151 43H104.457ZM109.979 43.1431C109.281 43.1431 108.679 42.9938 108.174 42.6953C107.672 42.3937 107.285 41.9705 107.011 41.4258C106.74 40.878 106.604 40.2363 106.604 39.5007C106.604 38.7744 106.74 38.1342 107.011 37.5803C107.285 37.0263 107.666 36.5939 108.156 36.283C108.648 35.9722 109.224 35.8168 109.882 35.8168C110.282 35.8168 110.67 35.8829 111.046 36.0153C111.421 36.1476 111.758 36.3554 112.057 36.6385C112.355 36.9216 112.591 37.2894 112.763 37.7418C112.935 38.1912 113.021 38.7375 113.021 39.3807V39.87H107.385V38.8359H111.669C111.669 38.4728 111.595 38.1512 111.447 37.8711C111.299 37.5879 111.092 37.3648 110.824 37.2017C110.559 37.0386 110.248 36.957 109.891 36.957C109.504 36.957 109.165 37.0524 108.876 37.2433C108.59 37.431 108.368 37.6772 108.211 37.9819C108.057 38.2835 107.98 38.6113 107.98 38.9652V39.7731C107.98 40.247 108.063 40.6502 108.229 40.9826C108.399 41.315 108.634 41.5689 108.936 41.7443C109.237 41.9167 109.59 42.0028 109.993 42.0028C110.255 42.0028 110.493 41.9659 110.709 41.892C110.924 41.8151 111.11 41.7012 111.267 41.5504C111.424 41.3996 111.544 41.2134 111.627 40.9918L112.934 41.2273C112.829 41.612 112.641 41.949 112.37 42.2383C112.103 42.5245 111.766 42.7476 111.359 42.9077C110.956 43.0646 110.496 43.1431 109.979 43.1431ZM114.553 43V35.9091H115.887V37.0355H115.961C116.09 36.6539 116.318 36.3538 116.644 36.1353C116.973 35.9137 117.346 35.8029 117.761 35.8029C117.848 35.8029 117.949 35.806 118.066 35.8121C118.186 35.8183 118.28 35.826 118.348 35.8352V37.1555C118.292 37.1402 118.194 37.1232 118.052 37.1048C117.911 37.0832 117.769 37.0724 117.627 37.0724C117.301 37.0724 117.01 37.1417 116.755 37.2802C116.503 37.4156 116.303 37.6049 116.155 37.848C116.007 38.0881 115.933 38.362 115.933 38.6697V43H114.553Z" fill="white" fill-opacity="0.7"/>
<path d="M38.8182 66.1761C38 66.1761 37.286 65.9886 36.6761 65.6136C36.0663 65.2386 35.5928 64.714 35.2557 64.0398C34.9186 63.3655 34.75 62.5777 34.75 61.6761C34.75 60.7708 34.9186 59.9792 35.2557 59.3011C35.5928 58.6231 36.0663 58.0966 36.6761 57.7216C37.286 57.3466 38 57.1591 38.8182 57.1591C39.6364 57.1591 40.3504 57.3466 40.9602 57.7216C41.5701 58.0966 42.0436 58.6231 42.3807 59.3011C42.7178 59.9792 42.8864 60.7708 42.8864 61.6761C42.8864 62.5777 42.7178 63.3655 42.3807 64.0398C42.0436 64.714 41.5701 65.2386 40.9602 65.6136C40.3504 65.9886 39.6364 66.1761 38.8182 66.1761ZM38.8239 64.75C39.3542 64.75 39.7936 64.6098 40.142 64.3295C40.4905 64.0492 40.7481 63.6761 40.9148 63.2102C41.0852 62.7443 41.1705 62.2311 41.1705 61.6705C41.1705 61.1136 41.0852 60.6023 40.9148 60.1364C40.7481 59.6667 40.4905 59.2898 40.142 59.0057C39.7936 58.7216 39.3542 58.5795 38.8239 58.5795C38.2898 58.5795 37.8466 58.7216 37.4943 59.0057C37.1458 59.2898 36.8864 59.6667 36.7159 60.1364C36.5492 60.6023 36.4659 61.1136 36.4659 61.6705C36.4659 62.2311 36.5492 62.7443 36.7159 63.2102C36.8864 63.6761 37.1458 64.0492 37.4943 64.3295C37.8466 64.6098 38.2898 64.75 38.8239 64.75ZM46.4815 60.8182V66H44.7827V54.3636H46.4588V58.6932H46.5668C46.7713 58.2235 47.0838 57.8504 47.5043 57.5739C47.9247 57.2973 48.474 57.1591 49.152 57.1591C49.7505 57.1591 50.2732 57.2822 50.7202 57.5284C51.1709 57.7746 51.5194 58.142 51.7656 58.6307C52.0156 59.1155 52.1406 59.7216 52.1406 60.4489V66H50.4418V60.6534C50.4418 60.0133 50.277 59.517 49.9474 59.1648C49.6179 58.8087 49.1596 58.6307 48.5724 58.6307C48.1709 58.6307 47.8111 58.7159 47.4929 58.8864C47.1785 59.0568 46.9304 59.3068 46.7486 59.6364C46.5705 59.9621 46.4815 60.3561 46.4815 60.8182ZM60.5341 66L57.9659 57.2727H59.7216L61.4318 63.6818H61.517L63.233 57.2727H64.9886L66.6932 63.6534H66.7784L68.4773 57.2727H70.233L67.6705 66H65.9375L64.1648 59.6989H64.0341L62.2614 66H60.5341ZM74.3849 66.1932C73.8319 66.1932 73.3319 66.0909 72.8849 65.8864C72.438 65.678 72.0838 65.3769 71.8224 64.983C71.5649 64.589 71.4361 64.1061 71.4361 63.5341C71.4361 63.0417 71.5308 62.6364 71.7202 62.3182C71.9096 62 72.1652 61.7481 72.4872 61.5625C72.8092 61.3769 73.169 61.2367 73.5668 61.142C73.9645 61.0473 74.3698 60.9754 74.7827 60.9261C75.3054 60.8655 75.7296 60.8163 76.0554 60.7784C76.3812 60.7367 76.6179 60.6705 76.7656 60.5795C76.9134 60.4886 76.9872 60.3409 76.9872 60.1364V60.0966C76.9872 59.6004 76.8471 59.2159 76.5668 58.9432C76.2902 58.6705 75.8774 58.5341 75.3281 58.5341C74.7562 58.5341 74.3054 58.661 73.9759 58.9148C73.6501 59.1648 73.4247 59.4432 73.2997 59.75L71.7031 59.3864C71.8925 58.8561 72.169 58.428 72.5327 58.1023C72.9001 57.7727 73.3224 57.5341 73.7997 57.3864C74.277 57.2348 74.7789 57.1591 75.3054 57.1591C75.6539 57.1591 76.0232 57.2008 76.4134 57.2841C76.8073 57.3636 77.1747 57.5114 77.5156 57.7273C77.8603 57.9432 78.1425 58.2519 78.3622 58.6534C78.5819 59.0511 78.6918 59.5682 78.6918 60.2045V66H77.0327V64.8068H76.9645C76.8546 65.0265 76.6899 65.2424 76.4702 65.4545C76.2505 65.6667 75.9683 65.8428 75.6236 65.983C75.2789 66.1231 74.866 66.1932 74.3849 66.1932ZM74.7543 64.8295C75.224 64.8295 75.6255 64.7367 75.9588 64.5511C76.2959 64.3655 76.5516 64.1231 76.7259 63.8239C76.9039 63.5208 76.9929 63.197 76.9929 62.8523V61.7273C76.9323 61.7879 76.8149 61.8447 76.6406 61.8977C76.4702 61.947 76.2751 61.9905 76.0554 62.0284C75.8357 62.0625 75.6217 62.0947 75.4134 62.125C75.205 62.1515 75.0308 62.1742 74.8906 62.1932C74.5611 62.2348 74.2599 62.3049 73.9872 62.4034C73.7183 62.5019 73.5024 62.6439 73.3395 62.8295C73.1804 63.0114 73.1009 63.2538 73.1009 63.5568C73.1009 63.9773 73.2562 64.2955 73.5668 64.5114C73.8774 64.7235 74.2732 64.8295 74.7543 64.8295ZM80.9545 66V57.2727H82.6534V66H80.9545ZM81.8125 55.9261C81.517 55.9261 81.2633 55.8277 81.0511 55.6307C80.8428 55.4299 80.7386 55.1913 80.7386 54.9148C80.7386 54.6345 80.8428 54.3958 81.0511 54.1989C81.2633 53.9981 81.517 53.8977 81.8125 53.8977C82.108 53.8977 82.3598 53.9981 82.5682 54.1989C82.7803 54.3958 82.8864 54.6345 82.8864 54.9148C82.8864 55.1913 82.7803 55.4299 82.5682 55.6307C82.3598 55.8277 82.108 55.9261 81.8125 55.9261ZM89.0128 57.2727V58.6364H84.2457V57.2727H89.0128ZM85.5241 55.1818H87.223V63.4375C87.223 63.767 87.2723 64.0152 87.3707 64.1818C87.4692 64.3447 87.5961 64.4564 87.7514 64.517C87.9105 64.5739 88.0829 64.6023 88.2685 64.6023C88.4048 64.6023 88.5241 64.5928 88.6264 64.5739C88.7287 64.5549 88.8082 64.5398 88.8651 64.5284L89.1719 65.9318C89.0734 65.9697 88.9332 66.0076 88.7514 66.0455C88.5696 66.0871 88.3423 66.1098 88.0696 66.1136C87.6226 66.1212 87.206 66.0417 86.8196 65.875C86.4332 65.7083 86.1207 65.4508 85.8821 65.1023C85.6435 64.7538 85.5241 64.3163 85.5241 63.7898V55.1818ZM95.1264 66V57.2727H96.8253V66H95.1264ZM95.9844 55.9261C95.6889 55.9261 95.4351 55.8277 95.223 55.6307C95.0147 55.4299 94.9105 55.1913 94.9105 54.9148C94.9105 54.6345 95.0147 54.3958 95.223 54.1989C95.4351 53.9981 95.6889 53.8977 95.9844 53.8977C96.2798 53.8977 96.5317 53.9981 96.7401 54.1989C96.9522 54.3958 97.0582 54.6345 97.0582 54.9148C97.0582 55.1913 96.9522 55.4299 96.7401 55.6307C96.5317 55.8277 96.2798 55.9261 95.9844 55.9261ZM105.044 54.3636V66H103.345V54.3636H105.044ZM107.33 66V57.2727H109.028V66H107.33ZM108.188 55.9261C107.892 55.9261 107.638 55.8277 107.426 55.6307C107.218 55.4299 107.114 55.1913 107.114 54.9148C107.114 54.6345 107.218 54.3958 107.426 54.1989C107.638 53.9981 107.892 53.8977 108.188 53.8977C108.483 53.8977 108.735 53.9981 108.943 54.1989C109.155 54.3958 109.261 54.6345 109.261 54.9148C109.261 55.1913 109.155 55.4299 108.943 55.6307C108.735 55.8277 108.483 55.9261 108.188 55.9261ZM112.876 63.0398L112.865 60.9659H113.161L116.638 57.2727H118.672L114.706 61.4773H114.439L112.876 63.0398ZM111.314 66V54.3636H113.013V66H111.314ZM116.825 66L113.7 61.8523L114.871 60.6648L118.911 66H116.825ZM123.622 66.1761C122.762 66.1761 122.022 65.9924 121.401 65.625C120.783 65.2538 120.306 64.733 119.969 64.0625C119.635 63.3883 119.469 62.5985 119.469 61.6932C119.469 60.7992 119.635 60.0114 119.969 59.3295C120.306 58.6477 120.776 58.1155 121.378 57.733C121.984 57.3504 122.692 57.1591 123.503 57.1591C123.995 57.1591 124.473 57.2405 124.935 57.4034C125.397 57.5663 125.812 57.822 126.179 58.1705C126.546 58.5189 126.836 58.9716 127.048 59.5284C127.26 60.0814 127.366 60.7538 127.366 61.5455V62.1477H120.429V60.875H125.702C125.702 60.428 125.611 60.0322 125.429 59.6875C125.247 59.339 124.991 59.0644 124.662 58.8636C124.336 58.6629 123.954 58.5625 123.514 58.5625C123.037 58.5625 122.62 58.6799 122.264 58.9148C121.912 59.1458 121.639 59.4489 121.446 59.8239C121.257 60.1951 121.162 60.5985 121.162 61.0341V62.0284C121.162 62.6117 121.264 63.108 121.469 63.517C121.677 63.9261 121.967 64.2386 122.338 64.4545C122.709 64.6667 123.143 64.7727 123.639 64.7727C123.961 64.7727 124.255 64.7273 124.52 64.6364C124.785 64.5417 125.014 64.4015 125.207 64.2159C125.401 64.0303 125.548 63.8011 125.651 63.5284L127.259 63.8182C127.13 64.2917 126.899 64.7064 126.565 65.0625C126.236 65.4148 125.821 65.6894 125.321 65.8864C124.825 66.0795 124.259 66.1761 123.622 66.1761ZM137.56 57.2727V58.6364H132.793V57.2727H137.56ZM134.071 55.1818H135.77V63.4375C135.77 63.767 135.819 64.0152 135.918 64.1818C136.016 64.3447 136.143 64.4564 136.298 64.517C136.457 64.5739 136.63 64.6023 136.815 64.6023C136.952 64.6023 137.071 64.5928 137.173 64.5739C137.276 64.5549 137.355 64.5398 137.412 64.5284L137.719 65.9318C137.62 65.9697 137.48 66.0076 137.298 66.0455C137.116 66.0871 136.889 66.1098 136.616 66.1136C136.17 66.1212 135.753 66.0417 135.366 65.875C134.98 65.7083 134.668 65.4508 134.429 65.1023C134.19 64.7538 134.071 64.3163 134.071 63.7898V55.1818ZM141.325 60.8182V66H139.626V54.3636H141.303V58.6932H141.411C141.615 58.2235 141.928 57.8504 142.348 57.5739C142.768 57.2973 143.318 57.1591 143.996 57.1591C144.594 57.1591 145.117 57.2822 145.564 57.5284C146.015 57.7746 146.363 58.142 146.609 58.6307C146.859 59.1155 146.984 59.7216 146.984 60.4489V66H145.286V60.6534C145.286 60.0133 145.121 59.517 144.791 59.1648C144.462 58.8087 144.003 58.6307 143.416 58.6307C143.015 58.6307 142.655 58.7159 142.337 58.8864C142.022 59.0568 141.774 59.3068 141.592 59.6364C141.414 59.9621 141.325 60.3561 141.325 60.8182ZM151.791 66.1932C151.238 66.1932 150.738 66.0909 150.291 65.8864C149.844 65.678 149.49 65.3769 149.229 64.983C148.971 64.589 148.842 64.1061 148.842 63.5341C148.842 63.0417 148.937 62.6364 149.126 62.3182C149.316 62 149.571 61.7481 149.893 61.5625C150.215 61.3769 150.575 61.2367 150.973 61.142C151.371 61.0473 151.776 60.9754 152.189 60.9261C152.712 60.8655 153.136 60.8163 153.462 60.7784C153.787 60.7367 154.024 60.6705 154.172 60.5795C154.32 60.4886 154.393 60.3409 154.393 60.1364V60.0966C154.393 59.6004 154.253 59.2159 153.973 58.9432C153.696 58.6705 153.284 58.5341 152.734 58.5341C152.162 58.5341 151.712 58.661 151.382 58.9148C151.056 59.1648 150.831 59.4432 150.706 59.75L149.109 59.3864C149.299 58.8561 149.575 58.428 149.939 58.1023C150.306 57.7727 150.729 57.5341 151.206 57.3864C151.683 57.2348 152.185 57.1591 152.712 57.1591C153.06 57.1591 153.429 57.2008 153.82 57.2841C154.214 57.3636 154.581 57.5114 154.922 57.7273C155.267 57.9432 155.549 58.2519 155.768 58.6534C155.988 59.0511 156.098 59.5682 156.098 60.2045V66H154.439V64.8068H154.371C154.261 65.0265 154.096 65.2424 153.876 65.4545C153.657 65.6667 153.375 65.8428 153.03 65.983C152.685 66.1231 152.272 66.1932 151.791 66.1932ZM152.161 64.8295C152.63 64.8295 153.032 64.7367 153.365 64.5511C153.702 64.3655 153.958 64.1231 154.132 63.8239C154.31 63.5208 154.399 63.197 154.399 62.8523V61.7273C154.339 61.7879 154.221 61.8447 154.047 61.8977C153.876 61.947 153.681 61.9905 153.462 62.0284C153.242 62.0625 153.028 62.0947 152.82 62.125C152.611 62.1515 152.437 62.1742 152.297 62.1932C151.967 62.2348 151.666 62.3049 151.393 62.4034C151.125 62.5019 150.909 62.6439 150.746 62.8295C150.587 63.0114 150.507 63.2538 150.507 63.5568C150.507 63.9773 150.662 64.2955 150.973 64.5114C151.284 64.7235 151.679 64.8295 152.161 64.8295ZM162.435 57.2727V58.6364H157.668V57.2727H162.435ZM158.946 55.1818H160.645V63.4375C160.645 63.767 160.694 64.0152 160.793 64.1818C160.891 64.3447 161.018 64.4564 161.173 64.517C161.332 64.5739 161.505 64.6023 161.69 64.6023C161.827 64.6023 161.946 64.5928 162.048 64.5739C162.151 64.5549 162.23 64.5398 162.287 64.5284L162.594 65.9318C162.495 65.9697 162.355 66.0076 162.173 66.0455C161.991 66.0871 161.764 66.1098 161.491 66.1136C161.045 66.1212 160.628 66.0417 160.241 65.875C159.855 65.7083 159.543 65.4508 159.304 65.1023C159.065 64.7538 158.946 64.3163 158.946 63.7898V55.1818Z" fill="white"/>
</g>
<defs>
<filter id="filter0_d_2194_1429" x="2.96826" y="2.1582" width="20.4644" height="22.4766" filterUnits="userSpaceOnUse" color-interpolation-filters="sRGB">
<feFlood flood-opacity="0" result="BackgroundImageFix"/>
<feColorMatrix in="SourceAlpha" type="matrix" values="0 0 0 0 0 0 0 0 0 0 0 0 0 0 0 0 0 0 127 0" result="hardAlpha"/>
<feOffset dy="1"/>
<feGaussianBlur stdDeviation="1"/>
<feComposite in2="hardAlpha" operator="out"/>
<feColorMatrix type="matrix" values="0 0 0 0 0 0 0 0 0 0 0 0 0 0 0 0 0 0 0.25 0"/>
<feBlend mode="normal" in2="BackgroundImageFix" result="effect1_dropShadow_2194_1429"/>
<feBlend mode="normal" in="SourceGraphic" in2="effect1_dropShadow_2194_1429" result="shape"/>
</filter>
<filter id="filter1_d_2194_1429" x="12" y="14" width="186" height="80" filterUnits="userSpaceOnUse" color-interpolation-filters="sRGB">
<feFlood flood-opacity="0" result="BackgroundImageFix"/>
<feColorMatrix in="SourceAlpha" type="matrix" values="0 0 0 0 0 0 0 0 0 0 0 0 0 0 0 0 0 0 127 0" result="hardAlpha"/>
<feOffset dx="4" dy="4"/>
<feGaussianBlur stdDeviation="5"/>
<feComposite in2="hardAlpha" operator="out"/>
<feColorMatrix type="matrix" values="0 0 0 0 0.968627 0 0 0 0 0.819608 0 0 0 0 0.345098 0 0 0 0.16 0"/>
<feBlend mode="normal" in2="BackgroundImageFix" result="effect1_dropShadow_2194_1429"/>
<feBlend mode="normal" in="SourceGraphic" in2="effect1_dropShadow_2194_1429" result="shape"/>
</filter>
</defs>
</svg>
