<svg width="200" height="94" viewBox="0 0 200 94" fill="none" xmlns="http://www.w3.org/2000/svg">
<g filter="url(#filter0_d_2219_3056)">
<path d="M8.81678 20.3643L5.66312 4.11451L20.143 12.1353L13.0104 14.2272L8.81678 20.3643Z" fill="#F7D158"/>
<path d="M8.81678 20.3643L5.66312 4.11451L20.143 12.1353L13.0104 14.2272L8.81678 20.3643Z" stroke="white"/>
</g>
<g filter="url(#filter1_d_2219_3056)">
<path d="M18 22C18 20.8954 18.8954 20 20 20H162C175.255 20 186 30.7452 186 44V56C186 69.2548 175.255 80 162 80H42C28.7452 80 18 69.2548 18 56V22Z" fill="#F7D158" shape-rendering="crispEdges"/>
<path d="M20 21H162C174.703 21 185 31.2975 185 44V56C185 68.7025 174.703 79 162 79H42C29.2975 79 19 68.7025 19 56V22C19 21.4477 19.4477 21 20 21Z" stroke="#F7D158" stroke-width="2" shape-rendering="crispEdges"/>
<path opacity="0.8" d="M35.0387 43V33.5455H40.9016V34.7734H36.4652V37.6541H40.4815V38.8775H36.4652V43H35.0387ZM42.5451 43V35.9091H43.9254V43H42.5451ZM43.2422 34.815C43.0021 34.815 42.7959 34.735 42.6236 34.5749C42.4543 34.4118 42.3697 34.2179 42.3697 33.9933C42.3697 33.7655 42.4543 33.5716 42.6236 33.4116C42.7959 33.2485 43.0021 33.1669 43.2422 33.1669C43.4822 33.1669 43.6869 33.2485 43.8562 33.4116C44.0285 33.5716 44.1147 33.7655 44.1147 33.9933C44.1147 34.2179 44.0285 34.4118 43.8562 34.5749C43.6869 34.735 43.4822 34.815 43.2422 34.815ZM48.7554 45.8068C48.1922 45.8068 47.7075 45.733 47.3012 45.5852C46.8981 45.4375 46.5687 45.2421 46.3133 44.9989C46.0579 44.7558 45.867 44.4896 45.7409 44.2003L46.9273 43.7109C47.0104 43.8464 47.1212 43.9895 47.2597 44.1403C47.4012 44.2942 47.5921 44.425 47.8321 44.5327C48.0753 44.6404 48.3876 44.6942 48.7693 44.6942C49.2925 44.6942 49.7249 44.5665 50.0665 44.3111C50.4081 44.0587 50.5789 43.6555 50.5789 43.1016V41.7074H50.4912C50.4081 41.8582 50.2881 42.0259 50.1311 42.2106C49.9772 42.3952 49.7649 42.5553 49.4941 42.6907C49.2232 42.8261 48.8708 42.8938 48.4369 42.8938C47.8767 42.8938 47.372 42.763 46.9227 42.5014C46.4764 42.2367 46.1225 41.8474 45.8609 41.3335C45.6024 40.8164 45.4731 40.1809 45.4731 39.4268C45.4731 38.6728 45.6008 38.0265 45.8563 37.4879C46.1148 36.9493 46.4687 36.5369 46.9181 36.2507C47.3674 35.9614 47.8767 35.8168 48.4461 35.8168C48.8862 35.8168 49.2417 35.8906 49.5125 36.0384C49.7834 36.183 49.9942 36.3523 50.145 36.5462C50.2989 36.7401 50.4173 36.9109 50.5004 37.0586H50.602V35.9091H51.9546V43.157C51.9546 43.7663 51.8131 44.2665 51.5299 44.6573C51.2468 45.0482 50.8636 45.3375 50.3804 45.5252C49.9003 45.7129 49.3586 45.8068 48.7554 45.8068ZM48.7416 41.7489C49.1386 41.7489 49.474 41.6566 49.748 41.4719C50.0249 41.2842 50.2342 41.0165 50.3758 40.6687C50.5204 40.3178 50.5928 39.8977 50.5928 39.4084C50.5928 38.9313 50.522 38.5112 50.3804 38.1481C50.2388 37.7849 50.0311 37.5018 49.7572 37.2987C49.4833 37.0924 49.1447 36.9893 48.7416 36.9893C48.3261 36.9893 47.9798 37.0971 47.7029 37.3125C47.4259 37.5249 47.2166 37.8142 47.075 38.1804C46.9365 38.5466 46.8673 38.956 46.8673 39.4084C46.8673 39.8731 46.9381 40.2809 47.0796 40.6317C47.2212 40.9826 47.4305 41.2565 47.7075 41.4535C47.9875 41.6504 48.3322 41.7489 48.7416 41.7489ZM53.8058 43V35.9091H55.1308V37.0632H55.2185C55.3662 36.6723 55.6078 36.3677 55.9433 36.1491C56.2787 35.9276 56.6804 35.8168 57.1482 35.8168C57.6221 35.8168 58.0191 35.9276 58.3392 36.1491C58.6624 36.3707 58.9009 36.6754 59.0548 37.0632H59.1286C59.2979 36.6847 59.5672 36.383 59.9365 36.1584C60.3058 35.9306 60.7459 35.8168 61.2568 35.8168C61.9001 35.8168 62.4248 36.0183 62.8311 36.4215C63.2404 36.8247 63.445 37.4325 63.445 38.245V43H62.0647V38.3743C62.0647 37.8942 61.9339 37.5464 61.6723 37.331C61.4107 37.1155 61.0983 37.0078 60.7352 37.0078C60.2858 37.0078 59.9365 37.1463 59.6872 37.4233C59.4379 37.6972 59.3133 38.0496 59.3133 38.4805V43H57.9376V38.2866C57.9376 37.9019 57.8176 37.5926 57.5775 37.3587C57.3374 37.1248 57.0251 37.0078 56.6404 37.0078C56.3788 37.0078 56.1372 37.0771 55.9156 37.2156C55.6971 37.351 55.5201 37.5402 55.3847 37.7834C55.2523 38.0265 55.1862 38.3081 55.1862 38.6282V43H53.8058ZM67.3587 43.157C66.9093 43.157 66.5031 43.0739 66.1399 42.9077C65.7768 42.7384 65.489 42.4937 65.2766 42.1737C65.0674 41.8536 64.9627 41.4612 64.9627 40.9964C64.9627 40.5964 65.0397 40.267 65.1935 40.0085C65.3474 39.75 65.5552 39.5453 65.8168 39.3945C66.0784 39.2437 66.3707 39.1299 66.6939 39.0529C67.017 38.976 67.3464 38.9175 67.6818 38.8775C68.1065 38.8282 68.4512 38.7882 68.7159 38.7575C68.9806 38.7236 69.1729 38.6697 69.293 38.5959C69.413 38.522 69.473 38.402 69.473 38.2358V38.2035C69.473 37.8003 69.3591 37.4879 69.1314 37.2663C68.9067 37.0447 68.5713 36.9339 68.125 36.9339C67.6603 36.9339 67.294 37.037 67.0263 37.2433C66.7616 37.4464 66.5785 37.6726 66.4769 37.9219L65.1797 37.6264C65.3336 37.1955 65.5582 36.8478 65.8537 36.5831C66.1522 36.3153 66.4954 36.1214 66.8832 36.0014C67.271 35.8783 67.6787 35.8168 68.1065 35.8168C68.3897 35.8168 68.6897 35.8506 69.0067 35.9183C69.3268 35.983 69.6254 36.103 69.9023 36.2784C70.1824 36.4538 70.4117 36.7047 70.5902 37.0309C70.7687 37.354 70.858 37.7741 70.858 38.2912V43H69.5099V42.0305H69.4545C69.3653 42.209 69.2314 42.3845 69.0529 42.5568C68.8744 42.7292 68.6451 42.8723 68.3651 42.9862C68.085 43.1 67.7495 43.157 67.3587 43.157ZM67.6587 42.049C68.0404 42.049 68.3666 41.9736 68.6374 41.8228C68.9113 41.672 69.1191 41.475 69.2607 41.2319C69.4053 40.9857 69.4776 40.7225 69.4776 40.4425V39.5284C69.4284 39.5777 69.333 39.6238 69.1914 39.6669C69.0529 39.7069 68.8944 39.7423 68.7159 39.7731C68.5374 39.8008 68.3635 39.8269 68.1942 39.8516C68.025 39.8731 67.8834 39.8916 67.7695 39.907C67.5018 39.9408 67.2571 39.9978 67.0355 40.0778C66.817 40.1578 66.6416 40.2732 66.5092 40.424C66.38 40.5717 66.3153 40.7687 66.3153 41.0149C66.3153 41.3565 66.4415 41.6151 66.6939 41.7905C66.9463 41.9628 67.2679 42.049 67.6587 42.049ZM81.4043 36.0291C81.3551 35.5921 81.1519 35.2536 80.7949 35.0135C80.4379 34.7704 79.9886 34.6488 79.4469 34.6488C79.0591 34.6488 78.7237 34.7103 78.4405 34.8335C78.1574 34.9535 77.9373 35.1197 77.7804 35.332C77.6265 35.5413 77.5495 35.7798 77.5495 36.0476C77.5495 36.2723 77.6019 36.4661 77.7065 36.6293C77.8142 36.7924 77.9542 36.9293 78.1266 37.0401C78.302 37.1478 78.4898 37.2386 78.6898 37.3125C78.8899 37.3833 79.0822 37.4418 79.2669 37.4879L80.1902 37.728C80.4918 37.8018 80.8011 37.9019 81.1181 38.0281C81.4351 38.1542 81.729 38.3204 81.9998 38.5266C82.2707 38.7328 82.4892 38.9883 82.6554 39.293C82.8246 39.5977 82.9093 39.9624 82.9093 40.3871C82.9093 40.9226 82.7708 41.3981 82.4938 41.8136C82.2199 42.229 81.8213 42.5568 81.2981 42.7969C80.778 43.0369 80.1486 43.157 79.41 43.157C78.7021 43.157 78.0897 43.0446 77.5726 42.82C77.0556 42.5953 76.6509 42.2768 76.3585 41.8643C76.0661 41.4489 75.9045 40.9564 75.8738 40.3871H77.3049C77.3326 40.7287 77.4434 41.0134 77.6373 41.2411C77.8342 41.4658 78.085 41.6335 78.3897 41.7443C78.6975 41.852 79.0345 41.9059 79.4007 41.9059C79.8039 41.9059 80.1625 41.8428 80.4764 41.7166C80.7934 41.5874 81.0427 41.4089 81.2243 41.1811C81.4058 40.9503 81.4966 40.681 81.4966 40.3732C81.4966 40.0932 81.4166 39.8639 81.2566 39.6854C81.0996 39.5069 80.8857 39.3591 80.6149 39.2422C80.3471 39.1252 80.044 39.0221 79.7054 38.9329L78.5882 38.6282C77.8311 38.422 77.231 38.1188 76.7878 37.7188C76.3477 37.3187 76.1277 36.7893 76.1277 36.1307C76.1277 35.5859 76.2754 35.1104 76.5708 34.7042C76.8663 34.2979 77.2664 33.9825 77.7711 33.7578C78.2759 33.5301 78.8452 33.4162 79.4792 33.4162C80.1194 33.4162 80.6841 33.5285 81.1735 33.7532C81.6659 33.9779 82.0537 34.2872 82.3368 34.6811C82.62 35.072 82.7677 35.5213 82.78 36.0291H81.4043ZM87.8131 35.9091V37.017H83.9399V35.9091H87.8131ZM84.9786 34.2102H86.3589V40.918C86.3589 41.1857 86.3989 41.3873 86.479 41.5227C86.559 41.6551 86.6621 41.7459 86.7883 41.7951C86.9175 41.8413 87.0576 41.8643 87.2084 41.8643C87.3192 41.8643 87.4161 41.8567 87.4992 41.8413C87.5823 41.8259 87.6469 41.8136 87.6931 41.8043L87.9424 42.9446C87.8624 42.9754 87.7485 43.0062 87.6008 43.0369C87.453 43.0708 87.2684 43.0893 87.0468 43.0923C86.6836 43.0985 86.3451 43.0339 86.0312 42.8984C85.7172 42.763 85.4633 42.5537 85.2694 42.2706C85.0756 41.9875 84.9786 41.632 84.9786 41.2042V34.2102ZM91.4036 43.157C90.9542 43.157 90.548 43.0739 90.1848 42.9077C89.8217 42.7384 89.5339 42.4937 89.3216 42.1737C89.1123 41.8536 89.0076 41.4612 89.0076 40.9964C89.0076 40.5964 89.0846 40.267 89.2385 40.0085C89.3923 39.75 89.6001 39.5453 89.8617 39.3945C90.1233 39.2437 90.4157 39.1299 90.7388 39.0529C91.062 38.976 91.3913 38.9175 91.7267 38.8775C92.1515 38.8282 92.4962 38.7882 92.7608 38.7575C93.0255 38.7236 93.2179 38.6697 93.3379 38.5959C93.4579 38.522 93.5179 38.402 93.5179 38.2358V38.2035C93.5179 37.8003 93.4041 37.4879 93.1763 37.2663C92.9516 37.0447 92.6162 36.9339 92.1699 36.9339C91.7052 36.9339 91.339 37.037 91.0712 37.2433C90.8065 37.4464 90.6234 37.6726 90.5218 37.9219L89.2246 37.6264C89.3785 37.1955 89.6032 36.8478 89.8986 36.5831C90.1971 36.3153 90.5403 36.1214 90.9281 36.0014C91.3159 35.8783 91.7237 35.8168 92.1515 35.8168C92.4346 35.8168 92.7347 35.8506 93.0517 35.9183C93.3717 35.983 93.6703 36.103 93.9473 36.2784C94.2273 36.4538 94.4566 36.7047 94.6351 37.0309C94.8136 37.354 94.9029 37.7741 94.9029 38.2912V43H93.5549V42.0305H93.4995C93.4102 42.209 93.2763 42.3845 93.0978 42.5568C92.9193 42.7292 92.69 42.8723 92.41 42.9862C92.1299 43.1 91.7944 43.157 91.4036 43.157ZM91.7037 42.049C92.0853 42.049 92.4115 41.9736 92.6824 41.8228C92.9563 41.672 93.164 41.475 93.3056 41.2319C93.4502 40.9857 93.5225 40.7225 93.5225 40.4425V39.5284C93.4733 39.5777 93.3779 39.6238 93.2363 39.6669C93.0978 39.7069 92.9393 39.7423 92.7608 39.7731C92.5823 39.8008 92.4084 39.8269 92.2392 39.8516C92.0699 39.8731 91.9283 39.8916 91.8145 39.907C91.5467 39.9408 91.302 39.9978 91.0804 40.0778C90.8619 40.1578 90.6865 40.2732 90.5542 40.424C90.4249 40.5717 90.3603 40.7687 90.3603 41.0149C90.3603 41.3565 90.4864 41.6151 90.7388 41.7905C90.9912 41.9628 91.3128 42.049 91.7037 42.049ZM98.1217 33.5455V43H96.7414V33.5455H98.1217ZM101.248 40.5948L101.239 38.9098H101.479L104.304 35.9091H105.957L102.735 39.3253H102.518L101.248 40.5948ZM99.9787 43V33.5455H101.359V43H99.9787ZM104.457 43L101.918 39.63L102.869 38.6651L106.151 43H104.457ZM109.979 43.1431C109.281 43.1431 108.679 42.9938 108.174 42.6953C107.672 42.3937 107.285 41.9705 107.011 41.4258C106.74 40.878 106.604 40.2363 106.604 39.5007C106.604 38.7744 106.74 38.1342 107.011 37.5803C107.285 37.0263 107.666 36.5939 108.156 36.283C108.648 35.9722 109.224 35.8168 109.882 35.8168C110.282 35.8168 110.67 35.8829 111.046 36.0153C111.421 36.1476 111.758 36.3554 112.057 36.6385C112.355 36.9216 112.591 37.2894 112.763 37.7418C112.935 38.1912 113.021 38.7375 113.021 39.3807V39.87H107.385V38.8359H111.669C111.669 38.4728 111.595 38.1512 111.447 37.8711C111.299 37.5879 111.092 37.3648 110.824 37.2017C110.559 37.0386 110.248 36.957 109.891 36.957C109.504 36.957 109.165 37.0524 108.876 37.2433C108.59 37.431 108.368 37.6772 108.211 37.9819C108.057 38.2835 107.98 38.6113 107.98 38.9652V39.7731C107.98 40.247 108.063 40.6502 108.229 40.9826C108.399 41.315 108.634 41.5689 108.936 41.7443C109.237 41.9167 109.59 42.0028 109.993 42.0028C110.255 42.0028 110.493 41.9659 110.709 41.892C110.924 41.8151 111.11 41.7012 111.267 41.5504C111.424 41.3996 111.544 41.2134 111.627 40.9918L112.934 41.2273C112.829 41.612 112.641 41.949 112.37 42.2383C112.103 42.5245 111.766 42.7476 111.359 42.9077C110.956 43.0646 110.496 43.1431 109.979 43.1431ZM114.553 43V35.9091H115.887V37.0355H115.961C116.09 36.6539 116.318 36.3538 116.644 36.1353C116.973 35.9137 117.346 35.8029 117.761 35.8029C117.848 35.8029 117.949 35.806 118.066 35.8121C118.186 35.8183 118.28 35.826 118.348 35.8352V37.1555C118.292 37.1402 118.194 37.1232 118.052 37.1048C117.911 37.0832 117.769 37.0724 117.627 37.0724C117.301 37.0724 117.01 37.1417 116.755 37.2802C116.503 37.4156 116.303 37.6049 116.155 37.848C116.007 38.0881 115.933 38.362 115.933 38.6697V43H114.553Z" fill="black" fill-opacity="0.7"/>
<path opacity="0.8" d="M35.142 57.2727H36.8409V66.5682C36.8409 67.1515 36.7348 67.6439 36.5227 68.0455C36.3144 68.447 36.0038 68.7519 35.5909 68.9602C35.1818 69.1686 34.6761 69.2727 34.0739 69.2727C34.0133 69.2727 33.9564 69.2727 33.9034 69.2727C33.8466 69.2727 33.7879 69.2708 33.7273 69.267V67.8068C33.7803 67.8068 33.8277 67.8068 33.8693 67.8068C33.9072 67.8068 33.9508 67.8068 34 67.8068C34.4015 67.8068 34.6913 67.6989 34.8693 67.483C35.0511 67.2708 35.142 66.9621 35.142 66.5568V57.2727ZM35.983 55.9261C35.6875 55.9261 35.4337 55.8277 35.2216 55.6307C35.0133 55.4299 34.9091 55.1913 34.9091 54.9148C34.9091 54.6345 35.0133 54.3958 35.2216 54.1989C35.4337 53.9981 35.6875 53.8977 35.983 53.8977C36.2784 53.8977 36.5303 53.9981 36.7386 54.1989C36.9508 54.3958 37.0568 54.6345 37.0568 54.9148C37.0568 55.1913 36.9508 55.4299 36.7386 55.6307C36.5303 55.8277 36.2784 55.9261 35.983 55.9261ZM44.6548 62.3807V57.2727H46.3594V66H44.6889V64.4886H44.598C44.3973 64.9545 44.0753 65.3428 43.6321 65.6534C43.1927 65.9602 42.6454 66.1136 41.9901 66.1136C41.4295 66.1136 40.9332 65.9905 40.5014 65.7443C40.0734 65.4943 39.7363 65.125 39.4901 64.6364C39.2476 64.1477 39.1264 63.5436 39.1264 62.8239V57.2727H40.8253V62.6193C40.8253 63.214 40.9901 63.6875 41.3196 64.0398C41.6491 64.392 42.0772 64.5682 42.6037 64.5682C42.9219 64.5682 43.2382 64.4886 43.5526 64.3295C43.8707 64.1705 44.134 63.9299 44.3423 63.608C44.5545 63.286 44.6586 62.8769 44.6548 62.3807ZM55.1818 59.4034L53.642 59.6761C53.5777 59.4792 53.4754 59.2917 53.3352 59.1136C53.1989 58.9356 53.0133 58.7898 52.7784 58.6761C52.5436 58.5625 52.25 58.5057 51.8977 58.5057C51.4167 58.5057 51.0152 58.6136 50.6932 58.8295C50.3712 59.0417 50.2102 59.3163 50.2102 59.6534C50.2102 59.9451 50.3182 60.1799 50.5341 60.358C50.75 60.536 51.0985 60.6818 51.5795 60.7955L52.9659 61.1136C53.7689 61.2992 54.3674 61.5852 54.7614 61.9716C55.1553 62.358 55.3523 62.8598 55.3523 63.4773C55.3523 64 55.2008 64.4659 54.8977 64.875C54.5985 65.2803 54.1799 65.5985 53.642 65.8295C53.108 66.0606 52.4886 66.1761 51.7841 66.1761C50.8068 66.1761 50.0095 65.9678 49.392 65.5511C48.7746 65.1307 48.3958 64.5341 48.2557 63.7614L49.8977 63.5114C50 63.9394 50.2102 64.2633 50.5284 64.483C50.8466 64.6989 51.2614 64.8068 51.7727 64.8068C52.3295 64.8068 52.7746 64.6913 53.108 64.4602C53.4413 64.2254 53.608 63.9394 53.608 63.6023C53.608 63.3295 53.5057 63.1004 53.3011 62.9148C53.1004 62.7292 52.7917 62.589 52.375 62.4943L50.8977 62.1705C50.0833 61.9848 49.4811 61.6894 49.0909 61.2841C48.7045 60.8788 48.5114 60.3655 48.5114 59.7443C48.5114 59.2292 48.6553 58.7784 48.9432 58.392C49.2311 58.0057 49.6288 57.7045 50.1364 57.4886C50.6439 57.2689 51.2254 57.1591 51.8807 57.1591C52.8239 57.1591 53.5663 57.3636 54.108 57.7727C54.6496 58.178 55.0076 58.7216 55.1818 59.4034ZM61.294 57.2727V58.6364H56.527V57.2727H61.294ZM57.8054 55.1818H59.5043V63.4375C59.5043 63.767 59.5535 64.0152 59.652 64.1818C59.7505 64.3447 59.8774 64.4564 60.0327 64.517C60.1918 64.5739 60.3641 64.6023 60.5497 64.6023C60.6861 64.6023 60.8054 64.5928 60.9077 64.5739C61.0099 64.5549 61.0895 64.5398 61.1463 64.5284L61.4531 65.9318C61.3546 65.9697 61.2145 66.0076 61.0327 66.0455C60.8509 66.0871 60.6236 66.1098 60.3509 66.1136C59.9039 66.1212 59.4872 66.0417 59.1009 65.875C58.7145 65.7083 58.402 65.4508 58.1634 65.1023C57.9247 64.7538 57.8054 64.3163 57.8054 63.7898V55.1818ZM69.2997 66L66.7315 57.2727H68.4872L70.1974 63.6818H70.2827L71.9986 57.2727H73.7543L75.4588 63.6534H75.544L77.2429 57.2727H78.9986L76.4361 66H74.7031L72.9304 59.6989H72.7997L71.027 66H69.2997ZM83.1506 66.1932C82.5975 66.1932 82.0975 66.0909 81.6506 65.8864C81.2036 65.678 80.8494 65.3769 80.5881 64.983C80.3305 64.589 80.2017 64.1061 80.2017 63.5341C80.2017 63.0417 80.2964 62.6364 80.4858 62.3182C80.6752 62 80.9309 61.7481 81.2528 61.5625C81.5748 61.3769 81.9347 61.2367 82.3324 61.142C82.7301 61.0473 83.1354 60.9754 83.5483 60.9261C84.071 60.8655 84.4953 60.8163 84.821 60.7784C85.1468 60.7367 85.3835 60.6705 85.5312 60.5795C85.679 60.4886 85.7528 60.3409 85.7528 60.1364V60.0966C85.7528 59.6004 85.6127 59.2159 85.3324 58.9432C85.0559 58.6705 84.643 58.5341 84.0938 58.5341C83.5218 58.5341 83.071 58.661 82.7415 58.9148C82.4157 59.1648 82.1903 59.4432 82.0653 59.75L80.4688 59.3864C80.6581 58.8561 80.9347 58.428 81.2983 58.1023C81.6657 57.7727 82.0881 57.5341 82.5653 57.3864C83.0426 57.2348 83.5445 57.1591 84.071 57.1591C84.4195 57.1591 84.7888 57.2008 85.179 57.2841C85.5729 57.3636 85.9403 57.5114 86.2812 57.7273C86.6259 57.9432 86.9081 58.2519 87.1278 58.6534C87.3475 59.0511 87.4574 59.5682 87.4574 60.2045V66H85.7983V64.8068H85.7301C85.6203 65.0265 85.4555 65.2424 85.2358 65.4545C85.0161 65.6667 84.7339 65.8428 84.3892 65.983C84.0445 66.1231 83.6316 66.1932 83.1506 66.1932ZM83.5199 64.8295C83.9896 64.8295 84.3911 64.7367 84.7244 64.5511C85.0616 64.3655 85.3172 64.1231 85.4915 63.8239C85.6695 63.5208 85.7585 63.197 85.7585 62.8523V61.7273C85.6979 61.7879 85.5805 61.8447 85.4062 61.8977C85.2358 61.947 85.0407 61.9905 84.821 62.0284C84.6013 62.0625 84.3873 62.0947 84.179 62.125C83.9706 62.1515 83.7964 62.1742 83.6562 62.1932C83.3267 62.2348 83.0256 62.3049 82.7528 62.4034C82.4839 62.5019 82.268 62.6439 82.1051 62.8295C81.946 63.0114 81.8665 63.2538 81.8665 63.5568C81.8665 63.9773 82.0218 64.2955 82.3324 64.5114C82.643 64.7235 83.0388 64.8295 83.5199 64.8295ZM91.419 60.8182V66H89.7202V57.2727H91.3509V58.6932H91.4588C91.6596 58.2311 91.974 57.8598 92.402 57.5795C92.8338 57.2992 93.3774 57.1591 94.0327 57.1591C94.6274 57.1591 95.1482 57.2841 95.5952 57.5341C96.0421 57.7803 96.3887 58.1477 96.6349 58.6364C96.8812 59.125 97.0043 59.7292 97.0043 60.4489V66H95.3054V60.6534C95.3054 60.0208 95.1406 59.5265 94.8111 59.1705C94.4815 58.8106 94.0289 58.6307 93.4531 58.6307C93.0592 58.6307 92.7088 58.7159 92.402 58.8864C92.099 59.0568 91.8584 59.3068 91.6804 59.6364C91.5062 59.9621 91.419 60.3561 91.419 60.8182ZM100.982 60.8182V66H99.2827V57.2727H100.913V58.6932H101.021C101.222 58.2311 101.536 57.8598 101.964 57.5795C102.396 57.2992 102.94 57.1591 103.595 57.1591C104.19 57.1591 104.711 57.2841 105.158 57.5341C105.605 57.7803 105.951 58.1477 106.197 58.6364C106.444 59.125 106.567 59.7292 106.567 60.4489V66H104.868V60.6534C104.868 60.0208 104.703 59.5265 104.374 59.1705C104.044 58.8106 103.591 58.6307 103.016 58.6307C102.622 58.6307 102.271 58.7159 101.964 58.8864C101.661 59.0568 101.421 59.3068 101.243 59.6364C101.069 59.9621 100.982 60.3561 100.982 60.8182ZM111.385 66.1932C110.832 66.1932 110.332 66.0909 109.885 65.8864C109.438 65.678 109.084 65.3769 108.822 64.983C108.565 64.589 108.436 64.1061 108.436 63.5341C108.436 63.0417 108.531 62.6364 108.72 62.3182C108.91 62 109.165 61.7481 109.487 61.5625C109.809 61.3769 110.169 61.2367 110.567 61.142C110.964 61.0473 111.37 60.9754 111.783 60.9261C112.305 60.8655 112.73 60.8163 113.055 60.7784C113.381 60.7367 113.618 60.6705 113.766 60.5795C113.913 60.4886 113.987 60.3409 113.987 60.1364V60.0966C113.987 59.6004 113.847 59.2159 113.567 58.9432C113.29 58.6705 112.877 58.5341 112.328 58.5341C111.756 58.5341 111.305 58.661 110.976 58.9148C110.65 59.1648 110.425 59.4432 110.3 59.75L108.703 59.3864C108.893 58.8561 109.169 58.428 109.533 58.1023C109.9 57.7727 110.322 57.5341 110.8 57.3864C111.277 57.2348 111.779 57.1591 112.305 57.1591C112.654 57.1591 113.023 57.2008 113.413 57.2841C113.807 57.3636 114.175 57.5114 114.516 57.7273C114.86 57.9432 115.143 58.2519 115.362 58.6534C115.582 59.0511 115.692 59.5682 115.692 60.2045V66H114.033V64.8068H113.964C113.855 65.0265 113.69 65.2424 113.47 65.4545C113.25 65.6667 112.968 65.8428 112.624 65.983C112.279 66.1231 111.866 66.1932 111.385 66.1932ZM111.754 64.8295C112.224 64.8295 112.625 64.7367 112.959 64.5511C113.296 64.3655 113.552 64.1231 113.726 63.8239C113.904 63.5208 113.993 63.197 113.993 62.8523V61.7273C113.932 61.7879 113.815 61.8447 113.641 61.8977C113.47 61.947 113.275 61.9905 113.055 62.0284C112.836 62.0625 112.622 62.0947 112.413 62.125C112.205 62.1515 112.031 62.1742 111.891 62.1932C111.561 62.2348 111.26 62.3049 110.987 62.4034C110.718 62.5019 110.502 62.6439 110.339 62.8295C110.18 63.0114 110.101 63.2538 110.101 63.5568C110.101 63.9773 110.256 64.2955 110.567 64.5114C110.877 64.7235 111.273 64.8295 111.754 64.8295ZM128.729 59.4034L127.189 59.6761C127.125 59.4792 127.022 59.2917 126.882 59.1136C126.746 58.9356 126.56 58.7898 126.325 58.6761C126.09 58.5625 125.797 58.5057 125.445 58.5057C124.964 58.5057 124.562 58.6136 124.24 58.8295C123.918 59.0417 123.757 59.3163 123.757 59.6534C123.757 59.9451 123.865 60.1799 124.081 60.358C124.297 60.536 124.645 60.6818 125.126 60.7955L126.513 61.1136C127.316 61.2992 127.914 61.5852 128.308 61.9716C128.702 62.358 128.899 62.8598 128.899 63.4773C128.899 64 128.748 64.4659 128.445 64.875C128.145 65.2803 127.727 65.5985 127.189 65.8295C126.655 66.0606 126.036 66.1761 125.331 66.1761C124.354 66.1761 123.556 65.9678 122.939 65.5511C122.321 65.1307 121.943 64.5341 121.803 63.7614L123.445 63.5114C123.547 63.9394 123.757 64.2633 124.075 64.483C124.393 64.6989 124.808 64.8068 125.32 64.8068C125.876 64.8068 126.321 64.6913 126.655 64.4602C126.988 64.2254 127.155 63.9394 127.155 63.6023C127.155 63.3295 127.053 63.1004 126.848 62.9148C126.647 62.7292 126.339 62.589 125.922 62.4943L124.445 62.1705C123.63 61.9848 123.028 61.6894 122.638 61.2841C122.251 60.8788 122.058 60.3655 122.058 59.7443C122.058 59.2292 122.202 58.7784 122.49 58.392C122.778 58.0057 123.176 57.7045 123.683 57.4886C124.191 57.2689 124.772 57.1591 125.428 57.1591C126.371 57.1591 127.113 57.3636 127.655 57.7727C128.196 58.178 128.554 58.7216 128.729 59.4034ZM133.307 66.1932C132.754 66.1932 132.254 66.0909 131.807 65.8864C131.36 65.678 131.006 65.3769 130.744 64.983C130.487 64.589 130.358 64.1061 130.358 63.5341C130.358 63.0417 130.453 62.6364 130.642 62.3182C130.831 62 131.087 61.7481 131.409 61.5625C131.731 61.3769 132.091 61.2367 132.489 61.142C132.886 61.0473 133.292 60.9754 133.705 60.9261C134.227 60.8655 134.652 60.8163 134.977 60.7784C135.303 60.7367 135.54 60.6705 135.688 60.5795C135.835 60.4886 135.909 60.3409 135.909 60.1364V60.0966C135.909 59.6004 135.769 59.2159 135.489 58.9432C135.212 58.6705 134.799 58.5341 134.25 58.5341C133.678 58.5341 133.227 58.661 132.898 58.9148C132.572 59.1648 132.347 59.4432 132.222 59.75L130.625 59.3864C130.814 58.8561 131.091 58.428 131.455 58.1023C131.822 57.7727 132.244 57.5341 132.722 57.3864C133.199 57.2348 133.701 57.1591 134.227 57.1591C134.576 57.1591 134.945 57.2008 135.335 57.2841C135.729 57.3636 136.097 57.5114 136.438 57.7273C136.782 57.9432 137.064 58.2519 137.284 58.6534C137.504 59.0511 137.614 59.5682 137.614 60.2045V66H135.955V64.8068H135.886C135.777 65.0265 135.612 65.2424 135.392 65.4545C135.172 65.6667 134.89 65.8428 134.545 65.983C134.201 66.1231 133.788 66.1932 133.307 66.1932ZM133.676 64.8295C134.146 64.8295 134.547 64.7367 134.881 64.5511C135.218 64.3655 135.473 64.1231 135.648 63.8239C135.826 63.5208 135.915 63.197 135.915 62.8523V61.7273C135.854 61.7879 135.737 61.8447 135.562 61.8977C135.392 61.947 135.197 61.9905 134.977 62.0284C134.758 62.0625 134.544 62.0947 134.335 62.125C134.127 62.1515 133.953 62.1742 133.812 62.1932C133.483 62.2348 133.182 62.3049 132.909 62.4034C132.64 62.5019 132.424 62.6439 132.261 62.8295C132.102 63.0114 132.023 63.2538 132.023 63.5568C132.023 63.9773 132.178 64.2955 132.489 64.5114C132.799 64.7235 133.195 64.8295 133.676 64.8295ZM140.638 69.2727C140.384 69.2727 140.153 69.2519 139.945 69.2102C139.736 69.1723 139.581 69.1307 139.479 69.0852L139.888 67.6932C140.198 67.7765 140.475 67.8125 140.717 67.8011C140.96 67.7898 141.174 67.6989 141.359 67.5284C141.549 67.358 141.715 67.0795 141.859 66.6932L142.07 66.1136L138.876 57.2727H140.695L142.905 64.0455H142.996L145.206 57.2727H147.03L143.433 67.1648C143.267 67.6193 143.054 68.0038 142.797 68.3182C142.539 68.6364 142.232 68.875 141.876 69.0341C141.52 69.1932 141.107 69.2727 140.638 69.2727ZM154.56 60.8182V66H152.861V54.3636H154.537V58.6932H154.645C154.849 58.2235 155.162 57.8504 155.582 57.5739C156.003 57.2973 156.552 57.1591 157.23 57.1591C157.829 57.1591 158.351 57.2822 158.798 57.5284C159.249 57.7746 159.598 58.142 159.844 58.6307C160.094 59.1155 160.219 59.7216 160.219 60.4489V66H158.52V60.6534C158.52 60.0133 158.355 59.517 158.026 59.1648C157.696 58.8087 157.238 58.6307 156.651 58.6307C156.249 58.6307 155.889 58.7159 155.571 58.8864C155.257 59.0568 155.009 59.3068 154.827 59.6364C154.649 59.9621 154.56 60.3561 154.56 60.8182ZM162.486 66V57.2727H164.185V66H162.486ZM163.344 55.9261C163.048 55.9261 162.795 55.8277 162.582 55.6307C162.374 55.4299 162.27 55.1913 162.27 54.9148C162.27 54.6345 162.374 54.3958 162.582 54.1989C162.795 53.9981 163.048 53.8977 163.344 53.8977C163.639 53.8977 163.891 53.9981 164.099 54.1989C164.312 54.3958 164.418 54.6345 164.418 54.9148C164.418 55.1913 164.312 55.4299 164.099 55.6307C163.891 55.8277 163.639 55.9261 163.344 55.9261Z" fill="black"/>
</g>
<defs>
<filter id="filter0_d_2219_3056" x="2.96826" y="2.1582" width="20.4644" height="22.4766" filterUnits="userSpaceOnUse" color-interpolation-filters="sRGB">
<feFlood flood-opacity="0" result="BackgroundImageFix"/>
<feColorMatrix in="SourceAlpha" type="matrix" values="0 0 0 0 0 0 0 0 0 0 0 0 0 0 0 0 0 0 127 0" result="hardAlpha"/>
<feOffset dy="1"/>
<feGaussianBlur stdDeviation="1"/>
<feComposite in2="hardAlpha" operator="out"/>
<feColorMatrix type="matrix" values="0 0 0 0 0 0 0 0 0 0 0 0 0 0 0 0 0 0 0.25 0"/>
<feBlend mode="normal" in2="BackgroundImageFix" result="effect1_dropShadow_2219_3056"/>
<feBlend mode="normal" in="SourceGraphic" in2="effect1_dropShadow_2219_3056" result="shape"/>
</filter>
<filter id="filter1_d_2219_3056" x="12" y="14" width="188" height="80" filterUnits="userSpaceOnUse" color-interpolation-filters="sRGB">
<feFlood flood-opacity="0" result="BackgroundImageFix"/>
<feColorMatrix in="SourceAlpha" type="matrix" values="0 0 0 0 0 0 0 0 0 0 0 0 0 0 0 0 0 0 127 0" result="hardAlpha"/>
<feOffset dx="4" dy="4"/>
<feGaussianBlur stdDeviation="5"/>
<feComposite in2="hardAlpha" operator="out"/>
<feColorMatrix type="matrix" values="0 0 0 0 0.968627 0 0 0 0 0.819608 0 0 0 0 0.345098 0 0 0 0.16 0"/>
<feBlend mode="normal" in2="BackgroundImageFix" result="effect1_dropShadow_2219_3056"/>
<feBlend mode="normal" in="SourceGraphic" in2="effect1_dropShadow_2219_3056" result="shape"/>
</filter>
</defs>
</svg>
