<svg width="195" height="94" viewBox="0 0 195 94" fill="none" xmlns="http://www.w3.org/2000/svg">
<g filter="url(#filter0_d_2194_1453)">
<path d="M8.81678 20.3643L5.66312 4.11451L20.143 12.1353L13.0104 14.2272L8.81678 20.3643Z" fill="#039855"/>
<path d="M8.81678 20.3643L5.66312 4.11451L20.143 12.1353L13.0104 14.2272L8.81678 20.3643Z" stroke="white"/>
</g>
<g filter="url(#filter1_d_2194_1453)">
<path d="M18 22C18 20.8954 18.8954 20 20 20H157C170.255 20 181 30.7452 181 44V56C181 69.2548 170.255 80 157 80H42C28.7452 80 18 69.2548 18 56V22Z" fill="#039855" shape-rendering="crispEdges"/>
<path d="M20 21H157C169.703 21 180 31.2975 180 44V56C180 68.7025 169.703 79 157 79H42C29.2975 79 19 68.7025 19 56V22C19 21.4477 19.4477 21 20 21Z" stroke="#039855" stroke-width="2" shape-rendering="crispEdges"/>
<path opacity="0.8" d="M35.0387 43V33.5455H40.9016V34.7734H36.4652V37.6541H40.4815V38.8775H36.4652V43H35.0387ZM42.5451 43V35.9091H43.9254V43H42.5451ZM43.2422 34.815C43.0021 34.815 42.7959 34.735 42.6236 34.5749C42.4543 34.4118 42.3697 34.2179 42.3697 33.9933C42.3697 33.7655 42.4543 33.5716 42.6236 33.4116C42.7959 33.2485 43.0021 33.1669 43.2422 33.1669C43.4822 33.1669 43.6869 33.2485 43.8562 33.4116C44.0285 33.5716 44.1147 33.7655 44.1147 33.9933C44.1147 34.2179 44.0285 34.4118 43.8562 34.5749C43.6869 34.735 43.4822 34.815 43.2422 34.815ZM48.7554 45.8068C48.1922 45.8068 47.7075 45.733 47.3012 45.5852C46.8981 45.4375 46.5687 45.2421 46.3133 44.9989C46.0579 44.7558 45.867 44.4896 45.7409 44.2003L46.9273 43.7109C47.0104 43.8464 47.1212 43.9895 47.2597 44.1403C47.4012 44.2942 47.5921 44.425 47.8321 44.5327C48.0753 44.6404 48.3876 44.6942 48.7693 44.6942C49.2925 44.6942 49.7249 44.5665 50.0665 44.3111C50.4081 44.0587 50.5789 43.6555 50.5789 43.1016V41.7074H50.4912C50.4081 41.8582 50.2881 42.0259 50.1311 42.2106C49.9772 42.3952 49.7649 42.5553 49.4941 42.6907C49.2232 42.8261 48.8708 42.8938 48.4369 42.8938C47.8767 42.8938 47.372 42.763 46.9227 42.5014C46.4764 42.2367 46.1225 41.8474 45.8609 41.3335C45.6024 40.8164 45.4731 40.1809 45.4731 39.4268C45.4731 38.6728 45.6008 38.0265 45.8563 37.4879C46.1148 36.9493 46.4687 36.5369 46.9181 36.2507C47.3674 35.9614 47.8767 35.8168 48.4461 35.8168C48.8862 35.8168 49.2417 35.8906 49.5125 36.0384C49.7834 36.183 49.9942 36.3523 50.145 36.5462C50.2989 36.7401 50.4173 36.9109 50.5004 37.0586H50.602V35.9091H51.9546V43.157C51.9546 43.7663 51.8131 44.2665 51.5299 44.6573C51.2468 45.0482 50.8636 45.3375 50.3804 45.5252C49.9003 45.7129 49.3586 45.8068 48.7554 45.8068ZM48.7416 41.7489C49.1386 41.7489 49.474 41.6566 49.748 41.4719C50.0249 41.2842 50.2342 41.0165 50.3758 40.6687C50.5204 40.3178 50.5928 39.8977 50.5928 39.4084C50.5928 38.9313 50.522 38.5112 50.3804 38.1481C50.2388 37.7849 50.0311 37.5018 49.7572 37.2987C49.4833 37.0924 49.1447 36.9893 48.7416 36.9893C48.3261 36.9893 47.9798 37.0971 47.7029 37.3125C47.4259 37.5249 47.2166 37.8142 47.075 38.1804C46.9365 38.5466 46.8673 38.956 46.8673 39.4084C46.8673 39.8731 46.9381 40.2809 47.0796 40.6317C47.2212 40.9826 47.4305 41.2565 47.7075 41.4535C47.9875 41.6504 48.3322 41.7489 48.7416 41.7489ZM53.8058 43V35.9091H55.1308V37.0632H55.2185C55.3662 36.6723 55.6078 36.3677 55.9433 36.1491C56.2787 35.9276 56.6804 35.8168 57.1482 35.8168C57.6221 35.8168 58.0191 35.9276 58.3392 36.1491C58.6624 36.3707 58.9009 36.6754 59.0548 37.0632H59.1286C59.2979 36.6847 59.5672 36.383 59.9365 36.1584C60.3058 35.9306 60.7459 35.8168 61.2568 35.8168C61.9001 35.8168 62.4248 36.0183 62.8311 36.4215C63.2404 36.8247 63.445 37.4325 63.445 38.245V43H62.0647V38.3743C62.0647 37.8942 61.9339 37.5464 61.6723 37.331C61.4107 37.1155 61.0983 37.0078 60.7352 37.0078C60.2858 37.0078 59.9365 37.1463 59.6872 37.4233C59.4379 37.6972 59.3133 38.0496 59.3133 38.4805V43H57.9376V38.2866C57.9376 37.9019 57.8176 37.5926 57.5775 37.3587C57.3374 37.1248 57.0251 37.0078 56.6404 37.0078C56.3788 37.0078 56.1372 37.0771 55.9156 37.2156C55.6971 37.351 55.5201 37.5402 55.3847 37.7834C55.2523 38.0265 55.1862 38.3081 55.1862 38.6282V43H53.8058ZM67.3587 43.157C66.9093 43.157 66.5031 43.0739 66.1399 42.9077C65.7768 42.7384 65.489 42.4937 65.2766 42.1737C65.0674 41.8536 64.9627 41.4612 64.9627 40.9964C64.9627 40.5964 65.0397 40.267 65.1935 40.0085C65.3474 39.75 65.5552 39.5453 65.8168 39.3945C66.0784 39.2437 66.3707 39.1299 66.6939 39.0529C67.017 38.976 67.3464 38.9175 67.6818 38.8775C68.1065 38.8282 68.4512 38.7882 68.7159 38.7575C68.9806 38.7236 69.1729 38.6697 69.293 38.5959C69.413 38.522 69.473 38.402 69.473 38.2358V38.2035C69.473 37.8003 69.3591 37.4879 69.1314 37.2663C68.9067 37.0447 68.5713 36.9339 68.125 36.9339C67.6603 36.9339 67.294 37.037 67.0263 37.2433C66.7616 37.4464 66.5785 37.6726 66.4769 37.9219L65.1797 37.6264C65.3336 37.1955 65.5582 36.8478 65.8537 36.5831C66.1522 36.3153 66.4954 36.1214 66.8832 36.0014C67.271 35.8783 67.6787 35.8168 68.1065 35.8168C68.3897 35.8168 68.6897 35.8506 69.0067 35.9183C69.3268 35.983 69.6254 36.103 69.9023 36.2784C70.1824 36.4538 70.4117 36.7047 70.5902 37.0309C70.7687 37.354 70.858 37.7741 70.858 38.2912V43H69.5099V42.0305H69.4545C69.3653 42.209 69.2314 42.3845 69.0529 42.5568C68.8744 42.7292 68.6451 42.8723 68.3651 42.9862C68.085 43.1 67.7495 43.157 67.3587 43.157ZM67.6587 42.049C68.0404 42.049 68.3666 41.9736 68.6374 41.8228C68.9113 41.672 69.1191 41.475 69.2607 41.2319C69.4053 40.9857 69.4776 40.7225 69.4776 40.4425V39.5284C69.4284 39.5777 69.333 39.6238 69.1914 39.6669C69.0529 39.7069 68.8944 39.7423 68.7159 39.7731C68.5374 39.8008 68.3635 39.8269 68.1942 39.8516C68.025 39.8731 67.8834 39.8916 67.7695 39.907C67.5018 39.9408 67.2571 39.9978 67.0355 40.0778C66.817 40.1578 66.6416 40.2732 66.5092 40.424C66.38 40.5717 66.3153 40.7687 66.3153 41.0149C66.3153 41.3565 66.4415 41.6151 66.6939 41.7905C66.9463 41.9628 67.2679 42.049 67.6587 42.049ZM81.4043 36.0291C81.3551 35.5921 81.1519 35.2536 80.7949 35.0135C80.4379 34.7704 79.9886 34.6488 79.4469 34.6488C79.0591 34.6488 78.7237 34.7103 78.4405 34.8335C78.1574 34.9535 77.9373 35.1197 77.7804 35.332C77.6265 35.5413 77.5495 35.7798 77.5495 36.0476C77.5495 36.2723 77.6019 36.4661 77.7065 36.6293C77.8142 36.7924 77.9542 36.9293 78.1266 37.0401C78.302 37.1478 78.4898 37.2386 78.6898 37.3125C78.8899 37.3833 79.0822 37.4418 79.2669 37.4879L80.1902 37.728C80.4918 37.8018 80.8011 37.9019 81.1181 38.0281C81.4351 38.1542 81.729 38.3204 81.9998 38.5266C82.2707 38.7328 82.4892 38.9883 82.6554 39.293C82.8246 39.5977 82.9093 39.9624 82.9093 40.3871C82.9093 40.9226 82.7708 41.3981 82.4938 41.8136C82.2199 42.229 81.8213 42.5568 81.2981 42.7969C80.778 43.0369 80.1486 43.157 79.41 43.157C78.7021 43.157 78.0897 43.0446 77.5726 42.82C77.0556 42.5953 76.6509 42.2768 76.3585 41.8643C76.0661 41.4489 75.9045 40.9564 75.8738 40.3871H77.3049C77.3326 40.7287 77.4434 41.0134 77.6373 41.2411C77.8342 41.4658 78.085 41.6335 78.3897 41.7443C78.6975 41.852 79.0345 41.9059 79.4007 41.9059C79.8039 41.9059 80.1625 41.8428 80.4764 41.7166C80.7934 41.5874 81.0427 41.4089 81.2243 41.1811C81.4058 40.9503 81.4966 40.681 81.4966 40.3732C81.4966 40.0932 81.4166 39.8639 81.2566 39.6854C81.0996 39.5069 80.8857 39.3591 80.6149 39.2422C80.3471 39.1252 80.044 39.0221 79.7054 38.9329L78.5882 38.6282C77.8311 38.422 77.231 38.1188 76.7878 37.7188C76.3477 37.3187 76.1277 36.7893 76.1277 36.1307C76.1277 35.5859 76.2754 35.1104 76.5708 34.7042C76.8663 34.2979 77.2664 33.9825 77.7711 33.7578C78.2759 33.5301 78.8452 33.4162 79.4792 33.4162C80.1194 33.4162 80.6841 33.5285 81.1735 33.7532C81.6659 33.9779 82.0537 34.2872 82.3368 34.6811C82.62 35.072 82.7677 35.5213 82.78 36.0291H81.4043ZM87.8131 35.9091V37.017H83.9399V35.9091H87.8131ZM84.9786 34.2102H86.3589V40.918C86.3589 41.1857 86.3989 41.3873 86.479 41.5227C86.559 41.6551 86.6621 41.7459 86.7883 41.7951C86.9175 41.8413 87.0576 41.8643 87.2084 41.8643C87.3192 41.8643 87.4161 41.8567 87.4992 41.8413C87.5823 41.8259 87.6469 41.8136 87.6931 41.8043L87.9424 42.9446C87.8624 42.9754 87.7485 43.0062 87.6008 43.0369C87.453 43.0708 87.2684 43.0893 87.0468 43.0923C86.6836 43.0985 86.3451 43.0339 86.0312 42.8984C85.7172 42.763 85.4633 42.5537 85.2694 42.2706C85.0756 41.9875 84.9786 41.632 84.9786 41.2042V34.2102ZM91.4036 43.157C90.9542 43.157 90.548 43.0739 90.1848 42.9077C89.8217 42.7384 89.5339 42.4937 89.3216 42.1737C89.1123 41.8536 89.0076 41.4612 89.0076 40.9964C89.0076 40.5964 89.0846 40.267 89.2385 40.0085C89.3923 39.75 89.6001 39.5453 89.8617 39.3945C90.1233 39.2437 90.4157 39.1299 90.7388 39.0529C91.062 38.976 91.3913 38.9175 91.7267 38.8775C92.1515 38.8282 92.4962 38.7882 92.7608 38.7575C93.0255 38.7236 93.2179 38.6697 93.3379 38.5959C93.4579 38.522 93.5179 38.402 93.5179 38.2358V38.2035C93.5179 37.8003 93.4041 37.4879 93.1763 37.2663C92.9516 37.0447 92.6162 36.9339 92.1699 36.9339C91.7052 36.9339 91.339 37.037 91.0712 37.2433C90.8065 37.4464 90.6234 37.6726 90.5218 37.9219L89.2246 37.6264C89.3785 37.1955 89.6032 36.8478 89.8986 36.5831C90.1971 36.3153 90.5403 36.1214 90.9281 36.0014C91.3159 35.8783 91.7237 35.8168 92.1515 35.8168C92.4346 35.8168 92.7347 35.8506 93.0517 35.9183C93.3717 35.983 93.6703 36.103 93.9473 36.2784C94.2273 36.4538 94.4566 36.7047 94.6351 37.0309C94.8136 37.354 94.9029 37.7741 94.9029 38.2912V43H93.5549V42.0305H93.4995C93.4102 42.209 93.2763 42.3845 93.0978 42.5568C92.9193 42.7292 92.69 42.8723 92.41 42.9862C92.1299 43.1 91.7944 43.157 91.4036 43.157ZM91.7037 42.049C92.0853 42.049 92.4115 41.9736 92.6824 41.8228C92.9563 41.672 93.164 41.475 93.3056 41.2319C93.4502 40.9857 93.5225 40.7225 93.5225 40.4425V39.5284C93.4733 39.5777 93.3779 39.6238 93.2363 39.6669C93.0978 39.7069 92.9393 39.7423 92.7608 39.7731C92.5823 39.8008 92.4084 39.8269 92.2392 39.8516C92.0699 39.8731 91.9283 39.8916 91.8145 39.907C91.5467 39.9408 91.302 39.9978 91.0804 40.0778C90.8619 40.1578 90.6865 40.2732 90.5542 40.424C90.4249 40.5717 90.3603 40.7687 90.3603 41.0149C90.3603 41.3565 90.4864 41.6151 90.7388 41.7905C90.9912 41.9628 91.3128 42.049 91.7037 42.049ZM98.1217 33.5455V43H96.7414V33.5455H98.1217ZM101.248 40.5948L101.239 38.9098H101.479L104.304 35.9091H105.957L102.735 39.3253H102.518L101.248 40.5948ZM99.9787 43V33.5455H101.359V43H99.9787ZM104.457 43L101.918 39.63L102.869 38.6651L106.151 43H104.457ZM109.979 43.1431C109.281 43.1431 108.679 42.9938 108.174 42.6953C107.672 42.3937 107.285 41.9705 107.011 41.4258C106.74 40.878 106.604 40.2363 106.604 39.5007C106.604 38.7744 106.74 38.1342 107.011 37.5803C107.285 37.0263 107.666 36.5939 108.156 36.283C108.648 35.9722 109.224 35.8168 109.882 35.8168C110.282 35.8168 110.67 35.8829 111.046 36.0153C111.421 36.1476 111.758 36.3554 112.057 36.6385C112.355 36.9216 112.591 37.2894 112.763 37.7418C112.935 38.1912 113.021 38.7375 113.021 39.3807V39.87H107.385V38.8359H111.669C111.669 38.4728 111.595 38.1512 111.447 37.8711C111.299 37.5879 111.092 37.3648 110.824 37.2017C110.559 37.0386 110.248 36.957 109.891 36.957C109.504 36.957 109.165 37.0524 108.876 37.2433C108.59 37.431 108.368 37.6772 108.211 37.9819C108.057 38.2835 107.98 38.6113 107.98 38.9652V39.7731C107.98 40.247 108.063 40.6502 108.229 40.9826C108.399 41.315 108.634 41.5689 108.936 41.7443C109.237 41.9167 109.59 42.0028 109.993 42.0028C110.255 42.0028 110.493 41.9659 110.709 41.892C110.924 41.8151 111.11 41.7012 111.267 41.5504C111.424 41.3996 111.544 41.2134 111.627 40.9918L112.934 41.2273C112.829 41.612 112.641 41.949 112.37 42.2383C112.103 42.5245 111.766 42.7476 111.359 42.9077C110.956 43.0646 110.496 43.1431 109.979 43.1431ZM114.553 43V35.9091H115.887V37.0355H115.961C116.09 36.6539 116.318 36.3538 116.644 36.1353C116.973 35.9137 117.346 35.8029 117.761 35.8029C117.848 35.8029 117.949 35.806 118.066 35.8121C118.186 35.8183 118.28 35.826 118.348 35.8352V37.1555C118.292 37.1402 118.194 37.1232 118.052 37.1048C117.911 37.0832 117.769 37.0724 117.627 37.0724C117.301 37.0724 117.01 37.1417 116.755 37.2802C116.503 37.4156 116.303 37.6049 116.155 37.848C116.007 38.0881 115.933 38.362 115.933 38.6697V43H114.553Z" fill="white" fill-opacity="0.7"/>
<path d="M36.8409 60.8182V66H35.142V54.3636H36.8182V58.6932H36.9261C37.1307 58.2235 37.4432 57.8504 37.8636 57.5739C38.2841 57.2973 38.8333 57.1591 39.5114 57.1591C40.1098 57.1591 40.6326 57.2822 41.0795 57.5284C41.5303 57.7746 41.8788 58.142 42.125 58.6307C42.375 59.1155 42.5 59.7216 42.5 60.4489V66H40.8011V60.6534C40.8011 60.0133 40.6364 59.517 40.3068 59.1648C39.9773 58.8087 39.5189 58.6307 38.9318 58.6307C38.5303 58.6307 38.1705 58.7159 37.8523 58.8864C37.5379 59.0568 37.2898 59.3068 37.108 59.6364C36.9299 59.9621 36.8409 60.3561 36.8409 60.8182ZM48.5284 66.1761C47.6686 66.1761 46.928 65.9924 46.3068 65.625C45.6894 65.2538 45.2121 64.733 44.875 64.0625C44.5417 63.3883 44.375 62.5985 44.375 61.6932C44.375 60.7992 44.5417 60.0114 44.875 59.3295C45.2121 58.6477 45.6818 58.1155 46.2841 57.733C46.8902 57.3504 47.5985 57.1591 48.4091 57.1591C48.9015 57.1591 49.3788 57.2405 49.8409 57.4034C50.303 57.5663 50.7178 57.822 51.0852 58.1705C51.4527 58.5189 51.7424 58.9716 51.9545 59.5284C52.1667 60.0814 52.2727 60.7538 52.2727 61.5455V62.1477H45.3352V60.875H50.608C50.608 60.428 50.517 60.0322 50.3352 59.6875C50.1534 59.339 49.8977 59.0644 49.5682 58.8636C49.2424 58.6629 48.8598 58.5625 48.4205 58.5625C47.9432 58.5625 47.5265 58.6799 47.1705 58.9148C46.8182 59.1458 46.5455 59.4489 46.3523 59.8239C46.1629 60.1951 46.0682 60.5985 46.0682 61.0341V62.0284C46.0682 62.6117 46.1705 63.108 46.375 63.517C46.5833 63.9261 46.8731 64.2386 47.2443 64.4545C47.6155 64.6667 48.0492 64.7727 48.5455 64.7727C48.8674 64.7727 49.161 64.7273 49.4261 64.6364C49.6913 64.5417 49.9205 64.4015 50.1136 64.2159C50.3068 64.0303 50.4545 63.8011 50.5568 63.5284L52.1648 63.8182C52.036 64.2917 51.8049 64.7064 51.4716 65.0625C51.142 65.4148 50.7273 65.6894 50.2273 65.8864C49.7311 66.0795 49.1648 66.1761 48.5284 66.1761ZM55.8565 54.3636V66H54.1577V54.3636H55.8565ZM59.8409 54.3636V66H58.142V54.3636H59.8409ZM65.8026 66.1761C64.9844 66.1761 64.2704 65.9886 63.6605 65.6136C63.0507 65.2386 62.5772 64.714 62.2401 64.0398C61.9029 63.3655 61.7344 62.5777 61.7344 61.6761C61.7344 60.7708 61.9029 59.9792 62.2401 59.3011C62.5772 58.6231 63.0507 58.0966 63.6605 57.7216C64.2704 57.3466 64.9844 57.1591 65.8026 57.1591C66.6207 57.1591 67.3348 57.3466 67.9446 57.7216C68.5545 58.0966 69.0279 58.6231 69.3651 59.3011C69.7022 59.9792 69.8707 60.7708 69.8707 61.6761C69.8707 62.5777 69.7022 63.3655 69.3651 64.0398C69.0279 64.714 68.5545 65.2386 67.9446 65.6136C67.3348 65.9886 66.6207 66.1761 65.8026 66.1761ZM65.8082 64.75C66.3385 64.75 66.7779 64.6098 67.1264 64.3295C67.4749 64.0492 67.7325 63.6761 67.8991 63.2102C68.0696 62.7443 68.1548 62.2311 68.1548 61.6705C68.1548 61.1136 68.0696 60.6023 67.8991 60.1364C67.7325 59.6667 67.4749 59.2898 67.1264 59.0057C66.7779 58.7216 66.3385 58.5795 65.8082 58.5795C65.2741 58.5795 64.831 58.7216 64.4787 59.0057C64.1302 59.2898 63.8707 59.6667 63.7003 60.1364C63.5336 60.6023 63.4503 61.1136 63.4503 61.6705C63.4503 62.2311 63.5336 62.7443 63.7003 63.2102C63.8707 63.6761 64.1302 64.0492 64.4787 64.3295C64.831 64.6098 65.2741 64.75 65.8082 64.75ZM77.7003 60.8182V66H76.0014V54.3636H77.6776V58.6932H77.7855C77.9901 58.2235 78.3026 57.8504 78.723 57.5739C79.1435 57.2973 79.6927 57.1591 80.3707 57.1591C80.9692 57.1591 81.492 57.2822 81.9389 57.5284C82.3897 57.7746 82.7382 58.142 82.9844 58.6307C83.2344 59.1155 83.3594 59.7216 83.3594 60.4489V66H81.6605V60.6534C81.6605 60.0133 81.4957 59.517 81.1662 59.1648C80.8366 58.8087 80.3783 58.6307 79.7912 58.6307C79.3897 58.6307 79.0298 58.7159 78.7116 58.8864C78.3973 59.0568 78.1491 59.3068 77.9673 59.6364C77.7893 59.9621 77.7003 60.3561 77.7003 60.8182ZM89.3878 66.1761C88.5279 66.1761 87.7874 65.9924 87.1662 65.625C86.5488 65.2538 86.0715 64.733 85.7344 64.0625C85.401 63.3883 85.2344 62.5985 85.2344 61.6932C85.2344 60.7992 85.401 60.0114 85.7344 59.3295C86.0715 58.6477 86.5412 58.1155 87.1435 57.733C87.7495 57.3504 88.4579 57.1591 89.2685 57.1591C89.7609 57.1591 90.2382 57.2405 90.7003 57.4034C91.1624 57.5663 91.5772 57.822 91.9446 58.1705C92.312 58.5189 92.6018 58.9716 92.8139 59.5284C93.026 60.0814 93.1321 60.7538 93.1321 61.5455V62.1477H86.1946V60.875H91.4673C91.4673 60.428 91.3764 60.0322 91.1946 59.6875C91.0128 59.339 90.7571 59.0644 90.4276 58.8636C90.1018 58.6629 89.7192 58.5625 89.2798 58.5625C88.8026 58.5625 88.3859 58.6799 88.0298 58.9148C87.6776 59.1458 87.4048 59.4489 87.2116 59.8239C87.0223 60.1951 86.9276 60.5985 86.9276 61.0341V62.0284C86.9276 62.6117 87.0298 63.108 87.2344 63.517C87.4427 63.9261 87.7325 64.2386 88.1037 64.4545C88.4749 64.6667 88.9086 64.7727 89.4048 64.7727C89.7268 64.7727 90.0204 64.7273 90.2855 64.6364C90.5507 64.5417 90.7798 64.4015 90.973 64.2159C91.1662 64.0303 91.3139 63.8011 91.4162 63.5284L93.0241 63.8182C92.8954 64.2917 92.6643 64.7064 92.331 65.0625C92.0014 65.4148 91.5866 65.6894 91.0866 65.8864C90.5904 66.0795 90.0241 66.1761 89.3878 66.1761ZM95.1534 66V54.3636H96.9091V64.4886H102.182V66H95.1534ZM104.185 66V54.3636H105.94V64.4886H111.213V66H104.185ZM122.871 60.1818C122.871 61.4242 122.643 62.4924 122.189 63.3864C121.734 64.2765 121.111 64.9621 120.32 65.4432C119.532 65.9205 118.636 66.1591 117.632 66.1591C116.625 66.1591 115.725 65.9205 114.933 65.4432C114.145 64.9621 113.524 64.2746 113.07 63.3807C112.615 62.4867 112.388 61.4205 112.388 60.1818C112.388 58.9394 112.615 57.8731 113.07 56.983C113.524 56.089 114.145 55.4034 114.933 54.9261C115.725 54.4451 116.625 54.2045 117.632 54.2045C118.636 54.2045 119.532 54.4451 120.32 54.9261C121.111 55.4034 121.734 56.089 122.189 56.983C122.643 57.8731 122.871 58.9394 122.871 60.1818ZM121.132 60.1818C121.132 59.2348 120.979 58.4375 120.672 57.7898C120.369 57.1383 119.952 56.6458 119.422 56.3125C118.895 55.9754 118.299 55.8068 117.632 55.8068C116.962 55.8068 116.363 55.9754 115.837 56.3125C115.31 56.6458 114.893 57.1383 114.587 57.7898C114.284 58.4375 114.132 59.2348 114.132 60.1818C114.132 61.1288 114.284 61.928 114.587 62.5795C114.893 63.2273 115.31 63.7197 115.837 64.0568C116.363 64.3902 116.962 64.5568 117.632 64.5568C118.299 64.5568 118.895 64.3902 119.422 64.0568C119.952 63.7197 120.369 63.2273 120.672 62.5795C120.979 61.928 121.132 61.1288 121.132 60.1818ZM135.168 60.1818C135.168 61.4242 134.94 62.4924 134.486 63.3864C134.031 64.2765 133.408 64.9621 132.616 65.4432C131.829 65.9205 130.933 66.1591 129.929 66.1591C128.921 66.1591 128.022 65.9205 127.23 65.4432C126.442 64.9621 125.821 64.2746 125.366 63.3807C124.912 62.4867 124.685 61.4205 124.685 60.1818C124.685 58.9394 124.912 57.8731 125.366 56.983C125.821 56.089 126.442 55.4034 127.23 54.9261C128.022 54.4451 128.921 54.2045 129.929 54.2045C130.933 54.2045 131.829 54.4451 132.616 54.9261C133.408 55.4034 134.031 56.089 134.486 56.983C134.94 57.8731 135.168 58.9394 135.168 60.1818ZM133.429 60.1818C133.429 59.2348 133.276 58.4375 132.969 57.7898C132.666 57.1383 132.249 56.6458 131.719 56.3125C131.192 55.9754 130.596 55.8068 129.929 55.8068C129.259 55.8068 128.66 55.9754 128.134 56.3125C127.607 56.6458 127.19 57.1383 126.884 57.7898C126.58 58.4375 126.429 59.2348 126.429 60.1818C126.429 61.1288 126.58 61.928 126.884 62.5795C127.19 63.2273 127.607 63.7197 128.134 64.0568C128.66 64.3902 129.259 64.5568 129.929 64.5568C130.596 64.5568 131.192 64.3902 131.719 64.0568C132.249 63.7197 132.666 63.2273 132.969 62.5795C133.276 61.928 133.429 61.1288 133.429 60.1818ZM147.464 60.1818C147.464 61.4242 147.237 62.4924 146.783 63.3864C146.328 64.2765 145.705 64.9621 144.913 65.4432C144.125 65.9205 143.23 66.1591 142.226 66.1591C141.218 66.1591 140.319 65.9205 139.527 65.4432C138.739 64.9621 138.118 64.2746 137.663 63.3807C137.209 62.4867 136.982 61.4205 136.982 60.1818C136.982 58.9394 137.209 57.8731 137.663 56.983C138.118 56.089 138.739 55.4034 139.527 54.9261C140.319 54.4451 141.218 54.2045 142.226 54.2045C143.23 54.2045 144.125 54.4451 144.913 54.9261C145.705 55.4034 146.328 56.089 146.783 56.983C147.237 57.8731 147.464 58.9394 147.464 60.1818ZM145.726 60.1818C145.726 59.2348 145.572 58.4375 145.266 57.7898C144.963 57.1383 144.546 56.6458 144.016 56.3125C143.489 55.9754 142.893 55.8068 142.226 55.8068C141.555 55.8068 140.957 55.9754 140.43 56.3125C139.904 56.6458 139.487 57.1383 139.18 57.7898C138.877 58.4375 138.726 59.2348 138.726 60.1818C138.726 61.1288 138.877 61.928 139.18 62.5795C139.487 63.2273 139.904 63.7197 140.43 64.0568C140.957 64.3902 141.555 64.5568 142.226 64.5568C142.893 64.5568 143.489 64.3902 144.016 64.0568C144.546 63.7197 144.963 63.2273 145.266 62.5795C145.572 61.928 145.726 61.1288 145.726 60.1818ZM159.761 60.1818C159.761 61.4242 159.534 62.4924 159.08 63.3864C158.625 64.2765 158.002 64.9621 157.21 65.4432C156.422 65.9205 155.527 66.1591 154.523 66.1591C153.515 66.1591 152.616 65.9205 151.824 65.4432C151.036 64.9621 150.415 64.2746 149.96 63.3807C149.506 62.4867 149.278 61.4205 149.278 60.1818C149.278 58.9394 149.506 57.8731 149.96 56.983C150.415 56.089 151.036 55.4034 151.824 54.9261C152.616 54.4451 153.515 54.2045 154.523 54.2045C155.527 54.2045 156.422 54.4451 157.21 54.9261C158.002 55.4034 158.625 56.089 159.08 56.983C159.534 57.8731 159.761 58.9394 159.761 60.1818ZM158.023 60.1818C158.023 59.2348 157.869 58.4375 157.562 57.7898C157.259 57.1383 156.843 56.6458 156.312 56.3125C155.786 55.9754 155.189 55.8068 154.523 55.8068C153.852 55.8068 153.254 55.9754 152.727 56.3125C152.201 56.6458 151.784 57.1383 151.477 57.7898C151.174 58.4375 151.023 59.2348 151.023 60.1818C151.023 61.1288 151.174 61.928 151.477 62.5795C151.784 63.2273 152.201 63.7197 152.727 64.0568C153.254 64.3902 153.852 64.5568 154.523 64.5568C155.189 64.5568 155.786 64.3902 156.312 64.0568C156.843 63.7197 157.259 63.2273 157.562 62.5795C157.869 61.928 158.023 61.1288 158.023 60.1818Z" fill="white"/>
</g>
<defs>
<filter id="filter0_d_2194_1453" x="2.96826" y="2.1582" width="20.4644" height="22.4766" filterUnits="userSpaceOnUse" color-interpolation-filters="sRGB">
<feFlood flood-opacity="0" result="BackgroundImageFix"/>
<feColorMatrix in="SourceAlpha" type="matrix" values="0 0 0 0 0 0 0 0 0 0 0 0 0 0 0 0 0 0 127 0" result="hardAlpha"/>
<feOffset dy="1"/>
<feGaussianBlur stdDeviation="1"/>
<feComposite in2="hardAlpha" operator="out"/>
<feColorMatrix type="matrix" values="0 0 0 0 0 0 0 0 0 0 0 0 0 0 0 0 0 0 0.25 0"/>
<feBlend mode="normal" in2="BackgroundImageFix" result="effect1_dropShadow_2194_1453"/>
<feBlend mode="normal" in="SourceGraphic" in2="effect1_dropShadow_2194_1453" result="shape"/>
</filter>
<filter id="filter1_d_2194_1453" x="12" y="14" width="183" height="80" filterUnits="userSpaceOnUse" color-interpolation-filters="sRGB">
<feFlood flood-opacity="0" result="BackgroundImageFix"/>
<feColorMatrix in="SourceAlpha" type="matrix" values="0 0 0 0 0 0 0 0 0 0 0 0 0 0 0 0 0 0 127 0" result="hardAlpha"/>
<feOffset dx="4" dy="4"/>
<feGaussianBlur stdDeviation="5"/>
<feComposite in2="hardAlpha" operator="out"/>
<feColorMatrix type="matrix" values="0 0 0 0 0.968627 0 0 0 0 0.819608 0 0 0 0 0.345098 0 0 0 0.16 0"/>
<feBlend mode="normal" in2="BackgroundImageFix" result="effect1_dropShadow_2194_1453"/>
<feBlend mode="normal" in="SourceGraphic" in2="effect1_dropShadow_2194_1453" result="shape"/>
</filter>
</defs>
</svg>
