<svg width="210" height="94" viewBox="0 0 210 94" fill="none" xmlns="http://www.w3.org/2000/svg">
<g filter="url(#filter0_d_2191_1414)">
<path d="M8.81678 20.3643L5.66312 4.11451L20.143 12.1353L13.0104 14.2272L8.81678 20.3643Z" fill="#F7D158"/>
<path d="M8.81678 20.3643L5.66312 4.11451L20.143 12.1353L13.0104 14.2272L8.81678 20.3643Z" stroke="white"/>
</g>
<g filter="url(#filter1_d_2191_1414)">
<path d="M18 22C18 20.8954 18.8954 20 20 20H172C185.255 20 196 30.7452 196 44V56C196 69.2548 185.255 80 172 80H42C28.7452 80 18 69.2548 18 56V22Z" fill="#F7D158" shape-rendering="crispEdges"/>
<path d="M20 21H172C184.703 21 195 31.2975 195 44V56C195 68.7025 184.703 79 172 79H42C29.2975 79 19 68.7025 19 56V22C19 21.4477 19.4477 21 20 21Z" stroke="#F7D158" stroke-width="2" shape-rendering="crispEdges"/>
<path opacity="0.8" d="M35.0387 43V33.5455H40.9016V34.7734H36.4652V37.6541H40.4815V38.8775H36.4652V43H35.0387ZM42.5451 43V35.9091H43.9254V43H42.5451ZM43.2422 34.815C43.0021 34.815 42.7959 34.735 42.6236 34.5749C42.4543 34.4118 42.3697 34.2179 42.3697 33.9933C42.3697 33.7655 42.4543 33.5716 42.6236 33.4116C42.7959 33.2485 43.0021 33.1669 43.2422 33.1669C43.4822 33.1669 43.6869 33.2485 43.8562 33.4116C44.0285 33.5716 44.1147 33.7655 44.1147 33.9933C44.1147 34.2179 44.0285 34.4118 43.8562 34.5749C43.6869 34.735 43.4822 34.815 43.2422 34.815ZM48.7554 45.8068C48.1922 45.8068 47.7075 45.733 47.3012 45.5852C46.8981 45.4375 46.5687 45.2421 46.3133 44.9989C46.0579 44.7558 45.867 44.4896 45.7409 44.2003L46.9273 43.7109C47.0104 43.8464 47.1212 43.9895 47.2597 44.1403C47.4012 44.2942 47.5921 44.425 47.8321 44.5327C48.0753 44.6404 48.3876 44.6942 48.7693 44.6942C49.2925 44.6942 49.7249 44.5665 50.0665 44.3111C50.4081 44.0587 50.5789 43.6555 50.5789 43.1016V41.7074H50.4912C50.4081 41.8582 50.2881 42.0259 50.1311 42.2106C49.9772 42.3952 49.7649 42.5553 49.4941 42.6907C49.2232 42.8261 48.8708 42.8938 48.4369 42.8938C47.8767 42.8938 47.372 42.763 46.9227 42.5014C46.4764 42.2367 46.1225 41.8474 45.8609 41.3335C45.6024 40.8164 45.4731 40.1809 45.4731 39.4268C45.4731 38.6728 45.6008 38.0265 45.8563 37.4879C46.1148 36.9493 46.4687 36.5369 46.9181 36.2507C47.3674 35.9614 47.8767 35.8168 48.4461 35.8168C48.8862 35.8168 49.2417 35.8906 49.5125 36.0384C49.7834 36.183 49.9942 36.3523 50.145 36.5462C50.2989 36.7401 50.4173 36.9109 50.5004 37.0586H50.602V35.9091H51.9546V43.157C51.9546 43.7663 51.8131 44.2665 51.5299 44.6573C51.2468 45.0482 50.8636 45.3375 50.3804 45.5252C49.9003 45.7129 49.3586 45.8068 48.7554 45.8068ZM48.7416 41.7489C49.1386 41.7489 49.474 41.6566 49.748 41.4719C50.0249 41.2842 50.2342 41.0165 50.3758 40.6687C50.5204 40.3178 50.5928 39.8977 50.5928 39.4084C50.5928 38.9313 50.522 38.5112 50.3804 38.1481C50.2388 37.7849 50.0311 37.5018 49.7572 37.2987C49.4833 37.0924 49.1447 36.9893 48.7416 36.9893C48.3261 36.9893 47.9798 37.0971 47.7029 37.3125C47.4259 37.5249 47.2166 37.8142 47.075 38.1804C46.9365 38.5466 46.8673 38.956 46.8673 39.4084C46.8673 39.8731 46.9381 40.2809 47.0796 40.6317C47.2212 40.9826 47.4305 41.2565 47.7075 41.4535C47.9875 41.6504 48.3322 41.7489 48.7416 41.7489ZM53.8058 43V35.9091H55.1308V37.0632H55.2185C55.3662 36.6723 55.6078 36.3677 55.9433 36.1491C56.2787 35.9276 56.6804 35.8168 57.1482 35.8168C57.6221 35.8168 58.0191 35.9276 58.3392 36.1491C58.6624 36.3707 58.9009 36.6754 59.0548 37.0632H59.1286C59.2979 36.6847 59.5672 36.383 59.9365 36.1584C60.3058 35.9306 60.7459 35.8168 61.2568 35.8168C61.9001 35.8168 62.4248 36.0183 62.8311 36.4215C63.2404 36.8247 63.445 37.4325 63.445 38.245V43H62.0647V38.3743C62.0647 37.8942 61.9339 37.5464 61.6723 37.331C61.4107 37.1155 61.0983 37.0078 60.7352 37.0078C60.2858 37.0078 59.9365 37.1463 59.6872 37.4233C59.4379 37.6972 59.3133 38.0496 59.3133 38.4805V43H57.9376V38.2866C57.9376 37.9019 57.8176 37.5926 57.5775 37.3587C57.3374 37.1248 57.0251 37.0078 56.6404 37.0078C56.3788 37.0078 56.1372 37.0771 55.9156 37.2156C55.6971 37.351 55.5201 37.5402 55.3847 37.7834C55.2523 38.0265 55.1862 38.3081 55.1862 38.6282V43H53.8058ZM67.3587 43.157C66.9093 43.157 66.5031 43.0739 66.1399 42.9077C65.7768 42.7384 65.489 42.4937 65.2766 42.1737C65.0674 41.8536 64.9627 41.4612 64.9627 40.9964C64.9627 40.5964 65.0397 40.267 65.1935 40.0085C65.3474 39.75 65.5552 39.5453 65.8168 39.3945C66.0784 39.2437 66.3707 39.1299 66.6939 39.0529C67.017 38.976 67.3464 38.9175 67.6818 38.8775C68.1065 38.8282 68.4512 38.7882 68.7159 38.7575C68.9806 38.7236 69.1729 38.6697 69.293 38.5959C69.413 38.522 69.473 38.402 69.473 38.2358V38.2035C69.473 37.8003 69.3591 37.4879 69.1314 37.2663C68.9067 37.0447 68.5713 36.9339 68.125 36.9339C67.6603 36.9339 67.294 37.037 67.0263 37.2433C66.7616 37.4464 66.5785 37.6726 66.4769 37.9219L65.1797 37.6264C65.3336 37.1955 65.5582 36.8478 65.8537 36.5831C66.1522 36.3153 66.4954 36.1214 66.8832 36.0014C67.271 35.8783 67.6787 35.8168 68.1065 35.8168C68.3897 35.8168 68.6897 35.8506 69.0067 35.9183C69.3268 35.983 69.6254 36.103 69.9023 36.2784C70.1824 36.4538 70.4117 36.7047 70.5902 37.0309C70.7687 37.354 70.858 37.7741 70.858 38.2912V43H69.5099V42.0305H69.4545C69.3653 42.209 69.2314 42.3845 69.0529 42.5568C68.8744 42.7292 68.6451 42.8723 68.3651 42.9862C68.085 43.1 67.7495 43.157 67.3587 43.157ZM67.6587 42.049C68.0404 42.049 68.3666 41.9736 68.6374 41.8228C68.9113 41.672 69.1191 41.475 69.2607 41.2319C69.4053 40.9857 69.4776 40.7225 69.4776 40.4425V39.5284C69.4284 39.5777 69.333 39.6238 69.1914 39.6669C69.0529 39.7069 68.8944 39.7423 68.7159 39.7731C68.5374 39.8008 68.3635 39.8269 68.1942 39.8516C68.025 39.8731 67.8834 39.8916 67.7695 39.907C67.5018 39.9408 67.2571 39.9978 67.0355 40.0778C66.817 40.1578 66.6416 40.2732 66.5092 40.424C66.38 40.5717 66.3153 40.7687 66.3153 41.0149C66.3153 41.3565 66.4415 41.6151 66.6939 41.7905C66.9463 41.9628 67.2679 42.049 67.6587 42.049ZM81.4043 36.0291C81.3551 35.5921 81.1519 35.2536 80.7949 35.0135C80.4379 34.7704 79.9886 34.6488 79.4469 34.6488C79.0591 34.6488 78.7237 34.7103 78.4405 34.8335C78.1574 34.9535 77.9373 35.1197 77.7804 35.332C77.6265 35.5413 77.5495 35.7798 77.5495 36.0476C77.5495 36.2723 77.6019 36.4661 77.7065 36.6293C77.8142 36.7924 77.9542 36.9293 78.1266 37.0401C78.302 37.1478 78.4898 37.2386 78.6898 37.3125C78.8899 37.3833 79.0822 37.4418 79.2669 37.4879L80.1902 37.728C80.4918 37.8018 80.8011 37.9019 81.1181 38.0281C81.4351 38.1542 81.729 38.3204 81.9998 38.5266C82.2707 38.7328 82.4892 38.9883 82.6554 39.293C82.8246 39.5977 82.9093 39.9624 82.9093 40.3871C82.9093 40.9226 82.7708 41.3981 82.4938 41.8136C82.2199 42.229 81.8213 42.5568 81.2981 42.7969C80.778 43.0369 80.1486 43.157 79.41 43.157C78.7021 43.157 78.0897 43.0446 77.5726 42.82C77.0556 42.5953 76.6509 42.2768 76.3585 41.8643C76.0661 41.4489 75.9045 40.9564 75.8738 40.3871H77.3049C77.3326 40.7287 77.4434 41.0134 77.6373 41.2411C77.8342 41.4658 78.085 41.6335 78.3897 41.7443C78.6975 41.852 79.0345 41.9059 79.4007 41.9059C79.8039 41.9059 80.1625 41.8428 80.4764 41.7166C80.7934 41.5874 81.0427 41.4089 81.2243 41.1811C81.4058 40.9503 81.4966 40.681 81.4966 40.3732C81.4966 40.0932 81.4166 39.8639 81.2566 39.6854C81.0996 39.5069 80.8857 39.3591 80.6149 39.2422C80.3471 39.1252 80.044 39.0221 79.7054 38.9329L78.5882 38.6282C77.8311 38.422 77.231 38.1188 76.7878 37.7188C76.3477 37.3187 76.1277 36.7893 76.1277 36.1307C76.1277 35.5859 76.2754 35.1104 76.5708 34.7042C76.8663 34.2979 77.2664 33.9825 77.7711 33.7578C78.2759 33.5301 78.8452 33.4162 79.4792 33.4162C80.1194 33.4162 80.6841 33.5285 81.1735 33.7532C81.6659 33.9779 82.0537 34.2872 82.3368 34.6811C82.62 35.072 82.7677 35.5213 82.78 36.0291H81.4043ZM87.8131 35.9091V37.017H83.9399V35.9091H87.8131ZM84.9786 34.2102H86.3589V40.918C86.3589 41.1857 86.3989 41.3873 86.479 41.5227C86.559 41.6551 86.6621 41.7459 86.7883 41.7951C86.9175 41.8413 87.0576 41.8643 87.2084 41.8643C87.3192 41.8643 87.4161 41.8567 87.4992 41.8413C87.5823 41.8259 87.6469 41.8136 87.6931 41.8043L87.9424 42.9446C87.8624 42.9754 87.7485 43.0062 87.6008 43.0369C87.453 43.0708 87.2684 43.0893 87.0468 43.0923C86.6836 43.0985 86.3451 43.0339 86.0312 42.8984C85.7172 42.763 85.4633 42.5537 85.2694 42.2706C85.0756 41.9875 84.9786 41.632 84.9786 41.2042V34.2102ZM91.4036 43.157C90.9542 43.157 90.548 43.0739 90.1848 42.9077C89.8217 42.7384 89.5339 42.4937 89.3216 42.1737C89.1123 41.8536 89.0076 41.4612 89.0076 40.9964C89.0076 40.5964 89.0846 40.267 89.2385 40.0085C89.3923 39.75 89.6001 39.5453 89.8617 39.3945C90.1233 39.2437 90.4157 39.1299 90.7388 39.0529C91.062 38.976 91.3913 38.9175 91.7267 38.8775C92.1515 38.8282 92.4962 38.7882 92.7608 38.7575C93.0255 38.7236 93.2179 38.6697 93.3379 38.5959C93.4579 38.522 93.5179 38.402 93.5179 38.2358V38.2035C93.5179 37.8003 93.4041 37.4879 93.1763 37.2663C92.9516 37.0447 92.6162 36.9339 92.1699 36.9339C91.7052 36.9339 91.339 37.037 91.0712 37.2433C90.8065 37.4464 90.6234 37.6726 90.5218 37.9219L89.2246 37.6264C89.3785 37.1955 89.6032 36.8478 89.8986 36.5831C90.1971 36.3153 90.5403 36.1214 90.9281 36.0014C91.3159 35.8783 91.7237 35.8168 92.1515 35.8168C92.4346 35.8168 92.7347 35.8506 93.0517 35.9183C93.3717 35.983 93.6703 36.103 93.9473 36.2784C94.2273 36.4538 94.4566 36.7047 94.6351 37.0309C94.8136 37.354 94.9029 37.7741 94.9029 38.2912V43H93.5549V42.0305H93.4995C93.4102 42.209 93.2763 42.3845 93.0978 42.5568C92.9193 42.7292 92.69 42.8723 92.41 42.9862C92.1299 43.1 91.7944 43.157 91.4036 43.157ZM91.7037 42.049C92.0853 42.049 92.4115 41.9736 92.6824 41.8228C92.9563 41.672 93.164 41.475 93.3056 41.2319C93.4502 40.9857 93.5225 40.7225 93.5225 40.4425V39.5284C93.4733 39.5777 93.3779 39.6238 93.2363 39.6669C93.0978 39.7069 92.9393 39.7423 92.7608 39.7731C92.5823 39.8008 92.4084 39.8269 92.2392 39.8516C92.0699 39.8731 91.9283 39.8916 91.8145 39.907C91.5467 39.9408 91.302 39.9978 91.0804 40.0778C90.8619 40.1578 90.6865 40.2732 90.5542 40.424C90.4249 40.5717 90.3603 40.7687 90.3603 41.0149C90.3603 41.3565 90.4864 41.6151 90.7388 41.7905C90.9912 41.9628 91.3128 42.049 91.7037 42.049ZM98.1217 33.5455V43H96.7414V33.5455H98.1217ZM101.248 40.5948L101.239 38.9098H101.479L104.304 35.9091H105.957L102.735 39.3253H102.518L101.248 40.5948ZM99.9787 43V33.5455H101.359V43H99.9787ZM104.457 43L101.918 39.63L102.869 38.6651L106.151 43H104.457ZM109.979 43.1431C109.281 43.1431 108.679 42.9938 108.174 42.6953C107.672 42.3937 107.285 41.9705 107.011 41.4258C106.74 40.878 106.604 40.2363 106.604 39.5007C106.604 38.7744 106.74 38.1342 107.011 37.5803C107.285 37.0263 107.666 36.5939 108.156 36.283C108.648 35.9722 109.224 35.8168 109.882 35.8168C110.282 35.8168 110.67 35.8829 111.046 36.0153C111.421 36.1476 111.758 36.3554 112.057 36.6385C112.355 36.9216 112.591 37.2894 112.763 37.7418C112.935 38.1912 113.021 38.7375 113.021 39.3807V39.87H107.385V38.8359H111.669C111.669 38.4728 111.595 38.1512 111.447 37.8711C111.299 37.5879 111.092 37.3648 110.824 37.2017C110.559 37.0386 110.248 36.957 109.891 36.957C109.504 36.957 109.165 37.0524 108.876 37.2433C108.59 37.431 108.368 37.6772 108.211 37.9819C108.057 38.2835 107.98 38.6113 107.98 38.9652V39.7731C107.98 40.247 108.063 40.6502 108.229 40.9826C108.399 41.315 108.634 41.5689 108.936 41.7443C109.237 41.9167 109.59 42.0028 109.993 42.0028C110.255 42.0028 110.493 41.9659 110.709 41.892C110.924 41.8151 111.11 41.7012 111.267 41.5504C111.424 41.3996 111.544 41.2134 111.627 40.9918L112.934 41.2273C112.829 41.612 112.641 41.949 112.37 42.2383C112.103 42.5245 111.766 42.7476 111.359 42.9077C110.956 43.0646 110.496 43.1431 109.979 43.1431ZM114.553 43V35.9091H115.887V37.0355H115.961C116.09 36.6539 116.318 36.3538 116.644 36.1353C116.973 35.9137 117.346 35.8029 117.761 35.8029C117.848 35.8029 117.949 35.806 118.066 35.8121C118.186 35.8183 118.28 35.826 118.348 35.8352V37.1555C118.292 37.1402 118.194 37.1232 118.052 37.1048C117.911 37.0832 117.769 37.0724 117.627 37.0724C117.301 37.0724 117.01 37.1417 116.755 37.2802C116.503 37.4156 116.303 37.6049 116.155 37.848C116.007 38.0881 115.933 38.362 115.933 38.6697V43H114.553Z" fill="black" fill-opacity="0.7"/>
<path opacity="0.8" d="M37.0341 66L34.4659 57.2727H36.2216L37.9318 63.6818H38.017L39.733 57.2727H41.4886L43.1932 63.6534H43.2784L44.9773 57.2727H46.733L44.1705 66H42.4375L40.6648 59.6989H40.5341L38.7614 66H37.0341ZM50.044 60.8182V66H48.3452V54.3636H50.0213V58.6932H50.1293C50.3338 58.2235 50.6463 57.8504 51.0668 57.5739C51.4872 57.2973 52.0365 57.1591 52.7145 57.1591C53.313 57.1591 53.8357 57.2822 54.2827 57.5284C54.7334 57.7746 55.0819 58.142 55.3281 58.6307C55.5781 59.1155 55.7031 59.7216 55.7031 60.4489V66H54.0043V60.6534C54.0043 60.0133 53.8395 59.517 53.5099 59.1648C53.1804 58.8087 52.7221 58.6307 52.1349 58.6307C51.7334 58.6307 51.3736 58.7159 51.0554 58.8864C50.741 59.0568 50.4929 59.3068 50.3111 59.6364C50.133 59.9621 50.044 60.3561 50.044 60.8182ZM60.5099 66.1932C59.9569 66.1932 59.4569 66.0909 59.0099 65.8864C58.563 65.678 58.2088 65.3769 57.9474 64.983C57.6899 64.589 57.5611 64.1061 57.5611 63.5341C57.5611 63.0417 57.6558 62.6364 57.8452 62.3182C58.0346 62 58.2902 61.7481 58.6122 61.5625C58.9342 61.3769 59.294 61.2367 59.6918 61.142C60.0895 61.0473 60.4948 60.9754 60.9077 60.9261C61.4304 60.8655 61.8546 60.8163 62.1804 60.7784C62.5062 60.7367 62.7429 60.6705 62.8906 60.5795C63.0384 60.4886 63.1122 60.3409 63.1122 60.1364V60.0966C63.1122 59.6004 62.9721 59.2159 62.6918 58.9432C62.4152 58.6705 62.0024 58.5341 61.4531 58.5341C60.8812 58.5341 60.4304 58.661 60.1009 58.9148C59.7751 59.1648 59.5497 59.4432 59.4247 59.75L57.8281 59.3864C58.0175 58.8561 58.294 58.428 58.6577 58.1023C59.0251 57.7727 59.4474 57.5341 59.9247 57.3864C60.402 57.2348 60.9039 57.1591 61.4304 57.1591C61.7789 57.1591 62.1482 57.2008 62.5384 57.2841C62.9323 57.3636 63.2997 57.5114 63.6406 57.7273C63.9853 57.9432 64.2675 58.2519 64.4872 58.6534C64.7069 59.0511 64.8168 59.5682 64.8168 60.2045V66H63.1577V64.8068H63.0895C62.9796 65.0265 62.8149 65.2424 62.5952 65.4545C62.3755 65.6667 62.0933 65.8428 61.7486 65.983C61.4039 66.1231 60.991 66.1932 60.5099 66.1932ZM60.8793 64.8295C61.349 64.8295 61.7505 64.7367 62.0838 64.5511C62.4209 64.3655 62.6766 64.1231 62.8509 63.8239C63.0289 63.5208 63.1179 63.197 63.1179 62.8523V61.7273C63.0573 61.7879 62.9399 61.8447 62.7656 61.8977C62.5952 61.947 62.4001 61.9905 62.1804 62.0284C61.9607 62.0625 61.7467 62.0947 61.5384 62.125C61.33 62.1515 61.1558 62.1742 61.0156 62.1932C60.6861 62.2348 60.3849 62.3049 60.1122 62.4034C59.8433 62.5019 59.6274 62.6439 59.4645 62.8295C59.3054 63.0114 59.2259 63.2538 59.2259 63.5568C59.2259 63.9773 59.3812 64.2955 59.6918 64.5114C60.0024 64.7235 60.3982 64.8295 60.8793 64.8295ZM71.1534 57.2727V58.6364H66.3864V57.2727H71.1534ZM67.6648 55.1818H69.3636V63.4375C69.3636 63.767 69.4129 64.0152 69.5114 64.1818C69.6098 64.3447 69.7367 64.4564 69.892 64.517C70.0511 64.5739 70.2235 64.6023 70.4091 64.6023C70.5455 64.6023 70.6648 64.5928 70.767 64.5739C70.8693 64.5549 70.9489 64.5398 71.0057 64.5284L71.3125 65.9318C71.214 65.9697 71.0739 66.0076 70.892 66.0455C70.7102 66.0871 70.483 66.1098 70.2102 66.1136C69.7633 66.1212 69.3466 66.0417 68.9602 65.875C68.5739 65.7083 68.2614 65.4508 68.0227 65.1023C67.7841 64.7538 67.6648 64.3163 67.6648 63.7898V55.1818ZM76.6151 66.1761C75.7704 66.1761 75.0431 65.9848 74.4332 65.6023C73.8272 65.2159 73.3613 64.6837 73.0355 64.0057C72.7098 63.3277 72.5469 62.5511 72.5469 61.6761C72.5469 60.7898 72.7135 60.0076 73.0469 59.3295C73.3802 58.6477 73.8499 58.1155 74.456 57.733C75.062 57.3504 75.776 57.1591 76.598 57.1591C77.2609 57.1591 77.8518 57.2822 78.3707 57.5284C78.8897 57.7708 79.3082 58.1117 79.6264 58.5511C79.9484 58.9905 80.1397 59.5038 80.2003 60.0909H78.5469C78.456 59.6818 78.2476 59.3295 77.9219 59.0341C77.5999 58.7386 77.1681 58.5909 76.6264 58.5909C76.1529 58.5909 75.7382 58.7159 75.3821 58.9659C75.0298 59.2121 74.7552 59.5644 74.5582 60.0227C74.3613 60.4773 74.2628 61.0152 74.2628 61.6364C74.2628 62.2727 74.3594 62.822 74.5526 63.2841C74.7457 63.7462 75.0185 64.1042 75.3707 64.358C75.7268 64.6117 76.1454 64.7386 76.6264 64.7386C76.9484 64.7386 77.2401 64.6799 77.5014 64.5625C77.7666 64.4413 77.9882 64.2689 78.1662 64.0455C78.348 63.822 78.4749 63.553 78.5469 63.2386H80.2003C80.1397 63.803 79.956 64.3068 79.6491 64.75C79.3423 65.1932 78.9313 65.5417 78.4162 65.7955C77.9048 66.0492 77.3045 66.1761 76.6151 66.1761ZM83.7159 60.8182V66H82.017V54.3636H83.6932V58.6932H83.8011C84.0057 58.2235 84.3182 57.8504 84.7386 57.5739C85.1591 57.2973 85.7083 57.1591 86.3864 57.1591C86.9848 57.1591 87.5076 57.2822 87.9545 57.5284C88.4053 57.7746 88.7538 58.142 89 58.6307C89.25 59.1155 89.375 59.7216 89.375 60.4489V66H87.6761V60.6534C87.6761 60.0133 87.5114 59.517 87.1818 59.1648C86.8523 58.8087 86.3939 58.6307 85.8068 58.6307C85.4053 58.6307 85.0455 58.7159 84.7273 58.8864C84.4129 59.0568 84.1648 59.3068 83.983 59.6364C83.8049 59.9621 83.7159 60.3561 83.7159 60.8182ZM94.1818 66.1932C93.6288 66.1932 93.1288 66.0909 92.6818 65.8864C92.2348 65.678 91.8807 65.3769 91.6193 64.983C91.3617 64.589 91.233 64.1061 91.233 63.5341C91.233 63.0417 91.3277 62.6364 91.517 62.3182C91.7064 62 91.9621 61.7481 92.2841 61.5625C92.6061 61.3769 92.9659 61.2367 93.3636 61.142C93.7614 61.0473 94.1667 60.9754 94.5795 60.9261C95.1023 60.8655 95.5265 60.8163 95.8523 60.7784C96.178 60.7367 96.4148 60.6705 96.5625 60.5795C96.7102 60.4886 96.7841 60.3409 96.7841 60.1364V60.0966C96.7841 59.6004 96.6439 59.2159 96.3636 58.9432C96.0871 58.6705 95.6742 58.5341 95.125 58.5341C94.553 58.5341 94.1023 58.661 93.7727 58.9148C93.447 59.1648 93.2216 59.4432 93.0966 59.75L91.5 59.3864C91.6894 58.8561 91.9659 58.428 92.3295 58.1023C92.697 57.7727 93.1193 57.5341 93.5966 57.3864C94.0739 57.2348 94.5758 57.1591 95.1023 57.1591C95.4508 57.1591 95.8201 57.2008 96.2102 57.2841C96.6042 57.3636 96.9716 57.5114 97.3125 57.7273C97.6572 57.9432 97.9394 58.2519 98.1591 58.6534C98.3788 59.0511 98.4886 59.5682 98.4886 60.2045V66H96.8295V64.8068H96.7614C96.6515 65.0265 96.4867 65.2424 96.267 65.4545C96.0473 65.6667 95.7652 65.8428 95.4205 65.983C95.0758 66.1231 94.6629 66.1932 94.1818 66.1932ZM94.5511 64.8295C95.0208 64.8295 95.4223 64.7367 95.7557 64.5511C96.0928 64.3655 96.3485 64.1231 96.5227 63.8239C96.7008 63.5208 96.7898 63.197 96.7898 62.8523V61.7273C96.7292 61.7879 96.6117 61.8447 96.4375 61.8977C96.267 61.947 96.072 61.9905 95.8523 62.0284C95.6326 62.0625 95.4186 62.0947 95.2102 62.125C95.0019 62.1515 94.8277 62.1742 94.6875 62.1932C94.358 62.2348 94.0568 62.3049 93.7841 62.4034C93.5152 62.5019 93.2992 62.6439 93.1364 62.8295C92.9773 63.0114 92.8977 63.2538 92.8977 63.5568C92.8977 63.9773 93.053 64.2955 93.3636 64.5114C93.6742 64.7235 94.0701 64.8295 94.5511 64.8295ZM108.253 66.1705C107.548 66.1705 106.92 65.9905 106.366 65.6307C105.817 65.267 105.385 64.75 105.071 64.0795C104.76 63.4053 104.605 62.5966 104.605 61.6534C104.605 60.7102 104.762 59.9034 105.077 59.233C105.395 58.5625 105.83 58.0492 106.384 57.6932C106.937 57.3371 107.563 57.1591 108.264 57.1591C108.806 57.1591 109.241 57.25 109.571 57.4318C109.904 57.6098 110.162 57.8182 110.344 58.0568C110.529 58.2955 110.673 58.5057 110.776 58.6875H110.878V54.3636H112.577V66H110.918V64.642H110.776C110.673 64.8277 110.526 65.0398 110.332 65.2784C110.143 65.517 109.882 65.7254 109.548 65.9034C109.215 66.0814 108.783 66.1705 108.253 66.1705ZM108.628 64.7216C109.116 64.7216 109.529 64.5928 109.866 64.3352C110.207 64.0739 110.465 63.7121 110.639 63.25C110.817 62.7879 110.906 62.25 110.906 61.6364C110.906 61.0303 110.819 60.5 110.645 60.0455C110.471 59.5909 110.215 59.2367 109.878 58.983C109.541 58.7292 109.124 58.6023 108.628 58.6023C108.116 58.6023 107.69 58.7348 107.349 59C107.009 59.2652 106.751 59.6269 106.577 60.0852C106.406 60.5436 106.321 61.0606 106.321 61.6364C106.321 62.2197 106.408 62.7443 106.582 63.2102C106.757 63.6761 107.014 64.0455 107.355 64.3182C107.7 64.5871 108.124 64.7216 108.628 64.7216ZM118.678 66.1761C117.859 66.1761 117.145 65.9886 116.536 65.6136C115.926 65.2386 115.452 64.714 115.115 64.0398C114.778 63.3655 114.609 62.5777 114.609 61.6761C114.609 60.7708 114.778 59.9792 115.115 59.3011C115.452 58.6231 115.926 58.0966 116.536 57.7216C117.145 57.3466 117.859 57.1591 118.678 57.1591C119.496 57.1591 120.21 57.3466 120.82 57.7216C121.429 58.0966 121.903 58.6231 122.24 59.3011C122.577 59.9792 122.746 60.7708 122.746 61.6761C122.746 62.5777 122.577 63.3655 122.24 64.0398C121.903 64.714 121.429 65.2386 120.82 65.6136C120.21 65.9886 119.496 66.1761 118.678 66.1761ZM118.683 64.75C119.214 64.75 119.653 64.6098 120.001 64.3295C120.35 64.0492 120.607 63.6761 120.774 63.2102C120.945 62.7443 121.03 62.2311 121.03 61.6705C121.03 61.1136 120.945 60.6023 120.774 60.1364C120.607 59.6667 120.35 59.2898 120.001 59.0057C119.653 58.7216 119.214 58.5795 118.683 58.5795C118.149 58.5795 117.706 58.7216 117.354 59.0057C117.005 59.2898 116.746 59.6667 116.575 60.1364C116.409 60.6023 116.325 61.1136 116.325 61.6705C116.325 62.2311 116.409 62.7443 116.575 63.2102C116.746 63.6761 117.005 64.0492 117.354 64.3295C117.706 64.6098 118.149 64.75 118.683 64.75ZM124.642 66V57.2727H126.341V66H124.642ZM125.5 55.9261C125.205 55.9261 124.951 55.8277 124.739 55.6307C124.53 55.4299 124.426 55.1913 124.426 54.9148C124.426 54.6345 124.53 54.3958 124.739 54.1989C124.951 53.9981 125.205 53.8977 125.5 53.8977C125.795 53.8977 126.047 53.9981 126.256 54.1989C126.468 54.3958 126.574 54.6345 126.574 54.9148C126.574 55.1913 126.468 55.4299 126.256 55.6307C126.047 55.8277 125.795 55.9261 125.5 55.9261ZM130.325 60.8182V66H128.626V57.2727H130.257V58.6932H130.365C130.566 58.2311 130.88 57.8598 131.308 57.5795C131.74 57.2992 132.284 57.1591 132.939 57.1591C133.534 57.1591 134.054 57.2841 134.501 57.5341C134.948 57.7803 135.295 58.1477 135.541 58.6364C135.787 59.125 135.911 59.7292 135.911 60.4489V66H134.212V60.6534C134.212 60.0208 134.047 59.5265 133.717 59.1705C133.388 58.8106 132.935 58.6307 132.359 58.6307C131.965 58.6307 131.615 58.7159 131.308 58.8864C131.005 59.0568 130.765 59.3068 130.587 59.6364C130.412 59.9621 130.325 60.3561 130.325 60.8182ZM139.888 60.8182V66H138.189V57.2727H139.82V58.6932H139.928C140.128 58.2311 140.443 57.8598 140.871 57.5795C141.303 57.2992 141.846 57.1591 142.501 57.1591C143.096 57.1591 143.617 57.2841 144.064 57.5341C144.511 57.7803 144.857 58.1477 145.104 58.6364C145.35 59.125 145.473 59.7292 145.473 60.4489V66H143.774V60.6534C143.774 60.0208 143.609 59.5265 143.28 59.1705C142.95 58.8106 142.498 58.6307 141.922 58.6307C141.528 58.6307 141.178 58.7159 140.871 58.8864C140.568 59.0568 140.327 59.3068 140.149 59.6364C139.975 59.9621 139.888 60.3561 139.888 60.8182ZM149.45 60.8182V66H147.751V57.2727H149.382V58.6932H149.49C149.691 58.2311 150.005 57.8598 150.433 57.5795C150.865 57.2992 151.409 57.1591 152.064 57.1591C152.659 57.1591 153.179 57.2841 153.626 57.5341C154.073 57.7803 154.42 58.1477 154.666 58.6364C154.912 59.125 155.036 59.7292 155.036 60.4489V66H153.337V60.6534C153.337 60.0208 153.172 59.5265 152.842 59.1705C152.513 58.8106 152.06 58.6307 151.484 58.6307C151.09 58.6307 150.74 58.7159 150.433 58.8864C150.13 59.0568 149.89 59.3068 149.712 59.6364C149.537 59.9621 149.45 60.3561 149.45 60.8182ZM159.013 60.8182V66H157.314V57.2727H158.945V58.6932H159.053C159.253 58.2311 159.568 57.8598 159.996 57.5795C160.428 57.2992 160.971 57.1591 161.626 57.1591C162.221 57.1591 162.742 57.2841 163.189 57.5341C163.636 57.7803 163.982 58.1477 164.229 58.6364C164.475 59.125 164.598 59.7292 164.598 60.4489V66H162.899V60.6534C162.899 60.0208 162.734 59.5265 162.405 59.1705C162.075 58.8106 161.623 58.6307 161.047 58.6307C160.653 58.6307 160.303 58.7159 159.996 58.8864C159.693 59.0568 159.452 59.3068 159.274 59.6364C159.1 59.9621 159.013 60.3561 159.013 60.8182ZM168.575 60.8182V66H166.876V57.2727H168.507V58.6932H168.615C168.816 58.2311 169.13 57.8598 169.558 57.5795C169.99 57.2992 170.534 57.1591 171.189 57.1591C171.784 57.1591 172.304 57.2841 172.751 57.5341C173.198 57.7803 173.545 58.1477 173.791 58.6364C174.037 59.125 174.161 59.7292 174.161 60.4489V66H172.462V60.6534C172.462 60.0208 172.297 59.5265 171.967 59.1705C171.638 58.8106 171.185 58.6307 170.609 58.6307C170.215 58.6307 169.865 58.7159 169.558 58.8864C169.255 59.0568 169.015 59.3068 168.837 59.6364C168.662 59.9621 168.575 60.3561 168.575 60.8182Z" fill="black"/>
</g>
<defs>
<filter id="filter0_d_2191_1414" x="2.96826" y="2.1582" width="20.4644" height="22.4766" filterUnits="userSpaceOnUse" color-interpolation-filters="sRGB">
<feFlood flood-opacity="0" result="BackgroundImageFix"/>
<feColorMatrix in="SourceAlpha" type="matrix" values="0 0 0 0 0 0 0 0 0 0 0 0 0 0 0 0 0 0 127 0" result="hardAlpha"/>
<feOffset dy="1"/>
<feGaussianBlur stdDeviation="1"/>
<feComposite in2="hardAlpha" operator="out"/>
<feColorMatrix type="matrix" values="0 0 0 0 0 0 0 0 0 0 0 0 0 0 0 0 0 0 0.25 0"/>
<feBlend mode="normal" in2="BackgroundImageFix" result="effect1_dropShadow_2191_1414"/>
<feBlend mode="normal" in="SourceGraphic" in2="effect1_dropShadow_2191_1414" result="shape"/>
</filter>
<filter id="filter1_d_2191_1414" x="12" y="14" width="198" height="80" filterUnits="userSpaceOnUse" color-interpolation-filters="sRGB">
<feFlood flood-opacity="0" result="BackgroundImageFix"/>
<feColorMatrix in="SourceAlpha" type="matrix" values="0 0 0 0 0 0 0 0 0 0 0 0 0 0 0 0 0 0 127 0" result="hardAlpha"/>
<feOffset dx="4" dy="4"/>
<feGaussianBlur stdDeviation="5"/>
<feComposite in2="hardAlpha" operator="out"/>
<feColorMatrix type="matrix" values="0 0 0 0 0.968627 0 0 0 0 0.819608 0 0 0 0 0.345098 0 0 0 0.16 0"/>
<feBlend mode="normal" in2="BackgroundImageFix" result="effect1_dropShadow_2191_1414"/>
<feBlend mode="normal" in="SourceGraphic" in2="effect1_dropShadow_2191_1414" result="shape"/>
</filter>
</defs>
</svg>
