<svg width="275" height="94" viewBox="0 0 275 94" fill="none" xmlns="http://www.w3.org/2000/svg">
<g filter="url(#filter0_d_2219_3062)">
<path d="M8.81678 20.3643L5.66312 4.11451L20.143 12.1353L13.0104 14.2272L8.81678 20.3643Z" fill="#EF5533"/>
<path d="M8.81678 20.3643L5.66312 4.11451L20.143 12.1353L13.0104 14.2272L8.81678 20.3643Z" stroke="white"/>
</g>
<g filter="url(#filter1_d_2219_3062)">
<path d="M18 22C18 20.8954 18.8954 20 20 20H237C250.255 20 261 30.7452 261 44V56C261 69.2548 250.255 80 237 80H42C28.7452 80 18 69.2548 18 56V22Z" fill="#EF5533" shape-rendering="crispEdges"/>
<path d="M20 21H237C249.703 21 260 31.2975 260 44V56C260 68.7025 249.703 79 237 79H42C29.2975 79 19 68.7025 19 56V22C19 21.4477 19.4477 21 20 21Z" stroke="#EF5533" stroke-width="2" shape-rendering="crispEdges"/>
<path opacity="0.8" d="M35.0387 43V33.5455H40.9016V34.7734H36.4652V37.6541H40.4815V38.8775H36.4652V43H35.0387ZM42.5451 43V35.9091H43.9254V43H42.5451ZM43.2422 34.815C43.0021 34.815 42.7959 34.735 42.6236 34.5749C42.4543 34.4118 42.3697 34.2179 42.3697 33.9933C42.3697 33.7655 42.4543 33.5716 42.6236 33.4116C42.7959 33.2485 43.0021 33.1669 43.2422 33.1669C43.4822 33.1669 43.6869 33.2485 43.8562 33.4116C44.0285 33.5716 44.1147 33.7655 44.1147 33.9933C44.1147 34.2179 44.0285 34.4118 43.8562 34.5749C43.6869 34.735 43.4822 34.815 43.2422 34.815ZM48.7554 45.8068C48.1922 45.8068 47.7075 45.733 47.3012 45.5852C46.8981 45.4375 46.5687 45.2421 46.3133 44.9989C46.0579 44.7558 45.867 44.4896 45.7409 44.2003L46.9273 43.7109C47.0104 43.8464 47.1212 43.9895 47.2597 44.1403C47.4012 44.2942 47.5921 44.425 47.8321 44.5327C48.0753 44.6404 48.3876 44.6942 48.7693 44.6942C49.2925 44.6942 49.7249 44.5665 50.0665 44.3111C50.4081 44.0587 50.5789 43.6555 50.5789 43.1016V41.7074H50.4912C50.4081 41.8582 50.2881 42.0259 50.1311 42.2106C49.9772 42.3952 49.7649 42.5553 49.4941 42.6907C49.2232 42.8261 48.8708 42.8938 48.4369 42.8938C47.8767 42.8938 47.372 42.763 46.9227 42.5014C46.4764 42.2367 46.1225 41.8474 45.8609 41.3335C45.6024 40.8164 45.4731 40.1809 45.4731 39.4268C45.4731 38.6728 45.6008 38.0265 45.8563 37.4879C46.1148 36.9493 46.4687 36.5369 46.9181 36.2507C47.3674 35.9614 47.8767 35.8168 48.4461 35.8168C48.8862 35.8168 49.2417 35.8906 49.5125 36.0384C49.7834 36.183 49.9942 36.3523 50.145 36.5462C50.2989 36.7401 50.4173 36.9109 50.5004 37.0586H50.602V35.9091H51.9546V43.157C51.9546 43.7663 51.8131 44.2665 51.5299 44.6573C51.2468 45.0482 50.8636 45.3375 50.3804 45.5252C49.9003 45.7129 49.3586 45.8068 48.7554 45.8068ZM48.7416 41.7489C49.1386 41.7489 49.474 41.6566 49.748 41.4719C50.0249 41.2842 50.2342 41.0165 50.3758 40.6687C50.5204 40.3178 50.5928 39.8977 50.5928 39.4084C50.5928 38.9313 50.522 38.5112 50.3804 38.1481C50.2388 37.7849 50.0311 37.5018 49.7572 37.2987C49.4833 37.0924 49.1447 36.9893 48.7416 36.9893C48.3261 36.9893 47.9798 37.0971 47.7029 37.3125C47.4259 37.5249 47.2166 37.8142 47.075 38.1804C46.9365 38.5466 46.8673 38.956 46.8673 39.4084C46.8673 39.8731 46.9381 40.2809 47.0796 40.6317C47.2212 40.9826 47.4305 41.2565 47.7075 41.4535C47.9875 41.6504 48.3322 41.7489 48.7416 41.7489ZM53.8058 43V35.9091H55.1308V37.0632H55.2185C55.3662 36.6723 55.6078 36.3677 55.9433 36.1491C56.2787 35.9276 56.6804 35.8168 57.1482 35.8168C57.6221 35.8168 58.0191 35.9276 58.3392 36.1491C58.6624 36.3707 58.9009 36.6754 59.0548 37.0632H59.1286C59.2979 36.6847 59.5672 36.383 59.9365 36.1584C60.3058 35.9306 60.7459 35.8168 61.2568 35.8168C61.9001 35.8168 62.4248 36.0183 62.8311 36.4215C63.2404 36.8247 63.445 37.4325 63.445 38.245V43H62.0647V38.3743C62.0647 37.8942 61.9339 37.5464 61.6723 37.331C61.4107 37.1155 61.0983 37.0078 60.7352 37.0078C60.2858 37.0078 59.9365 37.1463 59.6872 37.4233C59.4379 37.6972 59.3133 38.0496 59.3133 38.4805V43H57.9376V38.2866C57.9376 37.9019 57.8176 37.5926 57.5775 37.3587C57.3374 37.1248 57.0251 37.0078 56.6404 37.0078C56.3788 37.0078 56.1372 37.0771 55.9156 37.2156C55.6971 37.351 55.5201 37.5402 55.3847 37.7834C55.2523 38.0265 55.1862 38.3081 55.1862 38.6282V43H53.8058ZM67.3587 43.157C66.9093 43.157 66.5031 43.0739 66.1399 42.9077C65.7768 42.7384 65.489 42.4937 65.2766 42.1737C65.0674 41.8536 64.9627 41.4612 64.9627 40.9964C64.9627 40.5964 65.0397 40.267 65.1935 40.0085C65.3474 39.75 65.5552 39.5453 65.8168 39.3945C66.0784 39.2437 66.3707 39.1299 66.6939 39.0529C67.017 38.976 67.3464 38.9175 67.6818 38.8775C68.1065 38.8282 68.4512 38.7882 68.7159 38.7575C68.9806 38.7236 69.1729 38.6697 69.293 38.5959C69.413 38.522 69.473 38.402 69.473 38.2358V38.2035C69.473 37.8003 69.3591 37.4879 69.1314 37.2663C68.9067 37.0447 68.5713 36.9339 68.125 36.9339C67.6603 36.9339 67.294 37.037 67.0263 37.2433C66.7616 37.4464 66.5785 37.6726 66.4769 37.9219L65.1797 37.6264C65.3336 37.1955 65.5582 36.8478 65.8537 36.5831C66.1522 36.3153 66.4954 36.1214 66.8832 36.0014C67.271 35.8783 67.6787 35.8168 68.1065 35.8168C68.3897 35.8168 68.6897 35.8506 69.0067 35.9183C69.3268 35.983 69.6254 36.103 69.9023 36.2784C70.1824 36.4538 70.4117 36.7047 70.5902 37.0309C70.7687 37.354 70.858 37.7741 70.858 38.2912V43H69.5099V42.0305H69.4545C69.3653 42.209 69.2314 42.3845 69.0529 42.5568C68.8744 42.7292 68.6451 42.8723 68.3651 42.9862C68.085 43.1 67.7495 43.157 67.3587 43.157ZM67.6587 42.049C68.0404 42.049 68.3666 41.9736 68.6374 41.8228C68.9113 41.672 69.1191 41.475 69.2607 41.2319C69.4053 40.9857 69.4776 40.7225 69.4776 40.4425V39.5284C69.4284 39.5777 69.333 39.6238 69.1914 39.6669C69.0529 39.7069 68.8944 39.7423 68.7159 39.7731C68.5374 39.8008 68.3635 39.8269 68.1942 39.8516C68.025 39.8731 67.8834 39.8916 67.7695 39.907C67.5018 39.9408 67.2571 39.9978 67.0355 40.0778C66.817 40.1578 66.6416 40.2732 66.5092 40.424C66.38 40.5717 66.3153 40.7687 66.3153 41.0149C66.3153 41.3565 66.4415 41.6151 66.6939 41.7905C66.9463 41.9628 67.2679 42.049 67.6587 42.049ZM81.4043 36.0291C81.3551 35.5921 81.1519 35.2536 80.7949 35.0135C80.4379 34.7704 79.9886 34.6488 79.4469 34.6488C79.0591 34.6488 78.7237 34.7103 78.4405 34.8335C78.1574 34.9535 77.9373 35.1197 77.7804 35.332C77.6265 35.5413 77.5495 35.7798 77.5495 36.0476C77.5495 36.2723 77.6019 36.4661 77.7065 36.6293C77.8142 36.7924 77.9542 36.9293 78.1266 37.0401C78.302 37.1478 78.4898 37.2386 78.6898 37.3125C78.8899 37.3833 79.0822 37.4418 79.2669 37.4879L80.1902 37.728C80.4918 37.8018 80.8011 37.9019 81.1181 38.0281C81.4351 38.1542 81.729 38.3204 81.9998 38.5266C82.2707 38.7328 82.4892 38.9883 82.6554 39.293C82.8246 39.5977 82.9093 39.9624 82.9093 40.3871C82.9093 40.9226 82.7708 41.3981 82.4938 41.8136C82.2199 42.229 81.8213 42.5568 81.2981 42.7969C80.778 43.0369 80.1486 43.157 79.41 43.157C78.7021 43.157 78.0897 43.0446 77.5726 42.82C77.0556 42.5953 76.6509 42.2768 76.3585 41.8643C76.0661 41.4489 75.9045 40.9564 75.8738 40.3871H77.3049C77.3326 40.7287 77.4434 41.0134 77.6373 41.2411C77.8342 41.4658 78.085 41.6335 78.3897 41.7443C78.6975 41.852 79.0345 41.9059 79.4007 41.9059C79.8039 41.9059 80.1625 41.8428 80.4764 41.7166C80.7934 41.5874 81.0427 41.4089 81.2243 41.1811C81.4058 40.9503 81.4966 40.681 81.4966 40.3732C81.4966 40.0932 81.4166 39.8639 81.2566 39.6854C81.0996 39.5069 80.8857 39.3591 80.6149 39.2422C80.3471 39.1252 80.044 39.0221 79.7054 38.9329L78.5882 38.6282C77.8311 38.422 77.231 38.1188 76.7878 37.7188C76.3477 37.3187 76.1277 36.7893 76.1277 36.1307C76.1277 35.5859 76.2754 35.1104 76.5708 34.7042C76.8663 34.2979 77.2664 33.9825 77.7711 33.7578C78.2759 33.5301 78.8452 33.4162 79.4792 33.4162C80.1194 33.4162 80.6841 33.5285 81.1735 33.7532C81.6659 33.9779 82.0537 34.2872 82.3368 34.6811C82.62 35.072 82.7677 35.5213 82.78 36.0291H81.4043ZM87.8131 35.9091V37.017H83.9399V35.9091H87.8131ZM84.9786 34.2102H86.3589V40.918C86.3589 41.1857 86.3989 41.3873 86.479 41.5227C86.559 41.6551 86.6621 41.7459 86.7883 41.7951C86.9175 41.8413 87.0576 41.8643 87.2084 41.8643C87.3192 41.8643 87.4161 41.8567 87.4992 41.8413C87.5823 41.8259 87.6469 41.8136 87.6931 41.8043L87.9424 42.9446C87.8624 42.9754 87.7485 43.0062 87.6008 43.0369C87.453 43.0708 87.2684 43.0893 87.0468 43.0923C86.6836 43.0985 86.3451 43.0339 86.0312 42.8984C85.7172 42.763 85.4633 42.5537 85.2694 42.2706C85.0756 41.9875 84.9786 41.632 84.9786 41.2042V34.2102ZM91.4036 43.157C90.9542 43.157 90.548 43.0739 90.1848 42.9077C89.8217 42.7384 89.5339 42.4937 89.3216 42.1737C89.1123 41.8536 89.0076 41.4612 89.0076 40.9964C89.0076 40.5964 89.0846 40.267 89.2385 40.0085C89.3923 39.75 89.6001 39.5453 89.8617 39.3945C90.1233 39.2437 90.4157 39.1299 90.7388 39.0529C91.062 38.976 91.3913 38.9175 91.7267 38.8775C92.1515 38.8282 92.4962 38.7882 92.7608 38.7575C93.0255 38.7236 93.2179 38.6697 93.3379 38.5959C93.4579 38.522 93.5179 38.402 93.5179 38.2358V38.2035C93.5179 37.8003 93.4041 37.4879 93.1763 37.2663C92.9516 37.0447 92.6162 36.9339 92.1699 36.9339C91.7052 36.9339 91.339 37.037 91.0712 37.2433C90.8065 37.4464 90.6234 37.6726 90.5218 37.9219L89.2246 37.6264C89.3785 37.1955 89.6032 36.8478 89.8986 36.5831C90.1971 36.3153 90.5403 36.1214 90.9281 36.0014C91.3159 35.8783 91.7237 35.8168 92.1515 35.8168C92.4346 35.8168 92.7347 35.8506 93.0517 35.9183C93.3717 35.983 93.6703 36.103 93.9473 36.2784C94.2273 36.4538 94.4566 36.7047 94.6351 37.0309C94.8136 37.354 94.9029 37.7741 94.9029 38.2912V43H93.5549V42.0305H93.4995C93.4102 42.209 93.2763 42.3845 93.0978 42.5568C92.9193 42.7292 92.69 42.8723 92.41 42.9862C92.1299 43.1 91.7944 43.157 91.4036 43.157ZM91.7037 42.049C92.0853 42.049 92.4115 41.9736 92.6824 41.8228C92.9563 41.672 93.164 41.475 93.3056 41.2319C93.4502 40.9857 93.5225 40.7225 93.5225 40.4425V39.5284C93.4733 39.5777 93.3779 39.6238 93.2363 39.6669C93.0978 39.7069 92.9393 39.7423 92.7608 39.7731C92.5823 39.8008 92.4084 39.8269 92.2392 39.8516C92.0699 39.8731 91.9283 39.8916 91.8145 39.907C91.5467 39.9408 91.302 39.9978 91.0804 40.0778C90.8619 40.1578 90.6865 40.2732 90.5542 40.424C90.4249 40.5717 90.3603 40.7687 90.3603 41.0149C90.3603 41.3565 90.4864 41.6151 90.7388 41.7905C90.9912 41.9628 91.3128 42.049 91.7037 42.049ZM98.1217 33.5455V43H96.7414V33.5455H98.1217ZM101.248 40.5948L101.239 38.9098H101.479L104.304 35.9091H105.957L102.735 39.3253H102.518L101.248 40.5948ZM99.9787 43V33.5455H101.359V43H99.9787ZM104.457 43L101.918 39.63L102.869 38.6651L106.151 43H104.457ZM109.979 43.1431C109.281 43.1431 108.679 42.9938 108.174 42.6953C107.672 42.3937 107.285 41.9705 107.011 41.4258C106.74 40.878 106.604 40.2363 106.604 39.5007C106.604 38.7744 106.74 38.1342 107.011 37.5803C107.285 37.0263 107.666 36.5939 108.156 36.283C108.648 35.9722 109.224 35.8168 109.882 35.8168C110.282 35.8168 110.67 35.8829 111.046 36.0153C111.421 36.1476 111.758 36.3554 112.057 36.6385C112.355 36.9216 112.591 37.2894 112.763 37.7418C112.935 38.1912 113.021 38.7375 113.021 39.3807V39.87H107.385V38.8359H111.669C111.669 38.4728 111.595 38.1512 111.447 37.8711C111.299 37.5879 111.092 37.3648 110.824 37.2017C110.559 37.0386 110.248 36.957 109.891 36.957C109.504 36.957 109.165 37.0524 108.876 37.2433C108.59 37.431 108.368 37.6772 108.211 37.9819C108.057 38.2835 107.98 38.6113 107.98 38.9652V39.7731C107.98 40.247 108.063 40.6502 108.229 40.9826C108.399 41.315 108.634 41.5689 108.936 41.7443C109.237 41.9167 109.59 42.0028 109.993 42.0028C110.255 42.0028 110.493 41.9659 110.709 41.892C110.924 41.8151 111.11 41.7012 111.267 41.5504C111.424 41.3996 111.544 41.2134 111.627 40.9918L112.934 41.2273C112.829 41.612 112.641 41.949 112.37 42.2383C112.103 42.5245 111.766 42.7476 111.359 42.9077C110.956 43.0646 110.496 43.1431 109.979 43.1431ZM114.553 43V35.9091H115.887V37.0355H115.961C116.09 36.6539 116.318 36.3538 116.644 36.1353C116.973 35.9137 117.346 35.8029 117.761 35.8029C117.848 35.8029 117.949 35.806 118.066 35.8121C118.186 35.8183 118.28 35.826 118.348 35.8352V37.1555C118.292 37.1402 118.194 37.1232 118.052 37.1048C117.911 37.0832 117.769 37.0724 117.627 37.0724C117.301 37.0724 117.01 37.1417 116.755 37.2802C116.503 37.4156 116.303 37.6049 116.155 37.848C116.007 38.0881 115.933 38.362 115.933 38.6697V43H114.553Z" fill="white" fill-opacity="0.7"/>
<path d="M36.8409 60.8182V66H35.142V54.3636H36.8182V58.6932H36.9261C37.1307 58.2235 37.4432 57.8504 37.8636 57.5739C38.2841 57.2973 38.8333 57.1591 39.5114 57.1591C40.1098 57.1591 40.6326 57.2822 41.0795 57.5284C41.5303 57.7746 41.8788 58.142 42.125 58.6307C42.375 59.1155 42.5 59.7216 42.5 60.4489V66H40.8011V60.6534C40.8011 60.0133 40.6364 59.517 40.3068 59.1648C39.9773 58.8087 39.5189 58.6307 38.9318 58.6307C38.5303 58.6307 38.1705 58.7159 37.8523 58.8864C37.5379 59.0568 37.2898 59.3068 37.108 59.6364C36.9299 59.9621 36.8409 60.3561 36.8409 60.8182ZM48.4432 66.1761C47.625 66.1761 46.911 65.9886 46.3011 65.6136C45.6913 65.2386 45.2178 64.714 44.8807 64.0398C44.5436 63.3655 44.375 62.5777 44.375 61.6761C44.375 60.7708 44.5436 59.9792 44.8807 59.3011C45.2178 58.6231 45.6913 58.0966 46.3011 57.7216C46.911 57.3466 47.625 57.1591 48.4432 57.1591C49.2614 57.1591 49.9754 57.3466 50.5852 57.7216C51.1951 58.0966 51.6686 58.6231 52.0057 59.3011C52.3428 59.9792 52.5114 60.7708 52.5114 61.6761C52.5114 62.5777 52.3428 63.3655 52.0057 64.0398C51.6686 64.714 51.1951 65.2386 50.5852 65.6136C49.9754 65.9886 49.2614 66.1761 48.4432 66.1761ZM48.4489 64.75C48.9792 64.75 49.4186 64.6098 49.767 64.3295C50.1155 64.0492 50.3731 63.6761 50.5398 63.2102C50.7102 62.7443 50.7955 62.2311 50.7955 61.6705C50.7955 61.1136 50.7102 60.6023 50.5398 60.1364C50.3731 59.6667 50.1155 59.2898 49.767 59.0057C49.4186 58.7216 48.9792 58.5795 48.4489 58.5795C47.9148 58.5795 47.4716 58.7216 47.1193 59.0057C46.7708 59.2898 46.5114 59.6667 46.3409 60.1364C46.1742 60.6023 46.0909 61.1136 46.0909 61.6705C46.0909 62.2311 46.1742 62.7443 46.3409 63.2102C46.5114 63.6761 46.7708 64.0492 47.1193 64.3295C47.4716 64.6098 47.9148 64.75 48.4489 64.75ZM56.0341 66L53.4659 57.2727H55.2216L56.9318 63.6818H57.017L58.733 57.2727H60.4886L62.1932 63.6534H62.2784L63.9773 57.2727H65.733L63.1705 66H61.4375L59.6648 59.6989H59.5341L57.7614 66H56.0341ZM71.5795 66V57.2727H73.2102V58.6932H73.3182C73.5 58.2121 73.7973 57.8371 74.2102 57.5682C74.6231 57.2955 75.1174 57.1591 75.6932 57.1591C76.2765 57.1591 76.7652 57.2955 77.1591 57.5682C77.5568 57.8409 77.8504 58.2159 78.0398 58.6932H78.1307C78.339 58.2273 78.6705 57.8561 79.125 57.5795C79.5795 57.2992 80.1212 57.1591 80.75 57.1591C81.5417 57.1591 82.1875 57.4072 82.6875 57.9034C83.1913 58.3996 83.4432 59.1477 83.4432 60.1477V66H81.7443V60.3068C81.7443 59.7159 81.5833 59.2879 81.2614 59.0227C80.9394 58.7576 80.5549 58.625 80.108 58.625C79.5549 58.625 79.125 58.7955 78.8182 59.1364C78.5114 59.4735 78.358 59.9072 78.358 60.4375V66H76.6648V60.1989C76.6648 59.7254 76.517 59.3447 76.2216 59.0568C75.9261 58.7689 75.5417 58.625 75.0682 58.625C74.7462 58.625 74.4489 58.7102 74.1761 58.8807C73.9072 59.0473 73.6894 59.2803 73.5227 59.5795C73.3598 59.8788 73.2784 60.2254 73.2784 60.6193V66H71.5795ZM91.2486 62.3807V57.2727H92.9531V66H91.2827V64.4886H91.1918C90.991 64.9545 90.669 65.3428 90.2259 65.6534C89.7865 65.9602 89.2391 66.1136 88.5838 66.1136C88.0232 66.1136 87.527 65.9905 87.0952 65.7443C86.6671 65.4943 86.33 65.125 86.0838 64.6364C85.8414 64.1477 85.7202 63.5436 85.7202 62.8239V57.2727H87.419V62.6193C87.419 63.214 87.5838 63.6875 87.9134 64.0398C88.2429 64.392 88.6709 64.5682 89.1974 64.5682C89.5156 64.5682 89.8319 64.4886 90.1463 64.3295C90.4645 64.1705 90.7277 63.9299 90.9361 63.608C91.1482 63.286 91.2524 62.8769 91.2486 62.3807ZM98.9119 66.1761C98.0672 66.1761 97.34 65.9848 96.7301 65.6023C96.1241 65.2159 95.6581 64.6837 95.3324 64.0057C95.0066 63.3277 94.8438 62.5511 94.8438 61.6761C94.8438 60.7898 95.0104 60.0076 95.3438 59.3295C95.6771 58.6477 96.1468 58.1155 96.7528 57.733C97.3589 57.3504 98.0729 57.1591 98.8949 57.1591C99.5578 57.1591 100.149 57.2822 100.668 57.5284C101.187 57.7708 101.605 58.1117 101.923 58.5511C102.245 58.9905 102.437 59.5038 102.497 60.0909H100.844C100.753 59.6818 100.545 59.3295 100.219 59.0341C99.8968 58.7386 99.465 58.5909 98.9233 58.5909C98.4498 58.5909 98.035 58.7159 97.679 58.9659C97.3267 59.2121 97.0521 59.5644 96.8551 60.0227C96.6581 60.4773 96.5597 61.0152 96.5597 61.6364C96.5597 62.2727 96.6563 62.822 96.8494 63.2841C97.0426 63.7462 97.3153 64.1042 97.6676 64.358C98.0237 64.6117 98.4422 64.7386 98.9233 64.7386C99.2453 64.7386 99.5369 64.6799 99.7983 64.5625C100.063 64.4413 100.285 64.2689 100.463 64.0455C100.645 63.822 100.772 63.553 100.844 63.2386H102.497C102.437 63.803 102.253 64.3068 101.946 64.75C101.639 65.1932 101.228 65.5417 100.713 65.7955C100.202 66.0492 99.6013 66.1761 98.9119 66.1761ZM106.013 60.8182V66H104.314V54.3636H105.99V58.6932H106.098C106.303 58.2235 106.615 57.8504 107.036 57.5739C107.456 57.2973 108.005 57.1591 108.683 57.1591C109.282 57.1591 109.804 57.2822 110.251 57.5284C110.702 57.7746 111.051 58.142 111.297 58.6307C111.547 59.1155 111.672 59.7216 111.672 60.4489V66H109.973V60.6534C109.973 60.0133 109.808 59.517 109.479 59.1648C109.149 58.8087 108.691 58.6307 108.104 58.6307C107.702 58.6307 107.342 58.7159 107.024 58.8864C106.71 59.0568 106.462 59.3068 106.28 59.6364C106.102 59.9621 106.013 60.3561 106.013 60.8182ZM121.849 66.1761C121.005 66.1761 120.277 65.9848 119.668 65.6023C119.062 65.2159 118.596 64.6837 118.27 64.0057C117.944 63.3277 117.781 62.5511 117.781 61.6761C117.781 60.7898 117.948 60.0076 118.281 59.3295C118.615 58.6477 119.084 58.1155 119.69 57.733C120.296 57.3504 121.01 57.1591 121.832 57.1591C122.495 57.1591 123.086 57.2822 123.605 57.5284C124.124 57.7708 124.543 58.1117 124.861 58.5511C125.183 58.9905 125.374 59.5038 125.435 60.0909H123.781C123.69 59.6818 123.482 59.3295 123.156 59.0341C122.834 58.7386 122.402 58.5909 121.861 58.5909C121.387 58.5909 120.973 58.7159 120.616 58.9659C120.264 59.2121 119.99 59.5644 119.793 60.0227C119.596 60.4773 119.497 61.0152 119.497 61.6364C119.497 62.2727 119.594 62.822 119.787 63.2841C119.98 63.7462 120.253 64.1042 120.605 64.358C120.961 64.6117 121.38 64.7386 121.861 64.7386C122.183 64.7386 122.474 64.6799 122.736 64.5625C123.001 64.4413 123.223 64.2689 123.401 64.0455C123.582 63.822 123.709 63.553 123.781 63.2386H125.435C125.374 63.803 125.19 64.3068 124.884 64.75C124.577 65.1932 124.166 65.5417 123.651 65.7955C123.139 66.0492 122.539 66.1761 121.849 66.1761ZM129.791 66.1932C129.238 66.1932 128.738 66.0909 128.291 65.8864C127.844 65.678 127.49 65.3769 127.229 64.983C126.971 64.589 126.842 64.1061 126.842 63.5341C126.842 63.0417 126.937 62.6364 127.126 62.3182C127.316 62 127.571 61.7481 127.893 61.5625C128.215 61.3769 128.575 61.2367 128.973 61.142C129.371 61.0473 129.776 60.9754 130.189 60.9261C130.712 60.8655 131.136 60.8163 131.462 60.7784C131.787 60.7367 132.024 60.6705 132.172 60.5795C132.32 60.4886 132.393 60.3409 132.393 60.1364V60.0966C132.393 59.6004 132.253 59.2159 131.973 58.9432C131.696 58.6705 131.284 58.5341 130.734 58.5341C130.162 58.5341 129.712 58.661 129.382 58.9148C129.056 59.1648 128.831 59.4432 128.706 59.75L127.109 59.3864C127.299 58.8561 127.575 58.428 127.939 58.1023C128.306 57.7727 128.729 57.5341 129.206 57.3864C129.683 57.2348 130.185 57.1591 130.712 57.1591C131.06 57.1591 131.429 57.2008 131.82 57.2841C132.214 57.3636 132.581 57.5114 132.922 57.7273C133.267 57.9432 133.549 58.2519 133.768 58.6534C133.988 59.0511 134.098 59.5682 134.098 60.2045V66H132.439V64.8068H132.371C132.261 65.0265 132.096 65.2424 131.876 65.4545C131.657 65.6667 131.375 65.8428 131.03 65.983C130.685 66.1231 130.272 66.1932 129.791 66.1932ZM130.161 64.8295C130.63 64.8295 131.032 64.7367 131.365 64.5511C131.702 64.3655 131.958 64.1231 132.132 63.8239C132.31 63.5208 132.399 63.197 132.399 62.8523V61.7273C132.339 61.7879 132.221 61.8447 132.047 61.8977C131.876 61.947 131.681 61.9905 131.462 62.0284C131.242 62.0625 131.028 62.0947 130.82 62.125C130.611 62.1515 130.437 62.1742 130.297 62.1932C129.967 62.2348 129.666 62.3049 129.393 62.4034C129.125 62.5019 128.909 62.6439 128.746 62.8295C128.587 63.0114 128.507 63.2538 128.507 63.5568C128.507 63.9773 128.662 64.2955 128.973 64.5114C129.284 64.7235 129.679 64.8295 130.161 64.8295ZM138.06 60.8182V66H136.361V57.2727H137.991V58.6932H138.099C138.3 58.2311 138.615 57.8598 139.043 57.5795C139.474 57.2992 140.018 57.1591 140.673 57.1591C141.268 57.1591 141.789 57.2841 142.236 57.5341C142.683 57.7803 143.029 58.1477 143.276 58.6364C143.522 59.125 143.645 59.7292 143.645 60.4489V66H141.946V60.6534C141.946 60.0208 141.781 59.5265 141.452 59.1705C141.122 58.8106 140.67 58.6307 140.094 58.6307C139.7 58.6307 139.349 58.7159 139.043 58.8864C138.74 59.0568 138.499 59.3068 138.321 59.6364C138.147 59.9621 138.06 60.3561 138.06 60.8182ZM150.158 66V57.2727H151.857V66H150.158ZM151.016 55.9261C150.72 55.9261 150.466 55.8277 150.254 55.6307C150.046 55.4299 149.942 55.1913 149.942 54.9148C149.942 54.6345 150.046 54.3958 150.254 54.1989C150.466 53.9981 150.72 53.8977 151.016 53.8977C151.311 53.8977 151.563 53.9981 151.771 54.1989C151.983 54.3958 152.089 54.6345 152.089 54.9148C152.089 55.1913 151.983 55.4299 151.771 55.6307C151.563 55.8277 151.311 55.9261 151.016 55.9261ZM158.513 66V54.3636H160.212V58.6875H160.314C160.412 58.5057 160.554 58.2955 160.74 58.0568C160.926 57.8182 161.183 57.6098 161.513 57.4318C161.842 57.25 162.278 57.1591 162.82 57.1591C163.524 57.1591 164.153 57.3371 164.706 57.6932C165.259 58.0492 165.693 58.5625 166.007 59.233C166.325 59.9034 166.484 60.7102 166.484 61.6534C166.484 62.5966 166.327 63.4053 166.013 64.0795C165.698 64.75 165.267 65.267 164.717 65.6307C164.168 65.9905 163.541 66.1705 162.837 66.1705C162.306 66.1705 161.873 66.0814 161.536 65.9034C161.202 65.7254 160.941 65.517 160.751 65.2784C160.562 65.0398 160.416 64.8277 160.314 64.642H160.172V66H158.513ZM160.178 61.6364C160.178 62.25 160.267 62.7879 160.445 63.25C160.623 63.7121 160.88 64.0739 161.217 64.3352C161.554 64.5928 161.967 64.7216 162.456 64.7216C162.964 64.7216 163.388 64.5871 163.729 64.3182C164.07 64.0455 164.327 63.6761 164.501 63.2102C164.679 62.7443 164.768 62.2197 164.768 61.6364C164.768 61.0606 164.681 60.5436 164.507 60.0852C164.337 59.6269 164.079 59.2652 163.734 59C163.393 58.7348 162.967 58.6023 162.456 58.6023C161.964 58.6023 161.547 58.7292 161.206 58.983C160.869 59.2367 160.613 59.5909 160.439 60.0455C160.265 60.5 160.178 61.0303 160.178 61.6364ZM172.068 66.1761C171.25 66.1761 170.536 65.9886 169.926 65.6136C169.316 65.2386 168.843 64.714 168.506 64.0398C168.169 63.3655 168 62.5777 168 61.6761C168 60.7708 168.169 59.9792 168.506 59.3011C168.843 58.6231 169.316 58.0966 169.926 57.7216C170.536 57.3466 171.25 57.1591 172.068 57.1591C172.886 57.1591 173.6 57.3466 174.21 57.7216C174.82 58.0966 175.294 58.6231 175.631 59.3011C175.968 59.9792 176.136 60.7708 176.136 61.6761C176.136 62.5777 175.968 63.3655 175.631 64.0398C175.294 64.714 174.82 65.2386 174.21 65.6136C173.6 65.9886 172.886 66.1761 172.068 66.1761ZM172.074 64.75C172.604 64.75 173.044 64.6098 173.392 64.3295C173.741 64.0492 173.998 63.6761 174.165 63.2102C174.335 62.7443 174.42 62.2311 174.42 61.6705C174.42 61.1136 174.335 60.6023 174.165 60.1364C173.998 59.6667 173.741 59.2898 173.392 59.0057C173.044 58.7216 172.604 58.5795 172.074 58.5795C171.54 58.5795 171.097 58.7216 170.744 59.0057C170.396 59.2898 170.136 59.6667 169.966 60.1364C169.799 60.6023 169.716 61.1136 169.716 61.6705C169.716 62.2311 169.799 62.7443 169.966 63.2102C170.136 63.6761 170.396 64.0492 170.744 64.3295C171.097 64.6098 171.54 64.75 172.074 64.75ZM182.107 57.2727V58.6364H177.339V57.2727H182.107ZM178.618 55.1818H180.317V63.4375C180.317 63.767 180.366 64.0152 180.464 64.1818C180.563 64.3447 180.69 64.4564 180.845 64.517C181.004 64.5739 181.177 64.6023 181.362 64.6023C181.499 64.6023 181.618 64.5928 181.72 64.5739C181.822 64.5549 181.902 64.5398 181.959 64.5284L182.266 65.9318C182.167 65.9697 182.027 66.0076 181.845 66.0455C181.663 66.0871 181.436 66.1098 181.163 66.1136C180.716 66.1212 180.3 66.0417 179.913 65.875C179.527 65.7083 179.214 65.4508 178.976 65.1023C178.737 64.7538 178.618 64.3163 178.618 63.7898V55.1818ZM185.872 60.8182V66H184.173V54.3636H185.849V58.6932H185.957C186.162 58.2235 186.474 57.8504 186.895 57.5739C187.315 57.2973 187.865 57.1591 188.543 57.1591C189.141 57.1591 189.664 57.2822 190.111 57.5284C190.562 57.7746 190.91 58.142 191.156 58.6307C191.406 59.1155 191.531 59.7216 191.531 60.4489V66H189.832V60.6534C189.832 60.0133 189.668 59.517 189.338 59.1648C189.009 58.8087 188.55 58.6307 187.963 58.6307C187.562 58.6307 187.202 58.7159 186.884 58.8864C186.569 59.0568 186.321 59.3068 186.139 59.6364C185.961 59.9621 185.872 60.3561 185.872 60.8182ZM197.56 66.1761C196.7 66.1761 195.959 65.9924 195.338 65.625C194.721 65.2538 194.243 64.733 193.906 64.0625C193.573 63.3883 193.406 62.5985 193.406 61.6932C193.406 60.7992 193.573 60.0114 193.906 59.3295C194.243 58.6477 194.713 58.1155 195.315 57.733C195.921 57.3504 196.63 57.1591 197.44 57.1591C197.933 57.1591 198.41 57.2405 198.872 57.4034C199.334 57.5663 199.749 57.822 200.116 58.1705C200.484 58.5189 200.774 58.9716 200.986 59.5284C201.198 60.0814 201.304 60.7538 201.304 61.5455V62.1477H194.366V60.875H199.639C199.639 60.428 199.548 60.0322 199.366 59.6875C199.185 59.339 198.929 59.0644 198.599 58.8636C198.274 58.6629 197.891 58.5625 197.452 58.5625C196.974 58.5625 196.558 58.6799 196.202 58.9148C195.849 59.1458 195.577 59.4489 195.384 59.8239C195.194 60.1951 195.099 60.5985 195.099 61.0341V62.0284C195.099 62.6117 195.202 63.108 195.406 63.517C195.615 63.9261 195.904 64.2386 196.276 64.4545C196.647 64.6667 197.08 64.7727 197.577 64.7727C197.899 64.7727 198.192 64.7273 198.457 64.6364C198.723 64.5417 198.952 64.4015 199.145 64.2159C199.338 64.0303 199.486 63.8011 199.588 63.5284L201.196 63.8182C201.067 64.2917 200.836 64.7064 200.503 65.0625C200.173 65.4148 199.759 65.6894 199.259 65.8864C198.762 66.0795 198.196 66.1761 197.56 66.1761ZM203.189 66V57.2727H204.831V58.6591H204.922C205.081 58.1894 205.361 57.8201 205.763 57.5511C206.168 57.2784 206.626 57.142 207.138 57.142C207.244 57.142 207.369 57.1458 207.513 57.1534C207.661 57.161 207.776 57.1705 207.859 57.1818V58.8068C207.791 58.7879 207.67 58.767 207.496 58.7443C207.321 58.7178 207.147 58.7045 206.973 58.7045C206.571 58.7045 206.214 58.7898 205.899 58.9602C205.589 59.1269 205.342 59.3598 205.161 59.6591C204.979 59.9545 204.888 60.2917 204.888 60.6705V66H203.189ZM214.638 69.2727C214.384 69.2727 214.153 69.2519 213.945 69.2102C213.736 69.1723 213.581 69.1307 213.479 69.0852L213.888 67.6932C214.198 67.7765 214.475 67.8125 214.717 67.8011C214.96 67.7898 215.174 67.6989 215.359 67.5284C215.549 67.358 215.715 67.0795 215.859 66.6932L216.07 66.1136L212.876 57.2727H214.695L216.905 64.0455H216.996L219.206 57.2727H221.03L217.433 67.1648C217.267 67.6193 217.054 68.0038 216.797 68.3182C216.539 68.6364 216.232 68.875 215.876 69.0341C215.52 69.1932 215.107 69.2727 214.638 69.2727ZM226.006 66.1761C225.188 66.1761 224.473 65.9886 223.864 65.6136C223.254 65.2386 222.78 64.714 222.443 64.0398C222.106 63.3655 221.938 62.5777 221.938 61.6761C221.938 60.7708 222.106 59.9792 222.443 59.3011C222.78 58.6231 223.254 58.0966 223.864 57.7216C224.473 57.3466 225.188 57.1591 226.006 57.1591C226.824 57.1591 227.538 57.3466 228.148 57.7216C228.758 58.0966 229.231 58.6231 229.568 59.3011C229.905 59.9792 230.074 60.7708 230.074 61.6761C230.074 62.5777 229.905 63.3655 229.568 64.0398C229.231 64.714 228.758 65.2386 228.148 65.6136C227.538 65.9886 226.824 66.1761 226.006 66.1761ZM226.011 64.75C226.542 64.75 226.981 64.6098 227.33 64.3295C227.678 64.0492 227.936 63.6761 228.102 63.2102C228.273 62.7443 228.358 62.2311 228.358 61.6705C228.358 61.1136 228.273 60.6023 228.102 60.1364C227.936 59.6667 227.678 59.2898 227.33 59.0057C226.981 58.7216 226.542 58.5795 226.011 58.5795C225.477 58.5795 225.034 58.7216 224.682 59.0057C224.333 59.2898 224.074 59.6667 223.903 60.1364C223.737 60.6023 223.653 61.1136 223.653 61.6705C223.653 62.2311 223.737 62.7443 223.903 63.2102C224.074 63.6761 224.333 64.0492 224.682 64.3295C225.034 64.6098 225.477 64.75 226.011 64.75ZM237.499 62.3807V57.2727H239.203V66H237.533V64.4886H237.442C237.241 64.9545 236.919 65.3428 236.476 65.6534C236.036 65.9602 235.489 66.1136 234.834 66.1136C234.273 66.1136 233.777 65.9905 233.345 65.7443C232.917 65.4943 232.58 65.125 232.334 64.6364C232.091 64.1477 231.97 63.5436 231.97 62.8239V57.2727H233.669V62.6193C233.669 63.214 233.834 63.6875 234.163 64.0398C234.493 64.392 234.921 64.5682 235.447 64.5682C235.766 64.5682 236.082 64.4886 236.396 64.3295C236.714 64.1705 236.978 63.9299 237.186 63.608C237.398 63.286 237.502 62.8769 237.499 62.3807Z" fill="white"/>
</g>
<defs>
<filter id="filter0_d_2219_3062" x="2.96826" y="2.1582" width="20.4644" height="22.4766" filterUnits="userSpaceOnUse" color-interpolation-filters="sRGB">
<feFlood flood-opacity="0" result="BackgroundImageFix"/>
<feColorMatrix in="SourceAlpha" type="matrix" values="0 0 0 0 0 0 0 0 0 0 0 0 0 0 0 0 0 0 127 0" result="hardAlpha"/>
<feOffset dy="1"/>
<feGaussianBlur stdDeviation="1"/>
<feComposite in2="hardAlpha" operator="out"/>
<feColorMatrix type="matrix" values="0 0 0 0 0 0 0 0 0 0 0 0 0 0 0 0 0 0 0.25 0"/>
<feBlend mode="normal" in2="BackgroundImageFix" result="effect1_dropShadow_2219_3062"/>
<feBlend mode="normal" in="SourceGraphic" in2="effect1_dropShadow_2219_3062" result="shape"/>
</filter>
<filter id="filter1_d_2219_3062" x="12" y="14" width="263" height="80" filterUnits="userSpaceOnUse" color-interpolation-filters="sRGB">
<feFlood flood-opacity="0" result="BackgroundImageFix"/>
<feColorMatrix in="SourceAlpha" type="matrix" values="0 0 0 0 0 0 0 0 0 0 0 0 0 0 0 0 0 0 127 0" result="hardAlpha"/>
<feOffset dx="4" dy="4"/>
<feGaussianBlur stdDeviation="5"/>
<feComposite in2="hardAlpha" operator="out"/>
<feColorMatrix type="matrix" values="0 0 0 0 0.968627 0 0 0 0 0.819608 0 0 0 0 0.345098 0 0 0 0.16 0"/>
<feBlend mode="normal" in2="BackgroundImageFix" result="effect1_dropShadow_2219_3062"/>
<feBlend mode="normal" in="SourceGraphic" in2="effect1_dropShadow_2219_3062" result="shape"/>
</filter>
</defs>
</svg>
