<svg width="271" height="94" viewBox="0 0 271 94" fill="none" xmlns="http://www.w3.org/2000/svg">
<g filter="url(#filter0_d_2196_2140)">
<path d="M8.81678 20.3643L5.66312 4.11451L20.143 12.1353L13.0104 14.2272L8.81678 20.3643Z" fill="#1570EF"/>
<path d="M8.81678 20.3643L5.66312 4.11451L20.143 12.1353L13.0104 14.2272L8.81678 20.3643Z" stroke="white"/>
</g>
<g filter="url(#filter1_d_2196_2140)">
<path d="M18 22C18 20.8954 18.8954 20 20 20H233C246.255 20 257 30.7452 257 44V56C257 69.2548 246.255 80 233 80H42C28.7452 80 18 69.2548 18 56V22Z" fill="#1570EF" shape-rendering="crispEdges"/>
<path d="M20 21H233C245.703 21 256 31.2975 256 44V56C256 68.7025 245.703 79 233 79H42C29.2974 79 19 68.7025 19 56V22C19 21.4477 19.4477 21 20 21Z" stroke="#1570EF" stroke-width="2" shape-rendering="crispEdges"/>
<path opacity="0.8" d="M35.0387 43V33.5455H40.9016V34.7734H36.4652V37.6541H40.4815V38.8775H36.4652V43H35.0387ZM42.5451 43V35.9091H43.9254V43H42.5451ZM43.2422 34.815C43.0021 34.815 42.7959 34.735 42.6236 34.5749C42.4543 34.4118 42.3697 34.2179 42.3697 33.9933C42.3697 33.7655 42.4543 33.5716 42.6236 33.4116C42.7959 33.2485 43.0021 33.1669 43.2422 33.1669C43.4822 33.1669 43.6869 33.2485 43.8562 33.4116C44.0285 33.5716 44.1147 33.7655 44.1147 33.9933C44.1147 34.2179 44.0285 34.4118 43.8562 34.5749C43.6869 34.735 43.4822 34.815 43.2422 34.815ZM48.7554 45.8068C48.1922 45.8068 47.7075 45.733 47.3012 45.5852C46.8981 45.4375 46.5687 45.2421 46.3133 44.9989C46.0579 44.7558 45.867 44.4896 45.7409 44.2003L46.9273 43.7109C47.0104 43.8464 47.1212 43.9895 47.2597 44.1403C47.4012 44.2942 47.5921 44.425 47.8321 44.5327C48.0753 44.6404 48.3876 44.6942 48.7693 44.6942C49.2925 44.6942 49.7249 44.5665 50.0665 44.3111C50.4081 44.0587 50.5789 43.6555 50.5789 43.1016V41.7074H50.4912C50.4081 41.8582 50.2881 42.0259 50.1311 42.2106C49.9772 42.3952 49.7649 42.5553 49.4941 42.6907C49.2232 42.8261 48.8708 42.8938 48.4369 42.8938C47.8767 42.8938 47.372 42.763 46.9227 42.5014C46.4764 42.2367 46.1225 41.8474 45.8609 41.3335C45.6024 40.8164 45.4731 40.1809 45.4731 39.4268C45.4731 38.6728 45.6008 38.0265 45.8563 37.4879C46.1148 36.9493 46.4687 36.5369 46.9181 36.2507C47.3674 35.9614 47.8767 35.8168 48.4461 35.8168C48.8862 35.8168 49.2417 35.8906 49.5125 36.0384C49.7834 36.183 49.9942 36.3523 50.145 36.5462C50.2989 36.7401 50.4173 36.9109 50.5004 37.0586H50.602V35.9091H51.9546V43.157C51.9546 43.7663 51.8131 44.2665 51.5299 44.6573C51.2468 45.0482 50.8636 45.3375 50.3804 45.5252C49.9003 45.7129 49.3586 45.8068 48.7554 45.8068ZM48.7416 41.7489C49.1386 41.7489 49.474 41.6566 49.748 41.4719C50.0249 41.2842 50.2342 41.0165 50.3758 40.6687C50.5204 40.3178 50.5928 39.8977 50.5928 39.4084C50.5928 38.9313 50.522 38.5112 50.3804 38.1481C50.2388 37.7849 50.0311 37.5018 49.7572 37.2987C49.4833 37.0924 49.1447 36.9893 48.7416 36.9893C48.3261 36.9893 47.9798 37.0971 47.7029 37.3125C47.4259 37.5249 47.2166 37.8142 47.075 38.1804C46.9365 38.5466 46.8673 38.956 46.8673 39.4084C46.8673 39.8731 46.9381 40.2809 47.0796 40.6317C47.2212 40.9826 47.4305 41.2565 47.7075 41.4535C47.9875 41.6504 48.3322 41.7489 48.7416 41.7489ZM53.8058 43V35.9091H55.1308V37.0632H55.2185C55.3662 36.6723 55.6078 36.3677 55.9433 36.1491C56.2787 35.9276 56.6804 35.8168 57.1482 35.8168C57.6221 35.8168 58.0191 35.9276 58.3392 36.1491C58.6624 36.3707 58.9009 36.6754 59.0548 37.0632H59.1286C59.2979 36.6847 59.5672 36.383 59.9365 36.1584C60.3058 35.9306 60.7459 35.8168 61.2568 35.8168C61.9001 35.8168 62.4248 36.0183 62.8311 36.4215C63.2404 36.8247 63.445 37.4325 63.445 38.245V43H62.0647V38.3743C62.0647 37.8942 61.9339 37.5464 61.6723 37.331C61.4107 37.1155 61.0983 37.0078 60.7352 37.0078C60.2858 37.0078 59.9365 37.1463 59.6872 37.4233C59.4379 37.6972 59.3133 38.0496 59.3133 38.4805V43H57.9376V38.2866C57.9376 37.9019 57.8176 37.5926 57.5775 37.3587C57.3374 37.1248 57.0251 37.0078 56.6404 37.0078C56.3788 37.0078 56.1372 37.0771 55.9156 37.2156C55.6971 37.351 55.5201 37.5402 55.3847 37.7834C55.2523 38.0265 55.1862 38.3081 55.1862 38.6282V43H53.8058ZM67.3587 43.157C66.9093 43.157 66.5031 43.0739 66.1399 42.9077C65.7768 42.7384 65.489 42.4937 65.2766 42.1737C65.0674 41.8536 64.9627 41.4612 64.9627 40.9964C64.9627 40.5964 65.0397 40.267 65.1935 40.0085C65.3474 39.75 65.5552 39.5453 65.8168 39.3945C66.0784 39.2437 66.3707 39.1299 66.6939 39.0529C67.017 38.976 67.3464 38.9175 67.6818 38.8775C68.1065 38.8282 68.4512 38.7882 68.7159 38.7575C68.9806 38.7236 69.1729 38.6697 69.293 38.5959C69.413 38.522 69.473 38.402 69.473 38.2358V38.2035C69.473 37.8003 69.3591 37.4879 69.1314 37.2663C68.9067 37.0447 68.5713 36.9339 68.125 36.9339C67.6603 36.9339 67.294 37.037 67.0263 37.2433C66.7616 37.4464 66.5785 37.6726 66.4769 37.9219L65.1797 37.6264C65.3336 37.1955 65.5582 36.8478 65.8537 36.5831C66.1522 36.3153 66.4954 36.1214 66.8832 36.0014C67.271 35.8783 67.6787 35.8168 68.1065 35.8168C68.3897 35.8168 68.6897 35.8506 69.0067 35.9183C69.3268 35.983 69.6254 36.103 69.9023 36.2784C70.1824 36.4538 70.4117 36.7047 70.5902 37.0309C70.7687 37.354 70.858 37.7741 70.858 38.2912V43H69.5099V42.0305H69.4545C69.3653 42.209 69.2314 42.3845 69.0529 42.5568C68.8744 42.7292 68.6451 42.8723 68.3651 42.9862C68.085 43.1 67.7495 43.157 67.3587 43.157ZM67.6587 42.049C68.0404 42.049 68.3666 41.9736 68.6374 41.8228C68.9113 41.672 69.1191 41.475 69.2607 41.2319C69.4053 40.9857 69.4776 40.7225 69.4776 40.4425V39.5284C69.4284 39.5777 69.333 39.6238 69.1914 39.6669C69.0529 39.7069 68.8944 39.7423 68.7159 39.7731C68.5374 39.8008 68.3635 39.8269 68.1942 39.8516C68.025 39.8731 67.8834 39.8916 67.7695 39.907C67.5018 39.9408 67.2571 39.9978 67.0355 40.0778C66.817 40.1578 66.6416 40.2732 66.5092 40.424C66.38 40.5717 66.3153 40.7687 66.3153 41.0149C66.3153 41.3565 66.4415 41.6151 66.6939 41.7905C66.9463 41.9628 67.2679 42.049 67.6587 42.049ZM81.4043 36.0291C81.3551 35.5921 81.1519 35.2536 80.7949 35.0135C80.4379 34.7704 79.9886 34.6488 79.4469 34.6488C79.0591 34.6488 78.7237 34.7103 78.4405 34.8335C78.1574 34.9535 77.9373 35.1197 77.7804 35.332C77.6265 35.5413 77.5495 35.7798 77.5495 36.0476C77.5495 36.2723 77.6019 36.4661 77.7065 36.6293C77.8142 36.7924 77.9542 36.9293 78.1266 37.0401C78.302 37.1478 78.4898 37.2386 78.6898 37.3125C78.8899 37.3833 79.0822 37.4418 79.2669 37.4879L80.1902 37.728C80.4918 37.8018 80.8011 37.9019 81.1181 38.0281C81.4351 38.1542 81.729 38.3204 81.9998 38.5266C82.2707 38.7328 82.4892 38.9883 82.6554 39.293C82.8246 39.5977 82.9093 39.9624 82.9093 40.3871C82.9093 40.9226 82.7708 41.3981 82.4938 41.8136C82.2199 42.229 81.8213 42.5568 81.2981 42.7969C80.778 43.0369 80.1486 43.157 79.41 43.157C78.7021 43.157 78.0897 43.0446 77.5726 42.82C77.0556 42.5953 76.6509 42.2768 76.3585 41.8643C76.0661 41.4489 75.9045 40.9564 75.8738 40.3871H77.3049C77.3326 40.7287 77.4434 41.0134 77.6373 41.2411C77.8342 41.4658 78.085 41.6335 78.3897 41.7443C78.6975 41.852 79.0345 41.9059 79.4007 41.9059C79.8039 41.9059 80.1625 41.8428 80.4764 41.7166C80.7934 41.5874 81.0427 41.4089 81.2243 41.1811C81.4058 40.9503 81.4966 40.681 81.4966 40.3732C81.4966 40.0932 81.4166 39.8639 81.2566 39.6854C81.0996 39.5069 80.8857 39.3591 80.6149 39.2422C80.3471 39.1252 80.044 39.0221 79.7054 38.9329L78.5882 38.6282C77.8311 38.422 77.231 38.1188 76.7878 37.7188C76.3477 37.3187 76.1277 36.7893 76.1277 36.1307C76.1277 35.5859 76.2754 35.1104 76.5708 34.7042C76.8663 34.2979 77.2664 33.9825 77.7711 33.7578C78.2759 33.5301 78.8452 33.4162 79.4792 33.4162C80.1194 33.4162 80.6841 33.5285 81.1735 33.7532C81.6659 33.9779 82.0537 34.2872 82.3368 34.6811C82.62 35.072 82.7677 35.5213 82.78 36.0291H81.4043ZM87.8131 35.9091V37.017H83.9399V35.9091H87.8131ZM84.9786 34.2102H86.3589V40.918C86.3589 41.1857 86.3989 41.3873 86.479 41.5227C86.559 41.6551 86.6621 41.7459 86.7883 41.7951C86.9175 41.8413 87.0576 41.8643 87.2084 41.8643C87.3192 41.8643 87.4161 41.8567 87.4992 41.8413C87.5823 41.8259 87.6469 41.8136 87.6931 41.8043L87.9424 42.9446C87.8624 42.9754 87.7485 43.0062 87.6008 43.0369C87.453 43.0708 87.2684 43.0893 87.0468 43.0923C86.6836 43.0985 86.3451 43.0339 86.0312 42.8984C85.7172 42.763 85.4633 42.5537 85.2694 42.2706C85.0756 41.9875 84.9786 41.632 84.9786 41.2042V34.2102ZM91.4036 43.157C90.9542 43.157 90.548 43.0739 90.1848 42.9077C89.8217 42.7384 89.5339 42.4937 89.3216 42.1737C89.1123 41.8536 89.0076 41.4612 89.0076 40.9964C89.0076 40.5964 89.0846 40.267 89.2385 40.0085C89.3923 39.75 89.6001 39.5453 89.8617 39.3945C90.1233 39.2437 90.4157 39.1299 90.7388 39.0529C91.062 38.976 91.3913 38.9175 91.7267 38.8775C92.1515 38.8282 92.4962 38.7882 92.7608 38.7575C93.0255 38.7236 93.2179 38.6697 93.3379 38.5959C93.4579 38.522 93.5179 38.402 93.5179 38.2358V38.2035C93.5179 37.8003 93.4041 37.4879 93.1763 37.2663C92.9516 37.0447 92.6162 36.9339 92.1699 36.9339C91.7052 36.9339 91.339 37.037 91.0712 37.2433C90.8065 37.4464 90.6234 37.6726 90.5218 37.9219L89.2246 37.6264C89.3785 37.1955 89.6032 36.8478 89.8986 36.5831C90.1971 36.3153 90.5403 36.1214 90.9281 36.0014C91.3159 35.8783 91.7237 35.8168 92.1515 35.8168C92.4346 35.8168 92.7347 35.8506 93.0517 35.9183C93.3717 35.983 93.6703 36.103 93.9473 36.2784C94.2273 36.4538 94.4566 36.7047 94.6351 37.0309C94.8136 37.354 94.9029 37.7741 94.9029 38.2912V43H93.5549V42.0305H93.4995C93.4102 42.209 93.2763 42.3845 93.0978 42.5568C92.9193 42.7292 92.69 42.8723 92.41 42.9862C92.1299 43.1 91.7944 43.157 91.4036 43.157ZM91.7037 42.049C92.0853 42.049 92.4115 41.9736 92.6824 41.8228C92.9563 41.672 93.164 41.475 93.3056 41.2319C93.4502 40.9857 93.5225 40.7225 93.5225 40.4425V39.5284C93.4733 39.5777 93.3779 39.6238 93.2363 39.6669C93.0978 39.7069 92.9393 39.7423 92.7608 39.7731C92.5823 39.8008 92.4084 39.8269 92.2392 39.8516C92.0699 39.8731 91.9283 39.8916 91.8145 39.907C91.5467 39.9408 91.302 39.9978 91.0804 40.0778C90.8619 40.1578 90.6865 40.2732 90.5542 40.424C90.4249 40.5717 90.3603 40.7687 90.3603 41.0149C90.3603 41.3565 90.4864 41.6151 90.7388 41.7905C90.9912 41.9628 91.3128 42.049 91.7037 42.049ZM98.1217 33.5455V43H96.7414V33.5455H98.1217ZM101.248 40.5948L101.239 38.9098H101.479L104.304 35.9091H105.957L102.735 39.3253H102.518L101.248 40.5948ZM99.9787 43V33.5455H101.359V43H99.9787ZM104.457 43L101.918 39.63L102.869 38.6651L106.151 43H104.457ZM109.979 43.1431C109.281 43.1431 108.679 42.9938 108.174 42.6953C107.672 42.3937 107.285 41.9705 107.011 41.4258C106.74 40.878 106.604 40.2363 106.604 39.5007C106.604 38.7744 106.74 38.1342 107.011 37.5803C107.285 37.0263 107.666 36.5939 108.156 36.283C108.648 35.9722 109.224 35.8168 109.882 35.8168C110.282 35.8168 110.67 35.8829 111.046 36.0153C111.421 36.1476 111.758 36.3554 112.057 36.6385C112.355 36.9216 112.591 37.2894 112.763 37.7418C112.935 38.1912 113.021 38.7375 113.021 39.3807V39.87H107.385V38.8359H111.669C111.669 38.4728 111.595 38.1512 111.447 37.8711C111.299 37.5879 111.092 37.3648 110.824 37.2017C110.559 37.0386 110.248 36.957 109.891 36.957C109.504 36.957 109.165 37.0524 108.876 37.2433C108.59 37.431 108.368 37.6772 108.211 37.9819C108.057 38.2835 107.98 38.6113 107.98 38.9652V39.7731C107.98 40.247 108.063 40.6502 108.229 40.9826C108.399 41.315 108.634 41.5689 108.936 41.7443C109.237 41.9167 109.59 42.0028 109.993 42.0028C110.255 42.0028 110.493 41.9659 110.709 41.892C110.924 41.8151 111.11 41.7012 111.267 41.5504C111.424 41.3996 111.544 41.2134 111.627 40.9918L112.934 41.2273C112.829 41.612 112.641 41.949 112.37 42.2383C112.103 42.5245 111.766 42.7476 111.359 42.9077C110.956 43.0646 110.496 43.1431 109.979 43.1431ZM114.553 43V35.9091H115.887V37.0355H115.961C116.09 36.6539 116.318 36.3538 116.644 36.1353C116.973 35.9137 117.346 35.8029 117.761 35.8029C117.848 35.8029 117.949 35.806 118.066 35.8121C118.186 35.8183 118.28 35.826 118.348 35.8352V37.1555C118.292 37.1402 118.194 37.1232 118.052 37.1048C117.911 37.0832 117.769 37.0724 117.627 37.0724C117.301 37.0724 117.01 37.1417 116.755 37.2802C116.503 37.4156 116.303 37.6049 116.155 37.848C116.007 38.0881 115.933 38.362 115.933 38.6697V43H114.553Z" fill="white" fill-opacity="0.7"/>
<path d="M35.142 66V57.2727H36.8409V66H35.142ZM36 55.9261C35.7045 55.9261 35.4508 55.8277 35.2386 55.6307C35.0303 55.4299 34.9261 55.1913 34.9261 54.9148C34.9261 54.6345 35.0303 54.3958 35.2386 54.1989C35.4508 53.9981 35.7045 53.8977 36 53.8977C36.2955 53.8977 36.5473 53.9981 36.7557 54.1989C36.9678 54.3958 37.0739 54.6345 37.0739 54.9148C37.0739 55.1913 36.9678 55.4299 36.7557 55.6307C36.5473 55.8277 36.2955 55.9261 36 55.9261ZM42.3935 66.1705C41.6889 66.1705 41.0601 65.9905 40.5071 65.6307C39.9579 65.267 39.526 64.75 39.2116 64.0795C38.901 63.4053 38.7457 62.5966 38.7457 61.6534C38.7457 60.7102 38.9029 59.9034 39.2173 59.233C39.5355 58.5625 39.9711 58.0492 40.5241 57.6932C41.0772 57.3371 41.7041 57.1591 42.4048 57.1591C42.9465 57.1591 43.3821 57.25 43.7116 57.4318C44.045 57.6098 44.3026 57.8182 44.4844 58.0568C44.67 58.2955 44.8139 58.5057 44.9162 58.6875H45.0185V54.3636H46.7173V66H45.0582V64.642H44.9162C44.8139 64.8277 44.6662 65.0398 44.473 65.2784C44.2836 65.517 44.0223 65.7254 43.6889 65.9034C43.3556 66.0814 42.9238 66.1705 42.3935 66.1705ZM42.7685 64.7216C43.2571 64.7216 43.67 64.5928 44.0071 64.3352C44.348 64.0739 44.6056 63.7121 44.7798 63.25C44.9579 62.7879 45.0469 62.25 45.0469 61.6364C45.0469 61.0303 44.9598 60.5 44.7855 60.0455C44.6113 59.5909 44.3556 59.2367 44.0185 58.983C43.6813 58.7292 43.2647 58.6023 42.7685 58.6023C42.2571 58.6023 41.831 58.7348 41.4901 59C41.1491 59.2652 40.8916 59.6269 40.7173 60.0852C40.5469 60.5436 40.4616 61.0606 40.4616 61.6364C40.4616 62.2197 40.5488 62.7443 40.723 63.2102C40.8973 63.6761 41.1548 64.0455 41.4957 64.3182C41.8404 64.5871 42.2647 64.7216 42.7685 64.7216ZM52.8011 69.4545C52.108 69.4545 51.5114 69.3636 51.0114 69.1818C50.5152 69 50.1098 68.7595 49.7955 68.4602C49.4811 68.161 49.2462 67.8333 49.0909 67.4773L50.5511 66.875C50.6534 67.0417 50.7898 67.2178 50.9602 67.4034C51.1345 67.5928 51.3693 67.7538 51.6648 67.8864C51.964 68.0189 52.3485 68.0852 52.8182 68.0852C53.4621 68.0852 53.9943 67.928 54.4148 67.6136C54.8352 67.303 55.0455 66.8068 55.0455 66.125V64.4091H54.9375C54.8352 64.5947 54.6875 64.8011 54.4943 65.0284C54.3049 65.2557 54.0436 65.4527 53.7102 65.6193C53.3769 65.786 52.9432 65.8693 52.4091 65.8693C51.7197 65.8693 51.0985 65.7083 50.5455 65.3864C49.9962 65.0606 49.5606 64.5814 49.2386 63.9489C48.9205 63.3125 48.7614 62.5303 48.7614 61.6023C48.7614 60.6742 48.9186 59.8788 49.233 59.2159C49.5511 58.553 49.9867 58.0455 50.5398 57.6932C51.0928 57.3371 51.7197 57.1591 52.4205 57.1591C52.9621 57.1591 53.3996 57.25 53.733 57.4318C54.0663 57.6098 54.3258 57.8182 54.5114 58.0568C54.7008 58.2955 54.8466 58.5057 54.9489 58.6875H55.0739V57.2727H56.7386V66.1932C56.7386 66.9432 56.5644 67.5587 56.2159 68.0398C55.8674 68.5208 55.3958 68.8769 54.8011 69.108C54.2102 69.339 53.5436 69.4545 52.8011 69.4545ZM52.7841 64.4602C53.2727 64.4602 53.6856 64.3466 54.0227 64.1193C54.3636 63.8883 54.6212 63.5587 54.7955 63.1307C54.9735 62.6989 55.0625 62.1818 55.0625 61.5795C55.0625 60.9924 54.9754 60.4754 54.8011 60.0284C54.6269 59.5814 54.3712 59.233 54.0341 58.983C53.697 58.7292 53.2803 58.6023 52.7841 58.6023C52.2727 58.6023 51.8466 58.7348 51.5057 59C51.1648 59.2614 50.9072 59.6174 50.733 60.0682C50.5625 60.5189 50.4773 61.0227 50.4773 61.5795C50.4773 62.1515 50.5644 62.6534 50.7386 63.0852C50.9129 63.517 51.1705 63.8542 51.5114 64.0966C51.8561 64.339 52.2803 64.4602 52.7841 64.4602ZM59.017 66V57.2727H60.7159V66H59.017ZM59.875 55.9261C59.5795 55.9261 59.3258 55.8277 59.1136 55.6307C58.9053 55.4299 58.8011 55.1913 58.8011 54.9148C58.8011 54.6345 58.9053 54.3958 59.1136 54.1989C59.3258 53.9981 59.5795 53.8977 59.875 53.8977C60.1705 53.8977 60.4223 53.9981 60.6307 54.1989C60.8428 54.3958 60.9489 54.6345 60.9489 54.9148C60.9489 55.1913 60.8428 55.4299 60.6307 55.6307C60.4223 55.8277 60.1705 55.9261 59.875 55.9261ZM69.1278 66L66.5597 57.2727H68.3153L70.0256 63.6818H70.1108L71.8267 57.2727H73.5824L75.2869 63.6534H75.3722L77.071 57.2727H78.8267L76.2642 66H74.5312L72.7585 59.6989H72.6278L70.8551 66H69.1278ZM82.1378 60.8182V66H80.4389V54.3636H82.1151V58.6932H82.223C82.4276 58.2235 82.7401 57.8504 83.1605 57.5739C83.581 57.2973 84.1302 57.1591 84.8082 57.1591C85.4067 57.1591 85.9295 57.2822 86.3764 57.5284C86.8272 57.7746 87.1757 58.142 87.4219 58.6307C87.6719 59.1155 87.7969 59.7216 87.7969 60.4489V66H86.098V60.6534C86.098 60.0133 85.9332 59.517 85.6037 59.1648C85.2741 58.8087 84.8158 58.6307 84.2287 58.6307C83.8272 58.6307 83.4673 58.7159 83.1491 58.8864C82.8348 59.0568 82.5866 59.3068 82.4048 59.6364C82.2268 59.9621 82.1378 60.3561 82.1378 60.8182ZM90.8253 69.2727C90.5715 69.2727 90.3404 69.2519 90.1321 69.2102C89.9238 69.1723 89.7685 69.1307 89.6662 69.0852L90.0753 67.6932C90.3859 67.7765 90.6624 67.8125 90.9048 67.8011C91.1473 67.7898 91.3613 67.6989 91.5469 67.5284C91.7363 67.358 91.9029 67.0795 92.0469 66.6932L92.2571 66.1136L89.0639 57.2727H90.8821L93.0923 64.0455H93.1832L95.3935 57.2727H97.2173L93.6207 67.1648C93.4541 67.6193 93.242 68.0038 92.9844 68.3182C92.7268 68.6364 92.42 68.875 92.0639 69.0341C91.7079 69.1932 91.295 69.2727 90.8253 69.2727ZM106.315 66.1705C105.611 66.1705 104.982 65.9905 104.429 65.6307C103.88 65.267 103.448 64.75 103.134 64.0795C102.823 63.4053 102.668 62.5966 102.668 61.6534C102.668 60.7102 102.825 59.9034 103.139 59.233C103.457 58.5625 103.893 58.0492 104.446 57.6932C104.999 57.3371 105.626 57.1591 106.327 57.1591C106.868 57.1591 107.304 57.25 107.634 57.4318C107.967 57.6098 108.224 57.8182 108.406 58.0568C108.592 58.2955 108.736 58.5057 108.838 58.6875H108.94V54.3636H110.639V66H108.98V64.642H108.838C108.736 64.8277 108.588 65.0398 108.395 65.2784C108.205 65.517 107.944 65.7254 107.611 65.9034C107.277 66.0814 106.846 66.1705 106.315 66.1705ZM106.69 64.7216C107.179 64.7216 107.592 64.5928 107.929 64.3352C108.27 64.0739 108.527 63.7121 108.702 63.25C108.88 62.7879 108.969 62.25 108.969 61.6364C108.969 61.0303 108.882 60.5 108.707 60.0455C108.533 59.5909 108.277 59.2367 107.94 58.983C107.603 58.7292 107.187 58.6023 106.69 58.6023C106.179 58.6023 105.753 58.7348 105.412 59C105.071 59.2652 104.813 59.6269 104.639 60.0852C104.469 60.5436 104.384 61.0606 104.384 61.6364C104.384 62.2197 104.471 62.7443 104.645 63.2102C104.819 63.6761 105.077 64.0455 105.418 64.3182C105.762 64.5871 106.187 64.7216 106.69 64.7216ZM116.74 66.1761C115.922 66.1761 115.208 65.9886 114.598 65.6136C113.988 65.2386 113.515 64.714 113.178 64.0398C112.84 63.3655 112.672 62.5777 112.672 61.6761C112.672 60.7708 112.84 59.9792 113.178 59.3011C113.515 58.6231 113.988 58.0966 114.598 57.7216C115.208 57.3466 115.922 57.1591 116.74 57.1591C117.558 57.1591 118.272 57.3466 118.882 57.7216C119.492 58.0966 119.965 58.6231 120.303 59.3011C120.64 59.9792 120.808 60.7708 120.808 61.6761C120.808 62.5777 120.64 63.3655 120.303 64.0398C119.965 64.714 119.492 65.2386 118.882 65.6136C118.272 65.9886 117.558 66.1761 116.74 66.1761ZM116.746 64.75C117.276 64.75 117.715 64.6098 118.064 64.3295C118.412 64.0492 118.67 63.6761 118.837 63.2102C119.007 62.7443 119.092 62.2311 119.092 61.6705C119.092 61.1136 119.007 60.6023 118.837 60.1364C118.67 59.6667 118.412 59.2898 118.064 59.0057C117.715 58.7216 117.276 58.5795 116.746 58.5795C116.212 58.5795 115.768 58.7216 115.416 59.0057C115.068 59.2898 114.808 59.6667 114.638 60.1364C114.471 60.6023 114.388 61.1136 114.388 61.6705C114.388 62.2311 114.471 62.7443 114.638 63.2102C114.808 63.6761 115.068 64.0492 115.416 64.3295C115.768 64.6098 116.212 64.75 116.746 64.75ZM124.403 60.8182V66H122.705V57.2727H124.335V58.6932H124.443C124.644 58.2311 124.958 57.8598 125.386 57.5795C125.818 57.2992 126.362 57.1591 127.017 57.1591C127.612 57.1591 128.133 57.2841 128.58 57.5341C129.027 57.7803 129.373 58.1477 129.619 58.6364C129.866 59.125 129.989 59.7292 129.989 60.4489V66H128.29V60.6534C128.29 60.0208 128.125 59.5265 127.795 59.1705C127.466 58.8106 127.013 58.6307 126.438 58.6307C126.044 58.6307 125.693 58.7159 125.386 58.8864C125.083 59.0568 124.843 59.3068 124.665 59.6364C124.491 59.9621 124.403 60.3561 124.403 60.8182ZM133.727 54.3636V55.4545C133.727 55.7765 133.667 56.1155 133.545 56.4716C133.428 56.8239 133.261 57.1629 133.045 57.4886C132.83 57.8144 132.576 58.0947 132.284 58.3295L131.443 57.7273C131.667 57.4015 131.86 57.0549 132.023 56.6875C132.189 56.3201 132.273 55.9148 132.273 55.4716V54.3636H133.727ZM139.778 57.2727V58.6364H135.011V57.2727H139.778ZM136.29 55.1818H137.989V63.4375C137.989 63.767 138.038 64.0152 138.136 64.1818C138.235 64.3447 138.362 64.4564 138.517 64.517C138.676 64.5739 138.848 64.6023 139.034 64.6023C139.17 64.6023 139.29 64.5928 139.392 64.5739C139.494 64.5549 139.574 64.5398 139.631 64.5284L139.938 65.9318C139.839 65.9697 139.699 66.0076 139.517 66.0455C139.335 66.0871 139.108 66.1098 138.835 66.1136C138.388 66.1212 137.972 66.0417 137.585 65.875C137.199 65.7083 136.886 65.4508 136.648 65.1023C136.409 64.7538 136.29 64.3163 136.29 63.7898V55.1818ZM146.966 69.2727C146.712 69.2727 146.481 69.2519 146.273 69.2102C146.064 69.1723 145.909 69.1307 145.807 69.0852L146.216 67.6932C146.527 67.7765 146.803 67.8125 147.045 67.8011C147.288 67.7898 147.502 67.6989 147.688 67.5284C147.877 67.358 148.044 67.0795 148.188 66.6932L148.398 66.1136L145.205 57.2727H147.023L149.233 64.0455H149.324L151.534 57.2727H153.358L149.761 67.1648C149.595 67.6193 149.383 68.0038 149.125 68.3182C148.867 68.6364 148.561 68.875 148.205 69.0341C147.848 69.1932 147.436 69.2727 146.966 69.2727ZM158.334 66.1761C157.516 66.1761 156.802 65.9886 156.192 65.6136C155.582 65.2386 155.108 64.714 154.771 64.0398C154.434 63.3655 154.266 62.5777 154.266 61.6761C154.266 60.7708 154.434 59.9792 154.771 59.3011C155.108 58.6231 155.582 58.0966 156.192 57.7216C156.802 57.3466 157.516 57.1591 158.334 57.1591C159.152 57.1591 159.866 57.3466 160.476 57.7216C161.086 58.0966 161.559 58.6231 161.896 59.3011C162.233 59.9792 162.402 60.7708 162.402 61.6761C162.402 62.5777 162.233 63.3655 161.896 64.0398C161.559 64.714 161.086 65.2386 160.476 65.6136C159.866 65.9886 159.152 66.1761 158.334 66.1761ZM158.339 64.75C158.87 64.75 159.309 64.6098 159.658 64.3295C160.006 64.0492 160.264 63.6761 160.43 63.2102C160.601 62.7443 160.686 62.2311 160.686 61.6705C160.686 61.1136 160.601 60.6023 160.43 60.1364C160.264 59.6667 160.006 59.2898 159.658 59.0057C159.309 58.7216 158.87 58.5795 158.339 58.5795C157.805 58.5795 157.362 58.7216 157.01 59.0057C156.661 59.2898 156.402 59.6667 156.232 60.1364C156.065 60.6023 155.982 61.1136 155.982 61.6705C155.982 62.2311 156.065 62.7443 156.232 63.2102C156.402 63.6761 156.661 64.0492 157.01 64.3295C157.362 64.6098 157.805 64.75 158.339 64.75ZM169.827 62.3807V57.2727H171.531V66H169.861V64.4886H169.77C169.569 64.9545 169.247 65.3428 168.804 65.6534C168.365 65.9602 167.817 66.1136 167.162 66.1136C166.601 66.1136 166.105 65.9905 165.673 65.7443C165.245 65.4943 164.908 65.125 164.662 64.6364C164.42 64.1477 164.298 63.5436 164.298 62.8239V57.2727H165.997V62.6193C165.997 63.214 166.162 63.6875 166.491 64.0398C166.821 64.392 167.249 64.5682 167.776 64.5682C168.094 64.5682 168.41 64.4886 168.724 64.3295C169.043 64.1705 169.306 63.9299 169.514 63.608C169.726 63.286 169.83 62.8769 169.827 62.3807ZM179.747 54.3636V66H178.048V54.3636H179.747ZM185.709 66.1761C184.891 66.1761 184.177 65.9886 183.567 65.6136C182.957 65.2386 182.483 64.714 182.146 64.0398C181.809 63.3655 181.641 62.5777 181.641 61.6761C181.641 60.7708 181.809 59.9792 182.146 59.3011C182.483 58.6231 182.957 58.0966 183.567 57.7216C184.177 57.3466 184.891 57.1591 185.709 57.1591C186.527 57.1591 187.241 57.3466 187.851 57.7216C188.461 58.0966 188.934 58.6231 189.271 59.3011C189.608 59.9792 189.777 60.7708 189.777 61.6761C189.777 62.5777 189.608 63.3655 189.271 64.0398C188.934 64.714 188.461 65.2386 187.851 65.6136C187.241 65.9886 186.527 66.1761 185.709 66.1761ZM185.714 64.75C186.245 64.75 186.684 64.6098 187.033 64.3295C187.381 64.0492 187.639 63.6761 187.805 63.2102C187.976 62.7443 188.061 62.2311 188.061 61.6705C188.061 61.1136 187.976 60.6023 187.805 60.1364C187.639 59.6667 187.381 59.2898 187.033 59.0057C186.684 58.7216 186.245 58.5795 185.714 58.5795C185.18 58.5795 184.737 58.7216 184.385 59.0057C184.036 59.2898 183.777 59.6667 183.607 60.1364C183.44 60.6023 183.357 61.1136 183.357 61.6705C183.357 62.2311 183.44 62.7443 183.607 63.2102C183.777 63.6761 184.036 64.0492 184.385 64.3295C184.737 64.6098 185.18 64.75 185.714 64.75ZM198.842 57.2727L195.678 66H193.859L190.689 57.2727H192.513L194.723 63.9886H194.814L197.018 57.2727H198.842ZM203.903 66.1761C203.044 66.1761 202.303 65.9924 201.682 65.625C201.064 65.2538 200.587 64.733 200.25 64.0625C199.917 63.3883 199.75 62.5985 199.75 61.6932C199.75 60.7992 199.917 60.0114 200.25 59.3295C200.587 58.6477 201.057 58.1155 201.659 57.733C202.265 57.3504 202.973 57.1591 203.784 57.1591C204.277 57.1591 204.754 57.2405 205.216 57.4034C205.678 57.5663 206.093 57.822 206.46 58.1705C206.828 58.5189 207.117 58.9716 207.33 59.5284C207.542 60.0814 207.648 60.7538 207.648 61.5455V62.1477H200.71V60.875H205.983C205.983 60.428 205.892 60.0322 205.71 59.6875C205.528 59.339 205.273 59.0644 204.943 58.8636C204.617 58.6629 204.235 58.5625 203.795 58.5625C203.318 58.5625 202.902 58.6799 202.545 58.9148C202.193 59.1458 201.92 59.4489 201.727 59.8239C201.538 60.1951 201.443 60.5985 201.443 61.0341V62.0284C201.443 62.6117 201.545 63.108 201.75 63.517C201.958 63.9261 202.248 64.2386 202.619 64.4545C202.991 64.6667 203.424 64.7727 203.92 64.7727C204.242 64.7727 204.536 64.7273 204.801 64.6364C205.066 64.5417 205.295 64.4015 205.489 64.2159C205.682 64.0303 205.83 63.8011 205.932 63.5284L207.54 63.8182C207.411 64.2917 207.18 64.7064 206.847 65.0625C206.517 65.4148 206.102 65.6894 205.602 65.8864C205.106 66.0795 204.54 66.1761 203.903 66.1761ZM213.767 66V57.2727H215.398V58.6932H215.506C215.688 58.2121 215.985 57.8371 216.398 57.5682C216.811 57.2955 217.305 57.1591 217.881 57.1591C218.464 57.1591 218.953 57.2955 219.347 57.5682C219.744 57.8409 220.038 58.2159 220.227 58.6932H220.318C220.527 58.2273 220.858 57.8561 221.312 57.5795C221.767 57.2992 222.309 57.1591 222.938 57.1591C223.729 57.1591 224.375 57.4072 224.875 57.9034C225.379 58.3996 225.631 59.1477 225.631 60.1477V66H223.932V60.3068C223.932 59.7159 223.771 59.2879 223.449 59.0227C223.127 58.7576 222.742 58.625 222.295 58.625C221.742 58.625 221.312 58.7955 221.006 59.1364C220.699 59.4735 220.545 59.9072 220.545 60.4375V66H218.852V60.1989C218.852 59.7254 218.705 59.3447 218.409 59.0568C218.114 58.7689 217.729 58.625 217.256 58.625C216.934 58.625 216.636 58.7102 216.364 58.8807C216.095 59.0473 215.877 59.2803 215.71 59.5795C215.547 59.8788 215.466 60.2254 215.466 60.6193V66H213.767ZM231.669 66.1761C230.809 66.1761 230.069 65.9924 229.447 65.625C228.83 65.2538 228.353 64.733 228.016 64.0625C227.682 63.3883 227.516 62.5985 227.516 61.6932C227.516 60.7992 227.682 60.0114 228.016 59.3295C228.353 58.6477 228.822 58.1155 229.425 57.733C230.031 57.3504 230.739 57.1591 231.55 57.1591C232.042 57.1591 232.519 57.2405 232.982 57.4034C233.444 57.5663 233.858 57.822 234.226 58.1705C234.593 58.5189 234.883 58.9716 235.095 59.5284C235.307 60.0814 235.413 60.7538 235.413 61.5455V62.1477H228.476V60.875H233.749C233.749 60.428 233.658 60.0322 233.476 59.6875C233.294 59.339 233.038 59.0644 232.709 58.8636C232.383 58.6629 232 58.5625 231.561 58.5625C231.084 58.5625 230.667 58.6799 230.311 58.9148C229.959 59.1458 229.686 59.4489 229.493 59.8239C229.304 60.1951 229.209 60.5985 229.209 61.0341V62.0284C229.209 62.6117 229.311 63.108 229.516 63.517C229.724 63.9261 230.014 64.2386 230.385 64.4545C230.756 64.6667 231.19 64.7727 231.686 64.7727C232.008 64.7727 232.302 64.7273 232.567 64.6364C232.832 64.5417 233.061 64.4015 233.254 64.2159C233.447 64.0303 233.595 63.8011 233.697 63.5284L235.305 63.8182C235.177 64.2917 234.946 64.7064 234.612 65.0625C234.283 65.4148 233.868 65.6894 233.368 65.8864C232.872 66.0795 232.305 66.1761 231.669 66.1761Z" fill="white"/>
</g>
<defs>
<filter id="filter0_d_2196_2140" x="2.96826" y="2.1582" width="20.4644" height="22.4766" filterUnits="userSpaceOnUse" color-interpolation-filters="sRGB">
<feFlood flood-opacity="0" result="BackgroundImageFix"/>
<feColorMatrix in="SourceAlpha" type="matrix" values="0 0 0 0 0 0 0 0 0 0 0 0 0 0 0 0 0 0 127 0" result="hardAlpha"/>
<feOffset dy="1"/>
<feGaussianBlur stdDeviation="1"/>
<feComposite in2="hardAlpha" operator="out"/>
<feColorMatrix type="matrix" values="0 0 0 0 0 0 0 0 0 0 0 0 0 0 0 0 0 0 0.25 0"/>
<feBlend mode="normal" in2="BackgroundImageFix" result="effect1_dropShadow_2196_2140"/>
<feBlend mode="normal" in="SourceGraphic" in2="effect1_dropShadow_2196_2140" result="shape"/>
</filter>
<filter id="filter1_d_2196_2140" x="12" y="14" width="259" height="80" filterUnits="userSpaceOnUse" color-interpolation-filters="sRGB">
<feFlood flood-opacity="0" result="BackgroundImageFix"/>
<feColorMatrix in="SourceAlpha" type="matrix" values="0 0 0 0 0 0 0 0 0 0 0 0 0 0 0 0 0 0 127 0" result="hardAlpha"/>
<feOffset dx="4" dy="4"/>
<feGaussianBlur stdDeviation="5"/>
<feComposite in2="hardAlpha" operator="out"/>
<feColorMatrix type="matrix" values="0 0 0 0 0.968627 0 0 0 0 0.819608 0 0 0 0 0.345098 0 0 0 0.16 0"/>
<feBlend mode="normal" in2="BackgroundImageFix" result="effect1_dropShadow_2196_2140"/>
<feBlend mode="normal" in="SourceGraphic" in2="effect1_dropShadow_2196_2140" result="shape"/>
</filter>
</defs>
</svg>
