<svg width="214" height="94" viewBox="0 0 214 94" fill="none" xmlns="http://www.w3.org/2000/svg">
<g filter="url(#filter0_d_2219_3038)">
<path d="M8.81678 20.3643L5.66312 4.11451L20.143 12.1353L13.0104 14.2272L8.81678 20.3643Z" fill="#EB47D3"/>
<path d="M8.81678 20.3643L5.66312 4.11451L20.143 12.1353L13.0104 14.2272L8.81678 20.3643Z" stroke="white"/>
</g>
<g filter="url(#filter1_d_2219_3038)">
<path d="M18 22C18 20.8954 18.8954 20 20 20H176C189.255 20 200 30.7452 200 44V56C200 69.2548 189.255 80 176 80H42C28.7452 80 18 69.2548 18 56V22Z" fill="#EB47D3" shape-rendering="crispEdges"/>
<path d="M20 21H176C188.703 21 199 31.2975 199 44V56C199 68.7025 188.703 79 176 79H42C29.2975 79 19 68.7025 19 56V22C19 21.4477 19.4477 21 20 21Z" stroke="#EB47D3" stroke-width="2" shape-rendering="crispEdges"/>
<path opacity="0.8" d="M35.0387 43V33.5455H40.9016V34.7734H36.4652V37.6541H40.4815V38.8775H36.4652V43H35.0387ZM42.5451 43V35.9091H43.9254V43H42.5451ZM43.2422 34.815C43.0021 34.815 42.7959 34.735 42.6236 34.5749C42.4543 34.4118 42.3697 34.2179 42.3697 33.9933C42.3697 33.7655 42.4543 33.5716 42.6236 33.4116C42.7959 33.2485 43.0021 33.1669 43.2422 33.1669C43.4822 33.1669 43.6869 33.2485 43.8562 33.4116C44.0285 33.5716 44.1147 33.7655 44.1147 33.9933C44.1147 34.2179 44.0285 34.4118 43.8562 34.5749C43.6869 34.735 43.4822 34.815 43.2422 34.815ZM48.7554 45.8068C48.1922 45.8068 47.7075 45.733 47.3012 45.5852C46.8981 45.4375 46.5687 45.2421 46.3133 44.9989C46.0579 44.7558 45.867 44.4896 45.7409 44.2003L46.9273 43.7109C47.0104 43.8464 47.1212 43.9895 47.2597 44.1403C47.4012 44.2942 47.5921 44.425 47.8321 44.5327C48.0753 44.6404 48.3876 44.6942 48.7693 44.6942C49.2925 44.6942 49.7249 44.5665 50.0665 44.3111C50.4081 44.0587 50.5789 43.6555 50.5789 43.1016V41.7074H50.4912C50.4081 41.8582 50.2881 42.0259 50.1311 42.2106C49.9772 42.3952 49.7649 42.5553 49.4941 42.6907C49.2232 42.8261 48.8708 42.8938 48.4369 42.8938C47.8767 42.8938 47.372 42.763 46.9227 42.5014C46.4764 42.2367 46.1225 41.8474 45.8609 41.3335C45.6024 40.8164 45.4731 40.1809 45.4731 39.4268C45.4731 38.6728 45.6008 38.0265 45.8563 37.4879C46.1148 36.9493 46.4687 36.5369 46.9181 36.2507C47.3674 35.9614 47.8767 35.8168 48.4461 35.8168C48.8862 35.8168 49.2417 35.8906 49.5125 36.0384C49.7834 36.183 49.9942 36.3523 50.145 36.5462C50.2989 36.7401 50.4173 36.9109 50.5004 37.0586H50.602V35.9091H51.9546V43.157C51.9546 43.7663 51.8131 44.2665 51.5299 44.6573C51.2468 45.0482 50.8636 45.3375 50.3804 45.5252C49.9003 45.7129 49.3586 45.8068 48.7554 45.8068ZM48.7416 41.7489C49.1386 41.7489 49.474 41.6566 49.748 41.4719C50.0249 41.2842 50.2342 41.0165 50.3758 40.6687C50.5204 40.3178 50.5928 39.8977 50.5928 39.4084C50.5928 38.9313 50.522 38.5112 50.3804 38.1481C50.2388 37.7849 50.0311 37.5018 49.7572 37.2987C49.4833 37.0924 49.1447 36.9893 48.7416 36.9893C48.3261 36.9893 47.9798 37.0971 47.7029 37.3125C47.4259 37.5249 47.2166 37.8142 47.075 38.1804C46.9365 38.5466 46.8673 38.956 46.8673 39.4084C46.8673 39.8731 46.9381 40.2809 47.0796 40.6317C47.2212 40.9826 47.4305 41.2565 47.7075 41.4535C47.9875 41.6504 48.3322 41.7489 48.7416 41.7489ZM53.8058 43V35.9091H55.1308V37.0632H55.2185C55.3662 36.6723 55.6078 36.3677 55.9433 36.1491C56.2787 35.9276 56.6804 35.8168 57.1482 35.8168C57.6221 35.8168 58.0191 35.9276 58.3392 36.1491C58.6624 36.3707 58.9009 36.6754 59.0548 37.0632H59.1286C59.2979 36.6847 59.5672 36.383 59.9365 36.1584C60.3058 35.9306 60.7459 35.8168 61.2568 35.8168C61.9001 35.8168 62.4248 36.0183 62.8311 36.4215C63.2404 36.8247 63.445 37.4325 63.445 38.245V43H62.0647V38.3743C62.0647 37.8942 61.9339 37.5464 61.6723 37.331C61.4107 37.1155 61.0983 37.0078 60.7352 37.0078C60.2858 37.0078 59.9365 37.1463 59.6872 37.4233C59.4379 37.6972 59.3133 38.0496 59.3133 38.4805V43H57.9376V38.2866C57.9376 37.9019 57.8176 37.5926 57.5775 37.3587C57.3374 37.1248 57.0251 37.0078 56.6404 37.0078C56.3788 37.0078 56.1372 37.0771 55.9156 37.2156C55.6971 37.351 55.5201 37.5402 55.3847 37.7834C55.2523 38.0265 55.1862 38.3081 55.1862 38.6282V43H53.8058ZM67.3587 43.157C66.9093 43.157 66.5031 43.0739 66.1399 42.9077C65.7768 42.7384 65.489 42.4937 65.2766 42.1737C65.0674 41.8536 64.9627 41.4612 64.9627 40.9964C64.9627 40.5964 65.0397 40.267 65.1935 40.0085C65.3474 39.75 65.5552 39.5453 65.8168 39.3945C66.0784 39.2437 66.3707 39.1299 66.6939 39.0529C67.017 38.976 67.3464 38.9175 67.6818 38.8775C68.1065 38.8282 68.4512 38.7882 68.7159 38.7575C68.9806 38.7236 69.1729 38.6697 69.293 38.5959C69.413 38.522 69.473 38.402 69.473 38.2358V38.2035C69.473 37.8003 69.3591 37.4879 69.1314 37.2663C68.9067 37.0447 68.5713 36.9339 68.125 36.9339C67.6603 36.9339 67.294 37.037 67.0263 37.2433C66.7616 37.4464 66.5785 37.6726 66.4769 37.9219L65.1797 37.6264C65.3336 37.1955 65.5582 36.8478 65.8537 36.5831C66.1522 36.3153 66.4954 36.1214 66.8832 36.0014C67.271 35.8783 67.6787 35.8168 68.1065 35.8168C68.3897 35.8168 68.6897 35.8506 69.0067 35.9183C69.3268 35.983 69.6254 36.103 69.9023 36.2784C70.1824 36.4538 70.4117 36.7047 70.5902 37.0309C70.7687 37.354 70.858 37.7741 70.858 38.2912V43H69.5099V42.0305H69.4545C69.3653 42.209 69.2314 42.3845 69.0529 42.5568C68.8744 42.7292 68.6451 42.8723 68.3651 42.9862C68.085 43.1 67.7495 43.157 67.3587 43.157ZM67.6587 42.049C68.0404 42.049 68.3666 41.9736 68.6374 41.8228C68.9113 41.672 69.1191 41.475 69.2607 41.2319C69.4053 40.9857 69.4776 40.7225 69.4776 40.4425V39.5284C69.4284 39.5777 69.333 39.6238 69.1914 39.6669C69.0529 39.7069 68.8944 39.7423 68.7159 39.7731C68.5374 39.8008 68.3635 39.8269 68.1942 39.8516C68.025 39.8731 67.8834 39.8916 67.7695 39.907C67.5018 39.9408 67.2571 39.9978 67.0355 40.0778C66.817 40.1578 66.6416 40.2732 66.5092 40.424C66.38 40.5717 66.3153 40.7687 66.3153 41.0149C66.3153 41.3565 66.4415 41.6151 66.6939 41.7905C66.9463 41.9628 67.2679 42.049 67.6587 42.049ZM81.4043 36.0291C81.3551 35.5921 81.1519 35.2536 80.7949 35.0135C80.4379 34.7704 79.9886 34.6488 79.4469 34.6488C79.0591 34.6488 78.7237 34.7103 78.4405 34.8335C78.1574 34.9535 77.9373 35.1197 77.7804 35.332C77.6265 35.5413 77.5495 35.7798 77.5495 36.0476C77.5495 36.2723 77.6019 36.4661 77.7065 36.6293C77.8142 36.7924 77.9542 36.9293 78.1266 37.0401C78.302 37.1478 78.4898 37.2386 78.6898 37.3125C78.8899 37.3833 79.0822 37.4418 79.2669 37.4879L80.1902 37.728C80.4918 37.8018 80.8011 37.9019 81.1181 38.0281C81.4351 38.1542 81.729 38.3204 81.9998 38.5266C82.2707 38.7328 82.4892 38.9883 82.6554 39.293C82.8246 39.5977 82.9093 39.9624 82.9093 40.3871C82.9093 40.9226 82.7708 41.3981 82.4938 41.8136C82.2199 42.229 81.8213 42.5568 81.2981 42.7969C80.778 43.0369 80.1486 43.157 79.41 43.157C78.7021 43.157 78.0897 43.0446 77.5726 42.82C77.0556 42.5953 76.6509 42.2768 76.3585 41.8643C76.0661 41.4489 75.9045 40.9564 75.8738 40.3871H77.3049C77.3326 40.7287 77.4434 41.0134 77.6373 41.2411C77.8342 41.4658 78.085 41.6335 78.3897 41.7443C78.6975 41.852 79.0345 41.9059 79.4007 41.9059C79.8039 41.9059 80.1625 41.8428 80.4764 41.7166C80.7934 41.5874 81.0427 41.4089 81.2243 41.1811C81.4058 40.9503 81.4966 40.681 81.4966 40.3732C81.4966 40.0932 81.4166 39.8639 81.2566 39.6854C81.0996 39.5069 80.8857 39.3591 80.6149 39.2422C80.3471 39.1252 80.044 39.0221 79.7054 38.9329L78.5882 38.6282C77.8311 38.422 77.231 38.1188 76.7878 37.7188C76.3477 37.3187 76.1277 36.7893 76.1277 36.1307C76.1277 35.5859 76.2754 35.1104 76.5708 34.7042C76.8663 34.2979 77.2664 33.9825 77.7711 33.7578C78.2759 33.5301 78.8452 33.4162 79.4792 33.4162C80.1194 33.4162 80.6841 33.5285 81.1735 33.7532C81.6659 33.9779 82.0537 34.2872 82.3368 34.6811C82.62 35.072 82.7677 35.5213 82.78 36.0291H81.4043ZM87.8131 35.9091V37.017H83.9399V35.9091H87.8131ZM84.9786 34.2102H86.3589V40.918C86.3589 41.1857 86.3989 41.3873 86.479 41.5227C86.559 41.6551 86.6621 41.7459 86.7883 41.7951C86.9175 41.8413 87.0576 41.8643 87.2084 41.8643C87.3192 41.8643 87.4161 41.8567 87.4992 41.8413C87.5823 41.8259 87.6469 41.8136 87.6931 41.8043L87.9424 42.9446C87.8624 42.9754 87.7485 43.0062 87.6008 43.0369C87.453 43.0708 87.2684 43.0893 87.0468 43.0923C86.6836 43.0985 86.3451 43.0339 86.0312 42.8984C85.7172 42.763 85.4633 42.5537 85.2694 42.2706C85.0756 41.9875 84.9786 41.632 84.9786 41.2042V34.2102ZM91.4036 43.157C90.9542 43.157 90.548 43.0739 90.1848 42.9077C89.8217 42.7384 89.5339 42.4937 89.3216 42.1737C89.1123 41.8536 89.0076 41.4612 89.0076 40.9964C89.0076 40.5964 89.0846 40.267 89.2385 40.0085C89.3923 39.75 89.6001 39.5453 89.8617 39.3945C90.1233 39.2437 90.4157 39.1299 90.7388 39.0529C91.062 38.976 91.3913 38.9175 91.7267 38.8775C92.1515 38.8282 92.4962 38.7882 92.7608 38.7575C93.0255 38.7236 93.2179 38.6697 93.3379 38.5959C93.4579 38.522 93.5179 38.402 93.5179 38.2358V38.2035C93.5179 37.8003 93.4041 37.4879 93.1763 37.2663C92.9516 37.0447 92.6162 36.9339 92.1699 36.9339C91.7052 36.9339 91.339 37.037 91.0712 37.2433C90.8065 37.4464 90.6234 37.6726 90.5218 37.9219L89.2246 37.6264C89.3785 37.1955 89.6032 36.8478 89.8986 36.5831C90.1971 36.3153 90.5403 36.1214 90.9281 36.0014C91.3159 35.8783 91.7237 35.8168 92.1515 35.8168C92.4346 35.8168 92.7347 35.8506 93.0517 35.9183C93.3717 35.983 93.6703 36.103 93.9473 36.2784C94.2273 36.4538 94.4566 36.7047 94.6351 37.0309C94.8136 37.354 94.9029 37.7741 94.9029 38.2912V43H93.5549V42.0305H93.4995C93.4102 42.209 93.2763 42.3845 93.0978 42.5568C92.9193 42.7292 92.69 42.8723 92.41 42.9862C92.1299 43.1 91.7944 43.157 91.4036 43.157ZM91.7037 42.049C92.0853 42.049 92.4115 41.9736 92.6824 41.8228C92.9563 41.672 93.164 41.475 93.3056 41.2319C93.4502 40.9857 93.5225 40.7225 93.5225 40.4425V39.5284C93.4733 39.5777 93.3779 39.6238 93.2363 39.6669C93.0978 39.7069 92.9393 39.7423 92.7608 39.7731C92.5823 39.8008 92.4084 39.8269 92.2392 39.8516C92.0699 39.8731 91.9283 39.8916 91.8145 39.907C91.5467 39.9408 91.302 39.9978 91.0804 40.0778C90.8619 40.1578 90.6865 40.2732 90.5542 40.424C90.4249 40.5717 90.3603 40.7687 90.3603 41.0149C90.3603 41.3565 90.4864 41.6151 90.7388 41.7905C90.9912 41.9628 91.3128 42.049 91.7037 42.049ZM98.1217 33.5455V43H96.7414V33.5455H98.1217ZM101.248 40.5948L101.239 38.9098H101.479L104.304 35.9091H105.957L102.735 39.3253H102.518L101.248 40.5948ZM99.9787 43V33.5455H101.359V43H99.9787ZM104.457 43L101.918 39.63L102.869 38.6651L106.151 43H104.457ZM109.979 43.1431C109.281 43.1431 108.679 42.9938 108.174 42.6953C107.672 42.3937 107.285 41.9705 107.011 41.4258C106.74 40.878 106.604 40.2363 106.604 39.5007C106.604 38.7744 106.74 38.1342 107.011 37.5803C107.285 37.0263 107.666 36.5939 108.156 36.283C108.648 35.9722 109.224 35.8168 109.882 35.8168C110.282 35.8168 110.67 35.8829 111.046 36.0153C111.421 36.1476 111.758 36.3554 112.057 36.6385C112.355 36.9216 112.591 37.2894 112.763 37.7418C112.935 38.1912 113.021 38.7375 113.021 39.3807V39.87H107.385V38.8359H111.669C111.669 38.4728 111.595 38.1512 111.447 37.8711C111.299 37.5879 111.092 37.3648 110.824 37.2017C110.559 37.0386 110.248 36.957 109.891 36.957C109.504 36.957 109.165 37.0524 108.876 37.2433C108.59 37.431 108.368 37.6772 108.211 37.9819C108.057 38.2835 107.98 38.6113 107.98 38.9652V39.7731C107.98 40.247 108.063 40.6502 108.229 40.9826C108.399 41.315 108.634 41.5689 108.936 41.7443C109.237 41.9167 109.59 42.0028 109.993 42.0028C110.255 42.0028 110.493 41.9659 110.709 41.892C110.924 41.8151 111.11 41.7012 111.267 41.5504C111.424 41.3996 111.544 41.2134 111.627 40.9918L112.934 41.2273C112.829 41.612 112.641 41.949 112.37 42.2383C112.103 42.5245 111.766 42.7476 111.359 42.9077C110.956 43.0646 110.496 43.1431 109.979 43.1431ZM114.553 43V35.9091H115.887V37.0355H115.961C116.09 36.6539 116.318 36.3538 116.644 36.1353C116.973 35.9137 117.346 35.8029 117.761 35.8029C117.848 35.8029 117.949 35.806 118.066 35.8121C118.186 35.8183 118.28 35.826 118.348 35.8352V37.1555C118.292 37.1402 118.194 37.1232 118.052 37.1048C117.911 37.0832 117.769 37.0724 117.627 37.0724C117.301 37.0724 117.01 37.1417 116.755 37.2802C116.503 37.4156 116.303 37.6049 116.155 37.848C116.007 38.0881 115.933 38.362 115.933 38.6697V43H114.553Z" fill="white" fill-opacity="0.7"/>
<path d="M38.8182 66.1761C38 66.1761 37.286 65.9886 36.6761 65.6136C36.0663 65.2386 35.5928 64.714 35.2557 64.0398C34.9186 63.3655 34.75 62.5777 34.75 61.6761C34.75 60.7708 34.9186 59.9792 35.2557 59.3011C35.5928 58.6231 36.0663 58.0966 36.6761 57.7216C37.286 57.3466 38 57.1591 38.8182 57.1591C39.6364 57.1591 40.3504 57.3466 40.9602 57.7216C41.5701 58.0966 42.0436 58.6231 42.3807 59.3011C42.7178 59.9792 42.8864 60.7708 42.8864 61.6761C42.8864 62.5777 42.7178 63.3655 42.3807 64.0398C42.0436 64.714 41.5701 65.2386 40.9602 65.6136C40.3504 65.9886 39.6364 66.1761 38.8182 66.1761ZM38.8239 64.75C39.3542 64.75 39.7936 64.6098 40.142 64.3295C40.4905 64.0492 40.7481 63.6761 40.9148 63.2102C41.0852 62.7443 41.1705 62.2311 41.1705 61.6705C41.1705 61.1136 41.0852 60.6023 40.9148 60.1364C40.7481 59.6667 40.4905 59.2898 40.142 59.0057C39.7936 58.7216 39.3542 58.5795 38.8239 58.5795C38.2898 58.5795 37.8466 58.7216 37.4943 59.0057C37.1458 59.2898 36.8864 59.6667 36.7159 60.1364C36.5492 60.6023 36.4659 61.1136 36.4659 61.6705C36.4659 62.2311 36.5492 62.7443 36.7159 63.2102C36.8864 63.6761 37.1458 64.0492 37.4943 64.3295C37.8466 64.6098 38.2898 64.75 38.8239 64.75ZM44.7827 66V57.2727H46.4134V58.6932H46.5213C46.7031 58.2121 47.0005 57.8371 47.4134 57.5682C47.8262 57.2955 48.3205 57.1591 48.8963 57.1591C49.4796 57.1591 49.9683 57.2955 50.3622 57.5682C50.7599 57.8409 51.0535 58.2159 51.2429 58.6932H51.3338C51.5421 58.2273 51.8736 57.8561 52.3281 57.5795C52.7827 57.2992 53.3243 57.1591 53.9531 57.1591C54.7448 57.1591 55.3906 57.4072 55.8906 57.9034C56.3944 58.3996 56.6463 59.1477 56.6463 60.1477V66H54.9474V60.3068C54.9474 59.7159 54.7865 59.2879 54.4645 59.0227C54.1425 58.7576 53.758 58.625 53.3111 58.625C52.758 58.625 52.3281 58.7955 52.0213 59.1364C51.7145 59.4735 51.5611 59.9072 51.5611 60.4375V66H49.8679V60.1989C49.8679 59.7254 49.7202 59.3447 49.4247 59.0568C49.1293 58.7689 48.7448 58.625 48.2713 58.625C47.9493 58.625 47.652 58.7102 47.3793 58.8807C47.1103 59.0473 46.8925 59.2803 46.7259 59.5795C46.563 59.8788 46.4815 60.2254 46.4815 60.6193V66H44.7827ZM62.5824 69.4545C61.8892 69.4545 61.2926 69.3636 60.7926 69.1818C60.2964 69 59.8911 68.7595 59.5767 68.4602C59.2623 68.161 59.0275 67.8333 58.8722 67.4773L60.3324 66.875C60.4347 67.0417 60.571 67.2178 60.7415 67.4034C60.9157 67.5928 61.1506 67.7538 61.446 67.8864C61.7453 68.0189 62.1297 68.0852 62.5994 68.0852C63.2434 68.0852 63.7756 67.928 64.196 67.6136C64.6165 67.303 64.8267 66.8068 64.8267 66.125V64.4091H64.7188C64.6165 64.5947 64.4688 64.8011 64.2756 65.0284C64.0862 65.2557 63.8248 65.4527 63.4915 65.6193C63.1581 65.786 62.7244 65.8693 62.1903 65.8693C61.5009 65.8693 60.8797 65.7083 60.3267 65.3864C59.7775 65.0606 59.3419 64.5814 59.0199 63.9489C58.7017 63.3125 58.5426 62.5303 58.5426 61.6023C58.5426 60.6742 58.6998 59.8788 59.0142 59.2159C59.3324 58.553 59.768 58.0455 60.321 57.6932C60.8741 57.3371 61.5009 57.1591 62.2017 57.1591C62.7434 57.1591 63.1809 57.25 63.5142 57.4318C63.8475 57.6098 64.107 57.8182 64.2926 58.0568C64.482 58.2955 64.6278 58.5057 64.7301 58.6875H64.8551V57.2727H66.5199V66.1932C66.5199 66.9432 66.3456 67.5587 65.9972 68.0398C65.6487 68.5208 65.1771 68.8769 64.5824 69.108C63.9915 69.339 63.3248 69.4545 62.5824 69.4545ZM62.5653 64.4602C63.054 64.4602 63.4669 64.3466 63.804 64.1193C64.1449 63.8883 64.4025 63.5587 64.5767 63.1307C64.7547 62.6989 64.8438 62.1818 64.8438 61.5795C64.8438 60.9924 64.7566 60.4754 64.5824 60.0284C64.4081 59.5814 64.1525 59.233 63.8153 58.983C63.4782 58.7292 63.0616 58.6023 62.5653 58.6023C62.054 58.6023 61.6278 58.7348 61.2869 59C60.946 59.2614 60.6884 59.6174 60.5142 60.0682C60.3438 60.5189 60.2585 61.0227 60.2585 61.5795C60.2585 62.1515 60.3456 62.6534 60.5199 63.0852C60.6941 63.517 60.9517 63.8542 61.2926 64.0966C61.6373 64.339 62.0616 64.4602 62.5653 64.4602ZM74.9247 66L72.3565 57.2727H74.1122L75.8224 63.6818H75.9077L77.6236 57.2727H79.3793L81.0838 63.6534H81.169L82.8679 57.2727H84.6236L82.0611 66H80.3281L78.5554 59.6989H78.4247L76.652 66H74.9247ZM88.7756 66.1932C88.2225 66.1932 87.7225 66.0909 87.2756 65.8864C86.8286 65.678 86.4744 65.3769 86.2131 64.983C85.9555 64.589 85.8267 64.1061 85.8267 63.5341C85.8267 63.0417 85.9214 62.6364 86.1108 62.3182C86.3002 62 86.5559 61.7481 86.8778 61.5625C87.1998 61.3769 87.5597 61.2367 87.9574 61.142C88.3551 61.0473 88.7604 60.9754 89.1733 60.9261C89.696 60.8655 90.1203 60.8163 90.446 60.7784C90.7718 60.7367 91.0085 60.6705 91.1562 60.5795C91.304 60.4886 91.3778 60.3409 91.3778 60.1364V60.0966C91.3778 59.6004 91.2377 59.2159 90.9574 58.9432C90.6809 58.6705 90.268 58.5341 89.7188 58.5341C89.1468 58.5341 88.696 58.661 88.3665 58.9148C88.0407 59.1648 87.8153 59.4432 87.6903 59.75L86.0938 59.3864C86.2831 58.8561 86.5597 58.428 86.9233 58.1023C87.2907 57.7727 87.7131 57.5341 88.1903 57.3864C88.6676 57.2348 89.1695 57.1591 89.696 57.1591C90.0445 57.1591 90.4138 57.2008 90.804 57.2841C91.1979 57.3636 91.5653 57.5114 91.9062 57.7273C92.2509 57.9432 92.5331 58.2519 92.7528 58.6534C92.9725 59.0511 93.0824 59.5682 93.0824 60.2045V66H91.4233V64.8068H91.3551C91.2453 65.0265 91.0805 65.2424 90.8608 65.4545C90.6411 65.6667 90.3589 65.8428 90.0142 65.983C89.6695 66.1231 89.2566 66.1932 88.7756 66.1932ZM89.1449 64.8295C89.6146 64.8295 90.0161 64.7367 90.3494 64.5511C90.6866 64.3655 90.9422 64.1231 91.1165 63.8239C91.2945 63.5208 91.3835 63.197 91.3835 62.8523V61.7273C91.3229 61.7879 91.2055 61.8447 91.0312 61.8977C90.8608 61.947 90.6657 61.9905 90.446 62.0284C90.2263 62.0625 90.0123 62.0947 89.804 62.125C89.5956 62.1515 89.4214 62.1742 89.2812 62.1932C88.9517 62.2348 88.6506 62.3049 88.3778 62.4034C88.1089 62.5019 87.893 62.6439 87.7301 62.8295C87.571 63.0114 87.4915 63.2538 87.4915 63.5568C87.4915 63.9773 87.6468 64.2955 87.9574 64.5114C88.268 64.7235 88.6638 64.8295 89.1449 64.8295ZM95.3452 66V57.2727H97.044V66H95.3452ZM96.2031 55.9261C95.9077 55.9261 95.6539 55.8277 95.4418 55.6307C95.2334 55.4299 95.1293 55.1913 95.1293 54.9148C95.1293 54.6345 95.2334 54.3958 95.4418 54.1989C95.6539 53.9981 95.9077 53.8977 96.2031 53.8977C96.4986 53.8977 96.7505 53.9981 96.9588 54.1989C97.1709 54.3958 97.277 54.6345 97.277 54.9148C97.277 55.1913 97.1709 55.4299 96.9588 55.6307C96.7505 55.8277 96.4986 55.9261 96.2031 55.9261ZM103.403 57.2727V58.6364H98.6364V57.2727H103.403ZM99.9148 55.1818H101.614V63.4375C101.614 63.767 101.663 64.0152 101.761 64.1818C101.86 64.3447 101.987 64.4564 102.142 64.517C102.301 64.5739 102.473 64.6023 102.659 64.6023C102.795 64.6023 102.915 64.5928 103.017 64.5739C103.119 64.5549 103.199 64.5398 103.256 64.5284L103.562 65.9318C103.464 65.9697 103.324 66.0076 103.142 66.0455C102.96 66.0871 102.733 66.1098 102.46 66.1136C102.013 66.1212 101.597 66.0417 101.21 65.875C100.824 65.7083 100.511 65.4508 100.273 65.1023C100.034 64.7538 99.9148 64.3163 99.9148 63.7898V55.1818ZM113.591 57.2727V58.6364H108.824V57.2727H113.591ZM110.102 55.1818H111.801V63.4375C111.801 63.767 111.85 64.0152 111.949 64.1818C112.047 64.3447 112.174 64.4564 112.33 64.517C112.489 64.5739 112.661 64.6023 112.847 64.6023C112.983 64.6023 113.102 64.5928 113.205 64.5739C113.307 64.5549 113.386 64.5398 113.443 64.5284L113.75 65.9318C113.652 65.9697 113.511 66.0076 113.33 66.0455C113.148 66.0871 112.92 66.1098 112.648 66.1136C112.201 66.1212 111.784 66.0417 111.398 65.875C111.011 65.7083 110.699 65.4508 110.46 65.1023C110.222 64.7538 110.102 64.3163 110.102 63.7898V55.1818ZM117.357 60.8182V66H115.658V54.3636H117.334V58.6932H117.442C117.646 58.2235 117.959 57.8504 118.379 57.5739C118.8 57.2973 119.349 57.1591 120.027 57.1591C120.625 57.1591 121.148 57.2822 121.595 57.5284C122.046 57.7746 122.394 58.142 122.641 58.6307C122.891 59.1155 123.016 59.7216 123.016 60.4489V66H121.317V60.6534C121.317 60.0133 121.152 59.517 120.822 59.1648C120.493 58.8087 120.035 58.6307 119.447 58.6307C119.046 58.6307 118.686 58.7159 118.368 58.8864C118.054 59.0568 117.805 59.3068 117.624 59.6364C117.446 59.9621 117.357 60.3561 117.357 60.8182ZM127.822 66.1932C127.269 66.1932 126.769 66.0909 126.322 65.8864C125.875 65.678 125.521 65.3769 125.26 64.983C125.002 64.589 124.874 64.1061 124.874 63.5341C124.874 63.0417 124.968 62.6364 125.158 62.3182C125.347 62 125.603 61.7481 125.925 61.5625C126.247 61.3769 126.607 61.2367 127.004 61.142C127.402 61.0473 127.807 60.9754 128.22 60.9261C128.743 60.8655 129.167 60.8163 129.493 60.7784C129.819 60.7367 130.055 60.6705 130.203 60.5795C130.351 60.4886 130.425 60.3409 130.425 60.1364V60.0966C130.425 59.6004 130.285 59.2159 130.004 58.9432C129.728 58.6705 129.315 58.5341 128.766 58.5341C128.194 58.5341 127.743 58.661 127.413 58.9148C127.088 59.1648 126.862 59.4432 126.737 59.75L125.141 59.3864C125.33 58.8561 125.607 58.428 125.97 58.1023C126.338 57.7727 126.76 57.5341 127.237 57.3864C127.714 57.2348 128.216 57.1591 128.743 57.1591C129.091 57.1591 129.461 57.2008 129.851 57.2841C130.245 57.3636 130.612 57.5114 130.953 57.7273C131.298 57.9432 131.58 58.2519 131.8 58.6534C132.019 59.0511 132.129 59.5682 132.129 60.2045V66H130.47V64.8068H130.402C130.292 65.0265 130.127 65.2424 129.908 65.4545C129.688 65.6667 129.406 65.8428 129.061 65.983C128.716 66.1231 128.304 66.1932 127.822 66.1932ZM128.192 64.8295C128.661 64.8295 129.063 64.7367 129.396 64.5511C129.733 64.3655 129.989 64.1231 130.163 63.8239C130.341 63.5208 130.43 63.197 130.43 62.8523V61.7273C130.37 61.7879 130.252 61.8447 130.078 61.8977C129.908 61.947 129.713 61.9905 129.493 62.0284C129.273 62.0625 129.059 62.0947 128.851 62.125C128.643 62.1515 128.468 62.1742 128.328 62.1932C127.999 62.2348 127.697 62.3049 127.425 62.4034C127.156 62.5019 126.94 62.6439 126.777 62.8295C126.618 63.0114 126.538 63.2538 126.538 63.5568C126.538 63.9773 126.694 64.2955 127.004 64.5114C127.315 64.7235 127.711 64.8295 128.192 64.8295ZM138.466 57.2727V58.6364H133.699V57.2727H138.466ZM134.977 55.1818H136.676V63.4375C136.676 63.767 136.725 64.0152 136.824 64.1818C136.922 64.3447 137.049 64.4564 137.205 64.517C137.364 64.5739 137.536 64.6023 137.722 64.6023C137.858 64.6023 137.977 64.5928 138.08 64.5739C138.182 64.5549 138.261 64.5398 138.318 64.5284L138.625 65.9318C138.527 65.9697 138.386 66.0076 138.205 66.0455C138.023 66.0871 137.795 66.1098 137.523 66.1136C137.076 66.1212 136.659 66.0417 136.273 65.875C135.886 65.7083 135.574 65.4508 135.335 65.1023C135.097 64.7538 134.977 64.3163 134.977 63.7898V55.1818ZM142.243 54.3636V55.4545C142.243 55.7765 142.182 56.1155 142.061 56.4716C141.944 56.8239 141.777 57.1629 141.561 57.4886C141.345 57.8144 141.091 58.0947 140.8 58.3295L139.959 57.7273C140.182 57.4015 140.375 57.0549 140.538 56.6875C140.705 56.3201 140.788 55.9148 140.788 55.4716V54.3636H142.243ZM149.322 59.4034L147.783 59.6761C147.718 59.4792 147.616 59.2917 147.476 59.1136C147.339 58.9356 147.154 58.7898 146.919 58.6761C146.684 58.5625 146.391 58.5057 146.038 58.5057C145.557 58.5057 145.156 58.6136 144.834 58.8295C144.512 59.0417 144.351 59.3163 144.351 59.6534C144.351 59.9451 144.459 60.1799 144.675 60.358C144.891 60.536 145.239 60.6818 145.72 60.7955L147.107 61.1136C147.91 61.2992 148.508 61.5852 148.902 61.9716C149.296 62.358 149.493 62.8598 149.493 63.4773C149.493 64 149.341 64.4659 149.038 64.875C148.739 65.2803 148.321 65.5985 147.783 65.8295C147.249 66.0606 146.629 66.1761 145.925 66.1761C144.947 66.1761 144.15 65.9678 143.533 65.5511C142.915 65.1307 142.536 64.5341 142.396 63.7614L144.038 63.5114C144.141 63.9394 144.351 64.2633 144.669 64.483C144.987 64.6989 145.402 64.8068 145.913 64.8068C146.47 64.8068 146.915 64.6913 147.249 64.4602C147.582 64.2254 147.749 63.9394 147.749 63.6023C147.749 63.3295 147.646 63.1004 147.442 62.9148C147.241 62.7292 146.932 62.589 146.516 62.4943L145.038 62.1705C144.224 61.9848 143.622 61.6894 143.232 61.2841C142.845 60.8788 142.652 60.3655 142.652 59.7443C142.652 59.2292 142.796 58.7784 143.084 58.392C143.372 58.0057 143.769 57.7045 144.277 57.4886C144.785 57.2689 145.366 57.1591 146.021 57.1591C146.964 57.1591 147.707 57.3636 148.249 57.7727C148.79 58.178 149.148 58.7216 149.322 59.4034ZM157.294 60.8182V66H155.595V54.3636H157.271V58.6932H157.379C157.584 58.2235 157.896 57.8504 158.317 57.5739C158.737 57.2973 159.286 57.1591 159.964 57.1591C160.563 57.1591 161.086 57.2822 161.533 57.5284C161.983 57.7746 162.332 58.142 162.578 58.6307C162.828 59.1155 162.953 59.7216 162.953 60.4489V66H161.254V60.6534C161.254 60.0133 161.089 59.517 160.76 59.1648C160.43 58.8087 159.972 58.6307 159.385 58.6307C158.983 58.6307 158.624 58.7159 158.305 58.8864C157.991 59.0568 157.743 59.3068 157.561 59.6364C157.383 59.9621 157.294 60.3561 157.294 60.8182ZM168.896 66.1761C168.078 66.1761 167.364 65.9886 166.754 65.6136C166.144 65.2386 165.671 64.714 165.334 64.0398C164.997 63.3655 164.828 62.5777 164.828 61.6761C164.828 60.7708 164.997 59.9792 165.334 59.3011C165.671 58.6231 166.144 58.0966 166.754 57.7216C167.364 57.3466 168.078 57.1591 168.896 57.1591C169.714 57.1591 170.429 57.3466 171.038 57.7216C171.648 58.0966 172.122 58.6231 172.459 59.3011C172.796 59.9792 172.964 60.7708 172.964 61.6761C172.964 62.5777 172.796 63.3655 172.459 64.0398C172.122 64.714 171.648 65.2386 171.038 65.6136C170.429 65.9886 169.714 66.1761 168.896 66.1761ZM168.902 64.75C169.432 64.75 169.872 64.6098 170.22 64.3295C170.569 64.0492 170.826 63.6761 170.993 63.2102C171.163 62.7443 171.249 62.2311 171.249 61.6705C171.249 61.1136 171.163 60.6023 170.993 60.1364C170.826 59.6667 170.569 59.2898 170.22 59.0057C169.872 58.7216 169.432 58.5795 168.902 58.5795C168.368 58.5795 167.925 58.7216 167.572 59.0057C167.224 59.2898 166.964 59.6667 166.794 60.1364C166.627 60.6023 166.544 61.1136 166.544 61.6705C166.544 62.2311 166.627 62.7443 166.794 63.2102C166.964 63.6761 167.224 64.0492 167.572 64.3295C167.925 64.6098 168.368 64.75 168.902 64.75ZM178.935 57.2727V58.6364H174.168V57.2727H178.935ZM175.446 55.1818H177.145V63.4375C177.145 63.767 177.194 64.0152 177.293 64.1818C177.391 64.3447 177.518 64.4564 177.673 64.517C177.832 64.5739 178.005 64.6023 178.19 64.6023C178.327 64.6023 178.446 64.5928 178.548 64.5739C178.651 64.5549 178.73 64.5398 178.787 64.5284L179.094 65.9318C178.995 65.9697 178.855 66.0076 178.673 66.0455C178.491 66.0871 178.264 66.1098 177.991 66.1136C177.545 66.1212 177.128 66.0417 176.741 65.875C176.355 65.7083 176.043 65.4508 175.804 65.1023C175.565 64.7538 175.446 64.3163 175.446 63.7898V55.1818Z" fill="white"/>
</g>
<defs>
<filter id="filter0_d_2219_3038" x="2.96826" y="2.1582" width="20.4644" height="22.4766" filterUnits="userSpaceOnUse" color-interpolation-filters="sRGB">
<feFlood flood-opacity="0" result="BackgroundImageFix"/>
<feColorMatrix in="SourceAlpha" type="matrix" values="0 0 0 0 0 0 0 0 0 0 0 0 0 0 0 0 0 0 127 0" result="hardAlpha"/>
<feOffset dy="1"/>
<feGaussianBlur stdDeviation="1"/>
<feComposite in2="hardAlpha" operator="out"/>
<feColorMatrix type="matrix" values="0 0 0 0 0 0 0 0 0 0 0 0 0 0 0 0 0 0 0.25 0"/>
<feBlend mode="normal" in2="BackgroundImageFix" result="effect1_dropShadow_2219_3038"/>
<feBlend mode="normal" in="SourceGraphic" in2="effect1_dropShadow_2219_3038" result="shape"/>
</filter>
<filter id="filter1_d_2219_3038" x="12" y="14" width="202" height="80" filterUnits="userSpaceOnUse" color-interpolation-filters="sRGB">
<feFlood flood-opacity="0" result="BackgroundImageFix"/>
<feColorMatrix in="SourceAlpha" type="matrix" values="0 0 0 0 0 0 0 0 0 0 0 0 0 0 0 0 0 0 127 0" result="hardAlpha"/>
<feOffset dx="4" dy="4"/>
<feGaussianBlur stdDeviation="5"/>
<feComposite in2="hardAlpha" operator="out"/>
<feColorMatrix type="matrix" values="0 0 0 0 0.968627 0 0 0 0 0.819608 0 0 0 0 0.345098 0 0 0 0.16 0"/>
<feBlend mode="normal" in2="BackgroundImageFix" result="effect1_dropShadow_2219_3038"/>
<feBlend mode="normal" in="SourceGraphic" in2="effect1_dropShadow_2219_3038" result="shape"/>
</filter>
</defs>
</svg>
