<svg width="249" height="94" viewBox="0 0 249 94" fill="none" xmlns="http://www.w3.org/2000/svg">
<g filter="url(#filter0_d_2219_3038)">
<path d="M8.81678 20.3643L5.66312 4.11451L20.143 12.1353L13.0104 14.2272L8.81678 20.3643Z" fill="#EB47D3"/>
<path d="M8.81678 20.3643L5.66312 4.11451L20.143 12.1353L13.0104 14.2272L8.81678 20.3643Z" stroke="white"/>
</g>
<g filter="url(#filter1_d_2219_3038)">
<path d="M18 22C18 20.8954 18.8954 20 20 20H211C224.255 20 235 30.7452 235 44V56C235 69.2548 224.255 80 211 80H42C28.7452 80 18 69.2548 18 56V22Z" fill="#EB47D3" shape-rendering="crispEdges"/>
<path d="M20 21H211C223.703 21 234 31.2975 234 44V56C234 68.7025 223.703 79 211 79H42C29.2975 79 19 68.7025 19 56V22C19 21.4477 19.4477 21 20 21Z" stroke="#EB47D3" stroke-width="2" shape-rendering="crispEdges"/>
<path opacity="0.8" d="M35.0387 43V33.5455H40.9016V34.7734H36.4652V37.6541H40.4815V38.8775H36.4652V43H35.0387ZM42.5451 43V35.9091H43.9254V43H42.5451ZM43.2422 34.815C43.0021 34.815 42.7959 34.735 42.6236 34.5749C42.4543 34.4118 42.3697 34.2179 42.3697 33.9933C42.3697 33.7655 42.4543 33.5716 42.6236 33.4116C42.7959 33.2485 43.0021 33.1669 43.2422 33.1669C43.4822 33.1669 43.6869 33.2485 43.8562 33.4116C44.0285 33.5716 44.1147 33.7655 44.1147 33.9933C44.1147 34.2179 44.0285 34.4118 43.8562 34.5749C43.6869 34.735 43.4822 34.815 43.2422 34.815ZM48.7554 45.8068C48.1922 45.8068 47.7075 45.733 47.3012 45.5852C46.8981 45.4375 46.5687 45.2421 46.3133 44.9989C46.0579 44.7558 45.867 44.4896 45.7409 44.2003L46.9273 43.7109C47.0104 43.8464 47.1212 43.9895 47.2597 44.1403C47.4012 44.2942 47.5921 44.425 47.8321 44.5327C48.0753 44.6404 48.3876 44.6942 48.7693 44.6942C49.2925 44.6942 49.7249 44.5665 50.0665 44.3111C50.4081 44.0587 50.5789 43.6555 50.5789 43.1016V41.7074H50.4912C50.4081 41.8582 50.2881 42.0259 50.1311 42.2106C49.9772 42.3952 49.7649 42.5553 49.4941 42.6907C49.2232 42.8261 48.8708 42.8938 48.4369 42.8938C47.8767 42.8938 47.372 42.763 46.9227 42.5014C46.4764 42.2367 46.1225 41.8474 45.8609 41.3335C45.6024 40.8164 45.4731 40.1809 45.4731 39.4268C45.4731 38.6728 45.6008 38.0265 45.8563 37.4879C46.1148 36.9493 46.4687 36.5369 46.9181 36.2507C47.3674 35.9614 47.8767 35.8168 48.4461 35.8168C48.8862 35.8168 49.2417 35.8906 49.5125 36.0384C49.7834 36.183 49.9942 36.3523 50.145 36.5462C50.2989 36.7401 50.4173 36.9109 50.5004 37.0586H50.602V35.9091H51.9546V43.157C51.9546 43.7663 51.8131 44.2665 51.5299 44.6573C51.2468 45.0482 50.8636 45.3375 50.3804 45.5252C49.9003 45.7129 49.3586 45.8068 48.7554 45.8068ZM48.7416 41.7489C49.1386 41.7489 49.474 41.6566 49.748 41.4719C50.0249 41.2842 50.2342 41.0165 50.3758 40.6687C50.5204 40.3178 50.5928 39.8977 50.5928 39.4084C50.5928 38.9313 50.522 38.5112 50.3804 38.1481C50.2388 37.7849 50.0311 37.5018 49.7572 37.2987C49.4833 37.0924 49.1447 36.9893 48.7416 36.9893C48.3261 36.9893 47.9798 37.0971 47.7029 37.3125C47.4259 37.5249 47.2166 37.8142 47.075 38.1804C46.9365 38.5466 46.8673 38.956 46.8673 39.4084C46.8673 39.8731 46.9381 40.2809 47.0796 40.6317C47.2212 40.9826 47.4305 41.2565 47.7075 41.4535C47.9875 41.6504 48.3322 41.7489 48.7416 41.7489ZM53.8058 43V35.9091H55.1308V37.0632H55.2185C55.3662 36.6723 55.6078 36.3677 55.9433 36.1491C56.2787 35.9276 56.6804 35.8168 57.1482 35.8168C57.6221 35.8168 58.0191 35.9276 58.3392 36.1491C58.6624 36.3707 58.9009 36.6754 59.0548 37.0632H59.1286C59.2979 36.6847 59.5672 36.383 59.9365 36.1584C60.3058 35.9306 60.7459 35.8168 61.2568 35.8168C61.9001 35.8168 62.4248 36.0183 62.8311 36.4215C63.2404 36.8247 63.445 37.4325 63.445 38.245V43H62.0647V38.3743C62.0647 37.8942 61.9339 37.5464 61.6723 37.331C61.4107 37.1155 61.0983 37.0078 60.7352 37.0078C60.2858 37.0078 59.9365 37.1463 59.6872 37.4233C59.4379 37.6972 59.3133 38.0496 59.3133 38.4805V43H57.9376V38.2866C57.9376 37.9019 57.8176 37.5926 57.5775 37.3587C57.3374 37.1248 57.0251 37.0078 56.6404 37.0078C56.3788 37.0078 56.1372 37.0771 55.9156 37.2156C55.6971 37.351 55.5201 37.5402 55.3847 37.7834C55.2523 38.0265 55.1862 38.3081 55.1862 38.6282V43H53.8058ZM67.3587 43.157C66.9093 43.157 66.5031 43.0739 66.1399 42.9077C65.7768 42.7384 65.489 42.4937 65.2766 42.1737C65.0674 41.8536 64.9627 41.4612 64.9627 40.9964C64.9627 40.5964 65.0397 40.267 65.1935 40.0085C65.3474 39.75 65.5552 39.5453 65.8168 39.3945C66.0784 39.2437 66.3707 39.1299 66.6939 39.0529C67.017 38.976 67.3464 38.9175 67.6818 38.8775C68.1065 38.8282 68.4512 38.7882 68.7159 38.7575C68.9806 38.7236 69.1729 38.6697 69.293 38.5959C69.413 38.522 69.473 38.402 69.473 38.2358V38.2035C69.473 37.8003 69.3591 37.4879 69.1314 37.2663C68.9067 37.0447 68.5713 36.9339 68.125 36.9339C67.6603 36.9339 67.294 37.037 67.0263 37.2433C66.7616 37.4464 66.5785 37.6726 66.4769 37.9219L65.1797 37.6264C65.3336 37.1955 65.5582 36.8478 65.8537 36.5831C66.1522 36.3153 66.4954 36.1214 66.8832 36.0014C67.271 35.8783 67.6787 35.8168 68.1065 35.8168C68.3897 35.8168 68.6897 35.8506 69.0067 35.9183C69.3268 35.983 69.6254 36.103 69.9023 36.2784C70.1824 36.4538 70.4117 36.7047 70.5902 37.0309C70.7687 37.354 70.858 37.7741 70.858 38.2912V43H69.5099V42.0305H69.4545C69.3653 42.209 69.2314 42.3845 69.0529 42.5568C68.8744 42.7292 68.6451 42.8723 68.3651 42.9862C68.085 43.1 67.7495 43.157 67.3587 43.157ZM67.6587 42.049C68.0404 42.049 68.3666 41.9736 68.6374 41.8228C68.9113 41.672 69.1191 41.475 69.2607 41.2319C69.4053 40.9857 69.4776 40.7225 69.4776 40.4425V39.5284C69.4284 39.5777 69.333 39.6238 69.1914 39.6669C69.0529 39.7069 68.8944 39.7423 68.7159 39.7731C68.5374 39.8008 68.3635 39.8269 68.1942 39.8516C68.025 39.8731 67.8834 39.8916 67.7695 39.907C67.5018 39.9408 67.2571 39.9978 67.0355 40.0778C66.817 40.1578 66.6416 40.2732 66.5092 40.424C66.38 40.5717 66.3153 40.7687 66.3153 41.0149C66.3153 41.3565 66.4415 41.6151 66.6939 41.7905C66.9463 41.9628 67.2679 42.049 67.6587 42.049ZM81.4043 36.0291C81.3551 35.5921 81.1519 35.2536 80.7949 35.0135C80.4379 34.7704 79.9886 34.6488 79.4469 34.6488C79.0591 34.6488 78.7237 34.7103 78.4405 34.8335C78.1574 34.9535 77.9373 35.1197 77.7804 35.332C77.6265 35.5413 77.5495 35.7798 77.5495 36.0476C77.5495 36.2723 77.6019 36.4661 77.7065 36.6293C77.8142 36.7924 77.9542 36.9293 78.1266 37.0401C78.302 37.1478 78.4898 37.2386 78.6898 37.3125C78.8899 37.3833 79.0822 37.4418 79.2669 37.4879L80.1902 37.728C80.4918 37.8018 80.8011 37.9019 81.1181 38.0281C81.4351 38.1542 81.729 38.3204 81.9998 38.5266C82.2707 38.7328 82.4892 38.9883 82.6554 39.293C82.8246 39.5977 82.9093 39.9624 82.9093 40.3871C82.9093 40.9226 82.7708 41.3981 82.4938 41.8136C82.2199 42.229 81.8213 42.5568 81.2981 42.7969C80.778 43.0369 80.1486 43.157 79.41 43.157C78.7021 43.157 78.0897 43.0446 77.5726 42.82C77.0556 42.5953 76.6509 42.2768 76.3585 41.8643C76.0661 41.4489 75.9045 40.9564 75.8738 40.3871H77.3049C77.3326 40.7287 77.4434 41.0134 77.6373 41.2411C77.8342 41.4658 78.085 41.6335 78.3897 41.7443C78.6975 41.852 79.0345 41.9059 79.4007 41.9059C79.8039 41.9059 80.1625 41.8428 80.4764 41.7166C80.7934 41.5874 81.0427 41.4089 81.2243 41.1811C81.4058 40.9503 81.4966 40.681 81.4966 40.3732C81.4966 40.0932 81.4166 39.8639 81.2566 39.6854C81.0996 39.5069 80.8857 39.3591 80.6149 39.2422C80.3471 39.1252 80.044 39.0221 79.7054 38.9329L78.5882 38.6282C77.8311 38.422 77.231 38.1188 76.7878 37.7188C76.3477 37.3187 76.1277 36.7893 76.1277 36.1307C76.1277 35.5859 76.2754 35.1104 76.5708 34.7042C76.8663 34.2979 77.2664 33.9825 77.7711 33.7578C78.2759 33.5301 78.8452 33.4162 79.4792 33.4162C80.1194 33.4162 80.6841 33.5285 81.1735 33.7532C81.6659 33.9779 82.0537 34.2872 82.3368 34.6811C82.62 35.072 82.7677 35.5213 82.78 36.0291H81.4043ZM87.8131 35.9091V37.017H83.9399V35.9091H87.8131ZM84.9786 34.2102H86.3589V40.918C86.3589 41.1857 86.3989 41.3873 86.479 41.5227C86.559 41.6551 86.6621 41.7459 86.7883 41.7951C86.9175 41.8413 87.0576 41.8643 87.2084 41.8643C87.3192 41.8643 87.4161 41.8567 87.4992 41.8413C87.5823 41.8259 87.6469 41.8136 87.6931 41.8043L87.9424 42.9446C87.8624 42.9754 87.7485 43.0062 87.6008 43.0369C87.453 43.0708 87.2684 43.0893 87.0468 43.0923C86.6836 43.0985 86.3451 43.0339 86.0312 42.8984C85.7172 42.763 85.4633 42.5537 85.2694 42.2706C85.0756 41.9875 84.9786 41.632 84.9786 41.2042V34.2102ZM91.4036 43.157C90.9542 43.157 90.548 43.0739 90.1848 42.9077C89.8217 42.7384 89.5339 42.4937 89.3216 42.1737C89.1123 41.8536 89.0076 41.4612 89.0076 40.9964C89.0076 40.5964 89.0846 40.267 89.2385 40.0085C89.3923 39.75 89.6001 39.5453 89.8617 39.3945C90.1233 39.2437 90.4157 39.1299 90.7388 39.0529C91.062 38.976 91.3913 38.9175 91.7267 38.8775C92.1515 38.8282 92.4962 38.7882 92.7608 38.7575C93.0255 38.7236 93.2179 38.6697 93.3379 38.5959C93.4579 38.522 93.5179 38.402 93.5179 38.2358V38.2035C93.5179 37.8003 93.4041 37.4879 93.1763 37.2663C92.9516 37.0447 92.6162 36.9339 92.1699 36.9339C91.7052 36.9339 91.339 37.037 91.0712 37.2433C90.8065 37.4464 90.6234 37.6726 90.5218 37.9219L89.2246 37.6264C89.3785 37.1955 89.6032 36.8478 89.8986 36.5831C90.1971 36.3153 90.5403 36.1214 90.9281 36.0014C91.3159 35.8783 91.7237 35.8168 92.1515 35.8168C92.4346 35.8168 92.7347 35.8506 93.0517 35.9183C93.3717 35.983 93.6703 36.103 93.9473 36.2784C94.2273 36.4538 94.4566 36.7047 94.6351 37.0309C94.8136 37.354 94.9029 37.7741 94.9029 38.2912V43H93.5549V42.0305H93.4995C93.4102 42.209 93.2763 42.3845 93.0978 42.5568C92.9193 42.7292 92.69 42.8723 92.41 42.9862C92.1299 43.1 91.7944 43.157 91.4036 43.157ZM91.7037 42.049C92.0853 42.049 92.4115 41.9736 92.6824 41.8228C92.9563 41.672 93.164 41.475 93.3056 41.2319C93.4502 40.9857 93.5225 40.7225 93.5225 40.4425V39.5284C93.4733 39.5777 93.3779 39.6238 93.2363 39.6669C93.0978 39.7069 92.9393 39.7423 92.7608 39.7731C92.5823 39.8008 92.4084 39.8269 92.2392 39.8516C92.0699 39.8731 91.9283 39.8916 91.8145 39.907C91.5467 39.9408 91.302 39.9978 91.0804 40.0778C90.8619 40.1578 90.6865 40.2732 90.5542 40.424C90.4249 40.5717 90.3603 40.7687 90.3603 41.0149C90.3603 41.3565 90.4864 41.6151 90.7388 41.7905C90.9912 41.9628 91.3128 42.049 91.7037 42.049ZM98.1217 33.5455V43H96.7414V33.5455H98.1217ZM101.248 40.5948L101.239 38.9098H101.479L104.304 35.9091H105.957L102.735 39.3253H102.518L101.248 40.5948ZM99.9787 43V33.5455H101.359V43H99.9787ZM104.457 43L101.918 39.63L102.869 38.6651L106.151 43H104.457ZM109.979 43.1431C109.281 43.1431 108.679 42.9938 108.174 42.6953C107.672 42.3937 107.285 41.9705 107.011 41.4258C106.74 40.878 106.604 40.2363 106.604 39.5007C106.604 38.7744 106.74 38.1342 107.011 37.5803C107.285 37.0263 107.666 36.5939 108.156 36.283C108.648 35.9722 109.224 35.8168 109.882 35.8168C110.282 35.8168 110.67 35.8829 111.046 36.0153C111.421 36.1476 111.758 36.3554 112.057 36.6385C112.355 36.9216 112.591 37.2894 112.763 37.7418C112.935 38.1912 113.021 38.7375 113.021 39.3807V39.87H107.385V38.8359H111.669C111.669 38.4728 111.595 38.1512 111.447 37.8711C111.299 37.5879 111.092 37.3648 110.824 37.2017C110.559 37.0386 110.248 36.957 109.891 36.957C109.504 36.957 109.165 37.0524 108.876 37.2433C108.59 37.431 108.368 37.6772 108.211 37.9819C108.057 38.2835 107.98 38.6113 107.98 38.9652V39.7731C107.98 40.247 108.063 40.6502 108.229 40.9826C108.399 41.315 108.634 41.5689 108.936 41.7443C109.237 41.9167 109.59 42.0028 109.993 42.0028C110.255 42.0028 110.493 41.9659 110.709 41.892C110.924 41.8151 111.11 41.7012 111.267 41.5504C111.424 41.3996 111.544 41.2134 111.627 40.9918L112.934 41.2273C112.829 41.612 112.641 41.949 112.37 42.2383C112.103 42.5245 111.766 42.7476 111.359 42.9077C110.956 43.0646 110.496 43.1431 109.979 43.1431ZM114.553 43V35.9091H115.887V37.0355H115.961C116.09 36.6539 116.318 36.3538 116.644 36.1353C116.973 35.9137 117.346 35.8029 117.761 35.8029C117.848 35.8029 117.949 35.806 118.066 35.8121C118.186 35.8183 118.28 35.826 118.348 35.8352V37.1555C118.292 37.1402 118.194 37.1232 118.052 37.1048C117.911 37.0832 117.769 37.0724 117.627 37.0724C117.301 37.0724 117.01 37.1417 116.755 37.2802C116.503 37.4156 116.303 37.6049 116.155 37.848C116.007 38.0881 115.933 38.362 115.933 38.6697V43H114.553Z" fill="white" fill-opacity="0.7"/>
<path d="M38.8182 66.1761C38 66.1761 37.286 65.9886 36.6761 65.6136C36.0663 65.2386 35.5928 64.714 35.2557 64.0398C34.9186 63.3655 34.75 62.5777 34.75 61.6761C34.75 60.7708 34.9186 59.9792 35.2557 59.3011C35.5928 58.6231 36.0663 58.0966 36.6761 57.7216C37.286 57.3466 38 57.1591 38.8182 57.1591C39.6364 57.1591 40.3504 57.3466 40.9602 57.7216C41.5701 58.0966 42.0436 58.6231 42.3807 59.3011C42.7178 59.9792 42.8864 60.7708 42.8864 61.6761C42.8864 62.5777 42.7178 63.3655 42.3807 64.0398C42.0436 64.714 41.5701 65.2386 40.9602 65.6136C40.3504 65.9886 39.6364 66.1761 38.8182 66.1761ZM38.8239 64.75C39.3542 64.75 39.7936 64.6098 40.142 64.3295C40.4905 64.0492 40.7481 63.6761 40.9148 63.2102C41.0852 62.7443 41.1705 62.2311 41.1705 61.6705C41.1705 61.1136 41.0852 60.6023 40.9148 60.1364C40.7481 59.6667 40.4905 59.2898 40.142 59.0057C39.7936 58.7216 39.3542 58.5795 38.8239 58.5795C38.2898 58.5795 37.8466 58.7216 37.4943 59.0057C37.1458 59.2898 36.8864 59.6667 36.7159 60.1364C36.5492 60.6023 36.4659 61.1136 36.4659 61.6705C36.4659 62.2311 36.5492 62.7443 36.7159 63.2102C36.8864 63.6761 37.1458 64.0492 37.4943 64.3295C37.8466 64.6098 38.2898 64.75 38.8239 64.75ZM46.3452 63.0398L46.3338 60.9659H46.6293L50.1065 57.2727H52.1406L48.1747 61.4773H47.9077L46.3452 63.0398ZM44.7827 66V54.3636H46.4815V66H44.7827ZM50.294 66L47.169 61.8523L48.3395 60.6648L52.3793 66H50.294ZM59.6222 54.3636V66H57.9233V54.3636H59.6222ZM65.5838 66.1761C64.7656 66.1761 64.0516 65.9886 63.4418 65.6136C62.8319 65.2386 62.3584 64.714 62.0213 64.0398C61.6842 63.3655 61.5156 62.5777 61.5156 61.6761C61.5156 60.7708 61.6842 59.9792 62.0213 59.3011C62.3584 58.6231 62.8319 58.0966 63.4418 57.7216C64.0516 57.3466 64.7656 57.1591 65.5838 57.1591C66.402 57.1591 67.116 57.3466 67.7259 57.7216C68.3357 58.0966 68.8092 58.6231 69.1463 59.3011C69.4834 59.9792 69.652 60.7708 69.652 61.6761C69.652 62.5777 69.4834 63.3655 69.1463 64.0398C68.8092 64.714 68.3357 65.2386 67.7259 65.6136C67.116 65.9886 66.402 66.1761 65.5838 66.1761ZM65.5895 64.75C66.1198 64.75 66.5592 64.6098 66.9077 64.3295C67.2562 64.0492 67.5137 63.6761 67.6804 63.2102C67.8509 62.7443 67.9361 62.2311 67.9361 61.6705C67.9361 61.1136 67.8509 60.6023 67.6804 60.1364C67.5137 59.6667 67.2562 59.2898 66.9077 59.0057C66.5592 58.7216 66.1198 58.5795 65.5895 58.5795C65.0554 58.5795 64.6122 58.7216 64.2599 59.0057C63.9115 59.2898 63.652 59.6667 63.4815 60.1364C63.3149 60.6023 63.2315 61.1136 63.2315 61.6705C63.2315 62.2311 63.3149 62.7443 63.4815 63.2102C63.652 63.6761 63.9115 64.0492 64.2599 64.3295C64.6122 64.6098 65.0554 64.75 65.5895 64.75ZM73.2472 54.3636V66H71.5483V54.3636H73.2472ZM83.8409 57.2727V58.6364H79.0739V57.2727H83.8409ZM80.3523 55.1818H82.0511V63.4375C82.0511 63.767 82.1004 64.0152 82.1989 64.1818C82.2973 64.3447 82.4242 64.4564 82.5795 64.517C82.7386 64.5739 82.911 64.6023 83.0966 64.6023C83.233 64.6023 83.3523 64.5928 83.4545 64.5739C83.5568 64.5549 83.6364 64.5398 83.6932 64.5284L84 65.9318C83.9015 65.9697 83.7614 66.0076 83.5795 66.0455C83.3977 66.0871 83.1705 66.1098 82.8977 66.1136C82.4508 66.1212 82.0341 66.0417 81.6477 65.875C81.2614 65.7083 80.9489 65.4508 80.7102 65.1023C80.4716 64.7538 80.3523 64.3163 80.3523 63.7898V55.1818ZM87.6065 60.8182V66H85.9077V54.3636H87.5838V58.6932H87.6918C87.8963 58.2235 88.2088 57.8504 88.6293 57.5739C89.0497 57.2973 89.599 57.1591 90.277 57.1591C90.8755 57.1591 91.3982 57.2822 91.8452 57.5284C92.2959 57.7746 92.6444 58.142 92.8906 58.6307C93.1406 59.1155 93.2656 59.7216 93.2656 60.4489V66H91.5668V60.6534C91.5668 60.0133 91.402 59.517 91.0724 59.1648C90.7429 58.8087 90.2846 58.6307 89.6974 58.6307C89.2959 58.6307 88.9361 58.7159 88.6179 58.8864C88.3035 59.0568 88.0554 59.3068 87.8736 59.6364C87.6955 59.9621 87.6065 60.3561 87.6065 60.8182ZM98.0724 66.1932C97.5194 66.1932 97.0194 66.0909 96.5724 65.8864C96.1255 65.678 95.7713 65.3769 95.5099 64.983C95.2524 64.589 95.1236 64.1061 95.1236 63.5341C95.1236 63.0417 95.2183 62.6364 95.4077 62.3182C95.5971 62 95.8527 61.7481 96.1747 61.5625C96.4967 61.3769 96.8565 61.2367 97.2543 61.142C97.652 61.0473 98.0573 60.9754 98.4702 60.9261C98.9929 60.8655 99.4171 60.8163 99.7429 60.7784C100.069 60.7367 100.305 60.6705 100.453 60.5795C100.601 60.4886 100.675 60.3409 100.675 60.1364V60.0966C100.675 59.6004 100.535 59.2159 100.254 58.9432C99.9777 58.6705 99.5649 58.5341 99.0156 58.5341C98.4437 58.5341 97.9929 58.661 97.6634 58.9148C97.3376 59.1648 97.1122 59.4432 96.9872 59.75L95.3906 59.3864C95.58 58.8561 95.8565 58.428 96.2202 58.1023C96.5876 57.7727 97.0099 57.5341 97.4872 57.3864C97.9645 57.2348 98.4664 57.1591 98.9929 57.1591C99.3414 57.1591 99.7107 57.2008 100.101 57.2841C100.495 57.3636 100.862 57.5114 101.203 57.7273C101.548 57.9432 101.83 58.2519 102.05 58.6534C102.269 59.0511 102.379 59.5682 102.379 60.2045V66H100.72V64.8068H100.652C100.542 65.0265 100.377 65.2424 100.158 65.4545C99.938 65.6667 99.6558 65.8428 99.3111 65.983C98.9664 66.1231 98.5535 66.1932 98.0724 66.1932ZM98.4418 64.8295C98.9115 64.8295 99.313 64.7367 99.6463 64.5511C99.9834 64.3655 100.239 64.1231 100.413 63.8239C100.591 63.5208 100.68 63.197 100.68 62.8523V61.7273C100.62 61.7879 100.502 61.8447 100.328 61.8977C100.158 61.947 99.9626 61.9905 99.7429 62.0284C99.5232 62.0625 99.3092 62.0947 99.1009 62.125C98.8925 62.1515 98.7183 62.1742 98.5781 62.1932C98.2486 62.2348 97.9474 62.3049 97.6747 62.4034C97.4058 62.5019 97.1899 62.6439 97.027 62.8295C96.8679 63.0114 96.7884 63.2538 96.7884 63.5568C96.7884 63.9773 96.9437 64.2955 97.2543 64.5114C97.5649 64.7235 97.9607 64.8295 98.4418 64.8295ZM108.716 57.2727V58.6364H103.949V57.2727H108.716ZM105.227 55.1818H106.926V63.4375C106.926 63.767 106.975 64.0152 107.074 64.1818C107.172 64.3447 107.299 64.4564 107.455 64.517C107.614 64.5739 107.786 64.6023 107.972 64.6023C108.108 64.6023 108.227 64.5928 108.33 64.5739C108.432 64.5549 108.511 64.5398 108.568 64.5284L108.875 65.9318C108.777 65.9697 108.636 66.0076 108.455 66.0455C108.273 66.0871 108.045 66.1098 107.773 66.1136C107.326 66.1212 106.909 66.0417 106.523 65.875C106.136 65.7083 105.824 65.4508 105.585 65.1023C105.347 64.7538 105.227 64.3163 105.227 63.7898V55.1818ZM112.493 54.3636V55.4545C112.493 55.7765 112.432 56.1155 112.311 56.4716C112.194 56.8239 112.027 57.1629 111.811 57.4886C111.595 57.8144 111.341 58.0947 111.05 58.3295L110.209 57.7273C110.432 57.4015 110.625 57.0549 110.788 56.6875C110.955 56.3201 111.038 55.9148 111.038 55.4716V54.3636H112.493ZM119.572 59.4034L118.033 59.6761C117.968 59.4792 117.866 59.2917 117.726 59.1136C117.589 58.9356 117.404 58.7898 117.169 58.6761C116.934 58.5625 116.641 58.5057 116.288 58.5057C115.807 58.5057 115.406 58.6136 115.084 58.8295C114.762 59.0417 114.601 59.3163 114.601 59.6534C114.601 59.9451 114.709 60.1799 114.925 60.358C115.141 60.536 115.489 60.6818 115.97 60.7955L117.357 61.1136C118.16 61.2992 118.758 61.5852 119.152 61.9716C119.546 62.358 119.743 62.8598 119.743 63.4773C119.743 64 119.591 64.4659 119.288 64.875C118.989 65.2803 118.571 65.5985 118.033 65.8295C117.499 66.0606 116.879 66.1761 116.175 66.1761C115.197 66.1761 114.4 65.9678 113.783 65.5511C113.165 65.1307 112.786 64.5341 112.646 63.7614L114.288 63.5114C114.391 63.9394 114.601 64.2633 114.919 64.483C115.237 64.6989 115.652 64.8068 116.163 64.8068C116.72 64.8068 117.165 64.6913 117.499 64.4602C117.832 64.2254 117.999 63.9394 117.999 63.6023C117.999 63.3295 117.896 63.1004 117.692 62.9148C117.491 62.7292 117.182 62.589 116.766 62.4943L115.288 62.1705C114.474 61.9848 113.872 61.6894 113.482 61.2841C113.095 60.8788 112.902 60.3655 112.902 59.7443C112.902 59.2292 113.046 58.7784 113.334 58.392C113.622 58.0057 114.019 57.7045 114.527 57.4886C115.035 57.2689 115.616 57.1591 116.271 57.1591C117.214 57.1591 117.957 57.3636 118.499 57.7727C119.04 58.178 119.398 58.7216 119.572 59.4034ZM125.845 69.2727V57.2727H127.504V58.6875H127.646C127.745 58.5057 127.887 58.2955 128.072 58.0568C128.258 57.8182 128.516 57.6098 128.845 57.4318C129.175 57.25 129.61 57.1591 130.152 57.1591C130.857 57.1591 131.485 57.3371 132.038 57.6932C132.591 58.0492 133.025 58.5625 133.339 59.233C133.658 59.9034 133.817 60.7102 133.817 61.6534C133.817 62.5966 133.66 63.4053 133.345 64.0795C133.031 64.75 132.599 65.267 132.05 65.6307C131.5 65.9905 130.874 66.1705 130.169 66.1705C129.639 66.1705 129.205 66.0814 128.868 65.9034C128.535 65.7254 128.273 65.517 128.084 65.2784C127.894 65.0398 127.749 64.8277 127.646 64.642H127.544V69.2727H125.845ZM127.51 61.6364C127.51 62.25 127.599 62.7879 127.777 63.25C127.955 63.7121 128.213 64.0739 128.55 64.3352C128.887 64.5928 129.3 64.7216 129.788 64.7216C130.296 64.7216 130.72 64.5871 131.061 64.3182C131.402 64.0455 131.66 63.6761 131.834 63.2102C132.012 62.7443 132.101 62.2197 132.101 61.6364C132.101 61.0606 132.014 60.5436 131.839 60.0852C131.669 59.6269 131.411 59.2652 131.067 59C130.726 58.7348 130.3 58.6023 129.788 58.6023C129.296 58.6023 128.879 58.7292 128.538 58.983C128.201 59.2367 127.946 59.5909 127.771 60.0455C127.597 60.5 127.51 61.0303 127.51 61.6364ZM135.72 66V57.2727H137.362V58.6591H137.453C137.612 58.1894 137.893 57.8201 138.294 57.5511C138.699 57.2784 139.158 57.142 139.669 57.142C139.775 57.142 139.9 57.1458 140.044 57.1534C140.192 57.161 140.307 57.1705 140.391 57.1818V58.8068C140.322 58.7879 140.201 58.767 140.027 58.7443C139.853 58.7178 139.679 58.7045 139.504 58.7045C139.103 58.7045 138.745 58.7898 138.43 58.9602C138.12 59.1269 137.874 59.3598 137.692 59.6591C137.51 59.9545 137.419 60.2917 137.419 60.6705V66H135.72ZM145.31 66.1761C144.45 66.1761 143.709 65.9924 143.088 65.625C142.471 65.2538 141.993 64.733 141.656 64.0625C141.323 63.3883 141.156 62.5985 141.156 61.6932C141.156 60.7992 141.323 60.0114 141.656 59.3295C141.993 58.6477 142.463 58.1155 143.065 57.733C143.671 57.3504 144.38 57.1591 145.19 57.1591C145.683 57.1591 146.16 57.2405 146.622 57.4034C147.084 57.5663 147.499 57.822 147.866 58.1705C148.234 58.5189 148.524 58.9716 148.736 59.5284C148.948 60.0814 149.054 60.7538 149.054 61.5455V62.1477H142.116V60.875H147.389C147.389 60.428 147.298 60.0322 147.116 59.6875C146.935 59.339 146.679 59.0644 146.349 58.8636C146.024 58.6629 145.641 58.5625 145.202 58.5625C144.724 58.5625 144.308 58.6799 143.952 58.9148C143.599 59.1458 143.327 59.4489 143.134 59.8239C142.944 60.1951 142.849 60.5985 142.849 61.0341V62.0284C142.849 62.6117 142.952 63.108 143.156 63.517C143.365 63.9261 143.654 64.2386 144.026 64.4545C144.397 64.6667 144.83 64.7727 145.327 64.7727C145.649 64.7727 145.942 64.7273 146.207 64.6364C146.473 64.5417 146.702 64.4015 146.895 64.2159C147.088 64.0303 147.236 63.8011 147.338 63.5284L148.946 63.8182C148.817 64.2917 148.586 64.7064 148.253 65.0625C147.923 65.4148 147.509 65.6894 147.009 65.8864C146.512 66.0795 145.946 66.1761 145.31 66.1761ZM155.013 57.2727V58.6364H150.246V57.2727H155.013ZM151.524 55.1818H153.223V63.4375C153.223 63.767 153.272 64.0152 153.371 64.1818C153.469 64.3447 153.596 64.4564 153.751 64.517C153.911 64.5739 154.083 64.6023 154.268 64.6023C154.405 64.6023 154.524 64.5928 154.626 64.5739C154.729 64.5549 154.808 64.5398 154.865 64.5284L155.172 65.9318C155.073 65.9697 154.933 66.0076 154.751 66.0455C154.57 66.0871 154.342 66.1098 154.07 66.1136C153.623 66.1212 153.206 66.0417 152.82 65.875C152.433 65.7083 152.121 65.4508 151.882 65.1023C151.643 64.7538 151.524 64.3163 151.524 63.7898V55.1818ZM160.966 57.2727V58.6364H156.199V57.2727H160.966ZM157.477 55.1818H159.176V63.4375C159.176 63.767 159.225 64.0152 159.324 64.1818C159.422 64.3447 159.549 64.4564 159.705 64.517C159.864 64.5739 160.036 64.6023 160.222 64.6023C160.358 64.6023 160.477 64.5928 160.58 64.5739C160.682 64.5549 160.761 64.5398 160.818 64.5284L161.125 65.9318C161.027 65.9697 160.886 66.0076 160.705 66.0455C160.523 66.0871 160.295 66.1098 160.023 66.1136C159.576 66.1212 159.159 66.0417 158.773 65.875C158.386 65.7083 158.074 65.4508 157.835 65.1023C157.597 64.7538 157.477 64.3163 157.477 63.7898V55.1818ZM163.919 69.2727C163.665 69.2727 163.434 69.2519 163.226 69.2102C163.018 69.1723 162.862 69.1307 162.76 69.0852L163.169 67.6932C163.48 67.7765 163.756 67.8125 163.999 67.8011C164.241 67.7898 164.455 67.6989 164.641 67.5284C164.83 67.358 164.997 67.0795 165.141 66.6932L165.351 66.1136L162.158 57.2727H163.976L166.186 64.0455H166.277L168.487 57.2727H170.311L166.714 67.1648C166.548 67.6193 166.336 68.0038 166.078 68.3182C165.821 68.6364 165.514 68.875 165.158 69.0341C164.802 69.1932 164.389 69.2727 163.919 69.2727ZM179.801 69.4545C179.108 69.4545 178.511 69.3636 178.011 69.1818C177.515 69 177.11 68.7595 176.795 68.4602C176.481 68.161 176.246 67.8333 176.091 67.4773L177.551 66.875C177.653 67.0417 177.79 67.2178 177.96 67.4034C178.134 67.5928 178.369 67.7538 178.665 67.8864C178.964 68.0189 179.348 68.0852 179.818 68.0852C180.462 68.0852 180.994 67.928 181.415 67.6136C181.835 67.303 182.045 66.8068 182.045 66.125V64.4091H181.938C181.835 64.5947 181.688 64.8011 181.494 65.0284C181.305 65.2557 181.044 65.4527 180.71 65.6193C180.377 65.786 179.943 65.8693 179.409 65.8693C178.72 65.8693 178.098 65.7083 177.545 65.3864C176.996 65.0606 176.561 64.5814 176.239 63.9489C175.92 63.3125 175.761 62.5303 175.761 61.6023C175.761 60.6742 175.919 59.8788 176.233 59.2159C176.551 58.553 176.987 58.0455 177.54 57.6932C178.093 57.3371 178.72 57.1591 179.42 57.1591C179.962 57.1591 180.4 57.25 180.733 57.4318C181.066 57.6098 181.326 57.8182 181.511 58.0568C181.701 58.2955 181.847 58.5057 181.949 58.6875H182.074V57.2727H183.739V66.1932C183.739 66.9432 183.564 67.5587 183.216 68.0398C182.867 68.5208 182.396 68.8769 181.801 69.108C181.21 69.339 180.544 69.4545 179.801 69.4545ZM179.784 64.4602C180.273 64.4602 180.686 64.3466 181.023 64.1193C181.364 63.8883 181.621 63.5587 181.795 63.1307C181.973 62.6989 182.062 62.1818 182.062 61.5795C182.062 60.9924 181.975 60.4754 181.801 60.0284C181.627 59.5814 181.371 59.233 181.034 58.983C180.697 58.7292 180.28 58.6023 179.784 58.6023C179.273 58.6023 178.847 58.7348 178.506 59C178.165 59.2614 177.907 59.6174 177.733 60.0682C177.563 60.5189 177.477 61.0227 177.477 61.5795C177.477 62.1515 177.564 62.6534 177.739 63.0852C177.913 63.517 178.17 63.8542 178.511 64.0966C178.856 64.339 179.28 64.4602 179.784 64.4602ZM189.693 66.1761C188.875 66.1761 188.161 65.9886 187.551 65.6136C186.941 65.2386 186.468 64.714 186.131 64.0398C185.794 63.3655 185.625 62.5777 185.625 61.6761C185.625 60.7708 185.794 59.9792 186.131 59.3011C186.468 58.6231 186.941 58.0966 187.551 57.7216C188.161 57.3466 188.875 57.1591 189.693 57.1591C190.511 57.1591 191.225 57.3466 191.835 57.7216C192.445 58.0966 192.919 58.6231 193.256 59.3011C193.593 59.9792 193.761 60.7708 193.761 61.6761C193.761 62.5777 193.593 63.3655 193.256 64.0398C192.919 64.714 192.445 65.2386 191.835 65.6136C191.225 65.9886 190.511 66.1761 189.693 66.1761ZM189.699 64.75C190.229 64.75 190.669 64.6098 191.017 64.3295C191.366 64.0492 191.623 63.6761 191.79 63.2102C191.96 62.7443 192.045 62.2311 192.045 61.6705C192.045 61.1136 191.96 60.6023 191.79 60.1364C191.623 59.6667 191.366 59.2898 191.017 59.0057C190.669 58.7216 190.229 58.5795 189.699 58.5795C189.165 58.5795 188.722 58.7216 188.369 59.0057C188.021 59.2898 187.761 59.6667 187.591 60.1364C187.424 60.6023 187.341 61.1136 187.341 61.6705C187.341 62.2311 187.424 62.7443 187.591 63.2102C187.761 63.6761 188.021 64.0492 188.369 64.3295C188.722 64.6098 189.165 64.75 189.699 64.75ZM199.334 66.1761C198.516 66.1761 197.802 65.9886 197.192 65.6136C196.582 65.2386 196.108 64.714 195.771 64.0398C195.434 63.3655 195.266 62.5777 195.266 61.6761C195.266 60.7708 195.434 59.9792 195.771 59.3011C196.108 58.6231 196.582 58.0966 197.192 57.7216C197.802 57.3466 198.516 57.1591 199.334 57.1591C200.152 57.1591 200.866 57.3466 201.476 57.7216C202.086 58.0966 202.559 58.6231 202.896 59.3011C203.233 59.9792 203.402 60.7708 203.402 61.6761C203.402 62.5777 203.233 63.3655 202.896 64.0398C202.559 64.714 202.086 65.2386 201.476 65.6136C200.866 65.9886 200.152 66.1761 199.334 66.1761ZM199.339 64.75C199.87 64.75 200.309 64.6098 200.658 64.3295C201.006 64.0492 201.264 63.6761 201.43 63.2102C201.601 62.7443 201.686 62.2311 201.686 61.6705C201.686 61.1136 201.601 60.6023 201.43 60.1364C201.264 59.6667 201.006 59.2898 200.658 59.0057C200.309 58.7216 199.87 58.5795 199.339 58.5795C198.805 58.5795 198.362 58.7216 198.01 59.0057C197.661 59.2898 197.402 59.6667 197.232 60.1364C197.065 60.6023 196.982 61.1136 196.982 61.6705C196.982 62.2311 197.065 62.7443 197.232 63.2102C197.402 63.6761 197.661 64.0492 198.01 64.3295C198.362 64.6098 198.805 64.75 199.339 64.75ZM208.565 66.1705C207.861 66.1705 207.232 65.9905 206.679 65.6307C206.13 65.267 205.698 64.75 205.384 64.0795C205.073 63.4053 204.918 62.5966 204.918 61.6534C204.918 60.7102 205.075 59.9034 205.389 59.233C205.707 58.5625 206.143 58.0492 206.696 57.6932C207.249 57.3371 207.876 57.1591 208.577 57.1591C209.118 57.1591 209.554 57.25 209.884 57.4318C210.217 57.6098 210.474 57.8182 210.656 58.0568C210.842 58.2955 210.986 58.5057 211.088 58.6875H211.19V54.3636H212.889V66H211.23V64.642H211.088C210.986 64.8277 210.838 65.0398 210.645 65.2784C210.455 65.517 210.194 65.7254 209.861 65.9034C209.527 66.0814 209.096 66.1705 208.565 66.1705ZM208.94 64.7216C209.429 64.7216 209.842 64.5928 210.179 64.3352C210.52 64.0739 210.777 63.7121 210.952 63.25C211.13 62.7879 211.219 62.25 211.219 61.6364C211.219 61.0303 211.132 60.5 210.957 60.0455C210.783 59.5909 210.527 59.2367 210.19 58.983C209.853 58.7292 209.437 58.6023 208.94 58.6023C208.429 58.6023 208.003 58.7348 207.662 59C207.321 59.2652 207.063 59.6269 206.889 60.0852C206.719 60.5436 206.634 61.0606 206.634 61.6364C206.634 62.2197 206.721 62.7443 206.895 63.2102C207.069 63.6761 207.327 64.0455 207.668 64.3182C208.012 64.5871 208.437 64.7216 208.94 64.7216Z" fill="white"/>
</g>
<defs>
<filter id="filter0_d_2219_3038" x="2.96826" y="2.1582" width="20.4644" height="22.4766" filterUnits="userSpaceOnUse" color-interpolation-filters="sRGB">
<feFlood flood-opacity="0" result="BackgroundImageFix"/>
<feColorMatrix in="SourceAlpha" type="matrix" values="0 0 0 0 0 0 0 0 0 0 0 0 0 0 0 0 0 0 127 0" result="hardAlpha"/>
<feOffset dy="1"/>
<feGaussianBlur stdDeviation="1"/>
<feComposite in2="hardAlpha" operator="out"/>
<feColorMatrix type="matrix" values="0 0 0 0 0 0 0 0 0 0 0 0 0 0 0 0 0 0 0.25 0"/>
<feBlend mode="normal" in2="BackgroundImageFix" result="effect1_dropShadow_2219_3038"/>
<feBlend mode="normal" in="SourceGraphic" in2="effect1_dropShadow_2219_3038" result="shape"/>
</filter>
<filter id="filter1_d_2219_3038" x="12" y="14" width="237" height="80" filterUnits="userSpaceOnUse" color-interpolation-filters="sRGB">
<feFlood flood-opacity="0" result="BackgroundImageFix"/>
<feColorMatrix in="SourceAlpha" type="matrix" values="0 0 0 0 0 0 0 0 0 0 0 0 0 0 0 0 0 0 127 0" result="hardAlpha"/>
<feOffset dx="4" dy="4"/>
<feGaussianBlur stdDeviation="5"/>
<feComposite in2="hardAlpha" operator="out"/>
<feColorMatrix type="matrix" values="0 0 0 0 0.968627 0 0 0 0 0.819608 0 0 0 0 0.345098 0 0 0 0.16 0"/>
<feBlend mode="normal" in2="BackgroundImageFix" result="effect1_dropShadow_2219_3038"/>
<feBlend mode="normal" in="SourceGraphic" in2="effect1_dropShadow_2219_3038" result="shape"/>
</filter>
</defs>
</svg>
