<svg width="296" height="94" viewBox="0 0 296 94" fill="none" xmlns="http://www.w3.org/2000/svg">
<g filter="url(#filter0_d_2219_3050)">
<path d="M8.81678 20.3643L5.66312 4.11451L20.143 12.1353L13.0104 14.2272L8.81678 20.3643Z" fill="#A2A2A2"/>
<path d="M8.81678 20.3643L5.66312 4.11451L20.143 12.1353L13.0104 14.2272L8.81678 20.3643Z" stroke="white"/>
</g>
<g filter="url(#filter1_d_2219_3050)">
<path d="M18 22C18 20.8954 18.8954 20 20 20H258C271.255 20 282 30.7452 282 44V56C282 69.2548 271.255 80 258 80H42C28.7452 80 18 69.2548 18 56V22Z" fill="#A2A2A2" shape-rendering="crispEdges"/>
<path d="M20 21H258C270.703 21 281 31.2975 281 44V56C281 68.7025 270.703 79 258 79H42C29.2974 79 19 68.7025 19 56V22C19 21.4477 19.4477 21 20 21Z" stroke="#A2A2A2" stroke-width="2" shape-rendering="crispEdges"/>
<path opacity="0.8" d="M35.0387 43V33.5455H40.9016V34.7734H36.4652V37.6541H40.4815V38.8775H36.4652V43H35.0387ZM42.5451 43V35.9091H43.9254V43H42.5451ZM43.2422 34.815C43.0021 34.815 42.7959 34.735 42.6236 34.5749C42.4543 34.4118 42.3697 34.2179 42.3697 33.9933C42.3697 33.7655 42.4543 33.5716 42.6236 33.4116C42.7959 33.2485 43.0021 33.1669 43.2422 33.1669C43.4822 33.1669 43.6869 33.2485 43.8562 33.4116C44.0285 33.5716 44.1147 33.7655 44.1147 33.9933C44.1147 34.2179 44.0285 34.4118 43.8562 34.5749C43.6869 34.735 43.4822 34.815 43.2422 34.815ZM48.7554 45.8068C48.1922 45.8068 47.7075 45.733 47.3012 45.5852C46.8981 45.4375 46.5687 45.2421 46.3133 44.9989C46.0579 44.7558 45.867 44.4896 45.7409 44.2003L46.9273 43.7109C47.0104 43.8464 47.1212 43.9895 47.2597 44.1403C47.4012 44.2942 47.5921 44.425 47.8321 44.5327C48.0753 44.6404 48.3876 44.6942 48.7693 44.6942C49.2925 44.6942 49.7249 44.5665 50.0665 44.3111C50.4081 44.0587 50.5789 43.6555 50.5789 43.1016V41.7074H50.4912C50.4081 41.8582 50.2881 42.0259 50.1311 42.2106C49.9772 42.3952 49.7649 42.5553 49.4941 42.6907C49.2232 42.8261 48.8708 42.8938 48.4369 42.8938C47.8767 42.8938 47.372 42.763 46.9227 42.5014C46.4764 42.2367 46.1225 41.8474 45.8609 41.3335C45.6024 40.8164 45.4731 40.1809 45.4731 39.4268C45.4731 38.6728 45.6008 38.0265 45.8563 37.4879C46.1148 36.9493 46.4687 36.5369 46.9181 36.2507C47.3674 35.9614 47.8767 35.8168 48.4461 35.8168C48.8862 35.8168 49.2417 35.8906 49.5125 36.0384C49.7834 36.183 49.9942 36.3523 50.145 36.5462C50.2989 36.7401 50.4173 36.9109 50.5004 37.0586H50.602V35.9091H51.9546V43.157C51.9546 43.7663 51.8131 44.2665 51.5299 44.6573C51.2468 45.0482 50.8636 45.3375 50.3804 45.5252C49.9003 45.7129 49.3586 45.8068 48.7554 45.8068ZM48.7416 41.7489C49.1386 41.7489 49.474 41.6566 49.748 41.4719C50.0249 41.2842 50.2342 41.0165 50.3758 40.6687C50.5204 40.3178 50.5928 39.8977 50.5928 39.4084C50.5928 38.9313 50.522 38.5112 50.3804 38.1481C50.2388 37.7849 50.0311 37.5018 49.7572 37.2987C49.4833 37.0924 49.1447 36.9893 48.7416 36.9893C48.3261 36.9893 47.9798 37.0971 47.7029 37.3125C47.4259 37.5249 47.2166 37.8142 47.075 38.1804C46.9365 38.5466 46.8673 38.956 46.8673 39.4084C46.8673 39.8731 46.9381 40.2809 47.0796 40.6317C47.2212 40.9826 47.4305 41.2565 47.7075 41.4535C47.9875 41.6504 48.3322 41.7489 48.7416 41.7489ZM53.8058 43V35.9091H55.1308V37.0632H55.2185C55.3662 36.6723 55.6078 36.3677 55.9433 36.1491C56.2787 35.9276 56.6804 35.8168 57.1482 35.8168C57.6221 35.8168 58.0191 35.9276 58.3392 36.1491C58.6624 36.3707 58.9009 36.6754 59.0548 37.0632H59.1286C59.2979 36.6847 59.5672 36.383 59.9365 36.1584C60.3058 35.9306 60.7459 35.8168 61.2568 35.8168C61.9001 35.8168 62.4248 36.0183 62.8311 36.4215C63.2404 36.8247 63.445 37.4325 63.445 38.245V43H62.0647V38.3743C62.0647 37.8942 61.9339 37.5464 61.6723 37.331C61.4107 37.1155 61.0983 37.0078 60.7352 37.0078C60.2858 37.0078 59.9365 37.1463 59.6872 37.4233C59.4379 37.6972 59.3133 38.0496 59.3133 38.4805V43H57.9376V38.2866C57.9376 37.9019 57.8176 37.5926 57.5775 37.3587C57.3374 37.1248 57.0251 37.0078 56.6404 37.0078C56.3788 37.0078 56.1372 37.0771 55.9156 37.2156C55.6971 37.351 55.5201 37.5402 55.3847 37.7834C55.2523 38.0265 55.1862 38.3081 55.1862 38.6282V43H53.8058ZM67.3587 43.157C66.9093 43.157 66.5031 43.0739 66.1399 42.9077C65.7768 42.7384 65.489 42.4937 65.2766 42.1737C65.0674 41.8536 64.9627 41.4612 64.9627 40.9964C64.9627 40.5964 65.0397 40.267 65.1935 40.0085C65.3474 39.75 65.5552 39.5453 65.8168 39.3945C66.0784 39.2437 66.3707 39.1299 66.6939 39.0529C67.017 38.976 67.3464 38.9175 67.6818 38.8775C68.1065 38.8282 68.4512 38.7882 68.7159 38.7575C68.9806 38.7236 69.1729 38.6697 69.293 38.5959C69.413 38.522 69.473 38.402 69.473 38.2358V38.2035C69.473 37.8003 69.3591 37.4879 69.1314 37.2663C68.9067 37.0447 68.5713 36.9339 68.125 36.9339C67.6603 36.9339 67.294 37.037 67.0263 37.2433C66.7616 37.4464 66.5785 37.6726 66.4769 37.9219L65.1797 37.6264C65.3336 37.1955 65.5582 36.8478 65.8537 36.5831C66.1522 36.3153 66.4954 36.1214 66.8832 36.0014C67.271 35.8783 67.6787 35.8168 68.1065 35.8168C68.3897 35.8168 68.6897 35.8506 69.0067 35.9183C69.3268 35.983 69.6254 36.103 69.9023 36.2784C70.1824 36.4538 70.4117 36.7047 70.5902 37.0309C70.7687 37.354 70.858 37.7741 70.858 38.2912V43H69.5099V42.0305H69.4545C69.3653 42.209 69.2314 42.3845 69.0529 42.5568C68.8744 42.7292 68.6451 42.8723 68.3651 42.9862C68.085 43.1 67.7495 43.157 67.3587 43.157ZM67.6587 42.049C68.0404 42.049 68.3666 41.9736 68.6374 41.8228C68.9113 41.672 69.1191 41.475 69.2607 41.2319C69.4053 40.9857 69.4776 40.7225 69.4776 40.4425V39.5284C69.4284 39.5777 69.333 39.6238 69.1914 39.6669C69.0529 39.7069 68.8944 39.7423 68.7159 39.7731C68.5374 39.8008 68.3635 39.8269 68.1942 39.8516C68.025 39.8731 67.8834 39.8916 67.7695 39.907C67.5018 39.9408 67.2571 39.9978 67.0355 40.0778C66.817 40.1578 66.6416 40.2732 66.5092 40.424C66.38 40.5717 66.3153 40.7687 66.3153 41.0149C66.3153 41.3565 66.4415 41.6151 66.6939 41.7905C66.9463 41.9628 67.2679 42.049 67.6587 42.049ZM81.4043 36.0291C81.3551 35.5921 81.1519 35.2536 80.7949 35.0135C80.4379 34.7704 79.9886 34.6488 79.4469 34.6488C79.0591 34.6488 78.7237 34.7103 78.4405 34.8335C78.1574 34.9535 77.9373 35.1197 77.7804 35.332C77.6265 35.5413 77.5495 35.7798 77.5495 36.0476C77.5495 36.2723 77.6019 36.4661 77.7065 36.6293C77.8142 36.7924 77.9542 36.9293 78.1266 37.0401C78.302 37.1478 78.4898 37.2386 78.6898 37.3125C78.8899 37.3833 79.0822 37.4418 79.2669 37.4879L80.1902 37.728C80.4918 37.8018 80.8011 37.9019 81.1181 38.0281C81.4351 38.1542 81.729 38.3204 81.9998 38.5266C82.2707 38.7328 82.4892 38.9883 82.6554 39.293C82.8246 39.5977 82.9093 39.9624 82.9093 40.3871C82.9093 40.9226 82.7708 41.3981 82.4938 41.8136C82.2199 42.229 81.8213 42.5568 81.2981 42.7969C80.778 43.0369 80.1486 43.157 79.41 43.157C78.7021 43.157 78.0897 43.0446 77.5726 42.82C77.0556 42.5953 76.6509 42.2768 76.3585 41.8643C76.0661 41.4489 75.9045 40.9564 75.8738 40.3871H77.3049C77.3326 40.7287 77.4434 41.0134 77.6373 41.2411C77.8342 41.4658 78.085 41.6335 78.3897 41.7443C78.6975 41.852 79.0345 41.9059 79.4007 41.9059C79.8039 41.9059 80.1625 41.8428 80.4764 41.7166C80.7934 41.5874 81.0427 41.4089 81.2243 41.1811C81.4058 40.9503 81.4966 40.681 81.4966 40.3732C81.4966 40.0932 81.4166 39.8639 81.2566 39.6854C81.0996 39.5069 80.8857 39.3591 80.6149 39.2422C80.3471 39.1252 80.044 39.0221 79.7054 38.9329L78.5882 38.6282C77.8311 38.422 77.231 38.1188 76.7878 37.7188C76.3477 37.3187 76.1277 36.7893 76.1277 36.1307C76.1277 35.5859 76.2754 35.1104 76.5708 34.7042C76.8663 34.2979 77.2664 33.9825 77.7711 33.7578C78.2759 33.5301 78.8452 33.4162 79.4792 33.4162C80.1194 33.4162 80.6841 33.5285 81.1735 33.7532C81.6659 33.9779 82.0537 34.2872 82.3368 34.6811C82.62 35.072 82.7677 35.5213 82.78 36.0291H81.4043ZM87.8131 35.9091V37.017H83.9399V35.9091H87.8131ZM84.9786 34.2102H86.3589V40.918C86.3589 41.1857 86.3989 41.3873 86.479 41.5227C86.559 41.6551 86.6621 41.7459 86.7883 41.7951C86.9175 41.8413 87.0576 41.8643 87.2084 41.8643C87.3192 41.8643 87.4161 41.8567 87.4992 41.8413C87.5823 41.8259 87.6469 41.8136 87.6931 41.8043L87.9424 42.9446C87.8624 42.9754 87.7485 43.0062 87.6008 43.0369C87.453 43.0708 87.2684 43.0893 87.0468 43.0923C86.6836 43.0985 86.3451 43.0339 86.0312 42.8984C85.7172 42.763 85.4633 42.5537 85.2694 42.2706C85.0756 41.9875 84.9786 41.632 84.9786 41.2042V34.2102ZM91.4036 43.157C90.9542 43.157 90.548 43.0739 90.1848 42.9077C89.8217 42.7384 89.5339 42.4937 89.3216 42.1737C89.1123 41.8536 89.0076 41.4612 89.0076 40.9964C89.0076 40.5964 89.0846 40.267 89.2385 40.0085C89.3923 39.75 89.6001 39.5453 89.8617 39.3945C90.1233 39.2437 90.4157 39.1299 90.7388 39.0529C91.062 38.976 91.3913 38.9175 91.7267 38.8775C92.1515 38.8282 92.4962 38.7882 92.7608 38.7575C93.0255 38.7236 93.2179 38.6697 93.3379 38.5959C93.4579 38.522 93.5179 38.402 93.5179 38.2358V38.2035C93.5179 37.8003 93.4041 37.4879 93.1763 37.2663C92.9516 37.0447 92.6162 36.9339 92.1699 36.9339C91.7052 36.9339 91.339 37.037 91.0712 37.2433C90.8065 37.4464 90.6234 37.6726 90.5218 37.9219L89.2246 37.6264C89.3785 37.1955 89.6032 36.8478 89.8986 36.5831C90.1971 36.3153 90.5403 36.1214 90.9281 36.0014C91.3159 35.8783 91.7237 35.8168 92.1515 35.8168C92.4346 35.8168 92.7347 35.8506 93.0517 35.9183C93.3717 35.983 93.6703 36.103 93.9473 36.2784C94.2273 36.4538 94.4566 36.7047 94.6351 37.0309C94.8136 37.354 94.9029 37.7741 94.9029 38.2912V43H93.5549V42.0305H93.4995C93.4102 42.209 93.2763 42.3845 93.0978 42.5568C92.9193 42.7292 92.69 42.8723 92.41 42.9862C92.1299 43.1 91.7944 43.157 91.4036 43.157ZM91.7037 42.049C92.0853 42.049 92.4115 41.9736 92.6824 41.8228C92.9563 41.672 93.164 41.475 93.3056 41.2319C93.4502 40.9857 93.5225 40.7225 93.5225 40.4425V39.5284C93.4733 39.5777 93.3779 39.6238 93.2363 39.6669C93.0978 39.7069 92.9393 39.7423 92.7608 39.7731C92.5823 39.8008 92.4084 39.8269 92.2392 39.8516C92.0699 39.8731 91.9283 39.8916 91.8145 39.907C91.5467 39.9408 91.302 39.9978 91.0804 40.0778C90.8619 40.1578 90.6865 40.2732 90.5542 40.424C90.4249 40.5717 90.3603 40.7687 90.3603 41.0149C90.3603 41.3565 90.4864 41.6151 90.7388 41.7905C90.9912 41.9628 91.3128 42.049 91.7037 42.049ZM98.1217 33.5455V43H96.7414V33.5455H98.1217ZM101.248 40.5948L101.239 38.9098H101.479L104.304 35.9091H105.957L102.735 39.3253H102.518L101.248 40.5948ZM99.9787 43V33.5455H101.359V43H99.9787ZM104.457 43L101.918 39.63L102.869 38.6651L106.151 43H104.457ZM109.979 43.1431C109.281 43.1431 108.679 42.9938 108.174 42.6953C107.672 42.3937 107.285 41.9705 107.011 41.4258C106.74 40.878 106.604 40.2363 106.604 39.5007C106.604 38.7744 106.74 38.1342 107.011 37.5803C107.285 37.0263 107.666 36.5939 108.156 36.283C108.648 35.9722 109.224 35.8168 109.882 35.8168C110.282 35.8168 110.67 35.8829 111.046 36.0153C111.421 36.1476 111.758 36.3554 112.057 36.6385C112.355 36.9216 112.591 37.2894 112.763 37.7418C112.935 38.1912 113.021 38.7375 113.021 39.3807V39.87H107.385V38.8359H111.669C111.669 38.4728 111.595 38.1512 111.447 37.8711C111.299 37.5879 111.092 37.3648 110.824 37.2017C110.559 37.0386 110.248 36.957 109.891 36.957C109.504 36.957 109.165 37.0524 108.876 37.2433C108.59 37.431 108.368 37.6772 108.211 37.9819C108.057 38.2835 107.98 38.6113 107.98 38.9652V39.7731C107.98 40.247 108.063 40.6502 108.229 40.9826C108.399 41.315 108.634 41.5689 108.936 41.7443C109.237 41.9167 109.59 42.0028 109.993 42.0028C110.255 42.0028 110.493 41.9659 110.709 41.892C110.924 41.8151 111.11 41.7012 111.267 41.5504C111.424 41.3996 111.544 41.2134 111.627 40.9918L112.934 41.2273C112.829 41.612 112.641 41.949 112.37 42.2383C112.103 42.5245 111.766 42.7476 111.359 42.9077C110.956 43.0646 110.496 43.1431 109.979 43.1431ZM114.553 43V35.9091H115.887V37.0355H115.961C116.09 36.6539 116.318 36.3538 116.644 36.1353C116.973 35.9137 117.346 35.8029 117.761 35.8029C117.848 35.8029 117.949 35.806 118.066 35.8121C118.186 35.8183 118.28 35.826 118.348 35.8352V37.1555C118.292 37.1402 118.194 37.1232 118.052 37.1048C117.911 37.0832 117.769 37.0724 117.627 37.0724C117.301 37.0724 117.01 37.1417 116.755 37.2802C116.503 37.4156 116.303 37.6049 116.155 37.848C116.007 38.0881 115.933 38.362 115.933 38.6697V43H114.553Z" fill="white" fill-opacity="0.7"/>
<path d="M39.2955 57.2727V58.6364H34.3636V57.2727H39.2955ZM35.7159 66V56.2614C35.7159 55.7159 35.8352 55.2633 36.0739 54.9034C36.3125 54.5398 36.6288 54.2689 37.0227 54.0909C37.4167 53.9091 37.8447 53.8182 38.3068 53.8182C38.6477 53.8182 38.9394 53.8466 39.1818 53.9034C39.4242 53.9564 39.6042 54.0057 39.7216 54.0511L39.3239 55.4261C39.2443 55.4034 39.142 55.3769 39.017 55.3466C38.892 55.3125 38.7405 55.2955 38.5625 55.2955C38.1496 55.2955 37.8542 55.3977 37.6761 55.6023C37.5019 55.8068 37.4148 56.1023 37.4148 56.4886V66H35.7159ZM44.3807 66.1761C43.5625 66.1761 42.8485 65.9886 42.2386 65.6136C41.6288 65.2386 41.1553 64.714 40.8182 64.0398C40.4811 63.3655 40.3125 62.5777 40.3125 61.6761C40.3125 60.7708 40.4811 59.9792 40.8182 59.3011C41.1553 58.6231 41.6288 58.0966 42.2386 57.7216C42.8485 57.3466 43.5625 57.1591 44.3807 57.1591C45.1989 57.1591 45.9129 57.3466 46.5227 57.7216C47.1326 58.0966 47.6061 58.6231 47.9432 59.3011C48.2803 59.9792 48.4489 60.7708 48.4489 61.6761C48.4489 62.5777 48.2803 63.3655 47.9432 64.0398C47.6061 64.714 47.1326 65.2386 46.5227 65.6136C45.9129 65.9886 45.1989 66.1761 44.3807 66.1761ZM44.3864 64.75C44.9167 64.75 45.3561 64.6098 45.7045 64.3295C46.053 64.0492 46.3106 63.6761 46.4773 63.2102C46.6477 62.7443 46.733 62.2311 46.733 61.6705C46.733 61.1136 46.6477 60.6023 46.4773 60.1364C46.3106 59.6667 46.053 59.2898 45.7045 59.0057C45.3561 58.7216 44.9167 58.5795 44.3864 58.5795C43.8523 58.5795 43.4091 58.7216 43.0568 59.0057C42.7083 59.2898 42.4489 59.6667 42.2784 60.1364C42.1117 60.6023 42.0284 61.1136 42.0284 61.6705C42.0284 62.2311 42.1117 62.7443 42.2784 63.2102C42.4489 63.6761 42.7083 64.0492 43.0568 64.3295C43.4091 64.6098 43.8523 64.75 44.3864 64.75ZM52.044 54.3636V66H50.3452V54.3636H52.044ZM56.0284 54.3636V66H54.3295V54.3636H56.0284ZM61.9901 66.1761C61.1719 66.1761 60.4579 65.9886 59.848 65.6136C59.2382 65.2386 58.7647 64.714 58.4276 64.0398C58.0904 63.3655 57.9219 62.5777 57.9219 61.6761C57.9219 60.7708 58.0904 59.9792 58.4276 59.3011C58.7647 58.6231 59.2382 58.0966 59.848 57.7216C60.4579 57.3466 61.1719 57.1591 61.9901 57.1591C62.8082 57.1591 63.5223 57.3466 64.1321 57.7216C64.742 58.0966 65.2154 58.6231 65.5526 59.3011C65.8897 59.9792 66.0582 60.7708 66.0582 61.6761C66.0582 62.5777 65.8897 63.3655 65.5526 64.0398C65.2154 64.714 64.742 65.2386 64.1321 65.6136C63.5223 65.9886 62.8082 66.1761 61.9901 66.1761ZM61.9957 64.75C62.526 64.75 62.9654 64.6098 63.3139 64.3295C63.6624 64.0492 63.92 63.6761 64.0866 63.2102C64.2571 62.7443 64.3423 62.2311 64.3423 61.6705C64.3423 61.1136 64.2571 60.6023 64.0866 60.1364C63.92 59.6667 63.6624 59.2898 63.3139 59.0057C62.9654 58.7216 62.526 58.5795 61.9957 58.5795C61.4616 58.5795 61.0185 58.7216 60.6662 59.0057C60.3177 59.2898 60.0582 59.6667 59.8878 60.1364C59.7211 60.6023 59.6378 61.1136 59.6378 61.6705C59.6378 62.2311 59.7211 62.7443 59.8878 63.2102C60.0582 63.6761 60.3177 64.0492 60.6662 64.3295C61.0185 64.6098 61.4616 64.75 61.9957 64.75ZM69.581 66L67.0128 57.2727H68.7685L70.4787 63.6818H70.5639L72.2798 57.2727H74.0355L75.7401 63.6534H75.8253L77.5241 57.2727H79.2798L76.7173 66H74.9844L73.2116 59.6989H73.081L71.3082 66H69.581ZM89.2003 57.2727V58.6364H84.4332V57.2727H89.2003ZM85.7116 55.1818H87.4105V63.4375C87.4105 63.767 87.4598 64.0152 87.5582 64.1818C87.6567 64.3447 87.7836 64.4564 87.9389 64.517C88.098 64.5739 88.2704 64.6023 88.456 64.6023C88.5923 64.6023 88.7116 64.5928 88.8139 64.5739C88.9162 64.5549 88.9957 64.5398 89.0526 64.5284L89.3594 65.9318C89.2609 65.9697 89.1207 66.0076 88.9389 66.0455C88.7571 66.0871 88.5298 66.1098 88.2571 66.1136C87.8101 66.1212 87.3935 66.0417 87.0071 65.875C86.6207 65.7083 86.3082 65.4508 86.0696 65.1023C85.831 64.7538 85.7116 64.3163 85.7116 63.7898V55.1818ZM92.9659 60.8182V66H91.267V54.3636H92.9432V58.6932H93.0511C93.2557 58.2235 93.5682 57.8504 93.9886 57.5739C94.4091 57.2973 94.9583 57.1591 95.6364 57.1591C96.2348 57.1591 96.7576 57.2822 97.2045 57.5284C97.6553 57.7746 98.0038 58.142 98.25 58.6307C98.5 59.1155 98.625 59.7216 98.625 60.4489V66H96.9261V60.6534C96.9261 60.0133 96.7614 59.517 96.4318 59.1648C96.1023 58.8087 95.6439 58.6307 95.0568 58.6307C94.6553 58.6307 94.2955 58.7159 93.9773 58.8864C93.6629 59.0568 93.4148 59.3068 93.233 59.6364C93.0549 59.9621 92.9659 60.3561 92.9659 60.8182ZM104.653 66.1761C103.794 66.1761 103.053 65.9924 102.432 65.625C101.814 65.2538 101.337 64.733 101 64.0625C100.667 63.3883 100.5 62.5985 100.5 61.6932C100.5 60.7992 100.667 60.0114 101 59.3295C101.337 58.6477 101.807 58.1155 102.409 57.733C103.015 57.3504 103.723 57.1591 104.534 57.1591C105.027 57.1591 105.504 57.2405 105.966 57.4034C106.428 57.5663 106.843 57.822 107.21 58.1705C107.578 58.5189 107.867 58.9716 108.08 59.5284C108.292 60.0814 108.398 60.7538 108.398 61.5455V62.1477H101.46V60.875H106.733C106.733 60.428 106.642 60.0322 106.46 59.6875C106.278 59.339 106.023 59.0644 105.693 58.8636C105.367 58.6629 104.985 58.5625 104.545 58.5625C104.068 58.5625 103.652 58.6799 103.295 58.9148C102.943 59.1458 102.67 59.4489 102.477 59.8239C102.288 60.1951 102.193 60.5985 102.193 61.0341V62.0284C102.193 62.6117 102.295 63.108 102.5 63.517C102.708 63.9261 102.998 64.2386 103.369 64.4545C103.741 64.6667 104.174 64.7727 104.67 64.7727C104.992 64.7727 105.286 64.7273 105.551 64.6364C105.816 64.5417 106.045 64.4015 106.239 64.2159C106.432 64.0303 106.58 63.8011 106.682 63.5284L108.29 63.8182C108.161 64.2917 107.93 64.7064 107.597 65.0625C107.267 65.4148 106.852 65.6894 106.352 65.8864C105.856 66.0795 105.29 66.1761 104.653 66.1761ZM116.216 54.3636V66H114.517V54.3636H116.216ZM122.263 66.1761C121.403 66.1761 120.662 65.9924 120.041 65.625C119.424 65.2538 118.946 64.733 118.609 64.0625C118.276 63.3883 118.109 62.5985 118.109 61.6932C118.109 60.7992 118.276 60.0114 118.609 59.3295C118.946 58.6477 119.416 58.1155 120.018 57.733C120.625 57.3504 121.333 57.1591 122.143 57.1591C122.636 57.1591 123.113 57.2405 123.575 57.4034C124.037 57.5663 124.452 57.822 124.82 58.1705C125.187 58.5189 125.477 58.9716 125.689 59.5284C125.901 60.0814 126.007 60.7538 126.007 61.5455V62.1477H119.07V60.875H124.342C124.342 60.428 124.251 60.0322 124.07 59.6875C123.888 59.339 123.632 59.0644 123.303 58.8636C122.977 58.6629 122.594 58.5625 122.155 58.5625C121.678 58.5625 121.261 58.6799 120.905 58.9148C120.553 59.1458 120.28 59.4489 120.087 59.8239C119.897 60.1951 119.803 60.5985 119.803 61.0341V62.0284C119.803 62.6117 119.905 63.108 120.109 63.517C120.318 63.9261 120.607 64.2386 120.979 64.4545C121.35 64.6667 121.784 64.7727 122.28 64.7727C122.602 64.7727 122.895 64.7273 123.161 64.6364C123.426 64.5417 123.655 64.4015 123.848 64.2159C124.041 64.0303 124.189 63.8011 124.291 63.5284L125.899 63.8182C125.77 64.2917 125.539 64.7064 125.206 65.0625C124.876 65.4148 124.462 65.6894 123.962 65.8864C123.465 66.0795 122.899 66.1761 122.263 66.1761ZM130.432 66.1932C129.879 66.1932 129.379 66.0909 128.932 65.8864C128.485 65.678 128.131 65.3769 127.869 64.983C127.612 64.589 127.483 64.1061 127.483 63.5341C127.483 63.0417 127.578 62.6364 127.767 62.3182C127.956 62 128.212 61.7481 128.534 61.5625C128.856 61.3769 129.216 61.2367 129.614 61.142C130.011 61.0473 130.417 60.9754 130.83 60.9261C131.352 60.8655 131.777 60.8163 132.102 60.7784C132.428 60.7367 132.665 60.6705 132.812 60.5795C132.96 60.4886 133.034 60.3409 133.034 60.1364V60.0966C133.034 59.6004 132.894 59.2159 132.614 58.9432C132.337 58.6705 131.924 58.5341 131.375 58.5341C130.803 58.5341 130.352 58.661 130.023 58.9148C129.697 59.1648 129.472 59.4432 129.347 59.75L127.75 59.3864C127.939 58.8561 128.216 58.428 128.58 58.1023C128.947 57.7727 129.369 57.5341 129.847 57.3864C130.324 57.2348 130.826 57.1591 131.352 57.1591C131.701 57.1591 132.07 57.2008 132.46 57.2841C132.854 57.3636 133.222 57.5114 133.562 57.7273C133.907 57.9432 134.189 58.2519 134.409 58.6534C134.629 59.0511 134.739 59.5682 134.739 60.2045V66H133.08V64.8068H133.011C132.902 65.0265 132.737 65.2424 132.517 65.4545C132.297 65.6667 132.015 65.8428 131.67 65.983C131.326 66.1231 130.913 66.1932 130.432 66.1932ZM130.801 64.8295C131.271 64.8295 131.672 64.7367 132.006 64.5511C132.343 64.3655 132.598 64.1231 132.773 63.8239C132.951 63.5208 133.04 63.197 133.04 62.8523V61.7273C132.979 61.7879 132.862 61.8447 132.688 61.8977C132.517 61.947 132.322 61.9905 132.102 62.0284C131.883 62.0625 131.669 62.0947 131.46 62.125C131.252 62.1515 131.078 62.1742 130.938 62.1932C130.608 62.2348 130.307 62.3049 130.034 62.4034C129.765 62.5019 129.549 62.6439 129.386 62.8295C129.227 63.0114 129.148 63.2538 129.148 63.5568C129.148 63.9773 129.303 64.2955 129.614 64.5114C129.924 64.7235 130.32 64.8295 130.801 64.8295ZM140.268 66.1705C139.564 66.1705 138.935 65.9905 138.382 65.6307C137.833 65.267 137.401 64.75 137.087 64.0795C136.776 63.4053 136.621 62.5966 136.621 61.6534C136.621 60.7102 136.778 59.9034 137.092 59.233C137.411 58.5625 137.846 58.0492 138.399 57.6932C138.952 57.3371 139.579 57.1591 140.28 57.1591C140.821 57.1591 141.257 57.25 141.587 57.4318C141.92 57.6098 142.178 57.8182 142.359 58.0568C142.545 58.2955 142.689 58.5057 142.791 58.6875H142.893V54.3636H144.592V66H142.933V64.642H142.791C142.689 64.8277 142.541 65.0398 142.348 65.2784C142.159 65.517 141.897 65.7254 141.564 65.9034C141.231 66.0814 140.799 66.1705 140.268 66.1705ZM140.643 64.7216C141.132 64.7216 141.545 64.5928 141.882 64.3352C142.223 64.0739 142.481 63.7121 142.655 63.25C142.833 62.7879 142.922 62.25 142.922 61.6364C142.922 61.0303 142.835 60.5 142.661 60.0455C142.486 59.5909 142.231 59.2367 141.893 58.983C141.556 58.7292 141.14 58.6023 140.643 58.6023C140.132 58.6023 139.706 58.7348 139.365 59C139.024 59.2652 138.767 59.6269 138.592 60.0852C138.422 60.5436 138.337 61.0606 138.337 61.6364C138.337 62.2197 138.424 62.7443 138.598 63.2102C138.772 63.6761 139.03 64.0455 139.371 64.3182C139.715 64.5871 140.14 64.7216 140.643 64.7216ZM150.778 66.1761C149.919 66.1761 149.178 65.9924 148.557 65.625C147.939 65.2538 147.462 64.733 147.125 64.0625C146.792 63.3883 146.625 62.5985 146.625 61.6932C146.625 60.7992 146.792 60.0114 147.125 59.3295C147.462 58.6477 147.932 58.1155 148.534 57.733C149.14 57.3504 149.848 57.1591 150.659 57.1591C151.152 57.1591 151.629 57.2405 152.091 57.4034C152.553 57.5663 152.968 57.822 153.335 58.1705C153.703 58.5189 153.992 58.9716 154.205 59.5284C154.417 60.0814 154.523 60.7538 154.523 61.5455V62.1477H147.585V60.875H152.858C152.858 60.428 152.767 60.0322 152.585 59.6875C152.403 59.339 152.148 59.0644 151.818 58.8636C151.492 58.6629 151.11 58.5625 150.67 58.5625C150.193 58.5625 149.777 58.6799 149.42 58.9148C149.068 59.1458 148.795 59.4489 148.602 59.8239C148.413 60.1951 148.318 60.5985 148.318 61.0341V62.0284C148.318 62.6117 148.42 63.108 148.625 63.517C148.833 63.9261 149.123 64.2386 149.494 64.4545C149.866 64.6667 150.299 64.7727 150.795 64.7727C151.117 64.7727 151.411 64.7273 151.676 64.6364C151.941 64.5417 152.17 64.4015 152.364 64.2159C152.557 64.0303 152.705 63.8011 152.807 63.5284L154.415 63.8182C154.286 64.2917 154.055 64.7064 153.722 65.0625C153.392 65.4148 152.977 65.6894 152.477 65.8864C151.981 66.0795 151.415 66.1761 150.778 66.1761ZM156.408 66V57.2727H158.05V58.6591H158.141C158.3 58.1894 158.58 57.8201 158.982 57.5511C159.387 57.2784 159.845 57.142 160.357 57.142C160.463 57.142 160.588 57.1458 160.732 57.1534C160.879 57.161 160.995 57.1705 161.078 57.1818V58.8068C161.01 58.7879 160.889 58.767 160.714 58.7443C160.54 58.7178 160.366 58.7045 160.192 58.7045C159.79 58.7045 159.432 58.7898 159.118 58.9602C158.807 59.1269 158.561 59.3598 158.379 59.6591C158.197 59.9545 158.107 60.2917 158.107 60.6705V66H156.408ZM164.69 54.3636L164.543 62.6534H162.969L162.821 54.3636H164.69ZM163.759 66.108C163.444 66.108 163.175 65.9981 162.952 65.7784C162.728 65.5549 162.618 65.286 162.622 64.9716C162.618 64.661 162.728 64.3958 162.952 64.1761C163.175 63.9527 163.444 63.8409 163.759 63.8409C164.065 63.8409 164.33 63.9527 164.554 64.1761C164.777 64.3958 164.891 64.661 164.895 64.9716C164.891 65.1799 164.836 65.3712 164.73 65.5455C164.628 65.7159 164.491 65.8523 164.321 65.9545C164.151 66.0568 163.963 66.108 163.759 66.108ZM169.393 54.3636L169.246 62.6534H167.672L167.524 54.3636H169.393ZM168.462 66.108C168.147 66.108 167.878 65.9981 167.655 65.7784C167.431 65.5549 167.321 65.286 167.325 64.9716C167.321 64.661 167.431 64.3958 167.655 64.1761C167.878 63.9527 168.147 63.8409 168.462 63.8409C168.768 63.8409 169.034 63.9527 169.257 64.1761C169.481 64.3958 169.594 64.661 169.598 64.9716C169.594 65.1799 169.539 65.3712 169.433 65.5455C169.331 65.7159 169.195 65.8523 169.024 65.9545C168.854 66.0568 168.666 66.108 168.462 66.108ZM176.683 61.1705C176.683 59.7462 176.871 58.4356 177.246 57.2386C177.621 56.0417 178.168 54.9375 178.888 53.9261H180.445C180.164 54.3011 179.903 54.7614 179.661 55.3068C179.418 55.8523 179.206 56.4508 179.024 57.1023C178.842 57.75 178.7 58.4223 178.598 59.1193C178.496 59.8125 178.445 60.4962 178.445 61.1705C178.445 62.072 178.534 62.9848 178.712 63.9091C178.89 64.8333 179.13 65.6913 179.433 66.483C179.736 67.2746 180.073 67.9205 180.445 68.4205H178.888C178.168 67.4091 177.621 66.3049 177.246 65.108C176.871 63.911 176.683 62.5985 176.683 61.1705ZM186.31 57.2727V58.6364H181.543V57.2727H186.31ZM182.821 55.1818H184.52V63.4375C184.52 63.767 184.569 64.0152 184.668 64.1818C184.766 64.3447 184.893 64.4564 185.048 64.517C185.207 64.5739 185.38 64.6023 185.565 64.6023C185.702 64.6023 185.821 64.5928 185.923 64.5739C186.026 64.5549 186.105 64.5398 186.162 64.5284L186.469 65.9318C186.37 65.9697 186.23 66.0076 186.048 66.0455C185.866 66.0871 185.639 66.1098 185.366 66.1136C184.92 66.1212 184.503 66.0417 184.116 65.875C183.73 65.7083 183.418 65.4508 183.179 65.1023C182.94 64.7538 182.821 64.3163 182.821 63.7898V55.1818ZM190.075 60.8182V66H188.376V54.3636H190.053V58.6932H190.161C190.365 58.2235 190.678 57.8504 191.098 57.5739C191.518 57.2973 192.068 57.1591 192.746 57.1591C193.344 57.1591 193.867 57.2822 194.314 57.5284C194.765 57.7746 195.113 58.142 195.359 58.6307C195.609 59.1155 195.734 59.7216 195.734 60.4489V66H194.036V60.6534C194.036 60.0133 193.871 59.517 193.541 59.1648C193.212 58.8087 192.753 58.6307 192.166 58.6307C191.765 58.6307 191.405 58.7159 191.087 58.8864C190.772 59.0568 190.524 59.3068 190.342 59.6364C190.164 59.9621 190.075 60.3561 190.075 60.8182ZM200.541 66.1932C199.988 66.1932 199.488 66.0909 199.041 65.8864C198.594 65.678 198.24 65.3769 197.979 64.983C197.721 64.589 197.592 64.1061 197.592 63.5341C197.592 63.0417 197.687 62.6364 197.876 62.3182C198.066 62 198.321 61.7481 198.643 61.5625C198.965 61.3769 199.325 61.2367 199.723 61.142C200.121 61.0473 200.526 60.9754 200.939 60.9261C201.462 60.8655 201.886 60.8163 202.212 60.7784C202.537 60.7367 202.774 60.6705 202.922 60.5795C203.07 60.4886 203.143 60.3409 203.143 60.1364V60.0966C203.143 59.6004 203.003 59.2159 202.723 58.9432C202.446 58.6705 202.034 58.5341 201.484 58.5341C200.912 58.5341 200.462 58.661 200.132 58.9148C199.806 59.1648 199.581 59.4432 199.456 59.75L197.859 59.3864C198.049 58.8561 198.325 58.428 198.689 58.1023C199.056 57.7727 199.479 57.5341 199.956 57.3864C200.433 57.2348 200.935 57.1591 201.462 57.1591C201.81 57.1591 202.179 57.2008 202.57 57.2841C202.964 57.3636 203.331 57.5114 203.672 57.7273C204.017 57.9432 204.299 58.2519 204.518 58.6534C204.738 59.0511 204.848 59.5682 204.848 60.2045V66H203.189V64.8068H203.121C203.011 65.0265 202.846 65.2424 202.626 65.4545C202.407 65.6667 202.125 65.8428 201.78 65.983C201.435 66.1231 201.022 66.1932 200.541 66.1932ZM200.911 64.8295C201.38 64.8295 201.782 64.7367 202.115 64.5511C202.452 64.3655 202.708 64.1231 202.882 63.8239C203.06 63.5208 203.149 63.197 203.149 62.8523V61.7273C203.089 61.7879 202.971 61.8447 202.797 61.8977C202.626 61.947 202.431 61.9905 202.212 62.0284C201.992 62.0625 201.778 62.0947 201.57 62.125C201.361 62.1515 201.187 62.1742 201.047 62.1932C200.717 62.2348 200.416 62.3049 200.143 62.4034C199.875 62.5019 199.659 62.6439 199.496 62.8295C199.337 63.0114 199.257 63.2538 199.257 63.5568C199.257 63.9773 199.412 64.2955 199.723 64.5114C200.034 64.7235 200.429 64.8295 200.911 64.8295ZM211.185 57.2727V58.6364H206.418V57.2727H211.185ZM207.696 55.1818H209.395V63.4375C209.395 63.767 209.444 64.0152 209.543 64.1818C209.641 64.3447 209.768 64.4564 209.923 64.517C210.082 64.5739 210.255 64.6023 210.44 64.6023C210.577 64.6023 210.696 64.5928 210.798 64.5739C210.901 64.5549 210.98 64.5398 211.037 64.5284L211.344 65.9318C211.245 65.9697 211.105 66.0076 210.923 66.0455C210.741 66.0871 210.514 66.1098 210.241 66.1136C209.795 66.1212 209.378 66.0417 208.991 65.875C208.605 65.7083 208.293 65.4508 208.054 65.1023C207.815 64.7538 207.696 64.3163 207.696 63.7898V55.1818ZM214.962 54.3636V55.4545C214.962 55.7765 214.901 56.1155 214.78 56.4716C214.662 56.8239 214.496 57.1629 214.28 57.4886C214.064 57.8144 213.81 58.0947 213.518 58.3295L212.678 57.7273C212.901 57.4015 213.094 57.0549 213.257 56.6875C213.424 56.3201 213.507 55.9148 213.507 55.4716V54.3636H214.962ZM222.041 59.4034L220.501 59.6761C220.437 59.4792 220.335 59.2917 220.195 59.1136C220.058 58.9356 219.873 58.7898 219.638 58.6761C219.403 58.5625 219.109 58.5057 218.757 58.5057C218.276 58.5057 217.875 58.6136 217.553 58.8295C217.231 59.0417 217.07 59.3163 217.07 59.6534C217.07 59.9451 217.178 60.1799 217.393 60.358C217.609 60.536 217.958 60.6818 218.439 60.7955L219.825 61.1136C220.628 61.2992 221.227 61.5852 221.621 61.9716C222.015 62.358 222.212 62.8598 222.212 63.4773C222.212 64 222.06 64.4659 221.757 64.875C221.458 65.2803 221.039 65.5985 220.501 65.8295C219.967 66.0606 219.348 66.1761 218.643 66.1761C217.666 66.1761 216.869 65.9678 216.251 65.5511C215.634 65.1307 215.255 64.5341 215.115 63.7614L216.757 63.5114C216.859 63.9394 217.07 64.2633 217.388 64.483C217.706 64.6989 218.121 64.8068 218.632 64.8068C219.189 64.8068 219.634 64.6913 219.967 64.4602C220.301 64.2254 220.467 63.9394 220.467 63.6023C220.467 63.3295 220.365 63.1004 220.161 62.9148C219.96 62.7292 219.651 62.589 219.234 62.4943L217.757 62.1705C216.943 61.9848 216.34 61.6894 215.95 61.2841C215.564 60.8788 215.371 60.3655 215.371 59.7443C215.371 59.2292 215.515 58.7784 215.803 58.392C216.09 58.0057 216.488 57.7045 216.996 57.4886C217.503 57.2689 218.085 57.1591 218.74 57.1591C219.683 57.1591 220.426 57.3636 220.967 57.7727C221.509 58.178 221.867 58.7216 222.041 59.4034ZM229.388 69.2727C229.134 69.2727 228.903 69.2519 228.695 69.2102C228.486 69.1723 228.331 69.1307 228.229 69.0852L228.638 67.6932C228.948 67.7765 229.225 67.8125 229.467 67.8011C229.71 67.7898 229.924 67.6989 230.109 67.5284C230.299 67.358 230.465 67.0795 230.609 66.6932L230.82 66.1136L227.626 57.2727H229.445L231.655 64.0455H231.746L233.956 57.2727H235.78L232.183 67.1648C232.017 67.6193 231.804 68.0038 231.547 68.3182C231.289 68.6364 230.982 68.875 230.626 69.0341C230.27 69.1932 229.857 69.2727 229.388 69.2727ZM240.756 66.1761C239.938 66.1761 239.223 65.9886 238.614 65.6136C238.004 65.2386 237.53 64.714 237.193 64.0398C236.856 63.3655 236.688 62.5777 236.688 61.6761C236.688 60.7708 236.856 59.9792 237.193 59.3011C237.53 58.6231 238.004 58.0966 238.614 57.7216C239.223 57.3466 239.938 57.1591 240.756 57.1591C241.574 57.1591 242.288 57.3466 242.898 57.7216C243.508 58.0966 243.981 58.6231 244.318 59.3011C244.655 59.9792 244.824 60.7708 244.824 61.6761C244.824 62.5777 244.655 63.3655 244.318 64.0398C243.981 64.714 243.508 65.2386 242.898 65.6136C242.288 65.9886 241.574 66.1761 240.756 66.1761ZM240.761 64.75C241.292 64.75 241.731 64.6098 242.08 64.3295C242.428 64.0492 242.686 63.6761 242.852 63.2102C243.023 62.7443 243.108 62.2311 243.108 61.6705C243.108 61.1136 243.023 60.6023 242.852 60.1364C242.686 59.6667 242.428 59.2898 242.08 59.0057C241.731 58.7216 241.292 58.5795 240.761 58.5795C240.227 58.5795 239.784 58.7216 239.432 59.0057C239.083 59.2898 238.824 59.6667 238.653 60.1364C238.487 60.6023 238.403 61.1136 238.403 61.6705C238.403 62.2311 238.487 62.7443 238.653 63.2102C238.824 63.6761 239.083 64.0492 239.432 64.3295C239.784 64.6098 240.227 64.75 240.761 64.75ZM252.249 62.3807V57.2727H253.953V66H252.283V64.4886H252.192C251.991 64.9545 251.669 65.3428 251.226 65.6534C250.786 65.9602 250.239 66.1136 249.584 66.1136C249.023 66.1136 248.527 65.9905 248.095 65.7443C247.667 65.4943 247.33 65.125 247.084 64.6364C246.841 64.1477 246.72 63.5436 246.72 62.8239V57.2727H248.419V62.6193C248.419 63.214 248.584 63.6875 248.913 64.0398C249.243 64.392 249.671 64.5682 250.197 64.5682C250.516 64.5682 250.832 64.4886 251.146 64.3295C251.464 64.1705 251.728 63.9299 251.936 63.608C252.148 63.286 252.252 62.8769 252.249 62.3807ZM259.503 61.1705C259.503 62.5985 259.315 63.911 258.94 65.108C258.565 66.3049 258.018 67.4091 257.298 68.4205H255.741C256.022 68.0455 256.283 67.5852 256.526 67.0398C256.768 66.4943 256.98 65.8977 257.162 65.25C257.344 64.5985 257.486 63.9242 257.588 63.2273C257.69 62.5303 257.741 61.8447 257.741 61.1705C257.741 60.2727 257.652 59.3617 257.474 58.4375C257.296 57.5133 257.056 56.6553 256.753 55.8636C256.45 55.072 256.113 54.4261 255.741 53.9261H257.298C258.018 54.9375 258.565 56.0417 258.94 57.2386C259.315 58.4356 259.503 59.7462 259.503 61.1705Z" fill="white"/>
</g>
<defs>
<filter id="filter0_d_2219_3050" x="2.96826" y="2.1582" width="20.4644" height="22.4766" filterUnits="userSpaceOnUse" color-interpolation-filters="sRGB">
<feFlood flood-opacity="0" result="BackgroundImageFix"/>
<feColorMatrix in="SourceAlpha" type="matrix" values="0 0 0 0 0 0 0 0 0 0 0 0 0 0 0 0 0 0 127 0" result="hardAlpha"/>
<feOffset dy="1"/>
<feGaussianBlur stdDeviation="1"/>
<feComposite in2="hardAlpha" operator="out"/>
<feColorMatrix type="matrix" values="0 0 0 0 0 0 0 0 0 0 0 0 0 0 0 0 0 0 0.25 0"/>
<feBlend mode="normal" in2="BackgroundImageFix" result="effect1_dropShadow_2219_3050"/>
<feBlend mode="normal" in="SourceGraphic" in2="effect1_dropShadow_2219_3050" result="shape"/>
</filter>
<filter id="filter1_d_2219_3050" x="12" y="14" width="284" height="80" filterUnits="userSpaceOnUse" color-interpolation-filters="sRGB">
<feFlood flood-opacity="0" result="BackgroundImageFix"/>
<feColorMatrix in="SourceAlpha" type="matrix" values="0 0 0 0 0 0 0 0 0 0 0 0 0 0 0 0 0 0 127 0" result="hardAlpha"/>
<feOffset dx="4" dy="4"/>
<feGaussianBlur stdDeviation="5"/>
<feComposite in2="hardAlpha" operator="out"/>
<feColorMatrix type="matrix" values="0 0 0 0 0.968627 0 0 0 0 0.819608 0 0 0 0 0.345098 0 0 0 0.16 0"/>
<feBlend mode="normal" in2="BackgroundImageFix" result="effect1_dropShadow_2219_3050"/>
<feBlend mode="normal" in="SourceGraphic" in2="effect1_dropShadow_2219_3050" result="shape"/>
</filter>
</defs>
</svg>
