<svg width="269" height="94" viewBox="0 0 269 94" fill="none" xmlns="http://www.w3.org/2000/svg">
<g filter="url(#filter0_d_2194_1459)">
<path d="M8.81678 20.3643L5.66312 4.11451L20.143 12.1353L13.0104 14.2272L8.81678 20.3643Z" fill="#A2A2A2"/>
<path d="M8.81678 20.3643L5.66312 4.11451L20.143 12.1353L13.0104 14.2272L8.81678 20.3643Z" stroke="white"/>
</g>
<g filter="url(#filter1_d_2194_1459)">
<path d="M18 22C18 20.8954 18.8954 20 20 20H231C244.255 20 255 30.7452 255 44V56C255 69.2548 244.255 80 231 80H42C28.7452 80 18 69.2548 18 56V22Z" fill="#A2A2A2" shape-rendering="crispEdges"/>
<path d="M20 21H231C243.703 21 254 31.2975 254 44V56C254 68.7025 243.703 79 231 79H42C29.2975 79 19 68.7025 19 56V22C19 21.4477 19.4477 21 20 21Z" stroke="#A2A2A2" stroke-width="2" shape-rendering="crispEdges"/>
<path opacity="0.8" d="M35.0387 43V33.5455H40.9016V34.7734H36.4652V37.6541H40.4815V38.8775H36.4652V43H35.0387ZM42.5451 43V35.9091H43.9254V43H42.5451ZM43.2422 34.815C43.0021 34.815 42.7959 34.735 42.6236 34.5749C42.4543 34.4118 42.3697 34.2179 42.3697 33.9933C42.3697 33.7655 42.4543 33.5716 42.6236 33.4116C42.7959 33.2485 43.0021 33.1669 43.2422 33.1669C43.4822 33.1669 43.6869 33.2485 43.8562 33.4116C44.0285 33.5716 44.1147 33.7655 44.1147 33.9933C44.1147 34.2179 44.0285 34.4118 43.8562 34.5749C43.6869 34.735 43.4822 34.815 43.2422 34.815ZM48.7554 45.8068C48.1922 45.8068 47.7075 45.733 47.3012 45.5852C46.8981 45.4375 46.5687 45.2421 46.3133 44.9989C46.0579 44.7558 45.867 44.4896 45.7409 44.2003L46.9273 43.7109C47.0104 43.8464 47.1212 43.9895 47.2597 44.1403C47.4012 44.2942 47.5921 44.425 47.8321 44.5327C48.0753 44.6404 48.3876 44.6942 48.7693 44.6942C49.2925 44.6942 49.7249 44.5665 50.0665 44.3111C50.4081 44.0587 50.5789 43.6555 50.5789 43.1016V41.7074H50.4912C50.4081 41.8582 50.2881 42.0259 50.1311 42.2106C49.9772 42.3952 49.7649 42.5553 49.4941 42.6907C49.2232 42.8261 48.8708 42.8938 48.4369 42.8938C47.8767 42.8938 47.372 42.763 46.9227 42.5014C46.4764 42.2367 46.1225 41.8474 45.8609 41.3335C45.6024 40.8164 45.4731 40.1809 45.4731 39.4268C45.4731 38.6728 45.6008 38.0265 45.8563 37.4879C46.1148 36.9493 46.4687 36.5369 46.9181 36.2507C47.3674 35.9614 47.8767 35.8168 48.4461 35.8168C48.8862 35.8168 49.2417 35.8906 49.5125 36.0384C49.7834 36.183 49.9942 36.3523 50.145 36.5462C50.2989 36.7401 50.4173 36.9109 50.5004 37.0586H50.602V35.9091H51.9546V43.157C51.9546 43.7663 51.8131 44.2665 51.5299 44.6573C51.2468 45.0482 50.8636 45.3375 50.3804 45.5252C49.9003 45.7129 49.3586 45.8068 48.7554 45.8068ZM48.7416 41.7489C49.1386 41.7489 49.474 41.6566 49.748 41.4719C50.0249 41.2842 50.2342 41.0165 50.3758 40.6687C50.5204 40.3178 50.5928 39.8977 50.5928 39.4084C50.5928 38.9313 50.522 38.5112 50.3804 38.1481C50.2388 37.7849 50.0311 37.5018 49.7572 37.2987C49.4833 37.0924 49.1447 36.9893 48.7416 36.9893C48.3261 36.9893 47.9798 37.0971 47.7029 37.3125C47.4259 37.5249 47.2166 37.8142 47.075 38.1804C46.9365 38.5466 46.8673 38.956 46.8673 39.4084C46.8673 39.8731 46.9381 40.2809 47.0796 40.6317C47.2212 40.9826 47.4305 41.2565 47.7075 41.4535C47.9875 41.6504 48.3322 41.7489 48.7416 41.7489ZM53.8058 43V35.9091H55.1308V37.0632H55.2185C55.3662 36.6723 55.6078 36.3677 55.9433 36.1491C56.2787 35.9276 56.6804 35.8168 57.1482 35.8168C57.6221 35.8168 58.0191 35.9276 58.3392 36.1491C58.6624 36.3707 58.9009 36.6754 59.0548 37.0632H59.1286C59.2979 36.6847 59.5672 36.383 59.9365 36.1584C60.3058 35.9306 60.7459 35.8168 61.2568 35.8168C61.9001 35.8168 62.4248 36.0183 62.8311 36.4215C63.2404 36.8247 63.445 37.4325 63.445 38.245V43H62.0647V38.3743C62.0647 37.8942 61.9339 37.5464 61.6723 37.331C61.4107 37.1155 61.0983 37.0078 60.7352 37.0078C60.2858 37.0078 59.9365 37.1463 59.6872 37.4233C59.4379 37.6972 59.3133 38.0496 59.3133 38.4805V43H57.9376V38.2866C57.9376 37.9019 57.8176 37.5926 57.5775 37.3587C57.3374 37.1248 57.0251 37.0078 56.6404 37.0078C56.3788 37.0078 56.1372 37.0771 55.9156 37.2156C55.6971 37.351 55.5201 37.5402 55.3847 37.7834C55.2523 38.0265 55.1862 38.3081 55.1862 38.6282V43H53.8058ZM67.3587 43.157C66.9093 43.157 66.5031 43.0739 66.1399 42.9077C65.7768 42.7384 65.489 42.4937 65.2766 42.1737C65.0674 41.8536 64.9627 41.4612 64.9627 40.9964C64.9627 40.5964 65.0397 40.267 65.1935 40.0085C65.3474 39.75 65.5552 39.5453 65.8168 39.3945C66.0784 39.2437 66.3707 39.1299 66.6939 39.0529C67.017 38.976 67.3464 38.9175 67.6818 38.8775C68.1065 38.8282 68.4512 38.7882 68.7159 38.7575C68.9806 38.7236 69.1729 38.6697 69.293 38.5959C69.413 38.522 69.473 38.402 69.473 38.2358V38.2035C69.473 37.8003 69.3591 37.4879 69.1314 37.2663C68.9067 37.0447 68.5713 36.9339 68.125 36.9339C67.6603 36.9339 67.294 37.037 67.0263 37.2433C66.7616 37.4464 66.5785 37.6726 66.4769 37.9219L65.1797 37.6264C65.3336 37.1955 65.5582 36.8478 65.8537 36.5831C66.1522 36.3153 66.4954 36.1214 66.8832 36.0014C67.271 35.8783 67.6787 35.8168 68.1065 35.8168C68.3897 35.8168 68.6897 35.8506 69.0067 35.9183C69.3268 35.983 69.6254 36.103 69.9023 36.2784C70.1824 36.4538 70.4117 36.7047 70.5902 37.0309C70.7687 37.354 70.858 37.7741 70.858 38.2912V43H69.5099V42.0305H69.4545C69.3653 42.209 69.2314 42.3845 69.0529 42.5568C68.8744 42.7292 68.6451 42.8723 68.3651 42.9862C68.085 43.1 67.7495 43.157 67.3587 43.157ZM67.6587 42.049C68.0404 42.049 68.3666 41.9736 68.6374 41.8228C68.9113 41.672 69.1191 41.475 69.2607 41.2319C69.4053 40.9857 69.4776 40.7225 69.4776 40.4425V39.5284C69.4284 39.5777 69.333 39.6238 69.1914 39.6669C69.0529 39.7069 68.8944 39.7423 68.7159 39.7731C68.5374 39.8008 68.3635 39.8269 68.1942 39.8516C68.025 39.8731 67.8834 39.8916 67.7695 39.907C67.5018 39.9408 67.2571 39.9978 67.0355 40.0778C66.817 40.1578 66.6416 40.2732 66.5092 40.424C66.38 40.5717 66.3153 40.7687 66.3153 41.0149C66.3153 41.3565 66.4415 41.6151 66.6939 41.7905C66.9463 41.9628 67.2679 42.049 67.6587 42.049ZM81.4043 36.0291C81.3551 35.5921 81.1519 35.2536 80.7949 35.0135C80.4379 34.7704 79.9886 34.6488 79.4469 34.6488C79.0591 34.6488 78.7237 34.7103 78.4405 34.8335C78.1574 34.9535 77.9373 35.1197 77.7804 35.332C77.6265 35.5413 77.5495 35.7798 77.5495 36.0476C77.5495 36.2723 77.6019 36.4661 77.7065 36.6293C77.8142 36.7924 77.9542 36.9293 78.1266 37.0401C78.302 37.1478 78.4898 37.2386 78.6898 37.3125C78.8899 37.3833 79.0822 37.4418 79.2669 37.4879L80.1902 37.728C80.4918 37.8018 80.8011 37.9019 81.1181 38.0281C81.4351 38.1542 81.729 38.3204 81.9998 38.5266C82.2707 38.7328 82.4892 38.9883 82.6554 39.293C82.8246 39.5977 82.9093 39.9624 82.9093 40.3871C82.9093 40.9226 82.7708 41.3981 82.4938 41.8136C82.2199 42.229 81.8213 42.5568 81.2981 42.7969C80.778 43.0369 80.1486 43.157 79.41 43.157C78.7021 43.157 78.0897 43.0446 77.5726 42.82C77.0556 42.5953 76.6509 42.2768 76.3585 41.8643C76.0661 41.4489 75.9045 40.9564 75.8738 40.3871H77.3049C77.3326 40.7287 77.4434 41.0134 77.6373 41.2411C77.8342 41.4658 78.085 41.6335 78.3897 41.7443C78.6975 41.852 79.0345 41.9059 79.4007 41.9059C79.8039 41.9059 80.1625 41.8428 80.4764 41.7166C80.7934 41.5874 81.0427 41.4089 81.2243 41.1811C81.4058 40.9503 81.4966 40.681 81.4966 40.3732C81.4966 40.0932 81.4166 39.8639 81.2566 39.6854C81.0996 39.5069 80.8857 39.3591 80.6149 39.2422C80.3471 39.1252 80.044 39.0221 79.7054 38.9329L78.5882 38.6282C77.8311 38.422 77.231 38.1188 76.7878 37.7188C76.3477 37.3187 76.1277 36.7893 76.1277 36.1307C76.1277 35.5859 76.2754 35.1104 76.5708 34.7042C76.8663 34.2979 77.2664 33.9825 77.7711 33.7578C78.2759 33.5301 78.8452 33.4162 79.4792 33.4162C80.1194 33.4162 80.6841 33.5285 81.1735 33.7532C81.6659 33.9779 82.0537 34.2872 82.3368 34.6811C82.62 35.072 82.7677 35.5213 82.78 36.0291H81.4043ZM87.8131 35.9091V37.017H83.9399V35.9091H87.8131ZM84.9786 34.2102H86.3589V40.918C86.3589 41.1857 86.3989 41.3873 86.479 41.5227C86.559 41.6551 86.6621 41.7459 86.7883 41.7951C86.9175 41.8413 87.0576 41.8643 87.2084 41.8643C87.3192 41.8643 87.4161 41.8567 87.4992 41.8413C87.5823 41.8259 87.6469 41.8136 87.6931 41.8043L87.9424 42.9446C87.8624 42.9754 87.7485 43.0062 87.6008 43.0369C87.453 43.0708 87.2684 43.0893 87.0468 43.0923C86.6836 43.0985 86.3451 43.0339 86.0312 42.8984C85.7172 42.763 85.4633 42.5537 85.2694 42.2706C85.0756 41.9875 84.9786 41.632 84.9786 41.2042V34.2102ZM91.4036 43.157C90.9542 43.157 90.548 43.0739 90.1848 42.9077C89.8217 42.7384 89.5339 42.4937 89.3216 42.1737C89.1123 41.8536 89.0076 41.4612 89.0076 40.9964C89.0076 40.5964 89.0846 40.267 89.2385 40.0085C89.3923 39.75 89.6001 39.5453 89.8617 39.3945C90.1233 39.2437 90.4157 39.1299 90.7388 39.0529C91.062 38.976 91.3913 38.9175 91.7267 38.8775C92.1515 38.8282 92.4962 38.7882 92.7608 38.7575C93.0255 38.7236 93.2179 38.6697 93.3379 38.5959C93.4579 38.522 93.5179 38.402 93.5179 38.2358V38.2035C93.5179 37.8003 93.4041 37.4879 93.1763 37.2663C92.9516 37.0447 92.6162 36.9339 92.1699 36.9339C91.7052 36.9339 91.339 37.037 91.0712 37.2433C90.8065 37.4464 90.6234 37.6726 90.5218 37.9219L89.2246 37.6264C89.3785 37.1955 89.6032 36.8478 89.8986 36.5831C90.1971 36.3153 90.5403 36.1214 90.9281 36.0014C91.3159 35.8783 91.7237 35.8168 92.1515 35.8168C92.4346 35.8168 92.7347 35.8506 93.0517 35.9183C93.3717 35.983 93.6703 36.103 93.9473 36.2784C94.2273 36.4538 94.4566 36.7047 94.6351 37.0309C94.8136 37.354 94.9029 37.7741 94.9029 38.2912V43H93.5549V42.0305H93.4995C93.4102 42.209 93.2763 42.3845 93.0978 42.5568C92.9193 42.7292 92.69 42.8723 92.41 42.9862C92.1299 43.1 91.7944 43.157 91.4036 43.157ZM91.7037 42.049C92.0853 42.049 92.4115 41.9736 92.6824 41.8228C92.9563 41.672 93.164 41.475 93.3056 41.2319C93.4502 40.9857 93.5225 40.7225 93.5225 40.4425V39.5284C93.4733 39.5777 93.3779 39.6238 93.2363 39.6669C93.0978 39.7069 92.9393 39.7423 92.7608 39.7731C92.5823 39.8008 92.4084 39.8269 92.2392 39.8516C92.0699 39.8731 91.9283 39.8916 91.8145 39.907C91.5467 39.9408 91.302 39.9978 91.0804 40.0778C90.8619 40.1578 90.6865 40.2732 90.5542 40.424C90.4249 40.5717 90.3603 40.7687 90.3603 41.0149C90.3603 41.3565 90.4864 41.6151 90.7388 41.7905C90.9912 41.9628 91.3128 42.049 91.7037 42.049ZM98.1217 33.5455V43H96.7414V33.5455H98.1217ZM101.248 40.5948L101.239 38.9098H101.479L104.304 35.9091H105.957L102.735 39.3253H102.518L101.248 40.5948ZM99.9787 43V33.5455H101.359V43H99.9787ZM104.457 43L101.918 39.63L102.869 38.6651L106.151 43H104.457ZM109.979 43.1431C109.281 43.1431 108.679 42.9938 108.174 42.6953C107.672 42.3937 107.285 41.9705 107.011 41.4258C106.74 40.878 106.604 40.2363 106.604 39.5007C106.604 38.7744 106.74 38.1342 107.011 37.5803C107.285 37.0263 107.666 36.5939 108.156 36.283C108.648 35.9722 109.224 35.8168 109.882 35.8168C110.282 35.8168 110.67 35.8829 111.046 36.0153C111.421 36.1476 111.758 36.3554 112.057 36.6385C112.355 36.9216 112.591 37.2894 112.763 37.7418C112.935 38.1912 113.021 38.7375 113.021 39.3807V39.87H107.385V38.8359H111.669C111.669 38.4728 111.595 38.1512 111.447 37.8711C111.299 37.5879 111.092 37.3648 110.824 37.2017C110.559 37.0386 110.248 36.957 109.891 36.957C109.504 36.957 109.165 37.0524 108.876 37.2433C108.59 37.431 108.368 37.6772 108.211 37.9819C108.057 38.2835 107.98 38.6113 107.98 38.9652V39.7731C107.98 40.247 108.063 40.6502 108.229 40.9826C108.399 41.315 108.634 41.5689 108.936 41.7443C109.237 41.9167 109.59 42.0028 109.993 42.0028C110.255 42.0028 110.493 41.9659 110.709 41.892C110.924 41.8151 111.11 41.7012 111.267 41.5504C111.424 41.3996 111.544 41.2134 111.627 40.9918L112.934 41.2273C112.829 41.612 112.641 41.949 112.37 42.2383C112.103 42.5245 111.766 42.7476 111.359 42.9077C110.956 43.0646 110.496 43.1431 109.979 43.1431ZM114.553 43V35.9091H115.887V37.0355H115.961C116.09 36.6539 116.318 36.3538 116.644 36.1353C116.973 35.9137 117.346 35.8029 117.761 35.8029C117.848 35.8029 117.949 35.806 118.066 35.8121C118.186 35.8183 118.28 35.826 118.348 35.8352V37.1555C118.292 37.1402 118.194 37.1232 118.052 37.1048C117.911 37.0832 117.769 37.0724 117.627 37.0724C117.301 37.0724 117.01 37.1417 116.755 37.2802C116.503 37.4156 116.303 37.6049 116.155 37.848C116.007 38.0881 115.933 38.362 115.933 38.6697V43H114.553Z" fill="white" fill-opacity="0.7"/>
<path d="M36.2159 69.2727C35.9621 69.2727 35.7311 69.2519 35.5227 69.2102C35.3144 69.1723 35.1591 69.1307 35.0568 69.0852L35.4659 67.6932C35.7765 67.7765 36.053 67.8125 36.2955 67.8011C36.5379 67.7898 36.7519 67.6989 36.9375 67.5284C37.1269 67.358 37.2936 67.0795 37.4375 66.6932L37.6477 66.1136L34.4545 57.2727H36.2727L38.483 64.0455H38.5739L40.7841 57.2727H42.608L39.0114 67.1648C38.8447 67.6193 38.6326 68.0038 38.375 68.3182C38.1174 68.6364 37.8106 68.875 37.4545 69.0341C37.0985 69.1932 36.6856 69.2727 36.2159 69.2727ZM47.5838 66.1761C46.7656 66.1761 46.0516 65.9886 45.4418 65.6136C44.8319 65.2386 44.3584 64.714 44.0213 64.0398C43.6842 63.3655 43.5156 62.5777 43.5156 61.6761C43.5156 60.7708 43.6842 59.9792 44.0213 59.3011C44.3584 58.6231 44.8319 58.0966 45.4418 57.7216C46.0516 57.3466 46.7656 57.1591 47.5838 57.1591C48.402 57.1591 49.116 57.3466 49.7259 57.7216C50.3357 58.0966 50.8092 58.6231 51.1463 59.3011C51.4834 59.9792 51.652 60.7708 51.652 61.6761C51.652 62.5777 51.4834 63.3655 51.1463 64.0398C50.8092 64.714 50.3357 65.2386 49.7259 65.6136C49.116 65.9886 48.402 66.1761 47.5838 66.1761ZM47.5895 64.75C48.1198 64.75 48.5592 64.6098 48.9077 64.3295C49.2562 64.0492 49.5137 63.6761 49.6804 63.2102C49.8509 62.7443 49.9361 62.2311 49.9361 61.6705C49.9361 61.1136 49.8509 60.6023 49.6804 60.1364C49.5137 59.6667 49.2562 59.2898 48.9077 59.0057C48.5592 58.7216 48.1198 58.5795 47.5895 58.5795C47.0554 58.5795 46.6122 58.7216 46.2599 59.0057C45.9115 59.2898 45.652 59.6667 45.4815 60.1364C45.3149 60.6023 45.2315 61.1136 45.2315 61.6705C45.2315 62.2311 45.3149 62.7443 45.4815 63.2102C45.652 63.6761 45.9115 64.0492 46.2599 64.3295C46.6122 64.6098 47.0554 64.75 47.5895 64.75ZM59.0767 62.3807V57.2727H60.7812V66H59.1108V64.4886H59.0199C58.8191 64.9545 58.4972 65.3428 58.054 65.6534C57.6146 65.9602 57.0672 66.1136 56.4119 66.1136C55.8513 66.1136 55.3551 65.9905 54.9233 65.7443C54.4953 65.4943 54.1581 65.125 53.9119 64.6364C53.6695 64.1477 53.5483 63.5436 53.5483 62.8239V57.2727H55.2472V62.6193C55.2472 63.214 55.4119 63.6875 55.7415 64.0398C56.071 64.392 56.4991 64.5682 57.0256 64.5682C57.3438 64.5682 57.66 64.4886 57.9744 64.3295C58.2926 64.1705 58.5559 63.9299 58.7642 63.608C58.9763 63.286 59.0805 62.8769 59.0767 62.3807ZM69.1903 66L66.6222 57.2727H68.3778L70.0881 63.6818H70.1733L71.8892 57.2727H73.6449L75.3494 63.6534H75.4347L77.1335 57.2727H78.8892L76.3267 66H74.5938L72.821 59.6989H72.6903L70.9176 66H69.1903ZM80.5014 66V57.2727H82.2003V66H80.5014ZM81.3594 55.9261C81.0639 55.9261 80.8101 55.8277 80.598 55.6307C80.3897 55.4299 80.2855 55.1913 80.2855 54.9148C80.2855 54.6345 80.3897 54.3958 80.598 54.1989C80.8101 53.9981 81.0639 53.8977 81.3594 53.8977C81.6548 53.8977 81.9067 53.9981 82.1151 54.1989C82.3272 54.3958 82.4332 54.6345 82.4332 54.9148C82.4332 55.1913 82.3272 55.4299 82.1151 55.6307C81.9067 55.8277 81.6548 55.9261 81.3594 55.9261ZM86.1847 54.3636V66H84.4858V54.3636H86.1847ZM90.169 54.3636V66H88.4702V54.3636H90.169ZM98.3878 60.8182V66H96.6889V57.2727H98.3196V58.6932H98.4276C98.6283 58.2311 98.9427 57.8598 99.3707 57.5795C99.8026 57.2992 100.346 57.1591 101.001 57.1591C101.596 57.1591 102.117 57.2841 102.564 57.5341C103.011 57.7803 103.357 58.1477 103.604 58.6364C103.85 59.125 103.973 59.7292 103.973 60.4489V66H102.274V60.6534C102.274 60.0208 102.109 59.5265 101.78 59.1705C101.45 58.8106 100.998 58.6307 100.422 58.6307C100.028 58.6307 99.6776 58.7159 99.3707 58.8864C99.0677 59.0568 98.8272 59.3068 98.6491 59.6364C98.4749 59.9621 98.3878 60.3561 98.3878 60.8182ZM110.013 66.1761C109.153 66.1761 108.412 65.9924 107.791 65.625C107.174 65.2538 106.696 64.733 106.359 64.0625C106.026 63.3883 105.859 62.5985 105.859 61.6932C105.859 60.7992 106.026 60.0114 106.359 59.3295C106.696 58.6477 107.166 58.1155 107.768 57.733C108.375 57.3504 109.083 57.1591 109.893 57.1591C110.386 57.1591 110.863 57.2405 111.325 57.4034C111.787 57.5663 112.202 57.822 112.57 58.1705C112.937 58.5189 113.227 58.9716 113.439 59.5284C113.651 60.0814 113.757 60.7538 113.757 61.5455V62.1477H106.82V60.875H112.092C112.092 60.428 112.001 60.0322 111.82 59.6875C111.638 59.339 111.382 59.0644 111.053 58.8636C110.727 58.6629 110.344 58.5625 109.905 58.5625C109.428 58.5625 109.011 58.6799 108.655 58.9148C108.303 59.1458 108.03 59.4489 107.837 59.8239C107.647 60.1951 107.553 60.5985 107.553 61.0341V62.0284C107.553 62.6117 107.655 63.108 107.859 63.517C108.068 63.9261 108.357 64.2386 108.729 64.4545C109.1 64.6667 109.534 64.7727 110.03 64.7727C110.352 64.7727 110.645 64.7273 110.911 64.6364C111.176 64.5417 111.405 64.4015 111.598 64.2159C111.791 64.0303 111.939 63.8011 112.041 63.5284L113.649 63.8182C113.52 64.2917 113.289 64.7064 112.956 65.0625C112.626 65.4148 112.212 65.6894 111.712 65.8864C111.215 66.0795 110.649 66.1761 110.013 66.1761ZM122.858 57.2727L119.693 66H117.875L114.705 57.2727H116.528L118.739 63.9886H118.83L121.034 57.2727H122.858ZM127.919 66.1761C127.059 66.1761 126.319 65.9924 125.697 65.625C125.08 65.2538 124.603 64.733 124.266 64.0625C123.932 63.3883 123.766 62.5985 123.766 61.6932C123.766 60.7992 123.932 60.0114 124.266 59.3295C124.603 58.6477 125.072 58.1155 125.675 57.733C126.281 57.3504 126.989 57.1591 127.8 57.1591C128.292 57.1591 128.769 57.2405 129.232 57.4034C129.694 57.5663 130.108 57.822 130.476 58.1705C130.843 58.5189 131.133 58.9716 131.345 59.5284C131.557 60.0814 131.663 60.7538 131.663 61.5455V62.1477H124.726V60.875H129.999C129.999 60.428 129.908 60.0322 129.726 59.6875C129.544 59.339 129.288 59.0644 128.959 58.8636C128.633 58.6629 128.25 58.5625 127.811 58.5625C127.334 58.5625 126.917 58.6799 126.561 58.9148C126.209 59.1458 125.936 59.4489 125.743 59.8239C125.554 60.1951 125.459 60.5985 125.459 61.0341V62.0284C125.459 62.6117 125.561 63.108 125.766 63.517C125.974 63.9261 126.264 64.2386 126.635 64.4545C127.006 64.6667 127.44 64.7727 127.936 64.7727C128.258 64.7727 128.552 64.7273 128.817 64.6364C129.082 64.5417 129.311 64.4015 129.504 64.2159C129.697 64.0303 129.845 63.8011 129.947 63.5284L131.555 63.8182C131.427 64.2917 131.196 64.7064 130.862 65.0625C130.533 65.4148 130.118 65.6894 129.618 65.8864C129.122 66.0795 128.555 66.1761 127.919 66.1761ZM133.548 66V57.2727H135.19V58.6591H135.281C135.44 58.1894 135.721 57.8201 136.122 57.5511C136.527 57.2784 136.986 57.142 137.497 57.142C137.603 57.142 137.728 57.1458 137.872 57.1534C138.02 57.161 138.135 57.1705 138.219 57.1818V58.8068C138.151 58.7879 138.029 58.767 137.855 58.7443C137.681 58.7178 137.507 58.7045 137.332 58.7045C136.931 58.7045 136.573 58.7898 136.259 58.9602C135.948 59.1269 135.702 59.3598 135.52 59.6591C135.338 59.9545 135.247 60.2917 135.247 60.6705V66H133.548ZM144.06 66V54.3636H145.759V58.6875H145.861C145.959 58.5057 146.101 58.2955 146.287 58.0568C146.473 57.8182 146.73 57.6098 147.06 57.4318C147.389 57.25 147.825 57.1591 148.366 57.1591C149.071 57.1591 149.7 57.3371 150.253 57.6932C150.806 58.0492 151.24 58.5625 151.554 59.233C151.872 59.9034 152.031 60.7102 152.031 61.6534C152.031 62.5966 151.874 63.4053 151.56 64.0795C151.245 64.75 150.813 65.267 150.264 65.6307C149.715 65.9905 149.088 66.1705 148.384 66.1705C147.853 66.1705 147.42 66.0814 147.082 65.9034C146.749 65.7254 146.488 65.517 146.298 65.2784C146.109 65.0398 145.963 64.8277 145.861 64.642H145.719V66H144.06ZM145.724 61.6364C145.724 62.25 145.813 62.7879 145.991 63.25C146.17 63.7121 146.427 64.0739 146.764 64.3352C147.101 64.5928 147.514 64.7216 148.003 64.7216C148.51 64.7216 148.935 64.5871 149.276 64.3182C149.616 64.0455 149.874 63.6761 150.048 63.2102C150.226 62.7443 150.315 62.2197 150.315 61.6364C150.315 61.0606 150.228 60.5436 150.054 60.0852C149.884 59.6269 149.626 59.2652 149.281 59C148.94 58.7348 148.514 58.6023 148.003 58.6023C147.51 58.6023 147.094 58.7292 146.753 58.983C146.416 59.2367 146.16 59.5909 145.986 60.0455C145.812 60.5 145.724 61.0303 145.724 61.6364ZM157.7 66.1761C156.84 66.1761 156.1 65.9924 155.479 65.625C154.861 65.2538 154.384 64.733 154.047 64.0625C153.714 63.3883 153.547 62.5985 153.547 61.6932C153.547 60.7992 153.714 60.0114 154.047 59.3295C154.384 58.6477 154.854 58.1155 155.456 57.733C156.062 57.3504 156.77 57.1591 157.581 57.1591C158.073 57.1591 158.551 57.2405 159.013 57.4034C159.475 57.5663 159.89 57.822 160.257 58.1705C160.625 58.5189 160.914 58.9716 161.126 59.5284C161.339 60.0814 161.445 60.7538 161.445 61.5455V62.1477H154.507V60.875H159.78C159.78 60.428 159.689 60.0322 159.507 59.6875C159.325 59.339 159.07 59.0644 158.74 58.8636C158.414 58.6629 158.032 58.5625 157.592 58.5625C157.115 58.5625 156.698 58.6799 156.342 58.9148C155.99 59.1458 155.717 59.4489 155.524 59.8239C155.335 60.1951 155.24 60.5985 155.24 61.0341V62.0284C155.24 62.6117 155.342 63.108 155.547 63.517C155.755 63.9261 156.045 64.2386 156.416 64.4545C156.787 64.6667 157.221 64.7727 157.717 64.7727C158.039 64.7727 158.333 64.7273 158.598 64.6364C158.863 64.5417 159.092 64.4015 159.286 64.2159C159.479 64.0303 159.626 63.8011 159.729 63.5284L161.337 63.8182C161.208 64.2917 160.977 64.7064 160.643 65.0625C160.314 65.4148 159.899 65.6894 159.399 65.8864C158.903 66.0795 158.337 66.1761 157.7 66.1761ZM167.564 66V57.2727H169.206V58.6591H169.297C169.456 58.1894 169.736 57.8201 170.138 57.5511C170.543 57.2784 171.001 57.142 171.513 57.142C171.619 57.142 171.744 57.1458 171.888 57.1534C172.036 57.161 172.151 57.1705 172.234 57.1818V58.8068C172.166 58.7879 172.045 58.767 171.871 58.7443C171.696 58.7178 171.522 58.7045 171.348 58.7045C170.946 58.7045 170.589 58.7898 170.274 58.9602C169.964 59.1269 169.717 59.3598 169.536 59.6591C169.354 59.9545 169.263 60.2917 169.263 60.6705V66H167.564ZM173.705 66V57.2727H175.403V66H173.705ZM174.562 55.9261C174.267 55.9261 174.013 55.8277 173.801 55.6307C173.593 55.4299 173.489 55.1913 173.489 54.9148C173.489 54.6345 173.593 54.3958 173.801 54.1989C174.013 53.9981 174.267 53.8977 174.562 53.8977C174.858 53.8977 175.11 53.9981 175.318 54.1989C175.53 54.3958 175.636 54.6345 175.636 54.9148C175.636 55.1913 175.53 55.4299 175.318 55.6307C175.11 55.8277 174.858 55.9261 174.562 55.9261ZM180.956 66.1705C180.251 66.1705 179.623 65.9905 179.07 65.6307C178.52 65.267 178.089 64.75 177.774 64.0795C177.464 63.4053 177.308 62.5966 177.308 61.6534C177.308 60.7102 177.465 59.9034 177.78 59.233C178.098 58.5625 178.534 58.0492 179.087 57.6932C179.64 57.3371 180.267 57.1591 180.967 57.1591C181.509 57.1591 181.945 57.25 182.274 57.4318C182.607 57.6098 182.865 57.8182 183.047 58.0568C183.232 58.2955 183.376 58.5057 183.479 58.6875H183.581V54.3636H185.28V66H183.621V64.642H183.479C183.376 64.8277 183.229 65.0398 183.036 65.2784C182.846 65.517 182.585 65.7254 182.251 65.9034C181.918 66.0814 181.486 66.1705 180.956 66.1705ZM181.331 64.7216C181.82 64.7216 182.232 64.5928 182.57 64.3352C182.911 64.0739 183.168 63.7121 183.342 63.25C183.52 62.7879 183.609 62.25 183.609 61.6364C183.609 61.0303 183.522 60.5 183.348 60.0455C183.174 59.5909 182.918 59.2367 182.581 58.983C182.244 58.7292 181.827 58.6023 181.331 58.6023C180.82 58.6023 180.393 58.7348 180.053 59C179.712 59.2652 179.454 59.6269 179.28 60.0852C179.109 60.5436 179.024 61.0606 179.024 61.6364C179.024 62.2197 179.111 62.7443 179.286 63.2102C179.46 63.6761 179.717 64.0455 180.058 64.3182C180.403 64.5871 180.827 64.7216 181.331 64.7216ZM195.615 66.1761C194.797 66.1761 194.083 65.9886 193.473 65.6136C192.863 65.2386 192.39 64.714 192.053 64.0398C191.715 63.3655 191.547 62.5777 191.547 61.6761C191.547 60.7708 191.715 59.9792 192.053 59.3011C192.39 58.6231 192.863 58.0966 193.473 57.7216C194.083 57.3466 194.797 57.1591 195.615 57.1591C196.433 57.1591 197.147 57.3466 197.757 57.7216C198.367 58.0966 198.84 58.6231 199.178 59.3011C199.515 59.9792 199.683 60.7708 199.683 61.6761C199.683 62.5777 199.515 63.3655 199.178 64.0398C198.84 64.714 198.367 65.2386 197.757 65.6136C197.147 65.9886 196.433 66.1761 195.615 66.1761ZM195.621 64.75C196.151 64.75 196.59 64.6098 196.939 64.3295C197.287 64.0492 197.545 63.6761 197.712 63.2102C197.882 62.7443 197.967 62.2311 197.967 61.6705C197.967 61.1136 197.882 60.6023 197.712 60.1364C197.545 59.6667 197.287 59.2898 196.939 59.0057C196.59 58.7216 196.151 58.5795 195.621 58.5795C195.087 58.5795 194.643 58.7216 194.291 59.0057C193.943 59.2898 193.683 59.6667 193.513 60.1364C193.346 60.6023 193.263 61.1136 193.263 61.6705C193.263 62.2311 193.346 62.7443 193.513 63.2102C193.683 63.6761 193.943 64.0492 194.291 64.3295C194.643 64.6098 195.087 64.75 195.621 64.75ZM205.733 57.2727V58.6364H200.801V57.2727H205.733ZM202.153 66V56.2614C202.153 55.7159 202.273 55.2633 202.511 54.9034C202.75 54.5398 203.066 54.2689 203.46 54.0909C203.854 53.9091 204.282 53.8182 204.744 53.8182C205.085 53.8182 205.377 53.8466 205.619 53.9034C205.862 53.9564 206.042 54.0057 206.159 54.0511L205.761 55.4261C205.682 55.4034 205.58 55.3769 205.455 55.3466C205.33 55.3125 205.178 55.2955 205 55.2955C204.587 55.2955 204.292 55.3977 204.114 55.6023C203.939 55.8068 203.852 56.1023 203.852 56.4886V66H202.153ZM211.72 66V57.2727H213.351V58.6932H213.459C213.641 58.2121 213.938 57.8371 214.351 57.5682C214.764 57.2955 215.258 57.1591 215.834 57.1591C216.417 57.1591 216.906 57.2955 217.3 57.5682C217.697 57.8409 217.991 58.2159 218.18 58.6932H218.271C218.48 58.2273 218.811 57.8561 219.266 57.5795C219.72 57.2992 220.262 57.1591 220.891 57.1591C221.682 57.1591 222.328 57.4072 222.828 57.9034C223.332 58.3996 223.584 59.1477 223.584 60.1477V66H221.885V60.3068C221.885 59.7159 221.724 59.2879 221.402 59.0227C221.08 58.7576 220.696 58.625 220.249 58.625C219.696 58.625 219.266 58.7955 218.959 59.1364C218.652 59.4735 218.499 59.9072 218.499 60.4375V66H216.805V60.1989C216.805 59.7254 216.658 59.3447 216.362 59.0568C216.067 58.7689 215.682 58.625 215.209 58.625C214.887 58.625 214.589 58.7102 214.317 58.8807C214.048 59.0473 213.83 59.2803 213.663 59.5795C213.5 59.8788 213.419 60.2254 213.419 60.6193V66H211.72ZM229.622 66.1761C228.762 66.1761 228.022 65.9924 227.401 65.625C226.783 65.2538 226.306 64.733 225.969 64.0625C225.635 63.3883 225.469 62.5985 225.469 61.6932C225.469 60.7992 225.635 60.0114 225.969 59.3295C226.306 58.6477 226.776 58.1155 227.378 57.733C227.984 57.3504 228.692 57.1591 229.503 57.1591C229.995 57.1591 230.473 57.2405 230.935 57.4034C231.397 57.5663 231.812 57.822 232.179 58.1705C232.546 58.5189 232.836 58.9716 233.048 59.5284C233.26 60.0814 233.366 60.7538 233.366 61.5455V62.1477H226.429V60.875H231.702C231.702 60.428 231.611 60.0322 231.429 59.6875C231.247 59.339 230.991 59.0644 230.662 58.8636C230.336 58.6629 229.954 58.5625 229.514 58.5625C229.037 58.5625 228.62 58.6799 228.264 58.9148C227.912 59.1458 227.639 59.4489 227.446 59.8239C227.257 60.1951 227.162 60.5985 227.162 61.0341V62.0284C227.162 62.6117 227.264 63.108 227.469 63.517C227.677 63.9261 227.967 64.2386 228.338 64.4545C228.709 64.6667 229.143 64.7727 229.639 64.7727C229.961 64.7727 230.255 64.7273 230.52 64.6364C230.785 64.5417 231.014 64.4015 231.207 64.2159C231.401 64.0303 231.548 63.8011 231.651 63.5284L233.259 63.8182C233.13 64.2917 232.899 64.7064 232.565 65.0625C232.236 65.4148 231.821 65.6894 231.321 65.8864C230.825 66.0795 230.259 66.1761 229.622 66.1761Z" fill="white"/>
</g>
<defs>
<filter id="filter0_d_2194_1459" x="2.96826" y="2.1582" width="20.4644" height="22.4766" filterUnits="userSpaceOnUse" color-interpolation-filters="sRGB">
<feFlood flood-opacity="0" result="BackgroundImageFix"/>
<feColorMatrix in="SourceAlpha" type="matrix" values="0 0 0 0 0 0 0 0 0 0 0 0 0 0 0 0 0 0 127 0" result="hardAlpha"/>
<feOffset dy="1"/>
<feGaussianBlur stdDeviation="1"/>
<feComposite in2="hardAlpha" operator="out"/>
<feColorMatrix type="matrix" values="0 0 0 0 0 0 0 0 0 0 0 0 0 0 0 0 0 0 0.25 0"/>
<feBlend mode="normal" in2="BackgroundImageFix" result="effect1_dropShadow_2194_1459"/>
<feBlend mode="normal" in="SourceGraphic" in2="effect1_dropShadow_2194_1459" result="shape"/>
</filter>
<filter id="filter1_d_2194_1459" x="12" y="14" width="257" height="80" filterUnits="userSpaceOnUse" color-interpolation-filters="sRGB">
<feFlood flood-opacity="0" result="BackgroundImageFix"/>
<feColorMatrix in="SourceAlpha" type="matrix" values="0 0 0 0 0 0 0 0 0 0 0 0 0 0 0 0 0 0 127 0" result="hardAlpha"/>
<feOffset dx="4" dy="4"/>
<feGaussianBlur stdDeviation="5"/>
<feComposite in2="hardAlpha" operator="out"/>
<feColorMatrix type="matrix" values="0 0 0 0 0.968627 0 0 0 0 0.819608 0 0 0 0 0.345098 0 0 0 0.16 0"/>
<feBlend mode="normal" in2="BackgroundImageFix" result="effect1_dropShadow_2194_1459"/>
<feBlend mode="normal" in="SourceGraphic" in2="effect1_dropShadow_2194_1459" result="shape"/>
</filter>
</defs>
</svg>
