<svg width="314" height="94" viewBox="0 0 314 94" fill="none" xmlns="http://www.w3.org/2000/svg">
<g filter="url(#filter0_d_2194_1447)">
<path d="M8.81678 20.3643L5.66312 4.11451L20.143 12.1353L13.0104 14.2272L8.81678 20.3643Z" fill="#1570EF"/>
<path d="M8.81678 20.3643L5.66312 4.11451L20.143 12.1353L13.0104 14.2272L8.81678 20.3643Z" stroke="white"/>
</g>
<g filter="url(#filter1_d_2194_1447)">
<path d="M18 22C18 20.8954 18.8954 20 20 20H276C289.255 20 300 30.7452 300 44V56C300 69.2548 289.255 80 276 80H42C28.7452 80 18 69.2548 18 56V22Z" fill="#1570EF" shape-rendering="crispEdges"/>
<path d="M20 21H276C288.703 21 299 31.2975 299 44V56C299 68.7025 288.703 79 276 79H42C29.2974 79 19 68.7025 19 56V22C19 21.4477 19.4477 21 20 21Z" stroke="#1570EF" stroke-width="2" shape-rendering="crispEdges"/>
<path opacity="0.8" d="M35.0387 43V33.5455H40.9016V34.7734H36.4652V37.6541H40.4815V38.8775H36.4652V43H35.0387ZM42.5451 43V35.9091H43.9254V43H42.5451ZM43.2422 34.815C43.0021 34.815 42.7959 34.735 42.6236 34.5749C42.4543 34.4118 42.3697 34.2179 42.3697 33.9933C42.3697 33.7655 42.4543 33.5716 42.6236 33.4116C42.7959 33.2485 43.0021 33.1669 43.2422 33.1669C43.4822 33.1669 43.6869 33.2485 43.8562 33.4116C44.0285 33.5716 44.1147 33.7655 44.1147 33.9933C44.1147 34.2179 44.0285 34.4118 43.8562 34.5749C43.6869 34.735 43.4822 34.815 43.2422 34.815ZM48.7554 45.8068C48.1922 45.8068 47.7075 45.733 47.3012 45.5852C46.8981 45.4375 46.5687 45.2421 46.3133 44.9989C46.0579 44.7558 45.867 44.4896 45.7409 44.2003L46.9273 43.7109C47.0104 43.8464 47.1212 43.9895 47.2597 44.1403C47.4012 44.2942 47.5921 44.425 47.8321 44.5327C48.0753 44.6404 48.3876 44.6942 48.7693 44.6942C49.2925 44.6942 49.7249 44.5665 50.0665 44.3111C50.4081 44.0587 50.5789 43.6555 50.5789 43.1016V41.7074H50.4912C50.4081 41.8582 50.2881 42.0259 50.1311 42.2106C49.9772 42.3952 49.7649 42.5553 49.4941 42.6907C49.2232 42.8261 48.8708 42.8938 48.4369 42.8938C47.8767 42.8938 47.372 42.763 46.9227 42.5014C46.4764 42.2367 46.1225 41.8474 45.8609 41.3335C45.6024 40.8164 45.4731 40.1809 45.4731 39.4268C45.4731 38.6728 45.6008 38.0265 45.8563 37.4879C46.1148 36.9493 46.4687 36.5369 46.9181 36.2507C47.3674 35.9614 47.8767 35.8168 48.4461 35.8168C48.8862 35.8168 49.2417 35.8906 49.5125 36.0384C49.7834 36.183 49.9942 36.3523 50.145 36.5462C50.2989 36.7401 50.4173 36.9109 50.5004 37.0586H50.602V35.9091H51.9546V43.157C51.9546 43.7663 51.8131 44.2665 51.5299 44.6573C51.2468 45.0482 50.8636 45.3375 50.3804 45.5252C49.9003 45.7129 49.3586 45.8068 48.7554 45.8068ZM48.7416 41.7489C49.1386 41.7489 49.474 41.6566 49.748 41.4719C50.0249 41.2842 50.2342 41.0165 50.3758 40.6687C50.5204 40.3178 50.5928 39.8977 50.5928 39.4084C50.5928 38.9313 50.522 38.5112 50.3804 38.1481C50.2388 37.7849 50.0311 37.5018 49.7572 37.2987C49.4833 37.0924 49.1447 36.9893 48.7416 36.9893C48.3261 36.9893 47.9798 37.0971 47.7029 37.3125C47.4259 37.5249 47.2166 37.8142 47.075 38.1804C46.9365 38.5466 46.8673 38.956 46.8673 39.4084C46.8673 39.8731 46.9381 40.2809 47.0796 40.6317C47.2212 40.9826 47.4305 41.2565 47.7075 41.4535C47.9875 41.6504 48.3322 41.7489 48.7416 41.7489ZM53.8058 43V35.9091H55.1308V37.0632H55.2185C55.3662 36.6723 55.6078 36.3677 55.9433 36.1491C56.2787 35.9276 56.6804 35.8168 57.1482 35.8168C57.6221 35.8168 58.0191 35.9276 58.3392 36.1491C58.6624 36.3707 58.9009 36.6754 59.0548 37.0632H59.1286C59.2979 36.6847 59.5672 36.383 59.9365 36.1584C60.3058 35.9306 60.7459 35.8168 61.2568 35.8168C61.9001 35.8168 62.4248 36.0183 62.8311 36.4215C63.2404 36.8247 63.445 37.4325 63.445 38.245V43H62.0647V38.3743C62.0647 37.8942 61.9339 37.5464 61.6723 37.331C61.4107 37.1155 61.0983 37.0078 60.7352 37.0078C60.2858 37.0078 59.9365 37.1463 59.6872 37.4233C59.4379 37.6972 59.3133 38.0496 59.3133 38.4805V43H57.9376V38.2866C57.9376 37.9019 57.8176 37.5926 57.5775 37.3587C57.3374 37.1248 57.0251 37.0078 56.6404 37.0078C56.3788 37.0078 56.1372 37.0771 55.9156 37.2156C55.6971 37.351 55.5201 37.5402 55.3847 37.7834C55.2523 38.0265 55.1862 38.3081 55.1862 38.6282V43H53.8058ZM67.3587 43.157C66.9093 43.157 66.5031 43.0739 66.1399 42.9077C65.7768 42.7384 65.489 42.4937 65.2766 42.1737C65.0674 41.8536 64.9627 41.4612 64.9627 40.9964C64.9627 40.5964 65.0397 40.267 65.1935 40.0085C65.3474 39.75 65.5552 39.5453 65.8168 39.3945C66.0784 39.2437 66.3707 39.1299 66.6939 39.0529C67.017 38.976 67.3464 38.9175 67.6818 38.8775C68.1065 38.8282 68.4512 38.7882 68.7159 38.7575C68.9806 38.7236 69.1729 38.6697 69.293 38.5959C69.413 38.522 69.473 38.402 69.473 38.2358V38.2035C69.473 37.8003 69.3591 37.4879 69.1314 37.2663C68.9067 37.0447 68.5713 36.9339 68.125 36.9339C67.6603 36.9339 67.294 37.037 67.0263 37.2433C66.7616 37.4464 66.5785 37.6726 66.4769 37.9219L65.1797 37.6264C65.3336 37.1955 65.5582 36.8478 65.8537 36.5831C66.1522 36.3153 66.4954 36.1214 66.8832 36.0014C67.271 35.8783 67.6787 35.8168 68.1065 35.8168C68.3897 35.8168 68.6897 35.8506 69.0067 35.9183C69.3268 35.983 69.6254 36.103 69.9023 36.2784C70.1824 36.4538 70.4117 36.7047 70.5902 37.0309C70.7687 37.354 70.858 37.7741 70.858 38.2912V43H69.5099V42.0305H69.4545C69.3653 42.209 69.2314 42.3845 69.0529 42.5568C68.8744 42.7292 68.6451 42.8723 68.3651 42.9862C68.085 43.1 67.7495 43.157 67.3587 43.157ZM67.6587 42.049C68.0404 42.049 68.3666 41.9736 68.6374 41.8228C68.9113 41.672 69.1191 41.475 69.2607 41.2319C69.4053 40.9857 69.4776 40.7225 69.4776 40.4425V39.5284C69.4284 39.5777 69.333 39.6238 69.1914 39.6669C69.0529 39.7069 68.8944 39.7423 68.7159 39.7731C68.5374 39.8008 68.3635 39.8269 68.1942 39.8516C68.025 39.8731 67.8834 39.8916 67.7695 39.907C67.5018 39.9408 67.2571 39.9978 67.0355 40.0778C66.817 40.1578 66.6416 40.2732 66.5092 40.424C66.38 40.5717 66.3153 40.7687 66.3153 41.0149C66.3153 41.3565 66.4415 41.6151 66.6939 41.7905C66.9463 41.9628 67.2679 42.049 67.6587 42.049ZM81.4043 36.0291C81.3551 35.5921 81.1519 35.2536 80.7949 35.0135C80.4379 34.7704 79.9886 34.6488 79.4469 34.6488C79.0591 34.6488 78.7237 34.7103 78.4405 34.8335C78.1574 34.9535 77.9373 35.1197 77.7804 35.332C77.6265 35.5413 77.5495 35.7798 77.5495 36.0476C77.5495 36.2723 77.6019 36.4661 77.7065 36.6293C77.8142 36.7924 77.9542 36.9293 78.1266 37.0401C78.302 37.1478 78.4898 37.2386 78.6898 37.3125C78.8899 37.3833 79.0822 37.4418 79.2669 37.4879L80.1902 37.728C80.4918 37.8018 80.8011 37.9019 81.1181 38.0281C81.4351 38.1542 81.729 38.3204 81.9998 38.5266C82.2707 38.7328 82.4892 38.9883 82.6554 39.293C82.8246 39.5977 82.9093 39.9624 82.9093 40.3871C82.9093 40.9226 82.7708 41.3981 82.4938 41.8136C82.2199 42.229 81.8213 42.5568 81.2981 42.7969C80.778 43.0369 80.1486 43.157 79.41 43.157C78.7021 43.157 78.0897 43.0446 77.5726 42.82C77.0556 42.5953 76.6509 42.2768 76.3585 41.8643C76.0661 41.4489 75.9045 40.9564 75.8738 40.3871H77.3049C77.3326 40.7287 77.4434 41.0134 77.6373 41.2411C77.8342 41.4658 78.085 41.6335 78.3897 41.7443C78.6975 41.852 79.0345 41.9059 79.4007 41.9059C79.8039 41.9059 80.1625 41.8428 80.4764 41.7166C80.7934 41.5874 81.0427 41.4089 81.2243 41.1811C81.4058 40.9503 81.4966 40.681 81.4966 40.3732C81.4966 40.0932 81.4166 39.8639 81.2566 39.6854C81.0996 39.5069 80.8857 39.3591 80.6149 39.2422C80.3471 39.1252 80.044 39.0221 79.7054 38.9329L78.5882 38.6282C77.8311 38.422 77.231 38.1188 76.7878 37.7188C76.3477 37.3187 76.1277 36.7893 76.1277 36.1307C76.1277 35.5859 76.2754 35.1104 76.5708 34.7042C76.8663 34.2979 77.2664 33.9825 77.7711 33.7578C78.2759 33.5301 78.8452 33.4162 79.4792 33.4162C80.1194 33.4162 80.6841 33.5285 81.1735 33.7532C81.6659 33.9779 82.0537 34.2872 82.3368 34.6811C82.62 35.072 82.7677 35.5213 82.78 36.0291H81.4043ZM87.8131 35.9091V37.017H83.9399V35.9091H87.8131ZM84.9786 34.2102H86.3589V40.918C86.3589 41.1857 86.3989 41.3873 86.479 41.5227C86.559 41.6551 86.6621 41.7459 86.7883 41.7951C86.9175 41.8413 87.0576 41.8643 87.2084 41.8643C87.3192 41.8643 87.4161 41.8567 87.4992 41.8413C87.5823 41.8259 87.6469 41.8136 87.6931 41.8043L87.9424 42.9446C87.8624 42.9754 87.7485 43.0062 87.6008 43.0369C87.453 43.0708 87.2684 43.0893 87.0468 43.0923C86.6836 43.0985 86.3451 43.0339 86.0312 42.8984C85.7172 42.763 85.4633 42.5537 85.2694 42.2706C85.0756 41.9875 84.9786 41.632 84.9786 41.2042V34.2102ZM91.4036 43.157C90.9542 43.157 90.548 43.0739 90.1848 42.9077C89.8217 42.7384 89.5339 42.4937 89.3216 42.1737C89.1123 41.8536 89.0076 41.4612 89.0076 40.9964C89.0076 40.5964 89.0846 40.267 89.2385 40.0085C89.3923 39.75 89.6001 39.5453 89.8617 39.3945C90.1233 39.2437 90.4157 39.1299 90.7388 39.0529C91.062 38.976 91.3913 38.9175 91.7267 38.8775C92.1515 38.8282 92.4962 38.7882 92.7608 38.7575C93.0255 38.7236 93.2179 38.6697 93.3379 38.5959C93.4579 38.522 93.5179 38.402 93.5179 38.2358V38.2035C93.5179 37.8003 93.4041 37.4879 93.1763 37.2663C92.9516 37.0447 92.6162 36.9339 92.1699 36.9339C91.7052 36.9339 91.339 37.037 91.0712 37.2433C90.8065 37.4464 90.6234 37.6726 90.5218 37.9219L89.2246 37.6264C89.3785 37.1955 89.6032 36.8478 89.8986 36.5831C90.1971 36.3153 90.5403 36.1214 90.9281 36.0014C91.3159 35.8783 91.7237 35.8168 92.1515 35.8168C92.4346 35.8168 92.7347 35.8506 93.0517 35.9183C93.3717 35.983 93.6703 36.103 93.9473 36.2784C94.2273 36.4538 94.4566 36.7047 94.6351 37.0309C94.8136 37.354 94.9029 37.7741 94.9029 38.2912V43H93.5549V42.0305H93.4995C93.4102 42.209 93.2763 42.3845 93.0978 42.5568C92.9193 42.7292 92.69 42.8723 92.41 42.9862C92.1299 43.1 91.7944 43.157 91.4036 43.157ZM91.7037 42.049C92.0853 42.049 92.4115 41.9736 92.6824 41.8228C92.9563 41.672 93.164 41.475 93.3056 41.2319C93.4502 40.9857 93.5225 40.7225 93.5225 40.4425V39.5284C93.4733 39.5777 93.3779 39.6238 93.2363 39.6669C93.0978 39.7069 92.9393 39.7423 92.7608 39.7731C92.5823 39.8008 92.4084 39.8269 92.2392 39.8516C92.0699 39.8731 91.9283 39.8916 91.8145 39.907C91.5467 39.9408 91.302 39.9978 91.0804 40.0778C90.8619 40.1578 90.6865 40.2732 90.5542 40.424C90.4249 40.5717 90.3603 40.7687 90.3603 41.0149C90.3603 41.3565 90.4864 41.6151 90.7388 41.7905C90.9912 41.9628 91.3128 42.049 91.7037 42.049ZM98.1217 33.5455V43H96.7414V33.5455H98.1217ZM101.248 40.5948L101.239 38.9098H101.479L104.304 35.9091H105.957L102.735 39.3253H102.518L101.248 40.5948ZM99.9787 43V33.5455H101.359V43H99.9787ZM104.457 43L101.918 39.63L102.869 38.6651L106.151 43H104.457ZM109.979 43.1431C109.281 43.1431 108.679 42.9938 108.174 42.6953C107.672 42.3937 107.285 41.9705 107.011 41.4258C106.74 40.878 106.604 40.2363 106.604 39.5007C106.604 38.7744 106.74 38.1342 107.011 37.5803C107.285 37.0263 107.666 36.5939 108.156 36.283C108.648 35.9722 109.224 35.8168 109.882 35.8168C110.282 35.8168 110.67 35.8829 111.046 36.0153C111.421 36.1476 111.758 36.3554 112.057 36.6385C112.355 36.9216 112.591 37.2894 112.763 37.7418C112.935 38.1912 113.021 38.7375 113.021 39.3807V39.87H107.385V38.8359H111.669C111.669 38.4728 111.595 38.1512 111.447 37.8711C111.299 37.5879 111.092 37.3648 110.824 37.2017C110.559 37.0386 110.248 36.957 109.891 36.957C109.504 36.957 109.165 37.0524 108.876 37.2433C108.59 37.431 108.368 37.6772 108.211 37.9819C108.057 38.2835 107.98 38.6113 107.98 38.9652V39.7731C107.98 40.247 108.063 40.6502 108.229 40.9826C108.399 41.315 108.634 41.5689 108.936 41.7443C109.237 41.9167 109.59 42.0028 109.993 42.0028C110.255 42.0028 110.493 41.9659 110.709 41.892C110.924 41.8151 111.11 41.7012 111.267 41.5504C111.424 41.3996 111.544 41.2134 111.627 40.9918L112.934 41.2273C112.829 41.612 112.641 41.949 112.37 42.2383C112.103 42.5245 111.766 42.7476 111.359 42.9077C110.956 43.0646 110.496 43.1431 109.979 43.1431ZM114.553 43V35.9091H115.887V37.0355H115.961C116.09 36.6539 116.318 36.3538 116.644 36.1353C116.973 35.9137 117.346 35.8029 117.761 35.8029C117.848 35.8029 117.949 35.806 118.066 35.8121C118.186 35.8183 118.28 35.826 118.348 35.8352V37.1555C118.292 37.1402 118.194 37.1232 118.052 37.1048C117.911 37.0832 117.769 37.0724 117.627 37.0724C117.301 37.0724 117.01 37.1417 116.755 37.2802C116.503 37.4156 116.303 37.6049 116.155 37.848C116.007 38.0881 115.933 38.362 115.933 38.6697V43H114.553Z" fill="white" fill-opacity="0.7"/>
<path d="M41.6818 59.4034L40.142 59.6761C40.0777 59.4792 39.9754 59.2917 39.8352 59.1136C39.6989 58.9356 39.5133 58.7898 39.2784 58.6761C39.0436 58.5625 38.75 58.5057 38.3977 58.5057C37.9167 58.5057 37.5152 58.6136 37.1932 58.8295C36.8712 59.0417 36.7102 59.3163 36.7102 59.6534C36.7102 59.9451 36.8182 60.1799 37.0341 60.358C37.25 60.536 37.5985 60.6818 38.0795 60.7955L39.4659 61.1136C40.2689 61.2992 40.8674 61.5852 41.2614 61.9716C41.6553 62.358 41.8523 62.8598 41.8523 63.4773C41.8523 64 41.7008 64.4659 41.3977 64.875C41.0985 65.2803 40.6799 65.5985 40.142 65.8295C39.608 66.0606 38.9886 66.1761 38.2841 66.1761C37.3068 66.1761 36.5095 65.9678 35.892 65.5511C35.2746 65.1307 34.8958 64.5341 34.7557 63.7614L36.3977 63.5114C36.5 63.9394 36.7102 64.2633 37.0284 64.483C37.3466 64.6989 37.7614 64.8068 38.2727 64.8068C38.8295 64.8068 39.2746 64.6913 39.608 64.4602C39.9413 64.2254 40.108 63.9394 40.108 63.6023C40.108 63.3295 40.0057 63.1004 39.8011 62.9148C39.6004 62.7292 39.2917 62.589 38.875 62.4943L37.3977 62.1705C36.5833 61.9848 35.9811 61.6894 35.5909 61.2841C35.2045 60.8788 35.0114 60.3655 35.0114 59.7443C35.0114 59.2292 35.1553 58.7784 35.4432 58.392C35.7311 58.0057 36.1288 57.7045 36.6364 57.4886C37.1439 57.2689 37.7254 57.1591 38.3807 57.1591C39.3239 57.1591 40.0663 57.3636 40.608 57.7727C41.1496 58.178 41.5076 58.7216 41.6818 59.4034ZM47.794 57.2727V58.6364H43.027V57.2727H47.794ZM44.3054 55.1818H46.0043V63.4375C46.0043 63.767 46.0535 64.0152 46.152 64.1818C46.2505 64.3447 46.3774 64.4564 46.5327 64.517C46.6918 64.5739 46.8641 64.6023 47.0497 64.6023C47.1861 64.6023 47.3054 64.5928 47.4077 64.5739C47.5099 64.5549 47.5895 64.5398 47.6463 64.5284L47.9531 65.9318C47.8546 65.9697 47.7145 66.0076 47.5327 66.0455C47.3509 66.0871 47.1236 66.1098 46.8509 66.1136C46.4039 66.1212 45.9872 66.0417 45.6009 65.875C45.2145 65.7083 44.902 65.4508 44.6634 65.1023C44.4247 64.7538 44.3054 64.3163 44.3054 63.7898V55.1818ZM53.2557 66.1761C52.4375 66.1761 51.7235 65.9886 51.1136 65.6136C50.5038 65.2386 50.0303 64.714 49.6932 64.0398C49.3561 63.3655 49.1875 62.5777 49.1875 61.6761C49.1875 60.7708 49.3561 59.9792 49.6932 59.3011C50.0303 58.6231 50.5038 58.0966 51.1136 57.7216C51.7235 57.3466 52.4375 57.1591 53.2557 57.1591C54.0739 57.1591 54.7879 57.3466 55.3977 57.7216C56.0076 58.0966 56.4811 58.6231 56.8182 59.3011C57.1553 59.9792 57.3239 60.7708 57.3239 61.6761C57.3239 62.5777 57.1553 63.3655 56.8182 64.0398C56.4811 64.714 56.0076 65.2386 55.3977 65.6136C54.7879 65.9886 54.0739 66.1761 53.2557 66.1761ZM53.2614 64.75C53.7917 64.75 54.2311 64.6098 54.5795 64.3295C54.928 64.0492 55.1856 63.6761 55.3523 63.2102C55.5227 62.7443 55.608 62.2311 55.608 61.6705C55.608 61.1136 55.5227 60.6023 55.3523 60.1364C55.1856 59.6667 54.928 59.2898 54.5795 59.0057C54.2311 58.7216 53.7917 58.5795 53.2614 58.5795C52.7273 58.5795 52.2841 58.7216 51.9318 59.0057C51.5833 59.2898 51.3239 59.6667 51.1534 60.1364C50.9867 60.6023 50.9034 61.1136 50.9034 61.6705C50.9034 62.2311 50.9867 62.7443 51.1534 63.2102C51.3239 63.6761 51.5833 64.0492 51.9318 64.3295C52.2841 64.6098 52.7273 64.75 53.2614 64.75ZM59.2202 69.2727V57.2727H60.8793V58.6875H61.0213C61.1198 58.5057 61.2618 58.2955 61.4474 58.0568C61.633 57.8182 61.8906 57.6098 62.2202 57.4318C62.5497 57.25 62.9853 57.1591 63.527 57.1591C64.2315 57.1591 64.8603 57.3371 65.4134 57.6932C65.9664 58.0492 66.4001 58.5625 66.7145 59.233C67.0327 59.9034 67.1918 60.7102 67.1918 61.6534C67.1918 62.5966 67.0346 63.4053 66.7202 64.0795C66.4058 64.75 65.974 65.267 65.4247 65.6307C64.8755 65.9905 64.2486 66.1705 63.544 66.1705C63.0137 66.1705 62.58 66.0814 62.2429 65.9034C61.9096 65.7254 61.6482 65.517 61.4588 65.2784C61.2694 65.0398 61.1236 64.8277 61.0213 64.642H60.919V69.2727H59.2202ZM60.8849 61.6364C60.8849 62.25 60.974 62.7879 61.152 63.25C61.33 63.7121 61.5876 64.0739 61.9247 64.3352C62.2618 64.5928 62.6747 64.7216 63.1634 64.7216C63.6709 64.7216 64.0952 64.5871 64.4361 64.3182C64.777 64.0455 65.0346 63.6761 65.2088 63.2102C65.3868 62.7443 65.4759 62.2197 65.4759 61.6364C65.4759 61.0606 65.3887 60.5436 65.2145 60.0852C65.044 59.6269 64.7865 59.2652 64.4418 59C64.1009 58.7348 63.6747 58.6023 63.1634 58.6023C62.6709 58.6023 62.2543 58.7292 61.9134 58.983C61.5762 59.2367 61.3205 59.5909 61.1463 60.0455C60.9721 60.5 60.8849 61.0303 60.8849 61.6364ZM76.5966 66.1705C75.892 66.1705 75.2633 65.9905 74.7102 65.6307C74.161 65.267 73.7292 64.75 73.4148 64.0795C73.1042 63.4053 72.9489 62.5966 72.9489 61.6534C72.9489 60.7102 73.1061 59.9034 73.4205 59.233C73.7386 58.5625 74.1742 58.0492 74.7273 57.6932C75.2803 57.3371 75.9072 57.1591 76.608 57.1591C77.1496 57.1591 77.5852 57.25 77.9148 57.4318C78.2481 57.6098 78.5057 57.8182 78.6875 58.0568C78.8731 58.2955 79.017 58.5057 79.1193 58.6875H79.2216V54.3636H80.9205V66H79.2614V64.642H79.1193C79.017 64.8277 78.8693 65.0398 78.6761 65.2784C78.4867 65.517 78.2254 65.7254 77.892 65.9034C77.5587 66.0814 77.1269 66.1705 76.5966 66.1705ZM76.9716 64.7216C77.4602 64.7216 77.8731 64.5928 78.2102 64.3352C78.5511 64.0739 78.8087 63.7121 78.983 63.25C79.161 62.7879 79.25 62.25 79.25 61.6364C79.25 61.0303 79.1629 60.5 78.9886 60.0455C78.8144 59.5909 78.5587 59.2367 78.2216 58.983C77.8845 58.7292 77.4678 58.6023 76.9716 58.6023C76.4602 58.6023 76.0341 58.7348 75.6932 59C75.3523 59.2652 75.0947 59.6269 74.9205 60.0852C74.75 60.5436 74.6648 61.0606 74.6648 61.6364C74.6648 62.2197 74.7519 62.7443 74.9261 63.2102C75.1004 63.6761 75.358 64.0455 75.6989 64.3182C76.0436 64.5871 76.4678 64.7216 76.9716 64.7216ZM87.1065 66.1761C86.2467 66.1761 85.5062 65.9924 84.8849 65.625C84.2675 65.2538 83.7902 64.733 83.4531 64.0625C83.1198 63.3883 82.9531 62.5985 82.9531 61.6932C82.9531 60.7992 83.1198 60.0114 83.4531 59.3295C83.7902 58.6477 84.2599 58.1155 84.8622 57.733C85.4683 57.3504 86.1766 57.1591 86.9872 57.1591C87.4796 57.1591 87.9569 57.2405 88.419 57.4034C88.8812 57.5663 89.2959 57.822 89.6634 58.1705C90.0308 58.5189 90.3205 58.9716 90.5327 59.5284C90.7448 60.0814 90.8509 60.7538 90.8509 61.5455V62.1477H83.9134V60.875H89.1861C89.1861 60.428 89.0952 60.0322 88.9134 59.6875C88.7315 59.339 88.4759 59.0644 88.1463 58.8636C87.8205 58.6629 87.438 58.5625 86.9986 58.5625C86.5213 58.5625 86.1046 58.6799 85.7486 58.9148C85.3963 59.1458 85.1236 59.4489 84.9304 59.8239C84.741 60.1951 84.6463 60.5985 84.6463 61.0341V62.0284C84.6463 62.6117 84.7486 63.108 84.9531 63.517C85.1615 63.9261 85.4512 64.2386 85.8224 64.4545C86.1937 64.6667 86.6274 64.7727 87.1236 64.7727C87.4455 64.7727 87.7391 64.7273 88.0043 64.6364C88.2694 64.5417 88.4986 64.4015 88.6918 64.2159C88.8849 64.0303 89.0327 63.8011 89.1349 63.5284L90.7429 63.8182C90.6141 64.2917 90.383 64.7064 90.0497 65.0625C89.7202 65.4148 89.3054 65.6894 88.8054 65.8864C88.3092 66.0795 87.7429 66.1761 87.1065 66.1761ZM99.2756 59.4034L97.7358 59.6761C97.6714 59.4792 97.5691 59.2917 97.429 59.1136C97.2926 58.9356 97.107 58.7898 96.8722 58.6761C96.6373 58.5625 96.3438 58.5057 95.9915 58.5057C95.5104 58.5057 95.1089 58.6136 94.7869 58.8295C94.465 59.0417 94.304 59.3163 94.304 59.6534C94.304 59.9451 94.4119 60.1799 94.6278 60.358C94.8438 60.536 95.1922 60.6818 95.6733 60.7955L97.0597 61.1136C97.8627 61.2992 98.4612 61.5852 98.8551 61.9716C99.2491 62.358 99.446 62.8598 99.446 63.4773C99.446 64 99.2945 64.4659 98.9915 64.875C98.6922 65.2803 98.2737 65.5985 97.7358 65.8295C97.2017 66.0606 96.5824 66.1761 95.8778 66.1761C94.9006 66.1761 94.1032 65.9678 93.4858 65.5511C92.8684 65.1307 92.4896 64.5341 92.3494 63.7614L93.9915 63.5114C94.0938 63.9394 94.304 64.2633 94.6222 64.483C94.9403 64.6989 95.3551 64.8068 95.8665 64.8068C96.4233 64.8068 96.8684 64.6913 97.2017 64.4602C97.535 64.2254 97.7017 63.9394 97.7017 63.6023C97.7017 63.3295 97.5994 63.1004 97.3949 62.9148C97.1941 62.7292 96.8854 62.589 96.4688 62.4943L94.9915 62.1705C94.1771 61.9848 93.5748 61.6894 93.1847 61.2841C92.7983 60.8788 92.6051 60.3655 92.6051 59.7443C92.6051 59.2292 92.7491 58.7784 93.0369 58.392C93.3248 58.0057 93.7225 57.7045 94.2301 57.4886C94.7377 57.2689 95.3191 57.1591 95.9744 57.1591C96.9176 57.1591 97.66 57.3636 98.2017 57.7727C98.7434 58.178 99.1013 58.7216 99.2756 59.4034ZM101.314 66V57.2727H103.013V66H101.314ZM102.172 55.9261C101.876 55.9261 101.623 55.8277 101.411 55.6307C101.202 55.4299 101.098 55.1913 101.098 54.9148C101.098 54.6345 101.202 54.3958 101.411 54.1989C101.623 53.9981 101.876 53.8977 102.172 53.8977C102.467 53.8977 102.719 53.9981 102.928 54.1989C103.14 54.3958 103.246 54.6345 103.246 54.9148C103.246 55.1913 103.14 55.4299 102.928 55.6307C102.719 55.8277 102.467 55.9261 102.172 55.9261ZM108.957 69.4545C108.264 69.4545 107.668 69.3636 107.168 69.1818C106.671 69 106.266 68.7595 105.952 68.4602C105.637 68.161 105.402 67.8333 105.247 67.4773L106.707 66.875C106.81 67.0417 106.946 67.2178 107.116 67.4034C107.291 67.5928 107.526 67.7538 107.821 67.8864C108.12 68.0189 108.505 68.0852 108.974 68.0852C109.618 68.0852 110.151 67.928 110.571 67.6136C110.991 67.303 111.202 66.8068 111.202 66.125V64.4091H111.094C110.991 64.5947 110.844 64.8011 110.651 65.0284C110.461 65.2557 110.2 65.4527 109.866 65.6193C109.533 65.786 109.099 65.8693 108.565 65.8693C107.876 65.8693 107.255 65.7083 106.702 65.3864C106.152 65.0606 105.717 64.5814 105.395 63.9489C105.077 63.3125 104.918 62.5303 104.918 61.6023C104.918 60.6742 105.075 59.8788 105.389 59.2159C105.707 58.553 106.143 58.0455 106.696 57.6932C107.249 57.3371 107.876 57.1591 108.577 57.1591C109.118 57.1591 109.556 57.25 109.889 57.4318C110.223 57.6098 110.482 57.8182 110.668 58.0568C110.857 58.2955 111.003 58.5057 111.105 58.6875H111.23V57.2727H112.895V66.1932C112.895 66.9432 112.721 67.5587 112.372 68.0398C112.024 68.5208 111.552 68.8769 110.957 69.108C110.366 69.339 109.7 69.4545 108.957 69.4545ZM108.94 64.4602C109.429 64.4602 109.842 64.3466 110.179 64.1193C110.52 63.8883 110.777 63.5587 110.952 63.1307C111.13 62.6989 111.219 62.1818 111.219 61.5795C111.219 60.9924 111.132 60.4754 110.957 60.0284C110.783 59.5814 110.527 59.233 110.19 58.983C109.853 58.7292 109.437 58.6023 108.94 58.6023C108.429 58.6023 108.003 58.7348 107.662 59C107.321 59.2614 107.063 59.6174 106.889 60.0682C106.719 60.5189 106.634 61.0227 106.634 61.5795C106.634 62.1515 106.721 62.6534 106.895 63.0852C107.069 63.517 107.327 63.8542 107.668 64.0966C108.012 64.339 108.437 64.4602 108.94 64.4602ZM116.872 60.8182V66H115.173V57.2727H116.804V58.6932H116.912C117.113 58.2311 117.427 57.8598 117.855 57.5795C118.287 57.2992 118.83 57.1591 119.486 57.1591C120.08 57.1591 120.601 57.2841 121.048 57.5341C121.495 57.7803 121.842 58.1477 122.088 58.6364C122.334 59.125 122.457 59.7292 122.457 60.4489V66H120.759V60.6534C120.759 60.0208 120.594 59.5265 120.264 59.1705C119.935 58.8106 119.482 58.6307 118.906 58.6307C118.512 58.6307 118.162 58.7159 117.855 58.8864C117.552 59.0568 117.312 59.3068 117.134 59.6364C116.959 59.9621 116.872 60.3561 116.872 60.8182ZM124.736 66V57.2727H126.435V66H124.736ZM125.594 55.9261C125.298 55.9261 125.045 55.8277 124.832 55.6307C124.624 55.4299 124.52 55.1913 124.52 54.9148C124.52 54.6345 124.624 54.3958 124.832 54.1989C125.045 53.9981 125.298 53.8977 125.594 53.8977C125.889 53.8977 126.141 53.9981 126.349 54.1989C126.562 54.3958 126.668 54.6345 126.668 54.9148C126.668 55.1913 126.562 55.4299 126.349 55.6307C126.141 55.8277 125.889 55.9261 125.594 55.9261ZM130.419 60.8182V66H128.72V57.2727H130.351V58.6932H130.459C130.66 58.2311 130.974 57.8598 131.402 57.5795C131.834 57.2992 132.377 57.1591 133.033 57.1591C133.627 57.1591 134.148 57.2841 134.595 57.5341C135.042 57.7803 135.389 58.1477 135.635 58.6364C135.881 59.125 136.004 59.7292 136.004 60.4489V66H134.305V60.6534C134.305 60.0208 134.141 59.5265 133.811 59.1705C133.482 58.8106 133.029 58.6307 132.453 58.6307C132.059 58.6307 131.709 58.7159 131.402 58.8864C131.099 59.0568 130.858 59.3068 130.68 59.6364C130.506 59.9621 130.419 60.3561 130.419 60.8182ZM141.942 69.4545C141.249 69.4545 140.652 69.3636 140.152 69.1818C139.656 69 139.25 68.7595 138.936 68.4602C138.622 68.161 138.387 67.8333 138.232 67.4773L139.692 66.875C139.794 67.0417 139.93 67.2178 140.101 67.4034C140.275 67.5928 140.51 67.7538 140.805 67.8864C141.105 68.0189 141.489 68.0852 141.959 68.0852C142.603 68.0852 143.135 67.928 143.555 67.6136C143.976 67.303 144.186 66.8068 144.186 66.125V64.4091H144.078C143.976 64.5947 143.828 64.8011 143.635 65.0284C143.446 65.2557 143.184 65.4527 142.851 65.6193C142.518 65.786 142.084 65.8693 141.55 65.8693C140.86 65.8693 140.239 65.7083 139.686 65.3864C139.137 65.0606 138.701 64.5814 138.379 63.9489C138.061 63.3125 137.902 62.5303 137.902 61.6023C137.902 60.6742 138.059 59.8788 138.374 59.2159C138.692 58.553 139.127 58.0455 139.68 57.6932C140.233 57.3371 140.86 57.1591 141.561 57.1591C142.103 57.1591 142.54 57.25 142.874 57.4318C143.207 57.6098 143.466 57.8182 143.652 58.0568C143.841 58.2955 143.987 58.5057 144.089 58.6875H144.214V57.2727H145.879V66.1932C145.879 66.9432 145.705 67.5587 145.357 68.0398C145.008 68.5208 144.536 68.8769 143.942 69.108C143.351 69.339 142.684 69.4545 141.942 69.4545ZM141.925 64.4602C142.413 64.4602 142.826 64.3466 143.163 64.1193C143.504 63.8883 143.762 63.5587 143.936 63.1307C144.114 62.6989 144.203 62.1818 144.203 61.5795C144.203 60.9924 144.116 60.4754 143.942 60.0284C143.768 59.5814 143.512 59.233 143.175 58.983C142.838 58.7292 142.421 58.6023 141.925 58.6023C141.413 58.6023 140.987 58.7348 140.646 59C140.305 59.2614 140.048 59.6174 139.874 60.0682C139.703 60.5189 139.618 61.0227 139.618 61.5795C139.618 62.1515 139.705 62.6534 139.879 63.0852C140.054 63.517 140.311 63.8542 140.652 64.0966C140.997 64.339 141.421 64.4602 141.925 64.4602ZM154.932 66.1932C154.379 66.1932 153.879 66.0909 153.432 65.8864C152.985 65.678 152.631 65.3769 152.369 64.983C152.112 64.589 151.983 64.1061 151.983 63.5341C151.983 63.0417 152.078 62.6364 152.267 62.3182C152.456 62 152.712 61.7481 153.034 61.5625C153.356 61.3769 153.716 61.2367 154.114 61.142C154.511 61.0473 154.917 60.9754 155.33 60.9261C155.852 60.8655 156.277 60.8163 156.602 60.7784C156.928 60.7367 157.165 60.6705 157.312 60.5795C157.46 60.4886 157.534 60.3409 157.534 60.1364V60.0966C157.534 59.6004 157.394 59.2159 157.114 58.9432C156.837 58.6705 156.424 58.5341 155.875 58.5341C155.303 58.5341 154.852 58.661 154.523 58.9148C154.197 59.1648 153.972 59.4432 153.847 59.75L152.25 59.3864C152.439 58.8561 152.716 58.428 153.08 58.1023C153.447 57.7727 153.869 57.5341 154.347 57.3864C154.824 57.2348 155.326 57.1591 155.852 57.1591C156.201 57.1591 156.57 57.2008 156.96 57.2841C157.354 57.3636 157.722 57.5114 158.062 57.7273C158.407 57.9432 158.689 58.2519 158.909 58.6534C159.129 59.0511 159.239 59.5682 159.239 60.2045V66H157.58V64.8068H157.511C157.402 65.0265 157.237 65.2424 157.017 65.4545C156.797 65.6667 156.515 65.8428 156.17 65.983C155.826 66.1231 155.413 66.1932 154.932 66.1932ZM155.301 64.8295C155.771 64.8295 156.172 64.7367 156.506 64.5511C156.843 64.3655 157.098 64.1231 157.273 63.8239C157.451 63.5208 157.54 63.197 157.54 62.8523V61.7273C157.479 61.7879 157.362 61.8447 157.188 61.8977C157.017 61.947 156.822 61.9905 156.602 62.0284C156.383 62.0625 156.169 62.0947 155.96 62.125C155.752 62.1515 155.578 62.1742 155.438 62.1932C155.108 62.2348 154.807 62.3049 154.534 62.4034C154.265 62.5019 154.049 62.6439 153.886 62.8295C153.727 63.0114 153.648 63.2538 153.648 63.5568C153.648 63.9773 153.803 64.2955 154.114 64.5114C154.424 64.7235 154.82 64.8295 155.301 64.8295ZM163.2 60.8182V66H161.501V57.2727H163.132V58.6932H163.24C163.441 58.2311 163.755 57.8598 164.183 57.5795C164.615 57.2992 165.159 57.1591 165.814 57.1591C166.409 57.1591 166.929 57.2841 167.376 57.5341C167.823 57.7803 168.17 58.1477 168.416 58.6364C168.662 59.125 168.786 59.7292 168.786 60.4489V66H167.087V60.6534C167.087 60.0208 166.922 59.5265 166.592 59.1705C166.263 58.8106 165.81 58.6307 165.234 58.6307C164.84 58.6307 164.49 58.7159 164.183 58.8864C163.88 59.0568 163.64 59.3068 163.462 59.6364C163.287 59.9621 163.2 60.3561 163.2 60.8182ZM174.331 66.1705C173.626 66.1705 172.998 65.9905 172.445 65.6307C171.895 65.267 171.464 64.75 171.149 64.0795C170.839 63.4053 170.683 62.5966 170.683 61.6534C170.683 60.7102 170.84 59.9034 171.155 59.233C171.473 58.5625 171.909 58.0492 172.462 57.6932C173.015 57.3371 173.642 57.1591 174.342 57.1591C174.884 57.1591 175.32 57.25 175.649 57.4318C175.982 57.6098 176.24 57.8182 176.422 58.0568C176.607 58.2955 176.751 58.5057 176.854 58.6875H176.956V54.3636H178.655V66H176.996V64.642H176.854C176.751 64.8277 176.604 65.0398 176.411 65.2784C176.221 65.517 175.96 65.7254 175.626 65.9034C175.293 66.0814 174.861 66.1705 174.331 66.1705ZM174.706 64.7216C175.195 64.7216 175.607 64.5928 175.945 64.3352C176.286 64.0739 176.543 63.7121 176.717 63.25C176.895 62.7879 176.984 62.25 176.984 61.6364C176.984 61.0303 176.897 60.5 176.723 60.0455C176.549 59.5909 176.293 59.2367 175.956 58.983C175.619 58.7292 175.202 58.6023 174.706 58.6023C174.195 58.6023 173.768 58.7348 173.428 59C173.087 59.2652 172.829 59.6269 172.655 60.0852C172.484 60.5436 172.399 61.0606 172.399 61.6364C172.399 62.2197 172.486 62.7443 172.661 63.2102C172.835 63.6761 173.092 64.0455 173.433 64.3182C173.778 64.5871 174.202 64.7216 174.706 64.7216ZM185.45 66V54.3636H187.149V58.6875H187.251C187.35 58.5057 187.492 58.2955 187.678 58.0568C187.863 57.8182 188.121 57.6098 188.45 57.4318C188.78 57.25 189.215 57.1591 189.757 57.1591C190.462 57.1591 191.09 57.3371 191.643 57.6932C192.196 58.0492 192.63 58.5625 192.945 59.233C193.263 59.9034 193.422 60.7102 193.422 61.6534C193.422 62.5966 193.265 63.4053 192.95 64.0795C192.636 64.75 192.204 65.267 191.655 65.6307C191.106 65.9905 190.479 66.1705 189.774 66.1705C189.244 66.1705 188.81 66.0814 188.473 65.9034C188.14 65.7254 187.878 65.517 187.689 65.2784C187.5 65.0398 187.354 64.8277 187.251 64.642H187.109V66H185.45ZM187.115 61.6364C187.115 62.25 187.204 62.7879 187.382 63.25C187.56 63.7121 187.818 64.0739 188.155 64.3352C188.492 64.5928 188.905 64.7216 189.393 64.7216C189.901 64.7216 190.325 64.5871 190.666 64.3182C191.007 64.0455 191.265 63.6761 191.439 63.2102C191.617 62.7443 191.706 62.2197 191.706 61.6364C191.706 61.0606 191.619 60.5436 191.445 60.0852C191.274 59.6269 191.017 59.2652 190.672 59C190.331 58.7348 189.905 58.6023 189.393 58.6023C188.901 58.6023 188.484 58.7292 188.143 58.983C187.806 59.2367 187.551 59.5909 187.376 60.0455C187.202 60.5 187.115 61.0303 187.115 61.6364ZM199.091 66.1761C198.231 66.1761 197.491 65.9924 196.869 65.625C196.252 65.2538 195.775 64.733 195.438 64.0625C195.104 63.3883 194.938 62.5985 194.938 61.6932C194.938 60.7992 195.104 60.0114 195.438 59.3295C195.775 58.6477 196.244 58.1155 196.847 57.733C197.453 57.3504 198.161 57.1591 198.972 57.1591C199.464 57.1591 199.941 57.2405 200.403 57.4034C200.866 57.5663 201.28 57.822 201.648 58.1705C202.015 58.5189 202.305 58.9716 202.517 59.5284C202.729 60.0814 202.835 60.7538 202.835 61.5455V62.1477H195.898V60.875H201.17C201.17 60.428 201.08 60.0322 200.898 59.6875C200.716 59.339 200.46 59.0644 200.131 58.8636C199.805 58.6629 199.422 58.5625 198.983 58.5625C198.506 58.5625 198.089 58.6799 197.733 58.9148C197.381 59.1458 197.108 59.4489 196.915 59.8239C196.725 60.1951 196.631 60.5985 196.631 61.0341V62.0284C196.631 62.6117 196.733 63.108 196.938 63.517C197.146 63.9261 197.436 64.2386 197.807 64.4545C198.178 64.6667 198.612 64.7727 199.108 64.7727C199.43 64.7727 199.723 64.7273 199.989 64.6364C200.254 64.5417 200.483 64.4015 200.676 64.2159C200.869 64.0303 201.017 63.8011 201.119 63.5284L202.727 63.8182C202.598 64.2917 202.367 64.7064 202.034 65.0625C201.705 65.4148 201.29 65.6894 200.79 65.8864C200.294 66.0795 199.727 66.1761 199.091 66.1761ZM208.955 66V57.2727H210.585V58.6932H210.693C210.875 58.2121 211.172 57.8371 211.585 57.5682C211.998 57.2955 212.492 57.1591 213.068 57.1591C213.652 57.1591 214.14 57.2955 214.534 57.5682C214.932 57.8409 215.225 58.2159 215.415 58.6932H215.506C215.714 58.2273 216.045 57.8561 216.5 57.5795C216.955 57.2992 217.496 57.1591 218.125 57.1591C218.917 57.1591 219.562 57.4072 220.062 57.9034C220.566 58.3996 220.818 59.1477 220.818 60.1477V66H219.119V60.3068C219.119 59.7159 218.958 59.2879 218.636 59.0227C218.314 58.7576 217.93 58.625 217.483 58.625C216.93 58.625 216.5 58.7955 216.193 59.1364C215.886 59.4735 215.733 59.9072 215.733 60.4375V66H214.04V60.1989C214.04 59.7254 213.892 59.3447 213.597 59.0568C213.301 58.7689 212.917 58.625 212.443 58.625C212.121 58.625 211.824 58.7102 211.551 58.8807C211.282 59.0473 211.064 59.2803 210.898 59.5795C210.735 59.8788 210.653 60.2254 210.653 60.6193V66H208.955ZM223.857 69.2727C223.603 69.2727 223.372 69.2519 223.163 69.2102C222.955 69.1723 222.8 69.1307 222.697 69.0852L223.107 67.6932C223.417 67.7765 223.694 67.8125 223.936 67.8011C224.179 67.7898 224.393 67.6989 224.578 67.5284C224.768 67.358 224.934 67.0795 225.078 66.6932L225.288 66.1136L222.095 57.2727H223.913L226.124 64.0455H226.214L228.425 57.2727H230.249L226.652 67.1648C226.485 67.6193 226.273 68.0038 226.016 68.3182C225.758 68.6364 225.451 68.875 225.095 69.0341C224.739 69.1932 224.326 69.2727 223.857 69.2727ZM240.233 57.2727V58.6364H235.301V57.2727H240.233ZM236.653 66V56.2614C236.653 55.7159 236.773 55.2633 237.011 54.9034C237.25 54.5398 237.566 54.2689 237.96 54.0909C238.354 53.9091 238.782 53.8182 239.244 53.8182C239.585 53.8182 239.877 53.8466 240.119 53.9034C240.362 53.9564 240.542 54.0057 240.659 54.0511L240.261 55.4261C240.182 55.4034 240.08 55.3769 239.955 55.3466C239.83 55.3125 239.678 55.2955 239.5 55.2955C239.087 55.2955 238.792 55.3977 238.614 55.6023C238.439 55.8068 238.352 56.1023 238.352 56.4886V66H236.653ZM241.986 66V57.2727H243.628V58.6591H243.719C243.878 58.1894 244.158 57.8201 244.56 57.5511C244.965 57.2784 245.423 57.142 245.935 57.142C246.041 57.142 246.166 57.1458 246.31 57.1534C246.457 57.161 246.573 57.1705 246.656 57.1818V58.8068C246.588 58.7879 246.467 58.767 246.293 58.7443C246.118 58.7178 245.944 58.7045 245.77 58.7045C245.368 58.7045 245.01 58.7898 244.696 58.9602C244.385 59.1269 244.139 59.3598 243.957 59.6591C243.776 59.9545 243.685 60.2917 243.685 60.6705V66H241.986ZM248.126 66V57.2727H249.825V66H248.126ZM248.984 55.9261C248.689 55.9261 248.435 55.8277 248.223 55.6307C248.015 55.4299 247.911 55.1913 247.911 54.9148C247.911 54.6345 248.015 54.3958 248.223 54.1989C248.435 53.9981 248.689 53.8977 248.984 53.8977C249.28 53.8977 249.532 53.9981 249.74 54.1989C249.952 54.3958 250.058 54.6345 250.058 54.9148C250.058 55.1913 249.952 55.4299 249.74 55.6307C249.532 55.8277 249.28 55.9261 248.984 55.9261ZM255.872 66.1761C255.012 66.1761 254.272 65.9924 253.651 65.625C253.033 65.2538 252.556 64.733 252.219 64.0625C251.885 63.3883 251.719 62.5985 251.719 61.6932C251.719 60.7992 251.885 60.0114 252.219 59.3295C252.556 58.6477 253.026 58.1155 253.628 57.733C254.234 57.3504 254.942 57.1591 255.753 57.1591C256.245 57.1591 256.723 57.2405 257.185 57.4034C257.647 57.5663 258.062 57.822 258.429 58.1705C258.796 58.5189 259.086 58.9716 259.298 59.5284C259.51 60.0814 259.616 60.7538 259.616 61.5455V62.1477H252.679V60.875H257.952C257.952 60.428 257.861 60.0322 257.679 59.6875C257.497 59.339 257.241 59.0644 256.912 58.8636C256.586 58.6629 256.204 58.5625 255.764 58.5625C255.287 58.5625 254.87 58.6799 254.514 58.9148C254.162 59.1458 253.889 59.4489 253.696 59.8239C253.507 60.1951 253.412 60.5985 253.412 61.0341V62.0284C253.412 62.6117 253.514 63.108 253.719 63.517C253.927 63.9261 254.217 64.2386 254.588 64.4545C254.959 64.6667 255.393 64.7727 255.889 64.7727C256.211 64.7727 256.505 64.7273 256.77 64.6364C257.035 64.5417 257.264 64.4015 257.457 64.2159C257.651 64.0303 257.798 63.8011 257.901 63.5284L259.509 63.8182C259.38 64.2917 259.149 64.7064 258.815 65.0625C258.486 65.4148 258.071 65.6894 257.571 65.8864C257.075 66.0795 256.509 66.1761 255.872 66.1761ZM263.2 60.8182V66H261.501V57.2727H263.132V58.6932H263.24C263.441 58.2311 263.755 57.8598 264.183 57.5795C264.615 57.2992 265.159 57.1591 265.814 57.1591C266.409 57.1591 266.929 57.2841 267.376 57.5341C267.823 57.7803 268.17 58.1477 268.416 58.6364C268.662 59.125 268.786 59.7292 268.786 60.4489V66H267.087V60.6534C267.087 60.0208 266.922 59.5265 266.592 59.1705C266.263 58.8106 265.81 58.6307 265.234 58.6307C264.84 58.6307 264.49 58.7159 264.183 58.8864C263.88 59.0568 263.64 59.3068 263.462 59.6364C263.287 59.9621 263.2 60.3561 263.2 60.8182ZM274.331 66.1705C273.626 66.1705 272.998 65.9905 272.445 65.6307C271.895 65.267 271.464 64.75 271.149 64.0795C270.839 63.4053 270.683 62.5966 270.683 61.6534C270.683 60.7102 270.84 59.9034 271.155 59.233C271.473 58.5625 271.909 58.0492 272.462 57.6932C273.015 57.3371 273.642 57.1591 274.342 57.1591C274.884 57.1591 275.32 57.25 275.649 57.4318C275.982 57.6098 276.24 57.8182 276.422 58.0568C276.607 58.2955 276.751 58.5057 276.854 58.6875H276.956V54.3636H278.655V66H276.996V64.642H276.854C276.751 64.8277 276.604 65.0398 276.411 65.2784C276.221 65.517 275.96 65.7254 275.626 65.9034C275.293 66.0814 274.861 66.1705 274.331 66.1705ZM274.706 64.7216C275.195 64.7216 275.607 64.5928 275.945 64.3352C276.286 64.0739 276.543 63.7121 276.717 63.25C276.895 62.7879 276.984 62.25 276.984 61.6364C276.984 61.0303 276.897 60.5 276.723 60.0455C276.549 59.5909 276.293 59.2367 275.956 58.983C275.619 58.7292 275.202 58.6023 274.706 58.6023C274.195 58.6023 273.768 58.7348 273.428 59C273.087 59.2652 272.829 59.6269 272.655 60.0852C272.484 60.5436 272.399 61.0606 272.399 61.6364C272.399 62.2197 272.486 62.7443 272.661 63.2102C272.835 63.6761 273.092 64.0455 273.433 64.3182C273.778 64.5871 274.202 64.7216 274.706 64.7216Z" fill="white"/>
</g>
<defs>
<filter id="filter0_d_2194_1447" x="2.96826" y="2.1582" width="20.4644" height="22.4766" filterUnits="userSpaceOnUse" color-interpolation-filters="sRGB">
<feFlood flood-opacity="0" result="BackgroundImageFix"/>
<feColorMatrix in="SourceAlpha" type="matrix" values="0 0 0 0 0 0 0 0 0 0 0 0 0 0 0 0 0 0 127 0" result="hardAlpha"/>
<feOffset dy="1"/>
<feGaussianBlur stdDeviation="1"/>
<feComposite in2="hardAlpha" operator="out"/>
<feColorMatrix type="matrix" values="0 0 0 0 0 0 0 0 0 0 0 0 0 0 0 0 0 0 0.25 0"/>
<feBlend mode="normal" in2="BackgroundImageFix" result="effect1_dropShadow_2194_1447"/>
<feBlend mode="normal" in="SourceGraphic" in2="effect1_dropShadow_2194_1447" result="shape"/>
</filter>
<filter id="filter1_d_2194_1447" x="12" y="14" width="302" height="80" filterUnits="userSpaceOnUse" color-interpolation-filters="sRGB">
<feFlood flood-opacity="0" result="BackgroundImageFix"/>
<feColorMatrix in="SourceAlpha" type="matrix" values="0 0 0 0 0 0 0 0 0 0 0 0 0 0 0 0 0 0 127 0" result="hardAlpha"/>
<feOffset dx="4" dy="4"/>
<feGaussianBlur stdDeviation="5"/>
<feComposite in2="hardAlpha" operator="out"/>
<feColorMatrix type="matrix" values="0 0 0 0 0.968627 0 0 0 0 0.819608 0 0 0 0 0.345098 0 0 0 0.16 0"/>
<feBlend mode="normal" in2="BackgroundImageFix" result="effect1_dropShadow_2194_1447"/>
<feBlend mode="normal" in="SourceGraphic" in2="effect1_dropShadow_2194_1447" result="shape"/>
</filter>
</defs>
</svg>
