<svg width="240" height="648" viewBox="0 0 240 648" fill="none" xmlns="http://www.w3.org/2000/svg">
<rect width="240" height="40" fill="white"/>
<path d="M16.8789 24V16H18.0859V22.9609H21.7109V24H16.8789ZM24.7952 24.1328C24.415 24.1328 24.0713 24.0625 23.764 23.9219C23.4567 23.7786 23.2132 23.5716 23.0335 23.3008C22.8564 23.0299 22.7679 22.6979 22.7679 22.3047C22.7679 21.9661 22.833 21.6875 22.9632 21.4687C23.0934 21.25 23.2692 21.0768 23.4905 20.9492C23.7119 20.8216 23.9593 20.7253 24.2327 20.6602C24.5062 20.5951 24.7848 20.5456 25.0687 20.5117C25.428 20.4701 25.7197 20.4362 25.9437 20.4102C26.1676 20.3815 26.3304 20.3359 26.432 20.2734C26.5335 20.2109 26.5843 20.1094 26.5843 19.9687V19.9414C26.5843 19.6003 26.4879 19.3359 26.2952 19.1484C26.1051 18.9609 25.8213 18.8672 25.4437 18.8672C25.0504 18.8672 24.7405 18.9544 24.514 19.1289C24.29 19.3008 24.1351 19.4922 24.0491 19.7031L22.9515 19.4531C23.0817 19.0885 23.2718 18.7943 23.5218 18.5703C23.7744 18.3437 24.0648 18.1797 24.3929 18.0781C24.721 17.974 25.0661 17.9219 25.428 17.9219C25.6676 17.9219 25.9215 17.9505 26.1898 18.0078C26.4606 18.0625 26.7132 18.1641 26.9476 18.3125C27.1846 18.4609 27.3786 18.6732 27.5296 18.9492C27.6807 19.2227 27.7562 19.5781 27.7562 20.0156V24H26.6155V23.1797H26.5687C26.4932 23.3307 26.3799 23.4792 26.2288 23.625C26.0778 23.7708 25.8838 23.8919 25.6468 23.9883C25.4098 24.0846 25.126 24.1328 24.7952 24.1328ZM25.0491 23.1953C25.3721 23.1953 25.6481 23.1315 25.8773 23.0039C26.109 22.8763 26.2848 22.7096 26.4046 22.5039C26.527 22.2956 26.5882 22.0729 26.5882 21.8359V21.0625C26.5465 21.1042 26.4658 21.1432 26.346 21.1797C26.2288 21.2135 26.0947 21.2435 25.9437 21.2695C25.7926 21.293 25.6455 21.3151 25.5023 21.3359C25.359 21.3542 25.2392 21.3698 25.1429 21.3828C24.9163 21.4115 24.7093 21.4596 24.5218 21.5273C24.3369 21.5951 24.1885 21.6927 24.0765 21.8203C23.9671 21.9453 23.9124 22.112 23.9124 22.3203C23.9124 22.6094 24.0192 22.8281 24.2327 22.9766C24.4463 23.1224 24.7184 23.1953 25.0491 23.1953ZM29.8903 26.25C29.7158 26.25 29.5569 26.2357 29.4137 26.207C29.2705 26.181 29.1637 26.1523 29.0934 26.1211L29.3746 25.1641C29.5882 25.2214 29.7783 25.2461 29.945 25.2383C30.1116 25.2305 30.2588 25.168 30.3864 25.0508C30.5166 24.9336 30.6312 24.7422 30.7301 24.4766L30.8746 24.0781L28.6793 18H29.9293L31.4489 22.6562H31.5114L33.0309 18H34.2848L31.8121 24.8008C31.6976 25.1133 31.5517 25.3776 31.3746 25.5938C31.1976 25.8125 30.9866 25.9766 30.7418 26.0859C30.497 26.1953 30.2132 26.25 29.8903 26.25ZM37.8193 24.1211C37.2282 24.1211 36.719 23.9948 36.292 23.7422C35.8675 23.487 35.5393 23.1289 35.3076 22.668C35.0784 22.2044 34.9638 21.6615 34.9638 21.0391C34.9638 20.4245 35.0784 19.8828 35.3076 19.4141C35.5393 18.9453 35.8623 18.5794 36.2763 18.3164C36.693 18.0534 37.18 17.9219 37.7373 17.9219C38.0758 17.9219 38.4039 17.9779 38.7216 18.0898C39.0394 18.2018 39.3245 18.3776 39.5771 18.6172C39.8297 18.8568 40.0289 19.168 40.1748 19.5508C40.3206 19.931 40.3935 20.3932 40.3935 20.9375V21.3516H35.624V20.4766H39.249C39.249 20.1693 39.1865 19.8971 39.0615 19.6602C38.9365 19.4206 38.7607 19.2318 38.5341 19.0937C38.3102 18.9557 38.0472 18.8867 37.7451 18.8867C37.417 18.8867 37.1305 18.9674 36.8857 19.1289C36.6435 19.2878 36.456 19.4961 36.3232 19.7539C36.193 20.0091 36.1279 20.2865 36.1279 20.5859V21.2695C36.1279 21.6706 36.1982 22.0117 36.3388 22.293C36.4821 22.5742 36.6813 22.7891 36.9365 22.9375C37.1917 23.0833 37.4899 23.1562 37.831 23.1562C38.0524 23.1562 38.2542 23.125 38.4365 23.0625C38.6188 22.9974 38.7763 22.901 38.9091 22.7734C39.042 22.6458 39.1435 22.4883 39.2138 22.3008L40.3193 22.5C40.2308 22.8255 40.0719 23.1107 39.8427 23.3555C39.6162 23.5977 39.331 23.7865 38.9873 23.9219C38.6461 24.0547 38.2568 24.1211 37.8193 24.1211ZM41.7444 24V18H42.8733V18.9531H42.9358C43.0452 18.6302 43.2379 18.3763 43.5139 18.1914C43.7926 18.0039 44.1077 17.9102 44.4593 17.9102C44.5322 17.9102 44.6181 17.9128 44.7171 17.918C44.8186 17.9232 44.8981 17.9297 44.9554 17.9375V19.0547C44.9085 19.0417 44.8251 19.0273 44.7054 19.0117C44.5856 18.9935 44.4658 18.9844 44.346 18.9844C44.0699 18.9844 43.8238 19.043 43.6077 19.1602C43.3942 19.2747 43.2249 19.4349 43.0999 19.6406C42.9749 19.8437 42.9124 20.0755 42.9124 20.3359V24H41.7444ZM50.5172 19.4648L49.4586 19.6523C49.4143 19.5169 49.344 19.388 49.2477 19.2656C49.1539 19.1432 49.0263 19.043 48.8648 18.9648C48.7034 18.8867 48.5016 18.8477 48.2594 18.8477C47.9286 18.8477 47.6526 18.9219 47.4312 19.0703C47.2099 19.2161 47.0992 19.4049 47.0992 19.6367C47.0992 19.8372 47.1734 19.9987 47.3219 20.1211C47.4703 20.2435 47.7099 20.3437 48.0406 20.4219L48.9937 20.6406C49.5458 20.7682 49.9573 20.9648 50.2281 21.2305C50.499 21.4961 50.6344 21.8411 50.6344 22.2656C50.6344 22.625 50.5302 22.9453 50.3219 23.2266C50.1161 23.5052 49.8284 23.724 49.4586 23.8828C49.0914 24.0417 48.6656 24.1211 48.1812 24.1211C47.5094 24.1211 46.9612 23.9779 46.5367 23.6914C46.1122 23.4023 45.8518 22.9922 45.7555 22.4609L46.8844 22.2891C46.9547 22.5833 47.0992 22.806 47.318 22.957C47.5367 23.1055 47.8219 23.1797 48.1734 23.1797C48.5562 23.1797 48.8622 23.1003 49.0914 22.9414C49.3206 22.7799 49.4352 22.5833 49.4352 22.3516C49.4352 22.1641 49.3648 22.0065 49.2242 21.8789C49.0862 21.7513 48.874 21.6549 48.5875 21.5898L47.5719 21.3672C47.012 21.2396 46.5979 21.0365 46.3297 20.7578C46.0641 20.4792 45.9312 20.1263 45.9312 19.6992C45.9312 19.3451 46.0302 19.0352 46.2281 18.7695C46.426 18.5039 46.6995 18.2969 47.0484 18.1484C47.3974 17.9974 47.7971 17.9219 48.2477 17.9219C48.8961 17.9219 49.4065 18.0625 49.7789 18.3437C50.1513 18.6224 50.3974 18.9961 50.5172 19.4648Z" fill="#333333"/>
<path d="M69.5547 24H68.2734L71.1523 16H72.5469L75.4258 24H74.1445L71.8828 17.4531H71.8203L69.5547 24ZM69.7695 20.8672H73.9258V21.8828H69.7695V20.8672ZM80.9954 19.4648L79.9368 19.6523C79.8926 19.5169 79.8223 19.388 79.7259 19.2656C79.6321 19.1432 79.5045 19.043 79.3431 18.9648C79.1816 18.8867 78.9798 18.8477 78.7376 18.8477C78.4069 18.8477 78.1308 18.9219 77.9095 19.0703C77.6881 19.2161 77.5775 19.4049 77.5775 19.6367C77.5775 19.8372 77.6517 19.9987 77.8001 20.1211C77.9486 20.2435 78.1881 20.3437 78.5189 20.4219L79.472 20.6406C80.0241 20.7682 80.4355 20.9648 80.7064 21.2305C80.9772 21.4961 81.1126 21.8411 81.1126 22.2656C81.1126 22.625 81.0085 22.9453 80.8001 23.2266C80.5944 23.5052 80.3066 23.724 79.9368 23.8828C79.5696 24.0417 79.1439 24.1211 78.6595 24.1211C77.9876 24.1211 77.4394 23.9779 77.015 23.6914C76.5905 23.4023 76.3301 22.9922 76.2337 22.4609L77.3626 22.2891C77.4329 22.5833 77.5775 22.806 77.7962 22.957C78.015 23.1055 78.3001 23.1797 78.6517 23.1797C79.0345 23.1797 79.3405 23.1003 79.5696 22.9414C79.7988 22.7799 79.9134 22.5833 79.9134 22.3516C79.9134 22.1641 79.8431 22.0065 79.7025 21.8789C79.5644 21.7513 79.3522 21.6549 79.0657 21.5898L78.0501 21.3672C77.4902 21.2396 77.0762 21.0365 76.8079 20.7578C76.5423 20.4792 76.4095 20.1263 76.4095 19.6992C76.4095 19.3451 76.5085 19.0352 76.7064 18.7695C76.9043 18.5039 77.1777 18.2969 77.5267 18.1484C77.8756 17.9974 78.2754 17.9219 78.7259 17.9219C79.3743 17.9219 79.8848 18.0625 80.2571 18.3437C80.6295 18.6224 80.8756 18.9961 80.9954 19.4648ZM86.9479 19.4648L85.8893 19.6523C85.845 19.5169 85.7747 19.388 85.6784 19.2656C85.5846 19.1432 85.457 19.043 85.2955 18.9648C85.1341 18.8867 84.9323 18.8477 84.6901 18.8477C84.3593 18.8477 84.0833 18.9219 83.862 19.0703C83.6406 19.2161 83.5299 19.4049 83.5299 19.6367C83.5299 19.8372 83.6041 19.9987 83.7526 20.1211C83.901 20.2435 84.1406 20.3437 84.4713 20.4219L85.4245 20.6406C85.9765 20.7682 86.388 20.9648 86.6588 21.2305C86.9297 21.4961 87.0651 21.8411 87.0651 22.2656C87.0651 22.625 86.9609 22.9453 86.7526 23.2266C86.5468 23.5052 86.2591 23.724 85.8893 23.8828C85.5221 24.0417 85.0963 24.1211 84.612 24.1211C83.9401 24.1211 83.3919 23.9779 82.9674 23.6914C82.5429 23.4023 82.2825 22.9922 82.1862 22.4609L83.3151 22.2891C83.3854 22.5833 83.5299 22.806 83.7487 22.957C83.9674 23.1055 84.2526 23.1797 84.6041 23.1797C84.987 23.1797 85.2929 23.1003 85.5221 22.9414C85.7513 22.7799 85.8659 22.5833 85.8659 22.3516C85.8659 22.1641 85.7955 22.0065 85.6549 21.8789C85.5169 21.7513 85.3047 21.6549 85.0182 21.5898L84.0026 21.3672C83.4427 21.2396 83.0286 21.0365 82.7604 20.7578C82.4948 20.4792 82.362 20.1263 82.362 19.6992C82.362 19.3451 82.4609 19.0352 82.6588 18.7695C82.8567 18.5039 83.1302 18.2969 83.4791 18.1484C83.8281 17.9974 84.2278 17.9219 84.6784 17.9219C85.3268 17.9219 85.8372 18.0625 86.2096 18.3437C86.582 18.6224 86.8281 18.9961 86.9479 19.4648ZM90.9902 24.1211C90.3991 24.1211 89.8899 23.9948 89.4629 23.7422C89.0384 23.487 88.7102 23.1289 88.4785 22.668C88.2493 22.2044 88.1347 21.6615 88.1347 21.0391C88.1347 20.4245 88.2493 19.8828 88.4785 19.4141C88.7102 18.9453 89.0332 18.5794 89.4472 18.3164C89.8639 18.0534 90.3509 17.9219 90.9082 17.9219C91.2467 17.9219 91.5748 17.9779 91.8925 18.0898C92.2102 18.2018 92.4954 18.3776 92.748 18.6172C93.0006 18.8568 93.1998 19.168 93.3457 19.5508C93.4915 19.931 93.5644 20.3932 93.5644 20.9375V21.3516H88.7949V20.4766H92.4199C92.4199 20.1693 92.3574 19.8971 92.2324 19.6602C92.1074 19.4206 91.9316 19.2318 91.705 19.0937C91.4811 18.9557 91.2181 18.8867 90.916 18.8867C90.5879 18.8867 90.3014 18.9674 90.0566 19.1289C89.8144 19.2878 89.6269 19.4961 89.4941 19.7539C89.3639 20.0091 89.2988 20.2865 89.2988 20.5859V21.2695C89.2988 21.6706 89.3691 22.0117 89.5097 22.293C89.653 22.5742 89.8522 22.7891 90.1074 22.9375C90.3626 23.0833 90.6608 23.1562 91.0019 23.1562C91.2233 23.1562 91.4251 23.125 91.6074 23.0625C91.7897 22.9974 91.9472 22.901 92.08 22.7734C92.2129 22.6458 92.3144 22.4883 92.3847 22.3008L93.4902 22.5C93.4017 22.8255 93.2428 23.1107 93.0136 23.3555C92.7871 23.5977 92.5019 23.7865 92.1582 23.9219C91.817 24.0547 91.4277 24.1211 90.9902 24.1211ZM97.7161 18V18.9375H94.4387V18H97.7161ZM95.3177 16.5625H96.4856V22.2383C96.4856 22.4648 96.5195 22.6354 96.5872 22.75C96.6549 22.862 96.7421 22.9388 96.8489 22.9805C96.9583 23.0195 97.0768 23.0391 97.2044 23.0391C97.2981 23.0391 97.3802 23.0326 97.4505 23.0195C97.5208 23.0065 97.5755 22.9961 97.6145 22.9883L97.8255 23.9531C97.7578 23.9792 97.6614 24.0052 97.5364 24.0313C97.4114 24.0599 97.2552 24.0755 97.0677 24.0781C96.7604 24.0833 96.4739 24.0286 96.2083 23.9141C95.9427 23.7995 95.7278 23.6224 95.5637 23.3828C95.3997 23.1432 95.3177 22.8424 95.3177 22.4805V16.5625ZM103.462 19.4648L102.404 19.6523C102.36 19.5169 102.289 19.388 102.193 19.2656C102.099 19.1432 101.972 19.043 101.81 18.9648C101.649 18.8867 101.447 18.8477 101.205 18.8477C100.874 18.8477 100.598 18.9219 100.377 19.0703C100.155 19.2161 100.045 19.4049 100.045 19.6367C100.045 19.8372 100.119 19.9987 100.267 20.1211C100.416 20.2435 100.655 20.3437 100.986 20.4219L101.939 20.6406C102.491 20.7682 102.903 20.9648 103.173 21.2305C103.444 21.4961 103.58 21.8411 103.58 22.2656C103.58 22.625 103.476 22.9453 103.267 23.2266C103.061 23.5052 102.774 23.724 102.404 23.8828C102.037 24.0417 101.611 24.1211 101.127 24.1211C100.455 24.1211 99.9065 23.9779 99.482 23.6914C99.0576 23.4023 98.7971 22.9922 98.7008 22.4609L99.8297 22.2891C99.9 22.5833 100.045 22.806 100.263 22.957C100.482 23.1055 100.767 23.1797 101.119 23.1797C101.502 23.1797 101.808 23.1003 102.037 22.9414C102.266 22.7799 102.38 22.5833 102.38 22.3516C102.38 22.1641 102.31 22.0065 102.17 21.8789C102.032 21.7513 101.819 21.6549 101.533 21.5898L100.517 21.3672C99.9573 21.2396 99.5432 21.0365 99.275 20.7578C99.0094 20.4792 98.8766 20.1263 98.8766 19.6992C98.8766 19.3451 98.9755 19.0352 99.1734 18.7695C99.3714 18.5039 99.6448 18.2969 99.9937 18.1484C100.343 17.9974 100.742 17.9219 101.193 17.9219C101.841 17.9219 102.352 18.0625 102.724 18.3437C103.097 18.6224 103.343 18.9961 103.462 19.4648Z" fill="#B3B3B3" fill-opacity="0.8"/>
<path d="M180.969 24V16H185.766V16.8594H181.938V19.5625H185.406V20.4219H181.938V24H180.969ZM187.355 24V18H188.277V24H187.355ZM187.824 17C187.644 17 187.489 16.9388 187.359 16.8164C187.231 16.694 187.167 16.5469 187.167 16.375C187.167 16.2031 187.231 16.056 187.359 15.9336C187.489 15.8112 187.644 15.75 187.824 15.75C188.003 15.75 188.157 15.8112 188.284 15.9336C188.415 16.056 188.48 16.2031 188.48 16.375C188.48 16.5469 188.415 16.694 188.284 16.8164C188.157 16.9388 188.003 17 187.824 17ZM192.442 26.375C191.997 26.375 191.614 26.3177 191.294 26.2031C190.973 26.0911 190.706 25.9427 190.493 25.7578C190.282 25.5755 190.114 25.3802 189.989 25.1719L190.723 24.6563C190.807 24.7656 190.912 24.8906 191.04 25.0312C191.167 25.1745 191.342 25.2982 191.563 25.4023C191.787 25.5091 192.08 25.5625 192.442 25.5625C192.926 25.5625 193.326 25.4453 193.641 25.2109C193.956 24.9766 194.114 24.6094 194.114 24.1094V22.8906H194.036C193.968 23 193.872 23.1354 193.747 23.2969C193.624 23.4557 193.447 23.5977 193.215 23.7227C192.986 23.8451 192.676 23.9062 192.286 23.9062C191.801 23.9062 191.367 23.7917 190.981 23.5625C190.598 23.3333 190.295 23 190.071 22.5625C189.85 22.125 189.739 21.5937 189.739 20.9687C189.739 20.3542 189.847 19.819 190.063 19.3633C190.279 18.9049 190.58 18.5508 190.965 18.3008C191.351 18.0482 191.796 17.9219 192.301 17.9219C192.692 17.9219 193.002 17.987 193.231 18.1172C193.463 18.2448 193.64 18.3906 193.762 18.5547C193.887 18.7161 193.984 18.849 194.051 18.9531H194.145V18H195.036V24.1719C195.036 24.6875 194.919 25.1068 194.684 25.4297C194.452 25.7552 194.14 25.9935 193.747 26.1445C193.356 26.2982 192.921 26.375 192.442 26.375ZM192.411 23.0781C192.781 23.0781 193.093 22.9935 193.348 22.8242C193.603 22.6549 193.797 22.4115 193.93 22.0938C194.063 21.776 194.13 21.3958 194.13 20.9531C194.13 20.5208 194.064 20.1393 193.934 19.8086C193.804 19.4779 193.611 19.2187 193.356 19.0312C193.101 18.8437 192.786 18.75 192.411 18.75C192.02 18.75 191.695 18.849 191.434 19.0469C191.176 19.2448 190.982 19.5104 190.852 19.8438C190.725 20.1771 190.661 20.5469 190.661 20.9531C190.661 21.3698 190.726 21.7383 190.856 22.0586C190.989 22.3763 191.184 22.6263 191.442 22.8086C191.702 22.9883 192.025 23.0781 192.411 23.0781ZM196.778 24V18H197.669V18.9375H197.747C197.872 18.6172 198.074 18.3685 198.352 18.1914C198.631 18.0117 198.966 17.9219 199.356 17.9219C199.752 17.9219 200.082 18.0117 200.345 18.1914C200.61 18.3685 200.817 18.6172 200.966 18.9375H201.028C201.182 18.6276 201.412 18.3815 201.72 18.1992C202.027 18.0143 202.395 17.9219 202.825 17.9219C203.362 17.9219 203.8 18.0898 204.142 18.4258C204.483 18.7591 204.653 19.2786 204.653 19.9844V24H203.731V19.9844C203.731 19.5417 203.61 19.2253 203.368 19.0352C203.126 18.8451 202.841 18.75 202.513 18.75C202.091 18.75 201.764 18.8776 201.532 19.1328C201.3 19.3854 201.185 19.7057 201.185 20.0937V24H200.247V19.8906C200.247 19.5495 200.136 19.2747 199.915 19.0664C199.694 18.8555 199.408 18.75 199.06 18.75C198.82 18.75 198.596 18.8138 198.388 18.9414C198.182 19.069 198.015 19.2461 197.888 19.4727C197.763 19.6966 197.7 19.9557 197.7 20.25V24H196.778ZM208.159 24.1406C207.779 24.1406 207.434 24.069 207.124 23.9258C206.814 23.7799 206.568 23.5703 206.386 23.2969C206.204 23.0208 206.113 22.6875 206.113 22.2969C206.113 21.9531 206.18 21.6745 206.316 21.4609C206.451 21.2448 206.632 21.0755 206.859 20.9531C207.085 20.8307 207.335 20.7396 207.609 20.6797C207.885 20.6172 208.162 20.5677 208.441 20.5313C208.805 20.4844 209.101 20.4492 209.327 20.4258C209.557 20.3997 209.723 20.3568 209.827 20.2969C209.934 20.237 209.988 20.1328 209.988 19.9844V19.9531C209.988 19.5677 209.882 19.2682 209.671 19.0547C209.463 18.8411 209.146 18.7344 208.722 18.7344C208.282 18.7344 207.937 18.8307 207.687 19.0234C207.437 19.2161 207.261 19.4219 207.159 19.6406L206.284 19.3281C206.441 18.9635 206.649 18.6797 206.909 18.4766C207.172 18.2708 207.459 18.1276 207.769 18.0469C208.081 17.9635 208.389 17.9219 208.691 17.9219C208.883 17.9219 209.105 17.9453 209.355 17.9922C209.607 18.0365 209.851 18.1289 210.085 18.2695C210.322 18.4102 210.519 18.6224 210.675 18.9062C210.831 19.1901 210.909 19.5703 210.909 20.0469V24H209.988V23.1875H209.941C209.878 23.3177 209.774 23.457 209.628 23.6055C209.482 23.7539 209.288 23.8802 209.046 23.9844C208.804 24.0885 208.508 24.1406 208.159 24.1406ZM208.3 23.3125C208.665 23.3125 208.972 23.2409 209.222 23.0977C209.475 22.9544 209.665 22.7695 209.792 22.543C209.922 22.3164 209.988 22.0781 209.988 21.8281V20.9844C209.949 21.0312 209.863 21.0742 209.73 21.1133C209.6 21.1497 209.449 21.1823 209.277 21.2109C209.107 21.237 208.942 21.2604 208.781 21.2812C208.622 21.2995 208.493 21.3151 208.394 21.3281C208.154 21.3594 207.93 21.4102 207.722 21.4805C207.516 21.5482 207.35 21.651 207.222 21.7891C207.097 21.9245 207.034 22.1094 207.034 22.3437C207.034 22.6641 207.153 22.9062 207.39 23.0703C207.63 23.2318 207.933 23.3125 208.3 23.3125Z" fill="#333333"/>
<path d="M216.646 20.647L217.354 21.354L220 18.707L222.646 21.354L223.354 20.647L220 17.293L216.646 20.647Z" fill="#B3B3B3" fill-opacity="0.8"/>
<line y1="39.5" x2="240" y2="39.5" stroke="black" stroke-opacity="0.1"/>
<rect y="40" width="240" height="608" fill="white"/>
</svg>
