<svg width="360" height="48" viewBox="0 0 360 48" fill="none" xmlns="http://www.w3.org/2000/svg">
<path fill-rule="evenodd" clip-rule="evenodd" d="M16 19C16 17.343 17.343 16 19 16H24C25.657 16 27 17.343 27 19C27 20.043 26.467 20.963 25.659 21.5C26.467 22.037 27 22.957 27 24C27 25.657 25.657 27 24 27C23.232 27 22.53 26.711 22 26.236V29C22 30.657 20.657 32 19 32C17.343 32 16 30.657 16 29C16 27.956 16.533 27.038 17.341 26.5C16.533 25.962 16 25.044 16 24C16 22.957 16.533 22.037 17.341 21.5C16.533 20.963 16 20.043 16 19ZM19 21C17.895 21 17 20.105 17 19C17 17.895 17.895 17 19 17H21V21H19ZM21 22H19C17.895 22 17 22.895 17 24C17 25.105 17.895 26 19 26H21V22ZM21 27H19C17.895 27 17 27.895 17 29C17 30.105 17.895 31 19 31C20.105 31 21 30.105 21 29V27ZM24 22C22.895 22 22 22.895 22 24C22 25.105 22.895 26 24 26C25.105 26 26 25.105 26 24C26 22.895 25.105 22 24 22ZM24 21C25.105 21 26 20.105 26 19C26 17.895 25.105 17 24 17H22V21H24Z" fill="white"/>
<path fill-rule="evenodd" clip-rule="evenodd" d="M38.646 25.354L35.646 22.354L36.354 21.646L39 24.293L41.646 21.646L42.354 22.354L39.354 25.354L39 25.707L38.646 25.354Z" fill="white"/>
<path d="M74.872 23.859L63.646 17.072L62.666 16.48L62.897 17.601L65.58 30.601L65.823 31.779L66.487 30.776L69.525 26.186L74.745 24.769L75.872 24.463L74.872 23.859V23.859ZM64.108 18.52L73.355 24.11L69.081 25.27L68.899 25.32L68.795 25.476L66.316 29.222L64.108 18.52Z" fill="white"/>
<path fill-rule="evenodd" clip-rule="evenodd" d="M86.646 25.354L83.646 22.354L84.354 21.646L87 24.293L89.646 21.646L90.354 22.354L87.354 25.354L87 25.707L86.646 25.354Z" fill="white"/>
<g clip-path="url(#clip0_2194_1655)">
<path fill-rule="evenodd" clip-rule="evenodd" d="M112 32V29H109V28H112V20H109V19H112V16H113V19H121V16H122V19H125V20H122V28H125V29H122V32H121V29H113V32H112ZM121 28V20H113V28H121Z" fill="white"/>
</g>
<path fill-rule="evenodd" clip-rule="evenodd" d="M134.646 25.354L131.646 22.354L132.354 21.646L135 24.293L137.646 21.646L138.354 22.354L135.354 25.354L135 25.707L134.646 25.354Z" fill="white"/>
<path d="M172 17V31H158V17H172ZM172 32H173V16H157V32H172Z" fill="white"/>
<path fill-rule="evenodd" clip-rule="evenodd" d="M182.646 25.354L179.646 22.354L180.354 21.646L183 24.293L185.646 21.646L186.354 22.354L183.354 25.354L183 25.707L182.646 25.354Z" fill="white"/>
<path d="M207.444 17.737L214.11 19.637L214.122 19.641L214.133 19.644C216.072 20.146 217.5 21.907 217.5 24C217.503 24.503 217.437 24.912 217.289 25.367L217.104 25.947L217.534 26.377L219.399 28.243L217.279 30.364L215.431 28.517L214.996 28.082L214.411 28.275C213.942 28.432 213.52 28.503 213 28.5C210.829 28.5 209.015 26.961 208.593 24.914L208.585 24.877L208.575 24.84L206.743 18.45L211.646 23.353C211.552 23.55 211.5 23.768 211.5 24C211.5 24.828 212.172 25.5 213 25.5C213.828 25.5 214.5 24.828 214.5 24C214.5 23.172 213.828 22.5 213 22.5C212.768 22.5 212.55 22.552 212.353 22.646L207.443 17.736L207.444 17.737ZM217.278 31.778L220.814 28.243L218.242 25.671C218.409 25.144 218.5 24.582 218.5 24C218.5 21.44 216.752 19.29 214.385 18.676L205 16L207.613 25.116C208.13 27.618 210.345 29.5 213 29.5C213.602 29.5 214.182 29.403 214.724 29.224L217.278 31.778V31.778Z" fill="white"/>
<path fill-rule="evenodd" clip-rule="evenodd" d="M230.646 25.354L227.646 22.354L228.354 21.646L231 24.293L233.646 21.646L234.354 22.354L231.354 25.354L231 25.707L230.646 25.354Z" fill="white"/>
<path d="M254 20H255V17H260V31H257V32H264V31H261V17H266V20H267V16H254V20Z" fill="white"/>
<path fill-rule="evenodd" clip-rule="evenodd" d="M292.026 26.382C291.508 25.895 291.456 25.074 291.908 24.526C292.343 23.999 293.099 23.906 293.648 24.31L294.995 25.306L295.995 26.045V18C295.995 17.448 296.443 17 296.995 17C297.548 17 297.995 17.448 297.995 18V23H298.995V16C298.995 15.448 299.443 15 299.995 15C300.548 15 300.995 15.448 300.995 16V23H301.995V17C301.995 16.448 302.443 16 302.995 16C303.548 16 303.995 16.448 303.995 17V23H304.995V20C304.995 19.448 305.443 19 305.995 19C306.548 19 306.995 19.448 306.995 20V28C306.995 30.762 304.757 33 301.995 33H300.995C299.442 33 298.055 32.292 297.137 31.18C297.101 31.152 297.066 31.12 297.031 31.088L292.026 26.382V26.382ZM296.426 31.889L296.346 31.817L291.341 27.111C290.439 26.263 290.348 24.844 291.137 23.89C291.909 22.954 293.264 22.784 294.242 23.506L294.995 24.063V18C294.995 16.896 295.891 16 296.995 16C297.36 16 297.701 16.097 297.995 16.268V16C297.995 14.895 298.891 14 299.995 14C300.868 14 301.61 14.559 301.883 15.338C302.201 15.124 302.583 15 302.995 15C304.1 15 304.995 15.895 304.995 17V18.268C305.29 18.098 305.631 18 305.995 18C307.1 18 307.995 18.896 307.995 20V28C307.995 31.314 305.309 34 301.995 34H300.995C299.165 34 297.525 33.179 296.425 31.889H296.426Z" fill="white"/>
<path d="M331.944 30.75L333.64 27.992L333.927 27.527L333.69 27.034C333.225 26.083 332.993 25.124 333 24C333 20.134 336.134 17 340 17C343.866 17 347 20.134 347 24C347 27.866 343.866 31 340 31C338.86 31.007 337.888 30.768 336.926 30.291L336.658 30.16L336.362 30.197L331.944 30.749V30.75ZM336.487 31.19C337.547 31.708 338.74 32 340 32C344.418 32 348 28.418 348 24C348 19.582 344.418 16 340 16C335.582 16 332 19.582 332 24C332 25.243 332.283 26.419 332.789 27.468L330.672 30.908L330 32L331.272 31.841L336.487 31.189V31.19Z" fill="white"/>
<defs>
<clipPath id="clip0_2194_1655">
<rect width="16" height="16" fill="white" transform="translate(109 16)"/>
</clipPath>
</defs>
</svg>
