<svg width="128" height="48" viewBox="0 0 128 48" fill="none" xmlns="http://www.w3.org/2000/svg">
<g clip-path="url(#clip0_2194_1664)">
<path fill-rule="evenodd" clip-rule="evenodd" d="M15.6256 18.3756L16.4111 19.1611L19.2144 21.9644L20 22.75L20.7856 21.9644L23.5889 19.1611L24.3744 18.3756L23.5889 17.5889L20.7856 14.7856L20 14L19.2144 14.7856L16.4111 17.5889L15.6256 18.3756V18.3756ZM22.8033 18.3756L20 21.1778L17.1967 18.3744L20 15.5711L22.8033 18.3756V18.3756ZM15.6256 29.6244L16.4111 30.4111L19.2144 33.2144L20 34L20.7856 33.2144L23.5889 30.4111L24.3744 29.6256L23.5889 28.8389L20.7856 26.0356L20 25.25L19.2144 26.0356L16.4111 28.8389L15.6256 29.6244ZM22.8033 29.6244L20 32.43L17.1967 29.6267L20 26.82L22.8033 29.6244ZM10.7856 24.7856L10 24L10.7856 23.2144L13.5889 20.4111L14.3756 19.6256L15.1611 20.4111L17.9644 23.2144L18.75 24L17.9644 24.7856L15.1611 27.5889L14.3756 28.3744L13.5889 27.5889L10.7856 24.7856ZM14.3744 26.8033L17.18 24L14.3744 21.1967L11.5711 24L14.3756 26.8033H14.3744ZM21.25 24L22.0356 24.7856L24.8389 27.5889L25.6244 28.3744L26.4111 27.5889L29.2144 24.7856L30 24L29.2144 23.2144L26.4111 20.4111L25.6256 19.6256L24.8389 20.4111L22.0356 23.2144L21.25 24V24ZM28.4278 24L25.6244 26.8033L22.8222 24L25.6267 21.1967L28.4278 24Z" fill="white"/>
</g>
<path d="M56.1111 31.9955C57.2855 32.5666 58.6055 32.8889 60 32.8889C64.9089 32.8889 68.8889 28.9089 68.8889 24C68.8889 19.0911 64.9089 15.1111 60 15.1111C58.6055 15.1111 57.2855 15.4333 56.1111 16.0044C53.1511 17.4478 51.1111 20.4855 51.1111 24C51.1111 27.5144 53.1511 30.5533 56.1111 31.9955V31.9955ZM67.7778 24C67.7778 28.2955 64.2955 31.7778 60 31.7778C59.0511 31.7778 58.1411 31.6078 57.3 31.2966C59.6033 29.6889 61.1111 27.0211 61.1111 24C61.1111 20.9789 59.6033 18.31 57.3 16.7033C58.1411 16.3922 59.0511 16.2222 60 16.2222C64.2955 16.2222 67.7778 19.7044 67.7778 24Z" fill="white"/>
<path d="M109 32V21H104V16H93V27H98V32H109Z" fill="white"/>
<path fill-rule="evenodd" clip-rule="evenodd" d="M118.646 25.354L115.646 22.354L116.354 21.646L119 24.293L121.646 21.646L122.354 22.354L119.354 25.354L119 25.707L118.646 25.354Z" fill="white"/>
<defs>
<clipPath id="clip0_2194_1664">
<rect width="20" height="20" fill="white" transform="translate(10 14)"/>
</clipPath>
</defs>
</svg>
