<svg width="500" height="24" viewBox="0 0 500 24" fill="none" xmlns="http://www.w3.org/2000/svg">
<g clip-path="url(#clip0_2194_1539)">
<path d="M123.445 9.18466H121.229C121.143 8.71117 120.985 8.29451 120.753 7.93466C120.521 7.57481 120.237 7.26941 119.901 7.01847C119.564 6.76752 119.188 6.57812 118.771 6.45028C118.359 6.32244 117.921 6.25852 117.457 6.25852C116.619 6.25852 115.869 6.46922 115.206 6.89062C114.548 7.31203 114.027 7.92992 113.643 8.74432C113.265 9.55871 113.075 10.553 113.075 11.7273C113.075 12.911 113.265 13.91 113.643 14.7244C114.027 15.5388 114.55 16.1544 115.213 16.571C115.876 16.9877 116.622 17.196 117.45 17.196C117.91 17.196 118.345 17.1345 118.757 17.0114C119.174 16.8835 119.55 16.6965 119.886 16.4503C120.223 16.2041 120.507 15.9034 120.739 15.5483C120.975 15.1884 121.139 14.7765 121.229 14.3125L123.445 14.3196C123.326 15.0346 123.097 15.6927 122.756 16.294C122.42 16.8906 121.986 17.4067 121.456 17.8423C120.93 18.2732 120.329 18.607 119.652 18.8438C118.975 19.0805 118.236 19.1989 117.436 19.1989C116.177 19.1989 115.054 18.9006 114.07 18.304C113.085 17.7027 112.308 16.8433 111.74 15.7259C111.177 14.6084 110.895 13.2756 110.895 11.7273C110.895 10.1742 111.179 8.84138 111.747 7.72869C112.315 6.61127 113.092 5.75426 114.077 5.15767C115.062 4.55634 116.181 4.25568 117.436 4.25568C118.208 4.25568 118.928 4.36695 119.595 4.58949C120.268 4.80729 120.871 5.12926 121.406 5.5554C121.941 5.9768 122.384 6.4929 122.734 7.10369C123.085 7.70975 123.321 8.40341 123.445 9.18466ZM128.024 4.45455V19H125.9V4.45455H128.024ZM130.881 19V8.09091H133.004V19H130.881ZM131.953 6.40767C131.584 6.40767 131.267 6.28456 131.001 6.03835C130.741 5.7874 130.611 5.48911 130.611 5.14347C130.611 4.79309 130.741 4.49479 131.001 4.24858C131.267 3.99763 131.584 3.87216 131.953 3.87216C132.322 3.87216 132.637 3.99763 132.898 4.24858C133.163 4.49479 133.295 4.79309 133.295 5.14347C133.295 5.48911 133.163 5.7874 132.898 6.03835C132.637 6.28456 132.322 6.40767 131.953 6.40767ZM140.456 19.2202C139.4 19.2202 138.491 18.9811 137.729 18.5028C136.971 18.0199 136.389 17.3546 135.982 16.5071C135.575 15.6596 135.371 14.6889 135.371 13.5952C135.371 12.4872 135.579 11.5095 135.996 10.6619C136.413 9.80966 137 9.14441 137.757 8.66619C138.515 8.18797 139.408 7.94886 140.435 7.94886C141.264 7.94886 142.002 8.10275 142.651 8.41051C143.3 8.71354 143.823 9.13968 144.221 9.68892C144.623 10.2382 144.862 10.8797 144.938 11.6136H142.871C142.757 11.1023 142.497 10.6619 142.09 10.2926C141.687 9.9233 141.148 9.73864 140.471 9.73864C139.879 9.73864 139.36 9.89489 138.915 10.2074C138.475 10.5152 138.132 10.9555 137.885 11.5284C137.639 12.0966 137.516 12.7689 137.516 13.5455C137.516 14.3409 137.637 15.0275 137.878 15.6051C138.12 16.1828 138.461 16.6302 138.901 16.9474C139.346 17.2647 139.869 17.4233 140.471 17.4233C140.873 17.4233 141.238 17.3499 141.564 17.2031C141.896 17.0516 142.173 16.8362 142.395 16.5568C142.623 16.2775 142.781 15.9413 142.871 15.5483H144.938C144.862 16.2538 144.632 16.8835 144.249 17.4375C143.865 17.9915 143.352 18.4271 142.708 18.7443C142.069 19.0616 141.318 19.2202 140.456 19.2202ZM149.162 15.2997L149.148 12.7074H149.517L153.864 8.09091H156.406L151.449 13.3466H151.115L149.162 15.2997ZM147.209 19V4.45455H149.332V19H147.209ZM154.098 19L150.192 13.8153L151.655 12.331L156.705 19H154.098ZM166.809 19.2415C166.118 19.2415 165.493 19.1136 164.934 18.858C164.376 18.5975 163.933 18.2211 163.606 17.7287C163.284 17.2363 163.123 16.6326 163.123 15.9176C163.123 15.3021 163.242 14.7955 163.478 14.3977C163.715 14 164.035 13.6851 164.437 13.4531C164.84 13.2211 165.289 13.0459 165.787 12.9276C166.284 12.8092 166.79 12.7192 167.306 12.6577C167.96 12.5819 168.49 12.5204 168.897 12.473C169.305 12.4209 169.6 12.3381 169.785 12.2244C169.97 12.1108 170.062 11.9261 170.062 11.6705V11.6207C170.062 11.0005 169.887 10.5199 169.537 10.179C169.191 9.83807 168.675 9.66761 167.988 9.66761C167.273 9.66761 166.71 9.82623 166.298 10.1435C165.891 10.456 165.609 10.804 165.453 11.1875L163.457 10.733C163.694 10.0701 164.039 9.53504 164.494 9.12784C164.953 8.71591 165.481 8.41761 166.078 8.23295C166.674 8.04356 167.302 7.94886 167.96 7.94886C168.395 7.94886 168.857 8.00095 169.345 8.10511C169.837 8.20455 170.297 8.3892 170.723 8.65909C171.154 8.92898 171.506 9.31487 171.781 9.81676C172.056 10.3139 172.193 10.9602 172.193 11.7557V19H170.119V17.5085H170.034C169.896 17.7831 169.69 18.053 169.416 18.3182C169.141 18.5833 168.788 18.8035 168.358 18.9787C167.927 19.1539 167.411 19.2415 166.809 19.2415ZM167.271 17.5369C167.858 17.5369 168.36 17.4209 168.777 17.1889C169.198 16.9569 169.518 16.6539 169.735 16.2798C169.958 15.901 170.069 15.4962 170.069 15.0653V13.6591C169.993 13.7348 169.847 13.8059 169.629 13.8722C169.416 13.9337 169.172 13.9882 168.897 14.0355C168.623 14.0781 168.355 14.1184 168.095 14.1562C167.834 14.1894 167.617 14.2178 167.441 14.2415C167.029 14.2936 166.653 14.3812 166.312 14.5043C165.976 14.6274 165.706 14.8049 165.502 15.0369C165.304 15.2642 165.204 15.5672 165.204 15.946C165.204 16.4716 165.398 16.8693 165.787 17.1392C166.175 17.4044 166.67 17.5369 167.271 17.5369ZM177.145 12.5227V19H175.021V8.09091H177.06V9.86648H177.195C177.446 9.28883 177.839 8.82481 178.374 8.47443C178.913 8.12405 179.593 7.94886 180.412 7.94886C181.155 7.94886 181.806 8.10511 182.365 8.41761C182.924 8.72538 183.357 9.18466 183.665 9.79545C183.973 10.4062 184.126 11.1615 184.126 12.0611V19H182.003V12.3168C182.003 11.526 181.797 10.9081 181.385 10.4631C180.973 10.0133 180.407 9.78835 179.688 9.78835C179.195 9.78835 178.757 9.89489 178.374 10.108C177.995 10.321 177.694 10.6335 177.472 11.0455C177.254 11.4527 177.145 11.9451 177.145 12.5227ZM191.058 19.2131C190.178 19.2131 189.392 18.9882 188.7 18.5384C188.014 18.0838 187.474 17.4375 187.081 16.5994C186.693 15.7566 186.499 14.7457 186.499 13.5668C186.499 12.3878 186.695 11.3793 187.088 10.5412C187.486 9.70312 188.03 9.06155 188.722 8.61648C189.413 8.1714 190.196 7.94886 191.072 7.94886C191.75 7.94886 192.294 8.0625 192.706 8.28977C193.123 8.51231 193.445 8.77273 193.672 9.07102C193.904 9.36932 194.084 9.6321 194.212 9.85938H194.339V4.45455H196.463V19H194.389V17.3026H194.212C194.084 17.5346 193.899 17.7997 193.658 18.098C193.421 18.3963 193.094 18.6567 192.678 18.8793C192.261 19.1018 191.721 19.2131 191.058 19.2131ZM191.527 17.402C192.138 17.402 192.654 17.241 193.075 16.919C193.501 16.5923 193.823 16.1402 194.041 15.5625C194.264 14.9848 194.375 14.3125 194.375 13.5455C194.375 12.7879 194.266 12.125 194.048 11.5568C193.83 10.9886 193.511 10.5459 193.089 10.2287C192.668 9.91146 192.147 9.75284 191.527 9.75284C190.888 9.75284 190.355 9.91856 189.929 10.25C189.503 10.5814 189.181 11.0336 188.963 11.6065C188.75 12.1795 188.643 12.8258 188.643 13.5455C188.643 14.2746 188.752 14.9304 188.97 15.5128C189.188 16.0952 189.51 16.5568 189.936 16.8977C190.367 17.2339 190.897 17.402 191.527 17.402ZM208.871 19.2131C207.99 19.2131 207.204 18.9882 206.513 18.5384C205.826 18.0838 205.286 17.4375 204.893 16.5994C204.505 15.7566 204.311 14.7457 204.311 13.5668C204.311 12.3878 204.508 11.3793 204.901 10.5412C205.298 9.70312 205.843 9.06155 206.534 8.61648C207.225 8.1714 208.009 7.94886 208.885 7.94886C209.562 7.94886 210.107 8.0625 210.518 8.28977C210.935 8.51231 211.257 8.77273 211.484 9.07102C211.716 9.36932 211.896 9.6321 212.024 9.85938H212.152V4.45455H214.276V19H212.202V17.3026H212.024C211.896 17.5346 211.712 17.7997 211.47 18.098C211.233 18.3963 210.907 18.6567 210.49 18.8793C210.073 19.1018 209.534 19.2131 208.871 19.2131ZM209.339 17.402C209.95 17.402 210.466 17.241 210.888 16.919C211.314 16.5923 211.636 16.1402 211.854 15.5625C212.076 14.9848 212.188 14.3125 212.188 13.5455C212.188 12.7879 212.079 12.125 211.861 11.5568C211.643 10.9886 211.323 10.5459 210.902 10.2287C210.481 9.91146 209.96 9.75284 209.339 9.75284C208.7 9.75284 208.168 9.91856 207.741 10.25C207.315 10.5814 206.993 11.0336 206.776 11.6065C206.563 12.1795 206.456 12.8258 206.456 13.5455C206.456 14.2746 206.565 14.9304 206.783 15.5128C207 16.0952 207.322 16.5568 207.749 16.8977C208.179 17.2339 208.71 17.402 209.339 17.402ZM217.306 19V8.09091H219.359V9.82386H219.473C219.672 9.23674 220.022 8.77509 220.524 8.43892C221.03 8.09801 221.603 7.92756 222.243 7.92756C222.375 7.92756 222.531 7.93229 222.711 7.94176C222.896 7.95123 223.04 7.96307 223.145 7.97727V10.0085C223.059 9.98485 222.908 9.95881 222.69 9.9304C222.472 9.89725 222.254 9.88068 222.037 9.88068C221.535 9.88068 221.087 9.98722 220.694 10.2003C220.306 10.4086 219.998 10.6998 219.771 11.0739C219.544 11.4432 219.43 11.8646 219.43 12.3381V19H217.306ZM228.059 19.2415C227.368 19.2415 226.743 19.1136 226.184 18.858C225.626 18.5975 225.183 18.2211 224.856 17.7287C224.534 17.2363 224.373 16.6326 224.373 15.9176C224.373 15.3021 224.492 14.7955 224.728 14.3977C224.965 14 225.285 13.6851 225.687 13.4531C226.09 13.2211 226.539 13.0459 227.037 12.9276C227.534 12.8092 228.04 12.7192 228.556 12.6577C229.21 12.5819 229.74 12.5204 230.147 12.473C230.555 12.4209 230.85 12.3381 231.035 12.2244C231.22 12.1108 231.312 11.9261 231.312 11.6705V11.6207C231.312 11.0005 231.137 10.5199 230.787 10.179C230.441 9.83807 229.925 9.66761 229.238 9.66761C228.523 9.66761 227.96 9.82623 227.548 10.1435C227.141 10.456 226.859 10.804 226.703 11.1875L224.707 10.733C224.944 10.0701 225.289 9.53504 225.744 9.12784C226.203 8.71591 226.731 8.41761 227.328 8.23295C227.924 8.04356 228.552 7.94886 229.21 7.94886C229.645 7.94886 230.107 8.00095 230.595 8.10511C231.087 8.20455 231.547 8.3892 231.973 8.65909C232.404 8.92898 232.756 9.31487 233.031 9.81676C233.306 10.3139 233.443 10.9602 233.443 11.7557V19H231.369V17.5085H231.284C231.146 17.7831 230.94 18.053 230.666 18.3182C230.391 18.5833 230.038 18.8035 229.608 18.9787C229.177 19.1539 228.661 19.2415 228.059 19.2415ZM228.521 17.5369C229.108 17.5369 229.61 17.4209 230.027 17.1889C230.448 16.9569 230.768 16.6539 230.985 16.2798C231.208 15.901 231.319 15.4962 231.319 15.0653V13.6591C231.243 13.7348 231.097 13.8059 230.879 13.8722C230.666 13.9337 230.422 13.9882 230.147 14.0355C229.873 14.0781 229.605 14.1184 229.345 14.1562C229.084 14.1894 228.867 14.2178 228.691 14.2415C228.279 14.2936 227.903 14.3812 227.562 14.5043C227.226 14.6274 226.956 14.8049 226.752 15.0369C226.554 15.2642 226.454 15.5672 226.454 15.946C226.454 16.4716 226.648 16.8693 227.037 17.1392C227.425 17.4044 227.92 17.5369 228.521 17.5369ZM240.845 23.3182C239.979 23.3182 239.233 23.2045 238.608 22.9773C237.988 22.75 237.481 22.4493 237.088 22.0753C236.695 21.7012 236.402 21.2917 236.207 20.8466L238.033 20.0938C238.161 20.3021 238.331 20.5223 238.544 20.7543C238.762 20.991 239.055 21.1922 239.425 21.358C239.799 21.5237 240.279 21.6065 240.866 21.6065C241.671 21.6065 242.337 21.41 242.862 21.017C243.388 20.6288 243.651 20.0085 243.651 19.1562V17.0114H243.516C243.388 17.2434 243.203 17.5014 242.962 17.7855C242.725 18.0696 242.398 18.3158 241.982 18.5241C241.565 18.7325 241.023 18.8366 240.355 18.8366C239.493 18.8366 238.717 18.6354 238.026 18.233C237.339 17.8258 236.795 17.2268 236.392 16.4361C235.994 15.6406 235.795 14.6629 235.795 13.5028C235.795 12.3428 235.992 11.3485 236.385 10.5199C236.783 9.69129 237.327 9.05682 238.018 8.61648C238.71 8.1714 239.493 7.94886 240.369 7.94886C241.046 7.94886 241.593 8.0625 242.01 8.28977C242.427 8.51231 242.751 8.77273 242.983 9.07102C243.22 9.36932 243.402 9.6321 243.53 9.85938H243.686V8.09091H245.767V19.2415C245.767 20.179 245.549 20.9484 245.114 21.5497C244.678 22.151 244.089 22.5961 243.345 22.8849C242.607 23.1738 241.773 23.3182 240.845 23.3182ZM240.824 17.0753C241.435 17.0753 241.951 16.9332 242.372 16.6491C242.798 16.3603 243.12 15.9484 243.338 15.4134C243.561 14.8736 243.672 14.2273 243.672 13.4744C243.672 12.7405 243.563 12.0942 243.345 11.5355C243.127 10.9768 242.808 10.5412 242.386 10.2287C241.965 9.91146 241.444 9.75284 240.824 9.75284C240.185 9.75284 239.652 9.91856 239.226 10.25C238.8 10.5767 238.478 11.0218 238.26 11.5852C238.047 12.1487 237.94 12.7784 237.94 13.4744C237.94 14.1894 238.049 14.8168 238.267 15.3565C238.485 15.8963 238.807 16.3177 239.233 16.6207C239.664 16.9238 240.194 17.0753 240.824 17.0753ZM259 8.09091V9.79545H253.042V8.09091H259ZM254.64 5.47727H256.763V15.7969C256.763 16.2088 256.825 16.5189 256.948 16.7273C257.071 16.9309 257.23 17.0705 257.424 17.1463C257.623 17.2173 257.838 17.2528 258.07 17.2528C258.24 17.2528 258.39 17.241 258.517 17.2173C258.645 17.1937 258.745 17.1747 258.816 17.1605L259.199 18.9148C259.076 18.9621 258.901 19.0095 258.674 19.0568C258.446 19.1089 258.162 19.1373 257.821 19.142C257.263 19.1515 256.742 19.0521 256.259 18.8438C255.776 18.6354 255.385 18.3134 255.087 17.8778C254.789 17.4422 254.64 16.8954 254.64 16.2372V5.47727ZM263.707 12.5227V19H261.584V4.45455H263.679V9.86648H263.814C264.07 9.27936 264.46 8.81297 264.986 8.46733C265.511 8.12169 266.198 7.94886 267.045 7.94886C267.794 7.94886 268.447 8.10275 269.006 8.41051C269.569 8.71828 270.005 9.17756 270.312 9.78835C270.625 10.3944 270.781 11.152 270.781 12.0611V19H268.658V12.3168C268.658 11.5166 268.452 10.8963 268.04 10.456C267.628 10.0109 267.055 9.78835 266.321 9.78835C265.819 9.78835 265.369 9.89489 264.972 10.108C264.579 10.321 264.268 10.6335 264.041 11.0455C263.819 11.4527 263.707 11.9451 263.707 12.5227ZM273.615 19V8.09091H275.739V19H273.615ZM274.688 6.40767C274.318 6.40767 274.001 6.28456 273.736 6.03835C273.475 5.7874 273.345 5.48911 273.345 5.14347C273.345 4.79309 273.475 4.49479 273.736 4.24858C274.001 3.99763 274.318 3.87216 274.688 3.87216C275.057 3.87216 275.372 3.99763 275.632 4.24858C275.897 4.49479 276.03 4.79309 276.03 5.14347C276.03 5.48911 275.897 5.7874 275.632 6.03835C275.372 6.28456 275.057 6.40767 274.688 6.40767ZM280.719 12.5227V19H278.596V8.09091H280.634V9.86648H280.769C281.02 9.28883 281.413 8.82481 281.948 8.47443C282.488 8.12405 283.167 7.94886 283.986 7.94886C284.73 7.94886 285.381 8.10511 285.939 8.41761C286.498 8.72538 286.931 9.18466 287.239 9.79545C287.547 10.4062 287.701 11.1615 287.701 12.0611V19H285.577V12.3168C285.577 11.526 285.371 10.9081 284.959 10.4631C284.547 10.0133 283.981 9.78835 283.262 9.78835C282.769 9.78835 282.331 9.89489 281.948 10.108C281.569 10.321 281.268 10.6335 281.046 11.0455C280.828 11.4527 280.719 11.9451 280.719 12.5227ZM295.123 23.3182C294.256 23.3182 293.51 23.2045 292.885 22.9773C292.265 22.75 291.758 22.4493 291.365 22.0753C290.972 21.7012 290.679 21.2917 290.485 20.8466L292.31 20.0938C292.438 20.3021 292.608 20.5223 292.821 20.7543C293.039 20.991 293.333 21.1922 293.702 21.358C294.076 21.5237 294.557 21.6065 295.144 21.6065C295.949 21.6065 296.614 21.41 297.14 21.017C297.665 20.6288 297.928 20.0085 297.928 19.1562V17.0114H297.793C297.665 17.2434 297.48 17.5014 297.239 17.7855C297.002 18.0696 296.676 18.3158 296.259 18.5241C295.842 18.7325 295.3 18.8366 294.632 18.8366C293.771 18.8366 292.994 18.6354 292.303 18.233C291.616 17.8258 291.072 17.2268 290.669 16.4361C290.272 15.6406 290.073 14.6629 290.073 13.5028C290.073 12.3428 290.269 11.3485 290.662 10.5199C291.06 9.69129 291.605 9.05682 292.296 8.61648C292.987 8.1714 293.771 7.94886 294.647 7.94886C295.324 7.94886 295.871 8.0625 296.287 8.28977C296.704 8.51231 297.028 8.77273 297.26 9.07102C297.497 9.36932 297.679 9.6321 297.807 9.85938H297.963V8.09091H300.044V19.2415C300.044 20.179 299.827 20.9484 299.391 21.5497C298.955 22.151 298.366 22.5961 297.623 22.8849C296.884 23.1738 296.051 23.3182 295.123 23.3182ZM295.101 17.0753C295.712 17.0753 296.228 16.9332 296.65 16.6491C297.076 16.3603 297.398 15.9484 297.615 15.4134C297.838 14.8736 297.949 14.2273 297.949 13.4744C297.949 12.7405 297.84 12.0942 297.623 11.5355C297.405 10.9768 297.085 10.5412 296.664 10.2287C296.242 9.91146 295.721 9.75284 295.101 9.75284C294.462 9.75284 293.929 9.91856 293.503 10.25C293.077 10.5767 292.755 11.0218 292.537 11.5852C292.324 12.1487 292.218 12.7784 292.218 13.4744C292.218 14.1894 292.327 14.8168 292.544 15.3565C292.762 15.8963 293.084 16.3177 293.51 16.6207C293.941 16.9238 294.471 17.0753 295.101 17.0753ZM311.067 10.7543L309.142 11.0952C309.062 10.849 308.934 10.6146 308.759 10.392C308.588 10.1695 308.356 9.98722 308.063 9.84517C307.769 9.70312 307.402 9.6321 306.962 9.6321C306.361 9.6321 305.859 9.76705 305.456 10.0369C305.054 10.3021 304.853 10.6454 304.853 11.0668C304.853 11.4313 304.988 11.7249 305.257 11.9474C305.527 12.17 305.963 12.3523 306.564 12.4943L308.297 12.892C309.301 13.1241 310.049 13.4815 310.542 13.9645C311.034 14.4474 311.28 15.0748 311.28 15.8466C311.28 16.5 311.091 17.0824 310.712 17.5938C310.338 18.1004 309.815 18.4981 309.142 18.7869C308.475 19.0758 307.701 19.2202 306.82 19.2202C305.598 19.2202 304.602 18.9598 303.83 18.4389C303.058 17.9134 302.585 17.1676 302.409 16.2017L304.462 15.8892C304.59 16.4242 304.853 16.8291 305.25 17.1037C305.648 17.3736 306.167 17.5085 306.806 17.5085C307.502 17.5085 308.058 17.3641 308.475 17.0753C308.891 16.7817 309.1 16.4242 309.1 16.0028C309.1 15.6619 308.972 15.3755 308.716 15.1435C308.465 14.9115 308.079 14.7363 307.559 14.6179L305.712 14.2131C304.694 13.9811 303.941 13.6117 303.453 13.1051C302.971 12.5985 302.729 11.9569 302.729 11.1804C302.729 10.5365 302.909 9.97301 303.269 9.49006C303.629 9.0071 304.126 8.63068 304.76 8.3608C305.395 8.08617 306.122 7.94886 306.941 7.94886C308.12 7.94886 309.048 8.20455 309.725 8.71591C310.402 9.22254 310.849 9.90199 311.067 10.7543ZM322.083 19.2415C321.391 19.2415 320.766 19.1136 320.208 18.858C319.649 18.5975 319.206 18.2211 318.88 17.7287C318.558 17.2363 318.397 16.6326 318.397 15.9176C318.397 15.3021 318.515 14.7955 318.752 14.3977C318.989 14 319.308 13.6851 319.711 13.4531C320.113 13.2211 320.563 13.0459 321.06 12.9276C321.557 12.8092 322.064 12.7192 322.58 12.6577C323.233 12.5819 323.764 12.5204 324.171 12.473C324.578 12.4209 324.874 12.3381 325.059 12.2244C325.243 12.1108 325.336 11.9261 325.336 11.6705V11.6207C325.336 11.0005 325.16 10.5199 324.81 10.179C324.464 9.83807 323.948 9.66761 323.262 9.66761C322.547 9.66761 321.983 9.82623 321.571 10.1435C321.164 10.456 320.882 10.804 320.726 11.1875L318.73 10.733C318.967 10.0701 319.313 9.53504 319.767 9.12784C320.227 8.71591 320.755 8.41761 321.351 8.23295C321.948 8.04356 322.575 7.94886 323.233 7.94886C323.669 7.94886 324.131 8.00095 324.618 8.10511C325.111 8.20455 325.57 8.3892 325.996 8.65909C326.427 8.92898 326.78 9.31487 327.054 9.81676C327.329 10.3139 327.466 10.9602 327.466 11.7557V19H325.392V17.5085H325.307C325.17 17.7831 324.964 18.053 324.689 18.3182C324.415 18.5833 324.062 18.8035 323.631 18.9787C323.2 19.1539 322.684 19.2415 322.083 19.2415ZM322.544 17.5369C323.132 17.5369 323.633 17.4209 324.05 17.1889C324.471 16.9569 324.791 16.6539 325.009 16.2798C325.231 15.901 325.343 15.4962 325.343 15.0653V13.6591C325.267 13.7348 325.12 13.8059 324.902 13.8722C324.689 13.9337 324.445 13.9882 324.171 14.0355C323.896 14.0781 323.629 14.1184 323.368 14.1562C323.108 14.1894 322.89 14.2178 322.715 14.2415C322.303 14.2936 321.926 14.3812 321.586 14.5043C321.249 14.6274 320.98 14.8049 320.776 15.0369C320.577 15.2642 320.478 15.5672 320.478 15.946C320.478 16.4716 320.672 16.8693 321.06 17.1392C321.448 17.4044 321.943 17.5369 322.544 17.5369ZM330.295 19V8.09091H332.347V9.82386H332.461C332.66 9.23674 333.01 8.77509 333.512 8.43892C334.019 8.09801 334.592 7.92756 335.231 7.92756C335.363 7.92756 335.52 7.93229 335.7 7.94176C335.884 7.95123 336.029 7.96307 336.133 7.97727V10.0085C336.048 9.98485 335.896 9.95881 335.678 9.9304C335.46 9.89725 335.243 9.88068 335.025 9.88068C334.523 9.88068 334.076 9.98722 333.683 10.2003C333.294 10.4086 332.987 10.6998 332.759 11.0739C332.532 11.4432 332.418 11.8646 332.418 12.3381V19H330.295ZM342.175 19.2202C341.152 19.2202 340.26 18.9858 339.498 18.517C338.735 18.0483 338.143 17.3925 337.722 16.5497C337.301 15.7069 337.09 14.7221 337.09 13.5952C337.09 12.4635 337.301 11.474 337.722 10.6264C338.143 9.77888 338.735 9.12074 339.498 8.65199C340.26 8.18324 341.152 7.94886 342.175 7.94886C343.198 7.94886 344.09 8.18324 344.853 8.65199C345.615 9.12074 346.207 9.77888 346.628 10.6264C347.05 11.474 347.26 12.4635 347.26 13.5952C347.26 14.7221 347.05 15.7069 346.628 16.5497C346.207 17.3925 345.615 18.0483 344.853 18.517C344.09 18.9858 343.198 19.2202 342.175 19.2202ZM342.182 17.4375C342.845 17.4375 343.394 17.2623 343.83 16.9119C344.266 16.5616 344.587 16.0952 344.796 15.5128C345.009 14.9304 345.115 14.2888 345.115 13.5881C345.115 12.892 345.009 12.2528 344.796 11.6705C344.587 11.0833 344.266 10.6122 343.83 10.2571C343.394 9.90199 342.845 9.72443 342.182 9.72443C341.515 9.72443 340.961 9.90199 340.52 10.2571C340.085 10.6122 339.76 11.0833 339.547 11.6705C339.339 12.2528 339.235 12.892 339.235 13.5881C339.235 14.2888 339.339 14.9304 339.547 15.5128C339.76 16.0952 340.085 16.5616 340.52 16.9119C340.961 17.2623 341.515 17.4375 342.182 17.4375ZM356.541 14.4759V8.09091H358.672V19H356.584V17.1108H356.47C356.219 17.6932 355.817 18.1785 355.263 18.5668C354.714 18.9503 354.029 19.142 353.21 19.142C352.509 19.142 351.889 18.9882 351.349 18.6804C350.814 18.3679 350.393 17.9062 350.085 17.2955C349.782 16.6847 349.631 15.9295 349.631 15.0298V8.09091H351.754V14.7741C351.754 15.5175 351.96 16.1094 352.372 16.5497C352.784 16.9901 353.319 17.2102 353.977 17.2102C354.375 17.2102 354.77 17.1108 355.163 16.9119C355.561 16.7131 355.89 16.4124 356.151 16.0099C356.416 15.6075 356.546 15.0961 356.541 14.4759ZM363.649 12.5227V19H361.525V8.09091H363.564V9.86648H363.699C363.949 9.28883 364.342 8.82481 364.877 8.47443C365.417 8.12405 366.097 7.94886 366.916 7.94886C367.659 7.94886 368.31 8.10511 368.869 8.41761C369.428 8.72538 369.861 9.18466 370.169 9.79545C370.476 10.4062 370.63 11.1615 370.63 12.0611V19H368.507V12.3168C368.507 11.526 368.301 10.9081 367.889 10.4631C367.477 10.0133 366.911 9.78835 366.191 9.78835C365.699 9.78835 365.261 9.89489 364.877 10.108C364.499 10.321 364.198 10.6335 363.975 11.0455C363.758 11.4527 363.649 11.9451 363.649 12.5227ZM377.562 19.2131C376.681 19.2131 375.895 18.9882 375.204 18.5384C374.518 18.0838 373.978 17.4375 373.585 16.5994C373.197 15.7566 373.002 14.7457 373.002 13.5668C373.002 12.3878 373.199 11.3793 373.592 10.5412C373.99 9.70312 374.534 9.06155 375.225 8.61648C375.917 8.1714 376.7 7.94886 377.576 7.94886C378.253 7.94886 378.798 8.0625 379.21 8.28977C379.627 8.51231 379.949 8.77273 380.176 9.07102C380.408 9.36932 380.588 9.6321 380.716 9.85938H380.843V4.45455H382.967V19H380.893V17.3026H380.716C380.588 17.5346 380.403 17.7997 380.162 18.098C379.925 18.3963 379.598 18.6567 379.181 18.8793C378.765 19.1018 378.225 19.2131 377.562 19.2131ZM378.031 17.402C378.642 17.402 379.158 17.241 379.579 16.919C380.005 16.5923 380.327 16.1402 380.545 15.5625C380.768 14.9848 380.879 14.3125 380.879 13.5455C380.879 12.7879 380.77 12.125 380.552 11.5568C380.334 10.9886 380.015 10.5459 379.593 10.2287C379.172 9.91146 378.651 9.75284 378.031 9.75284C377.392 9.75284 376.859 9.91856 376.433 10.25C376.007 10.5814 375.685 11.0336 375.467 11.6065C375.254 12.1795 375.147 12.8258 375.147 13.5455C375.147 14.2746 375.256 14.9304 375.474 15.5128C375.692 16.0952 376.014 16.5568 376.44 16.8977C376.871 17.2339 377.401 17.402 378.031 17.402ZM387.397 19.1349C387.009 19.1349 386.675 18.9976 386.396 18.723C386.116 18.4437 385.977 18.1075 385.977 17.7145C385.977 17.3262 386.116 16.9948 386.396 16.7202C386.675 16.4408 387.009 16.3011 387.397 16.3011C387.785 16.3011 388.119 16.4408 388.398 16.7202C388.678 16.9948 388.817 17.3262 388.817 17.7145C388.817 17.9749 388.751 18.214 388.619 18.4318C388.491 18.6449 388.32 18.8153 388.107 18.9432C387.894 19.071 387.657 19.1349 387.397 19.1349Z" fill="black"/>
</g>
<defs>
<clipPath id="clip0_2194_1539">
<rect width="500" height="24" fill="white"/>
</clipPath>
</defs>
</svg>
