<svg width="500" height="24" viewBox="0 0 500 24" fill="none" xmlns="http://www.w3.org/2000/svg">
<g clip-path="url(#clip0_2194_1537)">
<path d="M44.4043 8.27557C44.3285 7.60322 44.016 7.08239 43.4668 6.71307C42.9176 6.33902 42.2263 6.15199 41.3929 6.15199C40.7963 6.15199 40.2802 6.24669 39.8446 6.43608C39.409 6.62074 39.0705 6.87642 38.829 7.20312C38.5923 7.52509 38.4739 7.89205 38.4739 8.30398C38.4739 8.64962 38.5544 8.94792 38.7154 9.19886C38.8811 9.44981 39.0965 9.66051 39.3617 9.83097C39.6316 9.99669 39.9204 10.1364 40.2282 10.25C40.5359 10.3589 40.8319 10.4489 41.1159 10.5199L42.5364 10.8892C43.0004 11.0028 43.4763 11.1567 43.964 11.3509C44.4516 11.545 44.9038 11.8007 45.3205 12.1179C45.7372 12.4351 46.0733 12.8281 46.329 13.2969C46.5894 13.7656 46.7196 14.3267 46.7196 14.9801C46.7196 15.804 46.5066 16.5355 46.0804 17.1747C45.659 17.8139 45.0459 18.3182 44.2409 18.6875C43.4408 19.0568 42.4725 19.2415 41.3361 19.2415C40.2471 19.2415 39.3049 19.0687 38.5094 18.723C37.714 18.3774 37.0913 17.8873 36.6415 17.2528C36.1917 16.6136 35.9431 15.8561 35.8958 14.9801H38.0975C38.1401 15.5057 38.3105 15.9437 38.6088 16.294C38.9119 16.6397 39.2978 16.8977 39.7665 17.0682C40.24 17.2339 40.7585 17.3168 41.3219 17.3168C41.9422 17.3168 42.4938 17.2197 42.9767 17.0256C43.4644 16.8267 43.848 16.5521 44.1273 16.2017C44.4067 15.8466 44.5463 15.4323 44.5463 14.9588C44.5463 14.5279 44.4232 14.1752 44.177 13.9006C43.9355 13.6259 43.6065 13.3987 43.1898 13.2188C42.7779 13.0388 42.3115 12.8802 41.7907 12.7429L40.0719 12.2741C38.9071 11.9569 37.9838 11.4905 37.302 10.875C36.6249 10.2595 36.2864 9.44508 36.2864 8.43182C36.2864 7.59375 36.5137 6.86222 36.9682 6.23722C37.4228 5.61222 38.0383 5.12689 38.8148 4.78125C39.5913 4.43087 40.4673 4.25568 41.4426 4.25568C42.4275 4.25568 43.2963 4.4285 44.0492 4.77415C44.8068 5.11979 45.4034 5.59564 45.839 6.2017C46.2746 6.80303 46.5018 7.49432 46.5208 8.27557H44.4043ZM51.2953 12.5227V19H49.1717V4.45455H51.2669V9.86648H51.4018C51.6575 9.27936 52.0481 8.81297 52.5737 8.46733C53.0993 8.12169 53.7858 7.94886 54.6333 7.94886C55.3815 7.94886 56.0349 8.10275 56.5936 8.41051C57.157 8.71828 57.5926 9.17756 57.9004 9.78835C58.2129 10.3944 58.3691 11.152 58.3691 12.0611V19H56.2456V12.3168C56.2456 11.5166 56.0396 10.8963 55.6277 10.456C55.2157 10.0109 54.6428 9.78835 53.9089 9.78835C53.407 9.78835 52.9572 9.89489 52.5595 10.108C52.1665 10.321 51.8564 10.6335 51.6291 11.0455C51.4065 11.4527 51.2953 11.9451 51.2953 12.5227ZM65.9047 19.2202C64.8298 19.2202 63.9042 18.9905 63.1277 18.5312C62.3559 18.0672 61.7593 17.4162 61.3379 16.5781C60.9212 15.7353 60.7129 14.7481 60.7129 13.6165C60.7129 12.4991 60.9212 11.5142 61.3379 10.6619C61.7593 9.80966 62.3464 9.14441 63.0993 8.66619C63.8568 8.18797 64.7422 7.94886 65.7555 7.94886C66.371 7.94886 66.9676 8.05066 67.5453 8.25426C68.1229 8.45786 68.6414 8.77746 69.1007 9.21307C69.56 9.64867 69.9222 10.2145 70.1873 10.9105C70.4525 11.6018 70.5851 12.4422 70.5851 13.4318V14.1847H61.9132V12.5938H68.5041C68.5041 12.035 68.3904 11.5402 68.1632 11.1094C67.9359 10.6738 67.6163 10.3305 67.2044 10.0795C66.7972 9.8286 66.319 9.70312 65.7697 9.70312C65.1731 9.70312 64.6523 9.84991 64.2072 10.1435C63.7669 10.4323 63.426 10.8111 63.1845 11.2798C62.9477 11.7438 62.8294 12.2481 62.8294 12.7926V14.0355C62.8294 14.7647 62.9572 15.3849 63.2129 15.8963C63.4733 16.4077 63.8355 16.7983 64.2995 17.0682C64.7636 17.3333 65.3057 17.4659 65.926 17.4659C66.3284 17.4659 66.6954 17.4091 67.0268 17.2955C67.3583 17.1771 67.6447 17.0019 67.8862 16.7699C68.1277 16.5379 68.3123 16.2514 68.4402 15.9105L70.4501 16.2727C70.2891 16.8646 70.0003 17.383 69.5836 17.8281C69.1717 18.2685 68.6532 18.6117 68.0282 18.858C67.408 19.0994 66.7001 19.2202 65.9047 19.2202ZM74.7665 4.45455V5.81818C74.7665 6.22064 74.6908 6.64441 74.5392 7.08949C74.3925 7.52983 74.1841 7.9536 73.9142 8.3608C73.6444 8.76799 73.3271 9.11837 72.9625 9.41193L71.9114 8.65909C72.1908 8.25189 72.4322 7.81866 72.6358 7.35938C72.8442 6.90009 72.9483 6.39347 72.9483 5.83949V4.45455H74.7665ZM83.6159 10.7543L81.6912 11.0952C81.6107 10.849 81.4829 10.6146 81.3077 10.392C81.1373 10.1695 80.9052 9.98722 80.6117 9.84517C80.3181 9.70312 79.9512 9.6321 79.5108 9.6321C78.9095 9.6321 78.4076 9.76705 78.0051 10.0369C77.6027 10.3021 77.4015 10.6454 77.4015 11.0668C77.4015 11.4313 77.5364 11.7249 77.8063 11.9474C78.0762 12.17 78.5118 12.3523 79.1131 12.4943L80.8461 12.892C81.8498 13.1241 82.598 13.4815 83.0904 13.9645C83.5828 14.4474 83.829 15.0748 83.829 15.8466C83.829 16.5 83.6396 17.0824 83.2608 17.5938C82.8868 18.1004 82.3636 18.4981 81.6912 18.7869C81.0236 19.0758 80.2495 19.2202 79.3688 19.2202C78.1472 19.2202 77.1505 18.9598 76.3787 18.4389C75.6069 17.9134 75.1335 17.1676 74.9583 16.2017L77.0108 15.8892C77.1387 16.4242 77.4015 16.8291 77.7992 17.1037C78.1969 17.3736 78.7154 17.5085 79.3546 17.5085C80.0506 17.5085 80.6069 17.3641 81.0236 17.0753C81.4403 16.7817 81.6486 16.4242 81.6486 16.0028C81.6486 15.6619 81.5208 15.3755 81.2651 15.1435C81.0141 14.9115 80.6283 14.7363 80.1074 14.6179L78.2608 14.2131C77.2428 13.9811 76.49 13.6117 76.0023 13.1051C75.5194 12.5985 75.2779 11.9569 75.2779 11.1804C75.2779 10.5365 75.4578 9.97301 75.8176 9.49006C76.1775 9.0071 76.6747 8.63068 77.3091 8.3608C77.9436 8.08617 78.6704 7.94886 79.4895 7.94886C80.6685 7.94886 81.5965 8.20455 82.2736 8.71591C82.9507 9.22254 83.3981 9.90199 83.6159 10.7543ZM94.6316 19.2415C93.9403 19.2415 93.3153 19.1136 92.7566 18.858C92.1979 18.5975 91.7551 18.2211 91.4284 17.7287C91.1065 17.2363 90.9455 16.6326 90.9455 15.9176C90.9455 15.3021 91.0639 14.7955 91.3006 14.3977C91.5373 14 91.8569 13.6851 92.2594 13.4531C92.6619 13.2211 93.1117 13.0459 93.6088 12.9276C94.106 12.8092 94.6126 12.7192 95.1287 12.6577C95.7821 12.5819 96.3124 12.5204 96.7196 12.473C97.1268 12.4209 97.4228 12.3381 97.6074 12.2244C97.7921 12.1108 97.8844 11.9261 97.8844 11.6705V11.6207C97.8844 11.0005 97.7092 10.5199 97.3588 10.179C97.0132 9.83807 96.4971 9.66761 95.8105 9.66761C95.0956 9.66761 94.5321 9.82623 94.1202 10.1435C93.713 10.456 93.4313 10.804 93.275 11.1875L91.2793 10.733C91.516 10.0701 91.8617 9.53504 92.3162 9.12784C92.7755 8.71591 93.3034 8.41761 93.9 8.23295C94.4966 8.04356 95.124 7.94886 95.7821 7.94886C96.2177 7.94886 96.6794 8.00095 97.1671 8.10511C97.6595 8.20455 98.1188 8.3892 98.5449 8.65909C98.9758 8.92898 99.3285 9.31487 99.6032 9.81676C99.8778 10.3139 100.015 10.9602 100.015 11.7557V19H97.9412V17.5085H97.856C97.7187 17.7831 97.5127 18.053 97.2381 18.3182C96.9635 18.5833 96.6107 18.8035 96.1799 18.9787C95.749 19.1539 95.2329 19.2415 94.6316 19.2415ZM95.0932 17.5369C95.6803 17.5369 96.1822 17.4209 96.5989 17.1889C97.0203 16.9569 97.3399 16.6539 97.5577 16.2798C97.7802 15.901 97.8915 15.4962 97.8915 15.0653V13.6591C97.8158 13.7348 97.669 13.8059 97.4512 13.8722C97.2381 13.9337 96.9943 13.9882 96.7196 14.0355C96.445 14.0781 96.1775 14.1184 95.9171 14.1562C95.6567 14.1894 95.4389 14.2178 95.2637 14.2415C94.8517 14.2936 94.4753 14.3812 94.1344 14.5043C93.7982 14.6274 93.5284 14.8049 93.3248 15.0369C93.1259 15.2642 93.0265 15.5672 93.0265 15.946C93.0265 16.4716 93.2206 16.8693 93.6088 17.1392C93.9971 17.4044 94.4919 17.5369 95.0932 17.5369ZM112.22 19.2131C111.34 19.2131 110.554 18.9882 109.862 18.5384C109.176 18.0838 108.636 17.4375 108.243 16.5994C107.855 15.7566 107.661 14.7457 107.661 13.5668C107.661 12.3878 107.857 11.3793 108.25 10.5412C108.648 9.70312 109.192 9.06155 109.884 8.61648C110.575 8.1714 111.359 7.94886 112.235 7.94886C112.912 7.94886 113.456 8.0625 113.868 8.28977C114.285 8.51231 114.607 8.77273 114.834 9.07102C115.066 9.36932 115.246 9.6321 115.374 9.85938H115.502V4.45455H117.625V19H115.551V17.3026H115.374C115.246 17.5346 115.061 17.7997 114.82 18.098C114.583 18.3963 114.256 18.6567 113.84 18.8793C113.423 19.1018 112.883 19.2131 112.22 19.2131ZM112.689 17.402C113.3 17.402 113.816 17.241 114.237 16.919C114.664 16.5923 114.985 16.1402 115.203 15.5625C115.426 14.9848 115.537 14.3125 115.537 13.5455C115.537 12.7879 115.428 12.125 115.21 11.5568C114.993 10.9886 114.673 10.5459 114.252 10.2287C113.83 9.91146 113.309 9.75284 112.689 9.75284C112.05 9.75284 111.517 9.91856 111.091 10.25C110.665 10.5814 110.343 11.0336 110.125 11.6065C109.912 12.1795 109.806 12.8258 109.806 13.5455C109.806 14.2746 109.914 14.9304 110.132 15.5128C110.35 16.0952 110.672 16.5568 111.098 16.8977C111.529 17.2339 112.059 17.402 112.689 17.402ZM125.358 19.2202C124.283 19.2202 123.357 18.9905 122.581 18.5312C121.809 18.0672 121.212 17.4162 120.791 16.5781C120.374 15.7353 120.166 14.7481 120.166 13.6165C120.166 12.4991 120.374 11.5142 120.791 10.6619C121.212 9.80966 121.8 9.14441 122.552 8.66619C123.31 8.18797 124.195 7.94886 125.209 7.94886C125.824 7.94886 126.421 8.05066 126.998 8.25426C127.576 8.45786 128.095 8.77746 128.554 9.21307C129.013 9.64867 129.375 10.2145 129.64 10.9105C129.906 11.6018 130.038 12.4422 130.038 13.4318V14.1847H121.366V12.5938H127.957C127.957 12.035 127.844 11.5402 127.616 11.1094C127.389 10.6738 127.069 10.3305 126.657 10.0795C126.25 9.8286 125.772 9.70312 125.223 9.70312C124.626 9.70312 124.105 9.84991 123.66 10.1435C123.22 10.4323 122.879 10.8111 122.638 11.2798C122.401 11.7438 122.282 12.2481 122.282 12.7926V14.0355C122.282 14.7647 122.41 15.3849 122.666 15.8963C122.926 16.4077 123.289 16.7983 123.753 17.0682C124.217 17.3333 124.759 17.4659 125.379 17.4659C125.782 17.4659 126.148 17.4091 126.48 17.2955C126.811 17.1771 127.098 17.0019 127.339 16.7699C127.581 16.5379 127.765 16.2514 127.893 15.9105L129.903 16.2727C129.742 16.8646 129.453 17.383 129.037 17.8281C128.625 18.2685 128.106 18.6117 127.481 18.858C126.861 19.0994 126.153 19.2202 125.358 19.2202ZM140.569 10.7543L138.644 11.0952C138.564 10.849 138.436 10.6146 138.261 10.392C138.09 10.1695 137.858 9.98722 137.565 9.84517C137.271 9.70312 136.904 9.6321 136.464 9.6321C135.863 9.6321 135.361 9.76705 134.958 10.0369C134.556 10.3021 134.355 10.6454 134.355 11.0668C134.355 11.4313 134.49 11.7249 134.759 11.9474C135.029 12.17 135.465 12.3523 136.066 12.4943L137.799 12.892C138.803 13.1241 139.551 13.4815 140.044 13.9645C140.536 14.4474 140.782 15.0748 140.782 15.8466C140.782 16.5 140.593 17.0824 140.214 17.5938C139.84 18.1004 139.317 18.4981 138.644 18.7869C137.977 19.0758 137.203 19.2202 136.322 19.2202C135.1 19.2202 134.104 18.9598 133.332 18.4389C132.56 17.9134 132.087 17.1676 131.911 16.2017L133.964 15.8892C134.092 16.4242 134.355 16.8291 134.752 17.1037C135.15 17.3736 135.669 17.5085 136.308 17.5085C137.004 17.5085 137.56 17.3641 137.977 17.0753C138.393 16.7817 138.602 16.4242 138.602 16.0028C138.602 15.6619 138.474 15.3755 138.218 15.1435C137.967 14.9115 137.581 14.7363 137.061 14.6179L135.214 14.2131C134.196 13.9811 133.443 13.6117 132.955 13.1051C132.472 12.5985 132.231 11.9569 132.231 11.1804C132.231 10.5365 132.411 9.97301 132.771 9.49006C133.131 9.0071 133.628 8.63068 134.262 8.3608C134.897 8.08617 135.624 7.94886 136.443 7.94886C137.622 7.94886 138.55 8.20455 139.227 8.71591C139.904 9.22254 140.351 9.90199 140.569 10.7543ZM143.117 19V8.09091H145.241V19H143.117ZM144.189 6.40767C143.82 6.40767 143.503 6.28456 143.238 6.03835C142.977 5.7874 142.847 5.48911 142.847 5.14347C142.847 4.79309 142.977 4.49479 143.238 4.24858C143.503 3.99763 143.82 3.87216 144.189 3.87216C144.559 3.87216 144.874 3.99763 145.134 4.24858C145.399 4.49479 145.532 4.79309 145.532 5.14347C145.532 5.48911 145.399 5.7874 145.134 6.03835C144.874 6.28456 144.559 6.40767 144.189 6.40767ZM152.671 23.3182C151.805 23.3182 151.059 23.2045 150.434 22.9773C149.814 22.75 149.307 22.4493 148.914 22.0753C148.521 21.7012 148.228 21.2917 148.034 20.8466L149.859 20.0938C149.987 20.3021 150.157 20.5223 150.37 20.7543C150.588 20.991 150.882 21.1922 151.251 21.358C151.625 21.5237 152.106 21.6065 152.693 21.6065C153.498 21.6065 154.163 21.41 154.688 21.017C155.214 20.6288 155.477 20.0085 155.477 19.1562V17.0114H155.342C155.214 17.2434 155.029 17.5014 154.788 17.7855C154.551 18.0696 154.224 18.3158 153.808 18.5241C153.391 18.7325 152.849 18.8366 152.181 18.8366C151.32 18.8366 150.543 18.6354 149.852 18.233C149.165 17.8258 148.621 17.2268 148.218 16.4361C147.82 15.6406 147.622 14.6629 147.622 13.5028C147.622 12.3428 147.818 11.3485 148.211 10.5199C148.609 9.69129 149.153 9.05682 149.845 8.61648C150.536 8.1714 151.32 7.94886 152.195 7.94886C152.873 7.94886 153.419 8.0625 153.836 8.28977C154.253 8.51231 154.577 8.77273 154.809 9.07102C155.046 9.36932 155.228 9.6321 155.356 9.85938H155.512V8.09091H157.593V19.2415C157.593 20.179 157.375 20.9484 156.94 21.5497C156.504 22.151 155.915 22.5961 155.171 22.8849C154.433 23.1738 153.599 23.3182 152.671 23.3182ZM152.65 17.0753C153.261 17.0753 153.777 16.9332 154.198 16.6491C154.624 16.3603 154.946 15.9484 155.164 15.4134C155.387 14.8736 155.498 14.2273 155.498 13.4744C155.498 12.7405 155.389 12.0942 155.171 11.5355C154.954 10.9768 154.634 10.5412 154.213 10.2287C153.791 9.91146 153.27 9.75284 152.65 9.75284C152.011 9.75284 151.478 9.91856 151.052 10.25C150.626 10.5767 150.304 11.0218 150.086 11.5852C149.873 12.1487 149.767 12.7784 149.767 13.4744C149.767 14.1894 149.875 14.8168 150.093 15.3565C150.311 15.8963 150.633 16.3177 151.059 16.6207C151.49 16.9238 152.02 17.0753 152.65 17.0753ZM162.565 12.5227V19H160.441V8.09091H162.48V9.86648H162.615C162.865 9.28883 163.258 8.82481 163.794 8.47443C164.333 8.12405 165.013 7.94886 165.832 7.94886C166.575 7.94886 167.226 8.10511 167.785 8.41761C168.344 8.72538 168.777 9.18466 169.085 9.79545C169.392 10.4062 169.546 11.1615 169.546 12.0611V19H167.423V12.3168C167.423 11.526 167.217 10.9081 166.805 10.4631C166.393 10.0133 165.827 9.78835 165.107 9.78835C164.615 9.78835 164.177 9.89489 163.794 10.108C163.415 10.321 163.114 10.6335 162.892 11.0455C162.674 11.4527 162.565 11.9451 162.565 12.5227ZM177.096 19.2202C176.021 19.2202 175.096 18.9905 174.319 18.5312C173.547 18.0672 172.951 17.4162 172.529 16.5781C172.113 15.7353 171.904 14.7481 171.904 13.6165C171.904 12.4991 172.113 11.5142 172.529 10.6619C172.951 9.80966 173.538 9.14441 174.291 8.66619C175.048 8.18797 175.934 7.94886 176.947 7.94886C177.562 7.94886 178.159 8.05066 178.737 8.25426C179.314 8.45786 179.833 8.77746 180.292 9.21307C180.751 9.64867 181.114 10.2145 181.379 10.9105C181.644 11.6018 181.776 12.4422 181.776 13.4318V14.1847H173.105V12.5938H179.695C179.695 12.035 179.582 11.5402 179.355 11.1094C179.127 10.6738 178.808 10.3305 178.396 10.0795C177.989 9.8286 177.51 9.70312 176.961 9.70312C176.365 9.70312 175.844 9.84991 175.399 10.1435C174.958 10.4323 174.617 10.8111 174.376 11.2798C174.139 11.7438 174.021 12.2481 174.021 12.7926V14.0355C174.021 14.7647 174.149 15.3849 174.404 15.8963C174.665 16.4077 175.027 16.7983 175.491 17.0682C175.955 17.3333 176.497 17.4659 177.117 17.4659C177.52 17.4659 177.887 17.4091 178.218 17.2955C178.55 17.1771 178.836 17.0019 179.078 16.7699C179.319 16.5379 179.504 16.2514 179.632 15.9105L181.642 16.2727C181.481 16.8646 181.192 17.383 180.775 17.8281C180.363 18.2685 179.845 18.6117 179.22 18.858C178.599 19.0994 177.892 19.2202 177.096 19.2202ZM184.133 19V8.09091H186.185V9.82386H186.299C186.498 9.23674 186.848 8.77509 187.35 8.43892C187.857 8.09801 188.43 7.92756 189.069 7.92756C189.201 7.92756 189.358 7.93229 189.537 7.94176C189.722 7.95123 189.867 7.96307 189.971 7.97727V10.0085C189.885 9.98485 189.734 9.95881 189.516 9.9304C189.298 9.89725 189.081 9.88068 188.863 9.88068C188.361 9.88068 187.913 9.98722 187.52 10.2003C187.132 10.4086 186.824 10.6998 186.597 11.0739C186.37 11.4432 186.256 11.8646 186.256 12.3381V19H184.133ZM202.293 8.09091V9.79545H196.128V8.09091H202.293ZM197.819 19V6.8267C197.819 6.14489 197.968 5.57907 198.266 5.12926C198.564 4.67472 198.96 4.33617 199.452 4.11364C199.945 3.88636 200.48 3.77273 201.057 3.77273C201.483 3.77273 201.848 3.80824 202.151 3.87926C202.454 3.94555 202.679 4.0071 202.826 4.06392L202.329 5.78267C202.229 5.75426 202.101 5.72112 201.945 5.68324C201.789 5.64062 201.599 5.61932 201.377 5.61932C200.861 5.61932 200.492 5.74716 200.269 6.00284C200.051 6.25852 199.942 6.62784 199.942 7.1108V19H197.819ZM204.484 19V8.09091H206.608V19H204.484ZM205.557 6.40767C205.187 6.40767 204.87 6.28456 204.605 6.03835C204.345 5.7874 204.214 5.48911 204.214 5.14347C204.214 4.79309 204.345 4.49479 204.605 4.24858C204.87 3.99763 205.187 3.87216 205.557 3.87216C205.926 3.87216 206.241 3.99763 206.501 4.24858C206.766 4.49479 206.899 4.79309 206.899 5.14347C206.899 5.48911 206.766 5.7874 206.501 6.03835C206.241 6.28456 205.926 6.40767 205.557 6.40767ZM209.465 19V8.09091H211.517V9.82386H211.631C211.83 9.23674 212.18 8.77509 212.682 8.43892C213.189 8.09801 213.762 7.92756 214.401 7.92756C214.533 7.92756 214.69 7.93229 214.869 7.94176C215.054 7.95123 215.199 7.96307 215.303 7.97727V10.0085C215.218 9.98485 215.066 9.95881 214.848 9.9304C214.63 9.89725 214.413 9.88068 214.195 9.88068C213.693 9.88068 213.245 9.98722 212.852 10.2003C212.464 10.4086 212.156 10.6998 211.929 11.0739C211.702 11.4432 211.588 11.8646 211.588 12.3381V19H209.465ZM225.315 10.7543L223.39 11.0952C223.31 10.849 223.182 10.6146 223.007 10.392C222.836 10.1695 222.604 9.98722 222.311 9.84517C222.017 9.70312 221.65 9.6321 221.21 9.6321C220.609 9.6321 220.107 9.76705 219.704 10.0369C219.302 10.3021 219.101 10.6454 219.101 11.0668C219.101 11.4313 219.236 11.7249 219.506 11.9474C219.775 12.17 220.211 12.3523 220.812 12.4943L222.545 12.892C223.549 13.1241 224.297 13.4815 224.79 13.9645C225.282 14.4474 225.528 15.0748 225.528 15.8466C225.528 16.5 225.339 17.0824 224.96 17.5938C224.586 18.1004 224.063 18.4981 223.39 18.7869C222.723 19.0758 221.949 19.2202 221.068 19.2202C219.846 19.2202 218.85 18.9598 218.078 18.4389C217.306 17.9134 216.833 17.1676 216.657 16.2017L218.71 15.8892C218.838 16.4242 219.101 16.8291 219.498 17.1037C219.896 17.3736 220.415 17.5085 221.054 17.5085C221.75 17.5085 222.306 17.3641 222.723 17.0753C223.14 16.7817 223.348 16.4242 223.348 16.0028C223.348 15.6619 223.22 15.3755 222.964 15.1435C222.713 14.9115 222.327 14.7363 221.807 14.6179L219.96 14.2131C218.942 13.9811 218.189 13.6117 217.702 13.1051C217.219 12.5985 216.977 11.9569 216.977 11.1804C216.977 10.5365 217.157 9.97301 217.517 9.49006C217.877 9.0071 218.374 8.63068 219.008 8.3608C219.643 8.08617 220.37 7.94886 221.189 7.94886C222.368 7.94886 223.296 8.20455 223.973 8.71591C224.65 9.22254 225.097 9.90199 225.315 10.7543ZM232.955 8.09091V9.79545H226.997V8.09091H232.955ZM228.595 5.47727H230.718V15.7969C230.718 16.2088 230.78 16.5189 230.903 16.7273C231.026 16.9309 231.185 17.0705 231.379 17.1463C231.578 17.2173 231.793 17.2528 232.025 17.2528C232.195 17.2528 232.345 17.241 232.472 17.2173C232.6 17.1937 232.7 17.1747 232.771 17.1605L233.154 18.9148C233.031 18.9621 232.856 19.0095 232.629 19.0568C232.401 19.1089 232.117 19.1373 231.776 19.142C231.218 19.1515 230.697 19.0521 230.214 18.8438C229.731 18.6354 229.34 18.3134 229.042 17.8778C228.744 17.4422 228.595 16.8954 228.595 16.2372V5.47727ZM238.067 17.0114L237.961 17.7855C237.89 18.3537 237.769 18.9455 237.599 19.5611C237.433 20.1813 237.26 20.7566 237.08 21.2869C236.905 21.8172 236.76 22.2386 236.647 22.5511H235.141C235.203 22.2576 235.288 21.8598 235.397 21.358C235.506 20.8608 235.612 20.3045 235.716 19.6889C235.821 19.0734 235.899 18.446 235.951 17.8068L236.022 17.0114H238.067ZM250.209 19.2131C249.328 19.2131 248.542 18.9882 247.851 18.5384C247.164 18.0838 246.624 17.4375 246.231 16.5994C245.843 15.7566 245.649 14.7457 245.649 13.5668C245.649 12.3878 245.845 11.3793 246.238 10.5412C246.636 9.70312 247.181 9.06155 247.872 8.61648C248.563 8.1714 249.347 7.94886 250.223 7.94886C250.9 7.94886 251.444 8.0625 251.856 8.28977C252.273 8.51231 252.595 8.77273 252.822 9.07102C253.054 9.36932 253.234 9.6321 253.362 9.85938H253.49V4.45455H255.613V19H253.54V17.3026H253.362C253.234 17.5346 253.05 17.7997 252.808 18.098C252.571 18.3963 252.245 18.6567 251.828 18.8793C251.411 19.1018 250.872 19.2131 250.209 19.2131ZM250.677 17.402C251.288 17.402 251.804 17.241 252.226 16.919C252.652 16.5923 252.974 16.1402 253.192 15.5625C253.414 14.9848 253.525 14.3125 253.525 13.5455C253.525 12.7879 253.416 12.125 253.199 11.5568C252.981 10.9886 252.661 10.5459 252.24 10.2287C251.818 9.91146 251.298 9.75284 250.677 9.75284C250.038 9.75284 249.506 9.91856 249.079 10.25C248.653 10.5814 248.331 11.0336 248.113 11.6065C247.9 12.1795 247.794 12.8258 247.794 13.5455C247.794 14.2746 247.903 14.9304 248.121 15.5128C248.338 16.0952 248.66 16.5568 249.086 16.8977C249.517 17.2339 250.048 17.402 250.677 17.402ZM263.346 19.2202C262.271 19.2202 261.346 18.9905 260.569 18.5312C259.797 18.0672 259.201 17.4162 258.779 16.5781C258.363 15.7353 258.154 14.7481 258.154 13.6165C258.154 12.4991 258.363 11.5142 258.779 10.6619C259.201 9.80966 259.788 9.14441 260.541 8.66619C261.298 8.18797 262.184 7.94886 263.197 7.94886C263.812 7.94886 264.409 8.05066 264.987 8.25426C265.564 8.45786 266.083 8.77746 266.542 9.21307C267.001 9.64867 267.364 10.2145 267.629 10.9105C267.894 11.6018 268.026 12.4422 268.026 13.4318V14.1847H259.355V12.5938H265.945C265.945 12.035 265.832 11.5402 265.605 11.1094C265.377 10.6738 265.058 10.3305 264.646 10.0795C264.239 9.8286 263.76 9.70312 263.211 9.70312C262.615 9.70312 262.094 9.84991 261.649 10.1435C261.208 10.4323 260.867 10.8111 260.626 11.2798C260.389 11.7438 260.271 12.2481 260.271 12.7926V14.0355C260.271 14.7647 260.399 15.3849 260.654 15.8963C260.915 16.4077 261.277 16.7983 261.741 17.0682C262.205 17.3333 262.747 17.4659 263.367 17.4659C263.77 17.4659 264.137 17.4091 264.468 17.2955C264.8 17.1771 265.086 17.0019 265.328 16.7699C265.569 16.5379 265.754 16.2514 265.882 15.9105L267.892 16.2727C267.731 16.8646 267.442 17.383 267.025 17.8281C266.613 18.2685 266.095 18.6117 265.47 18.858C264.849 19.0994 264.142 19.2202 263.346 19.2202ZM279.403 8.09091L275.447 19H273.174L269.211 8.09091H271.491L274.253 16.4858H274.367L277.123 8.09091H279.403ZM285.729 19.2202C284.654 19.2202 283.728 18.9905 282.952 18.5312C282.18 18.0672 281.584 17.4162 281.162 16.5781C280.745 15.7353 280.537 14.7481 280.537 13.6165C280.537 12.4991 280.745 11.5142 281.162 10.6619C281.584 9.80966 282.171 9.14441 282.923 8.66619C283.681 8.18797 284.566 7.94886 285.58 7.94886C286.195 7.94886 286.792 8.05066 287.369 8.25426C287.947 8.45786 288.466 8.77746 288.925 9.21307C289.384 9.64867 289.746 10.2145 290.012 10.9105C290.277 11.6018 290.409 12.4422 290.409 13.4318V14.1847H281.737V12.5938H288.328C288.328 12.035 288.215 11.5402 287.987 11.1094C287.76 10.6738 287.441 10.3305 287.029 10.0795C286.621 9.8286 286.143 9.70312 285.594 9.70312C284.997 9.70312 284.477 9.84991 284.031 10.1435C283.591 10.4323 283.25 10.8111 283.009 11.2798C282.772 11.7438 282.654 12.2481 282.654 12.7926V14.0355C282.654 14.7647 282.781 15.3849 283.037 15.8963C283.298 16.4077 283.66 16.7983 284.124 17.0682C284.588 17.3333 285.13 17.4659 285.75 17.4659C286.153 17.4659 286.52 17.4091 286.851 17.2955C287.182 17.1771 287.469 17.0019 287.71 16.7699C287.952 16.5379 288.137 16.2514 288.264 15.9105L290.274 16.2727C290.113 16.8646 289.825 17.383 289.408 17.8281C288.996 18.2685 288.477 18.6117 287.852 18.858C287.232 19.0994 286.524 19.2202 285.729 19.2202ZM294.889 4.45455V19H292.765V4.45455H294.889ZM302.341 19.2202C301.318 19.2202 300.426 18.9858 299.664 18.517C298.901 18.0483 298.309 17.3925 297.888 16.5497C297.467 15.7069 297.256 14.7221 297.256 13.5952C297.256 12.4635 297.467 11.474 297.888 10.6264C298.309 9.77888 298.901 9.12074 299.664 8.65199C300.426 8.18324 301.318 7.94886 302.341 7.94886C303.364 7.94886 304.256 8.18324 305.019 8.65199C305.781 9.12074 306.373 9.77888 306.794 10.6264C307.216 11.474 307.426 12.4635 307.426 13.5952C307.426 14.7221 307.216 15.7069 306.794 16.5497C306.373 17.3925 305.781 18.0483 305.019 18.517C304.256 18.9858 303.364 19.2202 302.341 19.2202ZM302.348 17.4375C303.011 17.4375 303.56 17.2623 303.996 16.9119C304.432 16.5616 304.753 16.0952 304.962 15.5128C305.175 14.9304 305.281 14.2888 305.281 13.5881C305.281 12.892 305.175 12.2528 304.962 11.6705C304.753 11.0833 304.432 10.6122 303.996 10.2571C303.56 9.90199 303.011 9.72443 302.348 9.72443C301.681 9.72443 301.127 9.90199 300.686 10.2571C300.251 10.6122 299.926 11.0833 299.713 11.6705C299.505 12.2528 299.401 12.892 299.401 13.5881C299.401 14.2888 299.505 14.9304 299.713 15.5128C299.926 16.0952 300.251 16.5616 300.686 16.9119C301.127 17.2623 301.681 17.4375 302.348 17.4375ZM309.797 23.0909V8.09091H311.871V9.85938H312.048C312.171 9.6321 312.349 9.36932 312.581 9.07102C312.813 8.77273 313.135 8.51231 313.547 8.28977C313.959 8.0625 314.503 7.94886 315.18 7.94886C316.061 7.94886 316.847 8.1714 317.538 8.61648C318.229 9.06155 318.772 9.70312 319.165 10.5412C319.562 11.3793 319.761 12.3878 319.761 13.5668C319.761 14.7457 319.565 15.7566 319.172 16.5994C318.779 17.4375 318.239 18.0838 317.552 18.5384C316.866 18.9882 316.082 19.2131 315.202 19.2131C314.539 19.2131 313.997 19.1018 313.575 18.8793C313.158 18.6567 312.832 18.3963 312.595 18.098C312.358 17.7997 312.176 17.5346 312.048 17.3026H311.92V23.0909H309.797ZM311.878 13.5455C311.878 14.3125 311.989 14.9848 312.211 15.5625C312.434 16.1402 312.756 16.5923 313.177 16.919C313.599 17.241 314.115 17.402 314.726 17.402C315.36 17.402 315.89 17.2339 316.317 16.8977C316.743 16.5568 317.065 16.0952 317.282 15.5128C317.505 14.9304 317.616 14.2746 317.616 13.5455C317.616 12.8258 317.507 12.1795 317.29 11.6065C317.077 11.0336 316.755 10.5814 316.324 10.25C315.898 9.91856 315.365 9.75284 314.726 9.75284C314.11 9.75284 313.589 9.91146 313.163 10.2287C312.742 10.5459 312.422 10.9886 312.204 11.5568C311.987 12.125 311.878 12.7879 311.878 13.5455ZM326.842 19.2202C325.767 19.2202 324.842 18.9905 324.065 18.5312C323.293 18.0672 322.697 17.4162 322.275 16.5781C321.859 15.7353 321.65 14.7481 321.65 13.6165C321.65 12.4991 321.859 11.5142 322.275 10.6619C322.697 9.80966 323.284 9.14441 324.037 8.66619C324.794 8.18797 325.68 7.94886 326.693 7.94886C327.309 7.94886 327.905 8.05066 328.483 8.25426C329.06 8.45786 329.579 8.77746 330.038 9.21307C330.497 9.64867 330.86 10.2145 331.125 10.9105C331.39 11.6018 331.523 12.4422 331.523 13.4318V14.1847H322.851V12.5938H329.442C329.442 12.035 329.328 11.5402 329.101 11.1094C328.873 10.6738 328.554 10.3305 328.142 10.0795C327.735 9.8286 327.256 9.70312 326.707 9.70312C326.111 9.70312 325.59 9.84991 325.145 10.1435C324.704 10.4323 324.363 10.8111 324.122 11.2798C323.885 11.7438 323.767 12.2481 323.767 12.7926V14.0355C323.767 14.7647 323.895 15.3849 324.15 15.8963C324.411 16.4077 324.773 16.7983 325.237 17.0682C325.701 17.3333 326.243 17.4659 326.863 17.4659C327.266 17.4659 327.633 17.4091 327.964 17.2955C328.296 17.1771 328.582 17.0019 328.824 16.7699C329.065 16.5379 329.25 16.2514 329.378 15.9105L331.388 16.2727C331.227 16.8646 330.938 17.383 330.521 17.8281C330.109 18.2685 329.591 18.6117 328.966 18.858C328.345 19.0994 327.638 19.2202 326.842 19.2202ZM333.879 19V8.09091H335.931V9.82386H336.045C336.244 9.23674 336.594 8.77509 337.096 8.43892C337.603 8.09801 338.176 7.92756 338.815 7.92756C338.947 7.92756 339.104 7.93229 339.284 7.94176C339.468 7.95123 339.613 7.96307 339.717 7.97727V10.0085C339.632 9.98485 339.48 9.95881 339.262 9.9304C339.044 9.89725 338.827 9.88068 338.609 9.88068C338.107 9.88068 337.66 9.98722 337.267 10.2003C336.878 10.4086 336.57 10.6998 336.343 11.0739C336.116 11.4432 336.002 11.8646 336.002 12.3381V19H333.879ZM346.847 19V8.09091H348.886V9.86648H349.021C349.248 9.26515 349.62 8.7964 350.136 8.46023C350.652 8.11932 351.27 7.94886 351.99 7.94886C352.719 7.94886 353.329 8.11932 353.822 8.46023C354.319 8.80114 354.686 9.26989 354.923 9.86648H355.036C355.297 9.28409 355.711 8.82008 356.279 8.47443C356.847 8.12405 357.525 7.94886 358.311 7.94886C359.3 7.94886 360.107 8.259 360.732 8.87926C361.362 9.49953 361.677 10.4347 361.677 11.6847V19H359.553V11.8835C359.553 11.1449 359.352 10.6098 358.95 10.2784C358.547 9.94697 358.067 9.78125 357.508 9.78125C356.817 9.78125 356.279 9.99432 355.896 10.4205C355.512 10.8419 355.32 11.384 355.32 12.0469V19H353.204V11.7486C353.204 11.1567 353.019 10.6809 352.65 10.321C352.281 9.96117 351.8 9.78125 351.208 9.78125C350.806 9.78125 350.434 9.88778 350.093 10.1009C349.757 10.3092 349.485 10.6004 349.276 10.9744C349.073 11.3485 348.971 11.7817 348.971 12.2741V19H346.847ZM367.698 19.2415C367.007 19.2415 366.382 19.1136 365.823 18.858C365.264 18.5975 364.822 18.2211 364.495 17.7287C364.173 17.2363 364.012 16.6326 364.012 15.9176C364.012 15.3021 364.13 14.7955 364.367 14.3977C364.604 14 364.923 13.6851 365.326 13.4531C365.728 13.2211 366.178 13.0459 366.675 12.9276C367.172 12.8092 367.679 12.7192 368.195 12.6577C368.849 12.5819 369.379 12.5204 369.786 12.473C370.193 12.4209 370.489 12.3381 370.674 12.2244C370.858 12.1108 370.951 11.9261 370.951 11.6705V11.6207C370.951 11.0005 370.776 10.5199 370.425 10.179C370.08 9.83807 369.564 9.66761 368.877 9.66761C368.162 9.66761 367.599 9.82623 367.187 10.1435C366.779 10.456 366.498 10.804 366.341 11.1875L364.346 10.733C364.582 10.0701 364.928 9.53504 365.383 9.12784C365.842 8.71591 366.37 8.41761 366.966 8.23295C367.563 8.04356 368.19 7.94886 368.849 7.94886C369.284 7.94886 369.746 8.00095 370.233 8.10511C370.726 8.20455 371.185 8.3892 371.611 8.65909C372.042 8.92898 372.395 9.31487 372.67 9.81676C372.944 10.3139 373.081 10.9602 373.081 11.7557V19H371.008V17.5085H370.922C370.785 17.7831 370.579 18.053 370.305 18.3182C370.03 18.5833 369.677 18.8035 369.246 18.9787C368.815 19.1539 368.299 19.2415 367.698 19.2415ZM368.16 17.5369C368.747 17.5369 369.249 17.4209 369.665 17.1889C370.087 16.9569 370.406 16.6539 370.624 16.2798C370.847 15.901 370.958 15.4962 370.958 15.0653V13.6591C370.882 13.7348 370.735 13.8059 370.518 13.8722C370.305 13.9337 370.061 13.9882 369.786 14.0355C369.511 14.0781 369.244 14.1184 368.983 14.1562C368.723 14.1894 368.505 14.2178 368.33 14.2415C367.918 14.2936 367.542 14.3812 367.201 14.5043C366.865 14.6274 366.595 14.8049 366.391 15.0369C366.192 15.2642 366.093 15.5672 366.093 15.946C366.093 16.4716 366.287 16.8693 366.675 17.1392C367.064 17.4044 367.558 17.5369 368.16 17.5369ZM376.862 23.0909C376.544 23.0909 376.256 23.0649 375.995 23.0128C375.735 22.9654 375.541 22.9134 375.413 22.8565L375.924 21.1165C376.312 21.2206 376.658 21.2656 376.961 21.2514C377.264 21.2372 377.532 21.1236 377.764 20.9105C378 20.6974 378.209 20.3494 378.389 19.8665L378.651 19.142L374.66 8.09091H376.933L379.695 16.5568H379.809L382.572 8.09091H384.852L380.356 20.456C380.148 21.0241 379.883 21.5047 379.561 21.8977C379.239 22.2955 378.855 22.5938 378.41 22.7926C377.965 22.9915 377.449 23.0909 376.862 23.0909ZM387.018 19V4.45455H389.142V9.85938H389.269C389.392 9.6321 389.57 9.36932 389.802 9.07102C390.034 8.77273 390.356 8.51231 390.768 8.28977C391.18 8.0625 391.724 7.94886 392.401 7.94886C393.282 7.94886 394.068 8.1714 394.759 8.61648C395.451 9.06155 395.993 9.70312 396.386 10.5412C396.784 11.3793 396.982 12.3878 396.982 13.5668C396.982 14.7457 396.786 15.7566 396.393 16.5994C396 17.4375 395.46 18.0838 394.774 18.5384C394.087 18.9882 393.303 19.2131 392.423 19.2131C391.76 19.2131 391.218 19.1018 390.796 18.8793C390.38 18.6567 390.053 18.3963 389.816 18.098C389.579 17.7997 389.397 17.5346 389.269 17.3026H389.092V19H387.018ZM389.099 13.5455C389.099 14.3125 389.21 14.9848 389.433 15.5625C389.655 16.1402 389.977 16.5923 390.399 16.919C390.82 17.241 391.336 17.402 391.947 17.402C392.581 17.402 393.112 17.2339 393.538 16.8977C393.964 16.5568 394.286 16.0952 394.504 15.5128C394.726 14.9304 394.838 14.2746 394.838 13.5455C394.838 12.8258 394.729 12.1795 394.511 11.6065C394.298 11.0336 393.976 10.5814 393.545 10.25C393.119 9.91856 392.586 9.75284 391.947 9.75284C391.331 9.75284 390.811 9.91146 390.384 10.2287C389.963 10.5459 389.643 10.9886 389.426 11.5568C389.208 12.125 389.099 12.7879 389.099 13.5455ZM404.069 19.2202C402.994 19.2202 402.068 18.9905 401.292 18.5312C400.52 18.0672 399.923 17.4162 399.502 16.5781C399.085 15.7353 398.877 14.7481 398.877 13.6165C398.877 12.4991 399.085 11.5142 399.502 10.6619C399.923 9.80966 400.51 9.14441 401.263 8.66619C402.021 8.18797 402.906 7.94886 403.92 7.94886C404.535 7.94886 405.132 8.05066 405.709 8.25426C406.287 8.45786 406.805 8.77746 407.265 9.21307C407.724 9.64867 408.086 10.2145 408.351 10.9105C408.617 11.6018 408.749 12.4422 408.749 13.4318V14.1847H400.077V12.5938H406.668C406.668 12.035 406.555 11.5402 406.327 11.1094C406.1 10.6738 405.78 10.3305 405.368 10.0795C404.961 9.8286 404.483 9.70312 403.934 9.70312C403.337 9.70312 402.816 9.84991 402.371 10.1435C401.931 10.4323 401.59 10.8111 401.349 11.2798C401.112 11.7438 400.993 12.2481 400.993 12.7926V14.0355C400.993 14.7647 401.121 15.3849 401.377 15.8963C401.637 16.4077 402 16.7983 402.464 17.0682C402.928 17.3333 403.47 17.4659 404.09 17.4659C404.492 17.4659 404.859 17.4091 405.191 17.2955C405.522 17.1771 405.809 17.0019 406.05 16.7699C406.292 16.5379 406.476 16.2514 406.604 15.9105L408.614 16.2727C408.453 16.8646 408.164 17.383 407.748 17.8281C407.336 18.2685 406.817 18.6117 406.192 18.858C405.572 19.0994 404.864 19.2202 404.069 19.2202ZM421.491 8.09091V9.79545H415.532V8.09091H421.491ZM417.13 5.47727H419.253V15.7969C419.253 16.2088 419.315 16.5189 419.438 16.7273C419.561 16.9309 419.72 17.0705 419.914 17.1463C420.113 17.2173 420.328 17.2528 420.56 17.2528C420.731 17.2528 420.88 17.241 421.008 17.2173C421.135 17.1937 421.235 17.1747 421.306 17.1605L421.689 18.9148C421.566 18.9621 421.391 19.0095 421.164 19.0568C420.937 19.1089 420.653 19.1373 420.312 19.142C419.753 19.1515 419.232 19.0521 418.749 18.8438C418.266 18.6354 417.876 18.3134 417.577 17.8778C417.279 17.4422 417.13 16.8954 417.13 16.2372V5.47727ZM426.198 12.5227V19H424.074V4.45455H426.169V9.86648H426.304C426.56 9.27936 426.95 8.81297 427.476 8.46733C428.002 8.12169 428.688 7.94886 429.536 7.94886C430.284 7.94886 430.937 8.10275 431.496 8.41051C432.059 8.71828 432.495 9.17756 432.803 9.78835C433.115 10.3944 433.271 11.152 433.271 12.0611V19H431.148V12.3168C431.148 11.5166 430.942 10.8963 430.53 10.456C430.118 10.0109 429.545 9.78835 428.811 9.78835C428.309 9.78835 427.86 9.89489 427.462 10.108C427.069 10.321 426.759 10.6335 426.531 11.0455C426.309 11.4527 426.198 11.9451 426.198 12.5227ZM436.105 19V8.09091H438.229V19H436.105ZM437.178 6.40767C436.808 6.40767 436.491 6.28456 436.226 6.03835C435.966 5.7874 435.835 5.48911 435.835 5.14347C435.835 4.79309 435.966 4.49479 436.226 4.24858C436.491 3.99763 436.808 3.87216 437.178 3.87216C437.547 3.87216 437.862 3.99763 438.122 4.24858C438.387 4.49479 438.52 4.79309 438.52 5.14347C438.52 5.48911 438.387 5.7874 438.122 6.03835C437.862 6.28456 437.547 6.40767 437.178 6.40767ZM441.086 19V8.09091H443.138V9.82386H443.252C443.451 9.23674 443.801 8.77509 444.303 8.43892C444.81 8.09801 445.383 7.92756 446.022 7.92756C446.154 7.92756 446.311 7.93229 446.491 7.94176C446.675 7.95123 446.82 7.96307 446.924 7.97727V10.0085C446.839 9.98485 446.687 9.95881 446.469 9.9304C446.251 9.89725 446.034 9.88068 445.816 9.88068C445.314 9.88068 444.867 9.98722 444.474 10.2003C444.085 10.4086 443.778 10.6998 443.55 11.0739C443.323 11.4432 443.209 11.8646 443.209 12.3381V19H441.086ZM452.455 19.2131C451.574 19.2131 450.788 18.9882 450.097 18.5384C449.41 18.0838 448.87 17.4375 448.477 16.5994C448.089 15.7566 447.895 14.7457 447.895 13.5668C447.895 12.3878 448.092 11.3793 448.485 10.5412C448.882 9.70312 449.427 9.06155 450.118 8.61648C450.809 8.1714 451.593 7.94886 452.469 7.94886C453.146 7.94886 453.691 8.0625 454.102 8.28977C454.519 8.51231 454.841 8.77273 455.068 9.07102C455.3 9.36932 455.48 9.6321 455.608 9.85938H455.736V4.45455H457.86V19H455.786V17.3026H455.608C455.48 17.5346 455.296 17.7997 455.054 18.098C454.817 18.3963 454.491 18.6567 454.074 18.8793C453.657 19.1018 453.118 19.2131 452.455 19.2131ZM452.923 17.402C453.534 17.402 454.05 17.241 454.472 16.919C454.898 16.5923 455.22 16.1402 455.438 15.5625C455.66 14.9848 455.771 14.3125 455.771 13.5455C455.771 12.7879 455.663 12.125 455.445 11.5568C455.227 10.9886 454.907 10.5459 454.486 10.2287C454.065 9.91146 453.544 9.75284 452.923 9.75284C452.284 9.75284 451.752 9.91856 451.325 10.25C450.899 10.5814 450.577 11.0336 450.36 11.6065C450.146 12.1795 450.04 12.8258 450.04 13.5455C450.04 14.2746 450.149 14.9304 450.367 15.5128C450.584 16.0952 450.906 16.5568 451.333 16.8977C451.763 17.2339 452.294 17.402 452.923 17.402ZM462.29 19.1349C461.901 19.1349 461.568 18.9976 461.288 18.723C461.009 18.4437 460.869 18.1075 460.869 17.7145C460.869 17.3262 461.009 16.9948 461.288 16.7202C461.568 16.4408 461.901 16.3011 462.29 16.3011C462.678 16.3011 463.012 16.4408 463.291 16.7202C463.57 16.9948 463.71 17.3262 463.71 17.7145C463.71 17.9749 463.644 18.214 463.511 18.4318C463.383 18.6449 463.213 18.8153 463 18.9432C462.787 19.071 462.55 19.1349 462.29 19.1349Z" fill="black"/>
</g>
<defs>
<clipPath id="clip0_2194_1537">
<rect width="500" height="24" fill="white"/>
</clipPath>
</defs>
</svg>
