<svg width="500" height="48" viewBox="0 0 500 48" fill="none" xmlns="http://www.w3.org/2000/svg">
<path d="M131.992 31V20.0909H134.03V21.8665H134.165C134.393 21.2652 134.764 20.7964 135.28 20.4602C135.796 20.1193 136.414 19.9489 137.134 19.9489C137.863 19.9489 138.474 20.1193 138.966 20.4602C139.464 20.8011 139.831 21.2699 140.067 21.8665H140.181C140.441 21.2841 140.856 20.8201 141.424 20.4744C141.992 20.1241 142.669 19.9489 143.455 19.9489C144.445 19.9489 145.252 20.259 145.877 20.8793C146.507 21.4995 146.822 22.4347 146.822 23.6847V31H144.698V23.8835C144.698 23.1449 144.497 22.6098 144.094 22.2784C143.692 21.947 143.211 21.7812 142.653 21.7812C141.961 21.7812 141.424 21.9943 141.04 22.4205C140.657 22.8419 140.465 23.384 140.465 24.0469V31H138.349V23.7486C138.349 23.1567 138.164 22.6809 137.795 22.321C137.425 21.9612 136.945 21.7812 136.353 21.7812C135.95 21.7812 135.579 21.8878 135.238 22.1009C134.902 22.3092 134.629 22.6004 134.421 22.9744C134.217 23.3485 134.116 23.7817 134.116 24.2741V31H131.992ZM152.843 31.2415C152.151 31.2415 151.526 31.1136 150.968 30.858C150.409 30.5975 149.966 30.2211 149.639 29.7287C149.317 29.2363 149.156 28.6326 149.156 27.9176C149.156 27.3021 149.275 26.7955 149.512 26.3977C149.748 26 150.068 25.6851 150.47 25.4531C150.873 25.2211 151.323 25.0459 151.82 24.9276C152.317 24.8092 152.824 24.7192 153.34 24.6577C153.993 24.5819 154.523 24.5204 154.931 24.473C155.338 24.4209 155.634 24.3381 155.818 24.2244C156.003 24.1108 156.095 23.9261 156.095 23.6705V23.6207C156.095 23.0005 155.92 22.5199 155.57 22.179C155.224 21.8381 154.708 21.6676 154.021 21.6676C153.307 21.6676 152.743 21.8262 152.331 22.1435C151.924 22.456 151.642 22.804 151.486 23.1875L149.49 22.733C149.727 22.0701 150.073 21.535 150.527 21.1278C150.986 20.7159 151.514 20.4176 152.111 20.233C152.708 20.0436 153.335 19.9489 153.993 19.9489C154.429 19.9489 154.89 20.0009 155.378 20.1051C155.87 20.2045 156.33 20.3892 156.756 20.6591C157.187 20.929 157.539 21.3149 157.814 21.8168C158.089 22.3139 158.226 22.9602 158.226 23.7557V31H156.152V29.5085H156.067C155.93 29.7831 155.724 30.053 155.449 30.3182C155.174 30.5833 154.822 30.8035 154.391 30.9787C153.96 31.1539 153.444 31.2415 152.843 31.2415ZM153.304 29.5369C153.891 29.5369 154.393 29.4209 154.81 29.1889C155.231 28.9569 155.551 28.6539 155.769 28.2798C155.991 27.901 156.102 27.4962 156.102 27.0653V25.6591C156.027 25.7348 155.88 25.8059 155.662 25.8722C155.449 25.9337 155.205 25.9882 154.931 26.0355C154.656 26.0781 154.388 26.1184 154.128 26.1562C153.868 26.1894 153.65 26.2178 153.475 26.2415C153.063 26.2936 152.686 26.3812 152.345 26.5043C152.009 26.6274 151.739 26.8049 151.536 27.0369C151.337 27.2642 151.237 27.5672 151.237 27.946C151.237 28.4716 151.432 28.8693 151.82 29.1392C152.208 29.4044 152.703 29.5369 153.304 29.5369ZM163.008 27.2997L162.993 24.7074H163.363L167.709 20.0909H170.252L165.295 25.3466H164.961L163.008 27.2997ZM161.055 31V16.4545H163.178V31H161.055ZM167.944 31L164.037 25.8153L165.501 24.331L170.55 31H167.944ZM176.44 31.2202C175.365 31.2202 174.439 30.9905 173.663 30.5312C172.891 30.0672 172.294 29.4162 171.873 28.5781C171.456 27.7353 171.248 26.7481 171.248 25.6165C171.248 24.4991 171.456 23.5142 171.873 22.6619C172.294 21.8097 172.882 21.1444 173.634 20.6662C174.392 20.188 175.277 19.9489 176.291 19.9489C176.906 19.9489 177.503 20.0507 178.08 20.2543C178.658 20.4579 179.177 20.7775 179.636 21.2131C180.095 21.6487 180.457 22.2145 180.722 22.9105C180.988 23.6018 181.12 24.4422 181.12 25.4318V26.1847H172.448V24.5938H179.039C179.039 24.035 178.926 23.5402 178.698 23.1094C178.471 22.6738 178.151 22.3305 177.74 22.0795C177.332 21.8286 176.854 21.7031 176.305 21.7031C175.708 21.7031 175.187 21.8499 174.742 22.1435C174.302 22.4323 173.961 22.8111 173.72 23.2798C173.483 23.7438 173.365 24.2481 173.365 24.7926V26.0355C173.365 26.7647 173.492 27.3849 173.748 27.8963C174.008 28.4077 174.371 28.7983 174.835 29.0682C175.299 29.3333 175.841 29.4659 176.461 29.4659C176.864 29.4659 177.231 29.4091 177.562 29.2955C177.893 29.1771 178.18 29.0019 178.421 28.7699C178.663 28.5379 178.847 28.2514 178.975 27.9105L180.985 28.2727C180.824 28.8646 180.535 29.383 180.119 29.8281C179.707 30.2685 179.188 30.6117 178.563 30.858C177.943 31.0994 177.235 31.2202 176.44 31.2202ZM193.862 20.0909V21.7955H187.903V20.0909H193.862ZM189.501 17.4773H191.624V27.7969C191.624 28.2088 191.686 28.5189 191.809 28.7273C191.932 28.9309 192.091 29.0705 192.285 29.1463C192.484 29.2173 192.699 29.2528 192.931 29.2528C193.102 29.2528 193.251 29.241 193.379 29.2173C193.507 29.1937 193.606 29.1747 193.677 29.1605L194.061 30.9148C193.937 30.9621 193.762 31.0095 193.535 31.0568C193.308 31.1089 193.024 31.1373 192.683 31.142C192.124 31.1515 191.603 31.0521 191.12 30.8438C190.637 30.6354 190.247 30.3134 189.948 29.8778C189.65 29.4422 189.501 28.8954 189.501 28.2372V17.4773ZM198.569 24.5227V31H196.445V16.4545H198.54V21.8665H198.675C198.931 21.2794 199.322 20.813 199.847 20.4673C200.373 20.1217 201.059 19.9489 201.907 19.9489C202.655 19.9489 203.308 20.1027 203.867 20.4105C204.43 20.7183 204.866 21.1776 205.174 21.7884C205.486 22.3944 205.643 23.152 205.643 24.0611V31H203.519V24.3168C203.519 23.5166 203.313 22.8963 202.901 22.456C202.489 22.0109 201.916 21.7884 201.182 21.7884C200.68 21.7884 200.231 21.8949 199.833 22.108C199.44 22.321 199.13 22.6335 198.903 23.0455C198.68 23.4527 198.569 23.9451 198.569 24.5227ZM208.476 31V20.0909H210.6V31H208.476ZM209.549 18.4077C209.18 18.4077 208.862 18.2846 208.597 18.0384C208.337 17.7874 208.206 17.4891 208.206 17.1435C208.206 16.7931 208.337 16.4948 208.597 16.2486C208.862 15.9976 209.18 15.8722 209.549 15.8722C209.918 15.8722 210.233 15.9976 210.493 16.2486C210.759 16.4948 210.891 16.7931 210.891 17.1435C210.891 17.4891 210.759 17.7874 210.493 18.0384C210.233 18.2846 209.918 18.4077 209.549 18.4077ZM221.632 22.7543L219.707 23.0952C219.626 22.849 219.499 22.6146 219.323 22.392C219.153 22.1695 218.921 21.9872 218.627 21.8452C218.334 21.7031 217.967 21.6321 217.526 21.6321C216.925 21.6321 216.423 21.767 216.021 22.0369C215.618 22.3021 215.417 22.6454 215.417 23.0668C215.417 23.4313 215.552 23.7249 215.822 23.9474C216.092 24.17 216.527 24.3523 217.129 24.4943L218.862 24.892C219.865 25.1241 220.614 25.4815 221.106 25.9645C221.598 26.4474 221.845 27.0748 221.845 27.8466C221.845 28.5 221.655 29.0824 221.276 29.5938C220.902 30.1004 220.379 30.4981 219.707 30.7869C219.039 31.0758 218.265 31.2202 217.384 31.2202C216.163 31.2202 215.166 30.9598 214.394 30.4389C213.623 29.9134 213.149 29.1676 212.974 28.2017L215.026 27.8892C215.154 28.4242 215.417 28.8291 215.815 29.1037C216.213 29.3736 216.731 29.5085 217.37 29.5085C218.066 29.5085 218.623 29.3641 219.039 29.0753C219.456 28.7817 219.664 28.4242 219.664 28.0028C219.664 27.6619 219.536 27.3755 219.281 27.1435C219.03 26.9115 218.644 26.7363 218.123 26.6179L216.276 26.2131C215.258 25.9811 214.506 25.6117 214.018 25.1051C213.535 24.5985 213.294 23.9569 213.294 23.1804C213.294 22.5365 213.473 21.973 213.833 21.4901C214.193 21.0071 214.69 20.6307 215.325 20.3608C215.959 20.0862 216.686 19.9489 217.505 19.9489C218.684 19.9489 219.612 20.2045 220.289 20.7159C220.966 21.2225 221.414 21.902 221.632 22.7543ZM230.815 35.0909C230.498 35.0909 230.209 35.0649 229.948 35.0128C229.688 34.9654 229.494 34.9134 229.366 34.8565L229.877 33.1165C230.266 33.2206 230.611 33.2656 230.914 33.2514C231.217 33.2372 231.485 33.1236 231.717 32.9105C231.954 32.6974 232.162 32.3494 232.342 31.8665L232.605 31.142L228.613 20.0909H230.886L233.649 28.5568H233.762L236.525 20.0909H238.805L234.309 32.456C234.101 33.0241 233.836 33.5047 233.514 33.8977C233.192 34.2955 232.808 34.5938 232.363 34.7926C231.918 34.9915 231.402 35.0909 230.815 35.0909ZM245.025 31.2202C244.002 31.2202 243.109 30.9858 242.347 30.517C241.585 30.0483 240.993 29.3925 240.572 28.5497C240.15 27.7069 239.939 26.7221 239.939 25.5952C239.939 24.4635 240.15 23.474 240.572 22.6264C240.993 21.7789 241.585 21.1207 242.347 20.652C243.109 20.1832 244.002 19.9489 245.025 19.9489C246.047 19.9489 246.94 20.1832 247.702 20.652C248.465 21.1207 249.056 21.7789 249.478 22.6264C249.899 23.474 250.11 24.4635 250.11 25.5952C250.11 26.7221 249.899 27.7069 249.478 28.5497C249.056 29.3925 248.465 30.0483 247.702 30.517C246.94 30.9858 246.047 31.2202 245.025 31.2202ZM245.032 29.4375C245.695 29.4375 246.244 29.2623 246.68 28.9119C247.115 28.5616 247.437 28.0952 247.645 27.5128C247.858 26.9304 247.965 26.2888 247.965 25.5881C247.965 24.892 247.858 24.2528 247.645 23.6705C247.437 23.0833 247.115 22.6122 246.68 22.2571C246.244 21.902 245.695 21.7244 245.032 21.7244C244.364 21.7244 243.81 21.902 243.37 22.2571C242.934 22.6122 242.61 23.0833 242.397 23.6705C242.189 24.2528 242.084 24.892 242.084 25.5881C242.084 26.2888 242.189 26.9304 242.397 27.5128C242.61 28.0952 242.934 28.5616 243.37 28.9119C243.81 29.2623 244.364 29.4375 245.032 29.4375ZM259.391 26.4759V20.0909H261.521V31H259.433V29.1108H259.32C259.069 29.6932 258.666 30.1785 258.112 30.5668C257.563 30.9503 256.879 31.142 256.06 31.142C255.359 31.142 254.739 30.9882 254.199 30.6804C253.664 30.3679 253.243 29.9062 252.935 29.2955C252.632 28.6847 252.48 27.9295 252.48 27.0298V20.0909H254.604V26.7741C254.604 27.5175 254.81 28.1094 255.222 28.5497C255.634 28.9901 256.169 29.2102 256.827 29.2102C257.225 29.2102 257.62 29.1108 258.013 28.9119C258.411 28.7131 258.74 28.4124 259 28.0099C259.265 27.6075 259.396 27.0961 259.391 26.4759ZM267.138 29.0114L267.031 29.7855C266.96 30.3537 266.839 30.9455 266.669 31.5611C266.503 32.1813 266.33 32.7566 266.15 33.2869C265.975 33.8172 265.831 34.2386 265.717 34.5511H264.211C264.273 34.2576 264.358 33.8598 264.467 33.358C264.576 32.8608 264.683 32.3045 264.787 31.6889C264.891 31.0734 264.969 30.446 265.021 29.8068L265.092 29.0114H267.138ZM279.79 31.2202C278.768 31.2202 277.875 30.9858 277.113 30.517C276.35 30.0483 275.759 29.3925 275.337 28.5497C274.916 27.7069 274.705 26.7221 274.705 25.5952C274.705 24.4635 274.916 23.474 275.337 22.6264C275.759 21.7789 276.35 21.1207 277.113 20.652C277.875 20.1832 278.768 19.9489 279.79 19.9489C280.813 19.9489 281.706 20.1832 282.468 20.652C283.23 21.1207 283.822 21.7789 284.243 22.6264C284.665 23.474 284.876 24.4635 284.876 25.5952C284.876 26.7221 284.665 27.7069 284.243 28.5497C283.822 29.3925 283.23 30.0483 282.468 30.517C281.706 30.9858 280.813 31.2202 279.79 31.2202ZM279.797 29.4375C280.46 29.4375 281.01 29.2623 281.445 28.9119C281.881 28.5616 282.203 28.0952 282.411 27.5128C282.624 26.9304 282.731 26.2888 282.731 25.5881C282.731 24.892 282.624 24.2528 282.411 23.6705C282.203 23.0833 281.881 22.6122 281.445 22.2571C281.01 21.902 280.46 21.7244 279.797 21.7244C279.13 21.7244 278.576 21.902 278.135 22.2571C277.7 22.6122 277.376 23.0833 277.162 23.6705C276.954 24.2528 276.85 24.892 276.85 25.5881C276.85 26.2888 276.954 26.9304 277.162 27.5128C277.376 28.0952 277.7 28.5616 278.135 28.9119C278.576 29.2623 279.13 29.4375 279.797 29.4375ZM289.199 27.2997L289.185 24.7074H289.554L293.901 20.0909H296.443L291.486 25.3466H291.152L289.199 27.2997ZM287.246 31V16.4545H289.369V31H287.246ZM294.135 31L290.229 25.8153L291.692 24.331L296.742 31H294.135ZM301.553 31.2415C300.862 31.2415 300.237 31.1136 299.678 30.858C299.12 30.5975 298.677 30.2211 298.35 29.7287C298.028 29.2363 297.867 28.6326 297.867 27.9176C297.867 27.3021 297.986 26.7955 298.222 26.3977C298.459 26 298.779 25.6851 299.181 25.4531C299.584 25.2211 300.034 25.0459 300.531 24.9276C301.028 24.8092 301.535 24.7192 302.051 24.6577C302.704 24.5819 303.234 24.5204 303.642 24.473C304.049 24.4209 304.345 24.3381 304.529 24.2244C304.714 24.1108 304.806 23.9261 304.806 23.6705V23.6207C304.806 23.0005 304.631 22.5199 304.281 22.179C303.935 21.8381 303.419 21.6676 302.732 21.6676C302.017 21.6676 301.454 21.8262 301.042 22.1435C300.635 22.456 300.353 22.804 300.197 23.1875L298.201 22.733C298.438 22.0701 298.784 21.535 299.238 21.1278C299.697 20.7159 300.225 20.4176 300.822 20.233C301.419 20.0436 302.046 19.9489 302.704 19.9489C303.14 19.9489 303.601 20.0009 304.089 20.1051C304.581 20.2045 305.041 20.3892 305.467 20.6591C305.898 20.929 306.25 21.3149 306.525 21.8168C306.8 22.3139 306.937 22.9602 306.937 23.7557V31H304.863V29.5085H304.778C304.641 29.7831 304.435 30.053 304.16 30.3182C303.885 30.5833 303.533 30.8035 303.102 30.9787C302.671 31.1539 302.155 31.2415 301.553 31.2415ZM302.015 29.5369C302.602 29.5369 303.104 29.4209 303.521 29.1889C303.942 28.9569 304.262 28.6539 304.48 28.2798C304.702 27.901 304.813 27.4962 304.813 27.0653V25.6591C304.738 25.7348 304.591 25.8059 304.373 25.8722C304.16 25.9337 303.916 25.9882 303.642 26.0355C303.367 26.0781 303.099 26.1184 302.839 26.1562C302.579 26.1894 302.361 26.2178 302.186 26.2415C301.774 26.2936 301.397 26.3812 301.056 26.5043C300.72 26.6274 300.45 26.8049 300.247 27.0369C300.048 27.2642 299.948 27.5672 299.948 27.946C299.948 28.4716 300.142 28.8693 300.531 29.1392C300.919 29.4044 301.414 29.5369 302.015 29.5369ZM310.717 35.0909C310.4 35.0909 310.111 35.0649 309.851 35.0128C309.59 34.9654 309.396 34.9134 309.268 34.8565L309.78 33.1165C310.168 33.2206 310.514 33.2656 310.817 33.2514C311.12 33.2372 311.387 33.1236 311.619 32.9105C311.856 32.6974 312.064 32.3494 312.244 31.8665L312.507 31.142L308.515 20.0909H310.788L313.551 28.5568H313.665L316.427 20.0909H318.707L314.211 32.456C314.003 33.0241 313.738 33.5047 313.416 33.8977C313.094 34.2955 312.711 34.5938 312.265 34.7926C311.82 34.9915 311.304 35.0909 310.717 35.0909ZM323.025 26.8168V26.6818C323.035 25.8011 323.122 25.1004 323.288 24.5795C323.459 24.0587 323.7 23.6373 324.013 23.3153C324.325 22.9934 324.702 22.6998 325.142 22.4347C325.426 22.2547 325.682 22.0535 325.909 21.831C326.136 21.6084 326.316 21.3527 326.449 21.0639C326.581 20.7751 326.648 20.4555 326.648 20.1051C326.648 19.6837 326.548 19.3191 326.349 19.0114C326.15 18.7036 325.885 18.4669 325.554 18.3011C325.227 18.1307 324.863 18.0455 324.46 18.0455C324.095 18.0455 323.747 18.1212 323.416 18.2727C323.085 18.4242 322.81 18.661 322.592 18.983C322.374 19.3002 322.249 19.7098 322.216 20.2116H320.057C320.09 19.3594 320.305 18.6397 320.703 18.0526C321.101 17.4607 321.626 17.0133 322.28 16.7102C322.938 16.4072 323.665 16.2557 324.46 16.2557C325.331 16.2557 326.094 16.419 326.747 16.7457C327.4 17.0677 327.907 17.5199 328.267 18.1023C328.631 18.6799 328.814 19.3546 328.814 20.1264C328.814 20.6567 328.731 21.1349 328.565 21.5611C328.399 21.9825 328.163 22.3589 327.855 22.6903C327.552 23.0218 327.187 23.3153 326.761 23.571C326.359 23.822 326.032 24.0824 325.781 24.3523C325.535 24.6222 325.355 24.9418 325.241 25.3111C325.128 25.6804 325.066 26.1373 325.057 26.6818V26.8168H323.025ZM324.098 31.1349C323.71 31.1349 323.376 30.9976 323.096 30.723C322.817 30.4437 322.677 30.1075 322.677 29.7145C322.677 29.3262 322.817 28.9948 323.096 28.7202C323.376 28.4408 323.71 28.3011 324.098 28.3011C324.481 28.3011 324.813 28.4408 325.092 28.7202C325.376 28.9948 325.518 29.3262 325.518 29.7145C325.518 29.9749 325.452 30.214 325.319 30.4318C325.192 30.6449 325.021 30.8153 324.808 30.9432C324.595 31.071 324.358 31.1349 324.098 31.1349ZM333.888 16.4545L333.704 26.8168H331.736L331.552 16.4545H333.888ZM332.724 31.1349C332.331 31.1349 331.994 30.9976 331.715 30.723C331.436 30.4437 331.298 30.1075 331.303 29.7145C331.298 29.3262 331.436 28.9948 331.715 28.7202C331.994 28.4408 332.331 28.3011 332.724 28.3011C333.107 28.3011 333.439 28.4408 333.718 28.7202C333.997 28.9948 334.139 29.3262 334.144 29.7145C334.139 29.9749 334.071 30.214 333.938 30.4318C333.81 30.6449 333.64 30.8153 333.427 30.9432C333.214 31.071 332.979 31.1349 332.724 31.1349ZM339.412 26.8168V26.6818C339.422 25.8011 339.509 25.1004 339.675 24.5795C339.845 24.0587 340.087 23.6373 340.399 23.3153C340.712 22.9934 341.088 22.6998 341.529 22.4347C341.813 22.2547 342.068 22.0535 342.296 21.831C342.523 21.6084 342.703 21.3527 342.835 21.0639C342.968 20.7751 343.034 20.4555 343.034 20.1051C343.034 19.6837 342.935 19.3191 342.736 19.0114C342.537 18.7036 342.272 18.4669 341.941 18.3011C341.614 18.1307 341.249 18.0455 340.847 18.0455C340.482 18.0455 340.134 18.1212 339.803 18.2727C339.471 18.4242 339.197 18.661 338.979 18.983C338.761 19.3002 338.636 19.7098 338.602 20.2116H336.443C336.477 19.3594 336.692 18.6397 337.09 18.0526C337.487 17.4607 338.013 17.0133 338.666 16.7102C339.325 16.4072 340.051 16.2557 340.847 16.2557C341.718 16.2557 342.48 16.419 343.134 16.7457C343.787 17.0677 344.294 17.5199 344.654 18.1023C345.018 18.6799 345.2 19.3546 345.2 20.1264C345.2 20.6567 345.118 21.1349 344.952 21.5611C344.786 21.9825 344.549 22.3589 344.242 22.6903C343.939 23.0218 343.574 23.3153 343.148 23.571C342.745 23.822 342.419 24.0824 342.168 24.3523C341.922 24.6222 341.742 24.9418 341.628 25.3111C341.514 25.6804 341.453 26.1373 341.443 26.6818V26.8168H339.412ZM340.485 31.1349C340.096 31.1349 339.762 30.9976 339.483 30.723C339.204 30.4437 339.064 30.1075 339.064 29.7145C339.064 29.3262 339.204 28.9948 339.483 28.7202C339.762 28.4408 340.096 28.3011 340.485 28.3011C340.868 28.3011 341.2 28.4408 341.479 28.7202C341.763 28.9948 341.905 29.3262 341.905 29.7145C341.905 29.9749 341.839 30.214 341.706 30.4318C341.578 30.6449 341.408 30.8153 341.195 30.9432C340.982 31.071 340.745 31.1349 340.485 31.1349ZM350.275 16.4545L350.09 26.8168H348.123L347.938 16.4545H350.275ZM349.11 31.1349C348.717 31.1349 348.381 30.9976 348.102 30.723C347.822 30.4437 347.685 30.1075 347.69 29.7145C347.685 29.3262 347.822 28.9948 348.102 28.7202C348.381 28.4408 348.717 28.3011 349.11 28.3011C349.494 28.3011 349.825 28.4408 350.105 28.7202C350.384 28.9948 350.526 29.3262 350.531 29.7145C350.526 29.9749 350.457 30.214 350.325 30.4318C350.197 30.6449 350.026 30.8153 349.813 30.9432C349.6 31.071 349.366 31.1349 349.11 31.1349ZM355.799 26.8168V26.6818C355.808 25.8011 355.896 25.1004 356.062 24.5795C356.232 24.0587 356.474 23.6373 356.786 23.3153C357.099 22.9934 357.475 22.6998 357.915 22.4347C358.199 22.2547 358.455 22.0535 358.682 21.831C358.91 21.6084 359.09 21.3527 359.222 21.0639C359.355 20.7751 359.421 20.4555 359.421 20.1051C359.421 19.6837 359.322 19.3191 359.123 19.0114C358.924 18.7036 358.659 18.4669 358.327 18.3011C358.001 18.1307 357.636 18.0455 357.233 18.0455C356.869 18.0455 356.521 18.1212 356.189 18.2727C355.858 18.4242 355.583 18.661 355.366 18.983C355.148 19.3002 355.022 19.7098 354.989 20.2116H352.83C352.863 19.3594 353.079 18.6397 353.476 18.0526C353.874 17.4607 354.4 17.0133 355.053 16.7102C355.711 16.4072 356.438 16.2557 357.233 16.2557C358.105 16.2557 358.867 16.419 359.52 16.7457C360.174 17.0677 360.68 17.5199 361.04 18.1023C361.405 18.6799 361.587 19.3546 361.587 20.1264C361.587 20.6567 361.504 21.1349 361.339 21.5611C361.173 21.9825 360.936 22.3589 360.628 22.6903C360.325 23.0218 359.961 23.3153 359.535 23.571C359.132 23.822 358.805 24.0824 358.555 24.3523C358.308 24.6222 358.128 24.9418 358.015 25.3111C357.901 25.6804 357.84 26.1373 357.83 26.6818V26.8168H355.799ZM356.871 31.1349C356.483 31.1349 356.149 30.9976 355.87 30.723C355.59 30.4437 355.451 30.1075 355.451 29.7145C355.451 29.3262 355.59 28.9948 355.87 28.7202C356.149 28.4408 356.483 28.3011 356.871 28.3011C357.255 28.3011 357.586 28.4408 357.866 28.7202C358.15 28.9948 358.292 29.3262 358.292 29.7145C358.292 29.9749 358.225 30.214 358.093 30.4318C357.965 30.6449 357.795 30.8153 357.581 30.9432C357.368 31.071 357.132 31.1349 356.871 31.1349ZM366.662 16.4545L366.477 26.8168H364.51L364.325 16.4545H366.662ZM365.497 31.1349C365.104 31.1349 364.768 30.9976 364.488 30.723C364.209 30.4437 364.072 30.1075 364.077 29.7145C364.072 29.3262 364.209 28.9948 364.488 28.7202C364.768 28.4408 365.104 28.3011 365.497 28.3011C365.881 28.3011 366.212 28.4408 366.491 28.7202C366.771 28.9948 366.913 29.3262 366.917 29.7145C366.913 29.9749 366.844 30.214 366.711 30.4318C366.584 30.6449 366.413 30.8153 366.2 30.9432C365.987 31.071 365.753 31.1349 365.497 31.1349Z" fill="black"/>
</svg>
