<svg width="500" height="24" viewBox="0 0 500 24" fill="none" xmlns="http://www.w3.org/2000/svg">
<g clip-path="url(#clip0_2194_1533)">
<path d="M66.6033 6.34375V4.45455H77.8604V6.34375H73.3221V19H71.1346V6.34375H66.6033ZM82.3011 12.5227V19H80.1776V4.45455H82.2727V9.86648H82.4077C82.6634 9.27936 83.054 8.81297 83.5795 8.46733C84.1051 8.12169 84.7917 7.94886 85.6392 7.94886C86.3873 7.94886 87.0407 8.10275 87.5994 8.41051C88.1629 8.71828 88.5985 9.17756 88.9062 9.78835C89.2188 10.3944 89.375 11.152 89.375 12.0611V19H87.2514V12.3168C87.2514 11.5166 87.0455 10.8963 86.6335 10.456C86.2216 10.0109 85.6487 9.78835 84.9148 9.78835C84.4129 9.78835 83.9631 9.89489 83.5653 10.108C83.1723 10.321 82.8622 10.6335 82.6349 11.0455C82.4124 11.4527 82.3011 11.9451 82.3011 12.5227ZM96.9105 19.2202C95.8357 19.2202 94.91 18.9905 94.1335 18.5312C93.3617 18.0672 92.7652 17.4162 92.3438 16.5781C91.9271 15.7353 91.7188 14.7481 91.7188 13.6165C91.7188 12.4991 91.9271 11.5142 92.3438 10.6619C92.7652 9.80966 93.3523 9.14441 94.1051 8.66619C94.8627 8.18797 95.7481 7.94886 96.7614 7.94886C97.3769 7.94886 97.9735 8.05066 98.5511 8.25426C99.1288 8.45786 99.6473 8.77746 100.107 9.21307C100.566 9.64867 100.928 10.2145 101.193 10.9105C101.458 11.6018 101.591 12.4422 101.591 13.4318V14.1847H92.919V12.5938H99.5099C99.5099 12.035 99.3963 11.5402 99.169 11.1094C98.9418 10.6738 98.6222 10.3305 98.2102 10.0795C97.803 9.8286 97.3248 9.70312 96.7756 9.70312C96.179 9.70312 95.6581 9.84991 95.2131 10.1435C94.7727 10.4323 94.4318 10.8111 94.1903 11.2798C93.9536 11.7438 93.8352 12.2481 93.8352 12.7926V14.0355C93.8352 14.7647 93.9631 15.3849 94.2188 15.8963C94.4792 16.4077 94.8414 16.7983 95.3054 17.0682C95.7694 17.3333 96.3116 17.4659 96.9318 17.4659C97.3343 17.4659 97.7012 17.4091 98.0327 17.2955C98.3641 17.1771 98.6506 17.0019 98.892 16.7699C99.1335 16.5379 99.3182 16.2514 99.446 15.9105L101.456 16.2727C101.295 16.8646 101.006 17.383 100.589 17.8281C100.178 18.2685 99.6591 18.6117 99.0341 18.858C98.4138 19.0994 97.706 19.2202 96.9105 19.2202ZM112.122 10.7543L110.197 11.0952C110.117 10.849 109.989 10.6146 109.814 10.392C109.643 10.1695 109.411 9.98722 109.118 9.84517C108.824 9.70312 108.457 9.6321 108.017 9.6321C107.415 9.6321 106.913 9.76705 106.511 10.0369C106.109 10.3021 105.907 10.6454 105.907 11.0668C105.907 11.4313 106.042 11.7249 106.312 11.9474C106.582 12.17 107.018 12.3523 107.619 12.4943L109.352 12.892C110.356 13.1241 111.104 13.4815 111.596 13.9645C112.089 14.4474 112.335 15.0748 112.335 15.8466C112.335 16.5 112.145 17.0824 111.767 17.5938C111.393 18.1004 110.869 18.4981 110.197 18.7869C109.529 19.0758 108.755 19.2202 107.875 19.2202C106.653 19.2202 105.656 18.9598 104.885 18.4389C104.113 17.9134 103.639 17.1676 103.464 16.2017L105.517 15.8892C105.645 16.4242 105.907 16.8291 106.305 17.1037C106.703 17.3736 107.221 17.5085 107.86 17.5085C108.556 17.5085 109.113 17.3641 109.529 17.0753C109.946 16.7817 110.154 16.4242 110.154 16.0028C110.154 15.6619 110.027 15.3755 109.771 15.1435C109.52 14.9115 109.134 14.7363 108.613 14.6179L106.767 14.2131C105.749 13.9811 104.996 13.6117 104.508 13.1051C104.025 12.5985 103.784 11.9569 103.784 11.1804C103.784 10.5365 103.964 9.97301 104.324 9.49006C104.683 9.0071 105.181 8.63068 105.815 8.3608C106.449 8.08617 107.176 7.94886 107.995 7.94886C109.174 7.94886 110.102 8.20455 110.779 8.71591C111.457 9.22254 111.904 9.90199 112.122 10.7543ZM119.371 19.2202C118.297 19.2202 117.371 18.9905 116.594 18.5312C115.823 18.0672 115.226 17.4162 114.805 16.5781C114.388 15.7353 114.18 14.7481 114.18 13.6165C114.18 12.4991 114.388 11.5142 114.805 10.6619C115.226 9.80966 115.813 9.14441 116.566 8.66619C117.324 8.18797 118.209 7.94886 119.222 7.94886C119.838 7.94886 120.434 8.05066 121.012 8.25426C121.59 8.45786 122.108 8.77746 122.567 9.21307C123.027 9.64867 123.389 10.2145 123.654 10.9105C123.919 11.6018 124.052 12.4422 124.052 13.4318V14.1847H115.38V12.5938H121.971C121.971 12.035 121.857 11.5402 121.63 11.1094C121.403 10.6738 121.083 10.3305 120.671 10.0795C120.264 9.8286 119.786 9.70312 119.237 9.70312C118.64 9.70312 118.119 9.84991 117.674 10.1435C117.234 10.4323 116.893 10.8111 116.651 11.2798C116.415 11.7438 116.296 12.2481 116.296 12.7926V14.0355C116.296 14.7647 116.424 15.3849 116.68 15.8963C116.94 16.4077 117.302 16.7983 117.766 17.0682C118.23 17.3333 118.772 17.4659 119.393 17.4659C119.795 17.4659 120.162 17.4091 120.494 17.2955C120.825 17.1771 121.112 17.0019 121.353 16.7699C121.594 16.5379 121.779 16.2514 121.907 15.9105L123.917 16.2727C123.756 16.8646 123.467 17.383 123.05 17.8281C122.638 18.2685 122.12 18.6117 121.495 18.858C120.875 19.0994 120.167 19.2202 119.371 19.2202ZM134.876 19.2415C134.184 19.2415 133.559 19.1136 133.001 18.858C132.442 18.5975 131.999 18.2211 131.673 17.7287C131.351 17.2363 131.19 16.6326 131.19 15.9176C131.19 15.3021 131.308 14.7955 131.545 14.3977C131.781 14 132.101 13.6851 132.504 13.4531C132.906 13.2211 133.356 13.0459 133.853 12.9276C134.35 12.8092 134.857 12.7192 135.373 12.6577C136.026 12.5819 136.557 12.5204 136.964 12.473C137.371 12.4209 137.667 12.3381 137.852 12.2244C138.036 12.1108 138.129 11.9261 138.129 11.6705V11.6207C138.129 11.0005 137.953 10.5199 137.603 10.179C137.257 9.83807 136.741 9.66761 136.055 9.66761C135.34 9.66761 134.776 9.82623 134.364 10.1435C133.957 10.456 133.675 10.804 133.519 11.1875L131.523 10.733C131.76 10.0701 132.106 9.53504 132.56 9.12784C133.02 8.71591 133.548 8.41761 134.144 8.23295C134.741 8.04356 135.368 7.94886 136.026 7.94886C136.462 7.94886 136.924 8.00095 137.411 8.10511C137.904 8.20455 138.363 8.3892 138.789 8.65909C139.22 8.92898 139.573 9.31487 139.847 9.81676C140.122 10.3139 140.259 10.9602 140.259 11.7557V19H138.185V17.5085H138.1C137.963 17.7831 137.757 18.053 137.482 18.3182C137.208 18.5833 136.855 18.8035 136.424 18.9787C135.993 19.1539 135.477 19.2415 134.876 19.2415ZM135.337 17.5369C135.924 17.5369 136.426 17.4209 136.843 17.1889C137.264 16.9569 137.584 16.6539 137.802 16.2798C138.024 15.901 138.136 15.4962 138.136 15.0653V13.6591C138.06 13.7348 137.913 13.8059 137.695 13.8722C137.482 13.9337 137.238 13.9882 136.964 14.0355C136.689 14.0781 136.422 14.1184 136.161 14.1562C135.901 14.1894 135.683 14.2178 135.508 14.2415C135.096 14.2936 134.719 14.3812 134.379 14.5043C134.042 14.6274 133.772 14.8049 133.569 15.0369C133.37 15.2642 133.271 15.5672 133.271 15.946C133.271 16.4716 133.465 16.8693 133.853 17.1392C134.241 17.4044 134.736 17.5369 135.337 17.5369ZM143.088 19V8.09091H145.14V9.82386H145.254C145.453 9.23674 145.803 8.77509 146.305 8.43892C146.812 8.09801 147.385 7.92756 148.024 7.92756C148.156 7.92756 148.313 7.93229 148.493 7.94176C148.677 7.95123 148.822 7.96307 148.926 7.97727V10.0085C148.841 9.98485 148.689 9.95881 148.471 9.9304C148.253 9.89725 148.036 9.88068 147.818 9.88068C147.316 9.88068 146.868 9.98722 146.475 10.2003C146.087 10.4086 145.779 10.6998 145.552 11.0739C145.325 11.4432 145.211 11.8646 145.211 12.3381V19H143.088ZM155.075 19.2202C154 19.2202 153.074 18.9905 152.298 18.5312C151.526 18.0672 150.929 17.4162 150.508 16.5781C150.091 15.7353 149.883 14.7481 149.883 13.6165C149.883 12.4991 150.091 11.5142 150.508 10.6619C150.929 9.80966 151.516 9.14441 152.269 8.66619C153.027 8.18797 153.912 7.94886 154.925 7.94886C155.541 7.94886 156.138 8.05066 156.715 8.25426C157.293 8.45786 157.811 8.77746 158.271 9.21307C158.73 9.64867 159.092 10.2145 159.357 10.9105C159.622 11.6018 159.755 12.4422 159.755 13.4318V14.1847H151.083V12.5938H157.674C157.674 12.035 157.56 11.5402 157.333 11.1094C157.106 10.6738 156.786 10.3305 156.374 10.0795C155.967 9.8286 155.489 9.70312 154.94 9.70312C154.343 9.70312 153.822 9.84991 153.377 10.1435C152.937 10.4323 152.596 10.8111 152.354 11.2798C152.118 11.7438 151.999 12.2481 151.999 12.7926V14.0355C151.999 14.7647 152.127 15.3849 152.383 15.8963C152.643 16.4077 153.005 16.7983 153.469 17.0682C153.933 17.3333 154.476 17.4659 155.096 17.4659C155.498 17.4659 155.865 17.4091 156.197 17.2955C156.528 17.1771 156.815 17.0019 157.056 16.7699C157.298 16.5379 157.482 16.2514 157.61 15.9105L159.62 16.2727C159.459 16.8646 159.17 17.383 158.754 17.8281C158.342 18.2685 157.823 18.6117 157.198 18.858C156.578 19.0994 155.87 19.2202 155.075 19.2202ZM167.404 23.0909V8.09091H169.478V9.85938H169.656C169.779 9.6321 169.956 9.36932 170.188 9.07102C170.42 8.77273 170.742 8.51231 171.154 8.28977C171.566 8.0625 172.111 7.94886 172.788 7.94886C173.668 7.94886 174.454 8.1714 175.146 8.61648C175.837 9.06155 176.379 9.70312 176.772 10.5412C177.17 11.3793 177.369 12.3878 177.369 13.5668C177.369 14.7457 177.172 15.7566 176.779 16.5994C176.386 17.4375 175.846 18.0838 175.16 18.5384C174.473 18.9882 173.69 19.2131 172.809 19.2131C172.146 19.2131 171.604 19.1018 171.183 18.8793C170.766 18.6567 170.439 18.3963 170.202 18.098C169.966 17.7997 169.783 17.5346 169.656 17.3026H169.528V23.0909H167.404ZM169.485 13.5455C169.485 14.3125 169.596 14.9848 169.819 15.5625C170.041 16.1402 170.363 16.5923 170.785 16.919C171.206 17.241 171.722 17.402 172.333 17.402C172.968 17.402 173.498 17.2339 173.924 16.8977C174.35 16.5568 174.672 16.0952 174.89 15.5128C175.112 14.9304 175.224 14.2746 175.224 13.5455C175.224 12.8258 175.115 12.1795 174.897 11.6065C174.684 11.0336 174.362 10.5814 173.931 10.25C173.505 9.91856 172.972 9.75284 172.333 9.75284C171.718 9.75284 171.197 9.91146 170.771 10.2287C170.349 10.5459 170.03 10.9886 169.812 11.5568C169.594 12.125 169.485 12.7879 169.485 13.5455ZM179.748 19V8.09091H181.871V19H179.748ZM180.82 6.40767C180.451 6.40767 180.134 6.28456 179.869 6.03835C179.608 5.7874 179.478 5.48911 179.478 5.14347C179.478 4.79309 179.608 4.49479 179.869 4.24858C180.134 3.99763 180.451 3.87216 180.82 3.87216C181.19 3.87216 181.504 3.99763 181.765 4.24858C182.03 4.49479 182.163 4.79309 182.163 5.14347C182.163 5.48911 182.03 5.7874 181.765 6.03835C181.504 6.28456 181.19 6.40767 180.82 6.40767ZM189.324 19.2202C188.268 19.2202 187.359 18.9811 186.596 18.5028C185.839 18.0199 185.256 17.3546 184.849 16.5071C184.442 15.6596 184.238 14.6889 184.238 13.5952C184.238 12.4872 184.447 11.5095 184.863 10.6619C185.28 9.80966 185.867 9.14441 186.625 8.66619C187.382 8.18797 188.275 7.94886 189.302 7.94886C190.131 7.94886 190.869 8.10275 191.518 8.41051C192.167 8.71354 192.69 9.13968 193.088 9.68892C193.49 10.2382 193.729 10.8797 193.805 11.6136H191.738C191.625 11.1023 191.364 10.6619 190.957 10.2926C190.555 9.9233 190.015 9.73864 189.338 9.73864C188.746 9.73864 188.227 9.89489 187.782 10.2074C187.342 10.5152 186.999 10.9555 186.752 11.5284C186.506 12.0966 186.383 12.7689 186.383 13.5455C186.383 14.3409 186.504 15.0275 186.745 15.6051C186.987 16.1828 187.328 16.6302 187.768 16.9474C188.213 17.2647 188.736 17.4233 189.338 17.4233C189.74 17.4233 190.105 17.3499 190.431 17.2031C190.763 17.0516 191.04 16.8362 191.262 16.5568C191.49 16.2775 191.648 15.9413 191.738 15.5483H193.805C193.729 16.2538 193.5 16.8835 193.116 17.4375C192.733 17.9915 192.219 18.4271 191.575 18.7443C190.936 19.0616 190.185 19.2202 189.324 19.2202ZM201.168 8.09091V9.79545H195.21V8.09091H201.168ZM196.808 5.47727H198.931V15.7969C198.931 16.2088 198.993 16.5189 199.116 16.7273C199.239 16.9309 199.397 17.0705 199.592 17.1463C199.79 17.2173 200.006 17.2528 200.238 17.2528C200.408 17.2528 200.558 17.241 200.685 17.2173C200.813 17.1937 200.913 17.1747 200.984 17.1605L201.367 18.9148C201.244 18.9621 201.069 19.0095 200.842 19.0568C200.614 19.1089 200.33 19.1373 199.989 19.142C199.431 19.1515 198.91 19.0521 198.427 18.8438C197.944 18.6354 197.553 18.3134 197.255 17.8778C196.957 17.4422 196.808 16.8954 196.808 16.2372V5.47727ZM210.428 14.4759V8.09091H212.559V19H210.471V17.1108H210.357C210.106 17.6932 209.703 18.1785 209.15 18.5668C208.6 18.9503 207.916 19.142 207.097 19.142C206.396 19.142 205.776 18.9882 205.236 18.6804C204.701 18.3679 204.28 17.9062 203.972 17.2955C203.669 16.6847 203.517 15.9295 203.517 15.0298V8.09091H205.641V14.7741C205.641 15.5175 205.847 16.1094 206.259 16.5497C206.671 16.9901 207.206 17.2102 207.864 17.2102C208.262 17.2102 208.657 17.1108 209.05 16.9119C209.448 16.7131 209.777 16.4124 210.037 16.0099C210.302 15.6075 210.433 15.0961 210.428 14.4759ZM215.412 19V8.09091H217.464V9.82386H217.578C217.777 9.23674 218.127 8.77509 218.629 8.43892C219.136 8.09801 219.709 7.92756 220.348 7.92756C220.481 7.92756 220.637 7.93229 220.817 7.94176C221.001 7.95123 221.146 7.96307 221.25 7.97727V10.0085C221.165 9.98485 221.013 9.95881 220.795 9.9304C220.578 9.89725 220.36 9.88068 220.142 9.88068C219.64 9.88068 219.193 9.98722 218.8 10.2003C218.411 10.4086 218.104 10.6998 217.876 11.0739C217.649 11.4432 217.536 11.8646 217.536 12.3381V19H215.412ZM227.399 19.2202C226.324 19.2202 225.398 18.9905 224.622 18.5312C223.85 18.0672 223.253 17.4162 222.832 16.5781C222.415 15.7353 222.207 14.7481 222.207 13.6165C222.207 12.4991 222.415 11.5142 222.832 10.6619C223.253 9.80966 223.841 9.14441 224.593 8.66619C225.351 8.18797 226.236 7.94886 227.25 7.94886C227.865 7.94886 228.462 8.05066 229.039 8.25426C229.617 8.45786 230.136 8.77746 230.595 9.21307C231.054 9.64867 231.416 10.2145 231.681 10.9105C231.947 11.6018 232.079 12.4422 232.079 13.4318V14.1847H223.407V12.5938H229.998C229.998 12.035 229.885 11.5402 229.657 11.1094C229.43 10.6738 229.11 10.3305 228.699 10.0795C228.291 9.8286 227.813 9.70312 227.264 9.70312C226.667 9.70312 226.146 9.84991 225.701 10.1435C225.261 10.4323 224.92 10.8111 224.679 11.2798C224.442 11.7438 224.324 12.2481 224.324 12.7926V14.0355C224.324 14.7647 224.451 15.3849 224.707 15.8963C224.967 16.4077 225.33 16.7983 225.794 17.0682C226.258 17.3333 226.8 17.4659 227.42 17.4659C227.823 17.4659 228.19 17.4091 228.521 17.2955C228.852 17.1771 229.139 17.0019 229.38 16.7699C229.622 16.5379 229.806 16.2514 229.934 15.9105L231.944 16.2727C231.783 16.8646 231.494 17.383 231.078 17.8281C230.666 18.2685 230.147 18.6117 229.522 18.858C228.902 19.0994 228.194 19.2202 227.399 19.2202ZM242.61 10.7543L240.685 11.0952C240.605 10.849 240.477 10.6146 240.302 10.392C240.131 10.1695 239.899 9.98722 239.606 9.84517C239.312 9.70312 238.945 9.6321 238.505 9.6321C237.904 9.6321 237.402 9.76705 236.999 10.0369C236.597 10.3021 236.396 10.6454 236.396 11.0668C236.396 11.4313 236.531 11.7249 236.8 11.9474C237.07 12.17 237.506 12.3523 238.107 12.4943L239.84 12.892C240.844 13.1241 241.592 13.4815 242.085 13.9645C242.577 14.4474 242.823 15.0748 242.823 15.8466C242.823 16.5 242.634 17.0824 242.255 17.5938C241.881 18.1004 241.358 18.4981 240.685 18.7869C240.018 19.0758 239.244 19.2202 238.363 19.2202C237.141 19.2202 236.145 18.9598 235.373 18.4389C234.601 17.9134 234.128 17.1676 233.952 16.2017L236.005 15.8892C236.133 16.4242 236.396 16.8291 236.793 17.1037C237.191 17.3736 237.71 17.5085 238.349 17.5085C239.045 17.5085 239.601 17.3641 240.018 17.0753C240.434 16.7817 240.643 16.4242 240.643 16.0028C240.643 15.6619 240.515 15.3755 240.259 15.1435C240.008 14.9115 239.622 14.7363 239.102 14.6179L237.255 14.2131C236.237 13.9811 235.484 13.6117 234.996 13.1051C234.513 12.5985 234.272 11.9569 234.272 11.1804C234.272 10.5365 234.452 9.97301 234.812 9.49006C235.172 9.0071 235.669 8.63068 236.303 8.3608C236.938 8.08617 237.665 7.94886 238.484 7.94886C239.663 7.94886 240.591 8.20455 241.268 8.71591C241.945 9.22254 242.392 9.90199 242.61 10.7543ZM255.046 19.2202C254.023 19.2202 253.131 18.9858 252.369 18.517C251.606 18.0483 251.014 17.3925 250.593 16.5497C250.172 15.7069 249.961 14.7221 249.961 13.5952C249.961 12.4635 250.172 11.474 250.593 10.6264C251.014 9.77888 251.606 9.12074 252.369 8.65199C253.131 8.18324 254.023 7.94886 255.046 7.94886C256.069 7.94886 256.961 8.18324 257.724 8.65199C258.486 9.12074 259.078 9.77888 259.499 10.6264C259.921 11.474 260.131 12.4635 260.131 13.5952C260.131 14.7221 259.921 15.7069 259.499 16.5497C259.078 17.3925 258.486 18.0483 257.724 18.517C256.961 18.9858 256.069 19.2202 255.046 19.2202ZM255.053 17.4375C255.716 17.4375 256.265 17.2623 256.701 16.9119C257.137 16.5616 257.459 16.0952 257.667 15.5128C257.88 14.9304 257.987 14.2888 257.987 13.5881C257.987 12.892 257.88 12.2528 257.667 11.6705C257.459 11.0833 257.137 10.6122 256.701 10.2571C256.265 9.90199 255.716 9.72443 255.053 9.72443C254.386 9.72443 253.832 9.90199 253.391 10.2571C252.956 10.6122 252.631 11.0833 252.418 11.6705C252.21 12.2528 252.106 12.892 252.106 13.5881C252.106 14.2888 252.21 14.9304 252.418 15.5128C252.631 16.0952 252.956 16.5616 253.391 16.9119C253.832 17.2623 254.386 17.4375 255.053 17.4375ZM267.694 8.09091V9.79545H261.529V8.09091H267.694ZM263.219 19V6.8267C263.219 6.14489 263.368 5.57907 263.667 5.12926C263.965 4.67472 264.36 4.33617 264.853 4.11364C265.345 3.88636 265.88 3.77273 266.458 3.77273C266.884 3.77273 267.248 3.80824 267.551 3.87926C267.855 3.94555 268.079 4.0071 268.226 4.06392L267.729 5.78267C267.63 5.75426 267.502 5.72112 267.346 5.68324C267.189 5.64062 267 5.61932 266.777 5.61932C266.261 5.61932 265.892 5.74716 265.669 6.00284C265.452 6.25852 265.343 6.62784 265.343 7.1108V19H263.219ZM280.27 8.09091V9.79545H274.311V8.09091H280.27ZM275.909 5.47727H278.033V15.7969C278.033 16.2088 278.094 16.5189 278.217 16.7273C278.34 16.9309 278.499 17.0705 278.693 17.1463C278.892 17.2173 279.107 17.2528 279.339 17.2528C279.51 17.2528 279.659 17.241 279.787 17.2173C279.915 17.1937 280.014 17.1747 280.085 17.1605L280.469 18.9148C280.346 18.9621 280.17 19.0095 279.943 19.0568C279.716 19.1089 279.432 19.1373 279.091 19.142C278.532 19.1515 278.011 19.0521 277.528 18.8438C277.045 18.6354 276.655 18.3134 276.357 17.8778C276.058 17.4422 275.909 16.8954 275.909 16.2372V5.47727ZM284.977 12.5227V19H282.853V4.45455H284.949V9.86648H285.083C285.339 9.27936 285.73 8.81297 286.255 8.46733C286.781 8.12169 287.467 7.94886 288.315 7.94886C289.063 7.94886 289.717 8.10275 290.275 8.41051C290.839 8.71828 291.274 9.17756 291.582 9.78835C291.895 10.3944 292.051 11.152 292.051 12.0611V19H289.927V12.3168C289.927 11.5166 289.721 10.8963 289.309 10.456C288.897 10.0109 288.324 9.78835 287.591 9.78835C287.089 9.78835 286.639 9.89489 286.241 10.108C285.848 10.321 285.538 10.6335 285.311 11.0455C285.088 11.4527 284.977 11.9451 284.977 12.5227ZM294.885 19V8.09091H297.008V19H294.885ZM295.957 6.40767C295.588 6.40767 295.27 6.28456 295.005 6.03835C294.745 5.7874 294.615 5.48911 294.615 5.14347C294.615 4.79309 294.745 4.49479 295.005 4.24858C295.27 3.99763 295.588 3.87216 295.957 3.87216C296.326 3.87216 296.641 3.99763 296.902 4.24858C297.167 4.49479 297.299 4.79309 297.299 5.14347C297.299 5.48911 297.167 5.7874 296.902 6.03835C296.641 6.28456 296.326 6.40767 295.957 6.40767ZM301.989 12.5227V19H299.865V8.09091H301.903V9.86648H302.038C302.289 9.28883 302.682 8.82481 303.217 8.47443C303.757 8.12405 304.437 7.94886 305.256 7.94886C305.999 7.94886 306.65 8.10511 307.209 8.41761C307.768 8.72538 308.201 9.18466 308.509 9.79545C308.816 10.4062 308.97 11.1615 308.97 12.0611V19H306.847V12.3168C306.847 11.526 306.641 10.9081 306.229 10.4631C305.817 10.0133 305.251 9.78835 304.531 9.78835C304.039 9.78835 303.601 9.89489 303.217 10.108C302.839 10.321 302.538 10.6335 302.315 11.0455C302.098 11.4527 301.989 11.9451 301.989 12.5227ZM316.392 23.3182C315.526 23.3182 314.78 23.2045 314.155 22.9773C313.535 22.75 313.028 22.4493 312.635 22.0753C312.242 21.7012 311.948 21.2917 311.754 20.8466L313.58 20.0938C313.707 20.3021 313.878 20.5223 314.091 20.7543C314.309 20.991 314.602 21.1922 314.972 21.358C315.346 21.5237 315.826 21.6065 316.413 21.6065C317.218 21.6065 317.884 21.41 318.409 21.017C318.935 20.6288 319.197 20.0085 319.197 19.1562V17.0114H319.062C318.935 17.2434 318.75 17.5014 318.509 17.7855C318.272 18.0696 317.945 18.3158 317.528 18.5241C317.112 18.7325 316.57 18.8366 315.902 18.8366C315.04 18.8366 314.264 18.6354 313.572 18.233C312.886 17.8258 312.341 17.2268 311.939 16.4361C311.541 15.6406 311.342 14.6629 311.342 13.5028C311.342 12.3428 311.539 11.3485 311.932 10.5199C312.33 9.69129 312.874 9.05682 313.565 8.61648C314.257 8.1714 315.04 7.94886 315.916 7.94886C316.593 7.94886 317.14 8.0625 317.557 8.28977C317.973 8.51231 318.298 8.77273 318.53 9.07102C318.767 9.36932 318.949 9.6321 319.077 9.85938H319.233V8.09091H321.314V19.2415C321.314 20.179 321.096 20.9484 320.661 21.5497C320.225 22.151 319.635 22.5961 318.892 22.8849C318.153 23.1738 317.32 23.3182 316.392 23.3182ZM316.371 17.0753C316.982 17.0753 317.498 16.9332 317.919 16.6491C318.345 16.3603 318.667 15.9484 318.885 15.4134C319.107 14.8736 319.219 14.2273 319.219 13.4744C319.219 12.7405 319.11 12.0942 318.892 11.5355C318.674 10.9768 318.355 10.5412 317.933 10.2287C317.512 9.91146 316.991 9.75284 316.371 9.75284C315.732 9.75284 315.199 9.91856 314.773 10.25C314.347 10.5767 314.025 11.0218 313.807 11.5852C313.594 12.1487 313.487 12.7784 313.487 13.4744C313.487 14.1894 313.596 14.8168 313.814 15.3565C314.032 15.8963 314.354 16.3177 314.78 16.6207C315.211 16.9238 315.741 17.0753 316.371 17.0753ZM332.337 10.7543L330.412 11.0952C330.331 10.849 330.204 10.6146 330.028 10.392C329.858 10.1695 329.626 9.98722 329.332 9.84517C329.039 9.70312 328.672 9.6321 328.232 9.6321C327.63 9.6321 327.128 9.76705 326.726 10.0369C326.323 10.3021 326.122 10.6454 326.122 11.0668C326.122 11.4313 326.257 11.7249 326.527 11.9474C326.797 12.17 327.232 12.3523 327.834 12.4943L329.567 12.892C330.571 13.1241 331.319 13.4815 331.811 13.9645C332.304 14.4474 332.55 15.0748 332.55 15.8466C332.55 16.5 332.36 17.0824 331.982 17.5938C331.607 18.1004 331.084 18.4981 330.412 18.7869C329.744 19.0758 328.97 19.2202 328.089 19.2202C326.868 19.2202 325.871 18.9598 325.099 18.4389C324.328 17.9134 323.854 17.1676 323.679 16.2017L325.732 15.8892C325.859 16.4242 326.122 16.8291 326.52 17.1037C326.918 17.3736 327.436 17.5085 328.075 17.5085C328.771 17.5085 329.328 17.3641 329.744 17.0753C330.161 16.7817 330.369 16.4242 330.369 16.0028C330.369 15.6619 330.241 15.3755 329.986 15.1435C329.735 14.9115 329.349 14.7363 328.828 14.6179L326.982 14.2131C325.964 13.9811 325.211 13.6117 324.723 13.1051C324.24 12.5985 323.999 11.9569 323.999 11.1804C323.999 10.5365 324.179 9.97301 324.538 9.49006C324.898 9.0071 325.395 8.63068 326.03 8.3608C326.664 8.08617 327.391 7.94886 328.21 7.94886C329.389 7.94886 330.317 8.20455 330.994 8.71591C331.671 9.22254 332.119 9.90199 332.337 10.7543ZM348.352 10.7543L346.428 11.0952C346.347 10.849 346.219 10.6146 346.044 10.392C345.874 10.1695 345.642 9.98722 345.348 9.84517C345.054 9.70312 344.688 9.6321 344.247 9.6321C343.646 9.6321 343.144 9.76705 342.741 10.0369C342.339 10.3021 342.138 10.6454 342.138 11.0668C342.138 11.4313 342.273 11.7249 342.543 11.9474C342.813 12.17 343.248 12.3523 343.849 12.4943L345.582 12.892C346.586 13.1241 347.334 13.4815 347.827 13.9645C348.319 14.4474 348.565 15.0748 348.565 15.8466C348.565 16.5 348.376 17.0824 347.997 17.5938C347.623 18.1004 347.1 18.4981 346.428 18.7869C345.76 19.0758 344.986 19.2202 344.105 19.2202C342.884 19.2202 341.887 18.9598 341.115 18.4389C340.343 17.9134 339.87 17.1676 339.695 16.2017L341.747 15.8892C341.875 16.4242 342.138 16.8291 342.536 17.1037C342.933 17.3736 343.452 17.5085 344.091 17.5085C344.787 17.5085 345.343 17.3641 345.76 17.0753C346.177 16.7817 346.385 16.4242 346.385 16.0028C346.385 15.6619 346.257 15.3755 346.001 15.1435C345.75 14.9115 345.365 14.7363 344.844 14.6179L342.997 14.2131C341.979 13.9811 341.226 13.6117 340.739 13.1051C340.256 12.5985 340.014 11.9569 340.014 11.1804C340.014 10.5365 340.194 9.97301 340.554 9.49006C340.914 9.0071 341.411 8.63068 342.045 8.3608C342.68 8.08617 343.407 7.94886 344.226 7.94886C345.405 7.94886 346.333 8.20455 347.01 8.71591C347.687 9.22254 348.134 9.90199 348.352 10.7543ZM353.024 12.5227V19H350.9V4.45455H352.995V9.86648H353.13C353.386 9.27936 353.777 8.81297 354.302 8.46733C354.828 8.12169 355.514 7.94886 356.362 7.94886C357.11 7.94886 357.763 8.10275 358.322 8.41051C358.886 8.71828 359.321 9.17756 359.629 9.78835C359.941 10.3944 360.098 11.152 360.098 12.0611V19H357.974V12.3168C357.974 11.5166 357.768 10.8963 357.356 10.456C356.944 10.0109 356.371 9.78835 355.637 9.78835C355.136 9.78835 354.686 9.89489 354.288 10.108C353.895 10.321 353.585 10.6335 353.358 11.0455C353.135 11.4527 353.024 11.9451 353.024 12.5227ZM367.633 19.2202C366.558 19.2202 365.633 18.9905 364.856 18.5312C364.084 18.0672 363.488 17.4162 363.066 16.5781C362.65 15.7353 362.441 14.7481 362.441 13.6165C362.441 12.4991 362.65 11.5142 363.066 10.6619C363.488 9.80966 364.075 9.14441 364.828 8.66619C365.585 8.18797 366.471 7.94886 367.484 7.94886C368.1 7.94886 368.696 8.05066 369.274 8.25426C369.851 8.45786 370.37 8.77746 370.829 9.21307C371.288 9.64867 371.651 10.2145 371.916 10.9105C372.181 11.6018 372.314 12.4422 372.314 13.4318V14.1847H363.642V12.5938H370.233C370.233 12.035 370.119 11.5402 369.892 11.1094C369.664 10.6738 369.345 10.3305 368.933 10.0795C368.526 9.8286 368.047 9.70312 367.498 9.70312C366.902 9.70312 366.381 9.84991 365.936 10.1435C365.495 10.4323 365.154 10.8111 364.913 11.2798C364.676 11.7438 364.558 12.2481 364.558 12.7926V14.0355C364.558 14.7647 364.686 15.3849 364.941 15.8963C365.202 16.4077 365.564 16.7983 366.028 17.0682C366.492 17.3333 367.034 17.4659 367.654 17.4659C368.057 17.4659 368.424 17.4091 368.755 17.2955C369.087 17.1771 369.373 17.0019 369.615 16.7699C369.856 16.5379 370.041 16.2514 370.169 15.9105L372.179 16.2727C372.018 16.8646 371.729 17.383 371.312 17.8281C370.9 18.2685 370.382 18.6117 369.757 18.858C369.136 19.0994 368.429 19.2202 367.633 19.2202ZM382.086 4.45455V19H379.963V4.45455H382.086ZM389.538 19.2202C388.516 19.2202 387.623 18.9858 386.861 18.517C386.098 18.0483 385.507 17.3925 385.085 16.5497C384.664 15.7069 384.453 14.7221 384.453 13.5952C384.453 12.4635 384.664 11.474 385.085 10.6264C385.507 9.77888 386.098 9.12074 386.861 8.65199C387.623 8.18324 388.516 7.94886 389.538 7.94886C390.561 7.94886 391.454 8.18324 392.216 8.65199C392.978 9.12074 393.57 9.77888 393.991 10.6264C394.413 11.474 394.624 12.4635 394.624 13.5952C394.624 14.7221 394.413 15.7069 393.991 16.5497C393.57 17.3925 392.978 18.0483 392.216 18.517C391.454 18.9858 390.561 19.2202 389.538 19.2202ZM389.545 17.4375C390.208 17.4375 390.758 17.2623 391.193 16.9119C391.629 16.5616 391.951 16.0952 392.159 15.5128C392.372 14.9304 392.479 14.2888 392.479 13.5881C392.479 12.892 392.372 12.2528 392.159 11.6705C391.951 11.0833 391.629 10.6122 391.193 10.2571C390.758 9.90199 390.208 9.72443 389.545 9.72443C388.878 9.72443 388.324 9.90199 387.884 10.2571C387.448 10.6122 387.124 11.0833 386.911 11.6705C386.702 12.2528 386.598 12.892 386.598 13.5881C386.598 14.2888 386.702 14.9304 386.911 15.5128C387.124 16.0952 387.448 16.5616 387.884 16.9119C388.324 17.2623 388.878 17.4375 389.545 17.4375ZM405.955 8.09091L401.999 19H399.727L395.763 8.09091H398.043L400.806 16.4858H400.92L403.675 8.09091H405.955ZM412.282 19.2202C411.207 19.2202 410.281 18.9905 409.505 18.5312C408.733 18.0672 408.136 17.4162 407.715 16.5781C407.298 15.7353 407.09 14.7481 407.09 13.6165C407.09 12.4991 407.298 11.5142 407.715 10.6619C408.136 9.80966 408.723 9.14441 409.476 8.66619C410.234 8.18797 411.119 7.94886 412.132 7.94886C412.748 7.94886 413.345 8.05066 413.922 8.25426C414.5 8.45786 415.018 8.77746 415.478 9.21307C415.937 9.64867 416.299 10.2145 416.564 10.9105C416.829 11.6018 416.962 12.4422 416.962 13.4318V14.1847H408.29V12.5938H414.881C414.881 12.035 414.767 11.5402 414.54 11.1094C414.313 10.6738 413.993 10.3305 413.581 10.0795C413.174 9.8286 412.696 9.70312 412.147 9.70312C411.55 9.70312 411.029 9.84991 410.584 10.1435C410.144 10.4323 409.803 10.8111 409.561 11.2798C409.325 11.7438 409.206 12.2481 409.206 12.7926V14.0355C409.206 14.7647 409.334 15.3849 409.59 15.8963C409.85 16.4077 410.212 16.7983 410.676 17.0682C411.141 17.3333 411.683 17.4659 412.303 17.4659C412.705 17.4659 413.072 17.4091 413.404 17.2955C413.735 17.1771 414.022 17.0019 414.263 16.7699C414.505 16.5379 414.689 16.2514 414.817 15.9105L416.827 16.2727C416.666 16.8646 416.377 17.383 415.961 17.8281C415.549 18.2685 415.03 18.6117 414.405 18.858C413.785 19.0994 413.077 19.2202 412.282 19.2202ZM427.493 10.7543L425.568 11.0952C425.488 10.849 425.36 10.6146 425.185 10.392C425.014 10.1695 424.782 9.98722 424.489 9.84517C424.195 9.70312 423.828 9.6321 423.388 9.6321C422.786 9.6321 422.285 9.76705 421.882 10.0369C421.48 10.3021 421.278 10.6454 421.278 11.0668C421.278 11.4313 421.413 11.7249 421.683 11.9474C421.953 12.17 422.389 12.3523 422.99 12.4943L424.723 12.892C425.727 13.1241 426.475 13.4815 426.967 13.9645C427.46 14.4474 427.706 15.0748 427.706 15.8466C427.706 16.5 427.517 17.0824 427.138 17.5938C426.764 18.1004 426.241 18.4981 425.568 18.7869C424.901 19.0758 424.126 19.2202 423.246 19.2202C422.024 19.2202 421.027 18.9598 420.256 18.4389C419.484 17.9134 419.01 17.1676 418.835 16.2017L420.888 15.8892C421.016 16.4242 421.278 16.8291 421.676 17.1037C422.074 17.3736 422.592 17.5085 423.232 17.5085C423.928 17.5085 424.484 17.3641 424.901 17.0753C425.317 16.7817 425.526 16.4242 425.526 16.0028C425.526 15.6619 425.398 15.3755 425.142 15.1435C424.891 14.9115 424.505 14.7363 423.984 14.6179L422.138 14.2131C421.12 13.9811 420.367 13.6117 419.879 13.1051C419.396 12.5985 419.155 11.9569 419.155 11.1804C419.155 10.5365 419.335 9.97301 419.695 9.49006C420.054 9.0071 420.552 8.63068 421.186 8.3608C421.821 8.08617 422.547 7.94886 423.366 7.94886C424.545 7.94886 425.473 8.20455 426.151 8.71591C426.828 9.22254 427.275 9.90199 427.493 10.7543ZM431.44 19.1349C431.052 19.1349 430.718 18.9976 430.439 18.723C430.159 18.4437 430.02 18.1075 430.02 17.7145C430.02 17.3262 430.159 16.9948 430.439 16.7202C430.718 16.4408 431.052 16.3011 431.44 16.3011C431.828 16.3011 432.162 16.4408 432.441 16.7202C432.721 16.9948 432.86 17.3262 432.86 17.7145C432.86 17.9749 432.794 18.214 432.662 18.4318C432.534 18.6449 432.363 18.8153 432.15 18.9432C431.937 19.071 431.7 19.1349 431.44 19.1349Z" fill="black"/>
</g>
<defs>
<clipPath id="clip0_2194_1533">
<rect width="500" height="24" fill="white"/>
</clipPath>
</defs>
</svg>
