<svg width="500" height="48" viewBox="0 0 500 48" fill="none" xmlns="http://www.w3.org/2000/svg">
<path d="M65.75 8.27557C65.6742 7.60322 65.3617 7.08239 64.8125 6.71307C64.2633 6.33902 63.572 6.15199 62.7386 6.15199C62.142 6.15199 61.6259 6.24669 61.1903 6.43608C60.7547 6.62074 60.4162 6.87642 60.1747 7.20312C59.938 7.52509 59.8196 7.89205 59.8196 8.30398C59.8196 8.64962 59.9001 8.94792 60.0611 9.19886C60.2268 9.44981 60.4422 9.66051 60.7074 9.83097C60.9773 9.99669 61.2661 10.1364 61.5739 10.25C61.8816 10.3589 62.1776 10.4489 62.4616 10.5199L63.8821 10.8892C64.3461 11.0028 64.822 11.1567 65.3097 11.3509C65.7973 11.545 66.2495 11.8007 66.6662 12.1179C67.0829 12.4351 67.419 12.8281 67.6747 13.2969C67.9351 13.7656 68.0653 14.3267 68.0653 14.9801C68.0653 15.804 67.8523 16.5355 67.4261 17.1747C67.0047 17.8139 66.3916 18.3182 65.5866 18.6875C64.7865 19.0568 63.8182 19.2415 62.6818 19.2415C61.5928 19.2415 60.6506 19.0687 59.8551 18.723C59.0597 18.3774 58.437 17.8873 57.9872 17.2528C57.5374 16.6136 57.2888 15.8561 57.2415 14.9801H59.4432C59.4858 15.5057 59.6563 15.9437 59.9545 16.294C60.2576 16.6397 60.6435 16.8977 61.1122 17.0682C61.5857 17.2339 62.1042 17.3168 62.6676 17.3168C63.2879 17.3168 63.8395 17.2197 64.3224 17.0256C64.8101 16.8267 65.1937 16.5521 65.473 16.2017C65.7524 15.8466 65.892 15.4323 65.892 14.9588C65.892 14.5279 65.7689 14.1752 65.5227 13.9006C65.2813 13.6259 64.9522 13.3987 64.5355 13.2188C64.1236 13.0388 63.6572 12.8802 63.1364 12.7429L61.4176 12.2741C60.2528 11.9569 59.3295 11.4905 58.6477 10.875C57.9706 10.2595 57.6321 9.44508 57.6321 8.43182C57.6321 7.59375 57.8594 6.86222 58.3139 6.23722C58.7685 5.61222 59.384 5.12689 60.1605 4.78125C60.937 4.43087 61.813 4.25568 62.7884 4.25568C63.7732 4.25568 64.642 4.4285 65.3949 4.77415C66.1525 5.11979 66.7491 5.59564 67.1847 6.2017C67.6203 6.80303 67.8475 7.49432 67.8665 8.27557H65.75ZM72.641 12.5227V19H70.5174V4.45455H72.6126V9.86648H72.7475C73.0032 9.27936 73.3938 8.81297 73.9194 8.46733C74.445 8.12169 75.1315 7.94886 75.979 7.94886C76.7272 7.94886 77.3806 8.10275 77.9393 8.41051C78.5027 8.71828 78.9383 9.17756 79.2461 9.78835C79.5586 10.3944 79.7148 11.152 79.7148 12.0611V19H77.5913V12.3168C77.5913 11.5166 77.3853 10.8963 76.9734 10.456C76.5614 10.0109 75.9885 9.78835 75.2546 9.78835C74.7527 9.78835 74.3029 9.89489 73.9052 10.108C73.5122 10.321 73.2021 10.6335 72.9748 11.0455C72.7522 11.4527 72.641 11.9451 72.641 12.5227ZM87.2504 19.2202C86.1755 19.2202 85.2499 18.9905 84.4734 18.5312C83.7016 18.0672 83.105 17.4162 82.6836 16.5781C82.2669 15.7353 82.0586 14.7481 82.0586 13.6165C82.0586 12.4991 82.2669 11.5142 82.6836 10.6619C83.105 9.80966 83.6921 9.14441 84.445 8.66619C85.2025 8.18797 86.0879 7.94886 87.1012 7.94886C87.7167 7.94886 88.3133 8.05066 88.891 8.25426C89.4686 8.45786 89.9871 8.77746 90.4464 9.21307C90.9057 9.64867 91.2679 10.2145 91.533 10.9105C91.7982 11.6018 91.9308 12.4422 91.9308 13.4318V14.1847H83.2589V12.5938H89.8498C89.8498 12.035 89.7362 11.5402 89.5089 11.1094C89.2816 10.6738 88.962 10.3305 88.5501 10.0795C88.1429 9.8286 87.6647 9.70312 87.1154 9.70312C86.5188 9.70312 85.998 9.84991 85.5529 10.1435C85.1126 10.4323 84.7717 10.8111 84.5302 11.2798C84.2934 11.7438 84.1751 12.2481 84.1751 12.7926V14.0355C84.1751 14.7647 84.3029 15.3849 84.5586 15.8963C84.819 16.4077 85.1812 16.7983 85.6452 17.0682C86.1093 17.3333 86.6514 17.4659 87.2717 17.4659C87.6741 17.4659 88.0411 17.4091 88.3725 17.2955C88.704 17.1771 88.9904 17.0019 89.2319 16.7699C89.4734 16.5379 89.658 16.2514 89.7859 15.9105L91.7958 16.2727C91.6348 16.8646 91.346 17.383 90.9293 17.8281C90.5174 18.2685 89.9989 18.6117 89.3739 18.858C88.7537 19.0994 88.0458 19.2202 87.2504 19.2202ZM101.703 4.45455V19H99.5799V4.45455H101.703ZM104.56 19V8.09091H106.684V19H104.56ZM105.633 6.40767C105.263 6.40767 104.946 6.28456 104.681 6.03835C104.421 5.7874 104.29 5.48911 104.29 5.14347C104.29 4.79309 104.421 4.49479 104.681 4.24858C104.946 3.99763 105.263 3.87216 105.633 3.87216C106.002 3.87216 106.317 3.99763 106.577 4.24858C106.843 4.49479 106.975 4.79309 106.975 5.14347C106.975 5.48911 106.843 5.7874 106.577 6.03835C106.317 6.28456 106.002 6.40767 105.633 6.40767ZM111.494 15.2997L111.48 12.7074H111.849L116.196 8.09091H118.738L113.781 13.3466H113.447L111.494 15.2997ZM109.541 19V4.45455H111.664V19H109.541ZM116.43 19L112.524 13.8153L113.987 12.331L119.037 19H116.43ZM124.926 19.2202C123.851 19.2202 122.926 18.9905 122.149 18.5312C121.377 18.0672 120.781 17.4162 120.359 16.5781C119.943 15.7353 119.734 14.7481 119.734 13.6165C119.734 12.4991 119.943 11.5142 120.359 10.6619C120.781 9.80966 121.368 9.14441 122.121 8.66619C122.878 8.18797 123.764 7.94886 124.777 7.94886C125.393 7.94886 125.989 8.05066 126.567 8.25426C127.144 8.45786 127.663 8.77746 128.122 9.21307C128.581 9.64867 128.944 10.2145 129.209 10.9105C129.474 11.6018 129.607 12.4422 129.607 13.4318V14.1847H120.935V12.5938H127.526C127.526 12.035 127.412 11.5402 127.185 11.1094C126.957 10.6738 126.638 10.3305 126.226 10.0795C125.819 9.8286 125.34 9.70312 124.791 9.70312C124.195 9.70312 123.674 9.84991 123.229 10.1435C122.788 10.4323 122.447 10.8111 122.206 11.2798C121.969 11.7438 121.851 12.2481 121.851 12.7926V14.0355C121.851 14.7647 121.979 15.3849 122.234 15.8963C122.495 16.4077 122.857 16.7983 123.321 17.0682C123.785 17.3333 124.327 17.4659 124.947 17.4659C125.35 17.4659 125.717 17.4091 126.048 17.2955C126.38 17.1771 126.666 17.0019 126.908 16.7699C127.149 16.5379 127.334 16.2514 127.462 15.9105L129.472 16.2727C129.311 16.8646 129.022 17.383 128.605 17.8281C128.193 18.2685 127.675 18.6117 127.05 18.858C126.429 19.0994 125.722 19.2202 124.926 19.2202ZM140.137 10.7543L138.213 11.0952C138.132 10.849 138.004 10.6146 137.829 10.392C137.659 10.1695 137.427 9.98722 137.133 9.84517C136.84 9.70312 136.473 9.6321 136.032 9.6321C135.431 9.6321 134.929 9.76705 134.527 10.0369C134.124 10.3021 133.923 10.6454 133.923 11.0668C133.923 11.4313 134.058 11.7249 134.328 11.9474C134.598 12.17 135.033 12.3523 135.635 12.4943L137.368 12.892C138.371 13.1241 139.119 13.4815 139.612 13.9645C140.104 14.4474 140.35 15.0748 140.35 15.8466C140.35 16.5 140.161 17.0824 139.782 17.5938C139.408 18.1004 138.885 18.4981 138.213 18.7869C137.545 19.0758 136.771 19.2202 135.89 19.2202C134.669 19.2202 133.672 18.9598 132.9 18.4389C132.128 17.9134 131.655 17.1676 131.48 16.2017L133.532 15.8892C133.66 16.4242 133.923 16.8291 134.321 17.1037C134.718 17.3736 135.237 17.5085 135.876 17.5085C136.572 17.5085 137.128 17.3641 137.545 17.0753C137.962 16.7817 138.17 16.4242 138.17 16.0028C138.17 15.6619 138.042 15.3755 137.787 15.1435C137.536 14.9115 137.15 14.7363 136.629 14.6179L134.782 14.2131C133.764 13.9811 133.011 13.6117 132.524 13.1051C132.041 12.5985 131.799 11.9569 131.799 11.1804C131.799 10.5365 131.979 9.97301 132.339 9.49006C132.699 9.0071 133.196 8.63068 133.831 8.3608C134.465 8.08617 135.192 7.94886 136.011 7.94886C137.19 7.94886 138.118 8.20455 138.795 8.71591C139.472 9.22254 139.92 9.90199 140.137 10.7543ZM154.889 14.4759V8.09091H157.02V19H154.931V17.1108H154.818C154.567 17.6932 154.164 18.1785 153.61 18.5668C153.061 18.9503 152.377 19.142 151.558 19.142C150.857 19.142 150.237 18.9882 149.697 18.6804C149.162 18.3679 148.741 17.9062 148.433 17.2955C148.13 16.6847 147.978 15.9295 147.978 15.0298V8.09091H150.102V14.7741C150.102 15.5175 150.308 16.1094 150.72 16.5497C151.132 16.9901 151.667 17.2102 152.325 17.2102C152.723 17.2102 153.118 17.1108 153.511 16.9119C153.909 16.7131 154.238 16.4124 154.498 16.0099C154.763 15.6075 154.894 15.0961 154.889 14.4759ZM168.048 10.7543L166.123 11.0952C166.042 10.849 165.915 10.6146 165.739 10.392C165.569 10.1695 165.337 9.98722 165.043 9.84517C164.75 9.70312 164.383 9.6321 163.942 9.6321C163.341 9.6321 162.839 9.76705 162.437 10.0369C162.034 10.3021 161.833 10.6454 161.833 11.0668C161.833 11.4313 161.968 11.7249 162.238 11.9474C162.508 12.17 162.943 12.3523 163.545 12.4943L165.278 12.892C166.281 13.1241 167.03 13.4815 167.522 13.9645C168.014 14.4474 168.261 15.0748 168.261 15.8466C168.261 16.5 168.071 17.0824 167.692 17.5938C167.318 18.1004 166.795 18.4981 166.123 18.7869C165.455 19.0758 164.681 19.2202 163.8 19.2202C162.579 19.2202 161.582 18.9598 160.81 18.4389C160.039 17.9134 159.565 17.1676 159.39 16.2017L161.442 15.8892C161.57 16.4242 161.833 16.8291 162.231 17.1037C162.629 17.3736 163.147 17.5085 163.786 17.5085C164.482 17.5085 165.039 17.3641 165.455 17.0753C165.872 16.7817 166.08 16.4242 166.08 16.0028C166.08 15.6619 165.952 15.3755 165.697 15.1435C165.446 14.9115 165.06 14.7363 164.539 14.6179L162.692 14.2131C161.674 13.9811 160.922 13.6117 160.434 13.1051C159.951 12.5985 159.71 11.9569 159.71 11.1804C159.71 10.5365 159.889 9.97301 160.249 9.49006C160.609 9.0071 161.106 8.63068 161.741 8.3608C162.375 8.08617 163.102 7.94886 163.921 7.94886C165.1 7.94886 166.028 8.20455 166.705 8.71591C167.382 9.22254 167.83 9.90199 168.048 10.7543ZM170.596 19V8.09091H172.719V19H170.596ZM171.668 6.40767C171.299 6.40767 170.981 6.28456 170.716 6.03835C170.456 5.7874 170.326 5.48911 170.326 5.14347C170.326 4.79309 170.456 4.49479 170.716 4.24858C170.981 3.99763 171.299 3.87216 171.668 3.87216C172.037 3.87216 172.352 3.99763 172.613 4.24858C172.878 4.49479 173.01 4.79309 173.01 5.14347C173.01 5.48911 172.878 5.7874 172.613 6.03835C172.352 6.28456 172.037 6.40767 171.668 6.40767ZM177.7 12.5227V19H175.576V8.09091H177.614V9.86648H177.749C178 9.28883 178.393 8.82481 178.928 8.47443C179.468 8.12405 180.147 7.94886 180.967 7.94886C181.71 7.94886 182.361 8.10511 182.92 8.41761C183.478 8.72538 183.912 9.18466 184.219 9.79545C184.527 10.4062 184.681 11.1615 184.681 12.0611V19H182.558V12.3168C182.558 11.526 182.352 10.9081 181.94 10.4631C181.528 10.0133 180.962 9.78835 180.242 9.78835C179.75 9.78835 179.312 9.89489 178.928 10.108C178.549 10.321 178.249 10.6335 178.026 11.0455C177.808 11.4527 177.7 11.9451 177.7 12.5227ZM192.103 23.3182C191.237 23.3182 190.491 23.2045 189.866 22.9773C189.246 22.75 188.739 22.4493 188.346 22.0753C187.953 21.7012 187.659 21.2917 187.465 20.8466L189.29 20.0938C189.418 20.3021 189.589 20.5223 189.802 20.7543C190.02 20.991 190.313 21.1922 190.683 21.358C191.057 21.5237 191.537 21.6065 192.124 21.6065C192.929 21.6065 193.594 21.41 194.12 21.017C194.646 20.6288 194.908 20.0085 194.908 19.1562V17.0114H194.773C194.646 17.2434 194.461 17.5014 194.219 17.7855C193.983 18.0696 193.656 18.3158 193.239 18.5241C192.823 18.7325 192.281 18.8366 191.613 18.8366C190.751 18.8366 189.975 18.6354 189.283 18.233C188.597 17.8258 188.052 17.2268 187.65 16.4361C187.252 15.6406 187.053 14.6629 187.053 13.5028C187.053 12.3428 187.25 11.3485 187.643 10.5199C188.04 9.69129 188.585 9.05682 189.276 8.61648C189.968 8.1714 190.751 7.94886 191.627 7.94886C192.304 7.94886 192.851 8.0625 193.268 8.28977C193.684 8.51231 194.009 8.77273 194.241 9.07102C194.478 9.36932 194.66 9.6321 194.788 9.85938H194.944V8.09091H197.025V19.2415C197.025 20.179 196.807 20.9484 196.371 21.5497C195.936 22.151 195.346 22.5961 194.603 22.8849C193.864 23.1738 193.031 23.3182 192.103 23.3182ZM192.082 17.0753C192.692 17.0753 193.209 16.9332 193.63 16.6491C194.056 16.3603 194.378 15.9484 194.596 15.4134C194.818 14.8736 194.93 14.2273 194.93 13.4744C194.93 12.7405 194.821 12.0942 194.603 11.5355C194.385 10.9768 194.066 10.5412 193.644 10.2287C193.223 9.91146 192.702 9.75284 192.082 9.75284C191.442 9.75284 190.91 9.91856 190.484 10.25C190.058 10.5767 189.736 11.0218 189.518 11.5852C189.305 12.1487 189.198 12.7784 189.198 13.4744C189.198 14.1894 189.307 14.8168 189.525 15.3565C189.743 15.8963 190.065 16.3177 190.491 16.6207C190.922 16.9238 191.452 17.0753 192.082 17.0753ZM207.289 12.5227V19H205.166V4.45455H207.261V9.86648H207.396C207.652 9.27936 208.042 8.81297 208.568 8.46733C209.093 8.12169 209.78 7.94886 210.627 7.94886C211.376 7.94886 212.029 8.10275 212.588 8.41051C213.151 8.71828 213.587 9.17756 213.895 9.78835C214.207 10.3944 214.363 11.152 214.363 12.0611V19H212.24V12.3168C212.24 11.5166 212.034 10.8963 211.622 10.456C211.21 10.0109 210.637 9.78835 209.903 9.78835C209.401 9.78835 208.951 9.89489 208.554 10.108C208.161 10.321 207.85 10.6335 207.623 11.0455C207.401 11.4527 207.289 11.9451 207.289 12.5227ZM221.899 19.2202C220.824 19.2202 219.898 18.9905 219.122 18.5312C218.35 18.0672 217.753 17.4162 217.332 16.5781C216.915 15.7353 216.707 14.7481 216.707 13.6165C216.707 12.4991 216.915 11.5142 217.332 10.6619C217.753 9.80966 218.341 9.14441 219.093 8.66619C219.851 8.18797 220.736 7.94886 221.75 7.94886C222.365 7.94886 222.962 8.05066 223.539 8.25426C224.117 8.45786 224.636 8.77746 225.095 9.21307C225.554 9.64867 225.916 10.2145 226.181 10.9105C226.447 11.6018 226.579 12.4422 226.579 13.4318V14.1847H217.907V12.5938H224.498C224.498 12.035 224.385 11.5402 224.157 11.1094C223.93 10.6738 223.61 10.3305 223.199 10.0795C222.791 9.8286 222.313 9.70312 221.764 9.70312C221.167 9.70312 220.646 9.84991 220.201 10.1435C219.761 10.4323 219.42 10.8111 219.179 11.2798C218.942 11.7438 218.824 12.2481 218.824 12.7926V14.0355C218.824 14.7647 218.951 15.3849 219.207 15.8963C219.467 16.4077 219.83 16.7983 220.294 17.0682C220.758 17.3333 221.3 17.4659 221.92 17.4659C222.323 17.4659 222.69 17.4091 223.021 17.2955C223.352 17.1771 223.639 17.0019 223.88 16.7699C224.122 16.5379 224.306 16.2514 224.434 15.9105L226.444 16.2727C226.283 16.8646 225.994 17.383 225.578 17.8281C225.166 18.2685 224.647 18.6117 224.022 18.858C223.402 19.0994 222.694 19.2202 221.899 19.2202ZM228.935 19V8.09091H230.988V9.82386H231.102C231.3 9.23674 231.651 8.77509 232.153 8.43892C232.659 8.09801 233.232 7.92756 233.871 7.92756C234.004 7.92756 234.16 7.93229 234.34 7.94176C234.525 7.95123 234.669 7.96307 234.773 7.97727V10.0085C234.688 9.98485 234.537 9.95881 234.319 9.9304C234.101 9.89725 233.883 9.88068 233.665 9.88068C233.164 9.88068 232.716 9.98722 232.323 10.2003C231.935 10.4086 231.627 10.6998 231.4 11.0739C231.173 11.4432 231.059 11.8646 231.059 12.3381V19H228.935ZM245.988 19.2131C245.107 19.2131 244.321 18.9882 243.63 18.5384C242.943 18.0838 242.404 17.4375 242.011 16.5994C241.622 15.7566 241.428 14.7457 241.428 13.5668C241.428 12.3878 241.625 11.3793 242.018 10.5412C242.415 9.70312 242.96 9.06155 243.651 8.61648C244.343 8.1714 245.126 7.94886 246.002 7.94886C246.679 7.94886 247.224 8.0625 247.636 8.28977C248.052 8.51231 248.374 8.77273 248.602 9.07102C248.834 9.36932 249.013 9.6321 249.141 9.85938H249.269V4.45455H251.393V19H249.319V17.3026H249.141C249.013 17.5346 248.829 17.7997 248.587 18.098C248.351 18.3963 248.024 18.6567 247.607 18.8793C247.191 19.1018 246.651 19.2131 245.988 19.2131ZM246.457 17.402C247.067 17.402 247.584 17.241 248.005 16.919C248.431 16.5923 248.753 16.1402 248.971 15.5625C249.193 14.9848 249.305 14.3125 249.305 13.5455C249.305 12.7879 249.196 12.125 248.978 11.5568C248.76 10.9886 248.441 10.5459 248.019 10.2287C247.598 9.91146 247.077 9.75284 246.457 9.75284C245.817 9.75284 245.285 9.91856 244.859 10.25C244.433 10.5814 244.111 11.0336 243.893 11.6065C243.68 12.1795 243.573 12.8258 243.573 13.5455C243.573 14.2746 243.682 14.9304 243.9 15.5128C244.118 16.0952 244.44 16.5568 244.866 16.8977C245.297 17.2339 245.827 17.402 246.457 17.402ZM259.125 19.2202C258.051 19.2202 257.125 18.9905 256.348 18.5312C255.577 18.0672 254.98 17.4162 254.559 16.5781C254.142 15.7353 253.934 14.7481 253.934 13.6165C253.934 12.4991 254.142 11.5142 254.559 10.6619C254.98 9.80966 255.567 9.14441 256.32 8.66619C257.078 8.18797 257.963 7.94886 258.976 7.94886C259.592 7.94886 260.188 8.05066 260.766 8.25426C261.344 8.45786 261.862 8.77746 262.321 9.21307C262.781 9.64867 263.143 10.2145 263.408 10.9105C263.673 11.6018 263.806 12.4422 263.806 13.4318V14.1847H255.134V12.5938H261.725C261.725 12.035 261.611 11.5402 261.384 11.1094C261.157 10.6738 260.837 10.3305 260.425 10.0795C260.018 9.8286 259.54 9.70312 258.99 9.70312C258.394 9.70312 257.873 9.84991 257.428 10.1435C256.988 10.4323 256.647 10.8111 256.405 11.2798C256.168 11.7438 256.05 12.2481 256.05 12.7926V14.0355C256.05 14.7647 256.178 15.3849 256.434 15.8963C256.694 16.4077 257.056 16.7983 257.52 17.0682C257.984 17.3333 258.526 17.4659 259.147 17.4659C259.549 17.4659 259.916 17.4091 260.248 17.2955C260.579 17.1771 260.865 17.0019 261.107 16.7699C261.348 16.5379 261.533 16.2514 261.661 15.9105L263.671 16.2727C263.51 16.8646 263.221 17.383 262.804 17.8281C262.392 18.2685 261.874 18.6117 261.249 18.858C260.629 19.0994 259.921 19.2202 259.125 19.2202ZM275.182 8.09091L271.226 19H268.953L264.99 8.09091H267.27L270.033 16.4858H270.146L272.902 8.09091H275.182ZM281.508 19.2202C280.433 19.2202 279.508 18.9905 278.731 18.5312C277.959 18.0672 277.363 17.4162 276.941 16.5781C276.525 15.7353 276.316 14.7481 276.316 13.6165C276.316 12.4991 276.525 11.5142 276.941 10.6619C277.363 9.80966 277.95 9.14441 278.703 8.66619C279.46 8.18797 280.346 7.94886 281.359 7.94886C281.975 7.94886 282.571 8.05066 283.149 8.25426C283.726 8.45786 284.245 8.77746 284.704 9.21307C285.163 9.64867 285.526 10.2145 285.791 10.9105C286.056 11.6018 286.189 12.4422 286.189 13.4318V14.1847H277.517V12.5938H284.108C284.108 12.035 283.994 11.5402 283.767 11.1094C283.539 10.6738 283.22 10.3305 282.808 10.0795C282.401 9.8286 281.922 9.70312 281.373 9.70312C280.777 9.70312 280.256 9.84991 279.811 10.1435C279.37 10.4323 279.029 10.8111 278.788 11.2798C278.551 11.7438 278.433 12.2481 278.433 12.7926V14.0355C278.433 14.7647 278.561 15.3849 278.816 15.8963C279.077 16.4077 279.439 16.7983 279.903 17.0682C280.367 17.3333 280.909 17.4659 281.529 17.4659C281.932 17.4659 282.299 17.4091 282.63 17.2955C282.962 17.1771 283.248 17.0019 283.49 16.7699C283.731 16.5379 283.916 16.2514 284.044 15.9105L286.054 16.2727C285.893 16.8646 285.604 17.383 285.187 17.8281C284.775 18.2685 284.257 18.6117 283.632 18.858C283.011 19.0994 282.304 19.2202 281.508 19.2202ZM290.668 4.45455V19H288.545V4.45455H290.668ZM298.12 19.2202C297.098 19.2202 296.205 18.9858 295.443 18.517C294.681 18.0483 294.089 17.3925 293.667 16.5497C293.246 15.7069 293.035 14.7221 293.035 13.5952C293.035 12.4635 293.246 11.474 293.667 10.6264C294.089 9.77888 294.681 9.12074 295.443 8.65199C296.205 8.18324 297.098 7.94886 298.12 7.94886C299.143 7.94886 300.036 8.18324 300.798 8.65199C301.56 9.12074 302.152 9.77888 302.574 10.6264C302.995 11.474 303.206 12.4635 303.206 13.5952C303.206 14.7221 302.995 15.7069 302.574 16.5497C302.152 17.3925 301.56 18.0483 300.798 18.517C300.036 18.9858 299.143 19.2202 298.12 19.2202ZM298.127 17.4375C298.79 17.4375 299.34 17.2623 299.775 16.9119C300.211 16.5616 300.533 16.0952 300.741 15.5128C300.954 14.9304 301.061 14.2888 301.061 13.5881C301.061 12.892 300.954 12.2528 300.741 11.6705C300.533 11.0833 300.211 10.6122 299.775 10.2571C299.34 9.90199 298.79 9.72443 298.127 9.72443C297.46 9.72443 296.906 9.90199 296.466 10.2571C296.03 10.6122 295.706 11.0833 295.493 11.6705C295.284 12.2528 295.18 12.892 295.18 13.5881C295.18 14.2888 295.284 14.9304 295.493 15.5128C295.706 16.0952 296.03 16.5616 296.466 16.9119C296.906 17.2623 297.46 17.4375 298.127 17.4375ZM305.576 23.0909V8.09091H307.65V9.85938H307.827C307.951 9.6321 308.128 9.36932 308.36 9.07102C308.592 8.77273 308.914 8.51231 309.326 8.28977C309.738 8.0625 310.282 7.94886 310.96 7.94886C311.84 7.94886 312.626 8.1714 313.317 8.61648C314.009 9.06155 314.551 9.70312 314.944 10.5412C315.342 11.3793 315.54 12.3878 315.54 13.5668C315.54 14.7457 315.344 15.7566 314.951 16.5994C314.558 17.4375 314.018 18.0838 313.332 18.5384C312.645 18.9882 311.862 19.2131 310.981 19.2131C310.318 19.2131 309.776 19.1018 309.354 18.8793C308.938 18.6567 308.611 18.3963 308.374 18.098C308.138 17.7997 307.955 17.5346 307.827 17.3026H307.7V23.0909H305.576ZM307.657 13.5455C307.657 14.3125 307.768 14.9848 307.991 15.5625C308.213 16.1402 308.535 16.5923 308.957 16.919C309.378 17.241 309.894 17.402 310.505 17.402C311.139 17.402 311.67 17.2339 312.096 16.8977C312.522 16.5568 312.844 16.0952 313.062 15.5128C313.284 14.9304 313.396 14.2746 313.396 13.5455C313.396 12.8258 313.287 12.1795 313.069 11.6065C312.856 11.0336 312.534 10.5814 312.103 10.25C311.677 9.91856 311.144 9.75284 310.505 9.75284C309.889 9.75284 309.369 9.91146 308.942 10.2287C308.521 10.5459 308.201 10.9886 307.984 11.5568C307.766 12.125 307.657 12.7879 307.657 13.5455ZM317.92 19V8.09091H319.958V9.86648H320.093C320.32 9.26515 320.692 8.7964 321.208 8.46023C321.724 8.11932 322.342 7.94886 323.062 7.94886C323.791 7.94886 324.402 8.11932 324.894 8.46023C325.391 8.80114 325.758 9.26989 325.995 9.86648H326.109C326.369 9.28409 326.783 8.82008 327.352 8.47443C327.92 8.12405 328.597 7.94886 329.383 7.94886C330.372 7.94886 331.18 8.259 331.805 8.87926C332.434 9.49953 332.749 10.4347 332.749 11.6847V19H330.626V11.8835C330.626 11.1449 330.424 10.6098 330.022 10.2784C329.62 9.94697 329.139 9.78125 328.58 9.78125C327.889 9.78125 327.352 9.99432 326.968 10.4205C326.585 10.8419 326.393 11.384 326.393 12.0469V19H324.276V11.7486C324.276 11.1567 324.092 10.6809 323.722 10.321C323.353 9.96117 322.872 9.78125 322.281 9.78125C321.878 9.78125 321.506 9.88778 321.165 10.1009C320.829 10.3092 320.557 10.6004 320.349 10.9744C320.145 11.3485 320.043 11.7817 320.043 12.2741V19H317.92ZM340.297 19.2202C339.222 19.2202 338.297 18.9905 337.52 18.5312C336.748 18.0672 336.152 17.4162 335.73 16.5781C335.314 15.7353 335.105 14.7481 335.105 13.6165C335.105 12.4991 335.314 11.5142 335.73 10.6619C336.152 9.80966 336.739 9.14441 337.492 8.66619C338.249 8.18797 339.135 7.94886 340.148 7.94886C340.764 7.94886 341.36 8.05066 341.938 8.25426C342.516 8.45786 343.034 8.77746 343.493 9.21307C343.953 9.64867 344.315 10.2145 344.58 10.9105C344.845 11.6018 344.978 12.4422 344.978 13.4318V14.1847H336.306V12.5938H342.897C342.897 12.035 342.783 11.5402 342.556 11.1094C342.328 10.6738 342.009 10.3305 341.597 10.0795C341.19 9.8286 340.712 9.70312 340.162 9.70312C339.566 9.70312 339.045 9.84991 338.6 10.1435C338.159 10.4323 337.819 10.8111 337.577 11.2798C337.34 11.7438 337.222 12.2481 337.222 12.7926V14.0355C337.222 14.7647 337.35 15.3849 337.605 15.8963C337.866 16.4077 338.228 16.7983 338.692 17.0682C339.156 17.3333 339.698 17.4659 340.319 17.4659C340.721 17.4659 341.088 17.4091 341.419 17.2955C341.751 17.1771 342.037 17.0019 342.279 16.7699C342.52 16.5379 342.705 16.2514 342.833 15.9105L344.843 16.2727C344.682 16.8646 344.393 17.383 343.976 17.8281C343.564 18.2685 343.046 18.6117 342.421 18.858C341.801 19.0994 341.093 19.2202 340.297 19.2202ZM349.457 12.5227V19H347.334V8.09091H349.372V9.86648H349.507C349.758 9.28883 350.151 8.82481 350.686 8.47443C351.226 8.12405 351.905 7.94886 352.724 7.94886C353.468 7.94886 354.119 8.10511 354.678 8.41761C355.236 8.72538 355.67 9.18466 355.977 9.79545C356.285 10.4062 356.439 11.1615 356.439 12.0611V19H354.315V12.3168C354.315 11.526 354.109 10.9081 353.697 10.4631C353.286 10.0133 352.72 9.78835 352 9.78835C351.508 9.78835 351.07 9.89489 350.686 10.108C350.307 10.321 350.007 10.6335 349.784 11.0455C349.566 11.4527 349.457 11.9451 349.457 12.5227ZM364.379 8.09091V9.79545H358.42V8.09091H364.379ZM360.018 5.47727H362.142V15.7969C362.142 16.2088 362.204 16.5189 362.327 16.7273C362.45 16.9309 362.608 17.0705 362.803 17.1463C363.001 17.2173 363.217 17.2528 363.449 17.2528C363.619 17.2528 363.768 17.241 363.896 17.2173C364.024 17.1937 364.124 17.1747 364.195 17.1605L364.578 18.9148C364.455 18.9621 364.28 19.0095 364.053 19.0568C363.825 19.1089 363.541 19.1373 363.2 19.142C362.642 19.1515 362.121 19.0521 361.638 18.8438C361.155 18.6354 360.764 18.3134 360.466 17.8778C360.168 17.4422 360.018 16.8954 360.018 16.2372V5.47727ZM380.196 10.7543L378.271 11.0952C378.191 10.849 378.063 10.6146 377.888 10.392C377.717 10.1695 377.485 9.98722 377.192 9.84517C376.898 9.70312 376.531 9.6321 376.091 9.6321C375.49 9.6321 374.988 9.76705 374.585 10.0369C374.183 10.3021 373.982 10.6454 373.982 11.0668C373.982 11.4313 374.116 11.7249 374.386 11.9474C374.656 12.17 375.092 12.3523 375.693 12.4943L377.426 12.892C378.43 13.1241 379.178 13.4815 379.67 13.9645C380.163 14.4474 380.409 15.0748 380.409 15.8466C380.409 16.5 380.22 17.0824 379.841 17.5938C379.467 18.1004 378.944 18.4981 378.271 18.7869C377.604 19.0758 376.83 19.2202 375.949 19.2202C374.727 19.2202 373.731 18.9598 372.959 18.4389C372.187 17.9134 371.714 17.1676 371.538 16.2017L373.591 15.8892C373.719 16.4242 373.982 16.8291 374.379 17.1037C374.777 17.3736 375.295 17.5085 375.935 17.5085C376.631 17.5085 377.187 17.3641 377.604 17.0753C378.02 16.7817 378.229 16.4242 378.229 16.0028C378.229 15.6619 378.101 15.3755 377.845 15.1435C377.594 14.9115 377.208 14.7363 376.688 14.6179L374.841 14.2131C373.823 13.9811 373.07 13.6117 372.582 13.1051C372.099 12.5985 371.858 11.9569 371.858 11.1804C371.858 10.5365 372.038 9.97301 372.398 9.49006C372.758 9.0071 373.255 8.63068 373.889 8.3608C374.524 8.08617 375.25 7.94886 376.07 7.94886C377.249 7.94886 378.177 8.20455 378.854 8.71591C379.531 9.22254 379.978 9.90199 380.196 10.7543ZM384.697 15.2997L384.683 12.7074H385.052L389.399 8.09091H391.941L386.984 13.3466H386.65L384.697 15.2997ZM382.744 19V4.45455H384.868V19H382.744ZM389.633 19L385.727 13.8153L387.19 12.331L392.24 19H389.633ZM393.877 19V8.09091H396V19H393.877ZM394.949 6.40767C394.58 6.40767 394.263 6.28456 393.998 6.03835C393.737 5.7874 393.607 5.48911 393.607 5.14347C393.607 4.79309 393.737 4.49479 393.998 4.24858C394.263 3.99763 394.58 3.87216 394.949 3.87216C395.319 3.87216 395.633 3.99763 395.894 4.24858C396.159 4.49479 396.292 4.79309 396.292 5.14347C396.292 5.48911 396.159 5.7874 395.894 6.03835C395.633 6.28456 395.319 6.40767 394.949 6.40767ZM400.981 4.45455V19H398.857V4.45455H400.981ZM405.961 4.45455V19H403.838V4.45455H405.961ZM416.993 10.7543L415.068 11.0952C414.988 10.849 414.86 10.6146 414.685 10.392C414.514 10.1695 414.282 9.98722 413.989 9.84517C413.695 9.70312 413.328 9.6321 412.888 9.6321C412.286 9.6321 411.785 9.76705 411.382 10.0369C410.98 10.3021 410.778 10.6454 410.778 11.0668C410.778 11.4313 410.913 11.7249 411.183 11.9474C411.453 12.17 411.889 12.3523 412.49 12.4943L414.223 12.892C415.227 13.1241 415.975 13.4815 416.467 13.9645C416.96 14.4474 417.206 15.0748 417.206 15.8466C417.206 16.5 417.017 17.0824 416.638 17.5938C416.264 18.1004 415.741 18.4981 415.068 18.7869C414.401 19.0758 413.626 19.2202 412.746 19.2202C411.524 19.2202 410.527 18.9598 409.756 18.4389C408.984 17.9134 408.51 17.1676 408.335 16.2017L410.388 15.8892C410.516 16.4242 410.778 16.8291 411.176 17.1037C411.574 17.3736 412.092 17.5085 412.732 17.5085C413.428 17.5085 413.984 17.3641 414.401 17.0753C414.817 16.7817 415.026 16.4242 415.026 16.0028C415.026 15.6619 414.898 15.3755 414.642 15.1435C414.391 14.9115 414.005 14.7363 413.484 14.6179L411.638 14.2131C410.62 13.9811 409.867 13.6117 409.379 13.1051C408.896 12.5985 408.655 11.9569 408.655 11.1804C408.655 10.5365 408.835 9.97301 409.195 9.49006C409.554 9.0071 410.052 8.63068 410.686 8.3608C411.321 8.08617 412.047 7.94886 412.866 7.94886C414.045 7.94886 414.973 8.20455 415.651 8.71591C416.328 9.22254 416.775 9.90199 416.993 10.7543ZM429.926 8.09091V9.79545H423.967V8.09091H429.926ZM425.565 5.47727H427.689V15.7969C427.689 16.2088 427.75 16.5189 427.874 16.7273C427.997 16.9309 428.155 17.0705 428.349 17.1463C428.548 17.2173 428.764 17.2528 428.996 17.2528C429.166 17.2528 429.315 17.241 429.443 17.2173C429.571 17.1937 429.67 17.1747 429.741 17.1605L430.125 18.9148C430.002 18.9621 429.827 19.0095 429.599 19.0568C429.372 19.1089 429.088 19.1373 428.747 19.142C428.188 19.1515 427.668 19.0521 427.185 18.8438C426.702 18.6354 426.311 18.3134 426.013 17.8778C425.714 17.4422 425.565 16.8954 425.565 16.2372V5.47727ZM436.753 19.2202C435.73 19.2202 434.838 18.9858 434.076 18.517C433.313 18.0483 432.721 17.3925 432.3 16.5497C431.879 15.7069 431.668 14.7221 431.668 13.5952C431.668 12.4635 431.879 11.474 432.3 10.6264C432.721 9.77888 433.313 9.12074 434.076 8.65199C434.838 8.18324 435.73 7.94886 436.753 7.94886C437.776 7.94886 438.668 8.18324 439.431 8.65199C440.193 9.12074 440.785 9.77888 441.206 10.6264C441.628 11.474 441.838 12.4635 441.838 13.5952C441.838 14.7221 441.628 15.7069 441.206 16.5497C440.785 17.3925 440.193 18.0483 439.431 18.517C438.668 18.9858 437.776 19.2202 436.753 19.2202ZM436.76 17.4375C437.423 17.4375 437.972 17.2623 438.408 16.9119C438.844 16.5616 439.166 16.0952 439.374 15.5128C439.587 14.9304 439.694 14.2888 439.694 13.5881C439.694 12.892 439.587 12.2528 439.374 11.6705C439.166 11.0833 438.844 10.6122 438.408 10.2571C437.972 9.90199 437.423 9.72443 436.76 9.72443C436.093 9.72443 435.539 9.90199 435.098 10.2571C434.663 10.6122 434.338 11.0833 434.125 11.6705C433.917 12.2528 433.813 12.892 433.813 13.5881C433.813 14.2888 433.917 14.9304 434.125 15.5128C434.338 16.0952 434.663 16.5616 435.098 16.9119C435.539 17.2623 436.093 17.4375 436.76 17.4375ZM96.1619 43V32.0909H98.2003V33.8665H98.3352C98.5625 33.2652 98.9342 32.7964 99.4503 32.4602C99.9664 32.1193 100.584 31.9489 101.304 31.9489C102.033 31.9489 102.644 32.1193 103.136 32.4602C103.634 32.8011 104 33.2699 104.237 33.8665H104.351C104.611 33.2841 105.026 32.8201 105.594 32.4744C106.162 32.1241 106.839 31.9489 107.625 31.9489C108.615 31.9489 109.422 32.259 110.047 32.8793C110.677 33.4995 110.991 34.4347 110.991 35.6847V43H108.868V35.8835C108.868 35.1449 108.667 34.6098 108.264 34.2784C107.862 33.947 107.381 33.7812 106.822 33.7812C106.131 33.7812 105.594 33.9943 105.21 34.4205C104.827 34.8419 104.635 35.384 104.635 36.0469V43H102.518V35.7486C102.518 35.1567 102.334 34.6809 101.964 34.321C101.595 33.9612 101.115 33.7812 100.523 33.7812C100.12 33.7812 99.7486 33.8878 99.4077 34.1009C99.0715 34.3092 98.7992 34.6004 98.5909 34.9744C98.3873 35.3485 98.2855 35.7817 98.2855 36.2741V43H96.1619ZM117.012 43.2415C116.321 43.2415 115.696 43.1136 115.137 42.858C114.579 42.5975 114.136 42.2211 113.809 41.7287C113.487 41.2363 113.326 40.6326 113.326 39.9176C113.326 39.3021 113.445 38.7955 113.681 38.3977C113.918 38 114.238 37.6851 114.64 37.4531C115.043 37.2211 115.493 37.0459 115.99 36.9276C116.487 36.8092 116.993 36.7192 117.51 36.6577C118.163 36.5819 118.693 36.5204 119.1 36.473C119.508 36.4209 119.804 36.3381 119.988 36.2244C120.173 36.1108 120.265 35.9261 120.265 35.6705V35.6207C120.265 35.0005 120.09 34.5199 119.74 34.179C119.394 33.8381 118.878 33.6676 118.191 33.6676C117.476 33.6676 116.913 33.8262 116.501 34.1435C116.094 34.456 115.812 34.804 115.656 35.1875L113.66 34.733C113.897 34.0701 114.243 33.535 114.697 33.1278C115.156 32.7159 115.684 32.4176 116.281 32.233C116.877 32.0436 117.505 31.9489 118.163 31.9489C118.599 31.9489 119.06 32.0009 119.548 32.1051C120.04 32.2045 120.5 32.3892 120.926 32.6591C121.357 32.929 121.709 33.3149 121.984 33.8168C122.259 34.3139 122.396 34.9602 122.396 35.7557V43H120.322V41.5085H120.237C120.1 41.7831 119.894 42.053 119.619 42.3182C119.344 42.5833 118.992 42.8035 118.561 42.9787C118.13 43.1539 117.614 43.2415 117.012 43.2415ZM117.474 41.5369C118.061 41.5369 118.563 41.4209 118.98 41.1889C119.401 40.9569 119.721 40.6539 119.939 40.2798C120.161 39.901 120.272 39.4962 120.272 39.0653V37.6591C120.197 37.7348 120.05 37.8059 119.832 37.8722C119.619 37.9337 119.375 37.9882 119.1 38.0355C118.826 38.0781 118.558 38.1184 118.298 38.1562C118.038 38.1894 117.82 38.2178 117.645 38.2415C117.233 38.2936 116.856 38.3812 116.515 38.5043C116.179 38.6274 115.909 38.8049 115.706 39.0369C115.507 39.2642 115.407 39.5672 115.407 39.946C115.407 40.4716 115.601 40.8693 115.99 41.1392C116.378 41.4044 116.873 41.5369 117.474 41.5369ZM127.178 39.2997L127.163 36.7074H127.533L131.879 32.0909H134.422L129.464 37.3466H129.131L127.178 39.2997ZM125.224 43V28.4545H127.348V43H125.224ZM132.114 43L128.207 37.8153L129.67 36.331L134.72 43H132.114ZM140.61 43.2202C139.535 43.2202 138.609 42.9905 137.833 42.5312C137.061 42.0672 136.464 41.4162 136.043 40.5781C135.626 39.7353 135.418 38.7481 135.418 37.6165C135.418 36.4991 135.626 35.5142 136.043 34.6619C136.464 33.8097 137.051 33.1444 137.804 32.6662C138.562 32.188 139.447 31.9489 140.461 31.9489C141.076 31.9489 141.673 32.0507 142.25 32.2543C142.828 32.4579 143.346 32.7775 143.806 33.2131C144.265 33.6487 144.627 34.2145 144.892 34.9105C145.158 35.6018 145.29 36.4422 145.29 37.4318V38.1847H136.618V36.5938H143.209C143.209 36.035 143.096 35.5402 142.868 35.1094C142.641 34.6738 142.321 34.3305 141.909 34.0795C141.502 33.8286 141.024 33.7031 140.475 33.7031C139.878 33.7031 139.357 33.8499 138.912 34.1435C138.472 34.4323 138.131 34.8111 137.89 35.2798C137.653 35.7438 137.534 36.2481 137.534 36.7926V38.0355C137.534 38.7647 137.662 39.3849 137.918 39.8963C138.178 40.4077 138.541 40.7983 139.005 41.0682C139.469 41.3333 140.011 41.4659 140.631 41.4659C141.033 41.4659 141.4 41.4091 141.732 41.2955C142.063 41.1771 142.35 41.0019 142.591 40.7699C142.833 40.5379 143.017 40.2514 143.145 39.9105L145.155 40.2727C144.994 40.8646 144.705 41.383 144.289 41.8281C143.877 42.2685 143.358 42.6117 142.733 42.858C142.113 43.0994 141.405 43.2202 140.61 43.2202ZM155.063 36.5227V43H152.939V28.4545H155.034V33.8665H155.169C155.425 33.2794 155.816 32.813 156.341 32.4673C156.867 32.1217 157.553 31.9489 158.401 31.9489C159.149 31.9489 159.802 32.1027 160.361 32.4105C160.925 32.7183 161.36 33.1776 161.668 33.7884C161.98 34.3944 162.137 35.152 162.137 36.0611V43H160.013V36.3168C160.013 35.5166 159.807 34.8963 159.395 34.456C158.983 34.0109 158.41 33.7884 157.676 33.7884C157.175 33.7884 156.725 33.8949 156.327 34.108C155.934 34.321 155.624 34.6335 155.397 35.0455C155.174 35.4527 155.063 35.9451 155.063 36.5227ZM169.672 43.2202C168.597 43.2202 167.672 42.9905 166.895 42.5312C166.123 42.0672 165.527 41.4162 165.105 40.5781C164.689 39.7353 164.48 38.7481 164.48 37.6165C164.48 36.4991 164.689 35.5142 165.105 34.6619C165.527 33.8097 166.114 33.1444 166.867 32.6662C167.624 32.188 168.51 31.9489 169.523 31.9489C170.139 31.9489 170.735 32.0507 171.313 32.2543C171.891 32.4579 172.409 32.7775 172.868 33.2131C173.328 33.6487 173.69 34.2145 173.955 34.9105C174.22 35.6018 174.353 36.4422 174.353 37.4318V38.1847H165.681V36.5938H172.272C172.272 36.035 172.158 35.5402 171.931 35.1094C171.703 34.6738 171.384 34.3305 170.972 34.0795C170.565 33.8286 170.087 33.7031 169.537 33.7031C168.941 33.7031 168.42 33.8499 167.975 34.1435C167.534 34.4323 167.194 34.8111 166.952 35.2798C166.715 35.7438 166.597 36.2481 166.597 36.7926V38.0355C166.597 38.7647 166.725 39.3849 166.98 39.8963C167.241 40.4077 167.603 40.7983 168.067 41.0682C168.531 41.3333 169.073 41.4659 169.694 41.4659C170.096 41.4659 170.463 41.4091 170.794 41.2955C171.126 41.1771 171.412 41.0019 171.654 40.7699C171.895 40.5379 172.08 40.2514 172.208 39.9105L174.218 40.2727C174.057 40.8646 173.768 41.383 173.351 41.8281C172.939 42.2685 172.421 42.6117 171.796 42.858C171.176 43.0994 170.468 43.2202 169.672 43.2202ZM176.709 43V32.0909H178.761V33.8239H178.875C179.074 33.2367 179.424 32.7751 179.926 32.4389C180.433 32.098 181.006 31.9276 181.645 31.9276C181.777 31.9276 181.934 31.9323 182.114 31.9418C182.298 31.9512 182.443 31.9631 182.547 31.9773V34.0085C182.462 33.9848 182.31 33.9588 182.092 33.9304C181.875 33.8973 181.657 33.8807 181.439 33.8807C180.937 33.8807 180.49 33.9872 180.097 34.2003C179.708 34.4086 179.401 34.6998 179.173 35.0739C178.946 35.4432 178.832 35.8646 178.832 36.3381V43H176.709ZM197.852 34.7543L195.928 35.0952C195.847 34.849 195.719 34.6146 195.544 34.392C195.374 34.1695 195.142 33.9872 194.848 33.8452C194.554 33.7031 194.188 33.6321 193.747 33.6321C193.146 33.6321 192.644 33.767 192.241 34.0369C191.839 34.3021 191.638 34.6454 191.638 35.0668C191.638 35.4313 191.773 35.7249 192.043 35.9474C192.313 36.17 192.748 36.3523 193.349 36.4943L195.082 36.892C196.086 37.1241 196.834 37.4815 197.327 37.9645C197.819 38.4474 198.065 39.0748 198.065 39.8466C198.065 40.5 197.876 41.0824 197.497 41.5938C197.123 42.1004 196.6 42.4981 195.928 42.7869C195.26 43.0758 194.486 43.2202 193.605 43.2202C192.384 43.2202 191.387 42.9598 190.615 42.4389C189.843 41.9134 189.37 41.1676 189.195 40.2017L191.247 39.8892C191.375 40.4242 191.638 40.8291 192.036 41.1037C192.433 41.3736 192.952 41.5085 193.591 41.5085C194.287 41.5085 194.843 41.3641 195.26 41.0753C195.677 40.7817 195.885 40.4242 195.885 40.0028C195.885 39.6619 195.757 39.3755 195.501 39.1435C195.25 38.9115 194.865 38.7363 194.344 38.6179L192.497 38.2131C191.479 37.9811 190.726 37.6117 190.239 37.1051C189.756 36.5985 189.514 35.9569 189.514 35.1804C189.514 34.5365 189.694 33.973 190.054 33.4901C190.414 33.0071 190.911 32.6307 191.545 32.3608C192.18 32.0862 192.907 31.9489 193.726 31.9489C194.905 31.9489 195.833 32.2045 196.51 32.7159C197.187 33.2225 197.634 33.902 197.852 34.7543ZM200.4 43V32.0909H202.524V43H200.4ZM201.473 30.4077C201.103 30.4077 200.786 30.2846 200.521 30.0384C200.261 29.7874 200.13 29.4891 200.13 29.1435C200.13 28.7931 200.261 28.4948 200.521 28.2486C200.786 27.9976 201.103 27.8722 201.473 27.8722C201.842 27.8722 202.157 27.9976 202.417 28.2486C202.682 28.4948 202.815 28.7931 202.815 29.1435C202.815 29.4891 202.682 29.7874 202.417 30.0384C202.157 30.2846 201.842 30.4077 201.473 30.4077ZM207.504 28.4545V43H205.381V28.4545H207.504ZM212.485 28.4545V43H210.361V28.4545H212.485ZM216.684 47.0909C216.367 47.0909 216.078 47.0649 215.817 47.0128C215.557 46.9654 215.363 46.9134 215.235 46.8565L215.746 45.1165C216.135 45.2206 216.48 45.2656 216.783 45.2514C217.086 45.2372 217.354 45.1236 217.586 44.9105C217.823 44.6974 218.031 44.3494 218.211 43.8665L218.474 43.142L214.482 32.0909H216.755L219.518 40.5568H219.631L222.394 32.0909H224.674L220.178 44.456C219.97 45.0241 219.705 45.5047 219.383 45.8977C219.061 46.2955 218.677 46.5938 218.232 46.7926C217.787 46.9915 217.271 47.0909 216.684 47.0909ZM231.963 43V32.0909H234.086V43H231.963ZM233.035 30.4077C232.666 30.4077 232.349 30.2846 232.083 30.0384C231.823 29.7874 231.693 29.4891 231.693 29.1435C231.693 28.7931 231.823 28.4948 232.083 28.2486C232.349 27.9976 232.666 27.8722 233.035 27.8722C233.404 27.8722 233.719 27.9976 233.98 28.2486C234.245 28.4948 234.377 28.7931 234.377 29.1435C234.377 29.4891 234.245 29.7874 233.98 30.0384C233.719 30.2846 233.404 30.4077 233.035 30.4077ZM241.027 43.2131C240.146 43.2131 239.36 42.9882 238.669 42.5384C237.982 42.0838 237.443 41.4375 237.05 40.5994C236.661 39.7566 236.467 38.7457 236.467 37.5668C236.467 36.3878 236.664 35.3793 237.057 34.5412C237.455 33.7031 237.999 33.0616 238.69 32.6165C239.382 32.1714 240.165 31.9489 241.041 31.9489C241.718 31.9489 242.263 32.0625 242.675 32.2898C243.091 32.5123 243.413 32.7727 243.641 33.071C243.873 33.3693 244.053 33.6321 244.18 33.8594H244.308V28.4545H246.432V43H244.358V41.3026H244.18C244.053 41.5346 243.868 41.7997 243.626 42.098C243.39 42.3963 243.063 42.6567 242.646 42.8793C242.23 43.1018 241.69 43.2131 241.027 43.2131ZM241.496 41.402C242.107 41.402 242.623 41.241 243.044 40.919C243.47 40.5923 243.792 40.1402 244.01 39.5625C244.232 38.9848 244.344 38.3125 244.344 37.5455C244.344 36.7879 244.235 36.125 244.017 35.5568C243.799 34.9886 243.48 34.5459 243.058 34.2287C242.637 33.9115 242.116 33.7528 241.496 33.7528C240.857 33.7528 240.324 33.9186 239.898 34.25C239.472 34.5814 239.15 35.0336 238.932 35.6065C238.719 36.1795 238.612 36.8258 238.612 37.5455C238.612 38.2746 238.721 38.9304 238.939 39.5128C239.157 40.0952 239.479 40.5568 239.905 40.8977C240.336 41.2339 240.866 41.402 241.496 41.402ZM254.164 43.2202C253.09 43.2202 252.164 42.9905 251.387 42.5312C250.616 42.0672 250.019 41.4162 249.598 40.5781C249.181 39.7353 248.973 38.7481 248.973 37.6165C248.973 36.4991 249.181 35.5142 249.598 34.6619C250.019 33.8097 250.606 33.1444 251.359 32.6662C252.117 32.188 253.002 31.9489 254.015 31.9489C254.631 31.9489 255.227 32.0507 255.805 32.2543C256.383 32.4579 256.901 32.7775 257.36 33.2131C257.82 33.6487 258.182 34.2145 258.447 34.9105C258.712 35.6018 258.845 36.4422 258.845 37.4318V38.1847H250.173V36.5938H256.764C256.764 36.035 256.65 35.5402 256.423 35.1094C256.196 34.6738 255.876 34.3305 255.464 34.0795C255.057 33.8286 254.579 33.7031 254.029 33.7031C253.433 33.7031 252.912 33.8499 252.467 34.1435C252.027 34.4323 251.686 34.8111 251.444 35.2798C251.208 35.7438 251.089 36.2481 251.089 36.7926V38.0355C251.089 38.7647 251.217 39.3849 251.473 39.8963C251.733 40.4077 252.095 40.7983 252.559 41.0682C253.023 41.3333 253.565 41.4659 254.186 41.4659C254.588 41.4659 254.955 41.4091 255.287 41.2955C255.618 41.1771 255.904 41.0019 256.146 40.7699C256.387 40.5379 256.572 40.2514 256.7 39.9105L258.71 40.2727C258.549 40.8646 258.26 41.383 257.843 41.8281C257.431 42.2685 256.913 42.6117 256.288 42.858C255.668 43.0994 254.96 43.2202 254.164 43.2202ZM264.376 43.2415C263.684 43.2415 263.059 43.1136 262.501 42.858C261.942 42.5975 261.499 42.2211 261.173 41.7287C260.851 41.2363 260.69 40.6326 260.69 39.9176C260.69 39.3021 260.808 38.7955 261.045 38.3977C261.281 38 261.601 37.6851 262.004 37.4531C262.406 37.2211 262.856 37.0459 263.353 36.9276C263.85 36.8092 264.357 36.7192 264.873 36.6577C265.526 36.5819 266.057 36.5204 266.464 36.473C266.871 36.4209 267.167 36.3381 267.352 36.2244C267.536 36.1108 267.629 35.9261 267.629 35.6705V35.6207C267.629 35.0005 267.453 34.5199 267.103 34.179C266.757 33.8381 266.241 33.6676 265.555 33.6676C264.84 33.6676 264.276 33.8262 263.864 34.1435C263.457 34.456 263.175 34.804 263.019 35.1875L261.023 34.733C261.26 34.0701 261.606 33.535 262.06 33.1278C262.52 32.7159 263.048 32.4176 263.644 32.233C264.241 32.0436 264.868 31.9489 265.526 31.9489C265.962 31.9489 266.424 32.0009 266.911 32.1051C267.404 32.2045 267.863 32.3892 268.289 32.6591C268.72 32.929 269.073 33.3149 269.347 33.8168C269.622 34.3139 269.759 34.9602 269.759 35.7557V43H267.685V41.5085H267.6C267.463 41.7831 267.257 42.053 266.982 42.3182C266.708 42.5833 266.355 42.8035 265.924 42.9787C265.493 43.1539 264.977 43.2415 264.376 43.2415ZM264.837 41.5369C265.424 41.5369 265.926 41.4209 266.343 41.1889C266.764 40.9569 267.084 40.6539 267.302 40.2798C267.524 39.901 267.636 39.4962 267.636 39.0653V37.6591C267.56 37.7348 267.413 37.8059 267.195 37.8722C266.982 37.9337 266.738 37.9882 266.464 38.0355C266.189 38.0781 265.922 38.1184 265.661 38.1562C265.401 38.1894 265.183 38.2178 265.008 38.2415C264.596 38.2936 264.219 38.3812 263.879 38.5043C263.542 38.6274 263.272 38.8049 263.069 39.0369C262.87 39.2642 262.771 39.5672 262.771 39.946C262.771 40.4716 262.965 40.8693 263.353 41.1392C263.741 41.4044 264.236 41.5369 264.837 41.5369ZM280.762 34.7543L278.838 35.0952C278.757 34.849 278.629 34.6146 278.454 34.392C278.284 34.1695 278.052 33.9872 277.758 33.8452C277.465 33.7031 277.098 33.6321 276.657 33.6321C276.056 33.6321 275.554 33.767 275.152 34.0369C274.749 34.3021 274.548 34.6454 274.548 35.0668C274.548 35.4313 274.683 35.7249 274.953 35.9474C275.223 36.17 275.658 36.3523 276.26 36.4943L277.993 36.892C278.996 37.1241 279.744 37.4815 280.237 37.9645C280.729 38.4474 280.975 39.0748 280.975 39.8466C280.975 40.5 280.786 41.0824 280.407 41.5938C280.033 42.1004 279.51 42.4981 278.838 42.7869C278.17 43.0758 277.396 43.2202 276.515 43.2202C275.294 43.2202 274.297 42.9598 273.525 42.4389C272.753 41.9134 272.28 41.1676 272.105 40.2017L274.157 39.8892C274.285 40.4242 274.548 40.8291 274.946 41.1037C275.343 41.3736 275.862 41.5085 276.501 41.5085C277.197 41.5085 277.753 41.3641 278.17 41.0753C278.587 40.7817 278.795 40.4242 278.795 40.0028C278.795 39.6619 278.667 39.3755 278.412 39.1435C278.161 38.9115 277.775 38.7363 277.254 38.6179L275.407 38.2131C274.389 37.9811 273.636 37.6117 273.149 37.1051C272.666 36.5985 272.424 35.9569 272.424 35.1804C272.424 34.5365 272.604 33.973 272.964 33.4901C273.324 33.0071 273.821 32.6307 274.456 32.3608C275.09 32.0862 275.817 31.9489 276.636 31.9489C277.815 31.9489 278.743 32.2045 279.42 32.7159C280.097 33.2225 280.545 33.902 280.762 34.7543ZM293.199 43.2202C292.143 43.2202 291.234 42.9811 290.471 42.5028C289.714 42.0199 289.131 41.3546 288.724 40.5071C288.317 39.6596 288.113 38.6889 288.113 37.5952C288.113 36.4872 288.322 35.5095 288.738 34.6619C289.155 33.8097 289.742 33.1444 290.5 32.6662C291.257 32.188 292.15 31.9489 293.177 31.9489C294.006 31.9489 294.744 32.1027 295.393 32.4105C296.042 32.7135 296.565 33.1397 296.963 33.6889C297.365 34.2382 297.604 34.8797 297.68 35.6136H295.613C295.5 35.1023 295.239 34.6619 294.832 34.2926C294.43 33.9233 293.89 33.7386 293.213 33.7386C292.621 33.7386 292.102 33.8949 291.657 34.2074C291.217 34.5152 290.874 34.9555 290.627 35.5284C290.381 36.0966 290.258 36.7689 290.258 37.5455C290.258 38.3409 290.379 39.0275 290.62 39.6051C290.862 40.1828 291.203 40.6302 291.643 40.9474C292.088 41.2647 292.611 41.4233 293.213 41.4233C293.615 41.4233 293.98 41.3499 294.306 41.2031C294.638 41.0516 294.915 40.8362 295.137 40.5568C295.365 40.2775 295.523 39.9413 295.613 39.5483H297.68C297.604 40.2538 297.375 40.8835 296.991 41.4375C296.608 41.9915 296.094 42.4271 295.45 42.7443C294.811 43.0616 294.06 43.2202 293.199 43.2202ZM304.546 43.2202C303.523 43.2202 302.631 42.9858 301.869 42.517C301.106 42.0483 300.514 41.3925 300.093 40.5497C299.672 39.7069 299.461 38.7221 299.461 37.5952C299.461 36.4635 299.672 35.474 300.093 34.6264C300.514 33.7789 301.106 33.1207 301.869 32.652C302.631 32.1832 303.523 31.9489 304.546 31.9489C305.569 31.9489 306.461 32.1832 307.224 32.652C307.986 33.1207 308.578 33.7789 308.999 34.6264C309.421 35.474 309.631 36.4635 309.631 37.5952C309.631 38.7221 309.421 39.7069 308.999 40.5497C308.578 41.3925 307.986 42.0483 307.224 42.517C306.461 42.9858 305.569 43.2202 304.546 43.2202ZM304.553 41.4375C305.216 41.4375 305.765 41.2623 306.201 40.9119C306.637 40.5616 306.959 40.0952 307.167 39.5128C307.38 38.9304 307.487 38.2888 307.487 37.5881C307.487 36.892 307.38 36.2528 307.167 35.6705C306.959 35.0833 306.637 34.6122 306.201 34.2571C305.765 33.902 305.216 33.7244 304.553 33.7244C303.886 33.7244 303.332 33.902 302.891 34.2571C302.456 34.6122 302.131 35.0833 301.918 35.6705C301.71 36.2528 301.606 36.892 301.606 37.5881C301.606 38.2888 301.71 38.9304 301.918 39.5128C302.131 40.0952 302.456 40.5616 302.891 40.9119C303.332 41.2623 303.886 41.4375 304.553 41.4375ZM312.002 43V32.0909H314.04V33.8665H314.175C314.402 33.2652 314.774 32.7964 315.29 32.4602C315.806 32.1193 316.424 31.9489 317.144 31.9489C317.873 31.9489 318.484 32.1193 318.976 32.4602C319.473 32.8011 319.84 33.2699 320.077 33.8665H320.191C320.451 33.2841 320.865 32.8201 321.434 32.4744C322.002 32.1241 322.679 31.9489 323.465 31.9489C324.454 31.9489 325.262 32.259 325.887 32.8793C326.516 33.4995 326.831 34.4347 326.831 35.6847V43H324.708V35.8835C324.708 35.1449 324.507 34.6098 324.104 34.2784C323.702 33.947 323.221 33.7812 322.662 33.7812C321.971 33.7812 321.434 33.9943 321.05 34.4205C320.667 34.8419 320.475 35.384 320.475 36.0469V43H318.358V35.7486C318.358 35.1567 318.174 34.6809 317.804 34.321C317.435 33.9612 316.954 33.7812 316.363 33.7812C315.96 33.7812 315.588 33.8878 315.248 34.1009C314.911 34.3092 314.639 34.6004 314.431 34.9744C314.227 35.3485 314.125 35.7817 314.125 36.2741V43H312.002ZM334.379 43.2202C333.304 43.2202 332.379 42.9905 331.602 42.5312C330.83 42.0672 330.234 41.4162 329.812 40.5781C329.396 39.7353 329.188 38.7481 329.188 37.6165C329.188 36.4991 329.396 35.5142 329.812 34.6619C330.234 33.8097 330.821 33.1444 331.574 32.6662C332.331 32.188 333.217 31.9489 334.23 31.9489C334.846 31.9489 335.442 32.0507 336.02 32.2543C336.598 32.4579 337.116 32.7775 337.575 33.2131C338.035 33.6487 338.397 34.2145 338.662 34.9105C338.927 35.6018 339.06 36.4422 339.06 37.4318V38.1847H330.388V36.5938H336.979C336.979 36.035 336.865 35.5402 336.638 35.1094C336.411 34.6738 336.091 34.3305 335.679 34.0795C335.272 33.8286 334.794 33.7031 334.244 33.7031C333.648 33.7031 333.127 33.8499 332.682 34.1435C332.241 34.4323 331.901 34.8111 331.659 35.2798C331.422 35.7438 331.304 36.2481 331.304 36.7926V38.0355C331.304 38.7647 331.432 39.3849 331.688 39.8963C331.948 40.4077 332.31 40.7983 332.774 41.0682C333.238 41.3333 333.78 41.4659 334.401 41.4659C334.803 41.4659 335.17 41.4091 335.501 41.2955C335.833 41.1771 336.119 41.0019 336.361 40.7699C336.602 40.5379 336.787 40.2514 336.915 39.9105L338.925 40.2727C338.764 40.8646 338.475 41.383 338.058 41.8281C337.646 42.2685 337.128 42.6117 336.503 42.858C335.883 43.0994 335.175 43.2202 334.379 43.2202ZM351.801 32.0909V33.7955H345.842V32.0909H351.801ZM347.44 29.4773H349.564V39.7969C349.564 40.2088 349.625 40.5189 349.749 40.7273C349.872 40.9309 350.03 41.0705 350.224 41.1463C350.423 41.2173 350.639 41.2528 350.871 41.2528C351.041 41.2528 351.19 41.241 351.318 41.2173C351.446 41.1937 351.545 41.1747 351.616 41.1605L352 42.9148C351.877 42.9621 351.702 43.0095 351.474 43.0568C351.247 43.1089 350.963 43.1373 350.622 43.142C350.063 43.1515 349.543 43.0521 349.06 42.8438C348.577 42.6354 348.186 42.3134 347.888 41.8778C347.589 41.4422 347.44 40.8954 347.44 40.2372V29.4773ZM358.628 43.2202C357.605 43.2202 356.713 42.9858 355.951 42.517C355.188 42.0483 354.596 41.3925 354.175 40.5497C353.754 39.7069 353.543 38.7221 353.543 37.5952C353.543 36.4635 353.754 35.474 354.175 34.6264C354.596 33.7789 355.188 33.1207 355.951 32.652C356.713 32.1832 357.605 31.9489 358.628 31.9489C359.651 31.9489 360.543 32.1832 361.306 32.652C362.068 33.1207 362.66 33.7789 363.081 34.6264C363.503 35.474 363.713 36.4635 363.713 37.5952C363.713 38.7221 363.503 39.7069 363.081 40.5497C362.66 41.3925 362.068 42.0483 361.306 42.517C360.543 42.9858 359.651 43.2202 358.628 43.2202ZM358.635 41.4375C359.298 41.4375 359.847 41.2623 360.283 40.9119C360.719 40.5616 361.041 40.0952 361.249 39.5128C361.462 38.9304 361.569 38.2888 361.569 37.5881C361.569 36.892 361.462 36.2528 361.249 35.6705C361.041 35.0833 360.719 34.6122 360.283 34.2571C359.847 33.902 359.298 33.7244 358.635 33.7244C357.968 33.7244 357.414 33.902 356.973 34.2571C356.538 34.6122 356.213 35.0833 356 35.6705C355.792 36.2528 355.688 36.892 355.688 37.5881C355.688 38.2888 355.792 38.9304 356 39.5128C356.213 40.0952 356.538 40.5616 356.973 40.9119C357.414 41.2623 357.968 41.4375 358.635 41.4375ZM373.5 28.4545V43H371.377V28.4545H373.5ZM376.357 43V32.0909H378.481V43H376.357ZM377.43 30.4077C377.06 30.4077 376.743 30.2846 376.478 30.0384C376.218 29.7874 376.087 29.4891 376.087 29.1435C376.087 28.7931 376.218 28.4948 376.478 28.2486C376.743 27.9976 377.06 27.8722 377.43 27.8722C377.799 27.8722 378.114 27.9976 378.374 28.2486C378.639 28.4948 378.772 28.7931 378.772 29.1435C378.772 29.4891 378.639 29.7874 378.374 30.0384C378.114 30.2846 377.799 30.4077 377.43 30.4077ZM386.529 32.0909V33.7955H380.365V32.0909H386.529ZM382.055 43V30.8267C382.055 30.1449 382.204 29.5791 382.502 29.1293C382.801 28.6747 383.196 28.3362 383.689 28.1136C384.181 27.8864 384.716 27.7727 385.294 27.7727C385.72 27.7727 386.084 27.8082 386.387 27.8793C386.69 27.9455 386.915 28.0071 387.062 28.0639L386.565 29.7827C386.466 29.7543 386.338 29.7211 386.181 29.6832C386.025 29.6406 385.836 29.6193 385.613 29.6193C385.097 29.6193 384.728 29.7472 384.505 30.0028C384.288 30.2585 384.179 30.6278 384.179 31.1108V43H382.055ZM392.993 43.2202C391.918 43.2202 390.992 42.9905 390.216 42.5312C389.444 42.0672 388.847 41.4162 388.426 40.5781C388.009 39.7353 387.801 38.7481 387.801 37.6165C387.801 36.4991 388.009 35.5142 388.426 34.6619C388.847 33.8097 389.434 33.1444 390.187 32.6662C390.945 32.188 391.83 31.9489 392.843 31.9489C393.459 31.9489 394.056 32.0507 394.633 32.2543C395.211 32.4579 395.729 32.7775 396.189 33.2131C396.648 33.6487 397.01 34.2145 397.275 34.9105C397.54 35.6018 397.673 36.4422 397.673 37.4318V38.1847H389.001V36.5938H395.592C395.592 36.035 395.478 35.5402 395.251 35.1094C395.024 34.6738 394.704 34.3305 394.292 34.0795C393.885 33.8286 393.407 33.7031 392.858 33.7031C392.261 33.7031 391.74 33.8499 391.295 34.1435C390.855 34.4323 390.514 34.8111 390.272 35.2798C390.036 35.7438 389.917 36.2481 389.917 36.7926V38.0355C389.917 38.7647 390.045 39.3849 390.301 39.8963C390.561 40.4077 390.923 40.7983 391.387 41.0682C391.851 41.3333 392.394 41.4659 393.014 41.4659C393.416 41.4659 393.783 41.4091 394.115 41.2955C394.446 41.1771 394.733 41.0019 394.974 40.7699C395.216 40.5379 395.4 40.2514 395.528 39.9105L397.538 40.2727C397.377 40.8646 397.088 41.383 396.672 41.8281C396.26 42.2685 395.741 42.6117 395.116 42.858C394.496 43.0994 393.788 43.2202 392.993 43.2202ZM401.428 43.1349C401.04 43.1349 400.706 42.9976 400.427 42.723C400.147 42.4437 400.008 42.1075 400.008 41.7145C400.008 41.3262 400.147 40.9948 400.427 40.7202C400.706 40.4408 401.04 40.3011 401.428 40.3011C401.817 40.3011 402.15 40.4408 402.43 40.7202C402.709 40.9948 402.849 41.3262 402.849 41.7145C402.849 41.9749 402.782 42.214 402.65 42.4318C402.522 42.6449 402.352 42.8153 402.138 42.9432C401.925 43.071 401.689 43.1349 401.428 43.1349Z" fill="black"/>
</svg>
