<svg width="500" height="24" viewBox="0 0 500 24" fill="none" xmlns="http://www.w3.org/2000/svg">
<g clip-path="url(#clip0_2194_1530)">
<path d="M45.7049 6.34375V4.45455H56.962V6.34375H52.4237V19H50.2362V6.34375H45.7049ZM61.4027 12.5227V19H59.2791V4.45455H61.3743V9.86648H61.5092C61.7649 9.27936 62.1555 8.81297 62.6811 8.46733C63.2067 8.12169 63.8932 7.94886 64.7408 7.94886C65.4889 7.94886 66.1423 8.10275 66.701 8.41051C67.2644 8.71828 67.7 9.17756 68.0078 9.78835C68.3203 10.3944 68.4766 11.152 68.4766 12.0611V19H66.353V12.3168C66.353 11.5166 66.147 10.8963 65.7351 10.456C65.3232 10.0109 64.7502 9.78835 64.0163 9.78835C63.5144 9.78835 63.0646 9.89489 62.6669 10.108C62.2739 10.321 61.9638 10.6335 61.7365 11.0455C61.514 11.4527 61.4027 11.9451 61.4027 12.5227ZM71.3104 19V8.09091H73.4339V19H71.3104ZM72.3828 6.40767C72.0135 6.40767 71.6963 6.28456 71.4311 6.03835C71.1707 5.7874 71.0405 5.48911 71.0405 5.14347C71.0405 4.79309 71.1707 4.49479 71.4311 4.24858C71.6963 3.99763 72.0135 3.87216 72.3828 3.87216C72.7521 3.87216 73.067 3.99763 73.3274 4.24858C73.5926 4.49479 73.7251 4.79309 73.7251 5.14347C73.7251 5.48911 73.5926 5.7874 73.3274 6.03835C73.067 6.28456 72.7521 6.40767 72.3828 6.40767ZM84.4656 10.7543L82.5408 11.0952C82.4603 10.849 82.3325 10.6146 82.1573 10.392C81.9869 10.1695 81.7549 9.98722 81.4613 9.84517C81.1677 9.70312 80.8008 9.6321 80.3604 9.6321C79.7591 9.6321 79.2572 9.76705 78.8548 10.0369C78.4523 10.3021 78.2511 10.6454 78.2511 11.0668C78.2511 11.4313 78.386 11.7249 78.6559 11.9474C78.9258 12.17 79.3614 12.3523 79.9627 12.4943L81.6957 12.892C82.6995 13.1241 83.4476 13.4815 83.94 13.9645C84.4324 14.4474 84.6786 15.0748 84.6786 15.8466C84.6786 16.5 84.4892 17.0824 84.1104 17.5938C83.7364 18.1004 83.2132 18.4981 82.5408 18.7869C81.8732 19.0758 81.0991 19.2202 80.2184 19.2202C78.9968 19.2202 78.0001 18.9598 77.2283 18.4389C76.4566 17.9134 75.9831 17.1676 75.8079 16.2017L77.8604 15.8892C77.9883 16.4242 78.2511 16.8291 78.6488 17.1037C79.0465 17.3736 79.565 17.5085 80.2042 17.5085C80.9002 17.5085 81.4566 17.3641 81.8732 17.0753C82.2899 16.7817 82.4982 16.4242 82.4982 16.0028C82.4982 15.6619 82.3704 15.3755 82.1147 15.1435C81.8638 14.9115 81.4779 14.7363 80.957 14.6179L79.1104 14.2131C78.0924 13.9811 77.3396 13.6117 76.8519 13.1051C76.369 12.5985 76.1275 11.9569 76.1275 11.1804C76.1275 10.5365 76.3074 9.97301 76.6673 9.49006C77.0271 9.0071 77.5243 8.63068 78.1587 8.3608C78.7932 8.08617 79.52 7.94886 80.3391 7.94886C81.5181 7.94886 82.4461 8.20455 83.1232 8.71591C83.8003 9.22254 84.2478 9.90199 84.4656 10.7543ZM91.8874 9V7.63636C91.8874 7.2339 91.9632 6.81013 92.1147 6.36506C92.2662 5.91998 92.4769 5.49384 92.7468 5.08665C93.0167 4.67945 93.3339 4.33144 93.6985 4.04261L94.7496 4.79545C94.4608 5.21686 94.2146 5.6572 94.011 6.11648C93.8074 6.57576 93.7056 7.07528 93.7056 7.61506V9H91.8874ZM95.5096 9V7.63636C95.5096 7.2339 95.5853 6.81013 95.7369 6.36506C95.8884 5.91998 96.0991 5.49384 96.369 5.08665C96.6388 4.67945 96.9561 4.33144 97.3207 4.04261L98.3718 4.79545C98.083 5.21686 97.8368 5.6572 97.6332 6.11648C97.4296 6.57576 97.3278 7.07528 97.3278 7.61506V9H95.5096ZM100.368 19V4.45455H109.387V6.34375H102.562V10.7756H108.741V12.6577H102.562V19H100.368ZM111.916 19V8.09091H114.039V19H111.916ZM112.988 6.40767C112.619 6.40767 112.302 6.28456 112.037 6.03835C111.776 5.7874 111.646 5.48911 111.646 5.14347C111.646 4.79309 111.776 4.49479 112.037 4.24858C112.302 3.99763 112.619 3.87216 112.988 3.87216C113.358 3.87216 113.672 3.99763 113.933 4.24858C114.198 4.49479 114.331 4.79309 114.331 5.14347C114.331 5.48911 114.198 5.7874 113.933 6.03835C113.672 6.28456 113.358 6.40767 112.988 6.40767ZM121.47 23.3182C120.604 23.3182 119.858 23.2045 119.233 22.9773C118.613 22.75 118.106 22.4493 117.713 22.0753C117.32 21.7012 117.027 21.2917 116.832 20.8466L118.658 20.0938C118.786 20.3021 118.956 20.5223 119.169 20.7543C119.387 20.991 119.68 21.1922 120.05 21.358C120.424 21.5237 120.904 21.6065 121.491 21.6065C122.296 21.6065 122.962 21.41 123.487 21.017C124.013 20.6288 124.276 20.0085 124.276 19.1562V17.0114H124.141C124.013 17.2434 123.828 17.5014 123.587 17.7855C123.35 18.0696 123.023 18.3158 122.607 18.5241C122.19 18.7325 121.648 18.8366 120.98 18.8366C120.118 18.8366 119.342 18.6354 118.651 18.233C117.964 17.8258 117.42 17.2268 117.017 16.4361C116.619 15.6406 116.42 14.6629 116.42 13.5028C116.42 12.3428 116.617 11.3485 117.01 10.5199C117.408 9.69129 117.952 9.05682 118.643 8.61648C119.335 8.1714 120.118 7.94886 120.994 7.94886C121.671 7.94886 122.218 8.0625 122.635 8.28977C123.052 8.51231 123.376 8.77273 123.608 9.07102C123.845 9.36932 124.027 9.6321 124.155 9.85938H124.311V8.09091H126.392V19.2415C126.392 20.179 126.174 20.9484 125.739 21.5497C125.303 22.151 124.714 22.5961 123.97 22.8849C123.232 23.1738 122.398 23.3182 121.47 23.3182ZM121.449 17.0753C122.06 17.0753 122.576 16.9332 122.997 16.6491C123.423 16.3603 123.745 15.9484 123.963 15.4134C124.186 14.8736 124.297 14.2273 124.297 13.4744C124.297 12.7405 124.188 12.0942 123.97 11.5355C123.752 10.9768 123.433 10.5412 123.011 10.2287C122.59 9.91146 122.069 9.75284 121.449 9.75284C120.81 9.75284 120.277 9.91856 119.851 10.25C119.425 10.5767 119.103 11.0218 118.885 11.5852C118.672 12.1487 118.565 12.7784 118.565 13.4744C118.565 14.1894 118.674 14.8168 118.892 15.3565C119.11 15.8963 119.432 16.3177 119.858 16.6207C120.289 16.9238 120.819 17.0753 121.449 17.0753ZM129.24 19V8.09091H131.278V9.86648H131.413C131.641 9.26515 132.012 8.7964 132.528 8.46023C133.045 8.11932 133.662 7.94886 134.382 7.94886C135.111 7.94886 135.722 8.11932 136.214 8.46023C136.712 8.80114 137.079 9.26989 137.315 9.86648H137.429C137.689 9.28409 138.104 8.82008 138.672 8.47443C139.24 8.12405 139.917 7.94886 140.703 7.94886C141.693 7.94886 142.5 8.259 143.125 8.87926C143.755 9.49953 144.07 10.4347 144.07 11.6847V19H141.946V11.8835C141.946 11.1449 141.745 10.6098 141.342 10.2784C140.94 9.94697 140.459 9.78125 139.901 9.78125C139.209 9.78125 138.672 9.99432 138.288 10.4205C137.905 10.8419 137.713 11.384 137.713 12.0469V19H135.597V11.7486C135.597 11.1567 135.412 10.6809 135.043 10.321C134.673 9.96117 134.193 9.78125 133.601 9.78125C133.198 9.78125 132.827 9.88778 132.486 10.1009C132.15 10.3092 131.877 10.6004 131.669 10.9744C131.465 11.3485 131.364 11.7817 131.364 12.2741V19H129.24ZM150.091 19.2415C149.399 19.2415 148.774 19.1136 148.216 18.858C147.657 18.5975 147.214 18.2211 146.887 17.7287C146.565 17.2363 146.404 16.6326 146.404 15.9176C146.404 15.3021 146.523 14.7955 146.76 14.3977C146.996 14 147.316 13.6851 147.718 13.4531C148.121 13.2211 148.571 13.0459 149.068 12.9276C149.565 12.8092 150.072 12.7192 150.588 12.6577C151.241 12.5819 151.771 12.5204 152.179 12.473C152.586 12.4209 152.882 12.3381 153.066 12.2244C153.251 12.1108 153.343 11.9261 153.343 11.6705V11.6207C153.343 11.0005 153.168 10.5199 152.818 10.179C152.472 9.83807 151.956 9.66761 151.27 9.66761C150.555 9.66761 149.991 9.82623 149.579 10.1435C149.172 10.456 148.89 10.804 148.734 11.1875L146.738 10.733C146.975 10.0701 147.321 9.53504 147.775 9.12784C148.234 8.71591 148.762 8.41761 149.359 8.23295C149.956 8.04356 150.583 7.94886 151.241 7.94886C151.677 7.94886 152.138 8.00095 152.626 8.10511C153.118 8.20455 153.578 8.3892 154.004 8.65909C154.435 8.92898 154.788 9.31487 155.062 9.81676C155.337 10.3139 155.474 10.9602 155.474 11.7557V19H153.4V17.5085H153.315C153.178 17.7831 152.972 18.053 152.697 18.3182C152.422 18.5833 152.07 18.8035 151.639 18.9787C151.208 19.1539 150.692 19.2415 150.091 19.2415ZM150.552 17.5369C151.139 17.5369 151.641 17.4209 152.058 17.1889C152.479 16.9569 152.799 16.6539 153.017 16.2798C153.239 15.901 153.35 15.4962 153.35 15.0653V13.6591C153.275 13.7348 153.128 13.8059 152.91 13.8722C152.697 13.9337 152.453 13.9882 152.179 14.0355C151.904 14.0781 151.636 14.1184 151.376 14.1562C151.116 14.1894 150.898 14.2178 150.723 14.2415C150.311 14.2936 149.934 14.3812 149.593 14.5043C149.257 14.6274 148.987 14.8049 148.784 15.0369C148.585 15.2642 148.485 15.5672 148.485 15.946C148.485 16.4716 148.68 16.8693 149.068 17.1392C149.456 17.4044 149.951 17.5369 150.552 17.5369ZM168.787 8.09091V9.79545H162.623V8.09091H168.787ZM164.313 19V6.8267C164.313 6.14489 164.462 5.57907 164.76 5.12926C165.059 4.67472 165.454 4.33617 165.946 4.11364C166.439 3.88636 166.974 3.77273 167.551 3.77273C167.978 3.77273 168.342 3.80824 168.645 3.87926C168.948 3.94555 169.173 4.0071 169.32 4.06392L168.823 5.78267C168.723 5.75426 168.596 5.72112 168.439 5.68324C168.283 5.64062 168.094 5.61932 167.871 5.61932C167.355 5.61932 166.986 5.74716 166.763 6.00284C166.545 6.25852 166.436 6.62784 166.436 7.1108V19H164.313ZM170.978 19V8.09091H173.102V19H170.978ZM172.051 6.40767C171.681 6.40767 171.364 6.28456 171.099 6.03835C170.839 5.7874 170.708 5.48911 170.708 5.14347C170.708 4.79309 170.839 4.49479 171.099 4.24858C171.364 3.99763 171.681 3.87216 172.051 3.87216C172.42 3.87216 172.735 3.99763 172.995 4.24858C173.261 4.49479 173.393 4.79309 173.393 5.14347C173.393 5.48911 173.261 5.7874 172.995 6.03835C172.735 6.28456 172.42 6.40767 172.051 6.40767ZM178.082 4.45455V19H175.959V4.45455H178.082ZM185.641 19.2202C184.566 19.2202 183.641 18.9905 182.864 18.5312C182.092 18.0672 181.496 17.4162 181.074 16.5781C180.658 15.7353 180.449 14.7481 180.449 13.6165C180.449 12.4991 180.658 11.5142 181.074 10.6619C181.496 9.80966 182.083 9.14441 182.836 8.66619C183.593 8.18797 184.479 7.94886 185.492 7.94886C186.107 7.94886 186.704 8.05066 187.282 8.25426C187.859 8.45786 188.378 8.77746 188.837 9.21307C189.296 9.64867 189.658 10.2145 189.924 10.9105C190.189 11.6018 190.321 12.4422 190.321 13.4318V14.1847H181.65V12.5938H188.24C188.24 12.035 188.127 11.5402 187.9 11.1094C187.672 10.6738 187.353 10.3305 186.941 10.0795C186.533 9.8286 186.055 9.70312 185.506 9.70312C184.909 9.70312 184.389 9.84991 183.944 10.1435C183.503 10.4323 183.162 10.8111 182.921 11.2798C182.684 11.7438 182.566 12.2481 182.566 12.7926V14.0355C182.566 14.7647 182.694 15.3849 182.949 15.8963C183.21 16.4077 183.572 16.7983 184.036 17.0682C184.5 17.3333 185.042 17.4659 185.662 17.4659C186.065 17.4659 186.432 17.4091 186.763 17.2955C187.095 17.1771 187.381 17.0019 187.623 16.7699C187.864 16.5379 188.049 16.2514 188.176 15.9105L190.186 16.2727C190.025 16.8646 189.737 17.383 189.32 17.8281C188.908 18.2685 188.39 18.6117 187.765 18.858C187.144 19.0994 186.436 19.2202 185.641 19.2202ZM194.503 4.45455V5.81818C194.503 6.22064 194.427 6.64441 194.276 7.08949C194.129 7.52983 193.92 7.9536 193.651 8.3608C193.381 8.76799 193.063 9.11837 192.699 9.41193L191.648 8.65909C191.927 8.25189 192.169 7.81866 192.372 7.35938C192.58 6.90009 192.685 6.39347 192.685 5.83949V4.45455H194.503ZM198.118 4.45455V5.81818C198.118 6.22064 198.042 6.64441 197.891 7.08949C197.744 7.52983 197.536 7.9536 197.266 8.3608C196.996 8.76799 196.679 9.11837 196.314 9.41193L195.263 8.65909C195.542 8.25189 195.784 7.81866 195.987 7.35938C196.196 6.90009 196.3 6.39347 196.3 5.83949V4.45455H198.118ZM208.226 19L205.016 8.09091H207.211L209.348 16.1023H209.455L211.6 8.09091H213.794L215.925 16.0668H216.032L218.155 8.09091H220.35L217.147 19H214.98L212.765 11.1236H212.601L210.385 19H208.226ZM225.54 19.2415C224.848 19.2415 224.223 19.1136 223.665 18.858C223.106 18.5975 222.663 18.2211 222.337 17.7287C222.015 17.2363 221.854 16.6326 221.854 15.9176C221.854 15.3021 221.972 14.7955 222.209 14.3977C222.446 14 222.765 13.6851 223.168 13.4531C223.57 13.2211 224.02 13.0459 224.517 12.9276C225.014 12.8092 225.521 12.7192 226.037 12.6577C226.69 12.5819 227.221 12.5204 227.628 12.473C228.035 12.4209 228.331 12.3381 228.516 12.2244C228.7 12.1108 228.793 11.9261 228.793 11.6705V11.6207C228.793 11.0005 228.617 10.5199 228.267 10.179C227.921 9.83807 227.405 9.66761 226.719 9.66761C226.004 9.66761 225.44 9.82623 225.028 10.1435C224.621 10.456 224.339 10.804 224.183 11.1875L222.188 10.733C222.424 10.0701 222.77 9.53504 223.224 9.12784C223.684 8.71591 224.212 8.41761 224.808 8.23295C225.405 8.04356 226.032 7.94886 226.69 7.94886C227.126 7.94886 227.588 8.00095 228.075 8.10511C228.568 8.20455 229.027 8.3892 229.453 8.65909C229.884 8.92898 230.237 9.31487 230.511 9.81676C230.786 10.3139 230.923 10.9602 230.923 11.7557V19H228.849V17.5085H228.764C228.627 17.7831 228.421 18.053 228.146 18.3182C227.872 18.5833 227.519 18.8035 227.088 18.9787C226.657 19.1539 226.141 19.2415 225.54 19.2415ZM226.001 17.5369C226.589 17.5369 227.09 17.4209 227.507 17.1889C227.929 16.9569 228.248 16.6539 228.466 16.2798C228.688 15.901 228.8 15.4962 228.8 15.0653V13.6591C228.724 13.7348 228.577 13.8059 228.359 13.8722C228.146 13.9337 227.902 13.9882 227.628 14.0355C227.353 14.0781 227.086 14.1184 226.825 14.1562C226.565 14.1894 226.347 14.2178 226.172 14.2415C225.76 14.2936 225.384 14.3812 225.043 14.5043C224.706 14.6274 224.437 14.8049 224.233 15.0369C224.034 15.2642 223.935 15.5672 223.935 15.946C223.935 16.4716 224.129 16.8693 224.517 17.1392C224.905 17.4044 225.4 17.5369 226.001 17.5369ZM241.926 10.7543L240.002 11.0952C239.921 10.849 239.793 10.6146 239.618 10.392C239.448 10.1695 239.216 9.98722 238.922 9.84517C238.629 9.70312 238.262 9.6321 237.821 9.6321C237.22 9.6321 236.718 9.76705 236.316 10.0369C235.913 10.3021 235.712 10.6454 235.712 11.0668C235.712 11.4313 235.847 11.7249 236.117 11.9474C236.387 12.17 236.822 12.3523 237.424 12.4943L239.157 12.892C240.16 13.1241 240.908 13.4815 241.401 13.9645C241.893 14.4474 242.14 15.0748 242.14 15.8466C242.14 16.5 241.95 17.0824 241.571 17.5938C241.197 18.1004 240.674 18.4981 240.002 18.7869C239.334 19.0758 238.56 19.2202 237.679 19.2202C236.458 19.2202 235.461 18.9598 234.689 18.4389C233.917 17.9134 233.444 17.1676 233.269 16.2017L235.321 15.8892C235.449 16.4242 235.712 16.8291 236.11 17.1037C236.507 17.3736 237.026 17.5085 237.665 17.5085C238.361 17.5085 238.917 17.3641 239.334 17.0753C239.751 16.7817 239.959 16.4242 239.959 16.0028C239.959 15.6619 239.831 15.3755 239.576 15.1435C239.325 14.9115 238.939 14.7363 238.418 14.6179L236.571 14.2131C235.553 13.9811 234.801 13.6117 234.313 13.1051C233.83 12.5985 233.588 11.9569 233.588 11.1804C233.588 10.5365 233.768 9.97301 234.128 9.49006C234.488 9.0071 234.985 8.63068 235.62 8.3608C236.254 8.08617 236.981 7.94886 237.8 7.94886C238.979 7.94886 239.907 8.20455 240.584 8.71591C241.261 9.22254 241.709 9.90199 241.926 10.7543ZM249.767 19V8.09091H251.806V9.86648H251.941C252.168 9.26515 252.54 8.7964 253.056 8.46023C253.572 8.11932 254.19 7.94886 254.909 7.94886C255.639 7.94886 256.249 8.11932 256.742 8.46023C257.239 8.80114 257.606 9.26989 257.843 9.86648H257.956C258.217 9.28409 258.631 8.82008 259.199 8.47443C259.767 8.12405 260.444 7.94886 261.23 7.94886C262.22 7.94886 263.027 8.259 263.652 8.87926C264.282 9.49953 264.597 10.4347 264.597 11.6847V19H262.473V11.8835C262.473 11.1449 262.272 10.6098 261.87 10.2784C261.467 9.94697 260.987 9.78125 260.428 9.78125C259.737 9.78125 259.199 9.99432 258.816 10.4205C258.432 10.8419 258.24 11.384 258.24 12.0469V19H256.124V11.7486C256.124 11.1567 255.939 10.6809 255.57 10.321C255.201 9.96117 254.72 9.78125 254.128 9.78125C253.726 9.78125 253.354 9.88778 253.013 10.1009C252.677 10.3092 252.405 10.6004 252.196 10.9744C251.993 11.3485 251.891 11.7817 251.891 12.2741V19H249.767ZM270.618 19.2415C269.927 19.2415 269.302 19.1136 268.743 18.858C268.184 18.5975 267.741 18.2211 267.415 17.7287C267.093 17.2363 266.932 16.6326 266.932 15.9176C266.932 15.3021 267.05 14.7955 267.287 14.3977C267.524 14 267.843 13.6851 268.246 13.4531C268.648 13.2211 269.098 13.0459 269.595 12.9276C270.092 12.8092 270.599 12.7192 271.115 12.6577C271.768 12.5819 272.299 12.5204 272.706 12.473C273.113 12.4209 273.409 12.3381 273.594 12.2244C273.778 12.1108 273.871 11.9261 273.871 11.6705V11.6207C273.871 11.0005 273.696 10.5199 273.345 10.179C273 9.83807 272.483 9.66761 271.797 9.66761C271.082 9.66761 270.518 9.82623 270.107 10.1435C269.699 10.456 269.418 10.804 269.261 11.1875L267.266 10.733C267.502 10.0701 267.848 9.53504 268.303 9.12784C268.762 8.71591 269.29 8.41761 269.886 8.23295C270.483 8.04356 271.11 7.94886 271.768 7.94886C272.204 7.94886 272.666 8.00095 273.153 8.10511C273.646 8.20455 274.105 8.3892 274.531 8.65909C274.962 8.92898 275.315 9.31487 275.589 9.81676C275.864 10.3139 276.001 10.9602 276.001 11.7557V19H273.928V17.5085H273.842C273.705 17.7831 273.499 18.053 273.224 18.3182C272.95 18.5833 272.597 18.8035 272.166 18.9787C271.735 19.1539 271.219 19.2415 270.618 19.2415ZM271.08 17.5369C271.667 17.5369 272.169 17.4209 272.585 17.1889C273.007 16.9569 273.326 16.6539 273.544 16.2798C273.767 15.901 273.878 15.4962 273.878 15.0653V13.6591C273.802 13.7348 273.655 13.8059 273.438 13.8722C273.224 13.9337 272.981 13.9882 272.706 14.0355C272.431 14.0781 272.164 14.1184 271.903 14.1562C271.643 14.1894 271.425 14.2178 271.25 14.2415C270.838 14.2936 270.462 14.3812 270.121 14.5043C269.785 14.6274 269.515 14.8049 269.311 15.0369C269.112 15.2642 269.013 15.5672 269.013 15.946C269.013 16.4716 269.207 16.8693 269.595 17.1392C269.983 17.4044 270.478 17.5369 271.08 17.5369ZM282.914 19.2131C282.033 19.2131 281.247 18.9882 280.556 18.5384C279.869 18.0838 279.329 17.4375 278.936 16.5994C278.548 15.7566 278.354 14.7457 278.354 13.5668C278.354 12.3878 278.551 11.3793 278.944 10.5412C279.341 9.70312 279.886 9.06155 280.577 8.61648C281.268 8.1714 282.052 7.94886 282.928 7.94886C283.605 7.94886 284.15 8.0625 284.561 8.28977C284.978 8.51231 285.3 8.77273 285.527 9.07102C285.759 9.36932 285.939 9.6321 286.067 9.85938H286.195V4.45455H288.319V19H286.245V17.3026H286.067C285.939 17.5346 285.755 17.7997 285.513 18.098C285.276 18.3963 284.95 18.6567 284.533 18.8793C284.116 19.1018 283.577 19.2131 282.914 19.2131ZM283.382 17.402C283.993 17.402 284.509 17.241 284.931 16.919C285.357 16.5923 285.679 16.1402 285.897 15.5625C286.119 14.9848 286.23 14.3125 286.23 13.5455C286.23 12.7879 286.122 12.125 285.904 11.5568C285.686 10.9886 285.366 10.5459 284.945 10.2287C284.524 9.91146 284.003 9.75284 283.382 9.75284C282.743 9.75284 282.211 9.91856 281.784 10.25C281.358 10.5814 281.036 11.0336 280.819 11.6065C280.605 12.1795 280.499 12.8258 280.499 13.5455C280.499 14.2746 280.608 14.9304 280.826 15.5128C281.043 16.0952 281.365 16.5568 281.792 16.8977C282.222 17.2339 282.753 17.402 283.382 17.402ZM296.051 19.2202C294.976 19.2202 294.051 18.9905 293.274 18.5312C292.502 18.0672 291.906 17.4162 291.484 16.5781C291.068 15.7353 290.859 14.7481 290.859 13.6165C290.859 12.4991 291.068 11.5142 291.484 10.6619C291.906 9.80966 292.493 9.14441 293.246 8.66619C294.003 8.18797 294.889 7.94886 295.902 7.94886C296.518 7.94886 297.114 8.05066 297.692 8.25426C298.269 8.45786 298.788 8.77746 299.247 9.21307C299.706 9.64867 300.069 10.2145 300.334 10.9105C300.599 11.6018 300.732 12.4422 300.732 13.4318V14.1847H292.06V12.5938H298.651C298.651 12.035 298.537 11.5402 298.31 11.1094C298.082 10.6738 297.763 10.3305 297.351 10.0795C296.944 9.8286 296.465 9.70312 295.916 9.70312C295.32 9.70312 294.799 9.84991 294.354 10.1435C293.913 10.4323 293.572 10.8111 293.331 11.2798C293.094 11.7438 292.976 12.2481 292.976 12.7926V14.0355C292.976 14.7647 293.104 15.3849 293.359 15.8963C293.62 16.4077 293.982 16.7983 294.446 17.0682C294.91 17.3333 295.452 17.4659 296.072 17.4659C296.475 17.4659 296.842 17.4091 297.173 17.2955C297.505 17.1771 297.791 17.0019 298.033 16.7699C298.274 16.5379 298.459 16.2514 298.587 15.9105L300.597 16.2727C300.436 16.8646 300.147 17.383 299.73 17.8281C299.318 18.2685 298.8 18.6117 298.175 18.858C297.554 19.0994 296.847 19.2202 296.051 19.2202ZM308.551 19V4.45455H310.675V9.85938H310.803C310.926 9.6321 311.103 9.36932 311.335 9.07102C311.567 8.77273 311.889 8.51231 312.301 8.28977C312.713 8.0625 313.258 7.94886 313.935 7.94886C314.815 7.94886 315.601 8.1714 316.293 8.61648C316.984 9.06155 317.526 9.70312 317.919 10.5412C318.317 11.3793 318.516 12.3878 318.516 13.5668C318.516 14.7457 318.319 15.7566 317.926 16.5994C317.533 17.4375 316.993 18.0838 316.307 18.5384C315.62 18.9882 314.837 19.2131 313.956 19.2131C313.293 19.2131 312.751 19.1018 312.33 18.8793C311.913 18.6567 311.586 18.3963 311.349 18.098C311.113 17.7997 310.93 17.5346 310.803 17.3026H310.625V19H308.551ZM310.632 13.5455C310.632 14.3125 310.743 14.9848 310.966 15.5625C311.188 16.1402 311.51 16.5923 311.932 16.919C312.353 17.241 312.869 17.402 313.48 17.402C314.115 17.402 314.645 17.2339 315.071 16.8977C315.497 16.5568 315.819 16.0952 316.037 15.5128C316.259 14.9304 316.371 14.2746 316.371 13.5455C316.371 12.8258 316.262 12.1795 316.044 11.6065C315.831 11.0336 315.509 10.5814 315.078 10.25C314.652 9.91856 314.119 9.75284 313.48 9.75284C312.865 9.75284 312.344 9.91146 311.918 10.2287C311.496 10.5459 311.177 10.9886 310.959 11.5568C310.741 12.125 310.632 12.7879 310.632 13.5455ZM321.871 23.0909C321.554 23.0909 321.265 23.0649 321.005 23.0128C320.745 22.9654 320.55 22.9134 320.423 22.8565L320.934 21.1165C321.322 21.2206 321.668 21.2656 321.971 21.2514C322.274 21.2372 322.541 21.1236 322.773 20.9105C323.01 20.6974 323.219 20.3494 323.398 19.8665L323.661 19.142L319.67 8.09091H321.942L324.705 16.5568H324.819L327.582 8.09091H329.862L325.366 20.456C325.157 21.0241 324.892 21.5047 324.57 21.8977C324.248 22.2955 323.865 22.5938 323.42 22.7926C322.975 22.9915 322.459 23.0909 321.871 23.0909ZM345.254 8.27557C345.178 7.60322 344.866 7.08239 344.316 6.71307C343.767 6.33902 343.076 6.15199 342.243 6.15199C341.646 6.15199 341.13 6.24669 340.694 6.43608C340.259 6.62074 339.92 6.87642 339.679 7.20312C339.442 7.52509 339.324 7.89205 339.324 8.30398C339.324 8.64962 339.404 8.94792 339.565 9.19886C339.731 9.44981 339.946 9.66051 340.211 9.83097C340.481 9.99669 340.77 10.1364 341.078 10.25C341.386 10.3589 341.681 10.4489 341.966 10.5199L343.386 10.8892C343.85 11.0028 344.326 11.1567 344.814 11.3509C345.301 11.545 345.753 11.8007 346.17 12.1179C346.587 12.4351 346.923 12.8281 347.179 13.2969C347.439 13.7656 347.569 14.3267 347.569 14.9801C347.569 15.804 347.356 16.5355 346.93 17.1747C346.509 17.8139 345.895 18.3182 345.091 18.6875C344.29 19.0568 343.322 19.2415 342.186 19.2415C341.097 19.2415 340.154 19.0687 339.359 18.723C338.564 18.3774 337.941 17.8873 337.491 17.2528C337.041 16.6136 336.793 15.8561 336.745 14.9801H338.947C338.99 15.5057 339.16 15.9437 339.458 16.294C339.761 16.6397 340.147 16.8977 340.616 17.0682C341.09 17.2339 341.608 17.3168 342.172 17.3168C342.792 17.3168 343.343 17.2197 343.826 17.0256C344.314 16.8267 344.698 16.5521 344.977 16.2017C345.256 15.8466 345.396 15.4323 345.396 14.9588C345.396 14.5279 345.273 14.1752 345.027 13.9006C344.785 13.6259 344.456 13.3987 344.039 13.2188C343.627 13.0388 343.161 12.8802 342.64 12.7429L340.922 12.2741C339.757 11.9569 338.833 11.4905 338.152 10.875C337.475 10.2595 337.136 9.44508 337.136 8.43182C337.136 7.59375 337.363 6.86222 337.818 6.23722C338.272 5.61222 338.888 5.12689 339.664 4.78125C340.441 4.43087 341.317 4.25568 342.292 4.25568C343.277 4.25568 344.146 4.4285 344.899 4.77415C345.656 5.11979 346.253 5.59564 346.689 6.2017C347.124 6.80303 347.351 7.49432 347.37 8.27557H345.254ZM352.145 12.5227V19H350.021V4.45455H352.116V9.86648H352.251C352.507 9.27936 352.898 8.81297 353.423 8.46733C353.949 8.12169 354.635 7.94886 355.483 7.94886C356.231 7.94886 356.884 8.10275 357.443 8.41051C358.007 8.71828 358.442 9.17756 358.75 9.78835C359.062 10.3944 359.219 11.152 359.219 12.0611V19H357.095V12.3168C357.095 11.5166 356.889 10.8963 356.477 10.456C356.065 10.0109 355.492 9.78835 354.759 9.78835C354.257 9.78835 353.807 9.89489 353.409 10.108C353.016 10.321 352.706 10.6335 352.479 11.0455C352.256 11.4527 352.145 11.9451 352.145 12.5227ZM366.754 19.2202C365.679 19.2202 364.754 18.9905 363.977 18.5312C363.205 18.0672 362.609 17.4162 362.188 16.5781C361.771 15.7353 361.562 14.7481 361.562 13.6165C361.562 12.4991 361.771 11.5142 362.188 10.6619C362.609 9.80966 363.196 9.14441 363.949 8.66619C364.706 8.18797 365.592 7.94886 366.605 7.94886C367.221 7.94886 367.817 8.05066 368.395 8.25426C368.973 8.45786 369.491 8.77746 369.95 9.21307C370.41 9.64867 370.772 10.2145 371.037 10.9105C371.302 11.6018 371.435 12.4422 371.435 13.4318V14.1847H362.763V12.5938H369.354C369.354 12.035 369.24 11.5402 369.013 11.1094C368.786 10.6738 368.466 10.3305 368.054 10.0795C367.647 9.8286 367.169 9.70312 366.619 9.70312C366.023 9.70312 365.502 9.84991 365.057 10.1435C364.616 10.4323 364.276 10.8111 364.034 11.2798C363.797 11.7438 363.679 12.2481 363.679 12.7926V14.0355C363.679 14.7647 363.807 15.3849 364.062 15.8963C364.323 16.4077 364.685 16.7983 365.149 17.0682C365.613 17.3333 366.155 17.4659 366.776 17.4659C367.178 17.4659 367.545 17.4091 367.876 17.2955C368.208 17.1771 368.494 17.0019 368.736 16.7699C368.977 16.5379 369.162 16.2514 369.29 15.9105L371.3 16.2727C371.139 16.8646 370.85 17.383 370.433 17.8281C370.021 18.2685 369.503 18.6117 368.878 18.858C368.258 19.0994 367.55 19.2202 366.754 19.2202ZM375.914 4.45455V19H373.791V4.45455H375.914ZM380.895 4.45455V19H378.771V4.45455H380.895ZM388.453 19.2202C387.379 19.2202 386.453 18.9905 385.676 18.5312C384.905 18.0672 384.308 17.4162 383.887 16.5781C383.47 15.7353 383.262 14.7481 383.262 13.6165C383.262 12.4991 383.47 11.5142 383.887 10.6619C384.308 9.80966 384.895 9.14441 385.648 8.66619C386.406 8.18797 387.291 7.94886 388.304 7.94886C388.92 7.94886 389.516 8.05066 390.094 8.25426C390.672 8.45786 391.19 8.77746 391.65 9.21307C392.109 9.64867 392.471 10.2145 392.736 10.9105C393.001 11.6018 393.134 12.4422 393.134 13.4318V14.1847H384.462V12.5938H391.053C391.053 12.035 390.939 11.5402 390.712 11.1094C390.485 10.6738 390.165 10.3305 389.753 10.0795C389.346 9.8286 388.868 9.70312 388.319 9.70312C387.722 9.70312 387.201 9.84991 386.756 10.1435C386.316 10.4323 385.975 10.8111 385.733 11.2798C385.497 11.7438 385.378 12.2481 385.378 12.7926V14.0355C385.378 14.7647 385.506 15.3849 385.762 15.8963C386.022 16.4077 386.384 16.7983 386.848 17.0682C387.312 17.3333 387.855 17.4659 388.475 17.4659C388.877 17.4659 389.244 17.4091 389.576 17.2955C389.907 17.1771 390.194 17.0019 390.435 16.7699C390.676 16.5379 390.861 16.2514 390.989 15.9105L392.999 16.2727C392.838 16.8646 392.549 17.383 392.132 17.8281C391.721 18.2685 391.202 18.6117 390.577 18.858C389.957 19.0994 389.249 19.2202 388.453 19.2202ZM396.52 23.0909C396.203 23.0909 395.914 23.0649 395.653 23.0128C395.393 22.9654 395.199 22.9134 395.071 22.8565L395.582 21.1165C395.971 21.2206 396.316 21.2656 396.619 21.2514C396.922 21.2372 397.19 21.1236 397.422 20.9105C397.659 20.6974 397.867 20.3494 398.047 19.8665L398.31 19.142L394.318 8.09091H396.591L399.354 16.5568H399.467L402.23 8.09091H404.51L400.014 20.456C399.806 21.0241 399.541 21.5047 399.219 21.8977C398.897 22.2955 398.513 22.5938 398.068 22.7926C397.623 22.9915 397.107 23.0909 396.52 23.0909ZM411.252 6.34375V4.45455H422.509V6.34375H417.971V19H415.783V6.34375H411.252ZM431.516 10.7543L429.592 11.0952C429.511 10.849 429.383 10.6146 429.208 10.392C429.038 10.1695 428.806 9.98722 428.512 9.84517C428.219 9.70312 427.852 9.6321 427.411 9.6321C426.81 9.6321 426.308 9.76705 425.906 10.0369C425.503 10.3021 425.302 10.6454 425.302 11.0668C425.302 11.4313 425.437 11.7249 425.707 11.9474C425.977 12.17 426.412 12.3523 427.013 12.4943L428.746 12.892C429.75 13.1241 430.498 13.4815 430.991 13.9645C431.483 14.4474 431.729 15.0748 431.729 15.8466C431.729 16.5 431.54 17.0824 431.161 17.5938C430.787 18.1004 430.264 18.4981 429.592 18.7869C428.924 19.0758 428.15 19.2202 427.269 19.2202C426.048 19.2202 425.051 18.9598 424.279 18.4389C423.507 17.9134 423.034 17.1676 422.859 16.2017L424.911 15.8892C425.039 16.4242 425.302 16.8291 425.7 17.1037C426.097 17.3736 426.616 17.5085 427.255 17.5085C427.951 17.5085 428.507 17.3641 428.924 17.0753C429.341 16.7817 429.549 16.4242 429.549 16.0028C429.549 15.6619 429.421 15.3755 429.165 15.1435C428.915 14.9115 428.529 14.7363 428.008 14.6179L426.161 14.2131C425.143 13.9811 424.39 13.6117 423.903 13.1051C423.42 12.5985 423.178 11.9569 423.178 11.1804C423.178 10.5365 423.358 9.97301 423.718 9.49006C424.078 9.0071 424.575 8.63068 425.21 8.3608C425.844 8.08617 426.571 7.94886 427.39 7.94886C428.569 7.94886 429.497 8.20455 430.174 8.71591C430.851 9.22254 431.299 9.90199 431.516 10.7543ZM440.975 14.4759V8.09091H443.105V19H441.017V17.1108H440.904C440.653 17.6932 440.25 18.1785 439.696 18.5668C439.147 18.9503 438.463 19.142 437.644 19.142C436.943 19.142 436.323 18.9882 435.783 18.6804C435.248 18.3679 434.827 17.9062 434.519 17.2955C434.216 16.6847 434.064 15.9295 434.064 15.0298V8.09091H436.188V14.7741C436.188 15.5175 436.394 16.1094 436.806 16.5497C437.218 16.9901 437.753 17.2102 438.411 17.2102C438.809 17.2102 439.204 17.1108 439.597 16.9119C439.995 16.7131 440.324 16.4124 440.584 16.0099C440.849 15.6075 440.98 15.0961 440.975 14.4759ZM445.959 19V8.09091H448.082V19H445.959ZM447.031 6.40767C446.662 6.40767 446.345 6.28456 446.08 6.03835C445.819 5.7874 445.689 5.48911 445.689 5.14347C445.689 4.79309 445.819 4.49479 446.08 4.24858C446.345 3.99763 446.662 3.87216 447.031 3.87216C447.401 3.87216 447.715 3.99763 447.976 4.24858C448.241 4.49479 448.374 4.79309 448.374 5.14347C448.374 5.48911 448.241 5.7874 447.976 6.03835C447.715 6.28456 447.401 6.40767 447.031 6.40767ZM452.338 19.1349C451.95 19.1349 451.616 18.9976 451.337 18.723C451.058 18.4437 450.918 18.1075 450.918 17.7145C450.918 17.3262 451.058 16.9948 451.337 16.7202C451.616 16.4408 451.95 16.3011 452.338 16.3011C452.727 16.3011 453.06 16.4408 453.34 16.7202C453.619 16.9948 453.759 17.3262 453.759 17.7145C453.759 17.9749 453.693 18.214 453.56 18.4318C453.432 18.6449 453.262 18.8153 453.049 18.9432C452.836 19.071 452.599 19.1349 452.338 19.1349Z" fill="black"/>
</g>
<defs>
<clipPath id="clip0_2194_1530">
<rect width="500" height="24" fill="white"/>
</clipPath>
</defs>
</svg>
