<svg width="500" height="48" viewBox="0 0 500 48" fill="none" xmlns="http://www.w3.org/2000/svg">
<path d="M86.5765 19V4.45455H88.7711V10.7756H96.0226V4.45455H98.2243V19H96.0226V12.6577H88.7711V19H86.5765ZM105.952 19.2202C104.877 19.2202 103.951 18.9905 103.175 18.5312C102.403 18.0672 101.806 17.4162 101.385 16.5781C100.968 15.7353 100.76 14.7481 100.76 13.6165C100.76 12.4991 100.968 11.5142 101.385 10.6619C101.806 9.80966 102.393 9.14441 103.146 8.66619C103.904 8.18797 104.789 7.94886 105.802 7.94886C106.418 7.94886 107.015 8.05066 107.592 8.25426C108.17 8.45786 108.688 8.77746 109.148 9.21307C109.607 9.64867 109.969 10.2145 110.234 10.9105C110.499 11.6018 110.632 12.4422 110.632 13.4318V14.1847H101.96V12.5938H108.551C108.551 12.035 108.437 11.5402 108.21 11.1094C107.983 10.6738 107.663 10.3305 107.251 10.0795C106.844 9.8286 106.366 9.70312 105.817 9.70312C105.22 9.70312 104.699 9.84991 104.254 10.1435C103.814 10.4323 103.473 10.8111 103.231 11.2798C102.995 11.7438 102.876 12.2481 102.876 12.7926V14.0355C102.876 14.7647 103.004 15.3849 103.26 15.8963C103.52 16.4077 103.882 16.7983 104.346 17.0682C104.81 17.3333 105.353 17.4659 105.973 17.4659C106.375 17.4659 106.742 17.4091 107.074 17.2955C107.405 17.1771 107.692 17.0019 107.933 16.7699C108.175 16.5379 108.359 16.2514 108.487 15.9105L110.497 16.2727C110.336 16.8646 110.047 17.383 109.631 17.8281C109.219 18.2685 108.7 18.6117 108.075 18.858C107.455 19.0994 106.747 19.2202 105.952 19.2202ZM112.988 19V8.09091H115.041V9.82386H115.154C115.353 9.23674 115.704 8.77509 116.205 8.43892C116.712 8.09801 117.285 7.92756 117.924 7.92756C118.057 7.92756 118.213 7.93229 118.393 7.94176C118.578 7.95123 118.722 7.96307 118.826 7.97727V10.0085C118.741 9.98485 118.589 9.95881 118.372 9.9304C118.154 9.89725 117.936 9.88068 117.718 9.88068C117.216 9.88068 116.769 9.98722 116.376 10.2003C115.988 10.4086 115.68 10.6998 115.453 11.0739C115.225 11.4432 115.112 11.8646 115.112 12.3381V19H112.988ZM131.049 8.09091V9.79545H125.09V8.09091H131.049ZM126.688 5.47727H128.812V15.7969C128.812 16.2088 128.874 16.5189 128.997 16.7273C129.12 16.9309 129.278 17.0705 129.472 17.1463C129.671 17.2173 129.887 17.2528 130.119 17.2528C130.289 17.2528 130.438 17.241 130.566 17.2173C130.694 17.1937 130.794 17.1747 130.865 17.1605L131.248 18.9148C131.125 18.9621 130.95 19.0095 130.722 19.0568C130.495 19.1089 130.211 19.1373 129.87 19.142C129.311 19.1515 128.791 19.0521 128.308 18.8438C127.825 18.6354 127.434 18.3134 127.136 17.8778C126.838 17.4422 126.688 16.8954 126.688 16.2372V5.47727ZM137.876 19.2202C136.854 19.2202 135.961 18.9858 135.199 18.517C134.436 18.0483 133.845 17.3925 133.423 16.5497C133.002 15.7069 132.791 14.7221 132.791 13.5952C132.791 12.4635 133.002 11.474 133.423 10.6264C133.845 9.77888 134.436 9.12074 135.199 8.65199C135.961 8.18324 136.854 7.94886 137.876 7.94886C138.899 7.94886 139.791 8.18324 140.554 8.65199C141.316 9.12074 141.908 9.77888 142.329 10.6264C142.751 11.474 142.961 12.4635 142.961 13.5952C142.961 14.7221 142.751 15.7069 142.329 16.5497C141.908 17.3925 141.316 18.0483 140.554 18.517C139.791 18.9858 138.899 19.2202 137.876 19.2202ZM137.883 17.4375C138.546 17.4375 139.095 17.2623 139.531 16.9119C139.967 16.5616 140.289 16.0952 140.497 15.5128C140.71 14.9304 140.817 14.2888 140.817 13.5881C140.817 12.892 140.71 12.2528 140.497 11.6705C140.289 11.0833 139.967 10.6122 139.531 10.2571C139.095 9.90199 138.546 9.72443 137.883 9.72443C137.216 9.72443 136.662 9.90199 136.221 10.2571C135.786 10.6122 135.461 11.0833 135.248 11.6705C135.04 12.2528 134.936 12.892 134.936 13.5881C134.936 14.2888 135.04 14.9304 135.248 15.5128C135.461 16.0952 135.786 16.5616 136.221 16.9119C136.662 17.2623 137.216 17.4375 137.883 17.4375ZM146.578 8.09091L148.986 12.3381L151.415 8.09091H153.737L150.335 13.5455L153.766 19H151.443L148.986 14.9233L146.536 19H144.206L147.601 13.5455L144.249 8.09091H146.578ZM155.918 19V8.09091H158.041V19H155.918ZM156.99 6.40767C156.621 6.40767 156.304 6.28456 156.039 6.03835C155.778 5.7874 155.648 5.48911 155.648 5.14347C155.648 4.79309 155.778 4.49479 156.039 4.24858C156.304 3.99763 156.621 3.87216 156.99 3.87216C157.36 3.87216 157.674 3.99763 157.935 4.24858C158.2 4.49479 158.333 4.79309 158.333 5.14347C158.333 5.48911 158.2 5.7874 157.935 6.03835C157.674 6.28456 157.36 6.40767 156.99 6.40767ZM165.493 19.2202C164.438 19.2202 163.528 18.9811 162.766 18.5028C162.009 18.0199 161.426 17.3546 161.019 16.5071C160.612 15.6596 160.408 14.6889 160.408 13.5952C160.408 12.4872 160.617 11.5095 161.033 10.6619C161.45 9.80966 162.037 9.14441 162.795 8.66619C163.552 8.18797 164.445 7.94886 165.472 7.94886C166.301 7.94886 167.039 8.10275 167.688 8.41051C168.337 8.71354 168.86 9.13968 169.258 9.68892C169.66 10.2382 169.899 10.8797 169.975 11.6136H167.908C167.795 11.1023 167.534 10.6619 167.127 10.2926C166.724 9.9233 166.185 9.73864 165.508 9.73864C164.916 9.73864 164.397 9.89489 163.952 10.2074C163.512 10.5152 163.169 10.9555 162.922 11.5284C162.676 12.0966 162.553 12.7689 162.553 13.5455C162.553 14.3409 162.674 15.0275 162.915 15.6051C163.157 16.1828 163.498 16.6302 163.938 16.9474C164.383 17.2647 164.906 17.4233 165.508 17.4233C165.91 17.4233 166.275 17.3499 166.601 17.2031C166.933 17.0516 167.21 16.8362 167.432 16.5568C167.66 16.2775 167.818 15.9413 167.908 15.5483H169.975C169.899 16.2538 169.67 16.8835 169.286 17.4375C168.903 17.9915 168.389 18.4271 167.745 18.7443C167.106 19.0616 166.355 19.2202 165.493 19.2202ZM182.631 8.09091V9.79545H176.672V8.09091H182.631ZM178.27 5.47727H180.394V15.7969C180.394 16.2088 180.456 16.5189 180.579 16.7273C180.702 16.9309 180.86 17.0705 181.055 17.1463C181.253 17.2173 181.469 17.2528 181.701 17.2528C181.871 17.2528 182.02 17.241 182.148 17.2173C182.276 17.1937 182.376 17.1747 182.447 17.1605L182.83 18.9148C182.707 18.9621 182.532 19.0095 182.305 19.0568C182.077 19.1089 181.793 19.1373 181.452 19.142C180.894 19.1515 180.373 19.0521 179.89 18.8438C179.407 18.6354 179.016 18.3134 178.718 17.8778C178.42 17.4422 178.27 16.8954 178.27 16.2372V5.47727ZM184.98 19V8.09091H187.033V9.82386H187.146C187.345 9.23674 187.696 8.77509 188.198 8.43892C188.704 8.09801 189.277 7.92756 189.916 7.92756C190.049 7.92756 190.205 7.93229 190.385 7.94176C190.57 7.95123 190.714 7.96307 190.818 7.97727V10.0085C190.733 9.98485 190.582 9.95881 190.364 9.9304C190.146 9.89725 189.928 9.88068 189.71 9.88068C189.209 9.88068 188.761 9.98722 188.368 10.2003C187.98 10.4086 187.672 10.6998 187.445 11.0739C187.218 11.4432 187.104 11.8646 187.104 12.3381V19H184.98ZM195.733 19.2415C195.042 19.2415 194.417 19.1136 193.858 18.858C193.299 18.5975 192.857 18.2211 192.53 17.7287C192.208 17.2363 192.047 16.6326 192.047 15.9176C192.047 15.3021 192.165 14.7955 192.402 14.3977C192.639 14 192.959 13.6851 193.361 13.4531C193.763 13.2211 194.213 13.0459 194.71 12.9276C195.208 12.8092 195.714 12.7192 196.23 12.6577C196.884 12.5819 197.414 12.5204 197.821 12.473C198.228 12.4209 198.524 12.3381 198.709 12.2244C198.894 12.1108 198.986 11.9261 198.986 11.6705V11.6207C198.986 11.0005 198.811 10.5199 198.46 10.179C198.115 9.83807 197.599 9.66761 196.912 9.66761C196.197 9.66761 195.634 9.82623 195.222 10.1435C194.815 10.456 194.533 10.804 194.377 11.1875L192.381 10.733C192.618 10.0701 192.963 9.53504 193.418 9.12784C193.877 8.71591 194.405 8.41761 195.002 8.23295C195.598 8.04356 196.226 7.94886 196.884 7.94886C197.319 7.94886 197.781 8.00095 198.269 8.10511C198.761 8.20455 199.22 8.3892 199.646 8.65909C200.077 8.92898 200.43 9.31487 200.705 9.81676C200.979 10.3139 201.117 10.9602 201.117 11.7557V19H199.043V17.5085H198.958C198.82 17.7831 198.614 18.053 198.34 18.3182C198.065 18.5833 197.712 18.8035 197.281 18.9787C196.851 19.1539 196.334 19.2415 195.733 19.2415ZM196.195 17.5369C196.782 17.5369 197.284 17.4209 197.7 17.1889C198.122 16.9569 198.441 16.6539 198.659 16.2798C198.882 15.901 198.993 15.4962 198.993 15.0653V13.6591C198.917 13.7348 198.771 13.8059 198.553 13.8722C198.34 13.9337 198.096 13.9882 197.821 14.0355C197.547 14.0781 197.279 14.1184 197.019 14.1562C196.758 14.1894 196.54 14.2178 196.365 14.2415C195.953 14.2936 195.577 14.3812 195.236 14.5043C194.9 14.6274 194.63 14.8049 194.426 15.0369C194.227 15.2642 194.128 15.5672 194.128 15.946C194.128 16.4716 194.322 16.8693 194.71 17.1392C195.099 17.4044 195.593 17.5369 196.195 17.5369ZM203.945 19V8.09091H206.069V19H203.945ZM205.018 6.40767C204.648 6.40767 204.331 6.28456 204.066 6.03835C203.805 5.7874 203.675 5.48911 203.675 5.14347C203.675 4.79309 203.805 4.49479 204.066 4.24858C204.331 3.99763 204.648 3.87216 205.018 3.87216C205.387 3.87216 205.702 3.99763 205.962 4.24858C206.227 4.49479 206.36 4.79309 206.36 5.14347C206.36 5.48911 206.227 5.7874 205.962 6.03835C205.702 6.28456 205.387 6.40767 205.018 6.40767ZM214.018 8.09091V9.79545H208.059V8.09091H214.018ZM209.657 5.47727H211.781V15.7969C211.781 16.2088 211.842 16.5189 211.965 16.7273C212.088 16.9309 212.247 17.0705 212.441 17.1463C212.64 17.2173 212.856 17.2528 213.088 17.2528C213.258 17.2528 213.407 17.241 213.535 17.2173C213.663 17.1937 213.762 17.1747 213.833 17.1605L214.217 18.9148C214.094 18.9621 213.919 19.0095 213.691 19.0568C213.464 19.1089 213.18 19.1373 212.839 19.142C212.28 19.1515 211.759 19.0521 211.276 18.8438C210.794 18.6354 210.403 18.3134 210.105 17.8778C209.806 17.4422 209.657 16.8954 209.657 16.2372V5.47727ZM221.66 19V8.09091H223.784V19H221.66ZM222.732 6.40767C222.363 6.40767 222.046 6.28456 221.781 6.03835C221.52 5.7874 221.39 5.48911 221.39 5.14347C221.39 4.79309 221.52 4.49479 221.781 4.24858C222.046 3.99763 222.363 3.87216 222.732 3.87216C223.102 3.87216 223.417 3.99763 223.677 4.24858C223.942 4.49479 224.075 4.79309 224.075 5.14347C224.075 5.48911 223.942 5.7874 223.677 6.03835C223.417 6.28456 223.102 6.40767 222.732 6.40767ZM234.815 10.7543L232.89 11.0952C232.81 10.849 232.682 10.6146 232.507 10.392C232.336 10.1695 232.104 9.98722 231.811 9.84517C231.517 9.70312 231.15 9.6321 230.71 9.6321C230.109 9.6321 229.607 9.76705 229.204 10.0369C228.802 10.3021 228.601 10.6454 228.601 11.0668C228.601 11.4313 228.736 11.7249 229.006 11.9474C229.275 12.17 229.711 12.3523 230.312 12.4943L232.045 12.892C233.049 13.1241 233.797 13.4815 234.29 13.9645C234.782 14.4474 235.028 15.0748 235.028 15.8466C235.028 16.5 234.839 17.0824 234.46 17.5938C234.086 18.1004 233.563 18.4981 232.89 18.7869C232.223 19.0758 231.449 19.2202 230.568 19.2202C229.346 19.2202 228.35 18.9598 227.578 18.4389C226.806 17.9134 226.333 17.1676 226.157 16.2017L228.21 15.8892C228.338 16.4242 228.601 16.8291 228.998 17.1037C229.396 17.3736 229.915 17.5085 230.554 17.5085C231.25 17.5085 231.806 17.3641 232.223 17.0753C232.64 16.7817 232.848 16.4242 232.848 16.0028C232.848 15.6619 232.72 15.3755 232.464 15.1435C232.213 14.9115 231.827 14.7363 231.307 14.6179L229.46 14.2131C228.442 13.9811 227.689 13.6117 227.202 13.1051C226.719 12.5985 226.477 11.9569 226.477 11.1804C226.477 10.5365 226.657 9.97301 227.017 9.49006C227.377 9.0071 227.874 8.63068 228.508 8.3608C229.143 8.08617 229.87 7.94886 230.689 7.94886C231.868 7.94886 232.796 8.20455 233.473 8.71591C234.15 9.22254 234.597 9.90199 234.815 10.7543ZM250.831 10.7543L248.906 11.0952C248.826 10.849 248.698 10.6146 248.523 10.392C248.352 10.1695 248.12 9.98722 247.827 9.84517C247.533 9.70312 247.166 9.6321 246.726 9.6321C246.124 9.6321 245.622 9.76705 245.22 10.0369C244.818 10.3021 244.616 10.6454 244.616 11.0668C244.616 11.4313 244.751 11.7249 245.021 11.9474C245.291 12.17 245.727 12.3523 246.328 12.4943L248.061 12.892C249.065 13.1241 249.813 13.4815 250.305 13.9645C250.798 14.4474 251.044 15.0748 251.044 15.8466C251.044 16.5 250.854 17.0824 250.476 17.5938C250.102 18.1004 249.578 18.4981 248.906 18.7869C248.238 19.0758 247.464 19.2202 246.584 19.2202C245.362 19.2202 244.365 18.9598 243.594 18.4389C242.822 17.9134 242.348 17.1676 242.173 16.2017L244.226 15.8892C244.354 16.4242 244.616 16.8291 245.014 17.1037C245.412 17.3736 245.93 17.5085 246.569 17.5085C247.265 17.5085 247.822 17.3641 248.238 17.0753C248.655 16.7817 248.863 16.4242 248.863 16.0028C248.863 15.6619 248.736 15.3755 248.48 15.1435C248.229 14.9115 247.843 14.7363 247.322 14.6179L245.476 14.2131C244.458 13.9811 243.705 13.6117 243.217 13.1051C242.734 12.5985 242.493 11.9569 242.493 11.1804C242.493 10.5365 242.673 9.97301 243.032 9.49006C243.392 9.0071 243.89 8.63068 244.524 8.3608C245.158 8.08617 245.885 7.94886 246.704 7.94886C247.883 7.94886 248.811 8.20455 249.488 8.71591C250.166 9.22254 250.613 9.90199 250.831 10.7543ZM255.502 12.5227V19H253.379V4.45455H255.474V9.86648H255.609C255.865 9.27936 256.255 8.81297 256.781 8.46733C257.306 8.12169 257.993 7.94886 258.84 7.94886C259.588 7.94886 260.242 8.10275 260.801 8.41051C261.364 8.71828 261.8 9.17756 262.107 9.78835C262.42 10.3944 262.576 11.152 262.576 12.0611V19H260.453V12.3168C260.453 11.5166 260.247 10.8963 259.835 10.456C259.423 10.0109 258.85 9.78835 258.116 9.78835C257.614 9.78835 257.164 9.89489 256.767 10.108C256.374 10.321 256.063 10.6335 255.836 11.0455C255.614 11.4527 255.502 11.9451 255.502 12.5227ZM270.005 19.2202C268.982 19.2202 268.09 18.9858 267.328 18.517C266.565 18.0483 265.973 17.3925 265.552 16.5497C265.131 15.7069 264.92 14.7221 264.92 13.5952C264.92 12.4635 265.131 11.474 265.552 10.6264C265.973 9.77888 266.565 9.12074 267.328 8.65199C268.09 8.18324 268.982 7.94886 270.005 7.94886C271.028 7.94886 271.92 8.18324 272.683 8.65199C273.445 9.12074 274.037 9.77888 274.458 10.6264C274.88 11.474 275.09 12.4635 275.09 13.5952C275.09 14.7221 274.88 15.7069 274.458 16.5497C274.037 17.3925 273.445 18.0483 272.683 18.517C271.92 18.9858 271.028 19.2202 270.005 19.2202ZM270.012 17.4375C270.675 17.4375 271.224 17.2623 271.66 16.9119C272.096 16.5616 272.418 16.0952 272.626 15.5128C272.839 14.9304 272.945 14.2888 272.945 13.5881C272.945 12.892 272.839 12.2528 272.626 11.6705C272.418 11.0833 272.096 10.6122 271.66 10.2571C271.224 9.90199 270.675 9.72443 270.012 9.72443C269.345 9.72443 268.791 9.90199 268.35 10.2571C267.915 10.6122 267.59 11.0833 267.377 11.6705C267.169 12.2528 267.065 12.892 267.065 13.5881C267.065 14.2888 267.169 14.9304 267.377 15.5128C267.59 16.0952 267.915 16.5616 268.35 16.9119C268.791 17.2623 269.345 17.4375 270.012 17.4375ZM279.494 19L276.284 8.09091H278.478L280.616 16.1023H280.722L282.867 8.09091H285.062L287.193 16.0668H287.299L289.423 8.09091H291.617L288.414 19H286.248L284.032 11.1236H283.869L281.653 19H279.494ZM293.633 19V8.09091H295.756V19H293.633ZM294.705 6.40767C294.336 6.40767 294.019 6.28456 293.753 6.03835C293.493 5.7874 293.363 5.48911 293.363 5.14347C293.363 4.79309 293.493 4.49479 293.753 4.24858C294.019 3.99763 294.336 3.87216 294.705 3.87216C295.074 3.87216 295.389 3.99763 295.65 4.24858C295.915 4.49479 296.047 4.79309 296.047 5.14347C296.047 5.48911 295.915 5.7874 295.65 6.03835C295.389 6.28456 295.074 6.40767 294.705 6.40767ZM300.737 12.5227V19H298.613V8.09091H300.651V9.86648H300.786C301.037 9.28883 301.43 8.82481 301.965 8.47443C302.505 8.12405 303.185 7.94886 304.004 7.94886C304.747 7.94886 305.398 8.10511 305.957 8.41761C306.516 8.72538 306.949 9.18466 307.257 9.79545C307.564 10.4062 307.718 11.1615 307.718 12.0611V19H305.595V12.3168C305.595 11.526 305.389 10.9081 304.977 10.4631C304.565 10.0133 303.999 9.78835 303.279 9.78835C302.787 9.78835 302.349 9.89489 301.965 10.108C301.587 10.321 301.286 10.6335 301.063 11.0455C300.846 11.4527 300.737 11.9451 300.737 12.5227ZM315.14 23.3182C314.274 23.3182 313.528 23.2045 312.903 22.9773C312.283 22.75 311.776 22.4493 311.383 22.0753C310.99 21.7012 310.696 21.2917 310.502 20.8466L312.328 20.0938C312.455 20.3021 312.626 20.5223 312.839 20.7543C313.057 20.991 313.35 21.1922 313.72 21.358C314.094 21.5237 314.574 21.6065 315.161 21.6065C315.966 21.6065 316.632 21.41 317.157 21.017C317.683 20.6288 317.945 20.0085 317.945 19.1562V17.0114H317.811C317.683 17.2434 317.498 17.5014 317.257 17.7855C317.02 18.0696 316.693 18.3158 316.276 18.5241C315.86 18.7325 315.318 18.8366 314.65 18.8366C313.788 18.8366 313.012 18.6354 312.32 18.233C311.634 17.8258 311.089 17.2268 310.687 16.4361C310.289 15.6406 310.09 14.6629 310.09 13.5028C310.09 12.3428 310.287 11.3485 310.68 10.5199C311.078 9.69129 311.622 9.05682 312.313 8.61648C313.005 8.1714 313.788 7.94886 314.664 7.94886C315.341 7.94886 315.888 8.0625 316.305 8.28977C316.722 8.51231 317.046 8.77273 317.278 9.07102C317.515 9.36932 317.697 9.6321 317.825 9.85938H317.981V8.09091H320.062V19.2415C320.062 20.179 319.844 20.9484 319.409 21.5497C318.973 22.151 318.383 22.5961 317.64 22.8849C316.901 23.1738 316.068 23.3182 315.14 23.3182ZM315.119 17.0753C315.73 17.0753 316.246 16.9332 316.667 16.6491C317.093 16.3603 317.415 15.9484 317.633 15.4134C317.856 14.8736 317.967 14.2273 317.967 13.4744C317.967 12.7405 317.858 12.0942 317.64 11.5355C317.422 10.9768 317.103 10.5412 316.681 10.2287C316.26 9.91146 315.739 9.75284 315.119 9.75284C314.48 9.75284 313.947 9.91856 313.521 10.25C313.095 10.5767 312.773 11.0218 312.555 11.5852C312.342 12.1487 312.235 12.7784 312.235 13.4744C312.235 14.1894 312.344 14.8168 312.562 15.3565C312.78 15.8963 313.102 16.3177 313.528 16.6207C313.959 16.9238 314.489 17.0753 315.119 17.0753ZM335.113 14.4759V8.09091H337.244V19H335.156V17.1108H335.042C334.791 17.6932 334.389 18.1785 333.835 18.5668C333.286 18.9503 332.602 19.142 331.782 19.142C331.082 19.142 330.461 18.9882 329.922 18.6804C329.387 18.3679 328.965 17.9062 328.657 17.2955C328.354 16.6847 328.203 15.9295 328.203 15.0298V8.09091H330.327V14.7741C330.327 15.5175 330.532 16.1094 330.944 16.5497C331.356 16.9901 331.891 17.2102 332.55 17.2102C332.947 17.2102 333.343 17.1108 333.736 16.9119C334.133 16.7131 334.462 16.4124 334.723 16.0099C334.988 15.6075 335.118 15.0961 335.113 14.4759ZM340.097 23.0909V8.09091H342.171V9.85938H342.349C342.472 9.6321 342.65 9.36932 342.882 9.07102C343.114 8.77273 343.436 8.51231 343.847 8.28977C344.259 8.0625 344.804 7.94886 345.481 7.94886C346.362 7.94886 347.148 8.1714 347.839 8.61648C348.53 9.06155 349.072 9.70312 349.465 10.5412C349.863 11.3793 350.062 12.3878 350.062 13.5668C350.062 14.7457 349.865 15.7566 349.472 16.5994C349.079 17.4375 348.54 18.0838 347.853 18.5384C347.167 18.9882 346.383 19.2131 345.502 19.2131C344.839 19.2131 344.297 19.1018 343.876 18.8793C343.459 18.6567 343.133 18.3963 342.896 18.098C342.659 17.7997 342.477 17.5346 342.349 17.3026H342.221V23.0909H340.097ZM342.178 13.5455C342.178 14.3125 342.29 14.9848 342.512 15.5625C342.735 16.1402 343.057 16.5923 343.478 16.919C343.9 17.241 344.416 17.402 345.026 17.402C345.661 17.402 346.191 17.2339 346.617 16.8977C347.044 16.5568 347.365 16.0952 347.583 15.5128C347.806 14.9304 347.917 14.2746 347.917 13.5455C347.917 12.8258 347.808 12.1795 347.59 11.6065C347.377 11.0336 347.055 10.5814 346.624 10.25C346.198 9.91856 345.666 9.75284 345.026 9.75284C344.411 9.75284 343.89 9.91146 343.464 10.2287C343.043 10.5459 342.723 10.9886 342.505 11.5568C342.287 12.125 342.178 12.7879 342.178 13.5455ZM362.827 8.09091V9.79545H356.868V8.09091H362.827ZM358.466 5.47727H360.589V15.7969C360.589 16.2088 360.651 16.5189 360.774 16.7273C360.897 16.9309 361.056 17.0705 361.25 17.1463C361.449 17.2173 361.664 17.2528 361.896 17.2528C362.067 17.2528 362.216 17.241 362.344 17.2173C362.471 17.1937 362.571 17.1747 362.642 17.1605L363.025 18.9148C362.902 18.9621 362.727 19.0095 362.5 19.0568C362.273 19.1089 361.988 19.1373 361.648 19.142C361.089 19.1515 360.568 19.0521 360.085 18.8438C359.602 18.6354 359.211 18.3134 358.913 17.8778C358.615 17.4422 358.466 16.8954 358.466 16.2372V5.47727ZM369.654 19.2202C368.631 19.2202 367.738 18.9858 366.976 18.517C366.214 18.0483 365.622 17.3925 365.2 16.5497C364.779 15.7069 364.568 14.7221 364.568 13.5952C364.568 12.4635 364.779 11.474 365.2 10.6264C365.622 9.77888 366.214 9.12074 366.976 8.65199C367.738 8.18324 368.631 7.94886 369.654 7.94886C370.676 7.94886 371.569 8.18324 372.331 8.65199C373.093 9.12074 373.685 9.77888 374.107 10.6264C374.528 11.474 374.739 12.4635 374.739 13.5952C374.739 14.7221 374.528 15.7069 374.107 16.5497C373.685 17.3925 373.093 18.0483 372.331 18.517C371.569 18.9858 370.676 19.2202 369.654 19.2202ZM369.661 17.4375C370.324 17.4375 370.873 17.2623 371.308 16.9119C371.744 16.5616 372.066 16.0952 372.274 15.5128C372.487 14.9304 372.594 14.2888 372.594 13.5881C372.594 12.892 372.487 12.2528 372.274 11.6705C372.066 11.0833 371.744 10.6122 371.308 10.2571C370.873 9.90199 370.324 9.72443 369.661 9.72443C368.993 9.72443 368.439 9.90199 367.999 10.2571C367.563 10.6122 367.239 11.0833 367.026 11.6705C366.817 12.2528 366.713 12.892 366.713 13.5881C366.713 14.2888 366.817 14.9304 367.026 15.5128C367.239 16.0952 367.563 16.5616 367.999 16.9119C368.439 17.2623 368.993 17.4375 369.661 17.4375ZM390.577 10.7543L388.652 11.0952C388.572 10.849 388.444 10.6146 388.269 10.392C388.098 10.1695 387.866 9.98722 387.573 9.84517C387.279 9.70312 386.912 9.6321 386.472 9.6321C385.87 9.6321 385.369 9.76705 384.966 10.0369C384.564 10.3021 384.362 10.6454 384.362 11.0668C384.362 11.4313 384.497 11.7249 384.767 11.9474C385.037 12.17 385.473 12.3523 386.074 12.4943L387.807 12.892C388.811 13.1241 389.559 13.4815 390.051 13.9645C390.544 14.4474 390.79 15.0748 390.79 15.8466C390.79 16.5 390.601 17.0824 390.222 17.5938C389.848 18.1004 389.325 18.4981 388.652 18.7869C387.985 19.0758 387.21 19.2202 386.33 19.2202C385.108 19.2202 384.111 18.9598 383.34 18.4389C382.568 17.9134 382.094 17.1676 381.919 16.2017L383.972 15.8892C384.1 16.4242 384.362 16.8291 384.76 17.1037C385.158 17.3736 385.676 17.5085 386.316 17.5085C387.012 17.5085 387.568 17.3641 387.985 17.0753C388.401 16.7817 388.61 16.4242 388.61 16.0028C388.61 15.6619 388.482 15.3755 388.226 15.1435C387.975 14.9115 387.589 14.7363 387.068 14.6179L385.222 14.2131C384.204 13.9811 383.451 13.6117 382.963 13.1051C382.48 12.5985 382.239 11.9569 382.239 11.1804C382.239 10.5365 382.419 9.97301 382.779 9.49006C383.138 9.0071 383.636 8.63068 384.27 8.3608C384.905 8.08617 385.631 7.94886 386.45 7.94886C387.629 7.94886 388.557 8.20455 389.235 8.71591C389.912 9.22254 390.359 9.90199 390.577 10.7543ZM396.3 19.2415C395.608 19.2415 394.983 19.1136 394.425 18.858C393.866 18.5975 393.423 18.2211 393.096 17.7287C392.774 17.2363 392.613 16.6326 392.613 15.9176C392.613 15.3021 392.732 14.7955 392.969 14.3977C393.205 14 393.525 13.6851 393.927 13.4531C394.33 13.2211 394.78 13.0459 395.277 12.9276C395.774 12.8092 396.281 12.7192 396.797 12.6577C397.45 12.5819 397.98 12.5204 398.388 12.473C398.795 12.4209 399.091 12.3381 399.275 12.2244C399.46 12.1108 399.552 11.9261 399.552 11.6705V11.6207C399.552 11.0005 399.377 10.5199 399.027 10.179C398.681 9.83807 398.165 9.66761 397.479 9.66761C396.764 9.66761 396.2 9.82623 395.788 10.1435C395.381 10.456 395.099 10.804 394.943 11.1875L392.947 10.733C393.184 10.0701 393.53 9.53504 393.984 9.12784C394.443 8.71591 394.971 8.41761 395.568 8.23295C396.165 8.04356 396.792 7.94886 397.45 7.94886C397.886 7.94886 398.347 8.00095 398.835 8.10511C399.327 8.20455 399.787 8.3892 400.213 8.65909C400.644 8.92898 400.997 9.31487 401.271 9.81676C401.546 10.3139 401.683 10.9602 401.683 11.7557V19H399.609V17.5085H399.524C399.387 17.7831 399.181 18.053 398.906 18.3182C398.631 18.5833 398.279 18.8035 397.848 18.9787C397.417 19.1539 396.901 19.2415 396.3 19.2415ZM396.761 17.5369C397.348 17.5369 397.85 17.4209 398.267 17.1889C398.688 16.9569 399.008 16.6539 399.226 16.2798C399.448 15.901 399.559 15.4962 399.559 15.0653V13.6591C399.484 13.7348 399.337 13.8059 399.119 13.8722C398.906 13.9337 398.662 13.9882 398.388 14.0355C398.113 14.0781 397.845 14.1184 397.585 14.1562C397.325 14.1894 397.107 14.2178 396.932 14.2415C396.52 14.2936 396.143 14.3812 395.802 14.5043C395.466 14.6274 395.196 14.8049 394.993 15.0369C394.794 15.2642 394.694 15.5672 394.694 15.946C394.694 16.4716 394.889 16.8693 395.277 17.1392C395.665 17.4044 396.16 17.5369 396.761 17.5369ZM405.463 23.0909C405.146 23.0909 404.857 23.0649 404.597 23.0128C404.336 22.9654 404.142 22.9134 404.014 22.8565L404.526 21.1165C404.914 21.2206 405.26 21.2656 405.563 21.2514C405.866 21.2372 406.133 21.1236 406.365 20.9105C406.602 20.6974 406.81 20.3494 406.99 19.8665L407.253 19.142L403.262 8.09091H405.534L408.297 16.5568H408.411L411.173 8.09091H413.453L408.958 20.456C408.749 21.0241 408.484 21.5047 408.162 21.8977C407.84 22.2955 407.457 22.5938 407.012 22.7926C406.566 22.9915 406.05 23.0909 405.463 23.0909ZM105.756 36.5227V43H103.633V28.4545H105.728V33.8665H105.863C106.118 33.2794 106.509 32.813 107.035 32.4673C107.56 32.1217 108.247 31.9489 109.094 31.9489C109.842 31.9489 110.496 32.1027 111.055 32.4105C111.618 32.7183 112.054 33.1776 112.361 33.7884C112.674 34.3944 112.83 35.152 112.83 36.0611V43H110.706V36.3168C110.706 35.5166 110.501 34.8963 110.089 34.456C109.677 34.0109 109.104 33.7884 108.37 33.7884C107.868 33.7884 107.418 33.8949 107.02 34.108C106.627 34.321 106.317 34.6335 106.09 35.0455C105.867 35.4527 105.756 35.9451 105.756 36.5227ZM115.664 43V32.0909H117.787V43H115.664ZM116.736 30.4077C116.367 30.4077 116.05 30.2846 115.785 30.0384C115.524 29.7874 115.394 29.4891 115.394 29.1435C115.394 28.7931 115.524 28.4948 115.785 28.2486C116.05 27.9976 116.367 27.8722 116.736 27.8722C117.106 27.8722 117.421 27.9976 117.681 28.2486C117.946 28.4948 118.079 28.7931 118.079 29.1435C118.079 29.4891 117.946 29.7874 117.681 30.0384C117.421 30.2846 117.106 30.4077 116.736 30.4077ZM125.937 43V32.0909H128.061V43H125.937ZM127.01 30.4077C126.64 30.4077 126.323 30.2846 126.058 30.0384C125.798 29.7874 125.667 29.4891 125.667 29.1435C125.667 28.7931 125.798 28.4948 126.058 28.2486C126.323 27.9976 126.64 27.8722 127.01 27.8722C127.379 27.8722 127.694 27.9976 127.954 28.2486C128.22 28.4948 128.352 28.7931 128.352 29.1435C128.352 29.4891 128.22 29.7874 127.954 30.0384C127.694 30.2846 127.379 30.4077 127.01 30.4077ZM133.041 36.5227V43H130.918V32.0909H132.956V33.8665H133.091C133.342 33.2888 133.735 32.8248 134.27 32.4744C134.81 32.1241 135.489 31.9489 136.308 31.9489C137.052 31.9489 137.703 32.1051 138.262 32.4176C138.82 32.7254 139.253 33.1847 139.561 33.7955C139.869 34.4062 140.023 35.1615 140.023 36.0611V43H137.899V36.3168C137.899 35.526 137.693 34.9081 137.281 34.4631C136.869 34.0133 136.304 33.7884 135.584 33.7884C135.092 33.7884 134.654 33.8949 134.27 34.108C133.891 34.321 133.591 34.6335 133.368 35.0455C133.15 35.4527 133.041 35.9451 133.041 36.5227ZM148.334 43V28.4545H157.354V30.3438H150.529V34.7756H156.708V36.6577H150.529V43H148.334ZM159.883 43V32.0909H162.006V43H159.883ZM160.955 30.4077C160.586 30.4077 160.269 30.2846 160.003 30.0384C159.743 29.7874 159.613 29.4891 159.613 29.1435C159.613 28.7931 159.743 28.4948 160.003 28.2486C160.269 27.9976 160.586 27.8722 160.955 27.8722C161.324 27.8722 161.639 27.9976 161.9 28.2486C162.165 28.4948 162.297 28.7931 162.297 29.1435C162.297 29.4891 162.165 29.7874 161.9 30.0384C161.639 30.2846 161.324 30.4077 160.955 30.4077ZM169.437 47.3182C168.57 47.3182 167.825 47.2045 167.2 46.9773C166.579 46.75 166.073 46.4493 165.68 46.0753C165.287 45.7012 164.993 45.2917 164.799 44.8466L166.624 44.0938C166.752 44.3021 166.923 44.5223 167.136 44.7543C167.354 44.991 167.647 45.1922 168.017 45.358C168.391 45.5237 168.871 45.6065 169.458 45.6065C170.263 45.6065 170.928 45.41 171.454 45.017C171.98 44.6288 172.242 44.0085 172.242 43.1562V41.0114H172.107C171.98 41.2434 171.795 41.5014 171.553 41.7855C171.317 42.0696 170.99 42.3158 170.573 42.5241C170.157 42.7325 169.615 42.8366 168.947 42.8366C168.085 42.8366 167.309 42.6354 166.617 42.233C165.931 41.8258 165.386 41.2268 164.984 40.4361C164.586 39.6406 164.387 38.6629 164.387 37.5028C164.387 36.3428 164.584 35.3485 164.977 34.5199C165.374 33.6913 165.919 33.0568 166.61 32.6165C167.302 32.1714 168.085 31.9489 168.961 31.9489C169.638 31.9489 170.185 32.0625 170.602 32.2898C171.018 32.5123 171.343 32.7727 171.575 33.071C171.811 33.3693 171.994 33.6321 172.122 33.8594H172.278V32.0909H174.359V43.2415C174.359 44.179 174.141 44.9484 173.705 45.5497C173.27 46.151 172.68 46.5961 171.937 46.8849C171.198 47.1738 170.365 47.3182 169.437 47.3182ZM169.416 41.0753C170.026 41.0753 170.543 40.9332 170.964 40.6491C171.39 40.3603 171.712 39.9484 171.93 39.4134C172.152 38.8736 172.264 38.2273 172.264 37.4744C172.264 36.7405 172.155 36.0942 171.937 35.5355C171.719 34.9768 171.4 34.5412 170.978 34.2287C170.557 33.9115 170.036 33.7528 169.416 33.7528C168.776 33.7528 168.244 33.9186 167.818 34.25C167.392 34.5767 167.07 35.0218 166.852 35.5852C166.639 36.1487 166.532 36.7784 166.532 37.4744C166.532 38.1894 166.641 38.8168 166.859 39.3565C167.077 39.8963 167.399 40.3177 167.825 40.6207C168.256 40.9238 168.786 41.0753 169.416 41.0753ZM177.207 43V32.0909H179.245V33.8665H179.38C179.607 33.2652 179.979 32.7964 180.495 32.4602C181.011 32.1193 181.629 31.9489 182.349 31.9489C183.078 31.9489 183.689 32.1193 184.181 32.4602C184.678 32.8011 185.045 33.2699 185.282 33.8665H185.396C185.656 33.2841 186.07 32.8201 186.639 32.4744C187.207 32.1241 187.884 31.9489 188.67 31.9489C189.66 31.9489 190.467 32.259 191.092 32.8793C191.722 33.4995 192.036 34.4347 192.036 35.6847V43H189.913V35.8835C189.913 35.1449 189.712 34.6098 189.309 34.2784C188.907 33.947 188.426 33.7812 187.867 33.7812C187.176 33.7812 186.639 33.9943 186.255 34.4205C185.872 34.8419 185.68 35.384 185.68 36.0469V43H183.563V35.7486C183.563 35.1567 183.379 34.6809 183.009 34.321C182.64 33.9612 182.16 33.7812 181.568 33.7812C181.165 33.7812 180.794 33.8878 180.453 34.1009C180.116 34.3092 179.844 34.6004 179.636 34.9744C179.432 35.3485 179.33 35.7817 179.33 36.2741V43H177.207ZM198.057 43.2415C197.366 43.2415 196.741 43.1136 196.182 42.858C195.624 42.5975 195.181 42.2211 194.854 41.7287C194.532 41.2363 194.371 40.6326 194.371 39.9176C194.371 39.3021 194.49 38.7955 194.726 38.3977C194.963 38 195.283 37.6851 195.685 37.4531C196.088 37.2211 196.537 37.0459 197.035 36.9276C197.532 36.8092 198.038 36.7192 198.555 36.6577C199.208 36.5819 199.738 36.5204 200.145 36.473C200.553 36.4209 200.849 36.3381 201.033 36.2244C201.218 36.1108 201.31 35.9261 201.31 35.6705V35.6207C201.31 35.0005 201.135 34.5199 200.785 34.179C200.439 33.8381 199.923 33.6676 199.236 33.6676C198.521 33.6676 197.958 33.8262 197.546 34.1435C197.139 34.456 196.857 34.804 196.701 35.1875L194.705 34.733C194.942 34.0701 195.287 33.535 195.742 33.1278C196.201 32.7159 196.729 32.4176 197.326 32.233C197.922 32.0436 198.55 31.9489 199.208 31.9489C199.644 31.9489 200.105 32.0009 200.593 32.1051C201.085 32.2045 201.545 32.3892 201.971 32.6591C202.402 32.929 202.754 33.3149 203.029 33.8168C203.304 34.3139 203.441 34.9602 203.441 35.7557V43H201.367V41.5085H201.282C201.144 41.7831 200.939 42.053 200.664 42.3182C200.389 42.5833 200.037 42.8035 199.606 42.9787C199.175 43.1539 198.659 43.2415 198.057 43.2415ZM198.519 41.5369C199.106 41.5369 199.608 41.4209 200.025 41.1889C200.446 40.9569 200.766 40.6539 200.983 40.2798C201.206 39.901 201.317 39.4962 201.317 39.0653V37.6591C201.242 37.7348 201.095 37.8059 200.877 37.8722C200.664 37.9337 200.42 37.9882 200.145 38.0355C199.871 38.0781 199.603 38.1184 199.343 38.1562C199.082 38.1894 198.865 38.2178 198.689 38.2415C198.278 38.2936 197.901 38.3812 197.56 38.5043C197.224 38.6274 196.954 38.8049 196.751 39.0369C196.552 39.2642 196.452 39.5672 196.452 39.946C196.452 40.4716 196.646 40.8693 197.035 41.1392C197.423 41.4044 197.918 41.5369 198.519 41.5369ZM216.754 32.0909V33.7955H210.589V32.0909H216.754ZM212.28 43V30.8267C212.28 30.1449 212.429 29.5791 212.727 29.1293C213.025 28.6747 213.421 28.3362 213.913 28.1136C214.406 27.8864 214.941 27.7727 215.518 27.7727C215.944 27.7727 216.309 27.8082 216.612 27.8793C216.915 27.9455 217.14 28.0071 217.287 28.0639L216.79 29.7827C216.69 29.7543 216.562 29.7211 216.406 29.6832C216.25 29.6406 216.06 29.6193 215.838 29.6193C215.322 29.6193 214.952 29.7472 214.73 30.0028C214.512 30.2585 214.403 30.6278 214.403 31.1108V43H212.28ZM218.945 43V32.0909H221.069V43H218.945ZM220.018 30.4077C219.648 30.4077 219.331 30.2846 219.066 30.0384C218.805 29.7874 218.675 29.4891 218.675 29.1435C218.675 28.7931 218.805 28.4948 219.066 28.2486C219.331 27.9976 219.648 27.8722 220.018 27.8722C220.387 27.8722 220.702 27.9976 220.962 28.2486C221.227 28.4948 221.36 28.7931 221.36 29.1435C221.36 29.4891 221.227 29.7874 220.962 30.0384C220.702 30.2846 220.387 30.4077 220.018 30.4077ZM226.049 28.4545V43H223.926V28.4545H226.049ZM233.608 43.2202C232.533 43.2202 231.607 42.9905 230.831 42.5312C230.059 42.0672 229.462 41.4162 229.041 40.5781C228.624 39.7353 228.416 38.7481 228.416 37.6165C228.416 36.4991 228.624 35.5142 229.041 34.6619C229.462 33.8097 230.05 33.1444 230.802 32.6662C231.56 32.188 232.445 31.9489 233.459 31.9489C234.074 31.9489 234.671 32.0507 235.248 32.2543C235.826 32.4579 236.345 32.7775 236.804 33.2131C237.263 33.6487 237.625 34.2145 237.89 34.9105C238.156 35.6018 238.288 36.4422 238.288 37.4318V38.1847H229.616V36.5938H236.207C236.207 36.035 236.094 35.5402 235.866 35.1094C235.639 34.6738 235.319 34.3305 234.907 34.0795C234.5 33.8286 234.022 33.7031 233.473 33.7031C232.876 33.7031 232.355 33.8499 231.91 34.1435C231.47 34.4323 231.129 34.8111 230.888 35.2798C230.651 35.7438 230.532 36.2481 230.532 36.7926V38.0355C230.532 38.7647 230.66 39.3849 230.916 39.8963C231.176 40.4077 231.539 40.7983 232.003 41.0682C232.467 41.3333 233.009 41.4659 233.629 41.4659C234.032 41.4659 234.398 41.4091 234.73 41.2955C235.061 41.1771 235.348 41.0019 235.589 40.7699C235.831 40.5379 236.015 40.2514 236.143 39.9105L238.153 40.2727C237.992 40.8646 237.703 41.383 237.287 41.8281C236.875 42.2685 236.356 42.6117 235.731 42.858C235.111 43.0994 234.403 43.2202 233.608 43.2202ZM248.819 34.7543L246.894 35.0952C246.814 34.849 246.686 34.6146 246.511 34.392C246.34 34.1695 246.108 33.9872 245.815 33.8452C245.521 33.7031 245.154 33.6321 244.714 33.6321C244.113 33.6321 243.611 33.767 243.208 34.0369C242.806 34.3021 242.605 34.6454 242.605 35.0668C242.605 35.4313 242.74 35.7249 243.009 35.9474C243.279 36.17 243.715 36.3523 244.316 36.4943L246.049 36.892C247.053 37.1241 247.801 37.4815 248.294 37.9645C248.786 38.4474 249.032 39.0748 249.032 39.8466C249.032 40.5 248.843 41.0824 248.464 41.5938C248.09 42.1004 247.567 42.4981 246.894 42.7869C246.227 43.0758 245.453 43.2202 244.572 43.2202C243.35 43.2202 242.354 42.9598 241.582 42.4389C240.81 41.9134 240.337 41.1676 240.161 40.2017L242.214 39.8892C242.342 40.4242 242.605 40.8291 243.002 41.1037C243.4 41.3736 243.919 41.5085 244.558 41.5085C245.254 41.5085 245.81 41.3641 246.227 41.0753C246.643 40.7817 246.852 40.4242 246.852 40.0028C246.852 39.6619 246.724 39.3755 246.468 39.1435C246.217 38.9115 245.831 38.7363 245.311 38.6179L243.464 38.2131C242.446 37.9811 241.693 37.6117 241.205 37.1051C240.722 36.5985 240.481 35.9569 240.481 35.1804C240.481 34.5365 240.661 33.973 241.021 33.4901C241.381 33.0071 241.878 32.6307 242.512 32.3608C243.147 32.0862 243.874 31.9489 244.693 31.9489C245.872 31.9489 246.8 32.2045 247.477 32.7159C248.154 33.2225 248.601 33.902 248.819 34.7543ZM256.83 43V28.4545H258.954V33.8594H259.082C259.205 33.6321 259.383 33.3693 259.615 33.071C259.847 32.7727 260.169 32.5123 260.58 32.2898C260.992 32.0625 261.537 31.9489 262.214 31.9489C263.095 31.9489 263.881 32.1714 264.572 32.6165C265.263 33.0616 265.805 33.7031 266.198 34.5412C266.596 35.3793 266.795 36.3878 266.795 37.5668C266.795 38.7457 266.598 39.7566 266.205 40.5994C265.812 41.4375 265.273 42.0838 264.586 42.5384C263.9 42.9882 263.116 43.2131 262.235 43.2131C261.572 43.2131 261.03 43.1018 260.609 42.8793C260.192 42.6567 259.865 42.3963 259.629 42.098C259.392 41.7997 259.21 41.5346 259.082 41.3026H258.904V43H256.83ZM258.911 37.5455C258.911 38.3125 259.023 38.9848 259.245 39.5625C259.468 40.1402 259.79 40.5923 260.211 40.919C260.633 41.241 261.149 41.402 261.759 41.402C262.394 41.402 262.924 41.2339 263.35 40.8977C263.776 40.5568 264.098 40.0952 264.316 39.5128C264.539 38.9304 264.65 38.2746 264.65 37.5455C264.65 36.8258 264.541 36.1795 264.323 35.6065C264.11 35.0336 263.788 34.5814 263.357 34.25C262.931 33.9186 262.399 33.7528 261.759 33.7528C261.144 33.7528 260.623 33.9115 260.197 34.2287C259.776 34.5459 259.456 34.9886 259.238 35.5568C259.02 36.125 258.911 36.7879 258.911 37.5455ZM273.881 43.2202C272.806 43.2202 271.881 42.9905 271.104 42.5312C270.332 42.0672 269.736 41.4162 269.314 40.5781C268.898 39.7353 268.689 38.7481 268.689 37.6165C268.689 36.4991 268.898 35.5142 269.314 34.6619C269.736 33.8097 270.323 33.1444 271.076 32.6662C271.833 32.188 272.719 31.9489 273.732 31.9489C274.348 31.9489 274.944 32.0507 275.522 32.2543C276.099 32.4579 276.618 32.7775 277.077 33.2131C277.537 33.6487 277.899 34.2145 278.164 34.9105C278.429 35.6018 278.562 36.4422 278.562 37.4318V38.1847H269.89V36.5938H276.481C276.481 36.035 276.367 35.5402 276.14 35.1094C275.912 34.6738 275.593 34.3305 275.181 34.0795C274.774 33.8286 274.296 33.7031 273.746 33.7031C273.15 33.7031 272.629 33.8499 272.184 34.1435C271.743 34.4323 271.403 34.8111 271.161 35.2798C270.924 35.7438 270.806 36.2481 270.806 36.7926V38.0355C270.806 38.7647 270.934 39.3849 271.189 39.8963C271.45 40.4077 271.812 40.7983 272.276 41.0682C272.74 41.3333 273.282 41.4659 273.903 41.4659C274.305 41.4659 274.672 41.4091 275.003 41.2955C275.335 41.1771 275.621 41.0019 275.863 40.7699C276.104 40.5379 276.289 40.2514 276.417 39.9105L278.427 40.2727C278.266 40.8646 277.977 41.383 277.56 41.8281C277.148 42.2685 276.63 42.6117 276.005 42.858C275.385 43.0994 274.677 43.2202 273.881 43.2202ZM286.11 32.0909V33.7955H279.945V32.0909H286.11ZM281.635 43V30.8267C281.635 30.1449 281.784 29.5791 282.083 29.1293C282.381 28.6747 282.776 28.3362 283.269 28.1136C283.761 27.8864 284.296 27.7727 284.874 27.7727C285.3 27.7727 285.664 27.8082 285.968 27.8793C286.271 27.9455 286.495 28.0071 286.642 28.0639L286.145 29.7827C286.046 29.7543 285.918 29.7211 285.762 29.6832C285.605 29.6406 285.416 29.6193 285.193 29.6193C284.677 29.6193 284.308 29.7472 284.085 30.0028C283.868 30.2585 283.759 30.6278 283.759 31.1108V43H281.635ZM292.466 43.2202C291.443 43.2202 290.551 42.9858 289.789 42.517C289.026 42.0483 288.434 41.3925 288.013 40.5497C287.592 39.7069 287.381 38.7221 287.381 37.5952C287.381 36.4635 287.592 35.474 288.013 34.6264C288.434 33.7789 289.026 33.1207 289.789 32.652C290.551 32.1832 291.443 31.9489 292.466 31.9489C293.489 31.9489 294.381 32.1832 295.144 32.652C295.906 33.1207 296.498 33.7789 296.919 34.6264C297.341 35.474 297.551 36.4635 297.551 37.5952C297.551 38.7221 297.341 39.7069 296.919 40.5497C296.498 41.3925 295.906 42.0483 295.144 42.517C294.381 42.9858 293.489 43.2202 292.466 43.2202ZM292.473 41.4375C293.136 41.4375 293.685 41.2623 294.121 40.9119C294.557 40.5616 294.878 40.0952 295.087 39.5128C295.3 38.9304 295.406 38.2888 295.406 37.5881C295.406 36.892 295.3 36.2528 295.087 35.6705C294.878 35.0833 294.557 34.6122 294.121 34.2571C293.685 33.902 293.136 33.7244 292.473 33.7244C291.806 33.7244 291.252 33.902 290.811 34.2571C290.376 34.6122 290.051 35.0833 289.838 35.6705C289.63 36.2528 289.526 36.892 289.526 37.5881C289.526 38.2888 289.63 38.9304 289.838 39.5128C290.051 40.0952 290.376 40.5616 290.811 40.9119C291.252 41.2623 291.806 41.4375 292.473 41.4375ZM299.922 43V32.0909H301.974V33.8239H302.088C302.287 33.2367 302.637 32.7751 303.139 32.4389C303.646 32.098 304.219 31.9276 304.858 31.9276C304.99 31.9276 305.147 31.9323 305.327 31.9418C305.511 31.9512 305.656 31.9631 305.76 31.9773V34.0085C305.675 33.9848 305.523 33.9588 305.305 33.9304C305.087 33.8973 304.87 33.8807 304.652 33.8807C304.15 33.8807 303.702 33.9872 303.309 34.2003C302.921 34.4086 302.613 34.6998 302.386 35.0739C302.159 35.4432 302.045 35.8646 302.045 36.3381V43H299.922ZM311.909 43.2202C310.834 43.2202 309.908 42.9905 309.132 42.5312C308.36 42.0672 307.763 41.4162 307.342 40.5781C306.925 39.7353 306.717 38.7481 306.717 37.6165C306.717 36.4991 306.925 35.5142 307.342 34.6619C307.763 33.8097 308.35 33.1444 309.103 32.6662C309.861 32.188 310.746 31.9489 311.759 31.9489C312.375 31.9489 312.972 32.0507 313.549 32.2543C314.127 32.4579 314.645 32.7775 315.105 33.2131C315.564 33.6487 315.926 34.2145 316.191 34.9105C316.456 35.6018 316.589 36.4422 316.589 37.4318V38.1847H307.917V36.5938H314.508C314.508 36.035 314.394 35.5402 314.167 35.1094C313.94 34.6738 313.62 34.3305 313.208 34.0795C312.801 33.8286 312.323 33.7031 311.774 33.7031C311.177 33.7031 310.656 33.8499 310.211 34.1435C309.771 34.4323 309.43 34.8111 309.188 35.2798C308.952 35.7438 308.833 36.2481 308.833 36.7926V38.0355C308.833 38.7647 308.961 39.3849 309.217 39.8963C309.477 40.4077 309.839 40.7983 310.303 41.0682C310.767 41.3333 311.31 41.4659 311.93 41.4659C312.332 41.4659 312.699 41.4091 313.031 41.2955C313.362 41.1771 313.649 41.0019 313.89 40.7699C314.132 40.5379 314.316 40.2514 314.444 39.9105L316.454 40.2727C316.293 40.8646 316.004 41.383 315.588 41.8281C315.176 42.2685 314.657 42.6117 314.032 42.858C313.412 43.0994 312.704 43.2202 311.909 43.2202ZM326.362 28.4545V43H324.238V28.4545H326.362ZM333.92 43.2202C332.845 43.2202 331.92 42.9905 331.143 42.5312C330.372 42.0672 329.775 41.4162 329.354 40.5781C328.937 39.7353 328.729 38.7481 328.729 37.6165C328.729 36.4991 328.937 35.5142 329.354 34.6619C329.775 33.8097 330.362 33.1444 331.115 32.6662C331.872 32.188 332.758 31.9489 333.771 31.9489C334.387 31.9489 334.983 32.0507 335.561 32.2543C336.139 32.4579 336.657 32.7775 337.116 33.2131C337.576 33.6487 337.938 34.2145 338.203 34.9105C338.468 35.6018 338.601 36.4422 338.601 37.4318V38.1847H329.929V36.5938H336.52C336.52 36.035 336.406 35.5402 336.179 35.1094C335.952 34.6738 335.632 34.3305 335.22 34.0795C334.813 33.8286 334.335 33.7031 333.785 33.7031C333.189 33.7031 332.668 33.8499 332.223 34.1435C331.782 34.4323 331.442 34.8111 331.2 35.2798C330.963 35.7438 330.845 36.2481 330.845 36.7926V38.0355C330.845 38.7647 330.973 39.3849 331.229 39.8963C331.489 40.4077 331.851 40.7983 332.315 41.0682C332.779 41.3333 333.321 41.4659 333.942 41.4659C334.344 41.4659 334.711 41.4091 335.042 41.2955C335.374 41.1771 335.66 41.0019 335.902 40.7699C336.143 40.5379 336.328 40.2514 336.456 39.9105L338.466 40.2727C338.305 40.8646 338.016 41.383 337.599 41.8281C337.187 42.2685 336.669 42.6117 336.044 42.858C335.424 43.0994 334.716 43.2202 333.92 43.2202ZM344.132 43.2415C343.44 43.2415 342.815 43.1136 342.257 42.858C341.698 42.5975 341.255 42.2211 340.928 41.7287C340.606 41.2363 340.445 40.6326 340.445 39.9176C340.445 39.3021 340.564 38.7955 340.801 38.3977C341.037 38 341.357 37.6851 341.759 37.4531C342.162 37.2211 342.612 37.0459 343.109 36.9276C343.606 36.8092 344.113 36.7192 344.629 36.6577C345.282 36.5819 345.812 36.5204 346.22 36.473C346.627 36.4209 346.923 36.3381 347.107 36.2244C347.292 36.1108 347.384 35.9261 347.384 35.6705V35.6207C347.384 35.0005 347.209 34.5199 346.859 34.179C346.513 33.8381 345.997 33.6676 345.311 33.6676C344.596 33.6676 344.032 33.8262 343.62 34.1435C343.213 34.456 342.931 34.804 342.775 35.1875L340.779 34.733C341.016 34.0701 341.362 33.535 341.816 33.1278C342.276 32.7159 342.803 32.4176 343.4 32.233C343.997 32.0436 344.624 31.9489 345.282 31.9489C345.718 31.9489 346.179 32.0009 346.667 32.1051C347.16 32.2045 347.619 32.3892 348.045 32.6591C348.476 32.929 348.829 33.3149 349.103 33.8168C349.378 34.3139 349.515 34.9602 349.515 35.7557V43H347.441V41.5085H347.356C347.219 41.7831 347.013 42.053 346.738 42.3182C346.463 42.5833 346.111 42.8035 345.68 42.9787C345.249 43.1539 344.733 43.2415 344.132 43.2415ZM344.593 41.5369C345.18 41.5369 345.682 41.4209 346.099 41.1889C346.52 40.9569 346.84 40.6539 347.058 40.2798C347.28 39.901 347.392 39.4962 347.392 39.0653V37.6591C347.316 37.7348 347.169 37.8059 346.951 37.8722C346.738 37.9337 346.494 37.9882 346.22 38.0355C345.945 38.0781 345.677 38.1184 345.417 38.1562C345.157 38.1894 344.939 38.2178 344.764 38.2415C344.352 38.2936 343.975 38.3812 343.634 38.5043C343.298 38.6274 343.028 38.8049 342.825 39.0369C342.626 39.2642 342.526 39.5672 342.526 39.946C342.526 40.4716 342.721 40.8693 343.109 41.1392C343.497 41.4044 343.992 41.5369 344.593 41.5369ZM361.285 32.0909L357.329 43H355.057L351.094 32.0909H353.373L356.136 40.4858H356.25L359.006 32.0909H361.285ZM363.281 43V32.0909H365.405V43H363.281ZM364.354 30.4077C363.984 30.4077 363.667 30.2846 363.402 30.0384C363.141 29.7874 363.011 29.4891 363.011 29.1435C363.011 28.7931 363.141 28.4948 363.402 28.2486C363.667 27.9976 363.984 27.8722 364.354 27.8722C364.723 27.8722 365.038 27.9976 365.298 28.2486C365.563 28.4948 365.696 28.7931 365.696 29.1435C365.696 29.4891 365.563 29.7874 365.298 30.0384C365.038 30.2846 364.723 30.4077 364.354 30.4077ZM370.385 36.5227V43H368.262V32.0909H370.3V33.8665H370.435C370.686 33.2888 371.079 32.8248 371.614 32.4744C372.154 32.1241 372.833 31.9489 373.652 31.9489C374.396 31.9489 375.047 32.1051 375.605 32.4176C376.164 32.7254 376.597 33.1847 376.905 33.7955C377.213 34.4062 377.367 35.1615 377.367 36.0611V43H375.243V36.3168C375.243 35.526 375.037 34.9081 374.625 34.4631C374.213 34.0133 373.647 33.7884 372.928 33.7884C372.435 33.7884 371.997 33.8949 371.614 34.108C371.235 34.321 370.934 34.6335 370.712 35.0455C370.494 35.4527 370.385 35.9451 370.385 36.5227ZM384.789 47.3182C383.922 47.3182 383.176 47.2045 382.551 46.9773C381.931 46.75 381.424 46.4493 381.031 46.0753C380.638 45.7012 380.345 45.2917 380.151 44.8466L381.976 44.0938C382.104 44.3021 382.274 44.5223 382.487 44.7543C382.705 44.991 382.999 45.1922 383.368 45.358C383.742 45.5237 384.223 45.6065 384.81 45.6065C385.615 45.6065 386.28 45.41 386.806 45.017C387.331 44.6288 387.594 44.0085 387.594 43.1562V41.0114H387.459C387.331 41.2434 387.146 41.5014 386.905 41.7855C386.668 42.0696 386.342 42.3158 385.925 42.5241C385.508 42.7325 384.966 42.8366 384.298 42.8366C383.437 42.8366 382.66 42.6354 381.969 42.233C381.282 41.8258 380.738 41.2268 380.335 40.4361C379.938 39.6406 379.739 38.6629 379.739 37.5028C379.739 36.3428 379.935 35.3485 380.328 34.5199C380.726 33.6913 381.271 33.0568 381.962 32.6165C382.653 32.1714 383.437 31.9489 384.313 31.9489C384.99 31.9489 385.537 32.0625 385.953 32.2898C386.37 32.5123 386.694 32.7727 386.926 33.071C387.163 33.3693 387.345 33.6321 387.473 33.8594H387.629V32.0909H389.71V43.2415C389.71 44.179 389.493 44.9484 389.057 45.5497C388.621 46.151 388.032 46.5961 387.289 46.8849C386.55 47.1738 385.717 47.3182 384.789 47.3182ZM384.767 41.0753C385.378 41.0753 385.894 40.9332 386.316 40.6491C386.742 40.3603 387.064 39.9484 387.281 39.4134C387.504 38.8736 387.615 38.2273 387.615 37.4744C387.615 36.7405 387.506 36.0942 387.289 35.5355C387.071 34.9768 386.751 34.5412 386.33 34.2287C385.908 33.9115 385.387 33.7528 384.767 33.7528C384.128 33.7528 383.595 33.9186 383.169 34.25C382.743 34.5767 382.421 35.0218 382.203 35.5852C381.99 36.1487 381.884 36.7784 381.884 37.4744C381.884 38.1894 381.993 38.8168 382.21 39.3565C382.428 39.8963 382.75 40.3177 383.176 40.6207C383.607 40.9238 384.137 41.0753 384.767 41.0753ZM393.958 43.1349C393.569 43.1349 393.235 42.9976 392.956 42.723C392.677 42.4437 392.537 42.1075 392.537 41.7145C392.537 41.3262 392.677 40.9948 392.956 40.7202C393.235 40.4408 393.569 40.3011 393.958 40.3011C394.346 40.3011 394.68 40.4408 394.959 40.7202C395.238 40.9948 395.378 41.3262 395.378 41.7145C395.378 41.9749 395.312 42.214 395.179 42.4318C395.051 42.6449 394.881 42.8153 394.668 42.9432C394.455 43.071 394.218 43.1349 393.958 43.1349Z" fill="black"/>
</svg>
